<svg width="692" height="574" viewBox="0 0 692 574" fill="none" xmlns="http://www.w3.org/2000/svg">
<g filter="url(#filter0_d_1500_11276)">
<path d="M620.354 132.384H85.7852C74.7395 132.384 65.7852 141.338 65.7852 152.384V495.486C65.7852 506.531 74.7395 515.486 85.7852 515.486H620.354C631.4 515.486 640.354 506.531 640.354 495.486V152.384C640.354 141.338 631.4 132.384 620.354 132.384Z" fill="#FAFAFA"/>
<path d="M640.354 132.384H65.7852V156.871H640.354V132.384Z" fill="#061F34"/>
<path d="M640.354 156.871C640.354 156.374 640.354 149.159 640.282 132.436C640.282 132.417 640.305 132.407 640.318 132.42C640.332 132.434 640.322 132.457 640.303 132.457L66.0589 132.654C65.9885 132.654 65.9533 132.568 66.003 132.519C66.0528 132.469 66.1378 132.504 66.1378 132.575V156.68C66.1378 156.751 66.0528 156.786 66.003 156.736C65.9533 156.686 65.9885 156.601 66.0589 156.601L640.437 156.871L65.7852 157.151C65.6363 157.151 65.5156 157.03 65.5156 156.881V132.415C65.5156 132.249 65.6503 132.114 65.8163 132.114L640.354 132.311C640.394 132.311 640.427 132.344 640.427 132.384C640.375 149.144 640.354 156.373 640.354 156.871Z" fill="#061F34"/>
<path d="M84.5502 143.896C84.5502 144.677 84.3185 145.441 83.8844 146.091C83.4502 146.741 82.8332 147.248 82.1113 147.547C81.3893 147.846 80.5949 147.924 79.8286 147.771C79.0622 147.619 78.3582 147.243 77.8056 146.69C77.2531 146.137 76.8768 145.433 76.7244 144.667C76.5719 143.9 76.6502 143.106 76.9492 142.384C77.2482 141.662 77.7546 141.044 78.4043 140.61C79.0541 140.176 79.8179 139.944 80.5993 139.944C81.6472 139.944 82.6521 140.361 83.393 141.102C84.134 141.843 84.5502 142.848 84.5502 143.896Z" fill="#E0E0E0"/>
<path d="M96.769 143.896C96.769 144.677 96.5373 145.441 96.1031 146.091C95.669 146.741 95.0519 147.248 94.33 147.547C93.6081 147.846 92.8137 147.924 92.0473 147.771C91.2809 147.619 90.5769 147.243 90.0244 146.69C89.4718 146.137 89.0956 145.433 88.9431 144.667C88.7907 143.9 88.8689 143.106 89.1679 142.384C89.467 141.662 89.9734 141.045 90.6231 140.61C91.2728 140.176 92.0367 139.944 92.8181 139.944C93.3373 139.943 93.8517 140.044 94.3316 140.242C94.8116 140.44 95.2477 140.731 95.6148 141.099C95.982 141.466 96.2729 141.902 96.471 142.382C96.6691 142.862 96.7703 143.377 96.769 143.896Z" fill="#E0E0E0"/>
<path d="M108.996 143.896C108.996 144.677 108.764 145.441 108.33 146.091C107.896 146.741 107.279 147.248 106.557 147.547C105.835 147.846 105.04 147.924 104.274 147.771C103.507 147.619 102.803 147.243 102.251 146.69C101.698 146.137 101.322 145.433 101.17 144.667C101.017 143.9 101.095 143.106 101.394 142.384C101.694 141.662 102.2 141.044 102.85 140.61C103.499 140.176 104.263 139.944 105.045 139.944C106.092 139.944 107.097 140.361 107.838 141.102C108.579 141.843 108.996 142.848 108.996 143.896Z" fill="#E0E0E0"/>
<path d="M527.333 515.431C544.916 515.44 551.783 496.303 535.434 489.831C520.187 483.795 503.586 480.853 487.077 480.97C463.559 481.125 439.024 488.147 417.175 479.476C396.943 471.449 384.105 451.961 368.374 436.953C343.877 413.777 311.504 400.753 277.784 400.508C255.157 400.435 230.249 405.631 211.583 392.833C198.994 384.193 192.555 369.31 183.709 356.854C160.451 324.091 117.886 308.467 79.2143 317.254C71.1554 319.086 66.1055 326.698 66.1055 334.963V495.206C66.1055 506.248 75.0536 515.2 86.0953 515.206L527.333 515.431Z" fill="#EBEBEB"/>
<path d="M137.759 216.185C137.759 216.569 134.939 216.89 131.444 216.89C127.95 216.89 125.129 216.569 125.129 216.185C125.129 215.801 127.96 215.49 131.444 215.49C134.928 215.49 137.759 215.801 137.759 216.185Z" fill="#061F34"/>
<path d="M144.468 199.011C144.852 199.011 145.163 201.873 145.163 205.42C145.163 208.967 144.852 211.83 144.468 211.83C144.085 211.83 143.773 208.957 143.773 205.42C143.773 201.884 144.085 199.011 144.468 199.011Z" fill="#061F34"/>
<path d="M151.613 215.781C151.613 215.387 154.434 215.076 157.918 215.076C161.402 215.076 164.233 215.387 164.233 215.781C164.233 216.176 161.413 216.476 157.918 216.476C154.423 216.476 151.613 216.165 151.613 215.781Z" fill="#061F34"/>
<path d="M144.906 232.956C144.522 232.956 144.211 230.083 144.211 226.546C144.211 223.01 144.522 220.137 144.906 220.137C145.29 220.137 145.601 223.01 145.601 226.546C145.601 230.083 145.29 232.956 144.906 232.956Z" fill="#061F34"/>
<path d="M155.111 225.603C154.821 225.841 153.576 224.846 152.332 223.352C151.087 221.859 150.33 220.469 150.621 220.241C150.911 220.013 152.166 220.998 153.4 222.481C154.634 223.964 155.412 225.344 155.111 225.603Z" fill="#061F34"/>
<path d="M154.517 206.104C154.797 206.374 153.967 207.649 152.681 208.946C151.395 210.242 150.13 211.082 149.86 210.813C149.59 210.543 150.41 209.267 151.696 207.961C152.982 206.654 154.247 205.834 154.517 206.104Z" fill="#061F34"/>
<path d="M140.044 211.083C139.806 211.373 138.613 210.792 137.379 209.765C136.145 208.739 135.367 207.691 135.605 207.38C135.844 207.069 137.047 207.67 138.281 208.697C139.515 209.724 140.273 210.771 140.044 211.083Z" fill="#061F34"/>
<path d="M139.48 219.65C139.76 219.92 139.045 221.164 137.873 222.45C136.701 223.736 135.529 224.525 135.249 224.296C134.969 224.068 135.674 222.793 136.846 221.507C138.018 220.22 139.231 219.38 139.48 219.65Z" fill="#061F34"/>
<path d="M494.067 182.945C494.067 183.163 492.459 183.339 490.479 183.339C488.498 183.339 486.891 183.163 486.891 182.945C486.891 182.727 488.498 182.551 490.479 182.551C492.459 182.551 494.067 182.727 494.067 182.945Z" fill="#061F34"/>
<path d="M497.871 173.195C498.088 173.195 498.265 174.824 498.265 176.825C498.265 178.827 498.088 180.466 497.871 180.466C497.653 180.466 497.477 178.837 497.477 176.825C497.477 174.813 497.653 173.195 497.871 173.195Z" fill="#061F34"/>
<path d="M501.93 182.707C501.93 182.489 503.537 182.312 505.518 182.312C507.498 182.312 509.095 182.489 509.095 182.707C509.095 182.924 507.498 183.111 505.518 183.111C503.537 183.111 501.93 182.935 501.93 182.707Z" fill="#061F34"/>
<path d="M498.121 192.465C497.903 192.465 497.727 190.837 497.727 188.825C497.727 186.813 497.903 185.185 498.121 185.185C498.338 185.185 498.515 186.813 498.515 188.825C498.515 190.837 498.338 192.465 498.121 192.465Z" fill="#061F34"/>
<path d="M503.919 188.265C503.743 188.4 503.038 187.83 502.332 186.99C501.627 186.15 501.202 185.351 501.368 185.206C501.534 185.061 502.239 185.641 502.944 186.482C503.65 187.322 504.085 188.141 503.919 188.265Z" fill="#061F34"/>
<path d="M503.573 177.219C503.729 177.375 503.262 178.101 502.536 178.837C501.81 179.574 501.084 180.04 500.928 179.874C500.773 179.709 501.24 179.003 501.966 178.267C502.692 177.53 503.418 177.064 503.573 177.219Z" fill="#061F34"/>
<path d="M495.362 180.041C495.217 180.207 494.542 179.875 493.848 179.294C493.153 178.713 492.696 178.112 492.81 177.946C492.925 177.78 493.63 178.101 494.325 178.682C495.02 179.263 495.497 179.875 495.362 180.041Z" fill="#061F34"/>
<path d="M495.04 184.916C495.196 185.061 494.792 185.766 494.128 186.502C493.464 187.239 492.8 187.695 492.634 187.54C492.468 187.384 492.883 186.679 493.547 185.953C494.211 185.227 494.916 184.77 495.04 184.916Z" fill="#061F34"/>
<path d="M328.463 264.216C329.129 264.216 329.129 264.828 328.463 264.828C327.797 264.828 327.797 264.216 328.463 264.216Z" fill="#061F34"/>
<path d="M333.875 259.834C333.875 259.166 334.487 259.166 334.487 259.834C334.487 260.501 333.875 260.501 333.875 259.834Z" fill="#061F34"/>
<path d="M339.983 264.651C339.317 264.651 339.317 264.039 339.983 264.039C340.649 264.039 340.649 264.651 339.983 264.651Z" fill="#061F34"/>
<path d="M334.621 269.028C334.621 269.687 334.02 269.687 334.02 269.028C334.02 268.37 334.621 268.37 334.621 269.028Z" fill="#061F34"/>
<path d="M338.757 268.614C338.632 268.717 338.093 268.282 337.554 267.639C337.014 266.996 336.672 266.384 336.807 266.27C336.942 266.156 337.481 266.602 338.02 267.245C338.56 267.888 338.891 268.51 338.757 268.614Z" fill="#061F34"/>
<path d="M338.507 260.13C338.621 260.254 338.269 260.804 337.709 261.375C337.149 261.945 336.589 262.298 336.475 262.183C336.36 262.069 336.713 261.509 337.273 260.949C337.833 260.389 338.383 260.016 338.507 260.13Z" fill="#061F34"/>
<path d="M332.205 262.297C332.101 262.421 331.583 262.172 331.043 261.726C330.504 261.28 330.162 260.814 330.276 260.689C330.39 260.565 330.898 260.814 331.437 261.26C331.977 261.706 332.309 262.162 332.205 262.297Z" fill="#061F34"/>
<path d="M331.954 266.052C332.079 266.166 331.768 266.705 331.259 267.265C330.751 267.825 330.222 268.188 330.119 268.074C330.015 267.96 330.305 267.421 330.813 266.86C331.322 266.3 331.83 265.917 331.954 266.052Z" fill="#061F34"/>
<path d="M477.207 276.154C477.207 276.371 475.6 276.548 473.619 276.548C471.639 276.548 470.031 276.423 470.031 276.154C470.031 275.884 471.628 275.749 473.609 275.749C475.589 275.749 477.207 275.936 477.207 276.154Z" fill="#E0E0E0"/>
<path d="M481.011 266.394C481.229 266.394 481.405 268.022 481.405 270.034C481.405 272.046 481.229 273.674 481.011 273.674C480.794 273.674 480.617 272.046 480.617 270.034C480.617 268.022 480.794 266.394 481.011 266.394Z" fill="#E0E0E0"/>
<path d="M485.066 275.915C485.066 275.697 486.674 275.521 488.654 275.521C490.635 275.521 492.232 275.697 492.232 275.915C492.232 276.132 490.635 276.309 488.654 276.309C486.674 276.309 485.066 276.132 485.066 275.915Z" fill="#E0E0E0"/>
<path d="M481.257 285.674C481.04 285.674 480.863 284.036 480.863 282.034C480.863 280.032 481.04 278.394 481.257 278.394C481.475 278.394 481.651 280.022 481.651 282.034C481.651 284.046 481.434 285.674 481.257 285.674Z" fill="#E0E0E0"/>
<path d="M487.056 281.484C486.88 281.629 486.174 281.059 485.469 280.219C484.764 279.379 484.339 278.57 484.505 278.435C484.671 278.3 485.376 278.86 486.081 279.7C486.786 280.54 487.222 281.349 487.056 281.484Z" fill="#E0E0E0"/>
<path d="M486.714 270.428C486.869 270.583 486.403 271.299 485.677 272.035C484.951 272.772 484.225 273.249 484.069 273.073C483.913 272.896 484.38 272.201 485.106 271.455C485.832 270.708 486.558 270.272 486.714 270.428Z" fill="#E0E0E0"/>
<path d="M478.502 273.239C478.357 273.416 477.683 273.084 476.988 272.503C476.293 271.922 475.837 271.31 475.951 271.144C476.065 270.978 476.77 271.31 477.465 271.891C478.16 272.472 478.637 273.073 478.502 273.239Z" fill="#E0E0E0"/>
<path d="M478.181 278.114C478.337 278.269 477.932 278.975 477.268 279.701C476.605 280.427 475.941 280.904 475.775 280.738C475.609 280.572 476.024 279.877 476.688 279.151C477.351 278.425 478.015 277.969 478.181 278.114Z" fill="#E0E0E0"/>
<path d="M287.75 184.694C287.927 184.278 288.518 184.28 288.692 184.697C289.097 185.663 289.688 186.539 290.432 187.276C291.175 188.013 292.057 188.595 293.026 188.991L293.082 189.014C293.505 189.186 293.503 189.786 293.078 189.956C292.093 190.356 291.199 190.951 290.449 191.705C289.699 192.459 289.109 193.356 288.712 194.343C288.585 194.654 288.148 194.667 288.002 194.363L287.883 194.115C286.992 192.246 285.401 190.805 283.455 190.101C283.065 189.952 283.042 189.409 283.419 189.229L283.808 189.043C285.559 188.18 286.932 186.704 287.665 184.894L287.75 184.694Z" fill="#E0E0E0"/>
<path d="M105.795 268.252C105.908 267.976 106.299 267.975 106.413 268.251C106.681 268.893 107.074 269.476 107.569 269.966C108.064 270.456 108.651 270.842 109.296 271.103L109.33 271.117C109.612 271.232 109.61 271.633 109.327 271.746C108.674 272.014 108.08 272.409 107.581 272.91C107.083 273.41 106.689 274.005 106.424 274.66C106.34 274.869 106.048 274.879 105.949 274.678L105.874 274.525C105.282 273.285 104.229 272.324 102.94 271.85C102.678 271.757 102.658 271.396 102.908 271.275L103.157 271.155C104.309 270.585 105.218 269.621 105.719 268.437L105.795 268.252Z" fill="#E0E0E0"/>
<path d="M564.702 195.894C564.817 195.621 565.205 195.624 565.316 195.899C565.862 197.196 566.898 198.224 568.199 198.762L568.234 198.776C568.517 198.888 568.521 199.287 568.24 199.405C567.584 199.668 566.989 200.062 566.488 200.56C565.987 201.059 565.592 201.654 565.326 202.309C565.244 202.517 564.952 202.526 564.857 202.323L564.787 202.174C564.19 200.936 563.133 199.979 561.842 199.508C561.578 199.411 561.56 199.045 561.813 198.922L562.06 198.803C563.221 198.247 564.134 197.278 564.621 196.086L564.702 195.894Z" fill="#E0E0E0"/>
<path d="M565.94 227.765C566.106 227.353 566.689 227.349 566.86 227.76C567.262 228.728 567.853 229.606 568.597 230.345C569.341 231.084 570.223 231.668 571.194 232.064L571.242 232.083C571.669 232.253 571.671 232.855 571.246 233.028C570.261 233.429 569.367 234.022 568.615 234.774C567.863 235.525 567.27 236.42 566.87 237.405C566.748 237.717 566.313 237.733 566.168 237.431L566.051 237.187C565.16 235.319 563.569 233.877 561.623 233.174C561.233 233.03 561.207 232.489 561.581 232.307L561.975 232.116C563.717 231.27 565.089 229.817 565.833 228.029L565.94 227.765Z" fill="#061F34"/>
<path d="M374.589 177.318C374.663 177.126 374.933 177.123 375.012 177.313C375.206 177.77 375.49 178.183 375.846 178.529C376.202 178.874 376.624 179.145 377.086 179.325L377.111 179.336C377.31 179.419 377.308 179.702 377.107 179.782C376.638 179.968 376.213 180.249 375.856 180.605C375.5 180.962 375.219 181.387 375.033 181.856C374.972 182.005 374.764 182.013 374.692 181.869L374.639 181.762C374.224 180.884 373.478 180.205 372.564 179.875C372.379 179.809 372.364 179.552 372.54 179.465L372.72 179.377C373.539 178.981 374.185 178.298 374.535 177.458L374.589 177.318Z" fill="#061F34"/>
<path d="M229.954 263.437C230.059 263.187 230.413 263.188 230.517 263.438C230.758 264.022 231.113 264.553 231.562 264.998C232.011 265.443 232.544 265.794 233.13 266.031L233.164 266.045C233.418 266.149 233.417 266.51 233.161 266.611C232.566 266.852 232.026 267.21 231.573 267.664C231.121 268.119 230.765 268.66 230.527 269.256C230.452 269.446 230.186 269.456 230.097 269.272L230.029 269.132C229.486 268.009 228.526 267.142 227.354 266.715C227.113 266.626 227.097 266.291 227.329 266.179L227.551 266.072C228.602 265.559 229.431 264.682 229.884 263.604L229.954 263.437Z" fill="#061F34"/>
</g>
<path d="M639.177 0.0522212C630.354 0.0571365 621.735 2.71144 614.437 7.67139C607.14 12.6313 601.499 19.6685 598.245 27.8715C594.992 36.0745 594.276 45.0655 596.19 53.6802C598.104 62.2949 602.56 70.1364 608.981 76.1893L603.028 97.036L624.079 85.5236C630.127 87.7284 636.585 88.5815 642.999 88.0228C649.412 87.4641 655.625 85.5073 661.202 82.2899C666.778 79.0724 671.582 74.6725 675.276 69.3993C678.97 64.1261 681.465 58.1077 682.584 51.7671C683.704 45.4265 683.421 38.9175 681.756 32.6978C680.091 26.4781 677.085 20.6986 672.947 15.7656C668.81 10.8326 663.643 6.86569 657.809 4.14384C651.974 1.422 645.615 0.0112474 639.177 0.0107422V0.0522212Z" fill="#F5F5F5"/>
<path d="M639.176 0.0518606C639.176 0.0518606 639.436 0.0518606 639.964 0.0518606L642.266 0.1452C642.775 0.1452 643.303 0.145212 643.967 0.238555L646.041 0.539322C646.777 0.663779 647.576 0.736375 648.416 0.923061L651.06 1.58685C661.729 4.46785 670.903 11.2971 676.725 20.6911L678.094 22.9417C678.488 23.73 678.882 24.5389 679.276 25.3583C681.785 30.5862 683.196 36.2724 683.424 42.0667C683.53 44.141 683.495 46.2201 683.32 48.2896C683.248 49.3268 683.03 50.3639 682.885 51.4011C682.802 51.93 682.729 52.4382 682.646 52.9879L682.242 54.5644C681.23 58.9189 679.525 63.0826 677.192 66.8961C672.228 75.193 664.686 81.6368 655.716 85.2432C646.053 89.0611 635.369 89.4274 625.467 86.2804L624.036 85.7825H624.254C617.078 89.7133 610.037 93.5715 603.204 97.2949L602.654 97.606L602.82 96.9941C604.894 89.8067 606.874 82.837 608.782 76.1474L608.855 76.4067C606.116 73.7992 603.706 70.8665 601.679 67.6739C599.759 64.5911 598.214 61.2905 597.075 57.8418C596.012 54.5368 595.34 51.1185 595.074 47.657C594.991 46.8169 594.959 45.9768 594.949 45.1471C594.902 44.318 594.902 43.487 594.949 42.6579C594.975 41.0353 595.117 39.4167 595.374 37.8144C596.25 31.8593 598.34 26.1477 601.513 21.0334C604.225 16.6513 607.665 12.7648 611.686 9.54178L614.424 7.46748L617.192 5.78729C618.053 5.25456 618.951 4.78322 619.878 4.37677C620.77 3.97228 621.6 3.50556 622.471 3.19442C625.362 2.04317 628.365 1.19172 631.43 0.653408L634.769 0.165948L637.216 0.0622422H638.72L637.227 0.165948L634.78 0.311148L631.461 0.829722C628.415 1.39609 625.435 2.26826 622.564 3.43297C621.703 3.74412 620.884 4.2212 620.003 4.62569C619.081 5.04 618.187 5.51466 617.327 6.04658L614.548 7.73713L611.883 9.81143C607.91 13.0133 604.515 16.8719 601.845 21.2201C598.732 26.3042 596.695 31.9734 595.862 37.8767C595.613 39.4658 595.474 41.0703 595.447 42.6787C595.4 43.4973 595.4 44.318 595.447 45.1367C595.447 45.956 595.447 46.7858 595.571 47.6259C595.848 51.0453 596.52 54.4212 597.573 57.6862C599.874 64.6802 603.888 70.9874 609.249 76.0333L609.363 76.1371L609.311 76.2926C607.414 82.9719 605.423 89.9415 603.38 97.1393L602.996 96.8282L624.036 85.3158L624.14 85.2536H624.265L625.685 85.741C635.465 88.8531 646.02 88.4867 655.561 84.7039C664.429 81.1429 671.89 74.7801 676.808 66.5849C679.121 62.8169 680.816 58.7026 681.827 54.3984C681.962 53.8799 682.097 53.3613 682.221 52.8427L682.47 51.2662C682.605 50.2291 682.823 49.1919 682.906 48.1548C683.078 46.1129 683.116 44.0618 683.02 42.0149C682.819 36.264 681.439 30.6157 678.965 25.4205L677.804 23.0247L676.456 20.7948C673.203 15.5172 668.862 10.9947 663.722 7.52971C659.838 4.92263 655.564 2.9515 651.06 1.69056L648.426 0.995669C647.597 0.808983 646.798 0.726011 646.072 0.591182L643.998 0.269669C643.376 0.176325 642.806 0.186686 642.308 0.1452L640.006 0C639.436 0.0829719 639.176 0.0518606 639.176 0.0518606Z" fill="#1D6C86"/>
<path d="M629.512 38.1047H632.623L639.425 28.6148V22.3919C639.425 22.3919 644.247 22.1015 643.677 30.2535C643.106 38.4055 643.677 36.3208 643.677 36.3208C643.677 36.3208 653.901 36.3208 654.752 37.2542C655.374 37.8973 655.654 48.0613 655.789 53.579C655.856 54.9073 655.476 56.2198 654.712 57.3079C653.947 58.396 652.841 59.1971 651.568 59.5841C651.206 59.6775 650.833 59.7263 650.459 59.7293C647.908 59.7293 634.904 57.655 634.904 57.655H629.512V38.1047Z" fill="#1D6C86"/>
<path d="M620.625 36.3936L622.543 57.7173H627.884V36.8188L620.625 36.3936Z" fill="#1D6C86"/>
<path d="M220.656 309.15C220.499 312.108 216.648 316.051 217.837 318.76C220.029 323.754 218.758 329.733 215.921 334.423C213.083 339.113 208.837 342.715 204.664 346.198C204.874 338.916 204.24 331.635 202.775 324.5C202.314 322.27 201.559 319.783 199.523 318.769C196.879 317.461 193.526 319.35 190.818 318.189C187.935 316.936 187.354 312.992 184.922 311.002C182.721 309.206 179.487 309.399 176.788 310.302C174.089 311.205 171.611 312.725 168.838 313.342C166.065 313.96 162.721 313.407 161.183 311.011C160.262 309.537 160.916 310.44 160.013 308.938C160.013 308.938 154.605 309.123 152.745 302.83C152.745 302.83 150.202 295.837 155.831 292.75C155.831 292.75 157.111 280.109 169.814 285.794C173.499 287.434 177.792 282.164 181.357 283.951C184.323 285.453 185.199 289.581 188.165 291.092C191.573 292.824 195.534 290.244 199.348 290.088C201.791 290.088 204.134 291.058 205.862 292.786C207.59 294.514 208.56 296.857 208.56 299.301C208.56 299.301 209.159 296.777 213.295 297.882C217.431 298.988 220.95 303.383 220.656 309.15Z" fill="#263238"/>
<path d="M215.266 329.493C215.345 328.063 215.08 326.635 214.492 325.329C213.958 324.251 211.959 321.8 209.766 321.644L210.089 308.625C210.113 307.333 209.654 306.079 208.802 305.107C207.95 304.136 206.767 303.517 205.483 303.373L179.975 300.683C177.89 300.462 175.782 300.666 173.778 301.282C171.773 301.898 169.915 302.913 168.313 304.266C166.711 305.619 165.4 307.282 164.458 309.156C163.516 311.029 162.962 313.074 162.831 315.166C162.214 324.979 161.845 336.984 163.006 344.3C165.346 359.041 176.622 360.884 176.622 360.884L176.345 371.166C175.912 382.121 184.111 388.718 192.567 388.718C201.024 388.718 208.836 381.412 208.587 370.567L209.416 337.399C210.845 337.267 212.174 336.61 213.147 335.556C214.55 333.85 215.3 331.702 215.266 329.493Z" fill="#FFBE9D"/>
<path d="M168.488 323.155C168.486 323.65 168.677 324.127 169.021 324.484C169.366 324.84 169.836 325.048 170.331 325.062C170.814 325.09 171.288 324.927 171.652 324.608C172.016 324.289 172.24 323.84 172.275 323.358C172.284 323.11 172.242 322.864 172.154 322.633C172.065 322.401 171.931 322.191 171.759 322.013C171.587 321.835 171.381 321.693 171.153 321.597C170.925 321.5 170.68 321.45 170.432 321.45C169.949 321.422 169.475 321.586 169.111 321.904C168.748 322.223 168.524 322.672 168.488 323.155Z" fill="#263238"/>
<path d="M165.393 321.413C165.624 321.662 167.051 320.602 169.078 320.602C171.105 320.602 172.597 321.625 172.818 321.376C172.92 321.266 172.68 320.823 172.035 320.354C171.157 319.744 170.111 319.422 169.041 319.432C167.988 319.416 166.958 319.739 166.103 320.354C165.485 320.86 165.237 321.303 165.393 321.413Z" fill="#263238"/>
<path d="M188.09 323.533C188.085 324.029 188.275 324.507 188.62 324.864C188.965 325.221 189.437 325.428 189.933 325.44C190.416 325.468 190.89 325.305 191.254 324.986C191.617 324.667 191.841 324.218 191.877 323.735C191.882 323.239 191.691 322.761 191.346 322.404C191.002 322.047 190.53 321.84 190.034 321.828C189.551 321.8 189.077 321.963 188.713 322.282C188.349 322.601 188.125 323.05 188.09 323.533Z" fill="#263238"/>
<path d="M185.356 321.791C185.587 322.04 187.014 320.98 189.041 320.989C191.068 320.998 192.56 322.003 192.781 321.754C192.882 321.643 192.652 321.201 191.998 320.731C191.12 320.121 190.074 319.799 189.004 319.81C187.952 319.798 186.923 320.12 186.066 320.731C185.448 321.238 185.236 321.68 185.356 321.791Z" fill="#263238"/>
<path d="M177.977 336.856C176.905 336.524 175.798 336.323 174.678 336.257C174.162 336.211 173.674 336.1 173.582 335.75C173.543 335.214 173.665 334.678 173.932 334.211L175.462 330.277C177.599 324.648 179.147 320.023 178.907 319.94C178.668 319.857 176.77 324.344 174.642 329.973C174.126 331.355 173.637 332.682 173.177 333.944C172.849 334.57 172.751 335.29 172.9 335.98C172.977 336.163 173.093 336.326 173.242 336.457C173.39 336.587 173.566 336.683 173.757 336.736C174.057 336.818 174.367 336.861 174.678 336.865C175.774 337.005 176.882 337.002 177.977 336.856Z" fill="#263238"/>
<path d="M176.577 360.894C183.508 360.997 190.332 359.176 196.29 355.633C196.29 355.633 191.187 366.689 176.457 365.335L176.577 360.894Z" fill="#EB996E"/>
<path d="M184.432 318.235C184.634 318.788 186.661 318.53 189.038 318.816C191.414 319.101 193.349 319.737 193.644 319.258C193.782 319.018 193.45 318.503 192.676 317.968C191.642 317.301 190.465 316.887 189.24 316.761C188.023 316.615 186.789 316.76 185.639 317.185C184.791 317.544 184.349 317.977 184.432 318.235Z" fill="#263238"/>
<path d="M165.064 316.687C165.423 317.148 166.814 316.687 168.5 316.687C170.185 316.687 171.604 316.991 171.936 316.512C172.083 316.273 171.853 315.812 171.236 315.379C170.4 314.859 169.429 314.598 168.446 314.629C167.462 314.661 166.509 314.982 165.708 315.554C165.1 315.987 164.907 316.457 165.064 316.687Z" fill="#263238"/>
<path d="M178.426 348.353C178.426 348.307 178.564 348.058 178.979 347.801C179.536 347.47 180.173 347.298 180.821 347.303C181.467 347.295 182.104 347.46 182.664 347.782C183.079 348.04 183.263 348.28 183.226 348.326C182.462 348.04 181.662 347.86 180.849 347.791C180.017 347.854 179.2 348.043 178.426 348.353Z" fill="#EB996E"/>
<path d="M208.41 333.41C208.891 333.213 209.359 332.986 209.811 332.728C210.316 332.397 210.734 331.95 211.03 331.424C211.327 330.898 211.493 330.309 211.515 329.706C211.525 329.099 211.392 328.498 211.126 327.952C210.86 327.406 210.47 326.931 209.986 326.564C209.568 326.275 209.088 326.089 208.585 326.02C208.539 325.965 209.267 325.716 210.179 326.278C210.753 326.645 211.224 327.152 211.547 327.752C211.869 328.352 212.033 329.025 212.022 329.706C212.01 330.461 211.773 331.196 211.34 331.816C210.997 332.315 210.543 332.728 210.013 333.023C209.545 333.346 208.974 333.484 208.41 333.41Z" fill="#EB996E"/>
<path d="M160.012 297.172C157.635 303.53 163.282 308.137 167.686 309.15C173.839 310.587 180.38 306.699 184.59 308.348C187.731 309.583 190.697 312.034 194.032 311.527C195.653 311.288 197.256 310.357 198.831 310.781C200.849 311.334 201.669 313.784 201.595 315.876C201.54 318.456 200.674 321.017 200.996 323.578C201.319 326.14 203.603 328.784 206.1 328.102C207.273 327.71 208.3 326.972 209.046 325.985C209.792 324.999 210.223 323.81 210.282 322.574C210.577 319.027 209.923 314.807 210.098 311.251C210.254 308.118 210.263 304.672 208.255 302.249C206.247 299.826 202.857 299.172 199.734 298.748C186.563 296.934 173.264 296.231 159.975 296.647" fill="#263238"/>
<path d="M152.267 298.527C152.188 298.315 152.144 298.091 152.138 297.864C152.104 297.206 152.237 296.55 152.525 295.957C152.98 295.004 153.771 294.253 154.745 293.847C155.361 293.612 156.027 293.539 156.68 293.635C157.37 293.699 158.061 293.884 158.789 293.921C159.544 293.963 160.296 293.797 160.963 293.441C161.692 293.035 162.369 292.543 162.981 291.977C163.644 291.405 164.316 290.779 165.09 290.217C165.896 289.628 166.82 289.223 167.798 289.028C169.912 288.71 172.072 289.078 173.961 290.079C175.924 291.162 177.754 292.47 179.415 293.976C181.028 295.478 182.865 296.721 184.859 297.661C185.804 298.057 186.832 298.215 187.853 298.122C188.82 297.975 189.755 297.664 190.617 297.201C192.233 296.231 193.951 295.44 195.738 294.842C197.346 294.383 199.042 294.329 200.676 294.685C202.023 294.99 203.262 295.656 204.26 296.611C205.004 297.333 205.586 298.206 205.964 299.172C206.199 299.781 206.327 300.427 206.341 301.079C206.354 301.248 206.354 301.418 206.341 301.586C206.341 301.697 206.341 301.752 206.341 301.752C206.33 300.893 206.161 300.044 205.844 299.246C205.451 298.321 204.867 297.489 204.131 296.804C203.155 295.907 201.955 295.29 200.658 295.017C199.08 294.697 197.449 294.766 195.904 295.22C194.144 295.83 192.455 296.626 190.865 297.597C189.946 298.078 188.947 298.39 187.917 298.518C186.823 298.628 185.719 298.467 184.702 298.048C182.664 297.095 180.784 295.833 179.129 294.308C177.495 292.826 175.696 291.537 173.768 290.466C171.972 289.505 169.917 289.141 167.9 289.424C165.974 289.747 164.583 291.101 163.294 292.244C162.652 292.821 161.944 293.319 161.184 293.727C160.454 294.104 159.636 294.275 158.817 294.225C158.052 294.169 157.361 293.976 156.698 293.893C156.08 293.794 155.446 293.851 154.856 294.059C153.931 294.429 153.169 295.119 152.709 296.003C152.41 296.571 152.252 297.203 152.249 297.846C152.23 298.297 152.341 298.518 152.267 298.527Z" fill="#455A64"/>
<path d="M159.385 308.773C159.174 308.832 158.951 308.832 158.74 308.773C158.43 308.712 158.136 308.584 157.879 308.4C157.621 308.216 157.406 307.978 157.248 307.704C156.804 306.808 156.68 305.787 156.898 304.811C157.115 303.521 157.633 302.299 158.409 301.246C159.349 299.952 160.655 298.97 162.158 298.426C163.883 297.785 165.773 297.737 167.529 298.288C169.395 298.985 171.14 299.974 172.697 301.218C174.316 302.538 176.152 303.566 178.122 304.258C180.136 304.77 182.257 304.654 184.202 303.927C186.042 303.268 187.81 302.425 189.481 301.411C191.014 300.49 192.598 299.657 194.225 298.915C195.656 298.263 197.19 297.867 198.757 297.744C199.898 297.65 201.046 297.789 202.131 298.154C203.216 298.518 204.215 299.1 205.068 299.864C205.51 300.298 205.877 300.802 206.155 301.356C206.253 301.549 206.328 301.753 206.376 301.964C206.02 301.231 205.536 300.566 204.948 300.002C204.098 299.29 203.116 298.754 202.059 298.423C201.001 298.093 199.888 297.975 198.785 298.076C197.258 298.219 195.768 298.627 194.382 299.283C192.775 300.031 191.212 300.871 189.702 301.798C188.009 302.834 186.216 303.695 184.35 304.369C182.313 305.132 180.092 305.255 177.984 304.719C175.977 304.005 174.108 302.952 172.457 301.605C170.945 300.384 169.251 299.408 167.436 298.712C165.769 298.179 163.973 298.208 162.324 298.795C160.887 299.307 159.631 300.23 158.713 301.448C157.949 302.451 157.432 303.618 157.202 304.857C156.966 305.78 157.054 306.755 157.451 307.621C157.587 307.886 157.775 308.119 158.005 308.308C158.235 308.497 158.501 308.636 158.786 308.718C158.984 308.753 159.184 308.772 159.385 308.773Z" fill="#455A64"/>
<path d="M215.796 333.327C215.796 333.327 216.128 332.885 216.616 332.037C217.286 330.827 217.661 329.476 217.713 328.094C217.754 327.159 217.636 326.224 217.363 325.33C217.024 324.295 216.527 323.318 215.889 322.437C215.244 321.515 214.479 320.502 213.807 319.396C213.043 318.262 212.623 316.931 212.6 315.563C212.731 314.215 213.152 312.91 213.834 311.74C214.423 310.699 214.775 309.541 214.866 308.349C214.891 307.342 214.654 306.347 214.178 305.46C213.701 304.573 213.002 303.825 212.149 303.291C210.959 302.587 209.564 302.314 208.197 302.517C207.698 302.606 207.206 302.726 206.723 302.876C206.826 302.793 206.941 302.725 207.064 302.674C207.419 302.52 207.789 302.406 208.169 302.333C209.586 302.048 211.057 302.283 212.314 302.996C213.242 303.546 214.008 304.332 214.534 305.273C215.06 306.215 215.327 307.28 215.308 308.358C215.225 309.616 214.867 310.839 214.258 311.942C213.61 313.054 213.208 314.292 213.079 315.572C213.102 316.852 213.495 318.097 214.212 319.157C214.857 320.225 215.612 321.202 216.257 322.188C216.909 323.114 217.413 324.137 217.749 325.219C218.022 326.17 218.125 327.162 218.053 328.149C217.974 329.554 217.55 330.918 216.819 332.12C216.619 332.448 216.387 332.757 216.128 333.041C215.898 333.244 215.806 333.336 215.796 333.327Z" fill="#455A64"/>
<path d="M177.211 322.574C177.126 321.803 176.997 321.037 176.824 320.28C176.498 319.019 175.912 317.839 175.104 316.817C174.295 315.796 173.282 314.954 172.129 314.347C170.977 313.74 169.71 313.38 168.41 313.291C167.11 313.202 165.806 313.386 164.582 313.831C162.871 314.471 161.383 315.595 160.298 317.065C159.135 318.647 158.507 320.56 158.507 322.524C158.507 324.488 159.135 326.4 160.298 327.983C160.836 328.743 161.496 329.409 162.251 329.954C162.958 330.493 163.744 330.919 164.582 331.217C166.038 331.753 167.605 331.916 169.14 331.691C170.675 331.465 172.129 330.859 173.37 329.927C175.059 328.655 176.275 326.855 176.824 324.813C176.996 324.059 177.125 323.296 177.211 322.528C177.269 323.311 177.201 324.098 177.009 324.859C176.519 327.017 175.286 328.935 173.527 330.277C172.247 331.266 170.739 331.917 169.142 332.168C167.544 332.419 165.909 332.263 164.388 331.714C163.505 331.409 162.675 330.968 161.929 330.406C161.14 329.834 160.446 329.14 159.874 328.351C158.642 326.691 157.977 324.679 157.977 322.611C157.977 320.544 158.642 318.531 159.874 316.871C161.013 315.326 162.584 314.153 164.388 313.499C166.018 312.916 167.773 312.779 169.473 313.103C171.277 313.454 172.942 314.317 174.27 315.588C175.598 316.858 176.532 318.484 176.963 320.271C177.166 321.021 177.25 321.798 177.211 322.574Z" fill="#263238"/>
<path d="M198.805 322.574C198.725 321.802 198.596 321.036 198.418 320.28C198.093 319.019 197.508 317.84 196.7 316.818C195.892 315.796 194.88 314.955 193.728 314.347C192.576 313.74 191.31 313.38 190.011 313.291C188.712 313.202 187.408 313.386 186.184 313.831C184.469 314.468 182.977 315.592 181.892 317.065C180.728 318.647 180.1 320.56 180.1 322.524C180.1 324.488 180.728 326.4 181.892 327.983C182.432 328.741 183.091 329.407 183.844 329.954C184.556 330.492 185.345 330.917 186.184 331.217C187.401 331.658 188.696 331.842 189.988 331.756C191.28 331.671 192.539 331.318 193.688 330.721C194.836 330.123 195.848 329.294 196.659 328.285C197.47 327.276 198.062 326.109 198.399 324.859C198.576 324.106 198.705 323.343 198.786 322.574C198.85 323.357 198.782 324.145 198.584 324.905C198.105 327.037 196.9 328.936 195.175 330.277C193.896 331.266 192.388 331.917 190.79 332.168C189.193 332.419 187.558 332.263 186.037 331.714C185.154 331.409 184.324 330.968 183.577 330.406C182.786 329.834 182.089 329.14 181.514 328.351C180.287 326.689 179.625 324.677 179.625 322.611C179.625 320.545 180.287 318.533 181.514 316.871C182.659 315.329 184.232 314.156 186.037 313.499C187.666 312.916 189.422 312.779 191.122 313.103C192.924 313.457 194.586 314.32 195.912 315.591C197.238 316.861 198.171 318.486 198.602 320.271C198.796 321.022 198.864 321.801 198.805 322.574Z" fill="#263238"/>
<path d="M180.382 320.99V321.082V320.916V321.101C179.875 321.214 179.355 321.263 178.835 321.248C177.913 321.248 177.148 321.138 177.148 321.009C177.148 320.88 177.904 320.769 178.835 320.769C179.355 320.749 179.875 320.799 180.382 320.916V321.101V320.935V321.027V320.99Z" fill="#263238"/>
<path d="M210.184 323.072C208.248 323.178 206.306 323.119 204.38 322.897C202.443 322.841 200.514 322.622 198.613 322.243C200.549 322.148 202.49 322.207 204.417 322.418C206.354 322.48 208.282 322.699 210.184 323.072Z" fill="#263238"/>
<path d="M186.424 336.349C186.595 336.825 186.618 337.342 186.488 337.832C186.291 339.058 185.652 340.169 184.691 340.955C183.73 341.741 182.515 342.147 181.274 342.098C180.767 342.129 180.262 342.003 179.828 341.739C179.828 341.665 180.399 341.812 181.274 341.739C182.413 341.699 183.506 341.288 184.388 340.567C185.27 339.847 185.891 338.857 186.157 337.749C186.424 336.911 186.369 336.349 186.424 336.349Z" fill="#263238"/>
<path d="M149.937 402.492C149.948 402.59 149.948 402.689 149.937 402.787V403.653C149.937 404.445 149.937 405.57 149.983 406.988C149.983 409.909 149.983 414.083 150.047 419.233C150.047 429.571 149.734 443.852 148.932 459.607C148.131 475.362 147.301 489.597 146.739 499.953C146.481 505.085 146.27 509.258 146.122 512.179C146.048 513.598 145.993 514.703 145.956 515.496C145.956 515.855 145.91 516.141 145.901 516.362C145.911 516.46 145.911 516.559 145.901 516.657C145.887 516.559 145.887 516.46 145.901 516.362C145.901 516.141 145.901 515.855 145.901 515.496C145.901 514.703 145.947 513.589 145.984 512.17C146.067 509.277 146.214 505.094 146.445 499.934C146.878 489.606 147.716 475.343 148.499 459.588C149.282 443.833 149.706 429.561 149.761 419.224C149.761 414.083 149.826 409.909 149.844 406.988C149.844 405.57 149.844 404.445 149.89 403.653V402.787C149.894 402.687 149.909 402.588 149.937 402.492Z" fill="#263238"/>
<path d="M238.928 386.627C233.972 380.905 224.29 380.067 219.997 383.172C215.704 386.276 213.318 391.547 212.885 396.826C212.453 402.105 213.807 407.403 215.815 412.295C219.048 420.145 223.829 426.503 230.969 434.592L249.393 458.75L213.88 493.43L228.62 516.657L258.807 492.333L283.772 465.872" fill="#1D6C86"/>
<path d="M110.523 461.108C111.1 460.685 111.749 460.373 112.44 460.187C114.072 459.636 115.795 459.402 117.515 459.496C119.239 459.59 120.93 460.009 122.499 460.731C123.179 460.985 123.804 461.367 124.341 461.855C124.341 461.919 123.604 461.514 122.407 461.044C120.85 460.43 119.205 460.069 117.534 459.975C115.864 459.893 114.192 460.073 112.578 460.509C111.297 460.85 110.56 461.182 110.523 461.108Z" fill="#263238"/>
<path d="M243.713 392.054C231.323 375.617 217.984 376.971 211.186 376.778V369.563C206.165 369.563 199.302 374.087 195.755 377.321L192.246 382.14C191.344 379.501 189.838 377.11 187.849 375.157C185.859 373.204 183.44 371.743 180.786 370.89C178.871 370.282 176.908 369.838 174.918 369.563V376.013C158.263 376.483 149.355 381.034 138.226 393.915C137.655 394.578 136.522 395.711 135.223 396.992L102.3 435.689C95.5749 443.133 89.4028 453.379 90.8491 463.329C92.4244 474.533 98.9557 481.904 111.456 490.353L146.094 512.806L145.928 516.666H228.587C228.587 516.666 284.642 475.307 286.015 459.985C287.083 447.878 267.775 422.219 243.713 392.054ZM147.485 479.868L123.248 461.781L149.428 434.685L147.485 479.868ZM226.855 481.305L226.201 467.918L229.72 432.75C236.629 440.673 249.415 456.401 249.415 458.75L226.855 481.305Z" fill="#1D6C86"/>
<path d="M211.168 376.814C210.992 377.198 210.783 377.565 210.541 377.911C210.099 378.593 209.464 379.578 208.625 380.767C206.467 383.884 204.041 386.806 201.375 389.501C200.592 390.294 199.8 391.04 199.026 391.75L198.64 392.109V391.584C198.595 388.556 197.38 385.664 195.25 383.513C194.689 382.84 193.961 382.325 193.14 382.02C192.824 381.958 192.496 382.014 192.219 382.177C192.327 382.042 192.47 381.94 192.633 381.883C192.796 381.826 192.972 381.816 193.14 381.854C194.027 382.103 194.823 382.602 195.434 383.292C196.431 384.24 197.255 385.356 197.866 386.59C198.63 388.143 199.045 389.844 199.082 391.574L198.695 391.399C199.45 390.69 200.242 389.953 201.016 389.161C203.659 386.476 206.106 383.607 208.34 380.574L210.366 377.809C210.599 377.451 210.868 377.118 211.168 376.814Z" fill="#263238"/>
<path d="M174.898 376.05C175.168 376.309 175.409 376.596 175.617 376.907L177.459 379.33C178.998 381.394 181.08 384.268 183.364 387.456L184.857 389.538L184.442 389.603C184.888 388.114 185.506 386.682 186.284 385.337C186.928 384.245 187.846 383.34 188.947 382.711C189.673 382.291 190.494 382.063 191.333 382.048C191.646 382.016 191.962 382.06 192.254 382.177C192.254 382.177 191.941 382.177 191.333 382.177C190.538 382.257 189.772 382.519 189.094 382.942C188.072 383.586 187.224 384.472 186.625 385.521C185.884 386.85 185.291 388.256 184.857 389.713L184.709 390.146L184.442 389.778L182.95 387.696C180.665 384.508 178.62 381.606 177.155 379.496C176.483 378.491 175.912 377.653 175.451 376.98C175.234 376.691 175.048 376.379 174.898 376.05Z" fill="#263238"/>
<g opacity="0.1">
<path d="M192.227 382.176C193.607 383.689 194.644 385.483 195.266 387.434C195.887 389.386 196.079 391.449 195.828 393.481C195.653 394.826 195.497 396.623 196.75 397.121C197.625 397.461 198.592 396.863 199.301 396.273C204.676 391.941 209.098 386.546 212.29 380.426C212.599 379.944 212.765 379.385 212.769 378.813C212.762 378.53 212.647 378.26 212.446 378.059C212.245 377.858 211.975 377.742 211.692 377.735C211.313 377.841 210.986 378.08 210.77 378.408C206.938 382.83 202.701 387.428 198.868 391.841C199.041 389.385 198.281 386.953 196.74 385.032C195.22 383.19 193.562 381.283 192.254 382.176" fill="black"/>
</g>
<path d="M227.575 515.118C227.467 514.999 227.371 514.87 227.29 514.731C227.087 514.436 226.839 514.049 226.516 513.57L223.688 509.185C221.284 505.37 217.921 500.054 214.006 493.872L213.914 493.715L214.043 493.595L222.684 484.972L241.486 466.36C243.881 464.02 245.834 462.122 247.215 460.759L248.8 459.257C248.977 459.074 249.168 458.904 249.371 458.75C249.22 458.955 249.05 459.147 248.864 459.321C248.487 459.717 247.943 460.243 247.354 460.897L241.697 466.637L222.988 485.349C219.948 488.381 217.019 491.283 214.338 493.946V493.669C218.188 499.888 221.505 505.232 223.872 509.074C225.015 510.917 225.936 512.446 226.59 513.534C226.885 514.022 227.115 514.455 227.299 514.731C227.405 514.85 227.498 514.979 227.575 515.118Z" fill="#263238"/>
<path d="M217.412 386.157L217.273 386.332L216.85 386.83C216.454 387.254 215.928 387.917 215.265 388.783C213.442 391.27 212.233 394.152 211.737 397.195C211.15 401.732 211.862 406.342 213.791 410.49C214.84 412.967 216.202 415.299 217.845 417.428C219.586 419.648 221.428 421.869 223.316 424.255C230.751 433.625 237.134 442.35 241.833 448.616L247.36 456.051C247.995 456.899 248.493 457.58 248.861 458.078L249.239 458.612L249.359 458.797C249.359 458.797 249.294 458.75 249.202 458.64L248.788 458.133L247.222 456.115C245.867 454.392 243.933 451.886 241.556 448.745C236.803 442.535 230.364 433.837 222.948 424.485C221.106 422.136 219.263 419.879 217.476 417.695C215.816 415.528 214.441 413.156 213.386 410.638C211.444 406.412 210.757 401.717 211.405 397.112C212.118 393.193 214.007 389.584 216.822 386.765L217.283 386.305C217.347 386.203 217.402 386.148 217.412 386.157Z" fill="#263238"/>
<path d="M248.483 398.052C248.483 398.098 247.977 398.273 247.111 398.734C245.9 399.402 244.797 400.25 243.841 401.249C242.43 402.744 241.193 404.394 240.156 406.169C238.893 408.387 237.519 410.54 236.038 412.618C234.648 414.511 232.849 416.067 230.776 417.171C228.703 418.274 226.409 418.897 224.062 418.994C222.653 419.065 221.242 418.931 219.871 418.598C219.499 418.514 219.133 418.406 218.775 418.275C218.648 418.234 218.524 418.181 218.406 418.119C220.251 418.562 222.149 418.742 224.044 418.653C226.09 418.513 228.089 417.978 229.93 417.078C232.181 415.972 234.134 414.341 235.623 412.323C237.254 410.204 238.488 407.938 239.741 405.966C240.813 404.175 242.096 402.52 243.564 401.037C244.564 400.037 245.722 399.209 246.991 398.586C247.338 398.424 247.695 398.286 248.06 398.172C248.195 398.113 248.337 398.072 248.483 398.052Z" fill="#FAFAFA"/>
<path d="M226.515 479.066H226.294L225.676 478.918C225.4 478.845 225.059 478.798 224.654 478.734C224.19 478.657 223.723 478.605 223.254 478.577C220.247 478.44 217.239 478.826 214.364 479.72C212.367 480.295 210.412 481.009 208.514 481.857C206.469 482.779 204.351 483.903 202.066 484.981C199.679 486.153 197.187 487.097 194.623 487.8C193.253 488.154 191.852 488.376 190.44 488.463C188.981 488.533 187.518 488.428 186.083 488.15C183.281 487.515 180.606 486.413 178.17 484.889C175.793 483.47 173.665 481.857 171.63 480.365C167.604 477.343 163.753 474.837 160.096 473.749C158.463 473.242 156.767 472.963 155.057 472.92C153.768 472.896 152.482 473.047 151.234 473.372C150.174 473.67 149.149 474.081 148.176 474.597L148.351 474.468L148.904 474.136C149.628 473.744 150.394 473.435 151.188 473.215C152.45 472.858 153.755 472.678 155.066 472.681C156.801 472.695 158.525 472.953 160.188 473.445C163.928 474.505 167.843 477.029 171.887 480.033C173.933 481.526 176.061 483.11 178.41 484.511C180.8 486.006 183.425 487.086 186.175 487.708C187.57 487.983 188.993 488.085 190.413 488.012C191.794 487.933 193.163 487.72 194.503 487.376C197.04 486.687 199.508 485.761 201.873 484.612C204.157 483.543 206.285 482.419 208.321 481.526C210.239 480.684 212.216 479.982 214.235 479.425C217.147 478.55 220.193 478.21 223.226 478.421C224.347 478.482 225.454 478.699 226.515 479.066Z" fill="#FAFAFA"/>
<path d="M135.455 470.884C135.455 470.884 135.501 470.994 135.529 471.206C135.587 471.511 135.624 471.818 135.64 472.128C135.732 473.269 135.682 474.417 135.492 475.546C135.22 477.243 134.565 478.857 133.576 480.263C132.31 481.935 130.698 483.315 128.85 484.308C127.008 485.441 125.101 486.39 123.581 487.496C122.207 488.429 121.004 489.591 120.025 490.932C119.378 491.839 119.01 492.915 118.966 494.028C118.966 494.821 119.086 495.254 119.03 495.263C118.976 495.169 118.938 495.066 118.92 494.959C118.841 494.657 118.791 494.349 118.772 494.037C118.735 492.872 119.057 491.724 119.694 490.748C120.659 489.337 121.874 488.113 123.277 487.136C124.825 485.985 126.695 485.017 128.556 483.902C130.343 482.935 131.911 481.608 133.162 480.005C134.13 478.659 134.793 477.119 135.105 475.491C135.316 474.385 135.415 473.262 135.4 472.137C135.389 471.718 135.407 471.3 135.455 470.884Z" fill="#FAFAFA"/>
<path d="M274.472 432.749C272.581 433.067 270.743 433.644 269.009 434.463C267.154 435.369 265.487 436.62 264.099 438.149C263.287 439.056 262.588 440.058 262.017 441.134C261.409 442.249 260.995 443.511 260.396 444.755C259.847 446.007 259.018 447.117 257.973 447.998C256.99 448.8 255.874 449.424 254.675 449.841C252.658 450.509 250.53 450.772 248.411 450.614C246.996 450.529 245.588 450.363 244.192 450.117C243.678 450.049 243.169 449.942 242.672 449.794C243.191 449.796 243.709 449.842 244.219 449.933C245.214 450.034 246.642 450.227 248.42 450.274C250.492 450.379 252.565 450.088 254.528 449.417C255.722 449.03 256.822 448.399 257.757 447.562C258.693 446.726 259.444 445.704 259.963 444.561C260.543 443.345 260.967 442.074 261.603 440.922C262.207 439.824 262.947 438.805 263.804 437.891C265.24 436.321 266.971 435.049 268.898 434.15C270.184 433.54 271.548 433.112 272.952 432.878C273.333 432.816 273.717 432.773 274.103 432.749C274.225 432.729 274.35 432.729 274.472 432.749Z" fill="#FAFAFA"/>
<path d="M228.69 440.526L228.478 440.59L227.852 440.729C227.299 440.848 226.479 440.996 225.411 441.162C222.403 441.626 219.362 441.841 216.319 441.807C211.789 441.775 207.294 441.012 203.007 439.549C200.496 438.637 198.072 437.499 195.767 436.149C193.323 434.701 190.766 433.453 188.121 432.418C186.775 431.942 185.377 431.633 183.957 431.497C182.575 431.392 181.186 431.46 179.821 431.699C177.247 432.226 174.764 433.126 172.451 434.371C167.983 436.739 164.225 439.374 160.825 441.208C158.197 442.768 155.331 443.888 152.341 444.525C151.533 444.698 150.708 444.788 149.882 444.792H149.237C149.163 444.802 149.089 444.802 149.016 444.792H149.237L149.872 444.718C150.692 444.67 151.506 444.55 152.304 444.359C155.25 443.659 158.068 442.506 160.66 440.94C164.004 439.098 167.744 436.417 172.239 434.003C174.597 432.713 177.133 431.781 179.765 431.239C181.169 430.989 182.599 430.915 184.021 431.017C185.484 431.162 186.922 431.487 188.305 431.985C190.975 433.028 193.554 434.291 196.015 435.762C198.303 437.096 200.7 438.231 203.182 439.153C207.42 440.62 211.863 441.406 216.346 441.484C219.373 441.551 222.4 441.388 225.402 440.996C226.47 440.858 227.29 440.738 227.852 440.646L228.488 440.563C228.553 440.542 228.621 440.529 228.69 440.526Z" fill="#FAFAFA"/>
<path d="M138.638 445.851C138.728 445.38 138.709 444.894 138.583 444.432C138.325 443.835 137.927 443.309 137.424 442.897C136.921 442.485 136.327 442.2 135.691 442.064C134.889 441.824 133.977 441.686 133.001 441.465C131.918 441.265 130.902 440.8 130.044 440.111C129.144 439.299 128.444 438.29 127.999 437.162C127.545 435.965 127.191 434.732 126.939 433.477C126.7 432.255 126.349 431.059 125.889 429.902C125.447 428.836 124.868 427.833 124.166 426.917C122.983 425.349 121.463 424.067 119.717 423.167C118.557 422.559 117.316 422.119 116.032 421.859C115.111 421.674 114.586 421.638 114.586 421.591C114.714 421.566 114.845 421.566 114.973 421.591C115.337 421.603 115.7 421.637 116.06 421.693C117.402 421.879 118.705 422.281 119.92 422.881C121.726 423.773 123.302 425.069 124.526 426.668C125.274 427.604 125.894 428.636 126.368 429.736C126.845 430.928 127.209 432.162 127.455 433.422C127.699 434.642 128.041 435.84 128.478 437.006C128.894 438.058 129.543 439.003 130.375 439.77C131.175 440.427 132.124 440.877 133.139 441.078C134.06 441.318 134.981 441.474 135.838 441.741C136.512 441.903 137.136 442.228 137.655 442.687C138.173 443.147 138.571 443.727 138.814 444.376C138.907 444.742 138.907 445.126 138.814 445.491C138.782 445.622 138.722 445.745 138.638 445.851Z" fill="#FAFAFA"/>
<path d="M211.398 398.595C210.542 398.123 209.632 397.755 208.689 397.498C207.571 397.268 206.418 397.268 205.299 397.498C203.809 397.792 202.362 398.278 200.997 398.945C199.459 399.636 197.838 400.539 196.069 401.469C194.195 402.513 192.207 403.338 190.146 403.929C187.826 404.497 185.413 404.575 183.062 404.16C180.555 403.702 178.125 402.898 175.839 401.773C171.132 399.479 167.217 396.402 163.44 394.006C160.185 391.741 156.55 390.077 152.708 389.095C150.112 388.458 147.405 388.427 144.795 389.003C143.858 389.262 142.936 389.57 142.031 389.925C142.899 389.436 143.828 389.067 144.795 388.828C147.43 388.17 150.184 388.151 152.828 388.773C156.726 389.717 160.419 391.366 163.726 393.638C167.539 396.024 171.454 399.092 176.088 401.349C178.334 402.456 180.72 403.249 183.181 403.708C185.471 404.115 187.819 404.046 190.081 403.505C192.116 402.94 194.078 402.142 195.931 401.128C197.699 400.207 199.339 399.286 200.905 398.641C202.304 397.988 203.781 397.518 205.299 397.24C206.457 397.043 207.642 397.087 208.781 397.369C209.49 397.566 210.171 397.85 210.808 398.217C211.011 398.332 211.208 398.458 211.398 398.595Z" fill="#FAFAFA"/>
<path d="M206.19 515.57L208.751 516.85H223.49L226.465 514.418L215.743 496.673C214.425 497.253 208.64 498.156 206.77 498.81C205.157 499.377 203.459 499.664 201.75 499.658C199.844 499.7 197.939 499.543 196.066 499.188L195.66 499.059C195.41 498.951 195.141 498.895 194.868 498.893C193.275 498.755 192.012 500.423 192.906 501.74C193.8 503.058 198.157 504.818 203.721 504.661H203.988C208.87 504.661 204.393 508.752 201.492 511.184C200.979 511.598 200.581 512.136 200.336 512.747C200.091 513.359 200.007 514.023 200.091 514.676C200.108 514.911 200.175 515.14 200.288 515.346C200.401 515.553 200.557 515.733 200.745 515.874C201.98 516.657 206.19 515.57 206.19 515.57Z" fill="#FFBE9D"/>
<path d="M146.049 513.368C146.039 513.282 146.039 513.196 146.049 513.11C146.049 512.907 146.049 512.659 146.049 512.345C146.049 511.636 146.104 510.65 146.151 509.406C146.261 506.827 146.408 503.15 146.602 498.617C146.98 489.477 147.523 476.91 148.085 463.026C148.647 449.141 149.007 436.527 149.265 427.415C149.366 422.882 149.44 419.206 149.495 416.617C149.495 415.373 149.541 414.387 149.56 413.678C149.56 413.365 149.56 413.116 149.56 412.922C149.548 412.834 149.548 412.744 149.56 412.655C149.573 412.744 149.573 412.834 149.56 412.922C149.56 413.116 149.56 413.374 149.56 413.678C149.56 414.387 149.56 415.373 149.56 416.617C149.56 419.169 149.56 422.855 149.486 427.415C149.357 436.537 148.988 449.132 148.445 463.044C147.901 476.956 147.302 489.533 146.823 498.636C146.565 503.16 146.362 506.836 146.215 509.416C146.132 510.659 146.068 511.645 146.022 512.345L145.957 513.11C145.997 513.192 146.028 513.279 146.049 513.368Z" fill="#263238"/>
<path d="M186.147 515.118C186.133 515.005 186.133 514.89 186.147 514.777C186.147 514.529 186.101 514.197 186.064 513.773L185.797 509.894C185.686 508.217 185.548 506.153 185.474 503.758C185.401 501.362 185.226 498.644 185.207 495.632C185.189 492.619 185.078 489.311 185.124 485.764C185.124 483.995 185.124 482.161 185.124 480.236C185.124 478.31 185.207 476.403 185.253 474.413C185.484 466.443 185.898 457.69 186.543 448.514C187.833 430.151 189.472 413.576 190.523 401.571C191.039 395.582 191.444 390.736 191.757 387.345C191.895 385.696 192.015 384.397 192.089 383.485C192.135 383.061 192.162 382.729 192.19 382.481C192.218 382.232 192.236 382.14 192.236 382.14C192.248 382.253 192.248 382.367 192.236 382.481L192.19 383.494C192.126 384.415 192.043 385.705 191.941 387.364C191.729 390.727 191.352 395.591 190.864 401.599C189.896 413.576 188.312 430.16 187.022 448.541C186.377 457.755 185.954 466.462 185.696 474.422C185.696 476.412 185.594 478.356 185.548 480.245C185.502 482.134 185.548 483.93 185.484 485.773C185.428 489.311 185.484 492.61 185.484 495.622C185.484 498.635 185.622 501.362 185.677 503.749C185.732 506.135 185.834 508.208 185.917 509.885C186 511.562 186.055 512.852 186.101 513.764V514.777C186.128 514.889 186.144 515.003 186.147 515.118Z" fill="#263238"/>
<path d="M192.925 424.347C192.879 424.301 193.395 424.089 193.967 424.577C194.13 424.722 194.256 424.904 194.335 425.107C194.413 425.311 194.442 425.531 194.418 425.747C194.359 426.015 194.221 426.259 194.022 426.448C193.823 426.637 193.571 426.762 193.301 426.806C193.03 426.851 192.752 426.813 192.503 426.698C192.254 426.584 192.045 426.397 191.903 426.162C191.81 425.966 191.766 425.751 191.774 425.535C191.782 425.318 191.842 425.107 191.949 424.918C192.327 424.264 192.87 424.301 192.87 424.365C192.87 424.43 192.474 424.522 192.262 425.066C192.195 425.21 192.16 425.367 192.16 425.526C192.16 425.686 192.195 425.843 192.262 425.987C192.37 426.126 192.514 426.233 192.678 426.297C192.843 426.361 193.021 426.379 193.195 426.35C193.369 426.321 193.531 426.245 193.666 426.131C193.8 426.017 193.901 425.868 193.957 425.701C193.976 425.548 193.963 425.393 193.919 425.246C193.874 425.098 193.8 424.961 193.699 424.845C193.349 424.375 192.925 424.43 192.925 424.347Z" fill="#263238"/>
<path d="M190.337 465.716C190.291 465.67 190.816 465.448 191.387 465.946C191.548 466.09 191.673 466.271 191.749 466.473C191.826 466.675 191.854 466.892 191.83 467.107C191.782 467.38 191.648 467.63 191.447 467.821C191.247 468.012 190.99 468.133 190.715 468.166C190.444 468.22 190.163 468.188 189.912 468.074C189.661 467.96 189.452 467.77 189.314 467.531C189.225 467.332 189.183 467.115 189.193 466.898C189.202 466.68 189.263 466.468 189.37 466.278C189.747 465.623 190.291 465.67 190.291 465.725C190.291 465.78 189.895 465.891 189.683 466.425C189.613 466.569 189.576 466.726 189.576 466.886C189.576 467.045 189.613 467.203 189.683 467.346C189.779 467.503 189.92 467.628 190.087 467.704C190.255 467.78 190.441 467.804 190.622 467.774C190.804 467.743 190.972 467.659 191.105 467.532C191.238 467.405 191.33 467.241 191.369 467.061C191.39 466.909 191.378 466.755 191.334 466.608C191.289 466.462 191.213 466.327 191.111 466.213C190.77 465.716 190.337 465.78 190.337 465.716Z" fill="#263238"/>
<path d="M256.438 494.139C256.022 494.129 255.608 494.077 255.203 493.983C254.09 493.746 253.004 493.397 251.961 492.942C248.488 491.399 245.588 488.805 243.67 485.525C242.701 483.7 241.931 481.775 241.376 479.785C240.921 478.189 240.235 476.668 239.34 475.27C238.723 474.343 237.927 473.547 237 472.93C236.328 472.515 235.904 472.377 235.922 472.331C236.03 472.339 236.136 472.364 236.236 472.405C236.532 472.501 236.819 472.624 237.092 472.773C238.095 473.343 238.957 474.13 239.616 475.077C240.575 476.492 241.311 478.045 241.8 479.683C242.365 481.637 243.13 483.526 244.084 485.322C245.958 488.529 248.754 491.097 252.108 492.693C253.511 493.287 254.959 493.771 256.438 494.139Z" fill="#FAFAFA"/>
<path d="M350.801 516.823L335.14 471.364L342.381 427.747C344.49 415.982 345.67 405.635 342.51 399.711C334.062 383.928 323.865 382.509 309.936 378.888C307.062 378.142 285.202 377.405 282.798 377.967C263.83 380.095 251.689 390.156 245.028 406.529L237.806 435.643L227.885 466.048C227.055 467.814 225.838 469.372 224.325 470.605C222.812 471.838 221.041 472.714 219.143 473.17L180.895 486.244L181.217 493.734L180.895 503.869L231.837 494.278C242.044 492.362 252.426 488.593 255.355 478.744L260.836 462.51C263.517 469.383 266.437 475.685 266.437 475.685L262.752 516.621L350.801 516.823Z" fill="#586977"/>
<path d="M337.682 436.057L323.127 484.732C322.016 488.443 320.005 491.822 317.273 494.567C314.54 497.313 311.172 499.34 307.466 500.469L246.888 516.611L238.855 495.696L293.612 475.334L307.052 426.595C307.052 426.595 310.156 399.341 334.798 400.742" fill="#586977"/>
<path d="M334.789 400.742H334.052C333.564 400.742 332.845 400.687 331.896 400.742C329.122 400.821 326.383 401.379 323.799 402.392C321.931 403.123 320.174 404.109 318.576 405.321C316.682 406.779 315.004 408.497 313.592 410.426C310.215 415.228 308.027 420.763 307.208 426.577C303.523 440.139 298.917 456.742 293.823 475.344V475.455H293.722L238.929 495.918L239.067 495.614L240.495 499.299C242.752 505.196 244.981 511 247.091 516.501L246.805 516.353L298.853 502.533L304.721 500.967C305.642 500.709 306.646 500.469 307.586 500.193C308.508 499.903 309.413 499.558 310.294 499.161C315.344 496.876 319.407 492.855 321.745 487.828C322.441 486.273 323.014 484.664 323.458 483.019C324.428 479.8 325.35 476.729 326.222 473.805C329.768 462.067 332.615 452.614 334.577 446.165L336.852 438.702L337.451 436.776C337.589 436.343 337.672 436.122 337.672 436.122C337.672 436.122 337.617 436.353 337.497 436.786C337.377 437.219 337.184 437.882 336.935 438.73C336.429 440.453 335.692 442.968 334.743 446.22L326.526 473.925C325.66 476.867 324.739 479.939 323.762 483.139C323.32 484.803 322.747 486.43 322.049 488.003C321.306 489.64 320.379 491.185 319.285 492.61C316.944 495.611 313.918 498.006 310.46 499.594C309.559 499.998 308.636 500.352 307.696 500.654C306.775 500.93 305.789 501.17 304.822 501.437L298.954 503.003L246.916 516.897L246.713 516.952L246.639 516.759C244.53 511.231 242.291 505.445 240.034 499.557L238.606 495.872L238.523 495.651L238.745 495.568L293.51 475.224L293.372 475.372C298.521 456.788 303.118 440.185 306.867 426.642C307.704 420.779 309.934 415.202 313.371 410.38C314.8 408.434 316.504 406.705 318.428 405.248C320.048 404.035 321.827 403.052 323.716 402.327C326.32 401.318 329.085 400.784 331.878 400.752C332.596 400.712 333.315 400.712 334.033 400.752L334.789 400.742Z" fill="#263238"/>
<path d="M296.623 464.398C296.384 464.452 296.139 464.47 295.895 464.454C295.235 464.449 294.577 464.372 293.933 464.223C291.788 463.724 289.808 462.68 288.185 461.192C286.539 459.737 285.258 457.916 284.445 455.876C284.297 455.526 284.177 455.166 284.085 454.798C284.002 454.527 283.94 454.25 283.901 453.969C283.827 453.508 283.8 453.25 283.837 453.25C283.873 453.25 284.085 454.245 284.758 455.738C285.635 457.679 286.909 459.414 288.498 460.833C290.077 462.268 291.97 463.316 294.025 463.892C295.591 464.315 296.623 464.297 296.623 464.398Z" fill="#263238"/>
<path d="M260.651 427.378C260.527 427.869 260.357 428.347 260.145 428.806C259.785 429.727 259.224 431.026 258.643 432.666C257.446 435.919 255.76 440.535 255.585 445.842C255.497 448.338 255.837 450.831 256.589 453.213C257.206 455.145 258.043 457 259.085 458.741C259.787 459.921 260.552 461.062 261.379 462.159C261.713 462.549 262.021 462.962 262.3 463.394C262.3 463.394 262.19 463.311 262.006 463.117C261.821 462.924 261.573 462.656 261.259 462.279C260.361 461.22 259.542 460.096 258.809 458.916C257.717 457.162 256.835 455.284 256.184 453.323C255.403 450.906 255.044 448.372 255.124 445.833C255.413 441.252 256.495 436.757 258.321 432.547C258.975 430.925 259.564 429.635 259.97 428.742C260.161 428.27 260.389 427.814 260.651 427.378Z" fill="#263238"/>
<path d="M298.938 481.831C298.351 480.486 297.602 479.217 296.708 478.053C295.693 476.996 294.551 476.067 293.309 475.289C293.756 475.326 294.187 475.475 294.562 475.722C296.484 476.752 297.955 478.46 298.689 480.513C298.879 480.925 298.965 481.378 298.938 481.831Z" fill="#263238"/>
<path d="M239.97 498.608C239.97 498.608 222.642 500.156 222.881 511.415L244.456 510.319L239.97 498.608Z" fill="#FFBE9D"/>
<path d="M267.903 309.943C266.319 317.608 264.808 325.286 263.371 332.976C261.528 342.724 259.87 352.914 262.625 362.46C264.135 367.693 266.917 372.447 269.672 377.146C271.219 379.781 272.914 382.563 275.66 383.927C279.39 385.77 284.107 384.314 287.082 381.393C290.058 378.473 291.559 374.4 292.61 370.337C294.609 362.469 295.051 354.296 295.373 346.179C295.696 338.062 295.861 329.641 293.531 321.773C291.2 313.904 286.097 306.46 278.497 303.346" fill="#263238"/>
<path d="M269.152 303.789C271.321 302.102 273.954 301.122 276.697 300.978C278.908 296.501 284.149 294.446 289.05 293.497C296.272 292.087 295.499 291.894 302.214 294.861C308.93 297.827 318.492 306.212 319.717 313.472C320.83 319.84 322.869 326.011 325.769 331.788C327.612 335.612 331.204 338.238 333.332 341.923C334.48 343.922 335.156 346.156 335.307 348.456C335.459 350.755 335.083 353.059 334.207 355.191C332.476 359.346 328.8 363.013 329.15 367.491C329.344 370.098 329.251 371.959 330.283 374.364C333.775 382.509 332.126 393.362 324.627 398.061C317.128 402.76 306.277 401.12 300.482 394.376C295.453 388.553 294.485 380.242 294.955 372.558C295.425 364.874 297.194 357.236 296.696 349.524" fill="#263238"/>
<path d="M277.757 516.611L277.647 513.958L238.588 509.839L221.472 460.63L148.172 458.972L170.345 516.611C206.585 516.888 242.389 516.888 277.757 516.611Z" fill="#263238"/>
<path d="M188.843 488.583C189.221 489.24 189.785 489.771 190.464 490.107C191.144 490.443 191.908 490.57 192.659 490.472C193.411 490.374 194.117 490.056 194.687 489.557C195.258 489.058 195.667 488.401 195.865 487.669C196.062 486.937 196.037 486.163 195.795 485.444C195.552 484.726 195.102 484.096 194.501 483.634C193.9 483.172 193.176 482.898 192.42 482.847C191.663 482.797 190.909 482.972 190.252 483.35C189.371 483.857 188.728 484.693 188.464 485.675C188.2 486.656 188.336 487.702 188.843 488.583Z" fill="white"/>
<path d="M295.547 397.923C304.335 397.923 312.239 390.432 311.981 379.302L313.566 315.729C313.594 314.398 313.121 313.105 312.24 312.107C311.36 311.108 310.136 310.478 308.812 310.339L282.623 307.575C280.483 307.35 278.319 307.56 276.262 308.192C274.205 308.825 272.297 309.867 270.654 311.256C269.01 312.646 267.664 314.353 266.697 316.276C265.73 318.199 265.163 320.298 265.028 322.446C264.401 332.507 264.024 344.825 265.212 352.334C267.607 367.435 279.187 369.361 279.187 369.361L278.901 379.91C278.459 391.151 286.869 397.914 295.547 397.914V397.923Z" fill="#FFBE9D"/>
<path d="M270.883 330.646C270.878 331.147 271.067 331.63 271.41 331.994C271.754 332.358 272.225 332.575 272.726 332.599C272.971 332.619 273.219 332.59 273.453 332.512C273.687 332.435 273.903 332.312 274.089 332.149C274.275 331.987 274.426 331.789 274.533 331.567C274.641 331.345 274.703 331.104 274.716 330.858C274.723 330.356 274.535 329.872 274.191 329.507C273.847 329.142 273.374 328.926 272.873 328.905C272.627 328.884 272.38 328.914 272.146 328.991C271.912 329.068 271.695 329.192 271.51 329.354C271.324 329.517 271.173 329.715 271.065 329.937C270.958 330.158 270.896 330.4 270.883 330.646Z" fill="#263238"/>
<path d="M267.7 328.859C267.939 329.107 269.413 328.029 271.495 328.029C273.577 328.029 275.106 329.08 275.327 328.822C275.438 328.711 275.198 328.26 274.535 327.771C273.628 327.157 272.554 326.835 271.458 326.85C270.376 326.848 269.321 327.19 268.446 327.827C267.801 328.287 267.589 328.748 267.7 328.859Z" fill="#263238"/>
<path d="M291.004 331.032C290.996 331.534 291.185 332.018 291.529 332.383C291.873 332.748 292.346 332.964 292.847 332.986C293.093 333.007 293.342 332.979 293.577 332.902C293.812 332.825 294.03 332.702 294.216 332.539C294.403 332.377 294.555 332.178 294.663 331.956C294.771 331.733 294.833 331.491 294.846 331.244C294.852 330.744 294.662 330.26 294.319 329.896C293.975 329.532 293.504 329.315 293.003 329.291C292.757 329.27 292.509 329.298 292.273 329.375C292.038 329.452 291.821 329.575 291.634 329.737C291.448 329.9 291.296 330.098 291.187 330.321C291.079 330.543 291.017 330.785 291.004 331.032Z" fill="#263238"/>
<path d="M288.187 329.245C288.427 329.503 289.892 328.416 291.974 328.416C294.055 328.416 295.585 329.466 295.815 329.208C295.926 329.098 295.686 328.646 295.014 328.158C294.109 327.545 293.038 327.224 291.946 327.237C290.861 327.235 289.803 327.576 288.924 328.213C288.289 328.674 288.068 329.135 288.187 329.245Z" fill="#263238"/>
<path d="M280.623 344.705C279.525 344.363 278.39 344.159 277.242 344.097C276.707 344.042 276.201 343.932 276.109 343.572C276.067 343.02 276.192 342.468 276.468 341.987C276.965 340.707 277.491 339.352 278.043 337.943C280.226 332.166 281.811 327.421 281.571 327.338C281.332 327.255 279.379 331.862 277.196 337.63C276.671 339.058 276.164 340.394 275.685 341.711C275.356 342.353 275.258 343.088 275.409 343.793C275.486 343.981 275.605 344.149 275.757 344.285C275.908 344.42 276.088 344.52 276.284 344.576C276.584 344.658 276.894 344.698 277.205 344.696C278.339 344.847 279.488 344.85 280.623 344.705Z" fill="#263238"/>
<path d="M279.188 369.37C286.297 369.477 293.297 367.607 299.408 363.971C299.408 363.971 294.498 374.345 279.39 372.935L279.188 369.37Z" fill="#AA6550"/>
<path d="M281.507 349.727C281.899 349.224 282.415 348.831 283.005 348.588C283.594 348.344 284.236 348.257 284.869 348.336C285.328 348.377 285.774 348.51 286.181 348.727C286.588 348.944 286.947 349.24 287.237 349.598C287.516 349.946 287.682 350.371 287.712 350.816C287.741 351.261 287.633 351.704 287.403 352.086C287.066 352.467 286.622 352.737 286.128 352.86C285.635 352.984 285.116 352.955 284.639 352.777C283.657 352.427 282.753 351.889 281.977 351.192C281.744 351.024 281.544 350.815 281.387 350.575C281.308 350.46 281.266 350.323 281.266 350.183C281.266 350.043 281.308 349.907 281.387 349.792" fill="#AA6550"/>
<path d="M286.759 346.143C286.418 346.143 286.409 348.391 284.474 349.994C282.54 351.597 280.136 351.348 280.117 351.671C280.117 351.809 280.651 352.104 281.674 352.131C283.013 352.161 284.319 351.714 285.359 350.869C286.343 350.061 286.974 348.901 287.118 347.635C287.164 346.695 286.906 346.133 286.759 346.143Z" fill="#263238"/>
<path d="M287.248 325.596C287.451 326.168 289.533 325.9 291.983 326.195C294.433 326.49 296.405 327.117 296.727 326.647C296.874 326.398 296.524 325.873 295.732 325.32C294.674 324.634 293.468 324.211 292.213 324.085C290.968 323.94 289.706 324.088 288.528 324.518C287.616 324.887 287.165 325.329 287.248 325.596Z" fill="#263238"/>
<path d="M268.465 322.824C268.833 323.303 270.307 322.824 272.002 322.824C273.697 322.824 275.19 323.137 275.521 322.649C275.669 322.409 275.438 321.93 274.803 321.488C273.946 320.946 272.947 320.673 271.934 320.705C270.921 320.736 269.941 321.07 269.119 321.663C268.511 322.105 268.308 322.593 268.465 322.824Z" fill="#263238"/>
<path d="M265.34 319.94C271.024 316.641 276.56 313.592 280.079 308.064C282.041 313.592 285.873 316.356 290.958 319.295C296.043 322.234 301.727 323.957 307.356 325.643C304.509 328.407 304.132 332.876 304.786 336.791C305.44 340.707 306.941 344.475 307.19 348.437C307.512 353.726 305.578 358.913 305.458 364.211C305.292 371.48 308.498 378.344 311.639 384.895L325.282 376.944L323.32 341.518L323.486 316.448L302.215 296.676L275.28 299.624L265.34 319.94Z" fill="#263238"/>
<path d="M262.311 394.431C269.229 401.424 268.492 413.89 276.129 420.146C280.79 423.978 287.598 424.338 293.318 422.403C299.039 420.468 303.847 416.552 308.26 412.425C312.673 408.297 316.846 403.865 321.866 400.521C326.739 397.268 335.085 395.269 336.265 389.52C337.13 385.318 332.709 380.26 331.88 376.05C330.562 369.361 337.794 364.192 339 357.484C341.414 344.079 334.339 328.342 326.97 316.945C319.6 305.548 315.436 292.64 296.754 291.58C280.034 290.834 268.648 298.859 263.084 310.468C260.321 316.282 259.648 322.86 259.105 329.291C257.843 344.309 257.143 360.23 264.079 373.608C265.516 376.372 267.23 379.892 265.295 382.343C263.527 384.581 259.519 384.489 258.395 387.115C257.272 389.741 260.229 392.321 262.311 394.431ZM283.148 305.401C285.387 305.308 292.028 305.401 299.435 315.268C303.866 321.174 303.857 330.738 303.765 339.076C303.682 345.277 303.765 360.967 303.765 360.967C303.765 360.967 304.741 380.785 298.007 382.536C289.716 384.692 282.503 383.209 276.322 377.321C270.141 371.434 266.603 363.169 265.194 354.748C263.784 346.327 262.992 337.74 264.098 329.273C264.68 324.077 266.397 319.073 269.127 314.614C270.683 312.176 272.736 310.095 275.152 308.507C277.569 306.919 280.294 305.86 283.148 305.401Z" fill="#1D6C86"/>
<g opacity="0.3">
<path d="M334.787 383.043C329.259 386.047 325.436 390.516 320.969 394.92C316.501 399.324 311.443 403.59 305.308 405.174C299.173 406.759 291.794 404.87 288.727 399.351C306.017 402.3 326.09 388.489 332.023 371.969C331.669 373.404 331.65 374.901 331.968 376.345C332.768 378.634 333.709 380.871 334.787 383.043Z" fill="black"/>
</g>
<g opacity="0.3">
<path d="M266.039 378.482C266.64 380.719 267.69 382.809 269.127 384.624C270.564 386.44 272.356 387.943 274.395 389.041C275.341 389.435 276.228 389.959 277.029 390.598C277.424 390.926 277.712 391.364 277.855 391.857C277.998 392.35 277.989 392.874 277.831 393.362C277.539 393.859 277.083 394.239 276.542 394.437C276.001 394.636 275.408 394.64 274.865 394.449C273.804 394.022 272.858 393.353 272.101 392.496C269.089 389.585 265.984 386.636 265.137 382.546C265.627 381.95 265.968 381.245 266.132 380.491C266.174 379.82 266.143 379.147 266.039 378.482Z" fill="black"/>
</g>
<path d="M330.654 375.239C330.591 375.428 330.504 375.607 330.396 375.774C330.203 376.115 329.954 376.64 329.558 377.266C328.474 379.064 327.281 380.794 325.984 382.444C324.076 384.911 321.966 387.213 319.673 389.327C316.881 391.951 313.714 394.147 310.277 395.841C308.464 396.633 306.599 397.301 304.695 397.84C302.923 398.355 301.12 398.756 299.296 399.038C296.212 399.541 293.078 399.658 289.965 399.388C287.871 399.197 285.801 398.802 283.783 398.209C283.065 398.015 282.531 397.794 282.162 397.665C281.969 397.612 281.783 397.535 281.609 397.435C281.609 397.435 282.402 397.656 283.839 398.024C285.858 398.551 287.921 398.893 290.002 399.047C293.079 399.267 296.171 399.118 299.214 398.605C301.012 398.312 302.791 397.906 304.538 397.389C306.422 396.851 308.269 396.19 310.065 395.408C313.458 393.718 316.589 391.545 319.36 388.958C321.649 386.876 323.768 384.614 325.698 382.195C327.015 380.572 328.245 378.881 329.383 377.128C329.797 376.52 330.074 376.013 330.304 375.691C330.409 375.532 330.526 375.381 330.654 375.239Z" fill="#263238"/>
<path d="M288.251 392.33C287.9 392.473 287.531 392.569 287.155 392.615C286.14 392.799 285.11 392.892 284.078 392.892C280.633 392.903 277.25 391.973 274.295 390.201C271.34 388.43 268.926 385.884 267.312 382.84C266.824 381.927 266.42 380.97 266.106 379.984C265.972 379.628 265.885 379.256 265.848 378.878C266.37 380.173 266.961 381.44 267.616 382.674C269.263 385.609 271.647 388.064 274.532 389.796C277.417 391.529 280.705 392.478 284.069 392.551C286.658 392.624 288.242 392.228 288.251 392.33Z" fill="#263238"/>
<path d="M284.668 415.161C284.839 415.091 285.019 415.044 285.202 415.023C285.552 414.94 286.123 414.867 286.75 414.701C288.643 414.293 290.51 413.773 292.342 413.144C298.371 411.004 304.045 407.97 309.172 404.142C314.29 400.3 319.138 396.11 323.681 391.602L327.863 387.549C328.324 387.097 328.711 386.738 329.005 386.452C329.133 386.318 329.275 386.197 329.429 386.093C329.327 386.245 329.209 386.387 329.079 386.517L327.992 387.677C327.071 388.673 325.661 390.101 323.92 391.842C319.431 396.437 314.596 400.682 309.457 404.538C304.295 408.392 298.556 411.406 292.452 413.466C290.599 414.071 288.706 414.545 286.787 414.885C286.114 415.023 285.571 415.069 285.211 415.115C285.033 415.153 284.85 415.169 284.668 415.161Z" fill="#263238"/>
<path d="M609.08 434.491L576.58 396.163L576.506 396.237C575.226 394.975 574.102 393.851 573.531 393.196C562.274 380.15 553.329 375.691 536.093 375.451L502.598 376.17C496.371 376.686 482.24 374.023 469.168 391.354C445.355 421.196 426.259 446.579 427.336 458.557C428.691 473.713 486.487 516.925 486.487 516.925L565.931 516.86L565.765 510.807L600.043 488.556C612.406 480.2 618.863 472.893 620.429 461.837C621.802 451.997 615.703 441.862 609.08 434.491ZM463.53 457.304C463.53 454.973 476.059 440.277 482.876 432.428L486.422 466.361L485.814 479.619L463.53 457.304ZM564.319 478.191L562.43 433.469L588.335 460.271L564.319 478.191Z" fill="#586977"/>
<path d="M514.675 453.22L455.949 482.248C454.39 483.019 453.75 484.909 454.521 486.469L473.504 524.886C474.275 526.446 476.165 527.085 477.725 526.314L536.45 497.286C538.01 496.514 538.65 494.625 537.879 493.065L518.895 454.648C518.124 453.088 516.235 452.449 514.675 453.22Z" fill="#E0E0E0"/>
<path d="M495.948 486.161C496.562 485.786 497.273 485.601 497.992 485.63C498.712 485.659 499.406 485.901 499.988 486.324C500.57 486.748 501.013 487.335 501.261 488.01C501.509 488.686 501.552 489.42 501.383 490.12C501.214 490.82 500.842 491.454 500.313 491.942C499.784 492.43 499.122 492.75 498.411 492.861C497.7 492.973 496.972 492.872 496.319 492.57C495.665 492.267 495.116 491.778 494.741 491.164C494.238 490.341 494.082 489.351 494.309 488.413C494.535 487.475 495.124 486.665 495.948 486.161Z" fill="white"/>
<path d="M561.934 401.646C561.945 401.743 561.945 401.842 561.934 401.94C561.934 402.161 561.934 402.438 561.934 402.797C561.934 403.58 561.934 404.686 561.934 406.086C561.934 408.979 561.989 413.107 562.026 418.202C562.081 428.429 562.477 442.544 563.27 458.134C564.062 473.723 564.873 487.829 565.306 498.046C565.527 503.151 565.674 507.26 565.757 510.153C565.757 511.553 565.813 512.659 565.831 513.442C565.831 513.802 565.831 514.078 565.831 514.299C565.841 514.397 565.841 514.496 565.831 514.594C565.821 514.496 565.821 514.397 565.831 514.299C565.831 514.078 565.831 513.802 565.776 513.442C565.776 512.659 565.674 511.6 565.61 510.153C565.462 507.269 565.251 503.142 565.002 498.065C564.44 487.819 563.675 473.723 562.827 458.152C561.98 442.581 561.685 428.429 561.722 418.202C561.722 413.116 561.722 408.989 561.786 406.086C561.786 404.686 561.786 403.58 561.832 402.797C561.832 402.438 561.832 402.161 561.832 401.94C561.858 401.839 561.892 401.741 561.934 401.646Z" fill="#263238"/>
<path d="M479.219 381.606C483.456 378.52 488.385 379.45 492.631 382.528C496.878 385.605 499.236 390.82 499.66 396.044C500.084 401.268 498.739 406.501 496.758 411.347C493.562 419.114 488.836 425.398 481.77 433.395L463.567 457.304L498.711 491.616L484.147 514.594L454.724 490.906C444.674 482.42 436.125 473.741 429.852 464.767" fill="#586977"/>
<path d="M429.84 464.795L430.052 465.071L430.669 465.9C431.212 466.628 432.023 467.743 433.119 469.088C436.273 473.028 439.656 476.779 443.253 480.32C445.556 482.614 448.181 485.074 451.11 487.69C454.04 490.307 457.338 492.896 460.838 495.706L484.237 514.483L483.914 514.539C488.437 507.398 493.347 499.64 498.46 491.551V491.846L480.331 474.156L463.325 457.571L463.178 457.433L463.298 457.267C469.746 448.837 475.845 440.821 481.519 433.368C484.986 429.551 488.202 425.513 491.146 421.279C493.774 417.422 495.901 413.245 497.474 408.85C498.967 404.949 499.669 400.79 499.538 396.615C499.384 393.102 498.314 389.69 496.433 386.72C494.886 384.33 492.73 382.397 490.188 381.118C488.324 380.125 486.225 379.66 484.117 379.773C482.81 379.876 481.539 380.252 480.386 380.878C479.594 381.302 479.225 381.588 479.216 381.569L479.493 381.357C479.764 381.155 480.051 380.974 480.349 380.814C481.504 380.158 482.785 379.756 484.108 379.634C486.246 379.494 488.382 379.947 490.28 380.943C492.87 382.211 495.069 384.156 496.645 386.572C498.576 389.581 499.682 393.044 499.851 396.615C500.005 400.779 499.342 404.933 497.898 408.841C496.328 413.274 494.199 417.488 491.56 421.381C488.617 425.632 485.401 429.688 481.934 433.524C476.259 440.978 470.152 449.003 463.74 457.479V457.166L480.755 473.75L498.875 491.449L499.013 491.588L498.911 491.744C493.79 499.834 488.87 507.582 484.338 514.714L484.209 514.926L484.016 514.769L460.663 495.927C457.172 493.108 453.856 490.491 450.954 487.875C448.052 485.258 445.427 482.798 443.114 480.504C439.524 476.933 436.155 473.145 433.027 469.162C431.949 467.78 431.185 466.674 430.632 465.928C430.374 465.569 430.181 465.283 430.043 465.08C429.904 464.878 429.84 464.795 429.84 464.795Z" fill="#263238"/>
<path d="M600.966 459.636C600.34 459.489 599.724 459.298 599.124 459.064C596.178 458.128 592.993 458.295 590.161 459.534C589.585 459.828 588.992 460.083 588.383 460.299C588.856 459.844 589.409 459.478 590.013 459.221C591.43 458.503 592.982 458.089 594.569 458.007C596.155 457.924 597.741 458.175 599.225 458.742C599.854 458.935 600.443 459.238 600.966 459.636Z" fill="#263238"/>
<path d="M505.904 513.516L499.511 516.694C497.959 517.466 496.218 517.774 494.496 517.581C492.774 517.388 491.144 516.703 489.801 515.607L485.812 512.355L496.867 494.969C498.166 495.531 503.509 496.286 505.351 496.94C506.946 497.5 508.626 497.78 510.316 497.77C512.203 497.81 514.09 497.655 515.945 497.309C516.065 497.263 516.231 497.226 516.341 497.18C516.592 497.076 516.862 497.029 517.133 497.042C518.709 496.894 519.961 498.553 519.077 499.806C518.193 501.059 513.881 502.846 508.373 502.69H508.115C503.278 502.69 507.719 506.734 510.584 509.139C511.091 509.548 511.485 510.081 511.727 510.686C511.969 511.291 512.051 511.948 511.965 512.594C511.951 512.827 511.886 513.054 511.774 513.26C511.663 513.465 511.508 513.644 511.321 513.783C510.068 514.594 505.904 513.516 505.904 513.516Z" fill="#FFBE9D"/>
<path d="M520.701 391.455C512.226 391.455 504.608 384.232 504.682 373.471L503.152 312.192H503.327C503.302 310.905 503.762 309.656 504.616 308.694C505.469 307.731 506.653 307.125 507.933 306.995L533.193 304.323C535.256 304.105 537.342 304.307 539.325 304.917C541.308 305.527 543.147 306.532 544.732 307.871C546.316 309.211 547.613 310.857 548.545 312.711C549.476 314.565 550.023 316.589 550.152 318.659C550.76 328.361 551.128 340.238 549.977 347.479C547.637 362.064 536.481 363.925 536.481 363.925L536.748 374.06C537.181 384.895 529.066 391.419 520.701 391.419V391.455Z" fill="#FFBE9D"/>
<path d="M544.476 326.593C544.476 327.074 544.288 327.536 543.953 327.88C543.617 328.224 543.16 328.424 542.679 328.436C542.441 328.456 542.202 328.428 541.975 328.353C541.748 328.278 541.538 328.159 541.359 328.001C541.179 327.844 541.033 327.652 540.929 327.437C540.825 327.222 540.765 326.988 540.754 326.749C540.754 326.261 540.948 325.792 541.294 325.446C541.639 325.101 542.108 324.907 542.597 324.907C543.066 324.896 543.521 325.064 543.871 325.377C544.22 325.691 544.436 326.125 544.476 326.593Z" fill="#263238"/>
<path d="M547.534 324.86C547.304 325.109 545.894 324.059 543.849 324.068C541.804 324.077 540.376 325.072 540.164 324.833C539.952 324.593 540.293 324.28 540.938 323.81C541.807 323.208 542.839 322.886 543.895 322.889C544.938 322.882 545.957 323.204 546.806 323.81C547.451 324.317 547.663 324.75 547.534 324.86Z" fill="#263238"/>
<path d="M525.085 326.961C525.091 327.207 525.048 327.451 524.959 327.68C524.869 327.909 524.734 328.118 524.562 328.294C524.39 328.47 524.185 328.609 523.959 328.705C523.732 328.8 523.489 328.85 523.243 328.849C522.766 328.873 522.299 328.71 521.939 328.395C521.58 328.081 521.357 327.639 521.317 327.163C521.311 326.918 521.354 326.673 521.444 326.444C521.534 326.215 521.668 326.007 521.84 325.831C522.012 325.654 522.217 325.515 522.444 325.419C522.67 325.324 522.914 325.275 523.16 325.275C523.637 325.251 524.104 325.414 524.463 325.729C524.822 326.043 525.045 326.485 525.085 326.961Z" fill="#263238"/>
<path d="M527.79 325.238C527.56 325.487 526.141 324.437 524.105 324.437C522.069 324.437 520.623 325.45 520.421 325.202C520.31 325.1 520.549 324.658 521.194 324.188C522.06 323.581 523.094 323.259 524.151 323.267C525.194 323.26 526.213 323.582 527.062 324.188C527.698 324.686 527.91 325.128 527.79 325.238Z" fill="#263238"/>
<path d="M535.087 340.145C536.144 339.809 537.241 339.61 538.349 339.555C538.865 339.5 539.353 339.399 539.436 339.049C539.479 338.519 539.361 337.989 539.095 337.528C538.607 336.285 538.109 334.986 537.575 333.622C535.465 328.094 533.945 323.487 534.166 323.395C534.387 323.303 536.285 327.753 538.386 333.318C538.902 334.691 539.381 335.999 539.841 337.252C540.167 337.872 540.262 338.587 540.109 339.27C540.033 339.449 539.919 339.608 539.774 339.737C539.628 339.867 539.457 339.962 539.27 340.016C538.984 340.092 538.69 340.132 538.395 340.136C537.297 340.276 536.186 340.279 535.087 340.145Z" fill="#263238"/>
<path d="M536.482 363.925C529.625 364.027 522.875 362.225 516.98 358.72C516.98 358.72 522.029 369.675 536.593 368.311L536.482 363.925Z" fill="#8F5039"/>
<path d="M528.696 321.719C528.503 322.271 526.495 322.004 524.136 322.29C521.778 322.575 519.871 323.211 519.53 322.732C519.383 322.493 519.715 321.977 520.452 321.451C521.477 320.802 522.638 320.395 523.845 320.262C525.052 320.13 526.273 320.275 527.416 320.687C528.346 321.064 528.788 321.461 528.696 321.719Z" fill="#263238"/>
<path d="M546.806 319.046C546.456 319.507 545.065 319.046 543.407 319.046C541.749 319.046 540.33 319.35 540.008 318.871C539.861 318.641 540.091 318.189 540.699 317.756C541.52 317.225 542.486 316.964 543.462 317.01C544.44 317.022 545.389 317.345 546.171 317.931C546.77 318.355 546.963 318.825 546.806 319.046Z" fill="#263238"/>
<path d="M503.317 326.113C505.795 325.671 507.776 326.436 508.476 328.877C509.517 332.517 508.807 334.313 508.982 336.819L512.667 335.714C511.746 327.32 513.837 321.11 512.925 312.68C518.047 314.338 525.085 311.169 527.268 305.862C529.441 307.46 532.023 308.408 534.713 308.597C537.404 308.786 540.093 308.208 542.468 306.931C543.066 308.019 543.994 308.889 545.118 309.416C546.242 309.942 547.505 310.098 548.723 309.861C551.487 309.078 554.416 305.143 555.217 302.352C556.655 297.33 555.954 290.125 551.883 286.855C547.811 283.584 539.649 284.367 536.48 288.522C535.227 290.162 535.08 293.193 533.063 293.608C531.266 293.977 529.636 292.687 527.996 291.839C522.883 289.305 515.818 292.668 514.556 298.233C510.281 295.681 505.104 294.013 500.323 295.386C495.542 296.759 491.728 302.066 493.359 306.765C494.031 308.737 495.551 310.45 495.717 312.505C496.04 316.513 491.231 320.143 492.769 323.856C493.626 325.938 496.141 326.86 497.274 328.804C498.545 330.978 497.753 333.724 497.864 336.239C498.029 340.44 500.185 346.659 504.211 347.857" fill="#263238"/>
<path d="M503.697 326.067C503.079 326.155 502.497 326.408 502.01 326.798C501.524 327.189 501.152 327.704 500.933 328.288C500.397 329.404 500.141 330.634 500.187 331.872C500.105 333.806 500.727 335.705 501.937 337.216C502.557 337.95 503.392 338.472 504.324 338.708C505.255 338.944 506.238 338.883 507.133 338.533" fill="#FFBE9D"/>
<path d="M506.208 335.372C506.208 335.419 505.664 335.621 504.807 335.317C504.312 335.127 503.877 334.809 503.545 334.396C503.146 333.86 502.912 333.22 502.872 332.553C502.826 331.916 502.957 331.278 503.25 330.71C503.497 330.244 503.851 329.844 504.282 329.54C505.037 329.043 505.627 329.07 505.618 329.126C505.225 329.326 504.85 329.557 504.494 329.817C504.094 330.15 503.781 330.576 503.582 331.058C503.383 331.539 503.304 332.062 503.351 332.581C503.377 333.092 503.538 333.588 503.818 334.017C504.098 334.446 504.487 334.793 504.945 335.022C505.356 335.171 505.778 335.288 506.208 335.372Z" fill="#8F5039"/>
<path d="M528.696 347.258C530.538 348.52 534.02 347.857 535.329 345.987C532.518 344.454 529.927 342.548 527.627 340.32C527.627 340.32 525.011 344.669 528.696 347.258Z" fill="#FAFAFA"/>
<path d="M534.638 351.514C533.889 351.216 533.1 351.03 532.297 350.962C531.497 351.028 530.709 351.205 529.957 351.487C529.957 351.487 530.095 351.201 530.51 350.952C531.055 350.639 531.673 350.474 532.302 350.474C532.931 350.474 533.549 350.639 534.094 350.952C534.508 351.22 534.693 351.468 534.638 351.514Z" fill="#AA6550"/>
<path d="M512.221 410.509C516.109 404.772 519.644 398.803 522.806 392.635C526.61 385.375 525.965 385.006 525.053 384.684C522.603 383.808 517.877 397.186 517.251 393.685C516.624 390.184 524.897 378.022 522.299 377.248C518.909 376.198 514.22 390.304 513.741 391.465C513.262 392.626 511.576 391.916 512.074 390.894C512.783 389.429 519.839 373.775 516.514 372.715C514.671 372.135 514.008 375.581 514.008 375.581C514.008 375.581 508.481 390.737 506.924 390.184C505.367 389.631 508.306 380.611 509.513 377.645C510.719 374.678 509.817 372.918 508.094 373.434C506.915 373.784 503 382.776 501.876 385.734C500.752 388.692 497.804 396.882 496.017 391.585C496.017 391.502 495.953 391.428 495.916 391.345C494.304 386.075 491.31 382.555 489.753 382.132C488.196 381.708 487.063 383.421 487.708 384.896C487.791 385.153 487.929 385.389 488.113 385.587C488.196 385.679 488.279 385.817 488.362 385.918C489.286 387.563 490.039 389.298 490.61 391.096C491.155 392.698 491.426 394.38 491.411 396.072C491.411 398.034 492.332 403.746 492.259 405.156" fill="#FFBE9D"/>
<path d="M491.338 403.065L469.054 447.29C469.054 447.29 456.452 410.832 449.654 396.33C447.065 390.802 441.869 386.969 436.886 384.426V384.325L435.845 383.91C432.268 382.2 428.511 380.899 424.643 380.031C401.134 373.296 378.988 375.645 353.351 384.638C353.351 384.638 340.04 388.213 333.582 405.58C327.779 421.243 321.266 445.198 320.151 449.436C312.164 476.321 323.569 491.293 339.441 489.451C345.982 488.419 351.546 483.001 354.005 480.901L362.397 473.014L362.582 479.122L353.158 516.852L449.644 516.649L432.234 471.973L436.103 451.491L442.726 467.228C444.807 472.176 448.286 476.409 452.737 479.408C457.189 482.408 462.418 484.042 467.785 484.112C473.152 484.181 478.422 482.682 482.949 479.799C487.477 476.916 491.064 472.775 493.272 467.882L515.833 411.071L491.338 403.065Z" fill="#1D6C86"/>
<path d="M375.148 458.198C374.893 458.635 374.603 459.051 374.282 459.442C373.701 460.216 372.826 461.331 371.712 462.667C369.491 465.348 366.295 468.95 362.582 472.756C358.87 476.561 355.333 479.832 352.68 482.089C351.362 483.231 350.266 484.116 349.492 484.705C349.112 485.052 348.698 485.36 348.258 485.627C348.601 485.257 348.974 484.915 349.372 484.604C350.109 483.968 351.169 483.038 352.458 481.84C355.038 479.509 358.529 476.211 362.232 472.415C365.936 468.619 369.178 465.044 371.444 462.446C372.596 461.137 373.499 460.059 374.125 459.322C374.433 458.919 374.775 458.543 375.148 458.198Z" fill="#263238"/>
<path d="M432.549 470.535C432.541 470.361 432.557 470.188 432.595 470.019C432.668 469.632 432.742 469.153 432.843 468.563L433.848 463.201C434.695 458.677 435.856 452.43 436.778 445.474C437.011 443.736 437.22 442.043 437.404 440.397C437.631 438.833 437.721 437.251 437.671 435.671C437.501 432.991 437.103 430.331 436.483 427.719C435.985 425.471 435.561 423.665 435.276 422.403C435.147 421.767 435.073 421.27 435.036 420.938C435.014 420.764 435.014 420.587 435.036 420.413C435.095 420.576 435.132 420.747 435.147 420.92C435.211 421.252 435.322 421.74 435.478 422.366C435.783 423.61 436.289 425.398 436.833 427.646C437.508 430.27 437.942 432.95 438.132 435.652C438.187 437.253 438.107 438.856 437.892 440.443C437.717 442.092 437.505 443.797 437.275 445.538C436.354 452.513 435.128 458.76 434.198 463.265C433.719 465.467 433.332 467.273 433.046 468.6C432.908 469.18 432.797 469.659 432.714 470.046C432.676 470.214 432.62 470.378 432.549 470.535Z" fill="#263238"/>
<path d="M467.09 458.106C467.441 454.474 468.11 450.879 469.089 447.363C468.988 449.201 468.726 451.026 468.306 452.818C468.051 454.612 467.644 456.381 467.09 458.106Z" fill="#263238"/>
<path d="M470.492 459.414C470.029 457.367 469.721 455.288 469.57 453.195C469.248 451.119 469.084 449.022 469.082 446.921C469.544 448.968 469.852 451.047 470.003 453.14C470.326 455.216 470.489 457.314 470.492 459.414Z" fill="#263238"/>
<path d="M399.318 516.649C399.189 516.649 399.078 501.833 399.078 483.572C399.078 465.311 399.189 450.486 399.318 450.486C399.447 450.486 399.557 465.292 399.557 483.572C399.557 501.852 399.447 516.649 399.318 516.649Z" fill="#263238"/>
<g opacity="0.2">
<path d="M435.523 423.085C440.047 431.755 443.98 440.379 444.339 450.154C444.616 457.755 441.576 464.094 444.717 471.023C444.56 471.143 441.88 465.172 440.691 462.371C438.25 456.604 436.085 451.453 436.085 451.453C436.085 451.453 437.762 438.435 437.928 436.214C438.094 433.994 435.523 423.085 435.523 423.085Z" fill="black"/>
</g>
<g opacity="0.2">
<path d="M323.566 467.136C323.566 471.484 320.867 457.13 323.391 453.601C325.169 451.122 328.209 449.915 331.156 449.188C334.104 448.46 337.19 447.971 339.806 446.424C343.187 444.424 345.334 440.895 347.701 437.8C350.069 434.704 353.228 421.446 357.134 421.16V440.509C347.78 446.565 338.051 452.021 328.006 456.844C326.576 458.144 325.44 459.735 324.674 461.51C323.908 463.285 323.53 465.203 323.566 467.136Z" fill="black"/>
</g>
<g opacity="0.2">
<path d="M362.371 473.023C368.681 469.475 373.287 464.731 380.417 463.505C387.28 462.289 394.346 463.505 401.292 463.026C400.917 459.519 400.533 456.005 400.14 452.486L380.27 452.265L362.371 473.023Z" fill="black"/>
</g>
<path d="M357.139 420.938C357.268 420.938 357.378 425.241 357.378 430.548C357.378 435.855 357.268 440.167 357.139 440.167C356.896 436.967 356.816 433.756 356.899 430.548C356.816 427.343 356.896 424.136 357.139 420.938Z" fill="#263238"/>
<path d="M323.547 467.034C323.398 466.475 323.361 465.893 323.437 465.32C323.53 463.932 323.86 462.57 324.413 461.294C324.959 460.017 325.723 458.844 326.671 457.829C327.034 457.382 327.478 457.007 327.979 456.724C326.738 458.171 325.688 459.772 324.856 461.487C324.168 463.267 323.728 465.134 323.547 467.034Z" fill="#263238"/>
<path d="M327.523 457.019C328.02 456.887 328.504 456.711 328.97 456.494C329.891 456.125 331.217 455.572 332.83 454.808C336.054 453.333 340.448 451.122 345.109 448.358C349.77 445.594 353.833 442.876 356.679 440.794C358.107 439.744 359.25 438.877 360.014 438.26C360.429 437.959 360.817 437.623 361.175 437.256C360.722 437.502 360.291 437.786 359.885 438.104L356.468 440.499C353.566 442.508 349.494 445.189 344.842 447.925C340.19 450.662 335.842 452.891 332.664 454.448L328.887 456.291C328.412 456.493 327.955 456.736 327.523 457.019Z" fill="#263238"/>
<path d="M448.567 338.404C446.982 336.331 444.467 334.719 443.961 332.185C443.325 328.785 446.724 325.597 446.107 322.188C445.702 319.857 443.555 318.217 441.363 317.314C439.171 316.411 436.757 315.978 434.749 314.771C432.338 313.225 430.488 310.944 429.47 308.267C429.17 307.535 428.908 306.787 428.687 306.028C428.482 304.4 428.108 302.797 427.573 301.246C427.49 300.84 427.416 300.435 427.342 300.03L427.444 300.951C427.138 300.184 426.736 299.46 426.246 298.795C424.56 296.547 421.189 295.294 418.876 296.869L419.982 296.132C418.584 292.751 416.338 289.788 413.461 287.528C410.584 285.269 407.173 283.789 403.557 283.233C402.178 283.04 400.782 282.994 399.393 283.095C394.428 282.837 387.252 284.284 384.221 286.209C380.352 288.66 376.391 292.023 374.447 296.178C373.406 298.417 372.697 301.006 370.762 302.499C368.128 304.489 364.434 303.715 361.145 304.084C355.728 304.701 351.012 308.856 349.169 313.988C348.312 316.586 348.003 319.333 348.263 322.057C348.523 324.78 349.346 327.419 350.68 329.808C351.251 330.867 351.924 332.093 351.472 333.208C351.005 334.035 350.276 334.683 349.4 335.05C347.191 336.19 345.427 338.035 344.388 340.293C343.467 342.587 343.817 345.489 345.678 347.111C346.458 347.733 347.391 348.135 348.379 348.276C349.366 348.417 350.374 348.292 351.297 347.912C350.748 349.3 350.458 350.777 350.441 352.27C350.401 353.901 350.8 355.513 351.596 356.938C352.391 358.362 353.554 359.547 354.964 360.369C357.847 361.871 361.882 361.078 363.577 358.305C363.566 360.35 364.109 362.36 365.147 364.121C366.185 365.882 367.681 367.33 369.475 368.31C371.269 369.291 373.295 369.767 375.338 369.69C377.381 369.612 379.365 368.983 381.08 367.869C382.443 366.947 383.843 365.731 385.455 366.026C387.067 366.321 387.979 367.869 389.085 368.993C392.033 372.061 397.062 372.411 400.941 370.67C404.819 368.928 407.675 365.446 409.729 361.723C410.445 362.795 411.449 363.643 412.625 364.17C413.801 364.698 415.102 364.882 416.379 364.703C417.655 364.524 418.855 363.989 419.841 363.159C420.827 362.329 421.559 361.237 421.953 360.01C423.389 361.867 425.361 363.239 427.602 363.94C429.843 364.64 432.245 364.635 434.483 363.925C436.721 363.216 438.687 361.836 440.115 359.972C441.544 358.108 442.365 355.851 442.468 353.505C444.089 353.265 445.618 352.607 446.906 351.595C448.194 350.584 449.196 349.253 449.813 347.736C450.43 346.218 450.64 344.566 450.423 342.943C450.206 341.319 449.57 339.78 448.576 338.478L448.567 338.404ZM355.922 341.251C355.922 341.251 355.922 341.251 355.922 341.196L356.014 341.15L355.922 341.251Z" fill="#263238"/>
<path d="M414.362 364.368C414.362 364.368 426.163 362.414 428.604 347.019C429.82 339.362 429.433 326.813 428.788 316.559C428.651 314.37 428.073 312.231 427.088 310.272C426.103 308.312 424.732 306.572 423.057 305.156C421.383 303.74 419.439 302.678 417.343 302.033C415.247 301.388 413.042 301.173 410.862 301.403L384.147 304.231C382.792 304.374 381.541 305.023 380.643 306.047C379.745 307.072 379.266 308.397 379.301 309.759L382.111 376.631C380.167 377.045 375.755 378.004 373.59 378.63C373.59 378.63 394.243 424.799 399.301 424.265C404.358 423.73 424.569 380.04 424.569 380.04C421.049 378.979 417.476 378.102 413.865 377.414C413.807 373.06 413.973 368.705 414.362 364.368Z" fill="#FFBE9D"/>
<path d="M422.821 324.943C422.826 325.457 422.631 325.952 422.276 326.324C421.922 326.696 421.436 326.914 420.923 326.933C420.671 326.96 420.415 326.935 420.173 326.858C419.931 326.782 419.708 326.656 419.517 326.489C419.325 326.322 419.171 326.117 419.062 325.888C418.954 325.658 418.894 325.409 418.887 325.155C418.882 324.642 419.077 324.146 419.432 323.775C419.786 323.403 420.272 323.184 420.785 323.165C421.036 323.145 421.288 323.176 421.528 323.255C421.767 323.334 421.988 323.46 422.178 323.625C422.367 323.791 422.522 323.993 422.632 324.219C422.743 324.446 422.807 324.692 422.821 324.943Z" fill="#263238"/>
<path d="M426.069 323.119C425.821 323.377 424.328 322.272 422.2 322.281C420.072 322.29 418.516 323.35 418.295 323.092C418.175 322.972 418.424 322.511 419.105 322.014C420.032 321.387 421.127 321.056 422.247 321.065C423.351 321.063 424.428 321.411 425.323 322.06C425.931 322.539 426.189 323.009 426.069 323.119Z" fill="#263238"/>
<path d="M402.322 325.339C402.327 325.854 402.131 326.351 401.774 326.723C401.418 327.095 400.93 327.312 400.415 327.329C400.163 327.356 399.908 327.33 399.666 327.254C399.424 327.177 399.2 327.051 399.009 326.885C398.818 326.718 398.663 326.513 398.555 326.283C398.446 326.054 398.386 325.804 398.379 325.551C398.374 325.036 398.571 324.539 398.927 324.167C399.283 323.795 399.771 323.578 400.286 323.561C400.537 323.541 400.79 323.571 401.029 323.65C401.268 323.729 401.489 323.855 401.679 324.021C401.869 324.186 402.023 324.388 402.134 324.615C402.244 324.841 402.308 325.087 402.322 325.339Z" fill="#263238"/>
<path d="M405.187 323.515C404.947 323.773 403.446 322.668 401.327 322.677C399.208 322.686 397.642 323.746 397.412 323.488C397.301 323.368 397.55 322.907 398.232 322.41C399.152 321.775 400.246 321.437 401.364 321.442C402.469 321.442 403.545 321.79 404.441 322.438C405.086 322.907 405.307 323.405 405.187 323.515Z" fill="#263238"/>
<path d="M412.897 339.27C414.018 338.919 415.179 338.712 416.352 338.653C416.886 338.597 417.402 338.487 417.494 338.118C417.541 337.557 417.416 336.994 417.135 336.506C416.619 335.197 416.094 333.815 415.532 332.378C413.302 326.5 411.69 321.663 411.93 321.571C412.169 321.479 414.159 326.177 416.388 332.065L417.927 336.22C418.27 336.874 418.368 337.629 418.203 338.348C418.123 338.544 417.997 338.717 417.837 338.855C417.677 338.992 417.487 339.09 417.282 339.141C416.981 339.219 416.672 339.262 416.361 339.27C415.211 339.413 414.047 339.413 412.897 339.27Z" fill="#263238"/>
<path d="M414.361 364.368C407.113 364.47 399.978 362.556 393.754 358.84C393.754 358.84 398.756 369.408 414.158 367.97L414.361 364.368Z" fill="#ED9482"/>
<path d="M406.919 342.596C407.386 342.268 407.916 342.039 408.476 341.924C408.758 341.872 409.049 341.91 409.308 342.032C409.568 342.155 409.782 342.355 409.922 342.606C409.981 342.79 410.055 342.968 410.143 343.14C410.456 343.564 411.11 343.407 411.608 343.555C411.796 343.634 411.966 343.75 412.109 343.895C412.252 344.041 412.365 344.213 412.441 344.402C412.517 344.591 412.555 344.794 412.553 344.998C412.551 345.202 412.508 345.403 412.428 345.591C412.243 345.965 411.984 346.298 411.667 346.57C411.351 346.843 410.983 347.048 410.585 347.176C409.543 347.605 408.407 347.761 407.287 347.627C406.896 347.612 406.511 347.514 406.16 347.339C405.809 347.165 405.5 346.917 405.252 346.614C405.019 346.207 404.91 345.741 404.938 345.273C404.966 344.805 405.129 344.355 405.408 343.978C405.981 343.229 406.698 342.602 407.518 342.136" fill="#ED9482"/>
<path d="M406.649 340.745C406.99 340.745 406.999 343.029 408.971 344.66C410.942 346.291 413.392 346.042 413.411 346.365C413.411 346.512 412.867 346.816 411.826 346.844C410.485 346.857 409.182 346.401 408.142 345.554C407.124 344.738 406.464 343.559 406.299 342.265C406.235 341.334 406.493 340.726 406.649 340.745Z" fill="#263238"/>
<path d="M406.144 319.802C405.932 320.373 403.813 320.106 401.326 320.4C398.839 320.695 396.812 321.386 396.49 320.861C396.343 320.622 396.693 320.078 397.503 319.516C398.59 318.83 399.818 318.401 401.095 318.261C402.371 318.12 403.663 318.272 404.873 318.705C405.776 319.074 406.236 319.525 406.144 319.802Z" fill="#263238"/>
<path d="M425.286 318.3C424.909 318.788 423.444 318.3 421.685 318.3C419.925 318.3 418.442 318.622 418.101 318.115C417.944 317.876 418.184 317.388 418.829 316.936C419.704 316.388 420.721 316.113 421.753 316.144C422.784 316.175 423.783 316.512 424.623 317.111C425.25 317.59 425.452 318.088 425.286 318.3Z" fill="#263238"/>
<path d="M419.788 299.154C419.213 301.882 418.098 304.466 416.508 306.756C414.919 309.045 412.887 310.993 410.533 312.485C408.179 313.976 405.55 314.981 402.801 315.44C400.052 315.9 397.24 315.804 394.528 315.158C394.083 318.54 392.773 321.749 390.725 324.477C388.677 327.204 385.961 329.358 382.838 330.729C387.098 338.452 388.834 347.315 387.804 356.075C387.352 359.761 386.275 363.695 383.474 366.21C379.2 370.043 371.996 369.112 367.887 365.114C363.945 361.272 362.554 355.265 363.668 349.875C364.783 344.485 368.164 339.74 372.41 336.276C370.621 335.969 368.953 335.17 367.594 333.967C366.234 332.764 365.237 331.206 364.714 329.468C364.192 327.729 364.164 325.879 364.635 324.126C365.106 322.373 366.057 320.786 367.381 319.544C368.587 318.401 370.144 317.554 371.065 316.162C371.987 314.771 372.134 313.223 372.659 311.74C374.032 307.861 377.495 305.18 380.793 302.711C383.557 300.628 386.652 298.454 390.134 298.463C391.977 298.463 393.819 299.108 395.662 298.859C398.195 298.519 400.175 296.593 402.267 295.174C405.175 293.009 408.794 292.021 412.4 292.41C415.965 292.972 419.29 295.635 419.963 299.173" fill="#263238"/>
<path d="M418.416 300.674C417.873 303.65 419.338 306.7 421.567 308.782C423.796 310.865 426.551 312.154 429.305 313.389C428.345 310.462 427.004 307.674 425.316 305.097C424.465 303.803 423.365 302.69 422.081 301.823C420.798 300.957 419.355 300.353 417.836 300.048" fill="#263238"/>
<path d="M350.725 336.165C350.619 335.854 350.591 335.522 350.642 335.198C350.778 334.257 351.274 333.405 352.023 332.821C353.236 331.938 354.731 331.531 356.224 331.678C357.947 331.678 359.854 332.249 361.963 332.12C363.105 332.025 364.207 331.66 365.181 331.056C366.154 330.452 366.971 329.627 367.564 328.647C368.222 327.551 368.584 326.304 368.614 325.026C368.706 323.709 368.614 322.327 368.66 320.889C368.674 319.382 369.143 317.915 370.005 316.679C370.964 315.444 372.237 314.49 373.69 313.915C376.592 312.597 379.899 312.579 383.068 311.989C384.64 311.733 386.156 311.203 387.545 310.423C388.847 309.593 389.976 308.52 390.87 307.262C392.667 304.793 393.874 302.038 395.523 299.689C397.504 296.738 400.42 294.54 403.801 293.445C407.182 292.351 410.833 292.424 414.168 293.654C415.55 294.153 416.856 294.845 418.046 295.709C419.078 296.418 419.994 297.282 420.763 298.27C420.696 298.222 420.634 298.166 420.579 298.104L420.073 297.597C419.409 296.965 418.698 296.386 417.945 295.865C415.151 293.939 411.821 292.943 408.429 293.018C405.938 293.103 403.503 293.775 401.321 294.979C399.139 296.183 397.272 297.885 395.873 299.947C394.261 302.25 393.063 305.005 391.267 307.548C390.337 308.857 389.161 309.972 387.803 310.828C386.377 311.641 384.817 312.193 383.197 312.459C379.954 313.058 376.748 313.076 373.911 314.302C372.534 314.85 371.327 315.753 370.411 316.918C369.594 318.079 369.151 319.461 369.139 320.88C369.056 322.271 369.139 323.644 369.075 325.017C369.029 326.361 368.639 327.672 367.942 328.822C367.312 329.848 366.448 330.709 365.419 331.334C364.391 331.959 363.228 332.329 362.028 332.415C359.826 332.526 357.928 331.955 356.243 331.909C354.806 331.74 353.357 332.104 352.171 332.931C351.442 333.481 350.943 334.282 350.771 335.179C350.714 335.505 350.698 335.836 350.725 336.165Z" fill="#FAFAFA"/>
<path d="M373.609 407.284L374.586 431.829L377.055 455.323L403.152 454.209L401.273 407.819L373.609 407.284Z" fill="#263238"/>
<path d="M369.773 407.201L370.75 431.829L373.219 455.323L399.316 454.209L397.437 407.745L369.773 407.201Z" fill="#455A64"/>
<path d="M367.324 458.198C374.25 457.883 381.15 457.144 387.986 455.987C396.075 454.688 395.992 453.96 395.706 453.03C394.932 450.542 381.391 454.762 383.823 452.163C386.255 449.565 400.929 448.939 400.008 446.377C398.82 443.033 384.716 447.713 383.5 448.017C382.284 448.321 381.842 446.562 382.957 446.341C384.56 446.027 401.316 442.323 400.174 439.025C399.548 437.182 396.388 438.73 396.388 438.73C396.388 438.73 380.93 443.337 380.442 441.798C379.954 440.26 388.945 437.192 392.04 436.362C395.135 435.533 396.01 433.773 394.564 432.677C393.578 431.949 384.035 434.188 380.995 435.063C377.955 435.938 369.627 438.463 372.796 433.856C372.851 433.783 372.888 433.709 372.934 433.635C376.186 429.194 377.208 424.689 376.619 423.178C376.029 421.667 373.975 421.805 373.192 423.178C373.038 423.399 372.931 423.65 372.879 423.915C372.879 424.035 372.796 424.191 372.759 424.32C372.006 426.041 371.08 427.68 369.995 429.213C369.042 430.612 367.855 431.837 366.486 432.834C364.91 433.985 360.958 438.205 359.715 438.951" fill="#FFBE9D"/>
<path d="M361.347 437.597L375.147 458.198L352.402 481.398L353.176 443.77L361.347 437.597Z" fill="#1D6C86"/>
<defs>
<filter id="filter0_d_1500_11276" x="0.515625" y="74.1143" width="690.922" height="499.371" filterUnits="userSpaceOnUse" color-interpolation-filters="sRGB">
<feFlood flood-opacity="0" result="BackgroundImageFix"/>
<feColorMatrix in="SourceAlpha" type="matrix" values="0 0 0 0 0 0 0 0 0 0 0 0 0 0 0 0 0 0 127 0" result="hardAlpha"/>
<feOffset dx="-7"/>
<feGaussianBlur stdDeviation="29"/>
<feComposite in2="hardAlpha" operator="out"/>
<feColorMatrix type="matrix" values="0 0 0 0 0 0 0 0 0 0 0 0 0 0 0 0 0 0 0.1 0"/>
<feBlend mode="normal" in2="BackgroundImageFix" result="effect1_dropShadow_1500_11276"/>
<feBlend mode="normal" in="SourceGraphic" in2="effect1_dropShadow_1500_11276" result="shape"/>
</filter>
</defs>
</svg>
