<svg width="113" height="112" viewBox="0 0 113 112" fill="none" xmlns="http://www.w3.org/2000/svg">
<g filter="url(#filter0_d_971_32160)">
<circle cx="55.743" cy="51.8465" r="51.2879" fill="white"/>
<path d="M72.2085 59.6474C72.1809 59.5933 72.1537 59.5409 72.1222 59.4888C70.9618 58.0069 69.7979 56.7372 69.7979 53.8839V44.3685C69.7979 40.352 70.1171 36.6508 67.1591 33.9051C64.7298 31.6885 60.9232 30.8398 57.9641 30.8398H56.6949C51.3088 31.1528 45.6048 33.4802 44.3305 40.1402C44.1209 40.9884 44.7577 41.3041 45.1787 41.4086L51.0977 42.1488C51.731 42.0423 52.0494 41.5121 52.1543 40.9884C52.6803 38.6626 54.5836 37.4987 56.6953 37.2852H57.1198C58.3898 37.2852 59.7632 37.8143 60.5015 38.8736C61.3458 40.1406 61.2412 41.8343 61.2412 43.3162V44.1606C59.8674 44.2648 58.2802 44.3689 56.6953 44.5773C54.2656 44.8988 51.8359 45.321 49.83 46.273C45.9196 47.8591 43.2773 51.2419 43.2773 56.2078C43.2773 57.4856 43.4531 58.6273 43.7644 59.6478C44.973 63.6075 48.3299 65.6185 52.3678 65.6185C54.0572 65.6185 55.4299 65.4035 56.6956 65.0914C58.7078 64.455 60.3942 63.2922 62.402 61.1763C63.5644 62.762 63.8851 63.5057 65.8906 65.1963C66.4205 65.4039 66.9488 65.4039 67.3686 65.0914C68.6387 64.032 70.8596 62.1283 72.0204 61.0733C72.4954 60.6908 72.4554 60.1376 72.2085 59.6474ZM56.6945 49.4413C58.0671 49.1256 59.6563 49.0195 61.2405 49.0195V50.2891C61.2405 52.7199 61.345 54.6221 60.0781 56.7372C59.3379 58.2156 58.0671 59.1681 56.6945 59.4888C56.4861 59.4888 56.1677 59.5937 55.849 59.5937C53.527 59.5937 52.1536 57.7962 52.1536 55.1539C52.1539 51.7683 54.1595 50.1853 56.6945 49.4413Z" fill="#33363A"/>
<path d="M57.8426 73.857C57.6603 73.8628 57.4733 73.8628 57.296 73.8628C52.4795 73.8659 48.2072 72.4936 44.132 70.6059H38.2868V67.5846C37.7142 67.2681 37.1423 66.9501 36.5697 66.6321C36.3446 66.5143 36.1106 66.4521 35.8847 66.4521C35.5955 66.4521 35.2966 66.5614 35.0804 66.7643C34.8623 66.97 34.7333 67.2662 34.7364 67.5678C34.7333 67.9585 34.9448 68.3189 35.2414 68.5529C41.3069 73.8247 47.9584 78.7186 56.9026 78.7237C57.0756 78.7237 57.254 78.7186 57.4317 78.7155C63.121 78.5884 69.5535 76.6649 74.5489 73.5261L74.5792 73.5071C75.2327 73.1156 75.8862 72.6701 76.5019 72.1772C76.8856 71.8934 77.1496 71.4483 77.1496 70.9865C77.1473 70.8508 77.1197 70.7248 77.0827 70.6059H72.9449C67.936 72.5858 62.6988 73.752 57.8426 73.857Z" fill="#FA9826"/>
<path d="M77.0846 70.6061H72.9468C67.9374 72.5863 61.5985 76.1966 56.7408 76.3008C56.5581 76.307 56.3726 76.307 56.1942 76.307C51.3777 76.3097 48.2082 75.4868 44.133 73.5982L39.2411 71.0932C38.345 70.7623 37.4482 70.2994 36.584 69.7007C42.2946 74.5118 48.6129 78.7196 56.9041 78.7238C57.077 78.7238 57.2555 78.7188 57.4331 78.7157C63.1224 78.5886 69.555 76.665 74.5503 73.5263L74.5807 73.5073C75.2341 73.1158 75.8876 72.6703 76.5034 72.1774C76.8871 71.8936 77.151 71.4485 77.151 70.9867C77.1491 70.851 77.1211 70.725 77.0846 70.6061Z" fill="#EA7B0C"/>
<path d="M77.5737 67.9248C78.0024 67.9217 78.3873 67.9528 78.6528 68.0084C78.7842 68.0372 78.8833 68.0714 78.9354 68.099C78.9572 68.1048 78.9708 68.113 78.979 68.1192C78.9899 68.1557 79.007 68.2514 79.0046 68.3843C79.0101 68.8908 78.7966 69.832 78.4993 70.7502C78.2131 71.6676 77.8625 72.589 77.6327 73.2012C77.576 73.3408 77.5398 73.4963 77.5398 73.6654C77.5348 73.9103 77.6355 74.2089 77.8508 74.406C78.0588 74.6027 78.3282 74.6816 78.5533 74.6816H78.5653C78.9036 74.6793 79.1908 74.544 79.4377 74.3492C81.774 72.248 82.5889 68.8908 82.6211 67.0008L82.6168 66.6999V66.6968C82.5931 66.1988 82.4889 65.8178 82.2814 65.5033L82.2588 65.4718L82.2343 65.4411C82.0221 65.2094 81.8199 65.1227 81.5999 65.0267C80.9437 64.7736 79.9893 64.6384 78.841 64.6353C78.3764 64.6353 77.8831 64.6644 77.377 64.7223V67.9291C77.4423 67.9275 77.5103 67.9248 77.5737 67.9248Z" fill="#EA7B0C"/>
<path d="M75.6864 69.6119C75.4481 69.6088 75.202 69.666 74.9742 69.7721C74.7176 69.8732 74.456 69.9913 74.2083 70.0959L73.8441 70.2491L73.3722 70.4372V70.4427C73.2314 70.5002 73.0884 70.5504 72.9453 70.606H77.0831C76.8957 70.0018 76.3134 69.6119 75.6864 69.6119Z" fill="#FA9826"/>
<path d="M44.1319 70.6058C42.1508 69.688 40.2157 68.6492 38.2871 67.5845V70.6058H44.1319Z" fill="#FA9826"/>
<path d="M76.1878 64.8515L75.2676 65.1586L75.2513 65.1672L74.7288 65.3363V65.3588C74.1193 65.6123 73.5637 65.928 73.0494 66.3023C72.7279 66.5418 72.462 66.8606 72.4496 67.348C72.4411 67.6124 72.5748 67.9168 72.7979 68.0968C73.0203 68.2775 73.28 68.3389 73.5074 68.3389C73.5618 68.3389 73.6127 68.337 73.6574 68.3277L73.7029 68.3246L73.7356 68.3187C74.1865 68.2239 74.8419 68.159 75.6109 68.0513C76.2014 67.9852 76.8191 67.9385 77.3766 67.9284V64.7217C76.9882 64.766 76.5893 64.8263 76.1909 64.9137L76.1878 64.8515Z" fill="#FA9826"/>
</g>
<defs>
<filter id="filter0_d_971_32160" x="0.455078" y="0.558594" width="116.447" height="116.446" filterUnits="userSpaceOnUse" color-interpolation-filters="sRGB">
<feFlood flood-opacity="0" result="BackgroundImageFix"/>
<feColorMatrix in="SourceAlpha" type="matrix" values="0 0 0 0 0 0 0 0 0 0 0 0 0 0 0 0 0 0 127 0" result="hardAlpha"/>
<feOffset dy="4"/>
<feGaussianBlur stdDeviation="2"/>
<feComposite in2="hardAlpha" operator="out"/>
<feColorMatrix type="matrix" values="0 0 0 0 0 0 0 0 0 0 0 0 0 0 0 0 0 0 0.1 0"/>
<feBlend mode="normal" in2="BackgroundImageFix" result="effect1_dropShadow_971_32160"/>
<feBlend mode="normal" in="SourceGraphic" in2="effect1_dropShadow_971_32160" result="shape"/>
</filter>
</defs>
</svg>
