<svg width="230" height="212" viewBox="0 0 230 212" fill="none" xmlns="http://www.w3.org/2000/svg">
<g clip-path="url(#clip0_1153_39786)">
<path d="M59.2744 168.859C59.2744 168.859 59.2694 168.809 59.2643 168.723C59.2643 168.622 59.2593 168.495 59.2542 168.334C59.2492 167.975 59.2441 167.479 59.234 166.842C59.2239 165.532 59.2037 163.651 59.1835 161.279L59.2744 161.37C52.7403 161.385 42.3534 161.405 30.6637 161.425C30.7293 161.36 30.5172 161.572 30.8101 161.279V161.522V161.764V162.25C30.8101 162.573 30.8101 162.897 30.8101 163.216C30.8101 163.858 30.8101 164.495 30.8101 165.127C30.8101 166.392 30.8101 167.636 30.8101 168.854L30.6687 168.713C38.8136 168.738 45.9436 168.763 51.0588 168.779C53.6038 168.794 55.6488 168.809 57.0779 168.819C57.7747 168.829 58.315 168.834 58.7038 168.839C58.8805 168.839 59.0169 168.844 59.128 168.849C59.2239 168.849 59.2744 168.854 59.2795 168.859C59.2795 168.859 59.2391 168.865 59.1482 168.87C59.0421 168.87 58.9058 168.875 58.7392 168.88C58.3554 168.88 57.8252 168.89 57.1435 168.9C55.7246 168.91 53.6896 168.925 51.1598 168.94C46.0193 168.956 38.8591 168.981 30.6687 169.006H30.5273V168.865C30.5273 167.646 30.5273 166.402 30.5273 165.137C30.5273 164.505 30.5273 163.868 30.5273 163.226C30.5273 162.902 30.5273 162.584 30.5273 162.26V161.774V161.532V161.294C30.8202 160.996 30.6081 161.208 30.6738 161.142C42.3635 161.168 52.7504 161.188 59.2845 161.198H59.3754V161.289C59.3552 163.686 59.34 165.582 59.3249 166.902C59.3148 167.529 59.3098 168.02 59.3047 168.374C59.3047 168.526 59.2997 168.652 59.2946 168.748C59.2946 168.829 59.2896 168.87 59.2845 168.87L59.2744 168.859Z" fill="#E0E0E0"/>
<path d="M63.1525 161.279C63.1525 161.279 63.1474 161.228 63.1424 161.132C63.1424 161.021 63.1373 160.889 63.1323 160.733C63.1272 160.358 63.1171 159.853 63.107 159.21C63.0919 157.88 63.0767 156.004 63.0515 153.698L63.1575 153.804C58.7038 153.814 52.6444 153.83 45.9689 153.845C45.8376 153.976 46.1456 153.668 46.1153 153.698V154.689C46.1153 155.018 46.1153 155.347 46.1153 155.67C46.1153 156.323 46.1153 156.965 46.1153 157.602C46.1153 158.872 46.1153 160.1 46.1102 161.279L45.9739 161.142C50.9376 161.168 55.2095 161.193 58.2696 161.208C59.7794 161.223 60.9913 161.238 61.8497 161.248C62.2536 161.253 62.5718 161.264 62.8141 161.264C63.0363 161.269 63.1525 161.274 63.1575 161.279C63.1626 161.284 63.0565 161.289 62.8444 161.294C62.6071 161.294 62.2991 161.304 61.9052 161.309C61.0519 161.319 59.8501 161.329 58.3554 161.35C55.2701 161.365 50.9629 161.39 45.9638 161.415H45.8275V161.279C45.8275 160.1 45.8275 158.872 45.8224 157.602C45.8224 156.97 45.8224 156.323 45.8224 155.67C45.8224 155.347 45.8224 155.018 45.8224 154.689V154.194V153.946V153.703C45.7921 153.728 46.1001 153.42 45.9689 153.551C52.6444 153.567 58.7038 153.582 63.1575 153.592H63.2636V153.698C63.2383 156.035 63.2232 157.931 63.208 159.276C63.1979 159.908 63.1878 160.404 63.1828 160.773C63.1727 161.112 63.1676 161.284 63.1626 161.279H63.1525Z" fill="#E0E0E0"/>
<path d="M229.672 178.857C229.672 178.928 178.636 178.989 115.694 178.989C52.7509 178.989 1.70508 178.928 1.70508 178.857C1.70508 178.787 52.7307 178.726 115.694 178.726C178.656 178.726 229.672 178.787 229.672 178.857Z" fill="#263238"/>
<path d="M101.793 3.24751V60.353C101.793 61.6628 102.783 62.7248 104.01 62.7248H120.85L126.561 69.7795L128.323 62.7248H145.052C146.274 62.7248 147.269 61.6628 147.269 60.353V3.24751C147.269 1.57865 146.002 0.223328 144.441 0.223328H104.621C103.06 0.223328 101.793 1.57865 101.793 3.24751Z" fill="white"/>
<path d="M101.793 3.24749C101.793 3.24749 101.793 3.19692 101.793 3.10589C101.793 3.0098 101.803 2.8682 101.833 2.68109C101.894 2.31192 102.05 1.74551 102.535 1.17405C102.777 0.895911 103.1 0.622824 103.515 0.430652C103.929 0.233423 104.444 0.167679 104.979 0.187908C106.049 0.187908 107.287 0.182851 108.68 0.177794C114.255 0.167679 122.314 0.152508 132.267 0.137336C134.756 0.137336 137.367 0.132279 140.083 0.127222C141.442 0.127222 142.83 0.127222 144.239 0.127222C144.956 0.0867648 145.729 0.324451 146.284 0.825111C146.85 1.31566 147.223 2.0186 147.334 2.76706C147.39 3.14635 147.37 3.52058 147.375 3.88469C147.375 4.25387 147.375 4.62304 147.375 4.99727C147.375 5.74067 147.375 6.49419 147.375 7.25276C147.375 8.76991 147.375 10.3073 147.375 11.87C147.375 14.9953 147.375 18.2066 147.38 21.5038C147.38 28.0984 147.38 35.0166 147.39 42.1927C147.39 45.7782 147.39 49.4295 147.39 53.1364C147.39 54.9873 147.39 56.8534 147.39 58.7347V60.1456C147.41 60.6159 147.329 61.1368 147.092 61.5768C146.86 62.0168 146.501 62.3961 146.047 62.6186C145.825 62.7298 145.582 62.8158 145.33 62.8411C145.072 62.8714 144.84 62.8613 144.603 62.8613C139.058 62.8613 133.61 62.8613 128.313 62.8613L128.439 62.7652C127.843 65.1522 127.252 67.5038 126.677 69.8149L126.616 70.0627L126.455 69.8604C124.505 67.4532 122.602 65.1016 120.749 62.8057L120.845 62.8512C115.224 62.8512 109.796 62.8462 104.605 62.8411C104.282 62.836 103.959 62.8613 103.616 62.8006C103.282 62.74 102.959 62.6034 102.686 62.4011C102.141 62.0016 101.788 61.3695 101.702 60.712C101.661 60.3783 101.682 60.0647 101.676 59.7461C101.676 59.4326 101.676 59.114 101.676 58.8004C101.676 58.1733 101.676 57.5513 101.676 56.9293C101.676 54.4513 101.676 52.039 101.682 49.6925C101.692 40.3114 101.702 32.0227 101.712 25.1399C101.727 18.2622 101.742 12.7904 101.747 9.03289C101.757 7.16174 101.762 5.71539 101.767 4.7343C101.767 4.24881 101.777 3.87964 101.777 3.62678C101.777 3.37898 101.788 3.25255 101.788 3.25255C101.788 3.25255 101.793 3.37898 101.798 3.62678C101.798 3.87964 101.803 4.24881 101.808 4.7343C101.808 5.71539 101.818 7.16174 101.828 9.03289C101.838 12.7904 101.848 18.2622 101.863 25.1399C101.873 32.0227 101.878 40.3114 101.894 49.6925C101.894 52.039 101.894 54.4513 101.899 56.9293C101.909 58.1582 101.873 59.4427 101.924 60.6766C102.005 61.2784 102.328 61.8499 102.818 62.209C103.06 62.391 103.348 62.5124 103.651 62.568C103.944 62.6186 104.272 62.5933 104.6 62.6034C109.791 62.6034 115.219 62.5984 120.84 62.5933H120.9L120.935 62.6388C122.794 64.9348 124.697 67.2813 126.646 69.6885L126.424 69.7391C127 67.4229 127.591 65.0713 128.187 62.6843L128.212 62.5832H128.313C133.605 62.5832 139.058 62.5832 144.603 62.5832C144.84 62.5832 145.082 62.5882 145.294 62.563C145.517 62.5377 145.729 62.4618 145.926 62.3657C146.325 62.1685 146.648 61.8297 146.855 61.4352C147.067 61.0357 147.138 60.5957 147.122 60.1254V58.7145C147.122 56.8382 147.122 54.9721 147.122 53.1162C147.122 49.4093 147.122 45.758 147.122 42.1725C147.122 34.9964 147.127 28.0782 147.132 21.4836C147.132 18.1863 147.132 14.97 147.138 11.8497C147.138 10.2871 147.138 8.74968 147.138 7.23254C147.138 6.47396 147.138 5.7255 147.138 4.97704C147.138 4.60281 147.138 4.23364 147.138 3.86447C147.138 3.49529 147.153 3.12612 147.102 2.77718C147.001 2.07929 146.653 1.42186 146.128 0.966711C145.602 0.501452 144.916 0.283994 144.224 0.319394C142.81 0.319394 141.427 0.319394 140.068 0.319394C137.352 0.319394 134.741 0.314337 132.251 0.30928C122.294 0.294108 114.24 0.278937 108.665 0.268823C107.271 0.268823 106.034 0.258708 104.964 0.258708C104.428 0.233423 103.939 0.299166 103.525 0.486281C103.116 0.668339 102.797 0.936368 102.555 1.2044C102.075 1.75563 101.909 2.31697 101.843 2.68109C101.777 3.05026 101.793 3.24749 101.777 3.24243L101.793 3.24749Z" fill="#263238"/>
<path d="M106.69 3.85437C106.69 4.2994 106.327 4.66352 105.882 4.66352C105.438 4.66352 105.074 4.2994 105.074 3.85437C105.074 3.40934 105.438 3.04523 105.882 3.04523C106.327 3.04523 106.69 3.40934 106.69 3.85437Z" fill="#EBEBEB"/>
<path d="M108.878 3.85437C108.878 4.2994 108.514 4.66352 108.07 4.66352C107.625 4.66352 107.262 4.2994 107.262 3.85437C107.262 3.40934 107.625 3.04523 108.07 3.04523C108.514 3.04523 108.878 3.40934 108.878 3.85437Z" fill="#EBEBEB"/>
<path d="M111.149 3.85437C111.149 4.2994 110.785 4.66352 110.341 4.66352C109.897 4.66352 109.533 4.2994 109.533 3.85437C109.533 3.40934 109.897 3.04523 110.341 3.04523C110.785 3.04523 111.149 3.40934 111.149 3.85437Z" fill="#EBEBEB"/>
<path d="M118.844 10.3832H105.367V12.4566H118.844V10.3832Z" fill="#1D6C86"/>
<path d="M118.844 26.212H105.367V28.2855H118.844V26.212Z" fill="#455A64"/>
<path d="M118.844 47.3915H105.367V49.4649H118.844V47.3915Z" fill="#455A64"/>
<path d="M123.143 13.8827H109.357V15.9561H123.143V13.8827Z" fill="#EBEBEB"/>
<path d="M107.629 13.8928H105.574V15.9511H107.629V13.8928Z" fill="#EBEBEB"/>
<path d="M142.144 42.84H111.428V44.9135H142.144V42.84Z" fill="#EBEBEB"/>
<path d="M142.144 39.4315H111.428V41.505H142.144V39.4315Z" fill="#EBEBEB"/>
<path d="M109.351 39.4365H105.574V41.4948H109.351V39.4365Z" fill="#EBEBEB"/>
<path d="M142.144 55.7307H111.428V57.8041H142.144V55.7307Z" fill="#EBEBEB"/>
<path d="M142.144 52.3222H111.428V54.3956H142.144V52.3222Z" fill="#EBEBEB"/>
<path d="M109.351 52.3273H105.574V54.3855H109.351V52.3273Z" fill="#EBEBEB"/>
<path d="M142.144 34.9003H111.428V36.9737H142.144V34.9003Z" fill="#EBEBEB"/>
<path d="M142.144 31.4918H111.428V33.5652H142.144V31.4918Z" fill="#EBEBEB"/>
<path d="M109.351 31.5018H105.574V33.5601H109.351V31.5018Z" fill="#EBEBEB"/>
<path d="M119.941 17.0535H109.357V19.127H119.941V17.0535Z" fill="#EBEBEB"/>
<path d="M107.629 17.0586H105.574V19.1169H107.629V17.0586Z" fill="#EBEBEB"/>
<path d="M121.022 20.361H109.357V22.4344H121.022V20.361Z" fill="#EBEBEB"/>
<path d="M107.629 20.366H105.574V22.4242H107.629V20.366Z" fill="#EBEBEB"/>
<path d="M142.003 11.5565H128.283V25.2968H142.003V11.5565Z" fill="#EBEBEB"/>
<path d="M140.448 5.50298C140.448 5.50298 141.523 7.77365 142.003 12.2846C142.341 15.4504 141.978 19.9665 141.978 19.9665C141.978 19.9665 128.405 21.1903 128.172 20.8262C125.925 17.2508 128.314 7.53596 128.314 7.53596L140.448 5.49792V5.50298Z" fill="#263238"/>
<path d="M140.706 11.6576C139.691 14.7981 137.343 16.2444 137.343 16.2444C137.343 16.2444 130.122 18.156 128.688 12.8258C127.254 7.49553 129.006 4.39549 131.127 3.15143C132.91 2.10965 138.661 1.83151 140.555 5.71541C140.555 5.71541 142.009 8.74465 140.706 11.6576Z" fill="#263238"/>
<path d="M137.247 5.04788L133.334 3.5459L132.319 3.67738C130.026 3.71278 128.481 6.26159 128.486 8.12263C128.496 10.186 128.587 12.7044 128.931 14.2266C129.628 17.2761 132.238 17.4986 132.238 17.4986C132.238 17.4986 132.274 20.012 132.268 21.0386L137.55 19.7946L138.293 6.08459C138.267 5.52325 137.813 5.07316 137.252 5.04788H137.247Z" fill="#FFBF9D"/>
<path d="M132.234 17.4885C132.234 17.4885 134.314 17.4835 136.283 16.1079C136.283 16.1079 135.329 18.3179 132.229 18.237V17.4835L132.234 17.4885Z" fill="#FF9A6C"/>
<path d="M129.891 10.6967C129.896 10.9041 130.078 11.071 130.3 11.071C130.517 11.071 130.689 10.894 130.684 10.6866C130.678 10.4793 130.497 10.3124 130.275 10.3124C130.057 10.3124 129.886 10.4894 129.891 10.6967Z" fill="#263238"/>
<path d="M129.199 9.13911C129.25 9.18968 129.537 8.94693 129.962 8.91659C130.386 8.88119 130.714 9.08348 130.754 9.02785C130.775 9.00256 130.719 8.91153 130.578 8.82556C130.436 8.73453 130.204 8.65362 129.936 8.67385C129.674 8.69408 129.457 8.80533 129.335 8.91659C129.209 9.02785 129.174 9.12394 129.199 9.14416V9.13911Z" fill="#263238"/>
<path d="M131.97 12.4465C131.97 12.4465 131.703 12.3959 131.274 12.3656C131.163 12.3656 131.062 12.3454 131.036 12.2746C131.006 12.1987 131.041 12.0773 131.087 11.9459C131.173 11.6778 131.258 11.3946 131.354 11.0963C131.723 9.88759 131.981 8.89639 131.93 8.88122C131.88 8.86605 131.546 9.83702 131.178 11.0406C131.092 11.339 131.006 11.6222 130.925 11.8953C130.89 12.0217 130.829 12.1684 130.9 12.3251C130.935 12.4061 131.016 12.4566 131.087 12.4718C131.157 12.487 131.218 12.487 131.274 12.487C131.708 12.4819 131.975 12.4667 131.975 12.4415L131.97 12.4465Z" fill="#263238"/>
<path d="M129.082 7.72816C129.163 7.8293 129.481 7.73827 129.865 7.74333C130.248 7.73827 130.567 7.8293 130.647 7.72816C130.683 7.67758 130.632 7.5815 130.496 7.48541C130.36 7.38933 130.127 7.30841 129.865 7.30841C129.602 7.30841 129.37 7.38933 129.239 7.48541C129.102 7.5815 129.052 7.67758 129.087 7.72816H129.082Z" fill="#263238"/>
<path d="M134.375 10.3579C134.39 10.5653 134.223 10.7524 134.006 10.7675C133.789 10.7878 133.602 10.631 133.587 10.4237C133.572 10.2163 133.738 10.0292 133.956 10.014C134.173 9.9938 134.359 10.1506 134.375 10.3579Z" fill="#263238"/>
<path d="M134.95 8.9065C134.905 8.96213 134.597 8.74467 134.173 8.75984C133.748 8.76996 133.44 8.99753 133.395 8.94696C133.37 8.92673 133.42 8.83064 133.551 8.72444C133.683 8.6233 133.91 8.5171 134.173 8.51204C134.44 8.50698 134.662 8.59801 134.794 8.6941C134.925 8.79019 134.975 8.88121 134.95 8.9065Z" fill="#263238"/>
<path d="M134.641 7.75347C134.545 7.83944 134.232 7.69278 133.843 7.63715C133.454 7.56635 133.111 7.60175 133.05 7.4905C133.025 7.43487 133.091 7.3489 133.247 7.2781C133.404 7.2073 133.651 7.16684 133.919 7.2073C134.186 7.25281 134.409 7.36912 134.53 7.48544C134.656 7.60175 134.686 7.70795 134.646 7.74841L134.641 7.75347Z" fill="#263238"/>
<path d="M137.676 11.2884C137.661 11.0608 137.889 10.4995 138.116 10.4489C138.717 10.3124 139.807 10.2871 139.918 11.8245C140.075 13.9282 137.737 13.7462 137.732 13.6855C137.727 13.64 137.732 12.0773 137.676 11.2884Z" fill="#FFBF9D"/>
<path d="M138.45 12.7803C138.45 12.7803 138.49 12.8055 138.551 12.8258C138.611 12.8511 138.717 12.8612 138.823 12.8106C139.04 12.7145 139.202 12.3453 139.182 11.9661C139.172 11.7739 139.121 11.5969 139.04 11.4502C138.965 11.3036 138.859 11.2024 138.742 11.1873C138.631 11.1721 138.556 11.2429 138.535 11.3036C138.51 11.3643 138.53 11.4047 138.515 11.4098C138.51 11.4148 138.47 11.3794 138.48 11.2884C138.485 11.2479 138.505 11.1923 138.551 11.1519C138.596 11.1063 138.672 11.0811 138.747 11.0811C138.909 11.0811 139.066 11.2176 139.151 11.3794C139.247 11.5413 139.313 11.7385 139.323 11.9559C139.343 12.3807 139.151 12.7904 138.859 12.9016C138.712 12.9522 138.586 12.9168 138.52 12.8713C138.45 12.8258 138.439 12.7803 138.444 12.7752L138.45 12.7803Z" fill="#FF9A6C"/>
<path d="M138.348 10.4388L137.822 11.0002C135.49 8.82052 130.667 3.0149 130.92 3.34361C130.92 3.34361 132.748 2.99972 134.464 3.27281C136.181 3.5459 139.443 4.36516 139.418 6.38802C139.393 8.41089 138.353 10.4388 138.353 10.4388H138.348Z" fill="#263238"/>
<path d="M132.293 13.4377C132.324 13.7917 132.632 14.0598 132.99 14.0294C133.344 13.9991 133.611 13.6906 133.581 13.3315C133.551 12.9775 133.243 12.7095 132.884 12.7398C132.531 12.7702 132.263 13.0787 132.293 13.4377Z" fill="#FF9A6C"/>
<path d="M133.456 12.6943C133.416 12.6842 133.325 13.0837 132.956 13.3972C132.597 13.7158 132.183 13.7462 132.194 13.7917C132.194 13.8069 132.3 13.8271 132.466 13.7967C132.633 13.7664 132.855 13.6754 133.052 13.5034C133.249 13.3315 133.37 13.1241 133.426 12.9623C133.481 12.8005 133.476 12.6943 133.461 12.6943H133.456Z" fill="#263238"/>
<path d="M127.668 21.0335C127.668 21.0335 131.309 19.8603 131.49 19.7237C131.672 19.5872 131.45 18.8185 131.788 18.4291C132.127 18.0397 137.843 16.6591 137.924 16.8664C138.121 17.3823 137.924 18.242 137.924 18.242C137.924 18.242 141.787 19.1877 142.004 19.4607C142.216 19.7338 142.004 25.2967 142.004 25.2967H127.673V21.0335H127.668Z" fill="#1D6C86"/>
<path d="M115.814 95.1917C115.814 95.2625 114.047 95.2979 111.87 95.2676C109.694 95.2373 107.932 95.1513 107.932 95.0805C107.932 95.0097 109.699 94.9743 111.875 95.0046C114.052 95.035 115.814 95.1209 115.814 95.1917Z" fill="#263238"/>
<path d="M117.298 89.3609C117.263 89.4266 115.662 88.5972 113.723 87.5099C111.784 86.4227 110.239 85.4921 110.274 85.4314C110.309 85.3657 111.91 86.1951 113.854 87.2824C115.793 88.3697 117.338 89.3002 117.303 89.3609H117.298Z" fill="#263238"/>
<path d="M119.561 83.9851C119.495 84.0154 118.813 82.8017 118.041 81.2643C117.263 79.7269 116.688 78.4576 116.753 78.4273C116.819 78.3969 117.5 79.6106 118.273 81.148C119.051 82.6854 119.626 83.9547 119.561 83.9851Z" fill="#263238"/>
<path d="M163.78 87.7417H128.428C128.428 86.7707 129.215 85.9868 130.18 85.9868H163.78V87.7417Z" fill="#455A64"/>
<path d="M163.78 87.7416L171.633 58.0662C171.774 57.52 171.461 56.9637 170.921 56.807C170.37 56.6502 169.794 56.9739 169.643 57.5301L161.438 87.7416H163.78Z" fill="#455A64"/>
<path d="M163.124 87.5343C163.068 87.5849 162.735 87.2966 162.381 86.892C162.028 86.4875 161.78 86.1233 161.836 86.0728C161.891 86.0222 162.225 86.3105 162.578 86.715C162.932 87.1196 163.179 87.4837 163.124 87.5343Z" fill="#263238"/>
<path d="M171.749 44.17L168.931 43.462C166.755 44.3167 164.291 44.5341 161.816 43.9172C156.231 42.5265 152.429 37.1355 153.005 31.3956C153.727 24.1892 160.66 19.3647 167.659 21.2004C173.269 22.672 176.995 28.1843 176.288 33.9495C175.93 36.8978 174.521 39.4264 172.506 41.247H172.511L171.754 44.17H171.749Z" fill="white"/>
<path d="M171.748 44.17C171.748 44.17 171.763 44.0992 171.793 43.9728C171.829 43.8413 171.874 43.6491 171.935 43.4064C172.061 42.9057 172.243 42.1775 172.48 41.2419L172.526 41.2773H172.52L172.308 41.3886L172.485 41.2268C173.53 40.2659 174.803 38.769 175.596 36.6045C175.979 35.5273 176.267 34.2985 176.303 32.9684C176.348 31.6384 176.161 30.2123 175.681 28.8013C175.202 27.3904 174.404 26.0047 173.318 24.7859C172.788 24.1639 172.152 23.6228 171.48 23.107C171.309 22.9805 171.127 22.8743 170.95 22.753C170.768 22.6417 170.597 22.5052 170.405 22.4141C170.021 22.2169 169.647 21.9893 169.238 21.8376C167.633 21.1498 165.805 20.8211 163.961 20.9223C162.113 21.0133 160.25 21.61 158.609 22.6164C156.958 23.6329 155.569 25.0287 154.635 26.647C153.696 28.2602 153.186 30.0555 153.06 31.8154C152.948 33.5753 153.226 35.3048 153.852 36.822C154.463 38.3492 155.357 39.6793 156.402 40.7463C157.448 41.8235 158.649 42.6225 159.856 43.1788C160.164 43.3053 160.467 43.4266 160.765 43.548C161.068 43.6491 161.376 43.7351 161.669 43.8261C162.265 43.993 162.856 44.0942 163.426 44.1599C165.714 44.4128 167.612 43.9425 168.92 43.4418H168.93H168.94C169.839 43.6744 170.541 43.8565 171.021 43.9829C171.258 44.0436 171.435 44.0942 171.566 44.1245C171.687 44.1599 171.753 44.1801 171.753 44.1801C171.753 44.1801 171.692 44.17 171.571 44.1397C171.445 44.1093 171.263 44.0689 171.031 44.0133C170.546 43.8969 169.839 43.725 168.925 43.5025H168.945C167.638 44.0183 165.729 44.5089 163.421 44.2611C162.846 44.2004 162.25 44.0992 161.649 43.9323C161.351 43.8413 161.043 43.7553 160.735 43.6542C160.432 43.5328 160.129 43.4115 159.816 43.285C158.594 42.7287 157.377 41.9247 156.316 40.8374C155.256 39.7602 154.347 38.415 153.726 36.8726C153.09 35.3352 152.807 33.5854 152.918 31.8002C153.039 30.0201 153.554 28.1995 154.509 26.5661C155.453 24.9275 156.857 23.5115 158.533 22.4799C160.2 21.4583 162.083 20.8565 163.956 20.7655C165.83 20.6643 167.673 20.9981 169.304 21.7011C169.723 21.8578 170.097 22.0854 170.486 22.2877C170.682 22.3838 170.854 22.5153 171.041 22.6316C171.223 22.753 171.405 22.8642 171.576 22.9906C172.253 23.5115 172.899 24.0628 173.434 24.6949C174.53 25.9289 175.333 27.3347 175.813 28.7659C176.298 30.1971 176.479 31.6384 176.429 32.9785C176.383 34.3237 176.091 35.5577 175.697 36.645C174.884 38.8246 173.596 40.3266 172.531 41.2773L172.495 41.2268H172.5L172.561 41.1914L172.541 41.2571C172.288 42.1977 172.091 42.931 171.96 43.4317C171.894 43.6744 171.844 43.8565 171.808 43.988C171.773 44.1144 171.753 44.1751 171.753 44.1751L171.748 44.17Z" fill="#263238"/>
<path d="M161.432 32.4627C161.432 33.2011 160.836 33.7978 160.099 33.7978C159.361 33.7978 158.766 33.2011 158.766 32.4627C158.766 31.7244 159.361 31.1276 160.099 31.1276C160.836 31.1276 161.432 31.7244 161.432 32.4627Z" fill="#263238"/>
<path d="M165.981 32.4627C165.981 33.2011 165.385 33.7978 164.648 33.7978C163.91 33.7978 163.314 33.2011 163.314 32.4627C163.314 31.7244 163.91 31.1276 164.648 31.1276C165.385 31.1276 165.981 31.7244 165.981 32.4627Z" fill="#263238"/>
<path d="M170.531 32.4627C170.531 33.2011 169.936 33.7978 169.198 33.7978C168.461 33.7978 167.865 33.2011 167.865 32.4627C167.865 31.7244 168.461 31.1276 169.198 31.1276C169.936 31.1276 170.531 31.7244 170.531 32.4627Z" fill="#263238"/>
<path d="M99.1585 31.3528C104.384 30.5107 107.936 25.6026 107.092 20.3904C106.248 15.1782 101.327 11.6355 96.1009 12.4776C90.875 13.3198 87.3231 18.2278 88.1675 23.44C89.0118 28.6522 93.9326 32.1949 99.1585 31.3528Z" stroke="#154D5F" stroke-width="2" stroke-miterlimit="10"/>
<path d="M102.992 30.334L113.344 44.0999" stroke="#154D5F" stroke-width="3" stroke-miterlimit="10"/>
<path d="M86.2255 14.754C86.2255 14.754 86.8703 16.6825 86.7626 18.6116C86.6549 20.5401 86.8703 23.3258 87.4073 23.7547C87.9444 24.1836 89.4485 25.2549 89.0185 26.1121C88.5891 26.9693 87.622 27.3982 87.622 27.3982C87.622 27.3982 87.0849 30.1839 86.0108 32.2197C84.9367 34.2556 84.1843 35.6485 82.8955 35.7558C81.6067 35.8632 80.8543 35.5417 80.8543 35.5417L79.4579 36.9346L68.8225 34.6845L69.1449 29.9697C69.1449 29.9697 65.9219 24.5051 65.9219 18.9331C65.9219 13.3611 71.6154 10.1472 74.9461 9.93241C78.2761 9.71828 84.5067 11.1111 86.2255 14.754Z" fill="#FAD8CC"/>
<path d="M89.0173 12.0756C89.0173 12.0756 89.232 13.4684 88.1579 15.0754C87.0838 16.6824 84.1832 17.218 84.1832 17.218C84.1832 17.218 84.0755 19.5754 83.4314 20.54C82.7867 21.5046 81.2825 22.2544 81.2825 22.2544C81.2825 22.2544 79.1343 22.4685 79.7784 24.8259C80.4231 27.1833 80.9602 27.5048 79.8861 29.4333C78.812 31.3618 72.4737 33.9333 70.3248 32.4338C68.1759 30.9335 66.5648 30.1838 65.276 25.6837C63.9865 21.1837 62.6977 14.8619 66.3501 10.576C70.0024 6.29012 78.2749 7.36143 78.2749 7.36143C78.2749 7.36143 76.1267 5.32554 79.1343 5.43294C82.142 5.54033 84.1832 7.68296 84.1832 7.68296C84.1832 7.68296 84.5055 5.54033 86.1167 6.07598C87.7285 6.61098 88.8026 10.8969 89.0173 12.0756Z" fill="#030D16" stroke="#030D16" stroke-miterlimit="10"/>
<path d="M82.1427 23.862C82.1427 23.862 80.3162 20.4333 78.9197 21.7187C77.5232 23.0048 78.9197 29.8623 81.2833 28.5762" fill="white"/>
<path d="M82.1427 23.862C82.1427 23.862 80.3162 20.4333 78.9197 21.7187C77.5232 23.0048 78.9197 29.8623 81.2833 28.5762" stroke="#030D16" stroke-miterlimit="10"/>
<path d="M81.2832 22.2545H89.9851" stroke="#030D16" stroke-miterlimit="10"/>
<path d="M86.3945 20.1119C86.9244 19.888 87.5395 19.8264 88.1784 19.9882C89.1402 20.2318 89.9077 21.0241 90.1277 21.9893C90.3896 23.1405 89.9222 24.2086 89.0962 24.8222" stroke="#030D16" stroke-miterlimit="10"/>
<path d="M81.8828 40.0646C81.8828 40.0646 81.8828 37.6698 78.732 35.8743C75.5806 34.0781 69.2784 31.684 66.4277 31.9832C63.5763 32.2825 61.9258 36.3235 61.9258 36.3235C61.9258 36.3235 73.1796 37.3712 75.8806 37.9697C78.5817 38.5676 81.8828 40.0646 81.8828 40.0646Z" fill="white" stroke="#154D5F" stroke-miterlimit="10"/>
<path d="M34.7654 55.6293C34.7654 55.6293 31.1643 59.8196 26.3623 65.8061C21.5603 71.7926 17.6591 77.9291 17.6591 77.9291C17.6591 77.9291 13.1578 81.8201 12.5571 83.4663C11.957 85.1126 10.4562 89.9021 9.85608 91.2491C9.256 92.596 11.957 90.7998 12.4068 89.7521C12.8571 88.7044 13.3069 87.9559 13.3069 87.9559L17.2081 86.1597C17.2081 86.1597 16.0079 89.1529 17.2081 89.6021C18.4082 90.0514 18.5586 87.9559 19.9091 86.3096C21.2596 84.6634 22.4598 83.4663 22.6101 81.5202C22.7605 79.5746 22.6101 77.4792 22.6101 77.4792L41.8167 65.0569L34.7654 55.6293Z" fill="#FAD8CC"/>
<path d="M13.3086 87.9564L15.0859 85.2906C15.0859 85.2906 16.3287 84.9599 17.4882 84.2167C18.6483 83.4728 19.228 82.647 19.228 82.647" fill="#FAD8CC"/>
<path d="M99.9785 49.7589L104.842 39.5565C104.842 39.5565 105.68 35.6262 106.015 35.0408C106.351 34.4553 108.363 31.2774 109.118 31.1943C109.872 31.1104 110.627 31.4451 110.71 32.1143C110.794 32.7835 110.459 33.2852 110.459 33.2852C110.459 33.2852 111.549 33.7868 112.387 34.8738C113.226 35.9608 113.226 36.797 113.394 37.4663C113.561 38.1355 114.148 38.2187 113.478 39.6403C112.807 41.062 111.717 41.4798 111.13 41.8982C110.543 42.3166 109.118 42.9852 109.118 42.9852C109.118 42.9852 109.034 52.6022 107.86 56.3648C106.686 60.1282 105.847 61.3822 105.847 61.3822C105.847 61.3822 103.835 54.5247 102.661 53.1869C101.488 51.8491 99.9785 49.7589 99.9785 49.7589Z" fill="#FAD8CC"/>
<path d="M41.3665 77.6299C41.3665 77.6299 34.9698 94.0892 33.872 97.9213C32.7743 101.753 30.1796 109.543 29.0779 119.433C28.4312 125.24 29.1337 131.52 29.1337 131.52C29.1337 131.52 26.9382 135.717 24.5596 142.104C22.1809 148.492 14.1113 180.158 14.1113 180.158C14.1113 180.158 15.5748 182.348 18.8687 181.8C22.1619 181.253 22.1619 181.253 22.1619 181.253C22.1619 181.253 23.2596 181.436 24.5405 181.07C25.8215 180.706 28.749 180.888 28.9315 179.611C29.1147 178.333 28.1995 177.968 27.1017 176.691C26.004 175.413 24.3574 171.398 24.3574 171.398C24.3574 171.398 33.5057 155.406 36.7989 149.567C40.0921 143.727 44.686 132.797 44.8685 131.155C45.0517 129.513 54.1908 105.381 54.1908 105.381H56.2031L70.6471 129.493C70.6471 129.493 70.0982 139.165 71.7448 144.822C73.3914 150.479 77.2342 171.831 77.2342 171.831L76.8685 175.663C76.8685 175.663 77.6005 177.488 77.6005 178.035C77.6005 178.583 77.6005 180.042 77.6005 180.042C77.6005 180.042 78.1494 181.32 81.809 181.32C83.4556 181.32 88.945 180.772 89.8596 180.59C90.7741 180.407 97.7269 180.225 97.9101 179.312C98.0933 178.4 98.2758 177.67 97.1781 177.304C96.0803 176.94 88.2129 173.29 88.2129 173.29V170.005C88.2129 170.005 86.7488 168.91 86.3831 167.815C86.0175 166.72 86.7488 137.339 86.3831 132.229C86.0175 127.12 86.5663 127.12 85.1022 122.557C83.6388 117.995 77.829 86.0111 77.829 86.0111L74.8667 80.9263L43.7622 74.5391L41.3665 77.6299Z" fill="#030D16" stroke="#154D5F" stroke-miterlimit="10"/>
<path d="M98.2367 50.0921C98.2367 50.0921 98.8368 48.1466 101.387 49.0444C103.938 49.9421 107.84 57.2757 106.939 61.1673C106.038 65.059 103.638 66.4054 101.537 66.2561C99.4362 66.1061 96.8855 63.5621 97.4856 63.2628C98.087 62.9629 98.2367 50.0921 98.2367 50.0921Z" fill="white" stroke="#154D5F" stroke-miterlimit="10"/>
<path d="M42.7175 48.2958C42.7175 48.2958 41.667 48.2958 40.1668 48.1459C38.6666 47.9966 36.5657 50.5406 35.3649 52.0369C34.1647 53.5332 32.6638 54.4317 33.7143 57.5742C34.7648 60.7168 37.6155 64.7578 41.8174 65.057C46.0193 65.3563 48.4196 63.1115 48.4196 63.1115L42.7175 48.2958Z" fill="white" stroke="#154D5F" stroke-miterlimit="10"/>
<path d="M61.9232 36.323C61.9232 36.323 59.5222 36.0237 54.4209 38.867C49.3189 41.7103 38.3651 50.5408 37.6146 52.0371C36.8642 53.5334 38.9652 60.2684 41.6662 61.466C44.3672 62.6637 46.7682 61.7653 46.7682 61.7653L41.3661 77.6294C41.3661 77.6294 47.3683 77.3301 57.4219 79.1257C67.4756 80.9219 77.8293 86.0099 77.8293 86.0099C77.8293 86.0099 78.5798 85.86 78.7295 83.9145C78.8798 81.969 79.4799 80.7719 79.9296 79.8735C80.38 78.9757 86.0815 59.6692 86.0815 59.6692C86.0815 59.6692 97.3353 64.6079 100.336 64.6079C103.337 64.6079 104.388 59.22 103.187 55.179C101.987 51.138 99.4356 49.9409 99.4356 49.9409C99.4356 49.9409 95.9841 48.8932 93.1334 46.4985C90.2827 44.1037 81.8796 40.0627 81.8796 40.0627C81.8796 40.0627 69.876 34.976 61.9232 36.323Z" fill="#1D6C86" stroke="#154D5F" stroke-miterlimit="10"/>
<path d="M81.7314 56.5272L86.083 59.6704L80.3809 58.3234" stroke="#154D5F" stroke-miterlimit="10"/>
<path d="M51.8398 45.9397L52.6198 43.5063" stroke="#154D5F" stroke-miterlimit="10"/>
<path d="M46.7695 61.7652L51.0896 48.2861" stroke="#154D5F" stroke-miterlimit="10"/>
<path d="M118.428 93.522V190.852H122.563V93.34L118.428 93.522Z" fill="#E0E0E0"/>
<path d="M118.427 93.522C118.427 93.522 118.503 93.5119 118.669 93.5069C118.841 93.4967 119.089 93.4816 119.422 93.4664C120.109 93.431 121.144 93.3804 122.568 93.3096H122.603V93.345C122.659 104.875 122.699 144.154 122.699 190.761V190.989H122.568C121.149 190.989 119.74 190.989 118.432 190.989H118.301V190.857C118.321 163.746 118.341 139.401 118.356 121.822C118.371 113.053 118.387 105.973 118.397 101.077C118.407 98.6399 118.412 96.7536 118.417 95.464C118.417 94.8268 118.422 94.3463 118.427 94.0126C118.427 93.6839 118.437 93.522 118.437 93.522C118.437 93.522 118.442 93.699 118.447 94.0277C118.447 94.3666 118.452 94.8571 118.457 95.4994C118.457 96.794 118.467 98.6955 118.478 101.143C118.488 106.044 118.503 113.134 118.518 121.913C118.533 139.466 118.548 163.781 118.573 190.852L118.442 190.721C119.75 190.721 121.159 190.721 122.578 190.721L122.446 190.852V190.756C122.446 144.149 122.487 104.87 122.542 93.34L122.578 93.3754C121.164 93.4259 120.134 93.4664 119.452 93.4917C119.114 93.5018 118.866 93.5119 118.69 93.517C118.523 93.517 118.437 93.517 118.437 93.517L118.427 93.522Z" fill="#263238"/>
<path d="M203.674 93.522V190.852H207.809V93.436L203.674 93.522Z" fill="#E0E0E0"/>
<path d="M203.673 93.522C203.673 93.522 203.749 93.517 203.915 93.5119C204.087 93.5068 204.335 93.4967 204.668 93.4866C205.355 93.4664 206.39 93.4411 207.814 93.4006H207.849V93.436C207.905 104.956 207.945 144.22 207.945 190.807V190.984H207.814C206.395 190.984 204.986 190.984 203.678 190.984H203.547V190.852C203.567 163.746 203.587 139.396 203.602 121.817C203.618 113.048 203.633 105.968 203.643 101.072C203.653 98.6348 203.658 96.7485 203.663 95.4589C203.663 94.8217 203.668 94.3413 203.673 94.0075C203.673 93.6788 203.683 93.5169 203.683 93.5169C203.683 93.5169 203.688 93.6939 203.693 94.0227C203.693 94.3615 203.698 94.852 203.703 95.4943C203.703 96.7889 203.714 98.6904 203.724 101.138C203.734 106.038 203.749 113.129 203.764 121.913C203.779 139.466 203.794 163.781 203.82 190.847L203.688 190.716C204.996 190.716 206.405 190.716 207.824 190.716L207.693 190.847V190.802C207.693 144.215 207.733 104.956 207.789 93.431L207.824 93.4664C206.41 93.4866 205.38 93.5018 204.698 93.5119C204.36 93.5119 204.112 93.5169 203.936 93.5169C203.769 93.5169 203.683 93.5169 203.683 93.5169L203.673 93.522Z" fill="#263238"/>
<path d="M215.697 87.7417H110.934V93.6586H215.697V87.7417Z" fill="#263238"/>
</g>
<defs>
<clipPath id="clip0_1153_39786">
<rect width="229.598" height="211" fill="white" transform="translate(0.0742188 0.112061)"/>
</clipPath>
</defs>
</svg>
