<svg width="297" height="204" viewBox="0 0 297 204" fill="none" xmlns="http://www.w3.org/2000/svg">
<path d="M63.4028 112.413C60.7246 113.979 59.031 117.014 59.3895 120.345C63.58 159.271 94.5 190.191 133.426 194.382C136.637 194.727 139.573 193.165 141.183 190.653C99.8175 186.905 66.9138 153.847 63.4028 112.413Z" fill="#F97E03"/>
<path d="M234.677 112.413C231.166 153.847 198.262 186.904 156.896 190.653C158.507 193.165 161.443 194.727 164.653 194.382C203.58 190.191 234.5 159.271 238.69 120.345C239.049 117.015 237.355 113.979 234.677 112.413Z" fill="#1D6C86"/>
<path d="M141.183 19.4653C139.573 16.9532 136.637 15.3913 133.426 15.7369C94.5 19.9274 63.58 50.8475 59.3895 89.7737C59.031 93.1041 60.7247 96.1394 63.4028 97.7057C66.9138 56.2717 99.8175 23.2142 141.183 19.4653Z" fill="#1D6C86"/>
<path d="M234.677 97.7057C237.355 96.1394 239.049 93.1042 238.69 89.7738C234.5 50.8474 203.58 19.9274 164.653 15.7369C161.443 15.3913 158.507 16.9532 156.896 19.4653C198.262 23.2142 231.166 56.2717 234.677 97.7057Z" fill="#1D6C86"/>
<path d="M142.473 119.488C142.473 114.965 138.806 111.298 134.283 111.298H67.5347C66.0219 111.298 64.6118 111.706 63.4023 112.413C66.9133 153.847 99.817 186.904 141.183 190.653C141.997 189.383 142.473 187.869 142.473 186.236V119.488Z" fill="#FA931D"/>
<path d="M234.678 112.413C233.469 111.706 232.059 111.298 230.546 111.298H163.798C159.274 111.298 155.607 114.965 155.607 119.488V186.236C155.607 187.869 156.083 189.383 156.898 190.653C198.264 186.904 231.167 153.847 234.678 112.413Z" fill="#97BBC7"/>
<path d="M134.283 98.821C138.806 98.821 142.473 95.1541 142.473 90.6307V23.8825C142.473 22.2493 141.997 20.7359 141.183 19.4653C99.8171 23.2142 66.9133 56.2717 63.4023 97.7057C64.6118 98.4131 66.022 98.821 67.5347 98.821H134.283Z" fill="#97BBC7"/>
<path d="M155.607 90.6307C155.607 95.1541 159.274 98.821 163.798 98.821H230.546C232.059 98.821 233.469 98.4131 234.678 97.7057C231.167 56.2717 198.264 23.2142 156.898 19.4653C156.083 20.7359 155.607 22.2493 155.607 23.8825V90.6307Z" fill="#97BBC7"/>
<path d="M149.041 135.235C165.707 135.235 179.217 121.725 179.217 105.059C179.217 88.3936 165.707 74.8834 149.041 74.8834C132.375 74.8834 118.865 88.3936 118.865 105.059C118.865 121.725 132.375 135.235 149.041 135.235Z" fill="#F4F4F4"/>
<path fill-rule="evenodd" clip-rule="evenodd" d="M252.707 33.161L245.723 40.1451C245.464 40.4043 245.073 40.4826 244.735 40.3417C244.398 40.2016 244.176 39.871 244.176 39.5048C244.176 39.5048 244.176 23.3444 244.176 15.9419C244.176 14.7405 244.654 13.5878 245.503 12.7379C246.353 11.8879 247.506 11.4112 248.707 11.4112H275.894C278.398 11.4112 280.426 13.4399 280.426 15.9419V28.6294C280.426 29.8317 279.949 30.9844 279.099 31.8335C278.248 32.6834 277.096 33.161 275.894 33.161H252.707ZM245.988 37.3168L251.692 31.6143C251.86 31.4437 252.093 31.3481 252.333 31.3481H275.894C276.615 31.3481 277.307 31.0618 277.817 30.552C278.326 30.0422 278.614 29.3506 278.614 28.6294C278.614 25.0295 278.614 19.5418 278.614 15.9419C278.614 14.4404 277.396 13.2233 275.894 13.2233H248.707C247.986 13.2233 247.294 13.5095 246.785 14.0193C246.275 14.53 245.988 15.2207 245.988 15.9419V37.3168Z" fill="#1D6C86"/>
<path fill-rule="evenodd" clip-rule="evenodd" d="M289.483 44.5668V23.1919C289.483 22.4707 289.195 21.78 288.686 21.2693C288.177 20.7595 287.484 20.4733 286.763 20.4733H283.138C282.639 20.4733 282.232 20.067 282.232 19.5668C282.232 19.0666 282.639 18.6612 283.138 18.6612H286.763C287.965 18.6612 289.117 19.1379 289.968 19.9879C290.816 20.8378 291.295 21.9905 291.295 23.1919V46.7548C291.295 47.121 291.073 47.4516 290.736 47.5917C290.397 47.7326 290.007 47.6543 289.748 47.3951L282.764 40.411H259.576C258.375 40.411 257.222 39.9334 256.372 39.0835C255.521 38.2344 255.045 37.0817 255.045 35.8794C255.045 35.3792 255.452 34.9738 255.951 34.9738C256.45 34.9738 256.857 35.3792 256.857 35.8794C256.857 36.6006 257.144 37.2922 257.654 37.802C258.163 38.3118 258.855 38.5981 259.576 38.5981H283.138C283.378 38.5981 283.61 38.6937 283.779 38.8643L289.483 44.5668Z" fill="#1D6C86"/>
<path fill-rule="evenodd" clip-rule="evenodd" d="M271.361 19.5667C269.861 19.5667 268.643 20.7849 268.643 22.2854C268.643 23.7859 269.861 25.0041 271.361 25.0041C272.862 25.0041 274.08 23.7859 274.08 22.2854C274.08 20.7849 272.862 19.5667 271.361 19.5667ZM271.361 21.3791C271.862 21.3791 272.268 21.7851 272.268 22.2854C272.268 22.7856 271.862 23.1916 271.361 23.1916C270.861 23.1916 270.455 22.7856 270.455 22.2854C270.455 21.7851 270.861 21.3791 271.361 21.3791Z" fill="#1D6C86"/>
<path fill-rule="evenodd" clip-rule="evenodd" d="M262.299 19.5667C260.798 19.5667 259.58 20.7849 259.58 22.2854C259.58 23.7859 260.798 25.0041 262.299 25.0041C263.799 25.0041 265.018 23.7859 265.018 22.2854C265.018 20.7849 263.799 19.5667 262.299 19.5667ZM262.299 21.3791C262.799 21.3791 263.205 21.7851 263.205 22.2854C263.205 22.7856 262.799 23.1916 262.299 23.1916C261.799 23.1916 261.393 22.7856 261.393 22.2854C261.393 21.7851 261.799 21.3791 262.299 21.3791Z" fill="#1D6C86"/>
<path fill-rule="evenodd" clip-rule="evenodd" d="M253.236 19.5667C251.736 19.5667 250.518 20.7849 250.518 22.2854C250.518 23.7859 251.736 25.0041 253.236 25.0041C254.737 25.0041 255.955 23.7859 255.955 22.2854C255.955 20.7849 254.737 19.5667 253.236 19.5667ZM253.236 21.3791C253.737 21.3791 254.143 21.7851 254.143 22.2854C254.143 22.7856 253.737 23.1916 253.236 23.1916C252.736 23.1916 252.33 22.7856 252.33 22.2854C252.33 21.7851 252.736 21.3791 253.236 21.3791Z" fill="#1D6C86"/>
<path d="M247.02 172.314L254.687 180.147C254.864 180.334 255.075 180.484 255.309 180.586C255.543 180.689 255.794 180.743 256.049 180.745C256.303 180.747 256.556 180.698 256.791 180.599C257.027 180.501 257.241 180.355 257.421 180.172C257.601 179.988 257.743 179.769 257.839 179.528C257.936 179.288 257.984 179.03 257.982 178.77C257.98 178.51 257.927 178.253 257.827 178.014C257.726 177.775 257.58 177.559 257.397 177.378L251.085 170.929L257.397 164.481C257.58 164.3 257.726 164.084 257.827 163.845C257.927 163.606 257.98 163.349 257.982 163.089C257.984 162.829 257.936 162.571 257.839 162.33C257.743 162.09 257.601 161.871 257.421 161.687C257.241 161.503 257.027 161.358 256.791 161.26C256.556 161.161 256.303 161.112 256.049 161.114C255.794 161.116 255.543 161.17 255.309 161.273C255.075 161.375 254.864 161.525 254.687 161.712L247.02 169.545C246.661 169.912 246.459 170.41 246.459 170.929C246.459 171.449 246.661 171.947 247.02 172.314Z" fill="#1D6C86"/>
<path d="M280.397 161.712C280.22 161.525 280.009 161.375 279.775 161.273C279.541 161.17 279.289 161.116 279.035 161.114C278.78 161.112 278.528 161.161 278.292 161.26C278.057 161.358 277.843 161.503 277.663 161.687C277.483 161.871 277.341 162.09 277.244 162.33C277.148 162.571 277.099 162.829 277.102 163.089C277.104 163.349 277.157 163.606 277.257 163.845C277.358 164.084 277.504 164.3 277.687 164.481L283.998 170.929L277.687 177.378C277.504 177.559 277.358 177.775 277.257 178.014C277.157 178.253 277.104 178.51 277.102 178.77C277.099 179.03 277.148 179.288 277.244 179.528C277.341 179.769 277.483 179.988 277.663 180.172C277.843 180.355 278.057 180.501 278.292 180.599C278.528 180.698 278.78 180.747 279.035 180.745C279.289 180.743 279.541 180.689 279.775 180.586C280.009 180.484 280.22 180.334 280.397 180.147L288.064 172.314C288.423 171.947 288.625 171.449 288.625 170.929C288.625 170.41 288.423 169.912 288.064 169.545L280.397 161.712Z" fill="#1D6C86"/>
<path d="M269.533 156.685L261.867 184.101C261.727 184.6 261.787 185.136 262.034 185.59C262.28 186.043 262.693 186.379 263.182 186.522C263.353 186.57 263.53 186.595 263.709 186.596C264.125 186.596 264.53 186.457 264.863 186.2C265.195 185.944 265.436 185.584 265.551 185.174L273.217 157.758C273.297 157.507 273.327 157.243 273.304 156.981C273.282 156.718 273.208 156.463 273.087 156.231C272.966 155.998 272.8 155.793 272.6 155.628C272.399 155.462 272.168 155.34 271.921 155.267C271.673 155.195 271.413 155.175 271.157 155.207C270.902 155.24 270.655 155.325 270.432 155.457C270.209 155.59 270.015 155.767 269.86 155.977C269.706 156.188 269.595 156.429 269.533 156.685Z" fill="#1D6C86"/>
<path d="M29.272 149.056C22.6971 149.056 16.7349 151.769 12.404 156.15C12.3852 156.167 12.3613 156.173 12.3436 156.191C12.3259 156.209 12.3202 156.233 12.3037 156.252C7.99849 160.659 5.33203 166.726 5.33203 173.416C5.33203 179.301 7.42108 184.98 11.2167 189.412C11.6784 189.953 12.4787 190.011 13.0116 189.551L18.0145 185.239C18.5634 184.768 18.6233 183.927 18.1479 183.38C15.763 180.627 14.4509 177.087 14.4509 173.415C14.4509 165.099 21.0988 158.335 29.2715 158.335C32.6732 158.335 35.998 159.538 38.6297 161.72C39.939 162.807 41.5652 160.788 40.2497 159.698C37.4937 157.411 34.0908 156.049 30.554 155.782V151.731C41.7431 152.412 50.647 161.863 50.647 173.416C50.647 178.232 49.079 182.898 46.2067 186.689L43.1527 184.068C45.4218 181.01 46.6576 177.276 46.6576 173.416C46.6576 171.7 46.4154 170 45.9377 168.364C45.4486 166.698 43.0005 167.469 43.4793 169.108C43.8851 170.501 44.092 171.951 44.092 173.416C44.092 177.086 42.781 180.624 40.3996 183.375C39.927 183.918 39.9801 184.76 40.5347 185.236L45.5461 189.536C46.0808 189.997 46.8822 189.933 47.3393 189.395C51.1264 184.967 53.212 179.292 53.212 173.416C53.212 159.984 42.4727 149.056 29.272 149.056ZM17.9347 160.033L15.1149 157.164C18.5891 154.027 23.063 152.031 27.9895 151.731V155.791C24.1608 156.078 20.6776 157.624 17.9347 160.033ZM15.3982 184.075L12.3487 186.704C9.73072 183.253 8.20711 179.075 7.95004 174.721H11.9389C12.1851 178.114 13.3827 181.361 15.3982 184.075ZM11.9514 172.111H7.96201C8.2567 167.097 10.2181 162.545 13.3012 159.01L16.121 161.878C13.7526 164.669 12.233 168.214 11.9514 172.111Z" fill="#1D6C86"/>
<path d="M32.1732 180.058C33.3805 178.828 43.3703 165.499 44.5057 163.983C45.3835 162.811 43.9591 161.294 42.7741 162.108C40.1988 163.853 27.2889 172.626 26.0782 173.858C24.3984 175.567 24.3984 178.349 26.0782 180.058C27.7546 181.764 30.4894 181.771 32.1732 180.058ZM27.8914 175.703C28.4523 175.14 33.0145 171.943 37.7239 168.7C34.2571 173.285 30.9192 177.642 30.3595 178.212C28.7276 179.874 26.2589 177.364 27.8914 175.703Z" fill="#1D6C86"/>
<path d="M24.8571 187.118H33.6841C35.3816 187.118 35.3816 184.508 33.6841 184.508H24.8571C23.1596 184.508 23.1596 187.118 24.8571 187.118Z" fill="#1D6C86"/>
<path d="M40.0669 189.453H18.4782C16.7807 189.453 16.7807 192.063 18.4782 192.063H40.0669C41.7638 192.063 41.7638 189.453 40.0669 189.453Z" fill="#1D6C86"/>
<g clip-path="url(#clip0_1473_9358)">
<path d="M24.7615 11.5593H15.8049C13.3181 11.5593 11.2949 13.5825 11.2949 16.0693V25.0259C11.2949 27.5127 13.3181 29.5359 15.8049 29.5359H24.7615C27.2483 29.5359 29.2715 27.5127 29.2715 25.0259V16.0693C29.2715 13.5825 27.2483 11.5593 24.7615 11.5593ZM26.2246 25.0259C26.2246 25.8326 25.5682 26.489 24.7615 26.489H15.8049C14.9982 26.489 14.3418 25.8326 14.3418 25.0259V16.0693C14.3418 15.2626 14.9982 14.6062 15.8049 14.6062H24.7615C25.5682 14.6062 26.2246 15.2626 26.2246 16.0693V25.0259Z" fill="#1D6C86"/>
<path d="M45.7246 11.5593H36.8887C34.3686 11.5593 32.3184 13.6096 32.3184 16.1296V24.9656C32.3184 27.4856 34.3686 29.5359 36.8887 29.5359H45.7246C48.2447 29.5359 50.2949 27.4856 50.2949 24.9656V16.1296C50.2949 13.6096 48.2447 11.5593 45.7246 11.5593ZM47.248 24.9656C47.248 25.8056 46.5646 26.489 45.7246 26.489H36.8887C36.0486 26.489 35.3652 25.8056 35.3652 24.9656V16.1296C35.3652 15.2896 36.0486 14.6062 36.8887 14.6062H45.7246C46.5646 14.6062 47.248 15.2896 47.248 16.1296V24.9656Z" fill="#1D6C86"/>
<path d="M24.7615 32.5828H15.8049C13.3181 32.5828 11.2949 34.606 11.2949 37.0927V46.0493C11.2949 48.5361 13.3181 50.5593 15.8049 50.5593H24.7615C27.2483 50.5593 29.2715 48.5361 29.2715 46.0493V37.0927C29.2715 34.606 27.2483 32.5828 24.7615 32.5828ZM26.2246 46.0493C26.2246 46.8561 25.5682 47.5125 24.7615 47.5125H15.8049C14.9982 47.5125 14.3418 46.8561 14.3418 46.0493V37.0927C14.3418 36.286 14.9982 35.6296 15.8049 35.6296H24.7615C25.5682 35.6296 26.2246 36.286 26.2246 37.0927V46.0493Z" fill="#1D6C86"/>
<path d="M45.7246 32.5828H36.8887C34.3686 32.5828 32.3184 34.633 32.3184 37.1531V45.989C32.3184 48.5091 34.3686 50.5593 36.8887 50.5593H45.7246C48.2447 50.5593 50.2949 48.5091 50.2949 45.989V37.1531C50.2949 34.633 48.2447 32.5828 45.7246 32.5828ZM47.248 45.989C47.248 46.829 46.5646 47.5125 45.7246 47.5125H36.8887C36.0486 47.5125 35.3652 46.829 35.3652 45.989V37.1531C35.3652 36.3131 36.0486 35.6296 36.8887 35.6296H45.7246C46.5646 35.6296 47.248 36.3131 47.248 37.1531V45.989Z" fill="#1D6C86"/>
</g>
<defs>
<clipPath id="clip0_1473_9358">
<rect width="39" height="39" fill="white" transform="translate(11.2949 11.5593)"/>
</clipPath>
</defs>
</svg>
