<svg width="51" height="51" viewBox="0 0 51 51" fill="none" xmlns="http://www.w3.org/2000/svg">
<g clip-path="url(#clip0_1500_11614)">
<path d="M50.332 6.75V3.625H47.207V0.5H44.082V4.54023L39.2004 9.42188C34.9284 5.68477 29.4454 3.62496 23.7695 3.62496C18.0937 3.62496 12.6106 5.68477 8.33867 9.42188L6.58203 7.66533V3.625H3.45703V6.75H0.332031V9.875H4.37236L6.129 11.6316C3.16474 15.0205 1.23929 19.1914 0.58291 23.6456C-0.0734691 28.0999 0.567 32.6489 2.42773 36.7488C4.28846 40.8486 7.29069 44.3257 11.0754 46.7644C14.8602 49.203 19.2672 50.4999 23.7695 50.5C28.2719 50.4999 32.6789 49.203 36.4637 46.7644C40.2484 44.3258 43.2507 40.8487 45.1114 36.7488C46.9722 32.6489 47.6126 28.0999 46.9563 23.6457C46.2999 19.1914 44.3744 15.0205 41.4102 11.6316L46.2918 6.75H50.332ZM23.7695 6.75C28.6166 6.74576 33.304 8.48257 36.9781 11.6441L33.6523 14.9696C30.8651 12.6856 27.3727 11.4375 23.7692 11.4375C20.1656 11.4375 16.6733 12.6856 13.886 14.9696L10.5605 11.6441C14.2348 8.48258 18.9223 6.74577 23.7695 6.75ZM28.457 27.0625C28.4572 27.7662 28.299 28.4609 27.9941 29.095C27.6892 29.7292 27.2454 30.2866 26.6957 30.7259C26.146 31.1651 25.5044 31.475 24.8186 31.6325C24.1328 31.79 23.4203 31.791 22.734 31.6356C22.0477 31.4801 21.4053 31.1722 20.8542 30.7345C20.3032 30.2969 19.8578 29.7408 19.551 29.1075C19.2442 28.4743 19.0839 27.7801 19.082 27.0764C19.0802 26.3727 19.2367 25.6777 19.5401 25.0428L22.6651 28.1673L23.7695 27.0625L24.8744 28.1674L27.9994 25.0424C28.3016 25.6729 28.458 26.3633 28.457 27.0625ZM23.7695 24.8528L21.7498 22.8331C22.3804 22.5315 23.0705 22.375 23.7695 22.375C24.4685 22.375 25.1586 22.5315 25.7892 22.8331L23.7695 24.8528ZM28.0746 20.5477C26.7983 19.7014 25.3009 19.25 23.7695 19.25C22.2381 19.25 20.7407 19.7014 19.4644 20.5477L16.1088 17.1921C18.2988 15.4878 20.9945 14.5625 23.7695 14.5625C26.5445 14.5625 29.2402 15.4878 31.4302 17.1921L28.0746 20.5477ZM17.2543 22.7573C16.4751 23.9347 16.0295 25.3011 15.9648 26.7115C15.9002 28.1219 16.219 29.5234 16.8872 30.7671C17.5555 32.0107 18.5483 33.0501 19.7601 33.7746C20.9718 34.4991 22.3573 34.8817 23.7691 34.8817C25.181 34.8817 26.5664 34.4991 27.7782 33.7746C28.99 33.0501 29.9828 32.0107 30.6511 30.7671C31.3193 29.5234 31.6381 28.1219 31.5735 26.7115C31.5088 25.3011 31.0632 23.9347 30.284 22.7573L33.6395 19.4018C35.075 21.2491 35.9633 23.4623 36.2032 25.7895C36.4432 28.1167 36.0252 30.4646 34.9968 32.566C33.9685 34.6674 32.371 36.438 30.3861 37.6765C28.4013 38.9149 26.1087 39.5715 23.7691 39.5715C21.4296 39.5715 19.137 38.9149 17.1521 37.6765C15.1673 36.438 13.5698 34.6674 12.5415 32.566C11.5131 30.4646 11.0951 28.1167 11.3351 25.7895C11.575 23.4623 12.4632 21.2491 13.8987 19.4018L17.2543 22.7573ZM44.082 27.0625C44.082 38.2628 34.9698 47.375 23.7695 47.375C12.5692 47.375 3.45703 38.2628 3.45703 27.0625C3.45288 22.2154 5.18967 17.528 8.35117 13.8538L11.6767 17.1797C9.38974 19.9652 8.14123 23.4585 8.14453 27.0625C8.14453 35.6781 15.1539 42.6875 23.7695 42.6875C32.3852 42.6875 39.3945 35.6781 39.3945 27.0625C39.3979 23.4585 38.1494 19.9652 35.8624 17.1797L39.1879 13.8542C42.3494 17.5282 44.0862 22.2155 44.082 27.0625Z" fill="#1D6C86"/>
</g>
<defs>
<clipPath id="clip0_1500_11614">
<rect width="50" height="50" fill="white" transform="translate(0.332031 0.5)"/>
</clipPath>
</defs>
</svg>
