<svg width="51" height="51" viewBox="0 0 51 51" fill="none" xmlns="http://www.w3.org/2000/svg">
<g clip-path="url(#clip0_1500_11659)">
<path d="M45.405 11.0123C49.2364 7.19611 46.4891 0.487226 41.0221 0.500019C35.5553 0.487128 32.8077 7.19719 36.6394 11.0123C36.3437 11.1708 36.0574 11.3446 35.7818 11.5331C29.6766 7.29767 20.9876 7.29777 14.8824 11.5331C14.6068 11.3447 14.3206 11.1708 14.0249 11.0123C17.8562 7.19611 15.1089 0.487226 9.64189 0.500019C4.1751 0.487128 1.42744 7.19719 5.25918 11.0123C2.32939 12.5823 0.332031 15.6741 0.332031 19.2239V22.3619C0.332031 23.1709 0.987891 23.8268 1.79688 23.8268H6.88887C5.43398 31.5442 9.42148 39.8095 16.3377 43.4922C16.1323 44.2597 16.0222 45.0657 16.0222 45.8971V49.0352C16.0222 49.8442 16.678 50.5 17.487 50.5H33.1772C33.9861 50.5 34.642 49.8442 34.642 49.0352V45.8972C34.642 45.0658 34.5318 44.2598 34.3265 43.4923C41.243 39.8093 45.2301 31.5443 43.7753 23.8269H48.8672C49.6762 23.8269 50.332 23.171 50.332 22.362V19.224C50.332 15.6741 48.3347 12.5823 45.405 11.0123ZM41.0222 3.42971C42.81 3.42971 44.2644 4.8842 44.2644 6.67189C44.0863 10.9731 37.9574 10.9718 37.78 6.67189C37.78 4.8841 39.2344 3.42971 41.0222 3.42971ZM9.64189 3.42971C11.4296 3.42971 12.8841 4.8842 12.8841 6.67189C12.706 10.9731 6.57715 10.9718 6.39971 6.67189C6.39971 4.8841 7.8542 3.42971 9.64189 3.42971ZM3.26172 20.8972V19.224C3.61318 10.7577 15.6738 10.7643 16.0222 19.224V20.8972H3.26172ZM31.7122 47.5703H18.9519V45.8972C19.3033 37.4309 31.364 37.4374 31.7123 45.8972V47.5703H31.7122ZM22.0898 33.345C22.0898 31.5572 23.5443 30.1028 25.332 30.1028C29.6332 30.281 29.632 36.4098 25.332 36.5872C23.5442 36.5872 22.0898 35.1328 22.0898 33.345ZM33.1227 40.8061C32.2678 39.5023 31.0949 38.4251 29.7149 37.6856C33.5465 33.8694 30.799 27.1604 25.332 27.1733C19.8652 27.1604 17.1176 33.8704 20.9493 37.6856C19.5693 38.4251 18.3965 39.5024 17.5416 40.8061C11.665 37.5281 8.42568 30.4491 9.87168 23.8269H17.4871C18.2961 23.8269 18.952 23.171 18.952 22.362V19.224C18.952 17.1175 18.2483 15.1725 17.0643 13.6107C21.966 10.5067 28.6984 10.5068 33.6001 13.6107C32.416 15.1725 31.7124 17.1175 31.7124 19.224V22.362C31.7124 23.171 32.3683 23.8269 33.1772 23.8269H40.7927C42.2384 30.4497 38.9993 37.5277 33.1227 40.8061ZM47.4023 20.8972H34.6419V19.224C34.9934 10.7577 47.054 10.7643 47.4023 19.224V20.8972Z" fill="#1D6C86"/>
</g>
<defs>
<clipPath id="clip0_1500_11659">
<rect width="50" height="50" fill="white" transform="translate(0.332031 0.5)"/>
</clipPath>
</defs>
</svg>
