<svg width="50" height="49" viewBox="0 0 50 49" fill="none" xmlns="http://www.w3.org/2000/svg">
<path d="M48.8995 33.8599L44.2351 22.476C43.7226 21.2252 42.288 20.6245 41.0377 21.1371L38.8543 22.0317C37.8286 22.452 37.2407 23.4925 37.345 24.5431L36.4182 25.072C34.9887 25.8878 32.5954 26.0695 30.8507 25.4946C28.8579 24.8376 26.7494 25.0632 24.5701 26.1626C22.3921 25.063 20.2812 24.8378 18.2885 25.4946C16.5441 26.0696 14.1504 25.8877 12.721 25.072L11.9789 24.6485C12.1348 23.5627 11.5422 22.466 10.482 22.0316L8.2988 21.137C7.69392 20.8892 7.0277 20.8922 6.42321 21.1453C5.81852 21.3985 5.34899 21.871 5.10124 22.4759L0.436982 33.8599C-0.0755182 35.1107 0.525068 36.5451 1.77585 37.0575L3.95905 37.952C4.26218 38.0762 4.57614 38.1351 4.88513 38.1351C5.47224 38.1351 6.04079 37.9217 6.48415 37.5423C8.54743 38.6864 9.75661 39.5726 11.3685 40.7542C12.0405 41.2468 12.8022 41.8052 13.7168 42.4483C13.8876 42.5684 14.0836 42.6261 14.2776 42.6261C14.5848 42.6261 14.8872 42.4816 15.0772 42.2112C15.3875 41.77 15.2813 41.1609 14.8401 40.8506C13.9413 40.2185 13.1879 39.6662 12.5231 39.179C10.8602 37.96 9.61042 37.0441 7.46745 35.8542L11.2967 26.5079L11.7526 26.7681C13.6731 27.8644 16.612 28.1034 18.8998 27.3494C20.0429 26.9725 21.2264 26.9896 22.4838 27.4018L17.414 30.5626C16.7294 30.9895 16.325 31.6321 16.2753 32.3719C16.2222 33.1629 16.6034 33.9974 17.2702 34.5495C19.4971 36.3936 21.5087 35.4108 23.2835 34.5436C24.3168 34.0388 25.3852 33.5167 26.5268 33.5101H26.5507C27.792 33.5101 28.7825 34.0831 29.9282 34.7459L35.7615 38.1139C36.077 38.3466 36.1396 38.4714 36.2469 38.7468C36.2963 38.9756 36.2607 39.2159 36.1472 39.4124C36.0238 39.6261 35.8227 39.7794 35.5809 39.8443C35.3388 39.9089 35.0881 39.8768 34.8745 39.7534L33.7424 39.0997C33.7424 39.0997 33.7422 39.0996 33.742 39.0995H33.7418L29.8635 36.8605C29.3964 36.5908 28.7992 36.7508 28.5296 37.2179C28.2598 37.685 28.4199 38.2822 28.887 38.5519L32.7656 40.7912C33.2028 41.0437 33.359 41.6266 33.1065 42.0639C32.8496 42.5087 32.2788 42.6619 31.8337 42.4049L26.7595 39.4752C26.2924 39.2055 25.6953 39.3657 25.4256 39.8327C25.1558 40.2996 25.3159 40.8969 25.783 41.1666L29.7755 43.4718C29.9619 43.5795 30.0959 43.7556 30.1527 43.9678C30.2095 44.1801 30.1816 44.3996 30.074 44.586C29.8491 44.9755 29.3492 45.1093 28.9597 44.8846L27.4336 44.0035C27.4327 44.003 27.4318 44.0024 27.4309 44.0019C27.4305 44.0016 27.43 44.0015 27.4297 44.0012L23.903 41.965C23.4358 41.6953 22.8387 41.8554 22.569 42.3224C22.2993 42.7895 22.4593 43.3867 22.9264 43.6564L26.4556 45.694C27.0702 46.0497 26.7898 46.5765 26.7558 46.6354C26.5227 47.0393 26.0216 47.0714 25.4154 46.7214C25.3925 46.7081 25.3689 46.6958 25.345 46.6845L23.3841 45.756C21.4493 44.84 19.376 43.7236 17.5462 42.6123C17.0849 42.3322 16.4844 42.4791 16.2047 42.9401C15.9247 43.4011 16.0715 44.0017 16.5324 44.2816C18.4181 45.4268 20.5546 46.5773 22.5482 47.5212L24.4755 48.4337C25.0659 48.7672 25.6381 48.9119 26.1621 48.9119C27.1751 48.9119 28.0085 48.3718 28.4471 47.6119C28.5783 47.3848 28.6758 47.1344 28.7354 46.8726C28.943 46.9211 29.1534 46.9463 29.3628 46.9463C30.3204 46.9463 31.2531 46.4496 31.7654 45.5624C31.9608 45.224 32.0792 44.8551 32.1193 44.4765C32.1778 44.48 32.2362 44.4821 32.2946 44.4821C33.2924 44.4821 34.2641 43.9646 34.7978 43.0401C35.0197 42.6557 35.1425 42.2411 35.1748 41.8255C35.2269 41.8284 35.2792 41.8306 35.3316 41.8306C35.5831 41.8306 35.8365 41.7975 36.0863 41.7306C36.8321 41.5307 37.4545 41.0541 37.8385 40.3887C38.0658 39.9951 38.1931 39.5489 38.2162 39.0952L42.6516 37.3497C43.1158 37.849 43.7709 38.1347 44.4509 38.1346C44.7599 38.1346 45.0741 38.0758 45.3771 37.9516L47.5603 37.0571C48.8109 36.5448 49.4116 35.1103 48.8992 33.8595L48.8995 33.8599ZM4.69958 36.1448L2.51638 35.2502C2.35153 35.1828 2.27683 35.0527 2.24685 34.9812C2.21686 34.9097 2.17673 34.7651 2.24431 34.6003L6.90856 23.2164C6.98757 23.0239 7.17399 22.9072 7.37028 22.9072C7.43308 22.9072 7.49694 22.9191 7.55856 22.9443L9.74167 23.8388C9.99597 23.9429 10.118 24.2345 10.0138 24.4886L5.34958 35.8725C5.24538 36.1267 4.95349 36.2485 4.69968 36.1447L4.69958 36.1448ZM31.0486 33.1376L30.9065 33.0554C29.633 32.3187 28.3166 31.557 26.5518 31.557C26.5398 31.557 26.5275 31.557 26.5155 31.557C24.9285 31.5663 23.5992 32.2158 22.4263 32.7887C20.634 33.6645 19.7188 34.0412 18.5161 33.0452C18.333 32.8935 18.213 32.6704 18.2242 32.5027C18.2269 32.4617 18.2343 32.3529 18.4476 32.2199L24.5793 28.3969C26.6361 27.1145 28.4875 26.7719 30.2393 27.3493C32.5266 28.1033 35.4656 27.8641 37.3864 26.768L38.0022 26.4165L41.7649 35.6L37.6322 37.2264C37.4572 36.9968 37.2164 36.7539 36.8651 36.5012C36.8386 36.4822 36.8113 36.4645 36.7831 36.4482L31.0487 33.1375L31.0486 33.1376ZM46.8202 35.2502L44.637 36.1447C44.3829 36.2489 44.0913 36.1268 43.9871 35.8727L39.3228 24.4887C39.2187 24.2344 39.3408 23.943 39.5948 23.8389L41.7781 22.9444C41.8397 22.9192 41.9035 22.9073 41.9664 22.9073C42.1627 22.9073 42.349 23.024 42.428 23.2165L47.0923 34.6003C47.1964 34.8546 47.0744 35.1462 46.8203 35.2503L46.8202 35.2502ZM19.5881 11.7483C19.3183 11.2812 19.4784 10.6839 19.9455 10.4143C20.4126 10.1446 21.0098 10.3047 21.2795 10.7717L22.8644 13.5169L28.2122 8.16918C28.5937 7.78783 29.2119 7.78793 29.5933 8.16918C29.9747 8.55053 29.9747 9.16888 29.5933 9.55023L23.3456 15.7979C23.1612 15.9822 22.9123 16.0839 22.6551 16.0839C22.6127 16.0839 22.5702 16.0812 22.5275 16.0756C22.2265 16.036 21.9611 15.8586 21.8093 15.5956L19.5881 11.7483ZM12.4258 11.903C12.1669 11.903 11.9185 12.0059 11.7353 12.189L7.96862 15.9557H6.4446C6.03171 14.6829 4.83522 13.7599 3.42663 13.7599C1.67741 13.7599 0.254267 15.183 0.254267 16.9323C0.254267 18.6815 1.67741 20.1046 3.42663 20.1046C4.83522 20.1046 6.03171 19.1816 6.4446 17.9088H8.37321C8.6322 17.9088 8.88054 17.8059 9.06374 17.6228L12.8303 13.8561H14.8092C14.8253 15.0534 15.1259 16.1307 15.7289 17.1459C17.1926 19.6107 20.468 21.5524 23.3579 23.2655C23.63 23.4268 23.897 23.5851 24.1568 23.7406C24.3112 23.8329 24.4846 23.8791 24.6583 23.8791C24.8342 23.8791 25.01 23.8317 25.1658 23.7369C25.5758 23.4873 25.9882 23.2413 26.4005 22.9953C26.8768 22.7111 27.3693 22.4171 27.8527 22.121C30.4903 20.5054 34.4649 18.0701 34.5274 13.8561H36.5062L40.2729 17.6228C40.4561 17.8059 40.7045 17.9088 40.9634 17.9088H42.8921C43.305 19.1816 44.5014 20.1046 45.91 20.1046C47.6592 20.1046 49.0824 18.6815 49.0824 16.9323C49.0824 15.183 47.6592 13.7599 45.91 13.7599C44.5014 13.7599 43.305 14.6829 42.8921 15.9557H41.3679L37.6013 12.189C37.4181 12.0059 37.1698 11.903 36.9108 11.903H34.5289V9.55892H40.4753C40.7342 9.55892 40.9826 9.45599 41.1658 9.27289L44.0008 6.43793C44.434 6.66019 44.9241 6.78646 45.4435 6.78646C47.1927 6.78646 48.6159 5.36332 48.6159 3.6141C48.6159 1.86488 47.1927 0.441736 45.4435 0.441736C43.6943 0.441736 42.2712 1.86488 42.2712 3.6141C42.2712 4.13353 42.3974 4.62367 42.6197 5.05687L40.0708 7.6058H34.529V4.91879C34.529 4.52963 34.2978 4.17748 33.9408 4.02279L25.0465 0.168494C24.7983 0.0608766 24.5169 0.0610719 24.2691 0.168787L15.3952 4.02299C15.0384 4.17797 14.8076 4.52982 14.8076 4.91869V7.6057H9.26589L6.71696 5.05678C6.93923 4.62357 7.0655 4.13344 7.0655 3.614C7.0655 1.86469 5.64235 0.441638 3.89313 0.441638C2.14392 0.441638 0.720771 1.86478 0.720771 3.6141C0.720771 5.36342 2.14392 6.78646 3.89313 6.78646C4.41257 6.78646 4.9027 6.66019 5.33591 6.43793L8.17087 9.27289C8.35407 9.45599 8.60241 9.55892 8.8614 9.55892H14.8077V11.903H12.4258ZM3.42663 18.1515C2.75427 18.1515 2.20739 17.6045 2.20739 16.9323C2.20739 16.26 2.75436 15.713 3.42663 15.713C4.0989 15.713 4.64587 16.26 4.64587 16.9323C4.64587 17.6045 4.0989 18.1515 3.42663 18.1515ZM45.9099 15.7129C46.5823 15.7129 47.1292 16.2599 47.1292 16.9322C47.1292 17.6044 46.5822 18.1514 45.9099 18.1514C45.2377 18.1514 44.6907 17.6044 44.6907 16.9322C44.6907 16.2599 45.2377 15.7129 45.9099 15.7129ZM45.4434 2.39476C46.1158 2.39476 46.6627 2.94174 46.6627 3.614C46.6627 4.28627 46.1157 4.83324 45.4434 4.83324C44.7712 4.83324 44.2242 4.28627 44.2242 3.614C44.2242 2.94174 44.7712 2.39476 45.4434 2.39476ZM3.89313 4.83324C3.22077 4.83324 2.6739 4.28627 2.6739 3.614C2.6739 2.94174 3.22087 2.39476 3.89313 2.39476C4.5654 2.39476 5.11237 2.94174 5.11237 3.614C5.11237 4.28627 4.5654 4.83324 3.89313 4.83324ZM16.7608 5.55931L24.6587 2.12904L32.5757 5.5599V13.7557C32.5757 16.6982 29.9746 18.5308 26.8323 20.4556C26.3586 20.7457 25.871 21.0368 25.3994 21.3182C25.1509 21.4664 24.9024 21.6148 24.6545 21.7637C24.555 21.7047 24.4547 21.6453 24.3538 21.5854C21.798 20.0704 18.6174 18.1847 17.408 16.1485C16.9665 15.405 16.7607 14.6447 16.7607 13.7557V5.55931H16.7608Z" fill="#1D6C86"/>
</svg>
