<svg width="51" height="51" viewBox="0 0 51 51" fill="none" xmlns="http://www.w3.org/2000/svg">
<mask id="mask0_1500_11637" style="mask-type:luminance" maskUnits="userSpaceOnUse" x="0" y="0" width="51" height="51">
<path d="M0.667969 0.500004H50.668V50.5H0.667969V0.500004Z" fill="white"/>
</mask>
<g mask="url(#mask0_1500_11637)">
<path d="M15.3164 17.6875C15.3164 20.1145 13.3489 22.082 10.9219 22.082C8.49477 22.082 6.52734 20.1145 6.52734 17.6875C6.52734 15.2605 8.49477 13.293 10.9219 13.293C13.3489 13.293 15.3164 15.2605 15.3164 17.6875ZM18.2461 17.6875C18.2461 13.6425 14.9669 10.3633 10.9219 10.3633C6.87672 10.3633 3.59766 13.6425 3.59766 17.6875C3.59766 21.7325 6.87672 25.0117 10.9219 25.0117C14.9669 25.0117 18.2461 21.7325 18.2461 17.6875Z" fill="#1D6C86"/>
<path d="M32.8945 13.7812C32.8945 16.2083 30.927 18.1758 28.5 18.1758C26.0729 18.1758 24.1055 16.2083 24.1055 13.7812C24.1055 11.3542 26.0729 9.38672 28.5 9.38672C30.927 9.38672 32.8945 11.3542 32.8945 13.7812ZM35.8242 13.7812C35.8242 9.7362 32.545 6.45703 28.5 6.45703C24.4548 6.45703 21.1758 9.73622 21.1758 13.7812C21.1758 17.8263 24.4548 21.1055 28.5 21.1055C32.545 21.1055 35.8242 17.8263 35.8242 13.7812Z" fill="#1D6C86"/>
<path d="M19.741 33.5386C20.5496 33.5147 21.1858 32.8399 21.162 32.0312C20.9991 26.5123 16.4848 22.082 10.9219 22.082C5.25877 22.082 0.667982 26.6728 0.667969 32.3359V43.0781C0.667969 43.8871 1.3238 44.543 2.13281 44.543C2.94182 44.543 3.59766 43.8871 3.59766 43.0781V32.3359C3.59767 28.2908 6.87679 25.0117 10.9219 25.0117C14.8906 25.0117 18.1171 28.1725 18.2336 32.1176C18.2574 32.9263 18.9323 33.5625 19.741 33.5386Z" fill="#1D6C86"/>
<path d="M14.0469 44.543L14.0832 44.5425C14.4585 44.5332 14.8165 44.3801 15.0827 44.114L25.7656 33.431L29.6126 37.278L29.6397 37.3044C30.2136 37.8499 31.1211 37.8411 31.6842 37.278L50.2389 18.7233C50.811 18.1513 50.811 17.2238 50.2389 16.6517C49.6668 16.0797 48.7394 16.0797 48.1673 16.6517L30.6484 34.1706L26.8014 30.3235C26.2294 29.7515 25.3019 29.7515 24.7298 30.3235L13.4401 41.6133H2.13281C1.3238 41.6133 0.667969 42.2691 0.667969 43.0781C0.667969 43.8871 1.3238 44.543 2.13281 44.543H14.0469Z" fill="#1D6C86"/>
<path d="M35.8242 28.9947L30.6484 34.1706L26.8014 30.3235C26.2294 29.7515 25.3019 29.7515 24.7298 30.3235L21.1758 33.8776V28.4296C21.1758 24.3845 24.4549 21.1054 28.5 21.1054C32.5451 21.1054 35.8242 24.3845 35.8242 28.4296V28.9947ZM38.7539 28.4296C38.7539 22.7665 34.1631 18.1757 28.5 18.1757C22.8369 18.1757 18.2461 22.7665 18.2461 28.4296V37.414C18.2461 38.0065 18.603 38.5406 19.1504 38.7674C19.6978 38.9941 20.3278 38.8688 20.7468 38.4499L25.7656 33.431L29.6127 37.278L29.6397 37.3044C30.2136 37.8499 31.1211 37.8411 31.6842 37.278L38.3249 30.6373C38.5996 30.3626 38.7539 29.99 38.7539 29.6015V28.4296Z" fill="#1D6C86"/>
<path d="M47.7383 23.5469C47.7383 24.3559 48.3941 25.0117 49.2031 25.0117C50.0121 25.0117 50.668 24.3559 50.668 23.5469V17.6875C50.668 16.8785 50.0121 16.2227 49.2031 16.2227H43.3438C42.5347 16.2227 41.8789 16.8785 41.8789 17.6875C41.8789 18.4965 42.5347 19.1523 43.3438 19.1523H47.7383V23.5469Z" fill="#1D6C86"/>
</g>
</svg>
