<svg width="50" height="50" viewBox="0 0 50 50" fill="none" xmlns="http://www.w3.org/2000/svg">
<g clip-path="url(#clip0_1500_11581)">
<mask id="mask0_1500_11581" style="mask-type:luminance" maskUnits="userSpaceOnUse" x="0" y="0" width="50" height="50">
<path d="M0 3.8147e-06H50V50H0V3.8147e-06Z" fill="white"/>
</mask>
<g mask="url(#mask0_1500_11581)">
<path d="M26.9531 5.85938C26.9531 6.93807 26.0787 7.81245 25 7.81245C23.9213 7.81244 23.0469 6.93807 23.0469 5.85938C23.0469 4.78067 23.9213 3.90624 25 3.90623C26.0787 3.90623 26.9531 4.78067 26.9531 5.85938ZM30.8594 5.85938C30.8594 2.62324 28.236 0 25 0C21.764 1.23978e-05 19.1406 2.62325 19.1406 5.85938C19.1406 9.09549 21.764 11.7187 25 11.7188C28.236 11.7188 30.8594 9.0955 30.8594 5.85938Z" fill="#1D6C86"/>
<path d="M14.1602 22.3632V31.0357C14.1602 33.458 15.4422 35.6996 17.5302 36.9278L17.5303 36.9278L17.6965 37.0256C18.5913 37.5521 19.1406 38.5127 19.1406 39.5508V48.0469C19.1406 49.1255 20.0151 50 21.0938 50C22.1725 50 23.0469 49.1255 23.0469 48.0469V39.5508C23.0469 37.1284 21.7648 34.8869 19.6769 33.6586L19.6768 33.6586L19.5106 33.5609L19.5107 33.5609C18.6159 33.0345 18.0665 32.0738 18.0665 31.0357V22.3632C18.0665 20.5382 18.7615 19.4437 19.8079 18.7247C20.9595 17.9335 22.7253 17.4805 24.9512 17.4805C27.1771 17.4805 28.9429 17.9335 30.0945 18.7247C31.1409 19.4437 31.836 20.5382 31.836 22.3632V31.0638C31.836 32.0928 31.296 33.0465 30.4136 33.5759L30.272 33.6609C28.213 34.8963 26.9531 37.1214 26.9531 39.5226V48.0469C26.9531 49.1255 27.8276 50 28.9063 50C29.985 50 30.8594 49.1255 30.8594 48.0469V39.5226C30.8594 38.4936 31.3993 37.54 32.2817 37.0105L32.4234 36.9256L32.5193 36.8669C34.5214 35.6206 35.7422 33.4274 35.7422 31.0638V22.3632C35.7422 19.3074 34.4588 16.9839 32.3066 15.5051C30.2595 14.0987 27.6064 13.5742 24.9512 13.5742C22.296 13.5742 19.6429 14.0986 17.5958 15.5051C15.4436 16.9839 14.1602 19.3074 14.1602 22.3632Z" fill="#1D6C86"/>
<path d="M11.7188 9.76562C11.7188 10.8443 10.8443 11.7187 9.76562 11.7187C8.68697 11.7187 7.81256 10.8443 7.81255 9.76562C7.81255 8.68692 8.68696 7.81249 9.76562 7.81248C10.8443 7.81248 11.7188 8.68692 11.7188 9.76562ZM15.625 9.76562C15.625 6.52949 13.0016 3.90625 9.76562 3.90625C6.52966 3.90626 3.90625 6.5295 3.90625 9.76562C3.90626 13.0017 6.52967 15.625 9.76562 15.625C13.0016 15.625 15.625 13.0017 15.625 9.76562Z" fill="#1D6C86"/>
<path d="M11.7188 41.2109V48.0469C11.7188 49.1255 12.5932 50 13.6719 50C14.7506 50 15.625 49.1255 15.625 48.0469V41.2109C15.625 40.1323 14.7506 39.2578 13.6719 39.2578C12.5932 39.2578 11.7188 40.1323 11.7188 41.2109Z" fill="#1D6C86"/>
<path d="M0 25.0977V33.3984C1.3704e-07 35.5501 1.01308 37.5762 2.73442 38.8672C3.47205 39.4204 3.9063 40.2888 3.9063 41.2109V48.0469C3.9063 49.1255 4.7807 50 5.85938 50C6.93806 50 7.81252 49.1255 7.81252 48.0469V41.2109C7.81252 39.0593 6.79945 37.0331 5.0781 35.7422C4.34047 35.189 3.9063 34.3206 3.9063 33.3984V25.0977C3.9063 23.6245 4.44866 22.8596 5.23338 22.3598C6.15776 21.7711 7.62659 21.4356 9.57034 21.4356C10.649 21.4356 11.5235 20.5611 11.5235 19.4824C11.5235 18.4037 10.649 17.5293 9.57034 17.5293C7.30724 17.5293 4.96748 17.898 3.13497 19.0651C1.16281 20.3212 0 22.364 0 25.0977Z" fill="#1D6C86"/>
<path d="M42.1875 9.76562C42.1875 10.8443 41.313 11.7187 40.2344 11.7187C39.1557 11.7187 38.2813 10.8443 38.2813 9.76562C38.2813 8.68692 39.1557 7.81249 40.2344 7.81248C41.313 7.81248 42.1875 8.68692 42.1875 9.76562ZM46.0938 9.76562C46.0938 6.52949 43.4703 3.90625 40.2344 3.90625C36.9984 3.90626 34.375 6.5295 34.375 9.76562C34.375 13.0017 36.9984 15.625 40.2344 15.625C43.4703 15.625 46.0937 13.0017 46.0938 9.76562Z" fill="#1D6C86"/>
<path d="M34.375 41.2109V48.0469C34.375 49.1255 35.2495 50 36.3281 50C37.4068 50 38.2813 49.1255 38.2813 48.0469V41.2109C38.2813 40.1323 37.4068 39.2578 36.3281 39.2578C35.2495 39.2578 34.375 40.1323 34.375 41.2109Z" fill="#1D6C86"/>
<path d="M46.0938 25.0977V33.3984C46.0938 34.3206 45.6596 35.189 44.9219 35.7422C43.2006 37.0331 42.1875 39.0593 42.1875 41.2109V48.0469C42.1875 49.1255 43.062 50 44.1407 50C45.2193 50 46.0938 49.1255 46.0938 48.0469V41.2109C46.0938 40.2888 46.528 39.4204 47.2656 38.8672C48.987 37.5762 50 35.5501 50 33.3984V25.0977C50 22.364 48.8372 20.3212 46.8651 19.0651C45.0326 17.898 42.6928 17.5293 40.4297 17.5293C39.351 17.5293 38.4766 18.4037 38.4766 19.4824C38.4766 20.5611 39.351 21.4356 40.4297 21.4356C42.3735 21.4356 43.8423 21.7711 44.7667 22.3598C45.5514 22.8596 46.0938 23.6245 46.0938 25.0977Z" fill="#1D6C86"/>
</g>
</g>
<defs>
<clipPath id="clip0_1500_11581">
<rect width="50" height="50" fill="white"/>
</clipPath>
</defs>
</svg>
