<svg width="50" height="50" viewBox="0 0 50 50" fill="none" xmlns="http://www.w3.org/2000/svg">
<path d="M32.9494 20.2934C32.9494 19.7641 32.8975 19.2482 32.7994 18.7484C32.6978 18.2306 32.8825 17.6981 33.283 17.3544L35.1705 15.7351L34.0326 13.7644L31.683 14.5911C31.184 14.7666 30.6292 14.6596 30.2314 14.311C29.4591 13.6342 28.5542 13.105 27.5632 12.767C27.0632 12.5964 26.6937 12.1698 26.5964 11.6506L26.1379 9.20605H23.8622L23.4037 11.6506C23.3063 12.1698 22.9369 12.5964 22.4369 12.767C21.4459 13.105 20.541 13.6342 19.7687 14.311C19.3709 14.6596 18.8161 14.7666 18.3171 14.5911L15.9674 13.7644L14.8295 15.7351L16.7171 17.3544C17.1176 17.6981 17.3023 18.2306 17.2007 18.7484C17.1026 19.2482 17.0507 19.7641 17.0507 20.2934C17.0507 20.8227 17.1025 21.3385 17.2007 21.8383C17.3023 22.3562 17.1176 22.8887 16.7171 23.2323L14.8295 24.8515L15.9674 26.8222L18.3171 25.9956C18.8161 25.8201 19.3709 25.9272 19.7687 26.2758C20.5169 26.9315 21.3895 27.4485 22.3443 27.7875L22.4369 27.8198L22.4834 27.8365C22.9598 28.017 23.3094 28.4331 23.4037 28.9361L23.8622 31.3807H26.1379L26.5964 28.9361L26.6063 28.8877C26.717 28.3905 27.0788 27.985 27.5632 27.8198C28.5543 27.4817 29.4591 26.9526 30.2314 26.2758L30.2691 26.2438C30.6638 25.9208 31.1996 25.8255 31.683 25.9956L34.0326 26.8222L35.1705 24.8515L33.283 23.2323C32.8825 22.8887 32.6978 22.3562 32.7994 21.8383C32.8975 21.3385 32.9494 20.8227 32.9494 20.2934ZM35.879 20.2934C35.879 20.7143 35.8547 21.1296 35.808 21.5383L38.0007 23.4194C38.5356 23.8784 38.6679 24.6532 38.3155 25.2636L35.962 29.3399C35.6096 29.9504 34.8723 30.2233 34.2073 29.9894L31.4799 29.0298C30.8164 29.523 30.0942 29.9426 29.3258 30.2762L28.7933 33.1155C28.6634 33.8083 28.0585 34.3104 27.3536 34.3104H22.6465C21.9416 34.3104 21.3367 33.8083 21.2068 33.1155L20.6743 30.2762C19.9059 29.9426 19.1836 29.5231 18.5201 29.0299L15.7928 29.9894C15.1279 30.2233 14.3905 29.9504 14.0381 29.3399L11.6846 25.2637C11.3322 24.6533 11.4645 23.8784 11.9994 23.4194L14.192 21.5383C14.1453 21.1296 14.1211 20.7143 14.1211 20.2934C14.1211 19.8724 14.1453 19.457 14.192 19.0483L11.9994 17.1672C11.4645 16.7083 11.3322 15.9334 11.6846 15.323L14.0381 11.2467C14.3906 10.6363 15.1279 10.3634 15.7928 10.5974L18.5201 11.5568C19.1836 11.0636 19.9059 10.6441 20.6743 10.3104L21.2068 7.47123C21.3367 6.77843 21.9416 6.27638 22.6465 6.27637H27.3536C28.0585 6.27637 28.6634 6.77842 28.7933 7.47123L29.3258 10.3104C30.0942 10.6441 30.8164 11.0636 31.4799 11.5568L34.2073 10.5974L34.2698 10.577C34.9179 10.3808 35.6205 10.6553 35.962 11.2467L38.3155 15.323C38.6679 15.9334 38.5356 16.7083 38.0007 17.1672L35.808 19.0483C35.8547 19.457 35.879 19.8724 35.879 20.2934Z" fill="#1D6C86"/>
<path d="M26.6744 20.2932C26.6744 19.3692 25.9253 18.6201 25.0013 18.6201C24.0772 18.6201 23.3281 19.3692 23.3281 20.2932C23.3281 21.2173 24.0772 21.9664 25.0013 21.9664C25.9253 21.9664 26.6744 21.2173 26.6744 20.2932ZM29.6041 20.2932C29.6041 22.8353 27.5433 24.8961 25.0013 24.8961C22.4592 24.896 20.3984 22.8353 20.3984 20.2932C20.3984 17.7512 22.4592 15.6904 25.0013 15.6904C27.5433 15.6904 29.6041 17.7512 29.6041 20.2932Z" fill="#1D6C86"/>
<path d="M42.3632 20.2929C42.3632 10.7104 34.5826 2.92969 25 2.92969C15.4174 2.9297 7.63673 10.7104 7.63672 20.2929C7.63672 25.9473 10.3433 30.9671 14.5636 34.0864C14.5695 34.0908 14.5754 34.0952 14.5813 34.0997C16.734 35.7415 18.1343 38.1534 18.5149 40.7943H31.5502C31.9304 38.1734 33.3211 35.7798 35.4582 34.1505C35.4595 34.1495 35.4609 34.1485 35.4623 34.1475C39.6566 30.9727 42.3632 25.9457 42.3632 20.2929ZM45.2929 20.2929C45.2929 26.9018 42.1253 32.7763 37.2343 36.4802L37.2344 36.4803C35.432 37.8545 34.3742 39.9921 34.3742 42.2583C34.3742 43.0603 33.7291 43.7133 32.9271 43.723C32.895 43.7234 32.8789 43.7236 32.8708 43.7237C32.8669 43.7237 32.8648 43.7238 32.8638 43.7238H32.8625C32.8625 43.7238 32.8623 43.7239 32.8622 43.7239H32.8528C32.8502 43.7222 32.8476 43.7205 32.845 43.7188V43.724H17.155C16.346 43.724 15.6901 43.0681 15.6901 42.2591V42.2575C15.6901 39.9737 14.6248 37.8194 12.8088 36.4324C7.87064 32.776 4.70703 26.8974 4.70703 20.2929C4.70704 9.09235 13.7994 1.04837e-05 25 0C36.2006 0 45.2929 9.09235 45.2929 20.2929Z" fill="#1D6C86"/>
<path d="M31.3814 43.7236H18.6211V45.3968C18.6211 45.8269 18.7863 46.2391 19.0818 46.5492L19.1108 46.5788L19.1121 46.5802C19.4254 46.8938 19.8502 47.0699 20.2942 47.0699H29.7083C30.1523 47.0699 30.5772 46.8938 30.8904 46.5802L30.8917 46.5788C31.2054 46.2656 31.3814 45.8408 31.3814 45.3968V43.7236ZM34.3111 45.3968C34.3111 46.6174 33.8266 47.7883 32.962 48.6518L32.9619 48.6517C32.0985 49.5155 30.9283 49.9996 29.7083 49.9996H20.2942C19.0743 49.9996 17.9041 49.5155 17.0407 48.6517C16.176 47.7882 15.6914 46.6174 15.6914 45.3968V42.2588C15.6914 41.4498 16.3472 40.7939 17.1562 40.7939H32.8463C33.6553 40.7939 34.3111 41.4498 34.3111 42.2588V45.3968Z" fill="#1D6C86"/>
<path d="M0.196531 5.97185C0.601076 5.27126 1.49703 5.03125 2.19763 5.43579L3.99645 6.47444C4.69705 6.87898 4.93705 7.77493 4.53251 8.47553C4.12797 9.17613 3.23202 9.41613 2.53141 9.01159L0.732592 7.97294C0.0319995 7.5684 -0.208006 6.67245 0.196531 5.97185Z" fill="#1D6C86"/>
<path d="M45.47 32.1105C45.8745 31.4099 46.7705 31.1699 47.4711 31.5745L49.2699 32.6132C49.9705 33.0178 50.2105 33.9136 49.8059 34.6142C49.4014 35.3148 48.5055 35.5548 47.8048 35.1503L46.006 34.1116C45.3054 33.7071 45.0654 32.8111 45.47 32.1105Z" fill="#1D6C86"/>
<path d="M47.8049 5.43579C48.5054 5.03125 49.4014 5.27126 49.8059 5.97185C50.2105 6.67245 49.9705 7.5684 49.2699 7.97294L47.4711 9.01159C46.7705 9.41613 45.8745 9.17613 45.47 8.47553C45.0654 7.77493 45.3054 6.87898 46.006 6.47443L47.8049 5.43579Z" fill="#1D6C86"/>
<path d="M2.5314 31.5745C3.232 31.1699 4.12795 31.4099 4.5325 32.1105C4.93704 32.8111 4.69703 33.7071 3.99644 34.1116L2.19762 35.1503C1.49701 35.5548 0.601062 35.3148 0.196522 34.6142C-0.208006 33.9136 0.0320143 33.0178 0.732582 32.6132L2.5314 31.5745Z" fill="#1D6C86"/>
</svg>
