<?xml version="1.0" encoding="utf-8"?>
<!-- Generator: Adobe Illustrator 29.4.0, SVG Export Plug-In . SVG Version: 9.03 Build 0)  -->
<svg version="1.0" id="katman_1" xmlns="http://www.w3.org/2000/svg" xmlns:xlink="http://www.w3.org/1999/xlink" x="0px" y="0px"
	 viewBox="0 0 841.9 595.3" style="enable-background:new 0 0 841.9 595.3;" xml:space="preserve">
<style type="text/css">
	.st0{fill:#BF2026;}
</style>
<g>
	<path class="st0" d="M103.9,257.2c10.4,0,20,4.6,26.9,11.9c6.9,7.3,11.1,17.4,11.1,28.5c0,11.1-4.3,21.2-11.1,28.5
		c-6.9,7.4-16.4,11.9-26.9,11.9h-38v-80.9H103.9z M103.9,270.7H78.7v53.9h25.1c6.9,0,13.2-3,17.7-7.9c4.6-4.9,7.4-11.6,7.4-19.1
		c0-7.4-2.8-14.2-7.4-19.1C117,273.7,110.8,270.7,103.9,270.7"/>
	<polygon class="st0" points="281.7,257.3 281.7,270.3 258.4,270.3 258.4,338.6 243.3,338.6 243.3,270.3 220,270.3 220,257.3 	"/>
	<polygon class="st0" points="604.1,257.3 604.1,270.3 580.7,270.3 580.7,338.6 565.6,338.6 565.6,270.3 542.3,270.3 542.3,257.3 	
		"/>
	<rect x="612.3" y="257.3" class="st0" width="15.1" height="81.4"/>
	<path class="st0" d="M701.4,335c-3,1.1-6.2,2-9.5,2.7c-3.3,0.6-6.8,1.1-10.5,1.2c-0.6,0-1.2,0.1-1.8,0.1c-0.6,0-1.3,0-1.9,0
		c-2,0-4.3-0.1-6.5-0.3c-1.9-0.2-3.9-0.5-5.6-0.9l0,0c-3.5-0.9-6.9-2.3-10-4.1c-3.2-1.9-6.1-4.2-8.6-6.9c-3.5-3.8-6.4-8.3-8.3-13.3
		c-1.9-4.8-2.9-10.1-2.9-15.6s1-10.8,2.9-15.6c1.9-5,4.8-9.5,8.3-13.3c2.2-2.3,4.6-4.3,7.2-6.1c2.6-1.7,5.4-3,8.3-4.1l0,0
		c2.2-0.7,4.6-1.3,7-1.6c2.8-0.4,5.6-0.6,8.2-0.6l0,0h1.2h0c4.2,0.1,8.1,0.4,11.9,1.1c3.7,0.6,7.3,1.6,10.6,2.9l0.4,0.1v0.4v13.5
		v0.8L701,275c-3.4-1.5-7-2.6-10.7-3.3c-3.7-0.7-7.6-1.1-11.5-1.1H678l-1,0c-3.1,0.1-7,1-10.6,2.5c-3.5,1.4-6.7,3.3-8.8,5.3
		c-0.2,0.2-0.4,0.4-0.6,0.6c-0.2,0.2-0.4,0.4-0.6,0.6c-2.1,2.4-3.8,5.2-5,8.4c-1.1,3-1.8,6.3-1.8,9.7c0,3.6,0.7,7,1.9,10.1
		c1.3,3.2,3.1,6.2,5.4,8.6c0.6,0.7,1.3,1.3,2,1.9c0.7,0.6,1.5,1.2,2.2,1.7c1.9,1.3,4.9,2.7,8.4,3.7c2.8,0.8,6,1.3,9.2,1.2h0h0.9l0,0
		l0.9,0c3.6-0.1,7.2-0.5,10.6-1.2c3.4-0.7,6.7-1.8,9.8-3.2l0.8-0.3v0.8v13.5v0.4L701.4,335z"/>
	<polygon class="st0" points="369.9,338.6 369.9,257.3 385.6,257.3 413.2,319 440.2,257.3 455.3,257.3 455.3,338.6 441.4,338.6 
		441.4,281.9 419.3,338.6 406.4,338.6 383.9,281.9 383.9,338.6 	"/>
	<path class="st0" d="M749.9,290.8H736c-6.6,0-9.9-3-9.9-9.1c0-8,6.9-12,20.5-12c7.2,0,14.1,1,20.7,2.9l5.1-12
		c-8.1-2.6-16.8-4-25.8-4c-23.7,0-35.6,8.4-35.6,25.1c0,15.2,8.3,22.8,25,22.8h13.9c7.7,0,11.5,3,11.5,9.1c0,8.3-6.3,12.5-18.7,12.5
		c-10.3,0-19.5-1.5-27.7-4.5v13.7c8.2,2.7,17.4,4,27.7,4c22.5,0,33.8-8.5,33.8-25.6C776.5,298.4,767.7,290.8,749.9,290.8"/>
	<polygon class="st0" points="191.1,257.3 175.1,257.3 140.6,338.6 156.1,338.6 182.9,272.8 196.2,303.4 179.3,303.4 174.1,316.4 
		200.2,316.4 210.4,338.6 226.7,338.6 	"/>
	<polygon class="st0" points="325.7,257 309.7,257 275.2,338.4 290.6,338.4 317.5,272.5 330.8,303.1 313.9,303.1 308.7,316.2 
		334.7,316.2 345,338.4 361.2,338.4 	"/>
	<polygon class="st0" points="514.1,257 498.1,257 463.5,338.4 479,338.4 505.8,272.5 519.2,303.1 502.2,303.1 497.1,316.2 
		523.1,316.2 533.4,338.4 549.6,338.4 	"/>
</g>
</svg>
