<svg width="230" height="212" viewBox="0 0 230 212" fill="none" xmlns="http://www.w3.org/2000/svg">
<g clip-path="url(#clip0_971_6466)">
<path d="M59.2347 169.06C59.2347 169.06 59.2297 169.009 59.2246 168.923C59.2246 168.822 59.2196 168.696 59.2146 168.534C59.2095 168.175 59.2045 167.679 59.1944 167.042C59.1844 165.732 59.1642 163.851 59.1441 161.479L59.2347 161.57C52.7176 161.585 42.3577 161.606 30.6985 161.626C30.764 161.56 30.5524 161.773 30.8445 161.479V161.722V161.965V162.45C30.8445 162.774 30.8445 163.098 30.8445 163.416C30.8445 164.058 30.8445 164.696 30.8445 165.328C30.8445 166.592 30.8445 167.836 30.8445 169.055L30.7035 168.913C38.8272 168.939 45.9386 168.964 51.0405 168.979C53.5788 168.994 55.6186 169.009 57.0439 169.019C57.7389 169.03 58.2778 169.035 58.6656 169.04C58.8419 169.04 58.9779 169.045 59.0887 169.05C59.1843 169.05 59.2347 169.055 59.2397 169.06C59.2397 169.06 59.1995 169.065 59.1088 169.07C59.003 169.07 58.8671 169.075 58.7009 169.08C58.3181 169.08 57.7893 169.09 57.1094 169.1C55.6941 169.111 53.6645 169.126 51.1412 169.141C46.0142 169.156 38.8726 169.181 30.7035 169.207H30.5625V169.065C30.5625 167.846 30.5625 166.602 30.5625 165.338C30.5625 164.706 30.5625 164.069 30.5625 163.426C30.5625 163.103 30.5625 162.784 30.5625 162.46V161.975V161.732V161.494C30.8546 161.196 30.6431 161.408 30.7086 161.343C42.3678 161.368 52.7277 161.388 59.2448 161.398H59.3354V161.489C59.3153 163.886 59.3002 165.783 59.2851 167.103C59.275 167.73 59.27 168.22 59.2649 168.574C59.2649 168.726 59.2599 168.853 59.2549 168.949C59.2549 169.03 59.2498 169.07 59.2448 169.07L59.2347 169.06Z" fill="#E0E0E0"/>
<path d="M63.1034 161.479C63.1034 161.479 63.0984 161.429 63.0934 161.333C63.0934 161.221 63.0883 161.09 63.0833 160.933C63.0782 160.559 63.0682 160.053 63.0581 159.411C63.043 158.081 63.0279 156.205 63.0027 153.899L63.1085 154.005C58.6664 154.015 52.6227 154.03 45.9646 154.045C45.8336 154.177 46.1408 153.868 46.1106 153.899V154.89C46.1106 155.218 46.1106 155.547 46.1106 155.871C46.1106 156.523 46.1106 157.165 46.1106 157.803C46.1106 159.072 46.1106 160.301 46.1056 161.479L45.9696 161.343C50.9204 161.368 55.1812 161.393 58.2332 161.408C59.7391 161.424 60.9479 161.439 61.804 161.449C62.207 161.454 62.5242 161.464 62.766 161.464C62.9876 161.469 63.1034 161.474 63.1085 161.479C63.1135 161.484 63.0077 161.489 62.7962 161.494C62.5595 161.494 62.2523 161.505 61.8594 161.51C61.0083 161.52 59.8096 161.53 58.3189 161.55C55.2416 161.565 50.9456 161.59 45.9595 161.616H45.8235V161.479C45.8235 160.301 45.8235 159.072 45.8185 157.803C45.8185 157.171 45.8185 156.523 45.8185 155.871C45.8185 155.547 45.8185 155.218 45.8185 154.89V154.394V154.146V153.904C45.7883 153.929 46.0955 153.62 45.9646 153.752C52.6227 153.767 58.6664 153.782 63.1085 153.792H63.2142V153.899C63.189 156.235 63.1739 158.131 63.1588 159.477C63.1488 160.109 63.1387 160.604 63.1337 160.974C63.1236 161.312 63.1185 161.484 63.1135 161.479H63.1034Z" fill="#E0E0E0"/>
<path d="M229.188 179.058C229.188 179.129 178.285 179.189 115.506 179.189C52.7274 179.189 1.81445 179.129 1.81445 179.058C1.81445 178.987 52.7073 178.926 115.506 178.926C178.305 178.926 229.188 178.987 229.188 179.058Z" fill="#263238"/>
<path d="M101.641 3.44792V60.5534C101.641 61.8632 102.628 62.9252 103.852 62.9252H120.648L126.344 69.9799L128.102 62.9252H144.787C146.006 62.9252 146.998 61.8632 146.998 60.5534V3.44792C146.998 1.77906 145.734 0.423737 144.178 0.423737H104.461C102.905 0.423737 101.641 1.77906 101.641 3.44792Z" fill="white"/>
<path d="M101.64 3.44793C101.64 3.44793 101.64 3.39736 101.64 3.30633C101.64 3.21024 101.65 3.06864 101.68 2.88153C101.741 2.51236 101.897 1.94595 102.38 1.37449C102.622 1.09635 102.944 0.823264 103.357 0.631091C103.77 0.433862 104.284 0.368119 104.818 0.388348C105.886 0.388348 107.12 0.38329 108.51 0.378233C114.07 0.368119 122.108 0.352947 132.035 0.337776C134.518 0.337776 137.121 0.332719 139.831 0.327662C141.186 0.327662 142.571 0.327662 143.976 0.327662C144.691 0.287204 145.462 0.524891 146.016 1.02555C146.58 1.51609 146.952 2.21904 147.063 2.9675C147.119 3.34679 147.098 3.72102 147.104 4.08513C147.104 4.45431 147.104 4.82348 147.104 5.19771C147.104 5.94111 147.104 6.69463 147.104 7.4532C147.104 8.97035 147.104 10.5077 147.104 12.0704C147.104 15.1957 147.104 18.407 147.109 21.7043C147.109 28.2988 147.109 35.217 147.119 42.3931C147.119 45.9787 147.119 49.6299 147.119 53.3368C147.119 55.1878 147.119 57.0539 147.119 58.9351V60.3461C147.139 60.8164 147.058 61.3373 146.821 61.7772C146.59 62.2172 146.232 62.5965 145.779 62.819C145.557 62.9303 145.316 63.0163 145.064 63.0415C144.807 63.0719 144.575 63.0618 144.339 63.0618C138.809 63.0618 133.374 63.0618 128.091 63.0618L128.217 62.9657C127.623 65.3527 127.033 67.7042 126.459 70.0154L126.399 70.2632L126.238 70.0609C124.294 67.6537 122.395 65.3021 120.547 63.0061L120.642 63.0516C115.037 63.0516 109.623 63.0466 104.445 63.0415C104.123 63.0365 103.801 63.0618 103.458 63.0011C103.126 62.9404 102.803 62.8038 102.531 62.6016C101.987 62.202 101.635 61.5699 101.549 60.9125C101.509 60.5787 101.529 60.2652 101.524 59.9465C101.524 59.633 101.524 59.3144 101.524 59.0009C101.524 58.3738 101.524 57.7517 101.524 57.1297C101.524 54.6517 101.524 52.2394 101.529 49.8929C101.539 40.5119 101.549 32.2232 101.559 25.3404C101.575 18.4626 101.59 12.9908 101.595 9.23333C101.605 7.36217 101.61 5.91583 101.615 4.93474C101.615 4.44925 101.625 4.08008 101.625 3.82722C101.625 3.57942 101.635 3.45299 101.635 3.45299C101.635 3.45299 101.64 3.57942 101.645 3.82722C101.645 4.08008 101.65 4.44925 101.655 4.93474C101.655 5.91583 101.665 7.36217 101.675 9.23333C101.685 12.9908 101.695 18.4626 101.71 25.3404C101.721 32.2232 101.726 40.5119 101.741 49.8929C101.741 52.2394 101.741 54.6517 101.746 57.1297C101.756 58.3586 101.721 59.6431 101.771 60.8771C101.852 61.4789 102.174 62.0503 102.662 62.4094C102.904 62.5914 103.191 62.7128 103.493 62.7684C103.785 62.819 104.113 62.7937 104.44 62.8038C109.618 62.8038 115.032 62.7988 120.637 62.7937H120.698L120.733 62.8392C122.586 65.1352 124.485 67.4817 126.429 69.8889L126.208 69.9395C126.782 67.6233 127.371 65.2717 127.965 62.8848L127.99 62.7836H128.091C133.369 62.7836 138.809 62.7836 144.339 62.7836C144.575 62.7836 144.817 62.7887 145.029 62.7634C145.25 62.7381 145.462 62.6622 145.658 62.5662C146.056 62.3689 146.378 62.0301 146.585 61.6356C146.796 61.2361 146.867 60.7962 146.852 60.3258V58.9149C146.852 57.0387 146.852 55.1726 146.852 53.3166C146.852 49.6097 146.852 45.9584 146.852 42.3729C146.852 35.1968 146.857 28.2786 146.862 21.6841C146.862 18.3868 146.862 15.1704 146.867 12.0502C146.867 10.4875 146.867 8.95012 146.867 7.43297C146.867 6.6744 146.867 5.92594 146.867 5.17748C146.867 4.80325 146.867 4.43408 146.867 4.0649C146.867 3.69573 146.882 3.32656 146.832 2.97761C146.731 2.27973 146.383 1.6223 145.86 1.16715C145.336 0.701892 144.651 0.484434 143.961 0.519834C142.551 0.519834 141.171 0.519834 139.816 0.519834C137.106 0.519834 134.502 0.514777 132.02 0.509719C122.088 0.494548 114.055 0.479376 108.495 0.469262C107.104 0.469262 105.871 0.459148 104.803 0.459148C104.269 0.433862 103.78 0.499605 103.367 0.68672C102.96 0.868778 102.642 1.13681 102.4 1.40484C101.922 1.95607 101.756 2.51741 101.69 2.88153C101.625 3.2507 101.64 3.44793 101.625 3.44287L101.64 3.44793Z" fill="#263238"/>
<path d="M106.526 4.05478C106.526 4.49981 106.163 4.86393 105.72 4.86393C105.277 4.86393 104.914 4.49981 104.914 4.05478C104.914 3.60975 105.277 3.24564 105.72 3.24564C106.163 3.24564 106.526 3.60975 106.526 4.05478Z" fill="#EBEBEB"/>
<path d="M108.705 4.05478C108.705 4.49981 108.343 4.86393 107.9 4.86393C107.456 4.86393 107.094 4.49981 107.094 4.05478C107.094 3.60975 107.456 3.24564 107.9 3.24564C108.343 3.24564 108.705 3.60975 108.705 4.05478Z" fill="#EBEBEB"/>
<path d="M110.973 4.05478C110.973 4.49981 110.61 4.86393 110.167 4.86393C109.724 4.86393 109.361 4.49981 109.361 4.05478C109.361 3.60975 109.724 3.24564 110.167 3.24564C110.61 3.24564 110.973 3.60975 110.973 4.05478Z" fill="#EBEBEB"/>
<path d="M118.647 10.5836H105.205V12.657H118.647V10.5836Z" fill="#1D6C86"/>
<path d="M118.647 26.4125H105.205V28.4859H118.647V26.4125Z" fill="#455A64"/>
<path d="M118.647 47.5919H105.205V49.6654H118.647V47.5919Z" fill="#455A64"/>
<path d="M122.933 14.0831H109.184V16.1566H122.933V14.0831Z" fill="#EBEBEB"/>
<path d="M107.462 14.0933H105.412V16.1515H107.462V14.0933Z" fill="#EBEBEB"/>
<path d="M141.886 43.0405H111.25V45.1139H141.886V43.0405Z" fill="#EBEBEB"/>
<path d="M141.886 39.6319H111.25V41.7054H141.886V39.6319Z" fill="#EBEBEB"/>
<path d="M109.179 39.637H105.412V41.6953H109.179V39.637Z" fill="#EBEBEB"/>
<path d="M141.886 55.9312H111.25V58.0046H141.886V55.9312Z" fill="#EBEBEB"/>
<path d="M141.886 52.5226H111.25V54.5961H141.886V52.5226Z" fill="#EBEBEB"/>
<path d="M109.179 52.5277H105.412V54.5859H109.179V52.5277Z" fill="#EBEBEB"/>
<path d="M141.886 35.1007H111.25V37.1741H141.886V35.1007Z" fill="#EBEBEB"/>
<path d="M141.886 31.6922H111.25V33.7656H141.886V31.6922Z" fill="#EBEBEB"/>
<path d="M109.179 31.7023H105.412V33.7606H109.179V31.7023Z" fill="#EBEBEB"/>
<path d="M119.74 17.254H109.184V19.3274H119.74V17.254Z" fill="#EBEBEB"/>
<path d="M107.462 17.259H105.412V19.3173H107.462V17.259Z" fill="#EBEBEB"/>
<path d="M120.818 20.5614H109.184V22.6348H120.818V20.5614Z" fill="#EBEBEB"/>
<path d="M107.462 20.5664H105.412V22.6247H107.462V20.5664Z" fill="#EBEBEB"/>
<path d="M141.746 11.7568H128.062V25.4971H141.746V11.7568Z" fill="#EBEBEB"/>
<path d="M140.195 5.70342C140.195 5.70342 141.267 7.97409 141.746 12.4851C142.083 15.6509 141.721 20.1669 141.721 20.1669C141.721 20.1669 128.183 21.3907 127.951 21.0266C125.71 17.4512 128.092 7.7364 128.092 7.7364L140.195 5.69836V5.70342Z" fill="#263238"/>
<path d="M140.451 11.858C139.439 14.9985 137.097 16.4448 137.097 16.4448C137.097 16.4448 129.895 18.3564 128.464 13.0262C127.034 7.69594 128.782 4.5959 130.897 3.35184C132.675 2.31006 138.411 2.03192 140.3 5.91582C140.3 5.91582 141.75 8.94506 140.451 11.858Z" fill="#263238"/>
<path d="M137.002 5.24828L133.099 3.74631L132.086 3.87779C129.8 3.91319 128.259 6.462 128.264 8.32304C128.274 10.3864 128.364 12.9048 128.707 14.427C129.402 17.4765 132.006 17.699 132.006 17.699C132.006 17.699 132.041 20.2124 132.036 21.239L137.304 19.995L138.044 6.285C138.019 5.72366 137.566 5.27357 137.007 5.24828H137.002Z" fill="#FFBF9D"/>
<path d="M132.001 17.6889C132.001 17.6889 134.076 17.6838 136.04 16.3083C136.04 16.3083 135.088 18.5183 131.996 18.4374V17.6838L132.001 17.6889Z" fill="#FF9A6C"/>
<path d="M129.664 10.8971C129.669 11.1045 129.851 11.2714 130.072 11.2714C130.289 11.2714 130.46 11.0944 130.455 10.887C130.45 10.6797 130.269 10.5128 130.047 10.5128C129.83 10.5128 129.659 10.6898 129.664 10.8971Z" fill="#263238"/>
<path d="M128.974 9.33952C129.025 9.39009 129.312 9.14734 129.735 9.117C130.158 9.0816 130.485 9.28389 130.526 9.22826C130.546 9.20297 130.49 9.11194 130.349 9.02597C130.208 8.93494 129.977 8.85403 129.71 8.87426C129.448 8.89449 129.231 9.00574 129.11 9.117C128.984 9.22826 128.949 9.32434 128.974 9.34457V9.33952Z" fill="#263238"/>
<path d="M131.739 12.6469C131.739 12.6469 131.472 12.5964 131.044 12.566C130.933 12.566 130.832 12.5458 130.807 12.475C130.777 12.3991 130.812 12.2778 130.858 12.1463C130.943 11.8782 131.029 11.595 131.125 11.2967C131.492 10.088 131.749 9.0968 131.699 9.08163C131.648 9.06646 131.316 10.0374 130.948 11.241C130.863 11.5394 130.777 11.8226 130.697 12.0957C130.661 12.2221 130.601 12.3688 130.671 12.5256C130.707 12.6065 130.787 12.657 130.858 12.6722C130.928 12.6874 130.989 12.6874 131.044 12.6874C131.477 12.6823 131.744 12.6672 131.744 12.6419L131.739 12.6469Z" fill="#263238"/>
<path d="M128.857 7.92859C128.938 8.02974 129.255 7.93871 129.638 7.94377C130.021 7.93871 130.338 8.02974 130.419 7.92859C130.454 7.87802 130.404 7.78194 130.268 7.68585C130.132 7.58976 129.9 7.50885 129.638 7.50885C129.376 7.50885 129.144 7.58976 129.014 7.68585C128.878 7.78194 128.827 7.87802 128.862 7.92859H128.857Z" fill="#263238"/>
<path d="M134.136 10.5583C134.151 10.7656 133.985 10.9528 133.769 10.9679C133.552 10.9882 133.366 10.8314 133.351 10.624C133.335 10.4167 133.502 10.2296 133.718 10.2144C133.935 10.1942 134.121 10.3509 134.136 10.5583Z" fill="#263238"/>
<path d="M134.71 9.10691C134.665 9.16254 134.357 8.94508 133.934 8.96025C133.511 8.97037 133.204 9.19794 133.159 9.14737C133.133 9.12714 133.184 9.03105 133.315 8.92485C133.446 8.82371 133.672 8.71751 133.934 8.71245C134.201 8.70739 134.423 8.79842 134.554 8.89451C134.685 8.99059 134.735 9.08162 134.71 9.10691Z" fill="#263238"/>
<path d="M134.402 7.95388C134.307 8.03985 133.994 7.89319 133.607 7.83756C133.219 7.76676 132.876 7.80216 132.816 7.69091C132.791 7.63528 132.856 7.5493 133.012 7.4785C133.168 7.4077 133.415 7.36725 133.682 7.4077C133.949 7.45322 134.171 7.56953 134.291 7.68585C134.417 7.80216 134.448 7.90836 134.407 7.94882L134.402 7.95388Z" fill="#263238"/>
<path d="M137.43 11.4888C137.415 11.2612 137.642 10.6999 137.869 10.6493C138.468 10.5128 139.556 10.4875 139.667 12.0249C139.823 14.1287 137.491 13.9466 137.486 13.8859C137.481 13.8404 137.486 12.2777 137.43 11.4888Z" fill="#FFBF9D"/>
<path d="M138.201 12.9807C138.201 12.9807 138.242 13.006 138.302 13.0262C138.363 13.0515 138.468 13.0616 138.574 13.011C138.791 12.9149 138.952 12.5458 138.932 12.1665C138.922 11.9743 138.871 11.7973 138.791 11.6506C138.715 11.504 138.609 11.4028 138.494 11.3877C138.383 11.3725 138.307 11.4433 138.287 11.504C138.262 11.5647 138.282 11.6051 138.267 11.6102C138.262 11.6152 138.222 11.5798 138.232 11.4888C138.237 11.4483 138.257 11.3927 138.302 11.3523C138.348 11.3067 138.423 11.2815 138.499 11.2815C138.66 11.2815 138.816 11.418 138.902 11.5798C138.997 11.7417 139.063 11.9389 139.073 12.1564C139.093 12.5812 138.902 12.9908 138.609 13.102C138.463 13.1526 138.337 13.1172 138.272 13.0717C138.201 13.0262 138.191 12.9807 138.196 12.9756L138.201 12.9807Z" fill="#FF9A6C"/>
<path d="M138.1 10.6392L137.576 11.2006C135.249 9.02093 130.439 3.2153 130.691 3.54402C130.691 3.54402 132.514 3.20013 134.227 3.47322C135.939 3.74631 139.193 4.56557 139.167 6.58843C139.142 8.6113 138.105 10.6392 138.105 10.6392H138.1Z" fill="#263238"/>
<path d="M132.061 13.6381C132.091 13.9921 132.398 14.2601 132.756 14.2298C133.109 14.1994 133.375 13.891 133.345 13.5319C133.315 13.1779 133.008 12.9099 132.65 12.9402C132.298 12.9706 132.031 13.279 132.061 13.6381Z" fill="#FF9A6C"/>
<path d="M133.218 12.8947C133.178 12.8846 133.087 13.2841 132.72 13.5977C132.362 13.9163 131.949 13.9466 131.959 13.9921C131.959 14.0073 132.065 14.0275 132.231 13.9972C132.397 13.9668 132.619 13.8758 132.815 13.7039C133.012 13.5319 133.133 13.3246 133.188 13.1627C133.243 13.0009 133.238 12.8947 133.223 12.8947H133.218Z" fill="#263238"/>
<path d="M127.447 21.234C127.447 21.234 131.079 20.0607 131.26 19.9242C131.441 19.7876 131.22 19.0189 131.557 18.6295C131.894 18.2401 137.596 16.8595 137.676 17.0669C137.873 17.5827 137.676 18.4424 137.676 18.4424C137.676 18.4424 141.529 19.3881 141.746 19.6612C141.957 19.9343 141.746 25.4972 141.746 25.4972H127.452V21.234H127.447Z" fill="#1D6C86"/>
<path d="M115.627 95.3922C115.627 95.463 113.865 95.4984 111.694 95.4681C109.523 95.4377 107.766 95.3517 107.766 95.2809C107.766 95.2101 109.528 95.1748 111.699 95.2051C113.87 95.2354 115.627 95.3214 115.627 95.3922Z" fill="#263238"/>
<path d="M117.108 89.5613C117.073 89.6271 115.476 88.7977 113.542 87.7104C111.608 86.6231 110.067 85.6926 110.102 85.6319C110.137 85.5662 111.734 86.3955 113.673 87.4828C115.607 88.5701 117.148 89.5006 117.113 89.5613H117.108Z" fill="#263238"/>
<path d="M119.364 84.1855C119.298 84.2159 118.619 83.0022 117.848 81.4648C117.072 79.9274 116.498 78.6581 116.564 78.6277C116.629 78.5974 117.309 79.8111 118.08 81.3485C118.855 82.8859 119.429 84.1552 119.364 84.1855Z" fill="#263238"/>
<path d="M120.422 108.071H85.1621C85.1621 107.1 85.9478 106.316 86.9097 106.316H120.422V108.071Z" fill="#455A64"/>
<path d="M120.423 108.071L128.254 78.3951C128.395 77.8489 128.083 77.2926 127.544 77.1359C126.995 76.9791 126.421 77.3027 126.27 77.859L118.086 108.071H120.423Z" fill="#455A64"/>
<path d="M119.767 107.863C119.711 107.914 119.379 107.625 119.026 107.221C118.674 106.816 118.427 106.452 118.482 106.402C118.538 106.351 118.87 106.639 119.223 107.044C119.575 107.448 119.822 107.813 119.767 107.863Z" fill="#263238"/>
<path d="M171.417 44.3705L168.606 43.6625C166.436 44.5172 163.978 44.7346 161.51 44.1176C155.94 42.7269 152.147 37.336 152.721 31.5961C153.442 24.3897 160.357 19.5651 167.337 21.4009C172.933 22.8725 176.649 28.3848 175.944 34.15C175.587 37.0983 174.182 39.6269 172.172 41.4475H172.177L171.422 44.3705H171.417Z" fill="white"/>
<path d="M171.416 44.3705C171.416 44.3705 171.431 44.2997 171.461 44.1733C171.496 44.0418 171.542 43.8496 171.602 43.6069C171.728 43.1062 171.909 42.378 172.146 41.4424L172.191 41.4778H172.186L171.975 41.5891L172.151 41.4272C173.193 40.4664 174.463 38.9695 175.253 36.805C175.636 35.7278 175.923 34.4989 175.958 33.1689C176.004 31.8389 175.817 30.4127 175.339 29.0018C174.86 27.5908 174.065 26.2052 172.982 24.9864C172.453 24.3644 171.819 23.8233 171.149 23.3074C170.977 23.181 170.796 23.0748 170.62 22.9534C170.439 22.8422 170.267 22.7056 170.076 22.6146C169.693 22.4174 169.32 22.1898 168.913 22.0381C167.311 21.3503 165.488 21.0216 163.649 21.1227C161.806 21.2138 159.948 21.8105 158.311 22.8169C156.664 23.8334 155.279 25.2291 154.347 26.8474C153.41 28.4607 152.902 30.256 152.776 32.0159C152.665 33.7757 152.942 35.5053 153.567 37.0224C154.176 38.5497 155.067 39.8797 156.11 40.9468C157.153 42.024 158.351 42.823 159.555 43.3793C159.862 43.5057 160.164 43.6271 160.461 43.7485C160.764 43.8496 161.071 43.9356 161.363 44.0266C161.957 44.1935 162.547 44.2946 163.116 44.3604C165.397 44.6132 167.291 44.1429 168.595 43.6423H168.605H168.615C169.512 43.8749 170.212 44.057 170.69 44.1834C170.927 44.2441 171.103 44.2946 171.234 44.325C171.355 44.3604 171.421 44.3806 171.421 44.3806C171.421 44.3806 171.36 44.3705 171.239 44.3402C171.113 44.3098 170.932 44.2694 170.7 44.2137C170.217 44.0974 169.512 43.9255 168.6 43.703H168.62C167.316 44.2188 165.412 44.7093 163.111 44.4615C162.536 44.4008 161.942 44.2997 161.343 44.1328C161.046 44.0418 160.738 43.9558 160.431 43.8547C160.129 43.7333 159.827 43.6119 159.515 43.4855C158.296 42.9292 157.082 42.1251 156.024 41.0378C154.967 39.9607 154.06 38.6155 153.441 37.073C152.806 35.5356 152.524 33.7859 152.635 32.0007C152.756 30.2206 153.269 28.4 154.221 26.7665C155.163 25.128 156.563 23.712 158.235 22.6803C159.897 21.6588 161.776 21.057 163.644 20.966C165.513 20.8648 167.351 21.1986 168.978 21.9015C169.396 22.0583 169.769 22.2859 170.157 22.4882C170.353 22.5842 170.524 22.7157 170.711 22.832C170.892 22.9534 171.073 23.0647 171.244 23.1911C171.919 23.712 172.564 24.2632 173.098 24.8954C174.191 26.1293 174.991 27.5352 175.47 28.9664C175.953 30.3976 176.135 31.8389 176.084 33.179C176.039 34.5242 175.747 35.7582 175.354 36.8454C174.543 39.0251 173.259 40.5271 172.196 41.4778L172.161 41.4272H172.166L172.226 41.3918L172.206 41.4576C171.954 42.3982 171.758 43.1315 171.627 43.6322C171.562 43.8749 171.511 44.057 171.476 44.1884C171.441 44.3149 171.421 44.3756 171.421 44.3756L171.416 44.3705Z" fill="#263238"/>
<path d="M161.126 32.6632C161.126 33.4015 160.532 33.9983 159.796 33.9983C159.061 33.9983 158.467 33.4015 158.467 32.6632C158.467 31.9248 159.061 31.3281 159.796 31.3281C160.532 31.3281 161.126 31.9248 161.126 32.6632Z" fill="#263238"/>
<path d="M165.663 32.6632C165.663 33.4015 165.069 33.9983 164.334 33.9983C163.598 33.9983 163.004 33.4015 163.004 32.6632C163.004 31.9248 163.598 31.3281 164.334 31.3281C165.069 31.3281 165.663 31.9248 165.663 32.6632Z" fill="#263238"/>
<path d="M170.202 32.6632C170.202 33.4015 169.608 33.9983 168.873 33.9983C168.137 33.9983 167.543 33.4015 167.543 32.6632C167.543 31.9248 168.137 31.3281 168.873 31.3281C169.608 31.3281 170.202 31.9248 170.202 32.6632Z" fill="#263238"/>
<path d="M74.9475 26.2706C75.4411 26.0481 76.1512 25.7244 77.0577 25.3148C78.4629 25.7143 80.4573 26.0076 82.774 25.5171C83.3482 25.3906 83.9475 25.2288 84.5418 24.9911C84.8339 24.8647 85.1462 24.7585 85.4433 24.6118C85.7354 24.4551 86.0376 24.2983 86.3398 24.1415C87.5234 23.4436 88.6616 22.4878 89.6236 21.2741C90.5805 20.0604 91.351 18.5989 91.8093 16.9654C92.2576 15.337 92.4187 13.5316 92.0914 11.7363C91.7741 9.94607 91.0539 8.16089 89.9157 6.60834L89.7092 6.31502L89.4725 6.04194L88.994 5.49576C88.6616 5.14176 88.2939 4.8181 87.9263 4.48939C87.1507 3.88759 86.3348 3.31107 85.4232 2.90144C83.6403 2.04678 81.6811 1.63715 79.7824 1.73829C77.8887 1.82932 76.0656 2.35527 74.4892 3.2251C72.9027 4.07976 71.6033 5.30865 70.6212 6.66397C69.6341 8.02434 68.9693 9.52127 68.6117 11.0182C68.2591 12.5151 68.2138 13.9969 68.3951 15.3572C68.5865 16.7176 68.9793 17.9516 69.4981 19.0136C70.5306 21.1426 71.9861 22.5485 73.1797 23.4234C73.5171 24.45 73.774 25.249 73.9553 25.8003C74.0409 26.0582 74.1064 26.2605 74.1568 26.4071C74.2021 26.5437 74.2273 26.6044 74.2273 26.6044C74.2273 26.6044 74.2877 26.5841 74.4086 26.5285C74.5395 26.4678 74.7208 26.3869 74.9525 26.2858L74.9475 26.2706Z" fill="white"/>
<path d="M76.6187 10.8567H78.7793C78.7793 10.8567 78.7793 9.03612 80.6629 9.00577C81.64 8.9906 82.1487 9.63286 82.3552 10.1234C82.5969 10.6949 82.5214 11.3472 82.199 11.8782C81.8314 12.4851 81.0306 13.0363 79.5751 12.7784V17.6636H81.7105V14.8013C81.7105 14.8013 84.7021 14.0225 84.7021 10.71C84.7021 7.3976 81.8717 6.80591 80.6579 6.80591C79.7312 6.80591 76.5734 7.02842 76.6137 10.8567H76.6187Z" fill="#263238"/>
<path d="M81.736 18.675H79.5703V20.708H81.736V18.675Z" fill="#263238"/>
<path d="M74.2271 26.5996C74.2271 26.5996 74.2019 26.5389 74.1566 26.4024C74.1062 26.2557 74.0407 26.0535 73.9551 25.7955C73.7738 25.2443 73.5119 24.4402 73.1745 23.4086C73.1644 23.3833 73.1795 23.358 73.2047 23.3529C73.2148 23.3529 73.2248 23.3529 73.2349 23.3529C73.2349 23.3529 73.2349 23.3529 73.24 23.3529L73.1946 23.4338C72.001 22.559 70.5304 21.1531 69.4929 19.0088C68.9741 17.9468 68.5863 16.7078 68.3899 15.3525C68.2086 13.9921 68.259 12.5104 68.6065 11.0135C68.9641 9.52159 69.6289 8.01961 70.616 6.65924C71.6031 5.30897 72.8975 4.07503 74.4839 3.22037C76.0603 2.35559 77.8835 1.82459 79.7772 1.73356C81.6759 1.63242 83.6351 2.04205 85.418 2.89671C86.3346 3.30634 87.1505 3.88285 87.9211 4.48466C88.2837 4.81337 88.6513 5.13703 88.9888 5.49103L89.4672 6.03721L89.7039 6.31029L89.9104 6.60361C91.0487 8.15616 91.7689 9.94133 92.0862 11.7316C92.4135 13.5269 92.2524 15.3323 91.8041 16.9607C91.3508 18.5941 90.5752 20.0607 89.6183 21.2694C88.6564 22.478 87.5181 23.4389 86.3346 24.1368C86.0324 24.2986 85.7302 24.4554 85.4381 24.6071C85.141 24.7538 84.8337 24.86 84.5366 24.9864C83.9423 25.2291 83.348 25.3859 82.7688 25.5123C80.447 26.0079 78.4426 25.7096 77.0374 25.305H77.0676C76.151 25.7197 75.4358 26.0383 74.9423 26.2659C74.7106 26.367 74.5293 26.4479 74.3983 26.5086C74.2775 26.5642 74.217 26.5895 74.217 26.5845C74.217 26.5845 74.2825 26.5491 74.4084 26.4884C74.5393 26.4226 74.7207 26.3367 74.9523 26.2203C75.4358 25.9877 76.1359 25.6539 77.0324 25.2241C77.0424 25.2241 77.0525 25.219 77.0626 25.2241C78.4627 25.6034 80.447 25.8815 82.7386 25.3758C83.3077 25.2494 83.897 25.0875 84.4812 24.8448C84.7683 24.7184 85.0755 24.6122 85.3676 24.4655C85.6547 24.3138 85.9518 24.157 86.249 23.9952C87.4124 23.3024 88.5305 22.3516 89.4723 21.1581C90.409 19.9596 91.1645 18.5183 91.6077 16.9101C92.0459 15.307 92.197 13.537 91.8746 11.772C91.5573 10.0121 90.8522 8.26236 89.7342 6.74015L89.5277 6.45189L89.296 6.18386L88.8276 5.6478C88.5002 5.30392 88.1376 4.98532 87.78 4.66166C87.0195 4.06997 86.2187 3.50357 85.3223 3.10405C83.5746 2.26456 81.6507 1.85999 79.7873 1.96113C77.9288 2.04711 76.1359 2.56294 74.5897 3.41254C73.0335 4.25203 71.7542 5.45563 70.7822 6.78061C69.8102 8.11064 69.1454 9.58733 68.7928 11.059C68.4403 12.5306 68.3849 13.9921 68.5611 15.3323C68.7475 16.6724 69.1202 17.8962 69.6289 18.9481C70.6361 21.0721 72.0765 22.478 73.25 23.363C73.2702 23.3782 73.2752 23.4086 73.2601 23.4288C73.25 23.444 73.2248 23.4541 73.2047 23.444H73.1997L73.2601 23.3883C73.5724 24.4149 73.8141 25.214 73.9803 25.7652C74.0609 26.0332 74.1213 26.2406 74.1667 26.3872C74.2069 26.5288 74.2271 26.6047 74.2271 26.6047V26.5996Z" fill="#263238"/>
<path d="M167.321 180.909C167.164 180.985 169.35 185.749 172.448 187.19C172.911 187.407 175.333 187.625 175.545 188.393C175.757 189.162 172.045 203.216 171.083 204.243C170.121 205.269 168.786 205.805 168.786 205.805C168.786 205.805 167.336 198.376 166.777 195.443C166.218 192.51 161.035 185.703 161.035 185.703L167.321 180.904V180.909Z" fill="#FFBF9D"/>
<path d="M172.905 187.352C173.137 187.407 176.068 187.756 177.876 189.476C179.684 191.195 184.494 200.429 184.494 200.429L183.618 201.031C183.618 201.031 179.473 194.477 178.904 194.149C178.334 193.82 176.904 193.764 175.796 197.689C174.688 201.613 176.582 203.787 174.658 205.992C172.734 208.197 165.925 211.474 165.618 210.903C165.31 210.326 168.665 205.143 168.665 205.143C168.665 205.143 170.583 204.652 171.309 202.402C172.034 200.146 172.915 187.352 172.915 187.352H172.905Z" fill="#263238"/>
<path d="M172.598 175.123C172.431 175.169 173.726 180.251 176.521 182.229C176.939 182.522 179.281 183.174 179.351 183.973C179.422 184.767 173.252 197.926 172.124 198.761C170.996 199.595 169.586 199.883 169.586 199.883C169.586 199.883 169.485 192.313 169.46 189.329C169.435 186.345 165.557 178.714 165.557 178.714L172.598 175.123Z" fill="#FFBF9D"/>
<path d="M176.943 182.471C177.16 182.568 179.98 183.442 181.451 185.46C182.922 187.478 185.999 197.431 185.999 197.431L185.027 197.866C185.027 197.866 182.121 190.669 181.622 190.244C181.124 189.82 179.724 189.506 177.931 193.167C176.138 196.829 177.608 199.312 175.322 201.132C173.035 202.953 165.747 204.951 165.546 204.329C165.345 203.707 169.575 199.211 169.575 199.211C169.575 199.211 171.554 199.074 172.668 196.991C173.786 194.907 176.938 182.477 176.938 182.477L176.943 182.471Z" fill="#263238"/>
<path d="M144.71 132.001L180.811 124.587L181.944 116.379L184.74 117.012L185.817 138.808L162.141 147.031L174.345 179.028L166.599 184.282C166.599 184.282 141.487 148.705 139.614 144.735C137.74 140.765 138.395 133.422 144.71 132.001Z" fill="#263238"/>
<path d="M204.353 113.679C204.353 113.679 214.234 139.536 206.695 144.472C196.839 150.92 155.278 149.433 156.039 150.166C159.892 153.904 167.068 172.479 171.531 183.539L161.715 190.143C161.715 190.143 141.373 160.301 137.616 152.518C135.087 147.279 134.997 139.622 141.196 136.876C145.1 135.147 182.022 125.503 182.022 125.503L181.946 116.379L204.353 113.684V113.679Z" fill="#263238"/>
<path d="M161.649 190.492L161.508 190.285C161.306 189.986 141.11 160.341 137.388 152.624C135.636 148.988 135.258 144.775 136.406 141.63C137.252 139.324 138.829 137.64 141.09 136.638C144.867 134.965 178.586 126.135 181.764 125.3L181.689 116.147L181.91 116.122L204.514 113.401L204.584 113.583C204.992 114.645 214.45 139.688 206.83 144.674C199.442 149.509 174.527 149.919 162.555 150.111C159.826 150.156 157.403 150.197 156.507 150.278C160.042 154.197 165.95 168.939 170.301 179.786C170.815 181.066 171.304 182.289 171.767 183.432L171.842 183.625L161.649 190.482V190.492ZM182.197 116.602L182.273 125.695L182.081 125.745C181.714 125.841 145.134 135.404 141.297 137.104C139.161 138.049 137.676 139.632 136.88 141.807C135.777 144.826 136.144 148.892 137.842 152.407C141.387 159.745 159.972 187.129 161.785 189.794L171.223 183.448C170.785 182.36 170.316 181.197 169.833 179.988C165.381 168.878 159.282 153.661 155.862 150.348L155.741 150.232L155.796 150.05C155.912 149.757 156.139 149.721 162.55 149.62C174.476 149.423 199.291 149.018 206.558 144.265C213.514 139.713 205.052 116.283 204.186 113.962L182.197 116.607V116.602Z" fill="#455A64"/>
<path d="M174.805 54.7579C174.694 53.3267 174.724 51.7742 174.961 50.2065C175.298 47.9358 176.492 45.8775 177.882 44.0519C179.055 42.5145 180.773 41.5789 182.651 41.1541C184.53 40.7243 185.618 40.2287 188.201 40.3753C192.775 40.6333 196.582 42.8382 199.342 46.5097C200.213 47.6678 200.883 49.0737 201.311 50.5756C202.107 52.5985 208.458 74.582 207.753 85.2324C207.118 94.8258 206.04 96.4087 201.8 96.5301C197.559 96.6514 180.199 100.884 176.739 95.9232C173.994 91.9887 174.487 65.5347 174.805 54.763V54.7579Z" fill="#263238"/>
<path d="M194.033 46.2568L186.211 42.7674L184.126 42.9242C179.452 42.7522 176.028 47.7993 175.846 51.5972C175.645 55.8149 175.564 60.9732 176.108 64.1137C177.201 70.42 182.499 71.1533 182.499 71.1533C182.499 71.1533 182.308 76.2964 182.187 78.3951L193.086 76.4178L196.052 48.487C196.057 47.334 195.181 46.363 194.038 46.2619L194.033 46.2568Z" fill="#FFBF9D"/>
<path d="M182.489 71.1482C182.489 71.1482 186.73 71.3606 190.89 68.7612C190.89 68.7612 188.709 73.1761 182.398 72.6805L182.489 71.1482Z" fill="#FF9A6C"/>
<path d="M177.397 56.9325C177.387 57.3624 177.744 57.7214 178.187 57.7366C178.631 57.7518 178.998 57.423 179.008 56.9932C179.018 56.5633 178.661 56.2043 178.218 56.184C177.769 56.1689 177.402 56.4976 177.397 56.9274V56.9325Z" fill="#263238"/>
<path d="M177.186 53.7617C177.287 53.8679 177.891 53.4026 178.763 53.3925C179.629 53.3672 180.274 53.8072 180.369 53.701C180.415 53.6555 180.309 53.4633 180.027 53.2661C179.75 53.0689 179.281 52.8767 178.738 52.8868C178.199 52.8969 177.745 53.1043 177.483 53.3116C177.222 53.524 177.131 53.7162 177.181 53.7617H177.186Z" fill="#263238"/>
<path d="M182.489 60.8164C182.489 60.7658 181.951 60.6799 181.074 60.5838C180.853 60.5635 180.641 60.5231 180.601 60.3714C180.545 60.2095 180.636 59.9719 180.737 59.7089C180.938 59.1678 181.15 58.5963 181.366 57.9996C182.243 55.5721 182.872 53.5745 182.777 53.5391C182.681 53.5037 181.89 55.4457 181.014 57.8731C180.802 58.4699 180.601 59.0413 180.409 59.5875C180.329 59.8404 180.188 60.1337 180.309 60.4624C180.369 60.6293 180.535 60.7456 180.676 60.781C180.817 60.8215 180.943 60.8215 181.054 60.8265C181.935 60.8619 182.484 60.8569 182.484 60.8063L182.489 60.8164Z" fill="#263238"/>
<path d="M177.603 50.7274C177.755 50.9398 178.414 50.788 179.195 50.8386C179.976 50.869 180.62 51.0864 180.792 50.8942C180.867 50.7982 180.776 50.5908 180.504 50.3835C180.238 50.1761 179.774 49.984 179.24 49.9536C178.706 49.9283 178.228 50.0699 177.941 50.2469C177.649 50.429 177.543 50.6262 177.609 50.7274H177.603Z" fill="#263238"/>
<path d="M186.317 57.1753C186.322 57.6051 185.964 57.9642 185.521 57.9743C185.078 57.9895 184.71 57.6557 184.705 57.2258C184.7 56.796 185.058 56.4369 185.501 56.4268C185.944 56.4116 186.312 56.7505 186.317 57.1753Z" fill="#263238"/>
<path d="M188.936 53.8982C188.835 53.9994 188.231 53.5341 187.365 53.5139C186.499 53.4835 185.849 53.9184 185.758 53.8122C185.713 53.7617 185.819 53.5746 186.101 53.3773C186.378 53.1801 186.851 52.993 187.39 53.0082C187.929 53.0233 188.382 53.2357 188.639 53.4431C188.901 53.6555 188.986 53.8476 188.936 53.8932V53.8982Z" fill="#263238"/>
<path d="M188.528 51.0864C188.351 51.2786 187.687 51.0612 186.881 51.0308C186.075 50.9752 185.39 51.132 185.239 50.9195C185.173 50.8184 185.284 50.6212 185.586 50.4391C185.884 50.2571 186.377 50.1155 186.931 50.1458C187.485 50.1761 187.959 50.3633 188.236 50.5757C188.518 50.7881 188.603 50.9904 188.528 51.0864Z" fill="#263238"/>
<path d="M194.244 59.0515C194.239 58.5811 194.763 57.4635 195.226 57.3826C196.46 57.1702 198.691 57.2359 198.757 60.3916C198.847 64.7003 194.108 64.0833 194.098 63.962C194.088 63.8659 194.259 60.6799 194.239 59.0565L194.244 59.0515Z" fill="#FFBF9D"/>
<path d="M195.665 62.1818C195.665 62.1818 195.741 62.2324 195.867 62.288C195.993 62.3437 196.204 62.3791 196.426 62.288C196.874 62.111 197.242 61.3778 197.247 60.604C197.247 60.2095 197.161 59.8404 197.015 59.5319C196.879 59.2183 196.667 59.0059 196.441 58.9655C196.214 58.92 196.053 59.0565 196.003 59.1829C195.947 59.3043 195.977 59.3903 195.952 59.4004C195.942 59.4105 195.857 59.3296 195.887 59.1526C195.902 59.0666 195.952 58.9655 196.048 58.8795C196.149 58.7935 196.3 58.748 196.461 58.7632C196.793 58.7784 197.096 59.0767 197.257 59.4156C197.433 59.7544 197.544 60.1691 197.544 60.6091C197.534 61.4789 197.111 62.3032 196.491 62.4954C196.189 62.5814 195.937 62.4954 195.806 62.3942C195.67 62.2931 195.645 62.197 195.66 62.1869L195.665 62.1818Z" fill="#FF9A6C"/>
<path d="M195.705 57.3927L194.572 58.4851C190.054 53.7819 181.316 42.1049 181.805 42.7977C181.805 42.7977 185.078 41.5992 188.549 42.3325C192.019 43.0708 198.576 45.0937 198.309 49.2254C198.042 53.3571 195.705 57.3927 195.705 57.3927Z" fill="#263238"/>
<path d="M186.166 62.1919C186.055 61.9947 185.884 61.8025 185.652 61.7621C185.426 61.7216 185.204 61.8379 185.008 61.9543C184.459 62.2678 183.658 62.8342 183.119 63.1528C183.245 63.7192 184.056 64.5031 184.645 64.5739C185.234 64.6447 185.839 64.3412 186.146 63.8456C186.453 63.35 186.453 62.6977 186.166 62.1919Z" fill="#FF9A6C"/>
<path d="M223.482 208.081L221.81 208.03L211.178 151.026L213.756 150.637L223.482 208.081Z" fill="#FAD8CC"/>
<path d="M163.281 208.081L164.953 208.03L175.595 151.026L173.017 150.637L163.281 208.081Z" fill="#FAD8CC"/>
<path d="M215.177 145.428C215.192 145.271 215.207 145.119 215.212 144.963C215.343 141.989 214.139 139.137 212.981 136.391C209.873 129.038 206.867 121.234 207.743 113.295C208.896 102.796 216.582 94.1178 219.327 83.963C219.649 82.7695 220.742 81.9452 221.981 81.9452C223.834 81.9452 225.184 83.7506 224.615 85.5206C221.558 95.0129 214.587 103.337 213.489 113.295C212.618 121.234 215.62 129.038 218.727 136.391C219.886 139.137 221.089 141.989 220.958 144.963C220.827 147.936 218.919 151.067 215.982 151.542H172.302C170.781 151.542 169.547 150.308 169.547 148.781V148.184C169.547 146.662 170.781 145.423 172.302 145.423H215.177V145.428Z" fill="#1D6C86"/>
<path d="M178.123 88.3173C178.194 88.3425 177.917 89.2882 177.509 90.4311C177.101 91.5741 176.713 92.4844 176.648 92.4591C176.577 92.4338 176.854 91.4881 177.262 90.3452C177.67 89.2023 178.053 88.297 178.123 88.3173Z" fill="#263238"/>
<path d="M143.719 101.542L164.801 98.5934L168.77 98.9474L176.934 97.2988C176.934 97.2988 165.043 106.295 163.3 106.331C161.552 106.366 142.893 105.78 142.893 105.78L143.719 101.547V101.542Z" fill="#FF9A6C"/>
<path d="M154.849 103.929C154.849 103.929 154.164 99.7667 155.065 99.7616C155.967 99.7565 168.482 97.8904 168.482 97.8904L178.54 88.7623L177.341 102.533L154.733 104.445" fill="#E0E0E0"/>
<path d="M181.563 75.8008L181.795 78.7693C181.795 78.7693 176.733 92.0646 175.993 95.5996C174.462 102.938 181.231 115.51 181.231 115.51L180.712 121.239C177.046 129.25 196.008 128.137 207.667 123.677L205.547 112.207C205.547 112.207 204.116 92.4186 203.426 87.0732C202.802 82.2335 200.606 74.2229 194.154 72.0534V69.9395L181.79 74.7438C181.599 74.8905 181.483 75.5631 181.558 75.7907L181.563 75.8008Z" fill="#E0E0E0"/>
<path d="M164.908 101.4L145.381 102.487L142.878 98.6288C142.878 98.6288 137.127 94.4668 136.789 94.932C136.452 95.3973 137.323 96.8942 137.323 96.8942L139.851 99.3065C139.851 99.3065 136.15 96.8537 135.263 97.0762C134.377 97.2988 134.629 98.9828 134.629 98.9828L134.674 100.348C134.674 100.348 133.264 100.591 133.873 102.275C133.873 102.275 133.249 103.838 133.873 105.072C133.873 105.072 133.49 105.901 134.357 107.216C135.223 108.531 136.694 109.274 136.694 109.274C136.694 109.274 170.302 109.856 172.23 108.779C174.159 107.701 195.101 89.976 195.101 89.976C195.076 89.3944 189.848 80.1095 189.848 80.1095C189.848 80.1095 172.18 101.071 171.465 101.107C170.75 101.137 164.903 101.4 164.903 101.4H164.908Z" fill="#FFBF9D"/>
<path d="M134.947 98.4316C134.947 98.4316 134.297 98.4619 134.055 99.0991C133.813 99.7363 134.01 100.116 134.111 100.379C134.211 100.642 135.531 101.597 136.196 101.865C136.86 102.133 137.727 101.547 137.52 100.92C137.314 100.293 134.947 98.4316 134.947 98.4316Z" fill="#FFBF9D"/>
<path d="M134.946 98.4316C134.966 98.4063 135.46 98.7401 136.205 99.3621C136.573 99.6807 137.016 100.04 137.439 100.551C137.535 100.682 137.661 100.844 137.671 101.051C137.691 101.253 137.616 101.461 137.49 101.613C137.243 101.921 136.84 102.098 136.422 102.053C136.205 102.027 136.029 101.936 135.868 101.855C135.707 101.769 135.551 101.678 135.405 101.582C135.107 101.395 134.835 101.198 134.579 100.996C134.453 100.894 134.332 100.793 134.216 100.682C134.161 100.626 134.105 100.571 134.055 100.5C133.989 100.404 133.984 100.348 133.954 100.277C133.843 100.004 133.813 99.7009 133.863 99.4531C133.909 99.2053 133.989 98.9828 134.115 98.8159C134.241 98.649 134.392 98.5529 134.523 98.4973C134.785 98.3861 134.946 98.4113 134.946 98.4265C134.946 98.4467 134.795 98.4619 134.569 98.5884C134.337 98.7047 134.095 99.0131 134.045 99.4784C134.015 99.706 134.045 99.9487 134.156 100.197C134.211 100.439 134.488 100.601 134.725 100.803C134.976 100.991 135.248 101.183 135.536 101.36C135.823 101.527 136.145 101.744 136.447 101.79C136.764 101.825 137.097 101.678 137.283 101.451C137.374 101.334 137.424 101.198 137.414 101.066C137.414 100.935 137.323 100.819 137.238 100.692C136.855 100.212 136.422 99.8223 136.074 99.4936C135.364 98.8463 134.916 98.4569 134.936 98.4265L134.946 98.4316Z" fill="#FF9A6C"/>
<path d="M133.485 101.688C133.485 101.688 132.946 102.417 132.972 102.922C132.992 103.428 133.38 103.443 134.472 103.989C135.565 104.536 137.303 104.551 137.399 103.858C137.494 103.17 137.625 102.745 136.683 102.31C135.742 101.876 133.883 101.173 133.485 101.688Z" fill="#FFBF9D"/>
<path d="M133.485 101.688C133.485 101.688 133.5 101.648 133.561 101.587C133.626 101.537 133.742 101.481 133.898 101.466C134.211 101.42 134.649 101.486 135.167 101.633C135.686 101.784 136.286 101.987 136.935 102.31C137.096 102.396 137.263 102.503 137.399 102.675C137.54 102.841 137.6 103.074 137.595 103.281C137.595 103.489 137.555 103.686 137.53 103.883C137.494 104.156 137.253 104.328 137.051 104.399C136.628 104.556 136.21 104.541 135.817 104.505C135.424 104.46 135.052 104.369 134.714 104.237C134.372 104.096 134.095 103.934 133.803 103.802C133.526 103.661 133.239 103.57 133.022 103.337C132.81 103.069 132.886 102.771 132.951 102.568C133.022 102.356 133.113 102.194 133.193 102.068C133.354 101.81 133.47 101.688 133.485 101.698C133.5 101.709 133.415 101.85 133.284 102.118C133.218 102.25 133.143 102.417 133.092 102.614C133.042 102.801 133.017 103.059 133.163 103.221C133.984 103.656 135.444 104.591 136.955 104.161C137.127 104.096 137.258 103.989 137.273 103.853C137.298 103.656 137.333 103.463 137.338 103.286C137.363 102.932 137.122 102.695 136.819 102.533C136.21 102.219 135.611 101.987 135.112 101.825C134.613 101.663 134.19 101.572 133.903 101.582C133.606 101.577 133.5 101.724 133.485 101.704V101.688Z" fill="#FF9A6C"/>
<path d="M133.505 104.91C133.505 104.91 133.092 105.704 133.112 106.209C133.132 106.715 133.616 107.145 134.301 107.438C134.532 107.54 134.895 107.499 135.288 107.388C136.068 107.165 136.95 106.649 137.096 106.326C137.312 105.84 137.524 105.233 137.04 105.016C136.557 104.799 133.787 104.389 133.505 104.905V104.91Z" fill="#FFBF9D"/>
<path d="M133.505 104.91C133.505 104.91 133.515 104.869 133.57 104.804C133.636 104.753 133.741 104.697 133.882 104.657C134.17 104.586 134.598 104.561 135.116 104.591C135.635 104.622 136.25 104.677 136.93 104.854C137.096 104.895 137.327 105.006 137.408 105.228C137.494 105.446 137.453 105.658 137.408 105.845C137.358 106.043 137.287 106.215 137.201 106.402C137.076 106.619 136.909 106.73 136.743 106.852C136.406 107.084 136.048 107.251 135.696 107.388C135.338 107.519 134.98 107.62 134.608 107.615C134.421 107.62 134.22 107.54 134.084 107.464C133.933 107.388 133.797 107.307 133.666 107.216C133.409 107.034 133.193 106.806 133.092 106.538C132.981 106.27 133.031 105.997 133.082 105.8C133.137 105.598 133.208 105.431 133.268 105.299C133.394 105.036 133.485 104.9 133.5 104.91C133.515 104.92 133.454 105.067 133.364 105.34C133.318 105.476 133.263 105.643 133.228 105.84C133.192 106.038 133.162 106.26 133.263 106.472C133.359 106.685 133.55 106.882 133.792 107.044C133.913 107.125 134.044 107.196 134.185 107.266C134.336 107.337 134.452 107.388 134.613 107.383C135.242 107.357 135.963 107.054 136.597 106.644C136.748 106.538 136.909 106.412 136.97 106.295C137.045 106.134 137.116 105.957 137.161 105.79C137.207 105.623 137.227 105.451 137.176 105.33C137.131 105.203 137.015 105.137 136.859 105.092C136.224 104.915 135.605 104.834 135.101 104.783C134.593 104.733 134.18 104.728 133.903 104.768C133.762 104.788 133.666 104.824 133.6 104.854C133.55 104.9 133.515 104.92 133.505 104.92V104.91Z" fill="#FF9A6C"/>
<path d="M135.434 107.56C135.369 107.62 135.192 108.136 135.479 108.571C135.766 109.006 136.285 108.87 137.026 108.713C137.766 108.556 138.924 107.256 138.491 106.826C138.058 106.397 136.809 106.336 135.434 107.56Z" fill="#FFBF9D"/>
<path d="M135.434 107.56C135.434 107.56 135.505 107.454 135.666 107.297C135.837 107.15 136.089 106.943 136.452 106.756C136.809 106.574 137.283 106.392 137.847 106.437C137.988 106.452 138.129 106.478 138.27 106.538C138.411 106.604 138.547 106.66 138.663 106.847C138.753 107.039 138.703 107.221 138.653 107.373C138.597 107.529 138.512 107.661 138.421 107.797C138.235 108.055 138.018 108.273 137.781 108.455C137.55 108.632 137.288 108.794 137.001 108.839C136.744 108.89 136.497 108.94 136.255 108.961C136.019 108.981 135.752 108.956 135.57 108.804C135.223 108.49 135.238 108.091 135.278 107.873C135.319 107.646 135.419 107.54 135.434 107.555C135.445 107.565 135.389 107.671 135.379 107.883C135.364 108.086 135.409 108.435 135.686 108.652C135.963 108.854 136.457 108.708 136.955 108.602C137.414 108.495 137.867 108.096 138.21 107.641C138.366 107.418 138.507 107.125 138.436 106.963C138.411 106.897 138.28 106.811 138.174 106.766C138.063 106.715 137.943 106.69 137.822 106.675C137.333 106.619 136.88 106.766 136.532 106.923C135.827 107.246 135.465 107.595 135.434 107.56Z" fill="#FF9A6C"/>
<path d="M136.351 97.2027C136.351 97.2027 136.16 96.1963 136.83 95.9586C137.505 95.7209 138.195 97.2684 138.437 98.0624C138.678 98.8563 136.351 97.2027 136.351 97.2027Z" fill="#FFBF9D"/>
<path d="M136.351 97.2027C136.371 97.1723 136.698 97.3696 137.237 97.673C137.504 97.8196 137.832 98.0118 138.189 98.1281C138.27 98.1686 138.396 98.1332 138.33 98.1635C138.34 98.1787 138.3 98.0371 138.265 97.941C138.194 97.7337 138.109 97.5213 138.013 97.3139C137.821 96.8942 137.605 96.4997 137.333 96.2367C137.197 96.1053 137.046 96.0294 136.915 96.0547C136.774 96.08 136.643 96.171 136.567 96.2823C136.411 96.5098 136.391 96.7728 136.376 96.9346C136.366 97.1066 136.366 97.2027 136.351 97.2027C136.336 97.2027 136.295 97.1116 136.275 96.9346C136.26 96.7627 136.24 96.4845 136.411 96.1761C136.502 96.0243 136.653 95.8878 136.87 95.8372C137.101 95.7867 137.333 95.908 137.489 96.0547C137.816 96.3581 138.043 96.7677 138.245 97.2027C138.345 97.4252 138.431 97.6426 138.501 97.8601L138.552 98.0219C138.562 98.0927 138.597 98.1534 138.552 98.2748C138.486 98.4063 138.35 98.4063 138.295 98.4012C138.224 98.4012 138.169 98.381 138.114 98.3658C137.701 98.2141 137.398 98.0068 137.131 97.8348C136.613 97.4859 136.321 97.233 136.341 97.2027H136.351Z" fill="#FF9A6C"/>
<path d="M155.947 101.648C155.947 101.648 156.265 108.799 156.783 109.178C157.302 109.557 177.372 110.023 178.918 108.773C180.469 107.524 199.316 87.1541 199.658 85.7836C200.001 84.4131 194.949 76.6706 192.522 76.0738C190.094 75.4771 169.918 100.252 169.918 100.252L155.947 101.653V101.648Z" fill="#E0E0E0"/>
<path d="M187.32 80.2561C187.32 80.2561 187.244 80.3725 187.073 80.5747C186.887 80.7973 186.64 81.0906 186.333 81.4597C185.663 82.2436 184.721 83.341 183.568 84.6862C181.201 87.412 177.957 91.1442 174.376 95.2658C172.85 97.0055 171.39 98.6794 170.05 100.207L170.02 100.242H169.975C166.152 100.647 162.873 100.985 160.516 101.228C159.373 101.339 158.451 101.425 157.792 101.491C157.494 101.516 157.253 101.537 157.066 101.552C156.9 101.562 156.814 101.567 156.814 101.557C156.814 101.552 156.9 101.532 157.061 101.506C157.248 101.481 157.484 101.451 157.786 101.405C158.446 101.324 159.363 101.213 160.501 101.071C162.853 100.803 166.127 100.429 169.944 99.9942L169.869 100.035C171.203 98.5024 172.664 96.8285 174.185 95.0837C177.791 90.9824 181.055 87.2654 183.437 84.5547C184.615 83.2297 185.577 82.1526 186.262 81.3839C186.59 81.0299 186.847 80.7416 187.043 80.5292C187.224 80.337 187.32 80.2359 187.33 80.241L187.32 80.2561Z" fill="#263238"/>
<path d="M197.358 77.1814C197.338 77.2623 196.088 76.8577 194.517 76.9993C192.946 77.1207 191.782 77.7276 191.747 77.6466C191.707 77.6011 192.86 76.8628 194.497 76.7364C196.134 76.5897 197.393 77.1258 197.358 77.1763V77.1814Z" fill="#263238"/>
<path d="M193.409 95.8828C193.409 95.8828 193.218 96.1053 192.83 96.4694C192.447 96.8386 191.883 97.3544 191.183 97.9916C189.778 99.2609 187.799 100.97 185.548 102.786C183.301 104.601 181.211 106.179 179.675 107.287C178.91 107.843 178.28 108.283 177.842 108.581C177.404 108.88 177.157 109.036 177.147 109.021C177.137 109.006 177.363 108.819 177.781 108.5C178.24 108.151 178.839 107.696 179.564 107.14C181.07 105.992 183.135 104.394 185.381 102.583C187.623 100.768 189.622 99.0839 191.057 97.855C191.747 97.2634 192.321 96.7728 192.76 96.3986C193.163 96.0547 193.394 95.8726 193.404 95.8878L193.409 95.8828Z" fill="#263238"/>
<path d="M193 73.0345C193 73.0345 192.874 73.1457 192.617 73.3076C192.36 73.4694 191.987 73.6869 191.514 73.9498C190.572 74.4707 189.248 75.1433 187.772 75.8513C186.296 76.5593 184.962 77.2016 184 77.682C183.038 78.1574 182.448 78.4608 182.428 78.4305C182.418 78.4153 182.554 78.3192 182.811 78.1574C183.068 77.9956 183.441 77.7781 183.914 77.5151C184.856 76.9943 186.18 76.3216 187.656 75.6136C189.132 74.9056 190.466 74.2634 191.428 73.783C192.39 73.3076 192.98 73.0042 193 73.0345Z" fill="#263238"/>
<path d="M184.367 64.6346C184.367 64.584 184.801 64.7408 185.375 64.4525C185.652 64.3109 185.939 64.0429 186.085 63.6585C186.231 63.2793 186.256 62.7836 186.065 62.3639C185.969 62.1566 185.808 61.9947 185.622 61.9593C185.44 61.9189 185.239 62.0099 185.052 62.1161C184.695 62.3184 184.357 62.5156 184.04 62.6977C183.456 63.0213 183.088 63.2084 183.073 63.1781C183.053 63.1478 183.39 62.905 183.944 62.5409C184.257 62.3437 184.584 62.1313 184.932 61.9088C185.123 61.7975 185.365 61.661 185.667 61.7115C185.964 61.7621 186.181 62.0048 186.296 62.2526C186.528 62.7685 186.488 63.3197 186.306 63.7546C186.125 64.1946 185.773 64.493 185.45 64.6245C185.123 64.7661 184.831 64.7711 184.644 64.7408C184.453 64.7104 184.357 64.6548 184.362 64.6396L184.367 64.6346Z" fill="#263238"/>
<path d="M203.29 74.7337C203.29 74.7337 203.29 74.5921 203.3 74.3241C203.32 74.0308 203.35 73.6413 203.381 73.1508C203.451 72.1343 203.567 70.6576 203.577 68.837C203.577 67.0215 203.471 64.8318 202.822 62.5207C202.499 61.3676 202.021 60.1994 201.386 59.0616C200.757 57.9237 199.956 56.8263 199.064 55.7693C197.261 53.6656 195.232 51.9512 193.363 50.4441C191.485 48.9422 189.767 47.6121 188.392 46.4136C187.012 45.2201 185.965 44.1733 185.285 43.4147C184.947 43.0303 184.691 42.732 184.524 42.5196C184.358 42.3072 184.273 42.1959 184.278 42.1909C184.283 42.1858 184.383 42.2869 184.565 42.4842C184.741 42.6865 185.008 42.9747 185.36 43.3439C186.06 44.0822 187.123 45.1038 188.513 46.272C189.903 47.4452 191.626 48.7601 193.514 50.252C195.398 51.7489 197.443 53.4683 199.266 55.5923C200.167 56.6594 200.978 57.7669 201.613 58.9301C202.252 60.0882 202.736 61.2766 203.058 62.4499C203.708 64.8014 203.789 67.0064 203.768 68.832C203.733 70.6627 203.592 72.1343 203.491 73.1508C203.436 73.6413 203.391 74.0308 203.36 74.319C203.325 74.587 203.305 74.7236 203.295 74.7236L203.29 74.7337Z" fill="#455A64"/>
<path d="M169.868 185.127C169.868 185.127 169.929 185.314 169.984 185.668C170.045 186.017 170.11 186.527 170.181 187.154C170.312 188.414 170.417 190.169 170.332 192.105C170.246 194.042 169.994 195.782 169.758 197.026C169.637 197.648 169.531 198.149 169.44 198.493C169.355 198.836 169.299 199.024 169.279 199.019C169.259 199.019 169.279 198.821 169.339 198.472C169.405 198.068 169.481 197.572 169.571 196.996C169.763 195.747 169.984 194.017 170.065 192.095C170.15 190.174 170.075 188.434 169.989 187.175C169.904 185.915 169.818 185.137 169.863 185.132L169.868 185.127Z" fill="#FF9A6C"/>
<path d="M48.0383 148.998V188.717H43.0371V150.187L48.0383 148.998Z" fill="#E0E0E0"/>
<path d="M48.038 148.998C48.038 148.998 47.9222 149.034 47.7056 149.089C47.479 149.145 47.1567 149.226 46.7437 149.332C45.8925 149.544 44.6586 149.848 43.052 150.247L43.0973 150.187C43.1376 157.317 43.1678 171.882 43.1678 188.717L43.0369 188.586H43.5556C45.0917 188.586 46.6077 188.586 48.033 188.586L47.9021 188.717C47.9272 177.571 47.9474 167.664 47.9625 160.534C47.9776 156.968 47.9927 154.096 48.0028 152.098C48.0078 151.112 48.0129 150.343 48.0179 149.807C48.0179 149.554 48.0229 149.352 48.028 149.211C48.028 149.074 48.033 149.003 48.038 148.998C48.0431 148.993 48.0431 149.059 48.0481 149.19C48.0481 149.332 48.0481 149.524 48.0582 149.772C48.0582 150.298 48.0683 151.056 48.0733 152.027C48.0834 154.015 48.0934 156.877 48.1136 160.427C48.1287 167.588 48.1488 177.531 48.174 188.722V188.854H48.0431C46.6127 188.854 45.0968 188.854 43.5657 188.854H42.916V188.722C42.916 171.887 42.9462 157.317 42.9865 150.192V150.141L43.0319 150.131C44.6636 149.762 45.9177 149.474 46.7789 149.276C47.1869 149.185 47.5042 149.114 47.7308 149.064C47.9423 149.018 48.0431 148.998 48.0431 148.998H48.038Z" fill="#263238"/>
<path d="M48.5441 177.091H42.7422V186.75H48.5441V177.091Z" fill="#263238"/>
<path d="M12.25 194.245C12.25 194.245 28.019 186.851 45.5406 185.713V190.831C45.5406 190.831 22.6905 192.945 14.194 195.949V197.087H12.255V194.245H12.25Z" fill="#263238"/>
<path d="M78.8277 194.245C78.8277 194.245 63.0587 186.851 45.5371 185.713V190.831C45.5371 190.831 68.3872 192.945 76.8836 195.949V198.872H78.8227V194.24L78.8277 194.245Z" fill="#263238"/>
<path d="M44.4042 185.567C44.2732 185.612 36.2855 193.936 35.7164 197.036L35.5703 201.694L37.3482 200.667V199.292C37.3482 199.292 43.4372 191.377 46.4338 190.947V185.561H44.4042V185.567Z" fill="#263238"/>
<path d="M41.6038 203.636C41.4376 203.626 41.3067 203.474 41.1354 203.277C40.9692 203.079 40.7728 202.842 40.5008 202.604C40.2289 202.371 39.8763 202.134 39.4633 201.977C39.2568 201.901 39.0403 201.835 38.8136 201.81C38.582 201.78 38.3352 201.77 38.0783 201.795C37.5646 201.835 37.066 201.992 36.643 202.194C36.2199 202.407 35.8925 202.645 35.6155 202.913C35.0666 203.444 34.7845 203.99 34.4572 203.975C34.301 203.964 34.1449 203.803 34.0643 203.474C33.9837 203.15 33.9888 202.655 34.1902 202.088C34.3866 201.522 34.8299 200.88 35.4695 200.394C36.1091 199.909 36.9451 199.55 37.8869 199.469C38.3553 199.428 38.8288 199.469 39.272 199.575C39.7252 199.681 40.1281 199.868 40.4757 200.091C41.1757 200.536 41.6441 201.148 41.8808 201.719C42.1226 202.296 42.1226 202.827 42.0269 203.16C41.9815 203.327 41.911 203.449 41.8304 203.53C41.7549 203.605 41.6743 203.641 41.5988 203.636H41.6038Z" fill="#263238"/>
<path d="M38.0366 207.267C39.7612 207.267 41.1592 205.863 41.1592 204.131C41.1592 202.4 39.7612 200.996 38.0366 200.996C36.3121 200.996 34.9141 202.4 34.9141 204.131C34.9141 205.863 36.3121 207.267 38.0366 207.267Z" fill="#263238"/>
<path d="M16.7132 199.873C16.547 199.863 16.416 199.711 16.2448 199.514C16.0786 199.317 15.8822 199.074 15.6102 198.842C15.3382 198.609 14.9857 198.371 14.5727 198.214C14.3662 198.139 14.1497 198.073 13.923 198.048C13.6913 198.017 13.4446 198.007 13.1877 198.032C12.674 198.073 12.1754 198.23 11.7523 198.432C11.3293 198.644 11.0019 198.882 10.7249 199.15C10.1759 199.681 9.8939 200.227 9.56653 200.212C9.41041 200.202 9.25428 200.04 9.1737 199.711C9.09311 199.388 9.09815 198.892 9.29961 198.326C9.49602 197.764 9.93923 197.117 10.5789 196.632C11.2185 196.146 12.0545 195.787 12.9963 195.706C13.4647 195.666 13.9381 195.706 14.3813 195.812C14.8346 195.918 15.2375 196.106 15.585 196.328C16.2851 196.773 16.7535 197.385 16.9902 197.957C17.2319 198.533 17.2319 199.064 17.1362 199.398C17.0909 199.565 17.0204 199.686 16.9398 199.767C16.8643 199.843 16.7837 199.878 16.7081 199.873H16.7132Z" fill="#263238"/>
<path d="M16.2647 200.374C16.2647 202.103 14.8645 203.509 13.1421 203.509C11.4196 203.509 10.0195 202.103 10.0195 200.374C10.0195 198.644 11.4196 197.238 13.1421 197.238C14.8645 197.238 16.2647 198.644 16.2647 200.374Z" fill="#263238"/>
<path d="M81.8792 200.753C81.713 200.743 81.5821 200.591 81.4108 200.394C81.2446 200.197 81.0482 199.959 80.7762 199.721C80.5043 199.489 80.1517 199.251 79.7387 199.094C79.5322 199.019 79.3157 198.953 79.089 198.928C78.8574 198.897 78.6106 198.887 78.3537 198.912C77.84 198.953 77.3414 199.11 76.9184 199.312C76.4953 199.524 76.1679 199.762 75.8909 200.03C75.342 200.561 75.0599 201.107 74.7325 201.092C74.5764 201.082 74.4203 200.92 74.3397 200.591C74.2591 200.268 74.2642 199.772 74.4656 199.206C74.662 198.644 75.1052 197.997 75.7449 197.512C76.3845 197.026 77.2205 196.667 78.1623 196.586C78.6307 196.546 79.1041 196.586 79.5474 196.692C80.0006 196.798 80.4035 196.986 80.7511 197.208C81.4511 197.653 81.9195 198.265 82.1562 198.836C82.398 199.413 82.3979 199.944 82.3023 200.278C82.2569 200.445 82.1864 200.566 82.1058 200.647C82.0303 200.723 81.9497 200.758 81.8742 200.753H81.8792Z" fill="#263238"/>
<path d="M81.4365 201.254C81.4365 202.983 80.0364 204.389 78.314 204.389C76.5915 204.389 75.1914 202.983 75.1914 201.254C75.1914 199.524 76.5915 198.118 78.314 198.118C80.0364 198.118 81.4365 199.524 81.4365 201.254Z" fill="#263238"/>
<path d="M44.2673 185.835C44.2673 185.835 44.1917 185.931 44.0356 186.087C43.8795 186.244 43.6528 186.467 43.3809 186.75C42.8319 187.311 42.0966 188.11 41.3109 189.015C40.5252 189.921 39.8403 190.765 39.3518 191.382C39.1251 191.67 38.9287 191.913 38.7726 192.11C38.6366 192.282 38.556 192.373 38.5459 192.368C38.5359 192.363 38.6013 192.257 38.7222 192.075C38.8431 191.893 39.0294 191.63 39.2661 191.316C39.7345 190.684 40.4094 189.83 41.1951 188.919C41.9808 188.009 42.7362 187.22 43.3053 186.679C43.5874 186.406 43.8291 186.194 43.9953 186.052C44.1666 185.91 44.2622 185.835 44.2673 185.845V185.835Z" fill="#455A64"/>
<path d="M46.7997 186.31C46.7997 186.31 46.8702 186.538 46.9155 186.922C46.9558 187.301 46.986 187.832 46.9609 188.419C46.9357 189.005 46.8601 189.531 46.7846 189.906C46.709 190.28 46.6385 190.507 46.6184 190.502C46.5731 190.492 46.7594 189.567 46.8047 188.409C46.8601 187.251 46.7544 186.315 46.8047 186.31H46.7997Z" fill="#455A64"/>
<path d="M93.7087 174.284L91.3567 189.005C91.3567 189.005 106.32 196.364 106.164 199.125L75.9453 195.544L79.8435 172.605L93.7036 174.284H93.7087Z" fill="#263238"/>
<path d="M75.9453 195.544L76.313 193.228L105.146 197.527C105.146 197.527 106.426 198.245 106.164 199.125L75.9453 195.544Z" fill="#455A64"/>
<path d="M91.86 188.919C91.8398 189.061 91.0944 189.036 90.3138 189.4C89.5231 189.744 89.0748 190.31 88.9439 190.234C88.8129 190.189 89.1353 189.38 90.0871 188.955C91.034 188.52 91.9103 188.793 91.86 188.919Z" fill="white"/>
<path d="M94.8823 190.538C94.8974 190.679 94.2326 190.841 93.6585 191.372C93.0692 191.888 92.8627 192.515 92.7167 192.49C92.5756 192.495 92.5706 191.66 93.3009 191.013C94.0211 190.356 94.8974 190.401 94.8823 190.533V190.538Z" fill="white"/>
<path d="M96.2413 194.356C96.1053 194.371 95.9845 193.643 96.4528 192.925C96.9212 192.196 97.6515 191.979 97.7019 192.1C97.7724 192.227 97.2738 192.586 96.8961 193.183C96.5032 193.774 96.3874 194.361 96.2413 194.356Z" fill="white"/>
<path d="M92.006 185.501C91.9305 185.622 91.2757 185.349 90.4347 185.304C89.5936 185.243 88.9137 185.43 88.8532 185.304C88.7777 185.192 89.4777 184.747 90.4649 184.813C91.452 184.874 92.0916 185.4 92.006 185.501Z" fill="white"/>
<path d="M84.371 182.193L78.8209 195.286C78.8209 195.286 90.9989 205.557 90.2182 208.081L63.0469 197.785L70.813 177.015L84.371 182.193Z" fill="#263238"/>
<path d="M63.0469 197.785L63.9182 195.721L89.6441 206.367C89.6441 206.367 90.6614 207.322 90.2182 208.081L63.0469 197.785Z" fill="#455A64"/>
<path d="M79.3094 195.322C79.2591 195.448 78.5741 195.251 77.7632 195.408C76.9524 195.544 76.4084 195.964 76.3027 195.868C76.1919 195.797 76.6754 195.119 77.6524 194.947C78.6295 194.765 79.3749 195.221 79.3044 195.322H79.3094Z" fill="white"/>
<path d="M81.7311 197.517C81.716 197.648 81.0612 197.648 80.4065 198.007C79.7417 198.351 79.4093 198.882 79.2783 198.826C79.1474 198.801 79.3337 198.027 80.1547 197.592C80.9706 197.152 81.7714 197.395 81.7311 197.517Z" fill="white"/>
<path d="M82.1188 201.37C81.9878 201.35 82.0432 200.652 82.6476 200.091C83.2469 199.524 83.9772 199.489 83.9923 199.615C84.0276 199.747 83.4836 199.964 82.9951 200.435C82.4965 200.89 82.2547 201.406 82.1188 201.37Z" fill="white"/>
<path d="M51.5851 120.43C53.1665 120.066 85.7118 124.41 91.3022 125.867C95.2608 126.898 98.6704 130.433 98.4488 137.008C97.8797 153.757 93.3872 184.454 93.3872 184.454L77.8399 181.951C77.8399 181.951 78.9731 173.687 79.663 154.101C79.8695 148.224 81.8942 142.955 81.8942 142.955L51.842 136.896L51.5801 120.435L51.5851 120.43Z" fill="#263238"/>
<path d="M59.1449 122.61C59.8802 122.934 93.8406 127.389 96.8977 134.555C98.7159 138.818 93.9363 153.216 91.8613 160.306C89.6755 167.786 81.3957 192.545 81.3957 192.545L64.8461 187.792L77.3363 146.389C77.3363 146.389 54.9093 145.534 54.4711 145.534C54.0329 145.534 40.616 144.644 36.3602 144.158C35.2018 144.027 34.0686 143.314 33.0362 142.373C30.1906 139.769 28.6797 136.001 28.6797 132.133V121.128L55.3373 116.855L59.1449 122.6V122.61Z" fill="#263238"/>
<path d="M81.5617 192.859L64.5337 187.969L76.9988 146.631C74.2338 146.525 54.8739 145.787 54.4659 145.787C53.8968 145.787 40.4647 144.882 36.3298 144.411C35.2369 144.285 34.0685 143.663 32.8648 142.56C30.0444 139.976 28.4277 136.178 28.4277 132.138V120.916L55.4581 116.587L59.3009 122.392C59.5577 122.453 60.434 122.595 61.5068 122.777C69.6607 124.127 94.47 128.228 97.1292 134.459C98.756 138.277 95.2859 149.797 92.9843 157.423C92.662 158.501 92.3598 159.497 92.1029 160.382C89.9373 167.78 81.7179 192.384 81.6322 192.631L81.5567 192.859H81.5617ZM65.1632 187.62L81.2344 192.237C82.0754 189.713 89.5746 167.239 91.6194 160.235C91.8763 159.35 92.1785 158.354 92.5058 157.277C94.7823 149.721 98.2221 138.302 96.6659 134.656C94.9737 130.691 83.118 126.863 61.4262 123.277C59.7189 122.994 59.1749 122.903 59.039 122.842L58.9735 122.812L55.2163 117.138L28.9314 121.351V132.138C28.9314 136.037 30.4876 139.703 33.2073 142.191C34.3304 143.223 35.4031 143.799 36.3903 143.911C40.7719 144.411 54.1184 145.281 54.4709 145.281C54.9142 145.281 76.4296 146.1 77.3463 146.136L77.6736 146.151L77.5779 146.465L65.1632 187.625V187.62Z" fill="#455A64"/>
<path d="M75.6833 46.0191C77.0079 46.3681 78.5239 45.6854 79.1434 44.4565C79.3297 44.0873 79.4405 43.6625 79.3549 43.2579C79.2693 42.8533 78.957 42.4791 78.5541 42.4134C79.1434 42.0998 79.6268 41.5638 79.8031 40.9215C79.9844 40.2792 79.8333 39.5358 79.365 39.0554C78.9016 38.575 78.121 38.4132 77.5317 38.7216C77.6274 38.0035 77.2749 37.25 76.6654 36.8657L73.6738 37.1944L75.6833 46.0141V46.0191Z" fill="#263238"/>
<path d="M65.5895 72.9283L68.7171 67.4716C68.7171 67.4716 74.927 67.1935 75.6724 61.0743C76.035 58.1209 76.2818 51.9714 76.448 46.4085C76.6242 40.4259 72.1922 35.3131 66.2644 34.6557L65.6751 34.59C59.2839 34.2612 55.4361 39.5257 55.285 45.9483L55.0332 64.7964L64.8693 73.8993L65.5845 72.9283H65.5895Z" fill="#FAD8CC"/>
<path d="M68.7184 67.4716C68.7184 67.4716 64.8354 67.3705 60.9473 64.8925C60.9473 64.8925 61.6725 68.9129 67.8219 69.0343L68.7184 67.4716Z" fill="#FAD8CC"/>
<path d="M74.1172 52.1788C74.0819 52.644 73.6639 52.998 73.1804 52.9677C72.6969 52.9424 72.3343 52.5429 72.3696 52.0776C72.4048 51.6124 72.8228 51.2584 73.3063 51.2887C73.7898 51.314 74.1524 51.7135 74.1172 52.1788Z" fill="#263238"/>
<path d="M74.8066 49.2658C74.6857 49.367 74.0814 48.8056 73.1396 48.7045C72.2028 48.5882 71.4624 48.9978 71.3718 48.8714C71.3264 48.8157 71.4624 48.6185 71.7848 48.4365C72.1021 48.2493 72.6309 48.0926 73.2151 48.1634C73.7993 48.2291 74.2677 48.5022 74.5246 48.7551C74.7865 49.0079 74.862 49.2254 74.8066 49.2709V49.2658Z" fill="#263238"/>
<path d="M66.043 51.223C66.0077 51.6882 65.5897 52.0422 65.1062 52.0119C64.6227 51.9866 64.2601 51.5871 64.2953 51.1218C64.3306 50.6566 64.7486 50.3026 65.2321 50.3329C65.7156 50.3582 66.0782 50.7577 66.043 51.223Z" fill="#263238"/>
<path d="M65.5705 48.4213C65.4496 48.5224 64.8402 47.9611 63.9034 47.8599C62.9667 47.7436 62.2263 48.1533 62.1357 48.0268C62.0903 47.9712 62.2213 47.774 62.5486 47.5919C62.8659 47.4048 63.3948 47.248 63.979 47.3188C64.5632 47.3846 65.0316 47.6577 65.2884 47.9105C65.5503 48.1634 65.6259 48.3808 65.5705 48.4264V48.4213Z" fill="#263238"/>
<path d="M68.209 55.7795C68.209 55.7238 68.8033 55.6884 69.7602 55.6733C70.0019 55.6733 70.2336 55.653 70.2941 55.4912C70.3696 55.3243 70.2941 55.0512 70.2135 54.763C70.0523 54.1561 69.8861 53.5189 69.7048 52.8564C69.0098 50.1407 68.5313 47.9206 68.6421 47.8903C68.7529 47.865 69.4077 50.0396 70.1027 52.7553C70.2689 53.4228 70.43 54.06 70.5811 54.6719C70.6416 54.9551 70.7624 55.2839 70.6013 55.6278C70.5157 55.7997 70.3293 55.911 70.1681 55.9362C70.012 55.9666 69.876 55.9565 69.7552 55.9464C68.7982 55.8907 68.209 55.83 68.209 55.7795Z" fill="#263238"/>
<path d="M65.3783 56.1233C65.5294 56.1335 65.4236 57.155 66.2143 57.9743C67.0051 58.7986 68.103 58.8036 68.0929 58.9452C68.0979 59.011 67.831 59.1172 67.3677 59.0767C66.9144 59.0413 66.2748 58.8239 65.7913 58.3232C65.3078 57.8175 65.1466 57.2005 65.1567 56.7757C65.1668 56.3459 65.3078 56.1031 65.3733 56.1183L65.3783 56.1233Z" fill="#263238"/>
<path d="M66.2205 44.7549C66.0996 45.0027 65.178 44.7751 64.0649 44.7852C62.9519 44.7751 62.0252 44.9976 61.9043 44.7549C61.8489 44.6385 62.0302 44.416 62.418 44.2036C62.8008 43.9963 63.3951 43.8243 64.0599 43.8243C64.7297 43.8243 65.319 43.9963 65.7018 44.2036C66.0896 44.411 66.2709 44.6335 66.2155 44.7498L66.2205 44.7549Z" fill="#263238"/>
<path d="M74.7615 46.4996C74.5751 46.6968 73.9506 46.4035 73.175 46.3074C72.4044 46.186 71.7245 46.2922 71.5986 46.0495C71.5432 45.9332 71.6691 45.7309 71.9814 45.5589C72.2886 45.387 72.7771 45.2757 73.311 45.3516C73.8449 45.4274 74.283 45.6702 74.5298 45.923C74.7816 46.1708 74.8471 46.4035 74.7615 46.4996Z" fill="#263238"/>
<path d="M76.1676 43.5361C76.1676 43.5361 74.979 39.5207 73.2364 38.4233C71.1261 37.0932 69.8922 39.4448 67.8323 38.6155C65.7724 37.781 63.7579 36.5066 61.4008 37.9176C58.8272 39.46 59.7993 40.8507 59.3561 43.5512C57.553 54.5051 55.2061 57.4028 55.2061 52.1484C55.2061 51.5719 53.6851 50.9448 53.7153 48.5174C53.7556 45.3668 54.0527 41.5739 54.9845 39.4347C55.7752 37.6344 56.9738 36.4662 59.0237 35.2575C62.2671 33.3459 66.3869 33.7555 69.1468 34.3472C71.9118 34.9389 76.9432 38.7621 76.1625 43.5411L76.1676 43.5361Z" fill="#263238"/>
<path d="M55.6133 52.022C55.6788 51.0712 54.9485 50.2368 54.0016 50.2216C52.8533 50.2065 51.5137 50.7122 51.3324 53.084C51.005 57.2865 55.2759 56.7504 55.291 56.6291C55.301 56.5482 55.4924 53.7819 55.6133 52.022Z" fill="#FAD8CC"/>
<path d="M54.5045 54.9754C54.5045 54.9754 54.429 55.0209 54.298 55.0664C54.1721 55.1119 53.9656 55.1321 53.7541 55.0361C53.326 54.8388 53.0087 54.1055 53.044 53.347C53.0641 52.9626 53.1699 52.6036 53.331 52.3153C53.4821 52.0169 53.6987 51.8197 53.9253 51.7944C54.152 51.759 54.298 51.9057 54.3383 52.0271C54.3836 52.1484 54.3534 52.2293 54.3736 52.2395C54.3836 52.2496 54.4693 52.1737 54.4491 52.0018C54.439 51.9158 54.3987 51.8147 54.3031 51.7236C54.2074 51.6326 54.0663 51.582 53.9102 51.5871C53.5879 51.5871 53.2706 51.8602 53.0994 52.1788C52.908 52.4974 52.777 52.9019 52.7569 53.3318C52.7166 54.1814 53.0893 55.0057 53.6785 55.2282C53.9656 55.3294 54.2174 55.2586 54.3534 55.1675C54.4894 55.0715 54.5196 54.9804 54.5045 54.9703V54.9754Z" fill="#FAD8CC"/>
<path d="M70.5469 42.1302C70.5469 42.1302 70.5671 42.1352 70.5772 42.1352C70.6025 42.1352 70.6278 42.1403 70.6531 42.1504L70.5469 42.1302Z" fill="#1D6C86"/>
<path d="M78.9813 35.6671C78.7245 34.5647 77.7928 33.7049 76.7402 33.3054C75.6825 32.911 74.5141 32.9211 73.401 33.0981C73.6327 31.5809 72.0664 30.2812 70.5403 30.2054C69.0143 30.1295 67.5941 30.9033 66.2594 31.6517C64.5067 30.3571 61.6813 30.969 60.6136 32.8756C59.561 32.1726 58.1307 32.0816 57.0025 32.648C55.8693 33.2144 55.0786 34.4129 55.0031 35.6772C53.9958 35.7885 53.0792 36.4864 52.7014 37.4321C52.3237 38.3727 52.51 39.5207 53.1648 40.2944C52.4295 40.6838 51.9913 41.5739 52.1373 42.3982C52.2834 43.2225 52.9986 43.9103 53.8245 44.0216L57.073 41.5739C58.7048 42.0037 60.5733 40.7546 60.8 39.0706C62.0288 39.6673 63.6052 39.4398 64.6175 38.5143C64.8291 39.3184 65.4637 40.0011 66.2493 40.2691C67.035 40.5372 67.9516 40.3855 68.6114 39.8797C68.6265 41.0176 69.3417 42.115 70.3792 42.5803C71.4116 43.0455 72.706 42.8483 73.5622 42.0998C74.5392 43.0607 76.2667 43.1011 77.2891 42.1909C78.3115 41.2755 78.4676 39.546 77.6316 38.4587C78.6943 38.0743 79.2483 36.7746 78.9914 35.6671H78.9813Z" fill="#263238"/>
<path d="M60.5229 39.7483C60.5229 39.7483 60.5229 39.8798 60.4171 40.0871C60.3164 40.2944 60.1149 40.5827 59.7674 40.8305C59.425 41.0783 58.9062 41.2806 58.3169 41.2047C57.7378 41.139 57.1082 40.8153 56.7154 40.2236L56.9571 40.2338C56.7254 40.522 56.4233 40.7648 56.0758 40.9316C55.3304 41.2907 54.4742 41.2856 53.8245 40.9772C53.1647 40.6737 52.7618 40.1174 52.5603 39.632C52.3539 39.1363 52.3438 38.6964 52.374 38.4031C52.4093 38.1097 52.4848 37.9631 52.4999 37.9681C52.5603 37.9681 52.3387 38.6306 52.7618 39.546C52.9733 39.9809 53.3561 40.4714 53.9454 40.7192C54.5245 40.9772 55.285 40.9721 55.9498 40.6535C56.2621 40.5018 56.529 40.2894 56.7305 40.0416L56.8614 39.8798L56.9722 40.0517C57.2996 40.5625 57.8486 40.8608 58.3572 40.9316C58.871 41.0126 59.3343 40.8558 59.6667 40.6535C60.3365 40.2236 60.4876 39.7027 60.533 39.7331L60.5229 39.7483Z" fill="#455A64"/>
<path d="M49.1175 67.9622C49.1175 67.9622 42.0464 72.5945 37.5942 81.8542C33.137 91.1139 26.9977 117.259 26.6904 119.171C26.3832 121.088 32.6838 125.877 42.2126 125.24C51.7415 124.602 58.596 122.483 59.3616 120.41C60.1321 118.337 67.5608 88.2414 67.7119 85.6875C67.868 83.1337 65.4052 77.2269 65.4052 77.2269L66.483 73.5554C66.483 73.5554 58.0219 63.9771 55.8713 63.0163C53.7208 62.0605 52.502 65.8887 52.502 65.8887L49.1226 67.9622H49.1175Z" fill="#1D6C86"/>
<path d="M48.0947 91.1897C48.0947 91.1897 73.045 108.864 77.4317 108.703C81.8185 108.541 91.8963 89.445 91.2466 86.5118C90.5969 83.5736 85.072 83.25 85.072 83.25L76.6209 93.2025C76.6209 93.2025 67.5201 79.4925 64.9213 77.2117C62.3226 74.9259 57.7697 70.6829 53.2218 75.2546C48.6739 79.8263 47.5306 88.6965 48.0998 91.1948L48.0947 91.1897Z" fill="#1D6C86"/>
<path d="M85.3401 82.456C85.3401 82.456 85.0581 78.3041 84.8869 77.8489C84.7156 77.3938 84.4336 76.2559 84.4336 76.2559L85.8488 76.4835C85.8488 76.4835 88.7951 71.1937 89.475 70.9661C90.1549 70.7386 90.9507 71.7045 90.9507 71.7045L92.2551 72.2152C92.2551 72.2152 94.1236 69.8839 94.864 70.339C95.5993 70.7942 95.9418 72.104 95.9418 72.104L95.2064 74.7792C95.2064 74.7792 97.3016 73.1862 97.9815 73.6414C98.6614 74.0965 98.8881 74.7792 98.4348 76.0283L96.8483 77.7377C96.8483 77.7377 98.3391 77.5657 98.6715 78.1372C99.0039 78.7086 98.7168 79.275 98.4348 79.5582C98.1527 79.8414 97.0195 79.9021 97.0195 79.9021C97.0195 79.9021 92.371 84.2816 92.0335 84.5699C91.6961 84.8531 90.8449 86.6737 90.8449 86.6737L84.7811 84.226L85.3502 82.4611L85.3401 82.456Z" fill="#FAD8CC"/>
<path d="M84.4332 76.2559C84.4332 76.2559 83.3201 76.2155 83.6223 75.3659C83.9245 74.5163 84.2317 74.2786 84.9771 74.1774C85.7225 74.0763 86.4629 73.8032 86.6996 74.5871C86.9363 75.3659 85.511 76.6049 84.4332 76.261V76.2559Z" fill="#FAD8CC"/>
<path d="M84.4328 76.2559C84.4328 76.2053 84.9364 76.3925 85.6113 76.0182C85.9337 75.8412 86.3063 75.5429 86.5128 75.1181C86.7495 74.7084 86.4725 74.0864 85.8883 74.1825C85.6113 74.1926 85.3293 74.2583 85.0422 74.2988C84.7702 74.3342 84.5184 74.3848 84.322 74.5061C83.9392 74.7438 83.763 75.2445 83.6673 75.5631C83.5968 75.9171 83.9241 76.089 84.1105 76.1497C84.3119 76.2205 84.4278 76.2357 84.4278 76.2559C84.4278 76.2711 84.3019 76.2913 84.0803 76.2458C83.9695 76.2205 83.8335 76.1801 83.6925 76.0739C83.5514 75.9727 83.4457 75.7553 83.4759 75.5327C83.5111 75.3102 83.5917 75.1181 83.6874 74.8955C83.7881 74.6831 83.9392 74.4455 84.186 74.2887C84.4278 74.1319 84.7199 74.0712 84.9969 74.0358C85.2688 73.9954 85.5509 73.9246 85.8682 73.9145C86.0243 73.9094 86.1955 73.9195 86.3567 73.9853C86.5179 74.051 86.6488 74.1875 86.7244 74.3291C86.7999 74.4657 86.8452 74.6275 86.8402 74.7893C86.8402 74.9512 86.7848 75.0928 86.7244 75.2192C86.4625 75.7199 86.0495 76.0081 85.6869 76.1801C85.3192 76.352 84.9818 76.3874 84.7551 76.3571C84.5285 76.3318 84.4227 76.261 84.4278 76.2509L84.4328 76.2559Z" fill="#FAD8CC"/>
<path d="M90.7743 71.5123C90.7743 71.5123 91.2326 70.4756 91.8773 70.5413C92.522 70.607 93.0961 70.6475 93.2321 71.5123C93.3681 72.377 92.4363 76.1092 92.0032 76.3166C91.5751 76.5189 90.2858 76.4835 90.3563 74.9562C90.4218 73.4289 90.7794 71.5123 90.7794 71.5123H90.7743Z" fill="#FAD8CC"/>
<path d="M90.7736 71.5123C90.7736 71.5123 90.7736 71.7196 90.7283 72.0838C90.688 72.4479 90.6175 72.9738 90.557 73.6262C90.5268 73.9498 90.4966 74.3089 90.4765 74.6933C90.4513 75.0776 90.4462 75.4822 90.6527 75.821C90.8441 76.1598 91.2823 76.3267 91.7053 76.266C91.801 76.2509 91.937 76.2256 91.9672 76.175C92.0126 76.1295 92.078 76.0132 92.1234 75.912C92.2241 75.6996 92.3047 75.467 92.3852 75.2344C92.6874 74.2887 92.904 73.3582 93.045 72.5136C93.1055 72.0888 93.176 71.6842 93.0752 71.3403C92.9946 70.9813 92.7227 70.779 92.4155 70.7183C92.2644 70.6829 92.1133 70.6627 91.9672 70.6425C91.8161 70.6172 91.7104 70.6222 91.5945 70.6677C91.378 70.7588 91.2218 70.9257 91.106 71.0622C90.8794 71.3403 90.7937 71.5275 90.7736 71.5174C90.7585 71.5123 90.8139 71.31 91.0254 70.9965C91.1312 70.8448 91.2823 70.6526 91.5391 70.5312C91.66 70.4655 91.8464 70.4554 91.9823 70.4756C92.1284 70.4908 92.2896 70.5009 92.4558 70.5363C92.622 70.5717 92.8033 70.6323 92.9644 70.7638C93.1206 70.8903 93.2263 71.0824 93.2868 71.2797C93.4076 71.6842 93.3371 72.1242 93.2868 72.549C93.1558 73.4138 92.9443 74.3544 92.6371 75.3153C92.5565 75.553 92.4759 75.7907 92.3651 76.0233C92.3047 76.1396 92.2644 76.2509 92.1435 76.3722C92.0025 76.4987 91.8816 76.4936 91.7507 76.5239C91.247 76.5947 90.6981 76.3823 90.4563 75.9525C90.2095 75.5327 90.2397 75.0574 90.27 74.6831C90.3002 74.2937 90.3405 73.9347 90.3858 73.611C90.4714 72.9586 90.5671 72.4327 90.6427 72.0736C90.7182 71.7146 90.7686 71.5174 90.7887 71.5174L90.7736 71.5123Z" fill="#FAD8CC"/>
<path d="M96.4041 71.7297C96.4041 71.7297 95.6587 72.104 95.2558 72.5085C94.8529 72.9131 92.9492 75.9019 93.2413 76.8527C93.5334 77.8034 94.2234 77.8388 94.8076 77.3938C95.3918 76.9538 97.6582 74.2887 97.8949 73.4643C98.1316 72.64 97.4567 71.4516 96.4092 71.7247L96.4041 71.7297Z" fill="#FAD8CC"/>
<path d="M96.4041 71.7298C96.4041 71.7298 96.4545 71.7045 96.5602 71.6741C96.666 71.6539 96.8322 71.6337 97.0387 71.6944C97.4466 71.7904 97.9855 72.2962 98.0258 73.08C98.0359 73.2722 98.0057 73.4846 97.915 73.6818C97.8294 73.8689 97.7236 74.0561 97.6078 74.2381C97.3761 74.6022 97.1042 74.9765 96.807 75.3608C96.5099 75.7451 96.1875 76.1346 95.84 76.529C95.6637 76.7262 95.4875 76.9235 95.2961 77.1207C95.1047 77.3129 94.9033 77.5253 94.6313 77.6669C94.3694 77.8034 94.0219 77.8641 93.7247 77.7225C93.4276 77.5809 93.2664 77.3028 93.1657 77.0499C93.1153 76.9285 93.0801 76.7717 93.0801 76.6251C93.0851 76.4835 93.1002 76.347 93.1355 76.2205C93.1909 75.9626 93.2815 75.7249 93.3722 75.4973C93.755 74.5972 94.2082 73.8487 94.6111 73.2368C94.8176 72.9334 95.004 72.6603 95.2155 72.4428C95.4371 72.2405 95.6486 72.109 95.8249 72.0028C96.1775 71.7955 96.389 71.7146 96.3991 71.7298C96.4091 71.7449 96.2127 71.8612 95.8803 72.0888C95.7141 72.2051 95.5127 72.3467 95.3162 72.549C95.1349 72.7513 94.9536 73.0345 94.7622 73.3379C94.3845 73.9549 93.9463 74.7034 93.5888 75.5833C93.5082 75.8058 93.4226 76.0334 93.3772 76.2711C93.347 76.3874 93.3369 76.5088 93.3319 76.6251C93.3319 76.7363 93.352 76.8375 93.4024 76.9589C93.4931 77.1814 93.629 77.3988 93.8355 77.4899C94.037 77.586 94.2888 77.5506 94.5104 77.4342C94.7371 77.3179 94.9184 77.1308 95.1097 76.9386C95.2961 76.7465 95.4774 76.5543 95.6486 76.3571C95.9961 75.9677 96.3185 75.5833 96.6156 75.2091C96.9128 74.8349 97.1898 74.4707 97.4215 74.1218C97.6582 73.7678 97.8596 73.4391 97.8395 73.0901C97.8244 72.3922 97.3661 71.9068 97.0085 71.7955C96.6358 71.6691 96.4041 71.7702 96.4041 71.7348V71.7298Z" fill="#FAD8CC"/>
<path d="M98.4988 75.8159C98.4988 75.8159 97.416 75.9373 96.3684 76.8527C95.3209 77.768 94.3035 78.2788 94.3388 78.9261C94.374 79.5734 94.7115 80.0134 95.4216 79.9426C96.1317 79.8768 99.1082 78.0765 99.3097 77.3634C99.5112 76.6504 99.2744 75.73 98.4988 75.8159Z" fill="#FAD8CC"/>
<path d="M98.4989 75.8159C98.4989 75.8159 98.7104 75.6996 99.0429 75.907C99.3702 76.1194 99.5566 76.7111 99.4055 77.3533C99.2896 77.7124 99.0026 77.9349 98.7306 78.1877C98.4435 78.4305 98.1212 78.6631 97.7737 78.9008C97.4262 79.1334 97.0484 79.361 96.6506 79.5785C96.4491 79.6847 96.2426 79.7909 96.021 79.887C95.8095 79.978 95.5577 80.0842 95.2907 80.0842C95.0339 80.0842 94.7418 80.0083 94.5504 79.8111C94.354 79.6189 94.2633 79.361 94.2281 79.1183C94.2079 79.0019 94.1978 78.8755 94.2281 78.739C94.2532 78.6075 94.3187 78.4962 94.3842 78.3951C94.5252 78.1979 94.6864 78.0512 94.8475 77.9147C95.1749 77.6416 95.4972 77.414 95.7843 77.1915C96.0764 76.969 96.3282 76.7414 96.5901 76.5543C97.1139 76.18 97.6024 75.9929 97.9449 75.8969C98.2874 75.8058 98.4888 75.8008 98.4888 75.821C98.509 75.8614 97.6931 75.9525 96.7009 76.706C96.4592 76.8931 96.2074 77.1359 95.9153 77.3685C95.6282 77.6062 95.3109 77.8388 94.9986 78.1068C94.6964 78.3749 94.364 78.6783 94.4748 79.0879C94.5051 79.2953 94.5856 79.4925 94.7216 79.629C94.8576 79.7706 95.0641 79.8263 95.2807 79.8263C95.4922 79.8263 95.6936 79.7403 95.9102 79.6543C96.1217 79.5633 96.3232 79.4621 96.5196 79.361C96.9125 79.1537 97.2851 78.9311 97.6327 78.7036C97.9802 78.4811 98.3025 78.2585 98.5845 78.0259C98.8565 77.7983 99.1385 77.5607 99.2191 77.3129C99.3803 76.7363 99.2342 76.1952 98.9723 75.998C98.7104 75.7957 98.4788 75.8615 98.4888 75.8261L98.4989 75.8159Z" fill="#FAD8CC"/>
<path d="M95.2268 81.576C95.2268 81.576 95.2066 82.0666 95.5743 82.3245C95.9419 82.5824 96.5362 82.0464 96.9996 81.576C97.4629 81.1057 98.1025 80.7062 98.0572 80.2258C98.0119 79.7504 97.4126 79.6392 97.0147 79.892C96.6118 80.1449 95.2268 81.576 95.2268 81.576Z" fill="#FAD8CC"/>
<path d="M95.2262 81.5761C95.2011 81.5508 95.4932 81.2018 96.0018 80.6708C96.2688 80.4078 96.5458 80.0892 96.9688 79.7808C97.2055 79.6392 97.5128 79.5785 97.8099 79.6998C98.1272 79.8111 98.2833 80.2561 98.1272 80.5596C97.9862 80.8579 97.7646 81.045 97.5682 81.2271C97.3667 81.4041 97.1804 81.5659 97.0091 81.7379C96.6515 82.0716 96.3191 82.3903 95.9011 82.4813C95.7954 82.4965 95.6845 82.4863 95.5939 82.4408C95.4982 82.3903 95.4478 82.3296 95.3924 82.2739C95.2917 82.1475 95.2414 82.0211 95.2212 81.9149C95.1759 81.7025 95.2061 81.5862 95.2212 81.5862C95.2414 81.5862 95.2464 81.7025 95.3169 81.8845C95.3522 81.9756 95.4076 82.0818 95.5032 82.1779C95.604 82.2739 95.7148 82.3397 95.8709 82.2992C96.1832 82.2183 96.5105 81.9048 96.8429 81.571C97.0091 81.394 97.2055 81.217 97.3969 81.045C97.5833 80.868 97.7898 80.6809 97.8855 80.4685C97.9811 80.2612 97.8955 80.0286 97.7041 79.9527C97.5128 79.8667 97.266 79.9021 97.0897 80.0033C96.722 80.2561 96.3997 80.5798 96.1278 80.8175C95.5889 81.3131 95.2514 81.6165 95.2212 81.5912L95.2262 81.5761Z" fill="#FAD8CC"/>
<path d="M75.0252 101.901C74.9899 101.901 75.0252 101.4 75.1158 100.606C75.2115 99.8122 75.3727 98.7198 75.5943 97.5213C75.8159 96.3227 76.0526 95.2456 76.249 94.4668C76.4455 93.693 76.5915 93.2176 76.6217 93.2278C76.657 93.2379 76.5764 93.7234 76.4303 94.5072C76.2641 95.3821 76.0677 96.4188 75.8512 97.5668C75.6447 98.7148 75.4583 99.7566 75.3022 100.631C75.1612 101.415 75.0655 101.901 75.0252 101.896V101.901Z" fill="#263238"/>
<path d="M77.73 99.5441C77.6544 99.5441 77.599 98.2242 77.4076 96.616C77.2213 95.0028 76.9695 93.7082 77.045 93.693C77.1105 93.6778 77.4781 94.9573 77.6695 96.5857C77.8609 98.2141 77.8005 99.5492 77.73 99.5441Z" fill="#263238"/>
<path d="M66.533 73.8184C66.533 73.8184 66.256 73.9246 65.7825 74.1572C65.3142 74.3949 64.6544 74.7995 64.0551 75.5125L63.9845 75.5985L63.909 75.5176C62.8765 74.3949 61.4815 72.9334 59.8849 71.4112C58.1272 69.7271 56.4551 68.2858 55.2263 67.2643C54.642 66.7838 54.1485 66.3793 53.7657 66.0607C53.4182 65.7775 53.2318 65.6156 53.2469 65.6005C53.2621 65.5853 53.4635 65.7218 53.8312 65.9798C54.1938 66.2377 54.7176 66.6271 55.3471 67.1176C56.6062 68.1038 58.3035 69.5248 60.0713 71.219C61.6728 72.7513 63.0578 74.233 64.0601 75.3861H63.914C64.5587 74.668 65.2588 74.2735 65.7473 74.0662C65.9941 73.96 66.1955 73.8993 66.3315 73.8639C66.4675 73.8285 66.543 73.8184 66.543 73.8285L66.533 73.8184Z" fill="#263238"/>
<path d="M52.654 96.6464C52.6943 96.7071 50.2667 98.3405 47.2298 100.288C44.1928 102.24 41.7048 103.772 41.6646 103.711C41.6243 103.651 44.0518 102.017 47.0888 100.065C50.1207 98.113 52.6137 96.5806 52.654 96.6413V96.6464Z" fill="#263238"/>
<path d="M56.7469 96.4593C56.7469 96.4593 56.5958 96.6312 56.2936 96.8992C55.9511 97.2077 55.523 97.5921 55.0194 98.0472C53.9466 99.0182 52.4911 100.399 50.9751 102.002C49.4541 103.61 48.1598 105.132 47.2432 106.26C46.8151 106.791 46.4525 107.241 46.1654 107.595C45.9136 107.914 45.7625 108.081 45.7474 108.071C45.7322 108.06 45.8531 107.868 46.0798 107.534C46.3064 107.196 46.6539 106.72 47.0921 106.144C47.9734 104.986 49.2527 103.433 50.7787 101.82C52.3047 100.212 53.7854 98.8463 54.8935 97.9056C55.4475 97.4353 55.9007 97.0661 56.2281 96.8183C56.5504 96.5705 56.7317 96.439 56.7469 96.4542V96.4593Z" fill="#263238"/>
<path d="M47.4707 91.1998C47.511 91.1391 51.0969 93.3997 55.4836 96.2469C59.8703 99.0941 63.3908 101.451 63.3555 101.516C63.3152 101.577 59.7293 99.3166 55.3426 96.4694C50.9559 93.6222 47.4354 91.2656 47.4757 91.2049L47.4707 91.1998Z" fill="#263238"/>
<path d="M65.5971 78.1523C65.5971 78.1523 65.5115 78.0917 65.3704 77.9602C65.2093 77.8085 65.0028 77.6163 64.751 77.3837C64.2121 76.883 63.4465 76.1447 62.404 75.3557C61.3665 74.582 60.0016 73.7526 58.3195 73.4138C57.4834 73.2469 56.5719 73.2267 55.6703 73.429C54.7688 73.6312 53.8724 74.0206 53.0615 74.587C51.4297 75.7148 50.2814 77.3028 49.5662 78.8604C48.846 80.4331 48.4884 81.9654 48.2467 83.255C48.01 84.5446 47.8841 85.6066 47.7833 86.3348C47.738 86.6787 47.7028 86.9569 47.6725 87.1743C47.6423 87.3665 47.6272 87.4676 47.6171 87.4676C47.6071 87.4676 47.6121 87.3665 47.6171 87.1693C47.6323 86.9468 47.6524 86.6686 47.6826 86.3247C47.7481 85.5914 47.8488 84.5294 48.0603 83.2247C48.282 81.925 48.6194 80.3724 49.3396 78.7643C50.0548 77.1662 51.2232 75.5327 52.9054 74.3746C53.7364 73.788 54.6681 73.3885 55.6099 73.1812C56.5517 72.9738 57.4986 73.0042 58.3598 73.1812C60.0923 73.5453 61.4723 74.41 62.5098 75.2141C63.5523 76.0283 64.2977 76.792 64.8165 77.3179C65.0532 77.5657 65.2445 77.7731 65.4007 77.9349C65.5316 78.0765 65.5971 78.1574 65.5921 78.1625L65.5971 78.1523Z" fill="#263238"/>
<path d="M2.27308 64.23C2.27308 64.23 0.721866 65.1352 0.223263 65.2212C-0.270304 65.3021 4.23224 77.1359 4.86179 77.7124C5.49637 78.2939 7.50086 77.1308 7.50086 77.1308L5.49133 76.2205C5.49133 76.2205 1.37156 67.1176 1.78455 66.4551C2.19753 65.7926 3.8394 65.5853 3.8394 65.5853L2.26804 64.2249L2.27308 64.23Z" fill="#E0E0E0"/>
<path d="M5.11768 72.6451C5.86307 74.4454 7.79705 82.8251 11.9974 92.7422C13.7047 96.7728 21.1737 110.903 23.2538 122.392C25.1424 132.835 23.3041 150.596 16.1826 153.858L19.5218 154.966C26.6483 151.699 29.1967 132.83 27.3081 122.392C25.228 110.908 17.759 96.7779 16.0517 92.7422C11.8513 82.8251 10.1037 74.3544 9.17198 72.6451C8.24025 70.9358 4.90112 71.2847 4.90112 71.2847C4.90112 71.2847 4.74499 71.7348 5.12272 72.6451H5.11768Z" fill="#455A64"/>
<path d="M54.6508 116.759L45.4896 125.138L42.7397 136.583L36.5551 135.435L38.7308 124.446L33.6289 118.812L54.6508 116.759Z" fill="#E0E0E0"/>
<path d="M83.2173 145.827C83.2173 145.827 78.8759 138.166 67.6901 138.955C56.5043 139.743 31.0201 141.599 27.9076 143.445C24.7951 145.291 23.7223 148.993 25.0469 152.032C26.3715 155.072 72.2984 149.919 75.0634 150.181C77.8284 150.444 82.0388 153.883 84.0131 151.901C85.9873 149.919 83.2223 145.822 83.2223 145.822L83.2173 145.827Z" fill="#455A64"/>
<path d="M42.7391 136.583C42.7391 136.583 39.0021 157.585 38.0804 158.116C37.1588 158.647 31.6338 157.241 31.8957 154.971C32.1576 152.7 35.3658 134.661 36.7256 134.565C38.0804 134.469 42.7391 136.588 42.7391 136.588V136.583Z" fill="#455A64"/>
<path d="M42.7396 136.583C42.7396 136.583 42.6892 136.573 42.5985 136.532C42.4928 136.492 42.3618 136.436 42.1956 136.37C41.828 136.224 41.3092 136.016 40.6545 135.753C39.9846 135.495 39.1587 135.182 38.1766 134.894C37.9298 134.828 37.678 134.757 37.411 134.707C37.2801 134.681 37.1441 134.666 37.0081 134.646C36.8822 134.656 36.711 134.616 36.6506 134.681C36.4642 134.843 36.3383 135.136 36.2174 135.41C36.1016 135.688 35.9958 135.986 35.8951 136.289C35.1144 138.747 34.4698 141.766 33.7848 145.114C33.4474 146.793 33.11 148.553 32.7826 150.389C32.6265 151.304 32.4603 152.24 32.2991 153.185C32.2236 153.661 32.153 154.136 32.0775 154.617C32.0473 154.864 31.9969 155.092 32.0372 155.309C32.0725 155.527 32.1682 155.739 32.2941 155.931C32.8481 156.69 33.7597 157.135 34.6259 157.484C35.5073 157.818 36.4289 158.055 37.3305 158.096C37.5521 158.096 37.7837 158.096 37.96 158.03C37.9802 158.02 38.0053 158.01 38.0154 158.005C38.0154 158 38.0255 157.995 38.0406 157.975C38.0658 157.944 38.091 157.894 38.1161 157.848C38.1615 157.752 38.2068 157.646 38.2421 157.545C38.3982 157.125 38.5191 156.69 38.6349 156.26C38.8666 155.4 39.068 154.546 39.2594 153.711C40.0149 150.374 40.6092 147.349 41.1128 144.811C41.6064 142.282 42.0042 140.234 42.2812 138.793C42.4172 138.095 42.528 137.549 42.6036 137.159C42.6388 136.987 42.669 136.846 42.6942 136.734C42.7144 136.638 42.7295 136.593 42.7345 136.593C42.7345 136.593 42.7345 136.643 42.7194 136.74C42.7043 136.851 42.6842 136.992 42.6539 137.169C42.5885 137.564 42.4978 138.115 42.382 138.813C42.1352 140.239 41.7726 142.302 41.2941 144.846C40.8106 147.39 40.2365 150.419 39.4961 153.762C39.3098 154.596 39.1083 155.451 38.8766 156.321C38.7608 156.756 38.6399 157.191 38.4788 157.631C38.4385 157.742 38.3931 157.848 38.3428 157.959C38.3126 158.015 38.2874 158.071 38.2421 158.126C38.2269 158.152 38.1917 158.187 38.1514 158.217C38.1161 158.243 38.0859 158.248 38.0507 158.268C37.7938 158.364 37.5571 158.359 37.3154 158.354C36.3635 158.308 35.4317 158.066 34.5252 157.727C33.6337 157.368 32.697 156.928 32.0725 156.078C31.9264 155.861 31.8106 155.613 31.7703 155.35C31.7451 155.218 31.7501 155.082 31.7602 154.95L31.8106 154.586C31.8861 154.106 31.9617 153.625 32.0372 153.15C32.2034 152.204 32.3646 151.269 32.5257 150.348C32.8581 148.518 33.2006 146.753 33.5431 145.074C34.2432 141.721 34.9029 138.707 35.7138 136.239C35.8195 135.93 35.9303 135.632 36.0512 135.349C36.1872 135.066 36.293 134.782 36.5448 134.555C36.9024 134.408 37.1542 134.535 37.4362 134.56C37.7082 134.616 37.965 134.686 38.2118 134.762C39.1939 135.066 40.0149 135.394 40.6847 135.667C41.3545 135.946 41.8632 136.173 42.2107 136.33C42.3719 136.406 42.4978 136.466 42.5985 136.517C42.6842 136.557 42.7345 136.588 42.7295 136.588L42.7396 136.583Z" fill="#263238"/>
<path d="M2.51468 64.9279C3.24496 66.4349 5.85885 65.4791 7.29926 64.6295C8.73967 63.7799 9.79731 62.3993 10.6132 60.9327C13.7056 55.3648 13.484 48.1027 10.0642 42.732C9.25842 41.4626 8.23603 40.259 6.86613 39.6471C5.49623 39.0352 3.71838 39.1616 2.69599 40.2641C2.69599 40.2641 2.15206 41.3615 2.51468 41.8723C2.8773 42.383 7.07262 46.7221 6.05527 54.1258C5.03792 61.5294 1.13471 62.0706 2.51468 64.9279Z" fill="#455A64"/>
<path d="M62.2163 117.947C62.2163 117.947 61.8738 114.842 58.6052 114.726C55.3416 114.609 47.2632 114.038 39.8194 114.321C32.3706 114.609 29.107 115.702 28.6487 116.45C28.1904 117.199 27.6162 119.156 28.0745 119.267C28.3969 119.348 44.8206 118.751 54.7725 118.326C59.0383 118.144 62.1105 117.993 62.2163 117.942V117.947Z" fill="#455A64"/>
<path d="M75.1875 113.851V211.181H79.3123V113.669L75.1875 113.851Z" fill="#E0E0E0"/>
<path d="M75.1884 113.851C75.1884 113.851 75.264 113.841 75.4302 113.836C75.6014 113.826 75.8482 113.81 76.1806 113.795C76.8655 113.76 77.898 113.709 79.3183 113.638H79.3535V113.674C79.4089 125.204 79.4492 164.483 79.4492 211.09V211.318H79.3183C77.903 211.318 76.4979 211.318 75.1934 211.318H75.0625V211.186C75.0826 184.075 75.1028 159.729 75.1179 142.151C75.133 133.382 75.1481 126.302 75.1582 121.406C75.1683 118.969 75.1733 117.082 75.1783 115.793C75.1783 115.156 75.1834 114.675 75.1884 114.341C75.1884 114.013 75.1985 113.851 75.1985 113.851C75.1985 113.851 75.2035 114.028 75.2086 114.357C75.2086 114.695 75.2136 115.186 75.2186 115.828C75.2186 117.123 75.2287 119.024 75.2388 121.472C75.2488 126.372 75.264 133.463 75.2791 142.242C75.2942 159.795 75.3093 184.11 75.3345 211.181L75.2035 211.05C76.5079 211.05 77.9131 211.05 79.3283 211.05L79.1974 211.181V211.085C79.1974 164.478 79.2377 125.199 79.2931 113.669L79.3283 113.704C77.9181 113.755 76.8907 113.795 76.2108 113.821C75.8734 113.831 75.6266 113.841 75.4503 113.846C75.2841 113.846 75.1985 113.846 75.1985 113.846L75.1884 113.851Z" fill="#263238"/>
<path d="M160.213 113.851V211.181H164.338V113.765L160.213 113.851Z" fill="#E0E0E0"/>
<path d="M160.214 113.851C160.214 113.851 160.289 113.846 160.456 113.841C160.627 113.836 160.874 113.826 161.206 113.815C161.891 113.795 162.923 113.77 164.344 113.729H164.379V113.765C164.434 125.285 164.475 164.549 164.475 211.135V211.312H164.344C162.928 211.312 161.523 211.312 160.219 211.312H160.088V211.181C160.108 184.075 160.128 159.724 160.143 142.146C160.158 133.377 160.174 126.297 160.184 121.401C160.194 118.964 160.199 117.077 160.204 115.788C160.204 115.151 160.209 114.67 160.214 114.336C160.214 114.008 160.224 113.846 160.224 113.846C160.224 113.846 160.229 114.023 160.234 114.352C160.234 114.69 160.239 115.181 160.244 115.823C160.244 117.118 160.254 119.019 160.264 121.467C160.274 126.367 160.289 133.457 160.304 142.242C160.32 159.795 160.335 184.11 160.36 211.176L160.229 211.044C161.533 211.044 162.938 211.044 164.354 211.044L164.223 211.176V211.13C164.223 164.544 164.263 125.285 164.318 113.76L164.354 113.795C162.944 113.815 161.916 113.831 161.236 113.841C160.899 113.841 160.652 113.846 160.476 113.846C160.31 113.846 160.224 113.846 160.224 113.846L160.214 113.851Z" fill="#263238"/>
<path d="M172.205 108.071H67.7148V113.987H172.205V108.071Z" fill="#263238"/>
</g>
<defs>
<clipPath id="clip0_971_6466">
<rect width="229" height="211" fill="white" transform="translate(0.1875 0.3125)"/>
</clipPath>
</defs>
</svg>
