<svg width="200" height="199" viewBox="0 0 200 199" fill="none" xmlns="http://www.w3.org/2000/svg">
<path d="M171.821 63.0945C183.15 63.0945 192.335 53.9101 192.335 42.5804C192.335 31.2508 183.15 22.0663 171.821 22.0663C160.491 22.0663 151.307 31.2508 151.307 42.5804C151.307 53.9101 160.491 63.0945 171.821 63.0945Z" fill="#F5F5F5"/>
<path d="M179.283 42.1876C178.655 43.544 178.98 45.0289 180.007 45.5045C181.034 45.9797 182.376 45.2657 183.003 43.9093C183.631 42.553 183.307 41.068 182.279 40.5928C181.252 40.1172 179.91 40.8312 179.283 42.1876Z" fill="#E0E0E0"/>
<path d="M163.808 35.0284C163.181 36.3848 163.505 37.8697 164.532 38.3449C165.559 38.8201 166.901 38.1061 167.529 36.7497C168.156 35.3934 167.832 33.9084 166.805 33.4328C165.777 32.9576 164.436 33.672 163.808 35.0284Z" fill="#E0E0E0"/>
<path d="M165.185 40.0754C163.441 43.8461 164.902 48.2332 168.45 49.8746C171.998 51.5159 176.288 49.7898 178.033 46.0195L165.185 40.0754Z" fill="#E0E0E0"/>
<path d="M165.572 47.3254C165.572 47.3254 167.589 46.2949 169.663 47.2549C171.738 48.2149 172.266 50.4222 172.266 50.4222C172.266 50.4222 168.195 51.0447 165.572 47.3254Z" fill="#EBEBEB"/>
<path d="M59.2185 60.4932H15.5328C13.9269 60.4932 12.625 59.1914 12.625 57.5854V45.5686C12.625 43.9627 13.9269 42.6608 15.5328 42.6608H59.2185C60.8244 42.6608 62.1263 43.9627 62.1263 45.5686V57.5854C62.1263 59.1918 60.8244 60.4932 59.2185 60.4932Z" fill="#F5F5F5"/>
<path d="M21.0669 54.7397C22.8643 54.7397 24.3214 53.2827 24.3214 51.4853C24.3214 49.6879 22.8643 48.2308 21.0669 48.2308C19.2696 48.2308 17.8125 49.6879 17.8125 51.4853C17.8125 53.2827 19.2696 54.7397 21.0669 54.7397Z" fill="#E0E0E0"/>
<path d="M52.3286 49.9725H26.584V51.4857H52.3286V49.9725Z" fill="#E0E0E0"/>
<path d="M36.9726 52.6427H26.584V54.1559H36.9726V52.6427Z" fill="#E0E0E0"/>
<path d="M180.758 114.983H137.072C135.466 114.983 134.164 113.682 134.164 112.076V100.059C134.164 98.4529 135.466 97.151 137.072 97.151H180.758C182.363 97.151 183.665 98.4529 183.665 100.059V112.076C183.665 113.682 182.363 114.983 180.758 114.983Z" fill="#F5F5F5"/>
<path d="M142.606 109.23C144.403 109.23 145.86 107.773 145.86 105.975C145.86 104.178 144.403 102.721 142.606 102.721C140.809 102.721 139.352 104.178 139.352 105.975C139.352 107.773 140.809 109.23 142.606 109.23Z" fill="#E0E0E0"/>
<path d="M173.868 104.462H148.123V105.975H173.868V104.462Z" fill="#E0E0E0"/>
<path d="M158.512 107.132H148.123V108.646H158.512V107.132Z" fill="#E0E0E0"/>
<path d="M16.4121 106.899L18.8729 108.166C19.1495 108.309 19.4791 108.306 19.7533 108.159L22.1926 106.85C22.8835 106.48 23.6994 107.062 23.5733 107.836L23.1283 110.568C23.0782 110.875 23.1828 111.188 23.4073 111.403L25.4057 113.319C25.9716 113.861 25.6699 114.817 24.895 114.936L22.1592 115.358C21.8515 115.405 21.5869 115.601 21.4515 115.881L20.2476 118.373C19.9065 119.079 18.9039 119.088 18.5513 118.387L17.3052 115.916C17.1651 115.637 16.8972 115.446 16.5888 115.404L13.8462 115.029C13.0693 114.923 12.7517 113.972 13.3085 113.42L15.2742 111.471C15.4955 111.252 15.5946 110.938 15.5392 110.632L15.0485 107.908C14.9088 107.136 15.7148 106.54 16.4121 106.899Z" fill="#E0E0E0"/>
<path d="M134.607 59.3223L135.777 60.4534C135.908 60.5808 136.094 60.6349 136.273 60.5987L137.868 60.2763C138.32 60.1851 138.681 60.6512 138.478 61.0655L137.764 62.5278C137.683 62.6921 137.689 62.8856 137.779 63.0452L138.578 64.4624C138.805 64.864 138.473 65.3508 138.016 65.2863L136.405 65.0587C136.224 65.0332 136.041 65.0984 135.917 65.233L134.817 66.4314C134.505 66.7708 133.939 66.6053 133.859 66.1512L133.578 64.5484C133.547 64.3681 133.428 64.2149 133.262 64.1389L131.782 63.4619C131.363 63.27 131.345 62.681 131.752 62.4649L133.19 61.7019C133.352 61.6159 133.461 61.4563 133.482 61.2745L133.668 59.6578C133.721 59.2005 134.276 59.0019 134.607 59.3223Z" fill="#E0E0E0"/>
<path d="M29.4594 18.4783L31.2392 20.1997C31.4394 20.3931 31.722 20.4759 31.995 20.421L34.422 19.9306C35.1094 19.7917 35.6578 20.5014 35.3498 21.1314L34.2628 23.3562C34.1406 23.6066 34.1494 23.9007 34.2859 24.1435L35.5022 26.3002C35.8469 26.9112 35.3414 27.6518 34.6469 27.5535L32.1952 27.2073C31.9194 27.1683 31.642 27.2674 31.4537 27.4727L29.7786 29.296C29.3041 29.8126 28.4433 29.5607 28.3219 28.8697L27.8936 26.4308C27.8455 26.1566 27.6656 25.9233 27.412 25.8075L25.1602 24.7775C24.5226 24.4858 24.4959 23.5895 25.1156 23.2607L27.3026 22.0997C27.5486 21.9692 27.7145 21.726 27.7464 21.4494L28.0301 18.9898C28.1109 18.2929 28.9555 17.9908 29.4594 18.4783Z" fill="#E0E0E0"/>
<path d="M183.263 176.885C183.263 176.942 145.049 176.988 97.9199 176.988C50.7744 176.988 12.5684 176.942 12.5684 176.885C12.5684 176.828 50.7744 176.781 97.9199 176.781C145.049 176.781 183.263 176.828 183.263 176.885Z" fill="#263238"/>
<path d="M110.899 19.5756L54.3908 19.5434C47.5906 19.5398 42.0759 24.8838 42.0747 31.4782L42.0469 168.863C42.0457 175.454 47.5524 180.799 54.3487 180.803L110.856 180.835C117.657 180.839 123.171 175.495 123.172 168.9L123.2 31.5148C123.202 24.9244 117.695 19.5792 110.899 19.5756Z" fill="#263238"/>
<path d="M110.838 24.4352L99.8824 24.4288L67.8856 24.4105L64.0325 24.4081L54.4435 24.4026C49.6815 24.4002 45.8189 28.1832 45.8181 32.8517L45.791 168.4C45.7902 173.066 49.6468 176.85 54.4065 176.853L110.802 176.885C115.564 176.888 119.426 173.105 119.427 168.436L119.454 32.8875C119.454 28.2214 115.598 24.438 110.838 24.4352Z" fill="white"/>
<path d="M110.839 24.4352C110.839 24.4352 110.934 24.4364 111.123 24.444C111.218 24.4479 111.336 24.4531 111.476 24.4591C111.617 24.4615 111.781 24.4726 111.965 24.5056C112.15 24.5331 112.358 24.5634 112.588 24.5976C112.813 24.6537 113.061 24.7154 113.329 24.7823C113.595 24.8607 113.874 24.9713 114.177 25.076C114.467 25.2149 114.787 25.343 115.103 25.5265C115.745 25.8752 116.405 26.3691 117.048 27.0007C117.69 27.6331 118.274 28.449 118.723 29.419C119.169 30.3889 119.462 31.5276 119.483 32.761C119.486 33.988 119.49 35.2946 119.493 36.6785C119.499 47.75 119.507 63.7676 119.517 83.5597C119.519 103.353 119.522 126.921 119.525 153.09C119.525 156.361 119.525 159.673 119.525 163.023C119.525 164.698 119.525 166.383 119.525 168.077C119.534 168.498 119.499 168.931 119.473 169.358C119.406 169.783 119.353 170.211 119.226 170.624C119.003 171.454 118.661 172.261 118.181 172.982C117.252 174.448 115.851 175.603 114.244 176.293C113.433 176.623 112.577 176.84 111.703 176.941C110.821 177.005 109.954 176.981 109.08 176.985C105.585 176.984 102.057 176.982 98.4973 176.981C84.2585 176.973 69.5162 176.966 54.4168 176.958C52.5116 176.937 50.5984 176.344 49.094 175.174C48.3382 174.6 47.6759 173.907 47.1402 173.126C46.6049 172.344 46.2204 171.465 45.9768 170.555C45.8411 170.102 45.7838 169.631 45.7265 169.165L45.6903 168.46L45.6875 167.762C45.6879 166.833 45.6879 165.906 45.6883 164.979C45.6887 163.127 45.6891 161.282 45.6895 159.443C45.6915 152.088 45.6935 144.841 45.6955 137.72C45.7002 123.478 45.705 109.74 45.7098 96.6535C45.7158 83.5669 45.7213 71.1313 45.7269 59.493C45.7301 53.6739 45.7333 48.0541 45.7361 42.6525C45.7376 39.9516 45.7392 37.3049 45.7408 34.7151C45.7424 34.0676 45.744 33.4232 45.7456 32.7829C45.7651 32.1373 45.8288 31.4949 45.988 30.8756C46.2913 29.6343 46.8779 28.4825 47.6668 27.5165C49.2484 25.5731 51.646 24.4547 54.0113 24.356C56.371 24.3158 58.6591 24.3492 60.8895 24.3425C65.3475 24.348 69.5508 24.3532 73.4818 24.358C81.3431 24.3695 88.1147 24.3791 93.6493 24.387C99.1823 24.3986 103.479 24.4077 106.394 24.4137C107.85 24.4189 108.96 24.4233 109.709 24.4261C110.456 24.4276 110.839 24.4352 110.839 24.4352C110.839 24.4352 110.456 24.442 109.709 24.4452C108.961 24.4471 107.85 24.4499 106.395 24.4535C103.479 24.4563 99.1827 24.4603 93.6497 24.4659C88.1147 24.4674 81.3435 24.4694 73.4818 24.4718C69.5508 24.4718 65.3471 24.4722 60.8895 24.4726C58.6623 24.4822 56.3642 24.4515 54.018 24.4937C51.6897 24.5932 49.3328 25.6961 47.7798 27.6081C47.0057 28.5585 46.4306 29.6908 46.1337 30.9099C45.8085 32.1285 45.9112 33.4201 45.8941 34.714C45.8945 37.3037 45.8953 39.9504 45.8957 42.6513C45.8964 48.0533 45.8972 53.6731 45.8984 59.4918C45.8992 71.1302 45.8996 83.5657 45.9004 96.6523C45.8996 109.739 45.8988 123.477 45.8984 137.719C45.8976 144.84 45.8964 152.087 45.8957 159.442C45.8953 161.281 45.8953 163.126 45.8949 164.978C45.8949 165.904 45.8945 166.832 45.8945 167.761L45.8972 168.457L45.9327 169.146C45.9888 169.601 46.0441 170.06 46.177 170.501C46.4142 171.389 46.7892 172.246 47.3117 173.009C47.8347 173.771 48.4815 174.448 49.219 175.008C50.688 176.151 52.555 176.729 54.4168 176.75C69.5162 176.759 84.2585 176.768 98.4973 176.777C102.057 176.78 105.585 176.782 109.08 176.784C109.953 176.781 110.829 176.804 111.683 176.741C112.538 176.643 113.374 176.431 114.167 176.109C115.737 175.435 117.107 174.307 118.014 172.875C118.484 172.17 118.817 171.383 119.036 170.572C119.161 170.169 119.212 169.751 119.277 169.337C119.303 168.917 119.337 168.503 119.329 168.077C119.33 166.383 119.33 164.698 119.331 163.023C119.332 159.673 119.333 156.361 119.335 153.09C119.349 126.921 119.361 103.353 119.371 83.5597C119.389 63.7676 119.403 47.75 119.413 36.6785C119.413 35.295 119.413 33.9888 119.412 32.7622C119.395 31.5395 119.108 30.4088 118.668 29.4448C118.225 28.4809 117.648 27.6682 117.011 27.0373C116.375 26.4073 115.721 25.913 115.083 25.5635C114.77 25.3797 114.452 25.2507 114.164 25.1106C113.862 25.0047 113.585 24.8925 113.321 24.8129C113.054 24.7445 112.808 24.6812 112.583 24.6239C112.354 24.588 112.148 24.5558 111.964 24.5271C111.78 24.4925 111.617 24.4798 111.476 24.4758C111.336 24.4678 111.219 24.4611 111.124 24.4555C110.934 24.4436 110.839 24.4352 110.839 24.4352Z" fill="#263238"/>
<path d="M43.0339 56.6461H41.0591C40.7653 56.6461 40.5273 56.4081 40.5273 56.1144V39.3268C40.5273 39.033 40.7653 38.795 41.0591 38.795H43.0339C43.3277 38.795 43.5657 39.033 43.5657 39.3268V56.114C43.5657 56.4077 43.3277 56.6461 43.0339 56.6461Z" fill="#263238"/>
<path d="M43.0339 77.7286H41.0591C40.7653 77.7286 40.5273 77.4906 40.5273 77.1969V60.4097C40.5273 60.1159 40.7653 59.8779 41.0591 59.8779H43.0339C43.3277 59.8779 43.5657 60.1159 43.5657 60.4097V77.1969C43.5657 77.4906 43.3277 77.7286 43.0339 77.7286Z" fill="#263238"/>
<path d="M124.188 84.2196H122.213C121.92 84.2196 121.682 83.9816 121.682 83.6879V53.9183C121.682 53.6245 121.92 53.3865 122.213 53.3865H124.188C124.482 53.3865 124.72 53.6245 124.72 53.9183V83.6879C124.72 83.9816 124.482 84.2196 124.188 84.2196Z" fill="#263238"/>
<path d="M25.8242 111.947C29.4755 113.839 32.275 117.095 34.2881 120.68C36.3012 124.266 37.5987 128.2 38.8838 132.106L40.0085 152.249C35.7603 145.022 32.3502 136.526 31.4293 128.193C32.3717 128.109 33.3138 128.025 34.2562 127.941C32.3606 127.652 30.7698 126.279 29.7573 124.65C28.7451 123.021 28.2238 121.144 27.7151 119.295C28.8649 119.466 30.0144 119.637 31.1642 119.808C28.4634 118.005 26.5052 115.123 25.8242 111.947Z" fill="#455A64"/>
<g opacity="0.4">
<path d="M25.8242 111.947C29.4755 113.839 32.275 117.095 34.2881 120.68C36.3012 124.266 37.5987 128.2 38.8838 132.106L40.0085 152.249C35.7603 145.022 32.3502 136.526 31.4293 128.193C32.3717 128.109 33.3138 128.025 34.2562 127.941C32.3606 127.652 30.7698 126.279 29.7573 124.65C28.7451 123.021 28.2238 121.144 27.7151 119.295C28.8649 119.466 30.0144 119.637 31.1642 119.808C28.4634 118.005 26.5052 115.123 25.8242 111.947Z" fill="black"/>
</g>
<path d="M40.638 156.969C40.638 156.969 49.8589 145.933 49.7526 135.396H46.0278C46.0278 135.396 50.0738 132.736 49.7534 131.246C49.4334 129.756 49.3268 124.115 49.3268 124.115L45.9211 124.966C45.9211 124.966 48.4755 123.689 48.7947 121.667C49.1138 119.645 48.0496 110.28 48.0496 110.28C48.0496 110.28 43.8989 114.643 42.6221 119.113C41.3449 123.583 37.9929 128.798 38.9772 142.42C39.9618 156.043 40.638 156.969 40.638 156.969Z" fill="#455A64"/>
<path d="M35.9633 158.011C35.9633 158.011 25.9731 151.356 23.7534 142.862L26.748 142.047C26.748 142.047 22.9128 140.793 22.8444 139.525C22.7755 138.257 21.6273 133.699 21.6273 133.699L24.5514 133.638C24.5514 133.638 22.2187 133.17 21.5194 131.615C20.8202 130.059 19.627 122.296 19.627 122.296C19.627 122.296 23.9186 124.896 25.9233 128.211C27.928 131.525 31.764 134.984 33.953 146.151C36.1424 157.319 35.9633 158.011 35.9633 158.011Z" fill="#455A64"/>
<path d="M45.5308 119.903C45.528 119.902 45.5168 119.941 45.4977 120.018C45.4778 120.102 45.4512 120.215 45.4177 120.357C45.3489 120.666 45.2506 121.106 45.1256 121.667C44.9979 122.236 44.8494 122.933 44.6882 123.745C44.5242 124.556 44.3332 125.479 44.1461 126.505C43.7513 128.551 43.335 130.998 42.906 133.72C42.4905 136.444 42.0749 139.445 41.706 142.603C41.3446 145.764 41.064 148.781 40.8471 151.528C40.6437 154.276 40.4909 156.753 40.4085 158.836C40.3564 159.877 40.3321 160.819 40.3066 161.646C40.2784 162.474 40.264 163.186 40.2585 163.769C40.2521 164.344 40.2473 164.794 40.2441 165.111C40.2445 165.257 40.2445 165.373 40.2445 165.46C40.2457 165.539 40.2477 165.579 40.2505 165.579C40.2533 165.579 40.2573 165.539 40.2617 165.46C40.2656 165.373 40.2712 165.258 40.278 165.111C40.2887 164.795 40.3042 164.345 40.3241 163.771C40.3397 163.189 40.3635 162.477 40.401 161.65C40.4356 160.823 40.4682 159.882 40.5275 158.842C40.6254 156.761 40.7902 154.287 41.0019 151.541C41.2272 148.796 41.5122 145.781 41.8736 142.623C42.2421 139.467 42.6524 136.467 43.0592 133.744C43.4795 131.022 43.8835 128.575 44.2627 126.527C44.4422 125.501 44.6249 124.577 44.7801 123.764C44.9322 122.951 45.0715 122.252 45.1893 121.681C45.3011 121.117 45.3887 120.676 45.4504 120.365C45.477 120.221 45.4981 120.108 45.5141 120.022C45.528 119.944 45.5336 119.903 45.5308 119.903Z" fill="#263238"/>
<path d="M41.916 163.728C41.916 163.728 50.3544 154.153 52.9745 148.365L50.9964 147.52C52.43 147.756 53.899 147.14 55.0106 146.204C56.1222 145.269 56.9385 144.038 57.7393 142.825L55.1336 142.385C57.5029 141.72 59.5908 140.103 60.8266 137.975C57.7516 138.48 54.97 140.17 52.6775 142.28C50.8213 143.99 49.2492 145.974 47.7396 148.002C47.0033 148.991 46.3589 150.045 45.822 151.155C44.4047 154.086 41.9112 160.211 41.916 163.728Z" fill="#455A64"/>
<path d="M23.6214 127.869C23.619 127.871 23.6321 127.904 23.6604 127.967C23.6934 128.038 23.7364 128.13 23.7901 128.245C23.9127 128.498 24.0846 128.854 24.3043 129.307C24.7569 130.226 25.398 131.563 26.1737 133.223C26.9518 134.881 27.8469 136.869 28.8093 139.092C29.7629 141.317 30.779 143.779 31.7899 146.384C32.7949 148.992 33.6991 151.497 34.4907 153.786C35.274 156.077 35.9498 158.151 36.4895 159.902C37.032 161.651 37.457 163.071 37.7404 164.056C37.8829 164.539 37.9951 164.918 38.0747 165.188C38.1125 165.309 38.1424 165.406 38.1659 165.481C38.1874 165.547 38.1997 165.58 38.2025 165.579C38.2053 165.578 38.1985 165.544 38.1826 165.476C38.1635 165.4 38.1388 165.302 38.1078 165.178C38.0353 164.907 37.9338 164.525 37.8041 164.038C37.5402 163.048 37.1323 161.622 36.6041 159.867C36.0788 158.111 35.4145 156.032 34.6384 153.736C33.8543 151.443 32.9541 148.934 31.9479 146.324C30.9362 143.716 29.9149 141.255 28.9526 139.031C27.9819 136.811 27.0748 134.825 26.2824 133.173C25.4924 131.519 24.8349 130.189 24.364 129.279C24.1324 128.832 23.9505 128.481 23.8216 128.231C23.7615 128.119 23.7137 128.029 23.6767 127.961C23.6425 127.898 23.6242 127.868 23.6214 127.869Z" fill="#263238"/>
<path d="M41.2002 167.831C41.2062 167.831 41.2197 167.771 41.2404 167.655C41.2623 167.52 41.2894 167.352 41.3224 167.146C41.3546 166.926 41.3956 166.655 41.4542 166.343C41.5111 166.031 41.5656 165.674 41.6504 165.284C41.8016 164.501 42.0185 163.575 42.2947 162.557C42.5801 161.541 42.9299 160.435 43.3566 159.295C43.79 158.157 44.2585 157.095 44.7154 156.145C45.181 155.199 45.63 154.36 46.0343 153.672C46.2286 153.323 46.4236 153.019 46.5872 152.748C46.7495 152.475 46.8972 152.245 47.019 152.058C47.1296 151.882 47.2204 151.738 47.2932 151.622C47.3545 151.521 47.3844 151.467 47.3796 151.464C47.3748 151.46 47.3358 151.508 47.2653 151.603C47.1857 151.714 47.0862 151.852 46.9645 152.021C46.8339 152.203 46.6779 152.428 46.5076 152.697C46.336 152.965 46.133 153.265 45.9317 153.611C45.513 154.293 45.0509 155.129 44.5757 156.076C44.1088 157.027 43.6336 158.092 43.1986 159.235C42.7699 160.381 42.4229 161.494 42.1447 162.516C41.8756 163.54 41.6699 164.472 41.533 165.262C41.4553 165.654 41.4088 166.014 41.3606 166.328C41.3109 166.642 41.2794 166.914 41.2571 167.137C41.2364 167.345 41.2197 167.514 41.2066 167.65C41.197 167.768 41.1947 167.83 41.2002 167.831Z" fill="#263238"/>
<path d="M48.5348 165.578H30.0664V169.346H48.5348V165.578Z" fill="#1D6C86"/>
<path d="M46.7756 169.346L44.7776 182.017H33.6181L31.7559 169.346H46.7756Z" fill="#1D6C86"/>
<path d="M31.1992 169.346C31.1992 169.392 34.6929 169.43 39.0016 169.43C43.3119 169.43 46.8048 169.392 46.8048 169.346C46.8048 169.299 43.3119 169.261 39.0016 169.261C34.6929 169.261 31.1992 169.299 31.1992 169.346Z" fill="#263238"/>
<g opacity="0.3">
<path d="M106.307 19.5434V51.096C106.307 53.1565 107.992 54.8269 110.072 54.8269H114.655C114.405 56.1045 113.858 57.3271 113.059 58.3579C112.763 58.7392 113.112 59.2741 113.582 59.1655C114.782 58.8889 115.957 58.5239 117.037 57.9456C118.357 57.2384 119.526 56.1646 120.149 54.8269H124.72V53.3869H123.201V31.6621C123.201 24.9689 117.775 19.5434 111.082 19.5434H106.307Z" fill="black"/>
</g>
<g opacity="0.3">
<path d="M41.9727 77.5638H58.2799C61.335 77.5638 63.8117 80.0406 63.8117 83.0956V96.2368C63.8117 99.2919 61.335 101.769 58.2799 101.769H51.5461C51.9143 103.667 52.7202 105.484 53.8979 107.014C54.331 107.577 53.8132 108.363 53.1214 108.201C51.3591 107.791 49.6322 107.25 48.0453 106.393C46.1055 105.344 44.3881 103.751 43.4723 101.768H42.0471L41.9727 77.5638Z" fill="black"/>
</g>
<path d="M82.6241 113.065C89.2813 113.065 94.678 107.668 94.678 101.011C94.678 94.3537 89.2813 88.957 82.6241 88.957C75.967 88.957 70.5703 94.3537 70.5703 101.011C70.5703 107.668 75.967 113.065 82.6241 113.065Z" fill="#E0E0E0"/>
<path d="M86.6172 98.9607C86.6172 99.8387 87.1565 100.551 87.8215 100.551C88.4866 100.551 89.0259 99.8387 89.0259 98.9607C89.0259 98.0824 88.4866 97.3707 87.8215 97.3707C87.1565 97.3703 86.6172 98.0824 86.6172 98.9607Z" fill="#263238"/>
<path d="M77.804 100.551C78.4691 100.551 79.0083 99.8389 79.0083 98.9607C79.0083 98.0826 78.4691 97.3707 77.804 97.3707C77.1388 97.3707 76.5996 98.0826 76.5996 98.9607C76.5996 99.8389 77.1388 100.551 77.804 100.551Z" fill="#263238"/>
<path d="M87.2339 102.67C84.256 102.67 81.2782 102.67 78.3004 102.67C77.8248 102.67 77.824 101.931 78.3004 101.931C81.2782 101.931 84.256 101.931 87.2339 101.931C87.7091 101.931 87.7099 102.67 87.2339 102.67Z" fill="#263238"/>
<path d="M93.5191 134.359C96.3743 128.345 93.8136 121.155 87.7995 118.3C81.7854 115.445 74.5954 118.006 71.7402 124.02C68.8849 130.034 71.4457 137.224 77.4597 140.079C83.4738 142.934 90.6638 140.373 93.5191 134.359Z" fill="#E0E0E0"/>
<path d="M86.6172 127.141C86.6172 128.019 87.1565 128.732 87.8215 128.732C88.4866 128.732 89.0259 128.019 89.0259 127.141C89.0259 126.263 88.4866 125.551 87.8215 125.551C87.1565 125.551 86.6172 126.263 86.6172 127.141Z" fill="#263238"/>
<path d="M76.5977 127.141C76.5977 128.019 77.1369 128.732 77.802 128.732C78.4671 128.732 79.0064 128.019 79.0064 127.141C79.0064 126.263 78.4671 125.551 77.802 125.551C77.1369 125.551 76.5977 126.263 76.5977 127.141Z" fill="#263238"/>
<path d="M84.6737 168.179C91.2343 167.049 95.6364 160.814 94.506 154.254C93.3756 147.693 87.1408 143.291 80.5802 144.421C74.0196 145.552 69.6175 151.786 70.7479 158.347C71.8783 164.908 78.1131 169.31 84.6737 168.179Z" fill="#E0E0E0"/>
<path d="M86.1523 154.247C86.1523 155.125 86.6916 155.837 87.3567 155.837C88.0217 155.837 88.561 155.125 88.561 154.247C88.561 153.369 88.0217 152.657 87.3567 152.657C86.6916 152.657 86.1523 153.368 86.1523 154.247Z" fill="#263238"/>
<path d="M77.804 155.91C78.4691 155.91 79.0083 155.199 79.0083 154.32C79.0083 153.442 78.4691 152.73 77.804 152.73C77.1388 152.73 76.5996 153.442 76.5996 154.32C76.5996 155.199 77.1388 155.91 77.804 155.91Z" fill="#263238"/>
<path d="M79.2184 157.933C79.6403 156.418 81.132 155.266 82.7216 155.326C84.3048 155.386 85.732 156.613 86.0397 158.164C86.132 158.628 85.4196 158.827 85.3273 158.361C85.0841 157.135 83.994 156.115 82.7216 156.065C81.4559 156.016 80.2675 156.92 79.9308 158.13C79.8038 158.587 79.0906 158.393 79.2184 157.933Z" fill="#263238"/>
<path d="M83.1932 85.2389C90.1517 85.2389 95.7927 79.5979 95.7927 72.6394C95.7927 65.6809 90.1517 60.0399 83.1932 60.0399C76.2347 60.0399 70.5938 65.6809 70.5938 72.6394C70.5938 79.5979 76.2347 85.2389 83.1932 85.2389Z" fill="#FFCC00"/>
<path d="M87.3672 70.4962C87.3672 71.414 87.9308 72.1582 88.6261 72.1582C89.3214 72.1582 89.8849 71.414 89.8849 70.4962C89.8849 69.5784 89.3214 68.8341 88.6261 68.8341C87.9308 68.8341 87.3672 69.5784 87.3672 70.4962Z" fill="#263238"/>
<path d="M76.8965 70.4962C76.8965 71.414 77.4601 72.1582 78.1554 72.1582C78.8507 72.1582 79.4142 71.414 79.4142 70.4962C79.4142 69.5784 78.8507 68.8341 78.1554 68.8341C77.4601 68.8341 76.8965 69.5784 76.8965 70.4962Z" fill="#263238"/>
<path d="M86.9828 72.6207C86.6067 74.2215 85.0971 75.4879 83.4342 75.4923C81.7782 75.4971 80.2355 74.276 79.8483 72.6689C79.7325 72.1877 80.4676 71.9501 80.5842 72.4336C80.8902 73.7033 82.0719 74.7229 83.4028 74.721C84.7266 74.719 85.9297 73.724 86.2302 72.446C86.3436 71.9624 87.0966 72.1351 86.9828 72.6207Z" fill="#263238"/>
<path d="M91.8649 53.3395C96.6546 48.5499 96.6546 40.7843 91.8649 35.9947C87.0753 31.2051 79.3097 31.2051 74.5201 35.9947C69.7304 40.7843 69.7304 48.5499 74.5201 53.3395C79.3097 58.1292 87.0753 58.1292 91.8649 53.3395Z" fill="#E0E0E0"/>
<path d="M87.1426 42.5804C87.1426 43.4739 87.6914 44.1983 88.368 44.1983C89.045 44.1983 89.5935 43.4739 89.5935 42.5804C89.5935 41.6869 89.0446 40.9626 88.368 40.9626C87.691 40.9626 87.1426 41.6869 87.1426 42.5804Z" fill="#263238"/>
<path d="M76.9492 42.5804C76.9492 43.4739 77.4981 44.1983 78.1747 44.1983C78.8517 44.1983 79.4001 43.4739 79.4001 42.5804C79.4001 41.6869 78.8513 40.9626 78.1747 40.9626C77.4981 40.9626 76.9492 41.6869 76.9492 42.5804Z" fill="#263238"/>
<path d="M78.9648 44.9732C78.9648 47.4571 80.8593 49.471 83.1968 49.471C85.5342 49.471 87.4287 47.4571 87.4287 44.9732H78.9648Z" fill="#263238"/>
<path d="M80.9941 48.8103C80.9941 48.8103 81.8295 47.7449 83.1963 47.7449C84.563 47.7449 85.4036 48.8103 85.4036 48.8103C85.4036 48.8103 83.3511 50.1699 80.9941 48.8103Z" fill="#1D6C86"/>
<path d="M85.5963 130.746C85.4952 130.746 85.3941 130.707 85.3165 130.631C84.5997 129.922 83.3699 129.646 82.027 129.891C81.3787 130.01 80.7522 130.223 80.1656 130.524C79.9698 130.625 79.7302 130.547 79.6299 130.351C79.5296 130.156 79.6068 129.916 79.8022 129.816C80.4581 129.479 81.1586 129.241 81.8838 129.108C83.5072 128.812 84.9615 129.16 85.8765 130.065C86.0329 130.22 86.0341 130.471 85.8797 130.628C85.8017 130.707 85.699 130.746 85.5963 130.746Z" fill="#263238"/>
<path d="M104.622 60.1955C104.661 60.2377 103.26 61.5822 101.495 63.1976C99.7286 64.8139 98.2659 66.0891 98.2273 66.0469C98.1887 66.0047 99.5889 64.6607 101.355 63.0448C103.121 61.4293 104.583 60.1533 104.622 60.1955Z" fill="#1D6C86"/>
<path d="M109.501 70.9196C109.502 70.9769 107.317 71.0741 104.621 71.1365C101.925 71.199 99.7375 71.2034 99.7363 71.1461C99.7351 71.0888 101.919 70.9917 104.617 70.9292C107.313 70.8667 109.5 70.8623 109.501 70.9196Z" fill="#1D6C86"/>
<path d="M103.642 79.198C103.628 79.2219 103.352 79.085 102.925 78.8315C102.497 78.5784 101.921 78.2062 101.307 77.7624C100.693 77.3187 100.158 76.888 99.7831 76.5621C99.4086 76.2361 99.1921 76.0176 99.21 75.9961C99.2486 75.9504 100.205 76.7133 101.428 77.5945C102.648 78.4785 103.673 79.1471 103.642 79.198Z" fill="#1D6C86"/>
<path d="M67.1582 60.9453L67.4181 61.4719C67.4471 61.5312 67.5036 61.5722 67.5693 61.5818L68.1504 61.6661C68.3148 61.69 68.3808 61.8922 68.2614 62.0084L67.8412 62.4183C67.7938 62.4645 67.7723 62.531 67.7834 62.5959L67.8825 63.1745C67.9108 63.3385 67.7385 63.4635 67.5916 63.3859L67.0718 63.1129C67.0133 63.0822 66.9437 63.0822 66.8852 63.1129L66.3654 63.3859C66.2181 63.4631 66.0462 63.3381 66.0744 63.1745L66.1735 62.5959C66.1847 62.531 66.1632 62.4645 66.1158 62.4183L65.6955 62.0084C65.5765 61.8922 65.6422 61.69 65.8066 61.6661L66.3877 61.5818C66.4529 61.5722 66.5094 61.5312 66.5389 61.4719L66.7988 60.9453C66.872 60.7965 67.0846 60.7965 67.1582 60.9453Z" fill="#1D6C86"/>
<path d="M63.79 71.3423L63.9703 71.7077C63.9906 71.7487 64.0296 71.7773 64.0749 71.7837L64.4781 71.8422C64.5923 71.8589 64.6381 71.999 64.5553 72.0798L64.2636 72.364C64.231 72.3958 64.2158 72.442 64.2238 72.4874L64.2926 72.8889C64.3122 73.0028 64.1927 73.0895 64.0909 73.0358L63.7303 72.8464C63.6897 72.8249 63.6411 72.8249 63.6005 72.8464L63.2399 73.0358C63.1377 73.0895 63.0183 73.0028 63.0378 72.8889L63.1066 72.4874C63.1142 72.442 63.0994 72.3962 63.0664 72.364L62.7747 72.0798C62.6919 71.9994 62.7377 71.8589 62.8519 71.8422L63.2551 71.7837C63.3004 71.7769 63.3394 71.7487 63.3597 71.7077L63.54 71.3423C63.5914 71.2388 63.7386 71.2388 63.79 71.3423Z" fill="#1D6C86"/>
<path d="M103.632 66.1695L103.853 66.6176C103.878 66.6682 103.926 66.7028 103.982 66.7112L104.476 66.7828C104.616 66.8031 104.672 66.9754 104.571 67.0742L104.213 67.4228C104.173 67.4622 104.154 67.5187 104.164 67.574L104.248 68.0664C104.272 68.2057 104.126 68.3123 104.001 68.2463L103.559 68.0138C103.509 67.9876 103.45 67.9876 103.4 68.0138L102.958 68.2463C102.832 68.3119 102.686 68.2057 102.71 68.0664L102.794 67.574C102.804 67.5187 102.786 67.4622 102.746 67.4228L102.388 67.0742C102.286 66.9754 102.342 66.8035 102.482 66.7828L102.977 66.7112C103.033 66.7032 103.08 66.6682 103.105 66.6176L103.327 66.1695C103.389 66.0425 103.57 66.0425 103.632 66.1695Z" fill="#1D6C86"/>
<path d="M96.8158 61.6992L96.9412 61.9535C96.9551 61.9822 96.9826 62.002 97.014 62.0064L97.2946 62.047C97.3742 62.0586 97.4057 62.1561 97.3484 62.2122L97.1454 62.41C97.1227 62.4323 97.1119 62.4641 97.1175 62.4956L97.1653 62.775C97.1788 62.8542 97.0956 62.9143 97.0248 62.8773L96.774 62.7455C96.7458 62.7308 96.712 62.7308 96.6837 62.7455L96.433 62.8773C96.3621 62.9147 96.2789 62.8542 96.2925 62.775L96.3402 62.4956C96.3458 62.4641 96.335 62.4319 96.3124 62.41L96.1094 62.2122C96.0521 62.1561 96.0835 62.0586 96.1631 62.047L96.4437 62.0064C96.4751 62.0017 96.5026 61.9822 96.5165 61.9535L96.6419 61.6992C96.6777 61.6271 96.7804 61.6271 96.8158 61.6992Z" fill="#1D6C86"/>
<path d="M65.4275 67.2533C65.4196 67.2807 65.0403 67.1999 64.4341 67.0475C63.828 66.8947 62.9942 66.6702 62.0772 66.4099C61.1598 66.1496 60.3327 65.9024 59.7365 65.7138C59.1403 65.5251 58.7758 65.3946 58.7833 65.3671C58.7909 65.3397 59.1698 65.4201 59.7759 65.5729C60.3821 65.7253 61.2163 65.9502 62.1337 66.2109C63.0511 66.4712 63.8785 66.7183 64.4747 66.907C65.0709 67.0953 65.4355 67.2258 65.4275 67.2533Z" fill="#1D6C86"/>
<path d="M66.3971 76.6397C66.4329 76.6842 65.8507 77.214 65.0964 77.8229C64.3422 78.4323 63.7015 78.8896 63.6656 78.845C63.6298 78.8004 64.2117 78.2707 64.9663 77.6617C65.7205 77.0528 66.3613 76.5955 66.3971 76.6397Z" fill="#1D6C86"/>
<path d="M162.163 72.9637L164.723 72.7675C165.949 73.868 167.521 74.6174 169.306 74.8216C173.335 75.2821 177.168 72.6656 178.201 68.7442C179.497 63.8181 176.11 58.9299 171.042 58.4149C166.978 58.0017 163.164 60.7145 162.21 64.6861C161.723 66.7171 162.028 68.7314 162.911 70.4269L162.907 70.4237L162.163 72.9637Z" fill="white"/>
<path d="M162.163 72.9637C162.163 72.9637 162.185 72.904 162.22 72.7934C162.256 72.6752 162.307 72.5136 162.372 72.3051C162.504 71.8716 162.696 71.2456 162.944 70.4341L162.879 70.4492L162.883 70.4528C162.897 70.4683 162.921 70.4699 162.937 70.4555C162.95 70.4436 162.953 70.4241 162.945 70.409C162.468 69.4717 162.008 68.1296 162.04 66.4923C162.049 65.6776 162.207 64.8004 162.518 63.9184C162.828 63.0372 163.311 62.1513 163.987 61.3561C164.661 60.5609 165.527 59.8576 166.542 59.3458C167.555 58.8332 168.719 58.5144 169.935 58.469C172.36 58.3671 175.005 59.462 176.643 61.5949L176.947 61.9949L177.212 62.4195C177.402 62.6941 177.521 63.0066 177.677 63.2967C177.932 63.9037 178.146 64.525 178.25 65.1625C178.481 66.4318 178.404 67.7213 178.069 68.8982C177.726 70.0739 177.128 71.129 176.377 71.9882C175.627 72.8495 174.727 73.5158 173.787 73.9739C171.894 74.8936 169.891 74.9689 168.314 74.5856C166.718 74.2091 165.532 73.4326 164.75 72.7389C164.74 72.7357 164.731 72.7329 164.721 72.7297C163.903 72.8026 163.27 72.8591 162.832 72.8977C162.622 72.9176 162.458 72.9331 162.338 72.9442C162.225 72.955 162.163 72.9637 162.163 72.9637C162.161 72.9657 162.214 72.9637 162.322 72.9578C162.439 72.951 162.6 72.9415 162.806 72.9291C163.251 72.9005 163.894 72.8591 164.726 72.8053L164.698 72.7958C165.477 73.507 166.669 74.3062 168.285 74.7002C169.881 75.101 171.918 75.0381 173.85 74.1096C174.81 73.6475 175.73 72.9721 176.498 72.0957C177.267 71.2221 177.88 70.1459 178.233 68.9463C178.577 67.746 178.659 66.4286 178.423 65.1311C178.318 64.4796 178.1 63.8444 177.84 63.2239C177.681 62.927 177.558 62.6082 177.365 62.3272L177.093 61.8934L176.783 61.4842C175.109 59.3048 172.403 58.188 169.928 58.2974C168.686 58.346 167.499 58.6747 166.467 59.2009C165.433 59.7263 164.554 60.4462 163.871 61.259C163.185 62.0721 162.698 62.9763 162.388 63.8742C162.077 64.7725 161.924 65.664 161.921 66.4907C161.9 68.1523 162.381 69.5059 162.876 70.4448L162.938 70.4014L162.935 70.3982C162.921 70.3827 162.897 70.3811 162.881 70.395C162.876 70.3998 162.872 70.4066 162.87 70.4134C162.638 71.2416 162.459 71.8808 162.335 72.323C162.279 72.5291 162.235 72.6887 162.203 72.8057C162.174 72.9124 162.161 72.9657 162.163 72.9637Z" fill="#263238"/>
<path d="M169.107 70.4269L165.559 66.6009L166.894 65.3631L169.273 67.9283L173.901 64.1071L175.06 65.5108L169.107 70.4269Z" fill="#1D6C86"/>
<path d="M113.919 9.9476H157.552C159.632 9.9476 161.317 11.6331 161.317 13.7127V46.6985C161.317 48.7777 159.632 50.4636 157.552 50.4636H123.997C123.374 51.8136 122.205 52.897 120.885 53.611C119.805 54.1949 118.63 54.563 117.43 54.8424C116.959 54.9518 116.607 54.4169 116.902 54.0341C117.703 52.9925 118.252 51.7559 118.502 50.464H113.919C111.84 50.464 110.154 48.7785 110.154 46.6989V13.7123C110.154 11.6331 111.839 9.9476 113.919 9.9476Z" fill="white"/>
<path d="M113.918 9.94722C113.918 9.94722 113.84 9.95597 113.688 9.96632C113.535 9.97309 113.307 10.0021 113.016 10.0758C112.445 10.2179 111.564 10.5952 110.879 11.5444C110.537 12.0104 110.288 12.6289 110.207 13.3334C110.171 14.041 110.201 14.8283 110.195 15.6701C110.198 17.358 110.202 19.2954 110.207 21.4625C110.213 25.7992 110.22 31.0536 110.229 37.0626C110.231 40.0675 110.234 43.2614 110.237 46.6233C110.231 47.4468 110.484 48.2846 111.011 48.9464C111.526 49.6091 112.278 50.107 113.123 50.2865C113.544 50.3816 113.977 50.3757 114.427 50.3745C114.872 50.3741 115.32 50.3737 115.771 50.3737C116.671 50.3733 117.582 50.3725 118.501 50.3721H118.613L118.592 50.4815C118.386 51.5394 117.982 52.5742 117.386 53.5051C117.311 53.6213 117.235 53.736 117.154 53.8486C117.081 53.9581 116.972 54.0806 116.927 54.1714C116.82 54.3732 116.938 54.647 117.149 54.731C117.26 54.7732 117.358 54.768 117.498 54.7286L117.9 54.6295C118.168 54.5606 118.435 54.4862 118.7 54.4042C119.757 54.0767 120.801 53.6337 121.717 52.9758C122.629 52.3215 123.426 51.461 123.907 50.4226L123.933 50.3657H123.996C133.167 50.3641 143.182 50.3621 153.599 50.3601C154.397 50.3601 155.192 50.3601 155.985 50.3601H157.171C157.571 50.3649 157.95 50.355 158.327 50.2762C159.073 50.1094 159.77 49.7154 160.272 49.1427C160.787 48.5807 161.102 47.8523 161.19 47.1029C161.223 46.7308 161.211 46.3383 161.213 45.9523C161.213 45.5654 161.213 45.1794 161.213 44.7941C161.213 44.0232 161.214 43.2554 161.214 42.4909C161.214 40.9614 161.214 39.4442 161.214 37.9405C161.216 31.9252 161.218 26.1231 161.22 20.5957C161.221 19.2138 161.222 17.8495 161.222 16.5027C161.223 15.8293 161.223 15.1606 161.224 14.4968C161.222 13.8297 161.256 13.175 161.04 12.5672C160.648 11.3458 159.586 10.3989 158.373 10.1323C157.772 9.98184 157.135 10.0539 156.51 10.0356C155.885 10.0352 155.265 10.0348 154.651 10.0344C149.736 10.03 145.157 10.0256 140.977 10.0216C132.62 10.0077 125.857 9.99657 121.178 9.98861C118.843 9.98025 117.03 9.97348 115.795 9.96911C115.182 9.96473 114.715 9.96115 114.395 9.95876C114.08 9.95438 113.918 9.94722 113.918 9.94722C113.918 9.94722 114.08 9.94005 114.395 9.93647C114.715 9.93408 115.183 9.9309 115.795 9.92612C117.03 9.92174 118.843 9.91498 121.178 9.90662C125.857 9.89866 132.62 9.88752 140.977 9.87359C145.157 9.86961 149.736 9.86563 154.651 9.86085C155.265 9.86045 155.885 9.86005 156.51 9.85966C156.822 9.85966 157.136 9.85926 157.451 9.85886C157.608 9.85647 157.772 9.87199 157.933 9.87796C158.092 9.90344 158.255 9.91737 158.412 9.95836C159.685 10.2366 160.8 11.2272 161.214 12.5095C161.442 13.1491 161.407 13.842 161.409 14.496C161.409 15.1598 161.409 15.8289 161.41 16.5019C161.411 17.8483 161.411 19.2131 161.412 20.5949C161.414 26.1223 161.416 31.9244 161.418 37.9397C161.418 39.4434 161.419 40.9606 161.419 42.4901C161.419 43.255 161.419 44.0228 161.419 44.7933C161.419 45.1786 161.419 45.5646 161.419 45.9515C161.417 46.3387 161.43 46.7228 161.394 47.1248C161.303 47.9168 160.969 48.6865 160.426 49.2804C159.895 49.8853 159.159 50.302 158.37 50.4783C157.975 50.5623 157.561 50.5723 157.171 50.5671H155.984C155.191 50.5671 154.397 50.5671 153.599 50.5671C143.182 50.5651 133.167 50.5635 123.996 50.5615L124.085 50.5046C123.585 51.5804 122.764 52.4636 121.829 53.1326C120.89 53.8064 119.826 54.255 118.755 54.5857C118.487 54.6685 118.217 54.7433 117.947 54.8126L117.541 54.9125C117.417 54.9507 117.224 54.9726 117.077 54.9053C116.77 54.7835 116.602 54.3919 116.757 54.0906C116.839 53.9378 116.922 53.8582 117.001 53.7396C117.079 53.6293 117.155 53.5171 117.228 53.4036C117.811 52.4938 118.208 51.4813 118.411 50.4457L118.501 50.5548C117.582 50.5544 116.671 50.5536 115.77 50.5532C115.32 50.5528 114.872 50.5528 114.426 50.5524C113.986 50.5536 113.526 50.5595 113.085 50.4588C112.2 50.2694 111.413 49.7468 110.874 49.0523C110.324 48.3602 110.06 47.477 110.069 46.6233C110.072 43.2614 110.075 40.0675 110.077 37.0626C110.086 31.0536 110.093 25.7992 110.099 21.4625C110.104 19.2954 110.108 17.358 110.111 15.6701C110.122 14.8251 110.096 14.0482 110.137 13.3262C110.223 12.6086 110.481 11.9814 110.832 11.511C111.536 10.553 112.432 10.1816 113.009 10.0475C113.303 9.97786 113.533 9.95358 113.686 9.95159C113.84 9.94642 113.918 9.94722 113.918 9.94722Z" fill="#263238"/>
<path d="M120.369 22.0814C122.105 22.0814 123.513 20.6737 123.513 18.9372C123.513 17.2007 122.105 15.793 120.369 15.793C118.632 15.793 117.225 17.2007 117.225 18.9372C117.225 20.6737 118.632 22.0814 120.369 22.0814Z" fill="#455A64"/>
<path d="M119.033 25.4999L119.517 26.4817C119.572 26.592 119.677 26.6688 119.799 26.6863L120.883 26.8439C121.189 26.8885 121.312 27.2658 121.09 27.4823L120.306 28.2465C120.218 28.3324 120.177 28.4562 120.198 28.5776L120.384 29.6566C120.436 29.9622 120.115 30.1955 119.841 30.051L118.872 29.5415C118.762 29.4842 118.632 29.4842 118.523 29.5415L117.554 30.051C117.28 30.1955 116.959 29.9622 117.011 29.6566L117.196 28.5776C117.217 28.4562 117.177 28.3324 117.089 28.2465L116.305 27.4823C116.083 27.2658 116.205 26.8889 116.512 26.8439L117.596 26.6863C117.718 26.6688 117.823 26.592 117.878 26.4817L118.362 25.4999C118.499 25.2221 118.896 25.2221 119.033 25.4999Z" fill="#1D6C86"/>
<path d="M127.002 25.4999L127.486 26.4817C127.541 26.592 127.646 26.6688 127.768 26.6863L128.851 26.8439C129.158 26.8885 129.281 27.2658 129.059 27.4823L128.275 28.2465C128.187 28.3324 128.146 28.4562 128.167 28.5776L128.352 29.6566C128.405 29.9622 128.084 30.1955 127.809 30.051L126.84 29.5415C126.731 29.4842 126.601 29.4842 126.492 29.5415L125.523 30.051C125.248 30.1955 124.927 29.9622 124.98 29.6566L125.165 28.5776C125.186 28.4562 125.146 28.3324 125.058 28.2465L124.274 27.4823C124.051 27.2658 124.174 26.8889 124.481 26.8439L125.564 26.6863C125.686 26.6688 125.792 26.592 125.846 26.4817L126.33 25.4999C126.468 25.2221 126.865 25.2221 127.002 25.4999Z" fill="#1D6C86"/>
<path d="M134.971 25.4999L135.455 26.4817C135.509 26.592 135.615 26.6688 135.737 26.6863L136.82 26.8439C137.127 26.8885 137.25 27.2658 137.027 27.4823L136.243 28.2465C136.155 28.3324 136.115 28.4562 136.136 28.5776L136.321 29.6566C136.374 29.9622 136.053 30.1955 135.778 30.051L134.809 29.5415C134.7 29.4842 134.57 29.4842 134.461 29.5415L133.492 30.051C133.217 30.1955 132.896 29.9622 132.949 29.6566L133.134 28.5776C133.155 28.4562 133.114 28.3324 133.026 28.2465L132.242 27.4823C132.02 27.2658 132.143 26.8889 132.45 26.8439L133.533 26.6863C133.655 26.6688 133.76 26.592 133.815 26.4817L134.299 25.4999C134.436 25.2221 134.833 25.2221 134.971 25.4999Z" fill="#1D6C86"/>
<path d="M142.937 25.4999L143.422 26.4817C143.476 26.592 143.582 26.6688 143.704 26.6863L144.787 26.8439C145.094 26.8885 145.216 27.2658 144.994 27.4823L144.21 28.2465C144.122 28.3324 144.082 28.4562 144.103 28.5776L144.288 29.6566C144.34 29.9622 144.02 30.1955 143.745 30.051L142.776 29.5415C142.667 29.4842 142.537 29.4842 142.428 29.5415L141.458 30.051C141.184 30.1955 140.863 29.9622 140.916 29.6566L141.101 28.5776C141.121 28.4562 141.081 28.3324 140.993 28.2465L140.209 27.4823C139.987 27.2658 140.11 26.8889 140.416 26.8439L141.5 26.6863C141.622 26.6688 141.727 26.592 141.782 26.4817L142.266 25.4999C142.404 25.2221 142.8 25.2221 142.937 25.4999Z" fill="#1D6C86"/>
<path d="M150.906 25.4999L151.391 26.4817C151.445 26.592 151.551 26.6688 151.672 26.6863L152.756 26.8439C153.063 26.8885 153.185 27.2658 152.963 27.4823L152.179 28.2465C152.091 28.3324 152.05 28.4562 152.071 28.5776L152.257 29.6566C152.309 29.9622 151.988 30.1955 151.714 30.051L150.745 29.5415C150.636 29.4842 150.505 29.4842 150.396 29.5415L149.427 30.051C149.153 30.1955 148.832 29.9622 148.884 29.6566L149.069 28.5776C149.09 28.4562 149.05 28.3324 148.962 28.2465L148.178 27.4823C147.956 27.2658 148.078 26.8889 148.385 26.8439L149.469 26.6863C149.591 26.6688 149.696 26.592 149.751 26.4817L150.235 25.4999C150.372 25.2221 150.768 25.2221 150.906 25.4999Z" fill="#E0E0E0"/>
<path d="M152.779 44.4606H118.35C117.058 44.4606 116.012 43.4138 116.012 42.1223V34.6164C116.012 33.3249 117.058 32.2782 118.35 32.2782H152.779C154.07 32.2782 155.117 33.3249 155.117 34.6164V42.1223C155.117 43.4134 154.07 44.4606 152.779 44.4606Z" fill="#F5F5F5"/>
<path d="M150.57 17.4754H125.697V18.9372H150.57V17.4754Z" fill="#E0E0E0"/>
<path d="M135.734 20.0552H125.697V21.5171H135.734V20.0552Z" fill="#E0E0E0"/>
<path d="M150.972 35.8721H119.691V37.334H150.972V35.8721Z" fill="#E0E0E0"/>
<path d="M142.602 38.8054H119.691V40.2672H142.602V38.8054Z" fill="#E0E0E0"/>
<path d="M53.133 73.1265H18.0963C15.0412 73.1265 12.5645 75.6033 12.5645 78.6583V91.7995C12.5645 94.8545 15.0412 97.3313 18.0963 97.3313H38.3258C39.2416 99.3145 40.959 100.907 42.8988 101.956C44.4856 102.813 46.2126 103.354 47.9749 103.765C48.6666 103.925 49.1844 103.139 48.7514 102.577C47.5737 101.046 46.7678 99.2294 46.3996 97.3313H53.1334C56.1884 97.3313 58.6652 94.8545 58.6652 91.7995V78.6583C58.6652 75.6033 56.1884 73.1265 53.133 73.1265Z" fill="white"/>
<path d="M53.132 73.1265C53.132 73.1265 53.3677 73.1162 53.8202 73.1592C54.2707 73.2053 54.9453 73.345 55.7334 73.7454C56.5083 74.153 57.393 74.8646 58.0235 75.9865C58.3299 76.5481 58.564 77.2068 58.6595 77.9352C58.747 78.6675 58.7037 79.4396 58.7176 80.2563C58.7204 83.5251 58.7239 87.4868 58.7275 92.0208C58.6961 93.1686 58.2746 94.3423 57.5148 95.2975C56.7511 96.2432 55.6554 96.991 54.3909 97.2676C53.7629 97.4169 53.1006 97.4216 52.4554 97.4165C51.8051 97.4169 51.1468 97.4177 50.481 97.4185C49.1493 97.4196 47.7877 97.4208 46.3979 97.422L46.487 97.3138C46.7724 98.7752 47.3276 100.228 48.1567 101.555C48.3644 101.887 48.5889 102.209 48.8297 102.525C48.9634 102.702 49.0303 102.939 48.9921 103.163C48.9534 103.386 48.8285 103.592 48.6418 103.723C48.4599 103.861 48.2148 103.906 47.9935 103.865C47.7861 103.822 47.5951 103.773 47.3949 103.724C46.9985 103.624 46.6021 103.517 46.2064 103.398C44.6272 102.926 43.0447 102.277 41.633 101.289C40.2305 100.306 38.9855 98.9921 38.2325 97.3735L38.3245 97.4324C33.6667 97.4332 28.8409 97.434 23.8982 97.4344C22.6663 97.4344 21.4421 97.4344 20.2258 97.4344C19.6177 97.4344 19.0115 97.4344 18.4073 97.434C18.1077 97.4395 17.798 97.4208 17.4927 97.4009C17.1891 97.358 16.8862 97.313 16.5929 97.2254C16.005 97.061 15.4458 96.8043 14.9404 96.4684C14.4405 96.1245 13.9987 95.7035 13.6309 95.2279C12.8843 94.2814 12.4935 93.0882 12.4668 91.9089C12.4696 87.2623 12.4724 82.78 12.4748 78.5099C12.4771 77.9658 12.5926 77.4329 12.7446 76.9207C12.9098 76.4096 13.1569 75.934 13.4455 75.4918C13.7488 75.058 14.1062 74.6696 14.503 74.3309C14.9117 74.0081 15.3475 73.7223 15.8203 73.5181C16.2928 73.3203 16.7831 73.1603 17.2866 73.1006C17.7893 73.0222 18.2919 73.0386 18.7787 73.0374C19.7594 73.0382 20.7249 73.0394 21.6737 73.0402C25.4695 73.0445 29.0053 73.0489 32.2339 73.0529C38.6866 73.0668 43.9092 73.078 47.5246 73.0859C49.326 73.0943 50.7261 73.101 51.6817 73.1054C52.1534 73.1098 52.514 73.1134 52.7627 73.1158C53.0075 73.1194 53.132 73.1265 53.132 73.1265C53.132 73.1265 53.0075 73.1337 52.7639 73.1373C52.5151 73.1396 52.1542 73.1432 51.6829 73.1476C50.7273 73.152 49.3272 73.1588 47.5258 73.1671C43.9104 73.1751 38.6878 73.1862 32.2351 73.2001C29.0065 73.2041 25.4707 73.2081 21.6749 73.2129C20.7261 73.2137 19.7605 73.2149 18.7799 73.2157C18.2875 73.2177 17.796 73.2029 17.3132 73.2797C16.8257 73.3375 16.3521 73.4939 15.8952 73.6857C15.4383 73.8839 15.0172 74.1613 14.622 74.4737C14.2387 74.8021 13.894 75.1786 13.6011 75.5981C13.3225 76.0263 13.0841 76.486 12.9253 76.98C12.7792 77.4751 12.6678 77.9897 12.6666 78.5158C12.6678 82.7828 12.6694 87.2623 12.6706 91.9058C12.6968 93.0428 13.0737 94.1915 13.7941 95.1037C14.1487 95.5618 14.5746 95.9673 15.0562 96.2989C15.5433 96.6221 16.0818 96.8692 16.6482 97.0276C16.9308 97.1124 17.2225 97.155 17.515 97.1968C17.8099 97.2151 18.1033 97.2342 18.4077 97.2286C19.0119 97.2286 19.6181 97.2286 20.2262 97.2282C21.4425 97.2282 22.6667 97.2282 23.8986 97.2282C28.8413 97.229 33.6667 97.2298 38.3249 97.2302H38.3897L38.4172 97.2891C39.1499 98.8672 40.3686 100.159 41.7477 101.127C43.1339 102.099 44.6968 102.742 46.2626 103.213C46.655 103.33 47.0486 103.437 47.4422 103.537C47.6373 103.585 47.8398 103.637 48.0289 103.676C48.204 103.708 48.3891 103.675 48.5308 103.568C48.676 103.467 48.7739 103.304 48.8042 103.133C48.8329 102.96 48.7839 102.782 48.6784 102.641C48.4364 102.322 48.2076 101.993 47.9974 101.656C47.1573 100.306 46.5965 98.8321 46.3091 97.3488L46.288 97.2405H46.3983C47.7881 97.2417 49.1497 97.2429 50.4814 97.2441C51.1472 97.2449 51.8055 97.2453 52.4558 97.2461C53.1094 97.2525 53.743 97.2489 54.3539 97.1056C55.5809 96.8402 56.6464 96.1162 57.391 95.1992C58.1313 94.2723 58.5444 93.1328 58.5783 92.0156C58.5906 87.4836 58.6018 83.5239 58.6105 80.2567C58.6006 79.4416 58.6471 78.6619 58.5651 77.9479C58.4752 77.2315 58.2487 76.582 57.951 76.0267C57.3373 74.9175 56.4697 74.2071 55.7067 73.796C54.9314 73.3916 54.264 73.2435 53.8166 73.1882C53.5933 73.15 53.4202 73.1568 53.3056 73.1428C53.1906 73.1345 53.132 73.1265 53.132 73.1265Z" fill="#263238"/>
<path d="M24.8523 81.4953L25.5862 82.9826C25.6686 83.1497 25.8282 83.266 26.0128 83.2926L27.6542 83.531C28.1191 83.5987 28.3045 84.1698 27.9682 84.4978L26.7806 85.6556C26.6468 85.7857 26.586 85.9736 26.6174 86.1574L26.8976 87.7924C26.9772 88.2553 26.4908 88.6087 26.0753 88.3898L24.6071 87.6181C24.4419 87.5313 24.2449 87.5313 24.0797 87.6181L22.6115 88.3898C22.1956 88.6083 21.7097 88.2553 21.7893 87.7924L22.0695 86.1574C22.1009 85.9736 22.04 85.7861 21.9063 85.6556L20.7186 84.4978C20.3823 84.1698 20.5678 83.5987 21.0327 83.531L22.674 83.2926C22.8587 83.266 23.0183 83.1497 23.1007 82.9826L23.8346 81.4953C24.0435 81.0742 24.6441 81.0742 24.8523 81.4953Z" fill="#1D6C86"/>
<path d="M36.9226 81.4953L37.6565 82.9826C37.7393 83.1497 37.8985 83.266 38.0831 83.2926L39.7245 83.531C40.1894 83.5987 40.3748 84.1698 40.0385 84.4978L38.8509 85.6556C38.7172 85.7857 38.6563 85.9736 38.6877 86.1574L38.9679 87.7924C39.0475 88.2553 38.5611 88.6087 38.1456 88.3898L36.6774 87.6181C36.5122 87.5313 36.3148 87.5313 36.1497 87.6181L34.6814 88.3898C34.2655 88.6083 33.7796 88.2553 33.8592 87.7924L34.1398 86.1574C34.1712 85.9736 34.1103 85.7861 33.9766 85.6556L32.789 84.4978C32.4526 84.1698 32.6381 83.5987 33.103 83.531L34.7443 83.2926C34.929 83.266 35.0886 83.1497 35.171 82.9826L35.9049 81.4953C36.1142 81.0742 36.7148 81.0742 36.9226 81.4953Z" fill="#1D6C86"/>
<path d="M48.9929 81.4953L49.7268 82.9826C49.8092 83.1497 49.9688 83.266 50.1535 83.2926L51.7948 83.531C52.2597 83.5987 52.4455 84.1698 52.1088 84.4978L50.9212 85.6556C50.7875 85.7857 50.7266 85.9736 50.758 86.1574L51.0382 87.7924C51.1178 88.2553 50.6319 88.6087 50.2159 88.3898L48.7477 87.6181C48.5826 87.5313 48.3855 87.5313 48.2204 87.6181L46.7522 88.3898C46.3362 88.6083 45.8503 88.2553 45.9299 87.7924L46.2101 86.1574C46.2415 85.9736 46.1806 85.7861 46.0469 85.6556L44.8593 84.4978C44.523 84.1698 44.7084 83.5987 45.1733 83.531L46.8146 83.2926C46.9993 83.266 47.1589 83.1497 47.2413 82.9826L47.9752 81.4953C48.1842 81.0742 48.7851 81.0742 48.9929 81.4953Z" fill="#1D6C86"/>
<path d="M175.858 163.984V149.697C175.858 144.173 171.38 139.695 165.856 139.695H117.219C111.695 139.695 107.217 144.173 107.217 149.697V174.597C107.217 180.12 111.695 184.598 117.219 184.598H165.856C171.38 184.598 175.857 180.12 175.857 174.597V171.239C177.205 171.559 178.657 171.456 179.932 170.91C181.671 170.165 183.048 168.618 183.587 166.803C180.791 167.857 177.33 166.574 175.858 163.984Z" fill="white"/>
<path d="M175.859 163.984C175.859 163.984 175.969 164.149 176.181 164.468C176.417 164.77 176.772 165.225 177.364 165.691C177.953 166.153 178.774 166.631 179.838 166.917C180.894 167.187 182.224 167.268 183.573 166.765L183.649 166.737L183.627 166.815C183.251 168.1 182.383 169.44 181.008 170.375C179.651 171.323 177.738 171.742 175.845 171.294L175.916 171.238C175.917 171.858 175.918 172.492 175.919 173.139C175.91 173.787 175.945 174.443 175.895 175.122C175.83 176.473 175.481 177.868 174.821 179.169C174.169 180.473 173.188 181.671 171.945 182.609C170.708 183.548 169.213 184.255 167.579 184.517C167.375 184.549 167.17 184.58 166.964 184.611C166.758 184.638 166.549 184.637 166.34 184.651C165.921 184.682 165.504 184.677 165.083 184.677C164.241 184.678 163.388 184.678 162.525 184.679C160.797 184.68 159.027 184.681 157.216 184.682C153.594 184.684 149.809 184.687 145.88 184.689C138.022 184.692 129.586 184.695 120.718 184.698C119.61 184.699 118.495 184.699 117.373 184.699C116.244 184.692 115.101 184.535 114.014 184.172C111.829 183.466 109.913 181.933 108.666 179.959C108.046 178.97 107.579 177.871 107.34 176.713C107.087 175.554 107.114 174.357 107.114 173.185C107.114 170.828 107.114 168.45 107.114 166.054C107.114 162.232 107.114 158.456 107.114 154.734C107.114 153.804 107.114 152.877 107.114 151.954C107.114 151.492 107.114 151.031 107.114 150.571C107.115 150.111 107.107 149.653 107.14 149.189C107.209 147.335 107.851 145.544 108.854 144.029C109.383 143.29 109.975 142.597 110.666 142.015C111.361 141.444 112.104 140.925 112.922 140.563C113.317 140.351 113.748 140.228 114.162 140.067C114.374 140.001 114.591 139.954 114.805 139.896C115.019 139.839 115.234 139.783 115.454 139.758L116.109 139.658C116.327 139.632 116.549 139.632 116.768 139.617C117.209 139.586 117.642 139.597 118.075 139.595C121.542 139.596 124.935 139.597 128.246 139.598C141.489 139.607 153.415 139.614 163.431 139.621C164.683 139.637 165.905 139.577 167.101 139.709C168.293 139.846 169.425 140.21 170.43 140.735C171.439 141.256 172.328 141.93 173.075 142.693C173.831 143.451 174.403 144.331 174.855 145.219C175.317 146.108 175.587 147.047 175.752 147.959C175.786 148.189 175.82 148.417 175.855 148.642C175.867 148.869 175.878 149.094 175.89 149.317C175.923 149.764 175.902 150.197 175.907 150.623C175.904 152.325 175.901 153.881 175.898 155.28C175.89 158.078 175.883 160.252 175.878 161.729C175.874 162.465 175.87 163.026 175.868 163.408C175.865 163.789 175.859 163.984 175.859 163.984C175.859 163.984 175.852 163.792 175.848 163.415C175.846 163.034 175.843 162.474 175.838 161.74C175.834 160.262 175.827 158.089 175.818 155.29C175.816 153.889 175.812 152.331 175.809 150.626C175.803 150.201 175.822 149.762 175.788 149.322C175.776 149.102 175.763 148.879 175.751 148.654C175.716 148.431 175.681 148.206 175.646 147.979C175.481 147.077 175.211 146.149 174.752 145.272C174.303 144.395 173.736 143.528 172.987 142.78C172.246 142.028 171.367 141.365 170.371 140.853C169.377 140.337 168.26 139.981 167.084 139.848C165.912 139.72 164.682 139.781 163.431 139.768C153.415 139.774 141.489 139.782 128.246 139.79C124.935 139.791 121.542 139.792 118.075 139.794C117.642 139.795 117.205 139.785 116.777 139.816C116.562 139.831 116.345 139.83 116.131 139.857L115.489 139.955C115.273 139.979 115.063 140.035 114.853 140.091C114.643 140.147 114.43 140.194 114.223 140.259C113.817 140.417 113.394 140.537 113.008 140.745C112.206 141.1 111.478 141.61 110.797 142.169C110.12 142.74 109.541 143.419 109.022 144.144C108.041 145.629 107.411 147.383 107.345 149.2C107.312 149.651 107.32 150.112 107.32 150.572C107.32 151.032 107.32 151.493 107.32 151.954C107.32 152.878 107.32 153.805 107.32 154.735C107.32 158.457 107.321 162.233 107.321 166.055C107.321 168.45 107.321 170.828 107.321 173.186C107.321 174.368 107.294 175.537 107.542 176.671C107.776 177.805 108.233 178.881 108.84 179.851C110.061 181.784 111.938 183.288 114.079 183.98C116.219 184.732 118.511 184.438 120.718 184.498C129.585 184.502 138.021 184.505 145.88 184.508C149.809 184.51 153.594 184.512 157.216 184.514C159.027 184.516 160.797 184.517 162.525 184.518C163.388 184.519 164.241 184.519 165.083 184.52C165.504 184.521 165.923 184.526 166.333 184.497C166.539 184.483 166.745 184.484 166.948 184.459C167.15 184.428 167.352 184.397 167.553 184.367C169.162 184.112 170.636 183.418 171.857 182.495C173.085 181.572 174.055 180.394 174.7 179.108C175.354 177.826 175.701 176.451 175.77 175.116C175.821 174.45 175.787 173.785 175.798 173.14C175.799 172.493 175.8 171.859 175.801 171.239V171.166L175.872 171.183C177.731 171.628 179.613 171.222 180.952 170.294C182.31 169.377 183.171 168.059 183.548 166.792L183.601 166.842C182.229 167.347 180.885 167.257 179.821 166.978C178.749 166.683 177.925 166.194 177.337 165.724C176.746 165.25 176.393 164.788 176.163 164.48C175.955 164.153 175.859 163.984 175.859 163.984Z" fill="#263238"/>
<path d="M164.419 155.28H118.656V160.794H164.419V155.28Z" fill="#E0E0E0"/>
<path d="M154.241 164.639H118.656V170.153H154.241V164.639Z" fill="#E0E0E0"/>
<path d="M112.229 93.6263C112.229 93.6263 110.703 87.478 109.594 85.5294C108.485 83.5808 105.925 80.8262 105.214 81.3194C104.503 81.8125 105.389 82.6483 105.79 83.3906L106.874 84.7199L107.222 85.8438C107.222 85.8438 105.814 85.9947 105.884 87.2217C105.884 87.2217 104.988 87.1584 104.955 88.3015C104.955 88.3015 104.032 88.6529 104.334 89.8453C104.621 90.9796 105.141 91.1993 105.434 91.0039C105.599 90.8944 105.763 90.4746 105.763 90.4746C105.763 90.4746 106.955 92.7002 107.644 93.1232C108.124 93.4182 108.52 93.6351 108.52 93.6351L108.588 95.3835C108.588 95.3835 109.205 96.3116 110.783 94.7077C112.362 93.1041 112.229 93.6263 112.229 93.6263Z" fill="#FFBF9D"/>
<path d="M110.589 88.8897C110.575 88.8937 110.513 88.7277 110.398 88.4288C110.282 88.1307 110.116 87.6981 109.872 87.1831C109.75 86.926 109.607 86.6482 109.43 86.368C109.25 86.0938 109.032 85.7992 108.802 85.5071C108.571 85.2321 108.293 84.8918 107.939 84.8743C107.766 84.8739 107.573 84.9483 107.506 85.0944C107.434 85.2492 107.449 85.4609 107.494 85.6635C107.585 86.0731 107.761 86.4667 107.921 86.8412C108 87.0247 108.109 87.2074 108.153 87.4243C108.193 87.6348 108.194 87.8326 108.195 88.0237C108.203 88.4057 108.147 88.7743 108.23 89.0716C108.312 89.378 108.501 89.6256 108.699 89.8182C109.104 90.2043 109.535 90.4001 109.818 90.5354C110.109 90.666 110.277 90.7229 110.273 90.7372C110.269 90.7504 110.093 90.7197 109.788 90.6103C109.489 90.4944 109.041 90.3193 108.599 89.9253C108.383 89.7283 108.166 89.4644 108.065 89.1186C107.963 88.7623 108.019 88.3974 108.004 88.0252C108 87.8382 107.996 87.6452 107.959 87.4653C107.923 87.2901 107.822 87.1178 107.736 86.9252C107.57 86.5435 107.391 86.1527 107.29 85.7065C107.245 85.4864 107.213 85.2428 107.32 85.0032C107.379 84.8866 107.483 84.7927 107.597 84.7421C107.707 84.6988 107.822 84.6645 107.944 84.6709C108.188 84.6793 108.394 84.8094 108.546 84.9455C108.703 85.0844 108.832 85.2365 108.951 85.3873C109.186 85.6942 109.392 85.9827 109.576 86.2764C109.753 86.5702 109.89 86.8567 110.005 87.121C110.235 87.6507 110.381 88.0933 110.474 88.4014C110.567 88.7114 110.603 88.8861 110.589 88.8897Z" fill="#FF9A6C"/>
<path d="M105.993 87.3041C106.013 87.2862 106.269 87.5461 106.541 88.0595C106.673 88.317 106.827 88.6314 106.882 89.0314C106.91 89.4167 106.889 89.8859 106.586 90.2728C106.432 90.4562 106.239 90.6063 105.974 90.6254C105.832 90.6298 105.705 90.539 105.639 90.4487C105.568 90.3575 105.525 90.2612 105.486 90.1757C105.329 89.827 105.215 89.5014 105.136 89.224C104.979 88.668 104.949 88.3106 104.975 88.3067C105.006 88.3003 105.086 88.6454 105.276 89.1795C105.371 89.4461 105.496 89.7594 105.66 90.0949C105.736 90.2612 105.837 90.4328 105.972 90.4228C106.122 90.4137 106.308 90.2935 106.425 90.143C106.675 89.8326 106.709 89.4031 106.692 89.0497C106.655 88.6975 106.522 88.3791 106.41 88.1236C106.178 87.6082 105.969 87.3228 105.993 87.3041Z" fill="#FF9A6C"/>
<path d="M108.058 88.8424C108.083 88.8479 108.081 88.9773 107.988 89.1532C107.941 89.2404 107.877 89.3391 107.779 89.4338C107.729 89.4807 107.676 89.5289 107.591 89.5643C107.553 89.5818 107.477 89.5934 107.42 89.5703C107.438 89.5727 107.416 89.5715 107.371 89.5826C107.232 89.6029 107.161 89.5353 107.097 89.4839C107.037 89.4274 106.999 89.3709 106.963 89.3176C106.89 89.2093 106.84 89.1038 106.806 89.0123C106.739 88.8284 106.738 88.7058 106.764 88.6991C106.793 88.6907 106.844 88.7954 106.938 88.9486C106.985 89.025 107.044 89.1138 107.117 89.2049C107.182 89.2969 107.292 89.3956 107.333 89.3785C107.356 89.3777 107.406 89.3498 107.491 89.3765L107.498 89.3793L107.5 89.3801C107.503 89.3749 107.48 89.4262 107.49 89.4043V89.4039L107.491 89.4023L107.494 89.3964C107.495 89.3924 107.496 89.3884 107.496 89.3848C107.494 89.3749 107.497 89.3797 107.498 89.3781C107.5 89.3801 107.512 89.3753 107.519 89.3737C107.56 89.3606 107.61 89.3255 107.652 89.2909C107.738 89.2209 107.809 89.1405 107.865 89.0728C107.978 88.9359 108.028 88.8344 108.058 88.8424Z" fill="#FF9A6C"/>
<path d="M129.223 172.693L127.16 183.96L122.959 192.4C122.656 193.008 122.932 193.746 123.56 194.006C123.911 194.152 124.308 194.121 124.63 193.918C126.682 192.631 134.204 187.857 134.308 187.024C134.43 186.059 137.273 175.285 137.273 175.285L129.223 172.693Z" fill="#263238"/>
<path d="M123.561 194.007L134.466 186.268L134.367 186.743C134.282 187.153 134.056 187.522 133.725 187.78C132.84 188.469 130.354 190.32 124.665 193.926C124.334 194.136 123.918 194.167 123.561 194.007Z" fill="#E0E0E0"/>
<g opacity="0.6">
<path d="M132.874 183.401C132.553 183.537 132.373 183.943 132.496 184.27C132.66 184.706 133.338 184.892 133.635 184.408C133.899 183.98 133.633 183.377 133.131 183.348C133.015 183.341 132.904 183.366 132.813 183.431" fill="white"/>
</g>
<path d="M127.54 189.08C127.475 189.112 127.218 188.511 126.537 188.188C125.867 187.844 125.234 188.004 125.219 187.934C125.209 187.905 125.355 187.817 125.622 187.779C125.888 187.741 126.276 187.778 126.649 187.962C127.021 188.147 127.287 188.431 127.418 188.666C127.551 188.902 127.569 189.071 127.54 189.08Z" fill="white"/>
<path d="M126.339 190.618C126.276 190.656 125.991 190.217 125.445 189.931C124.906 189.632 124.383 189.637 124.379 189.563C124.359 189.499 124.948 189.373 125.565 189.709C126.185 190.039 126.404 190.601 126.339 190.618Z" fill="white"/>
<path d="M129.214 187.564C129.159 187.617 128.608 187.031 127.717 186.669C126.831 186.293 126.026 186.316 126.026 186.24C126.008 186.178 126.862 186.036 127.813 186.437C128.767 186.828 129.269 187.533 129.214 187.564Z" fill="white"/>
<path d="M129.816 185.458C129.772 185.518 129.206 185.132 128.406 184.936C127.608 184.729 126.926 184.801 126.916 184.727C126.897 184.666 127.609 184.471 128.467 184.692C129.327 184.904 129.862 185.413 129.816 185.458Z" fill="white"/>
<path d="M133.393 174.987L136.864 183.004C136.864 183.004 129.88 189.225 130.377 190.769L146.164 184.598L141.269 171.883L133.393 174.987Z" fill="#263238"/>
<path d="M146.165 184.598L145.691 183.367L130.688 189.724C130.688 189.724 130.104 190.305 130.377 190.769L146.165 184.598Z" fill="#E0E0E0"/>
<path d="M136.577 183.024C136.61 183.1 137.009 182.984 137.486 183.084C137.964 183.171 138.29 183.429 138.349 183.37C138.415 183.328 138.119 182.912 137.541 182.801C136.963 182.686 136.533 182.96 136.577 183.024Z" fill="white"/>
<path d="M135.189 184.356C135.2 184.438 135.585 184.438 135.975 184.662C136.371 184.875 136.574 185.201 136.65 185.168C136.727 185.152 136.604 184.68 136.114 184.41C135.628 184.137 135.162 184.282 135.189 184.356Z" fill="white"/>
<path d="M135.022 186.706C135.098 186.695 135.055 186.268 134.692 185.923C134.332 185.575 133.903 185.551 133.895 185.628C133.877 185.708 134.199 185.843 134.493 186.131C134.794 186.412 134.942 186.728 135.022 186.706Z" fill="white"/>
<path d="M158.237 138.548C158.237 138.548 157.446 143.634 153.681 144.61C149.915 145.587 142.698 149.944 142.698 149.944C142.698 149.944 142.104 160.244 140.608 165.415C139.113 170.586 135.752 181.839 135.752 181.839L127.088 179.909C127.088 179.909 131.737 149.809 132.571 144.169C133.404 138.53 141.373 133.476 141.373 133.476L143.587 124.155L153.752 123.841C153.752 123.841 159 133.82 158.237 138.548Z" fill="#263238"/>
<path d="M132.995 123.139C133.063 123.544 129.598 128.383 129.077 129.978C129.077 129.978 119.671 136.412 121.572 148.22C123.922 162.815 134.313 179.791 134.39 179.201L143.352 175.462C143.352 175.462 136.591 150.245 136.812 149.963C137.034 149.681 141.535 133.97 141.535 133.97L143.588 124.154L132.995 123.139Z" fill="#263238"/>
<path d="M148.048 130.755C148.048 130.755 147.95 130.779 147.759 130.816C147.568 130.848 147.287 130.924 146.923 131.032C146.195 131.253 145.145 131.657 143.836 132.275C143.182 132.584 142.462 132.945 141.686 133.362C141.291 133.555 140.932 133.843 140.538 134.114C140.15 134.393 139.753 134.692 139.351 135.012C138.544 135.65 137.709 136.37 136.882 137.193C136.06 138.018 135.214 138.925 134.481 139.992C133.751 141.054 133.087 142.263 132.773 143.635C132.735 143.807 132.696 143.978 132.657 144.152C132.629 144.329 132.602 144.507 132.574 144.685C132.519 145.044 132.464 145.405 132.409 145.77C132.298 146.5 132.185 147.243 132.07 148C131.609 151.027 131.115 154.265 130.596 157.675C129.552 164.497 128.402 172.011 127.192 179.924L127.112 179.807C127.771 179.954 128.481 180.112 129.195 180.272C131.425 180.769 133.625 181.259 135.776 181.739L135.655 181.81C137.429 175.783 139.156 170.051 140.685 164.758C141.355 162.092 141.692 159.466 141.992 156.984C142.273 154.499 142.481 152.141 142.622 149.94L142.624 149.898L142.659 149.878C145.346 148.291 147.839 146.956 150.096 145.918C151.227 145.404 152.299 144.962 153.325 144.661C153.583 144.589 153.828 144.509 154.065 144.427C154.31 144.36 154.525 144.239 154.738 144.129C155.163 143.906 155.526 143.619 155.841 143.322C156.468 142.719 156.889 142.057 157.204 141.467C157.517 140.873 157.725 140.34 157.868 139.903C158.014 139.467 158.103 139.126 158.157 138.897C158.213 138.667 158.238 138.549 158.238 138.549C158.238 138.549 158.189 139.035 157.91 139.917C157.773 140.358 157.571 140.896 157.262 141.497C156.951 142.095 156.533 142.768 155.901 143.384C155.584 143.688 155.217 143.983 154.784 144.214C154.567 144.328 154.348 144.452 154.099 144.522C153.856 144.608 153.607 144.691 153.354 144.763C152.34 145.067 151.273 145.514 150.148 146.031C147.901 147.076 145.416 148.42 142.739 150.011L142.777 149.949C142.643 152.156 142.441 154.515 142.165 157.005C141.87 159.491 141.538 162.12 140.868 164.807C139.345 170.112 137.625 175.839 135.853 181.869L135.826 181.961L135.732 181.94C133.581 181.461 131.381 180.971 129.151 180.474C128.438 180.315 127.727 180.157 127.067 180.01L126.973 179.989L126.987 179.893C128.204 171.981 129.36 164.468 130.409 157.647C130.936 154.238 131.436 151.002 131.903 147.976C132.02 147.219 132.135 146.476 132.248 145.746C132.305 145.381 132.361 145.02 132.416 144.662C132.444 144.484 132.473 144.305 132.501 144.128C132.541 143.951 132.58 143.775 132.62 143.6C132.946 142.2 133.624 140.979 134.365 139.91C135.108 138.834 135.963 137.926 136.793 137.101C137.627 136.277 138.468 135.558 139.282 134.923C139.688 134.604 140.087 134.306 140.478 134.028C140.873 133.759 141.24 133.47 141.642 133.277C142.422 132.864 143.146 132.507 143.804 132.203C145.121 131.595 146.179 131.202 146.913 130.993C147.645 130.783 148.048 130.755 148.048 130.755Z" fill="#455A64"/>
<path d="M135.737 131.792C135.762 131.744 136.769 132.232 137.916 132.996C139.064 133.757 139.905 134.496 139.87 134.538C139.832 134.584 138.94 133.924 137.801 133.168C136.663 132.411 135.708 131.845 135.737 131.792Z" fill="#455A64"/>
<path d="M142.933 146.149C142.985 146.142 143.121 147.089 142.983 148.253C142.85 149.418 142.501 150.309 142.452 150.29C142.393 150.272 142.648 149.37 142.777 148.229C142.913 147.089 142.872 146.153 142.933 146.149Z" fill="#455A64"/>
<path d="M151.787 86.8559C152.591 84.3927 153.393 81.9299 154.197 79.4666L155.975 76.1031C157.268 75.3657 159.957 76.9636 160.863 78.1441C161.769 79.3246 161.946 80.9301 161.726 82.4023C161.581 83.3774 161.288 84.4225 161.719 85.3089C162.214 86.3262 163.524 86.7962 163.904 87.8617C164.152 88.5578 163.922 89.3538 163.485 89.9492C163.047 90.5446 162.427 90.9764 161.809 91.382C161.253 91.7477 160.677 92.1071 160.032 92.2739C159.388 92.4406 158.655 92.3881 158.125 91.9845C158.101 92.9596 157.211 93.7966 156.239 93.8774C155.266 93.9582 154.306 93.362 153.83 92.5103C153.355 91.6586 153.329 90.6003 153.633 89.6734C153.366 90.1705 152.629 90.2719 152.154 89.9679C151.678 89.6638 151.452 89.0704 151.444 88.506C151.436 87.9417 151.613 87.3928 151.787 86.8559Z" fill="#263238"/>
<path d="M155.672 76.1581C154.487 73.2137 152.333 71.0589 149.319 70.0619C147.62 69.4995 146.801 69.6337 145.467 69.5811C144.132 69.5282 142.816 69.8414 141.756 70.6541C140.497 71.6193 139.331 72.7763 138.696 74.2294C138.044 75.7223 137.387 77.2255 137.019 78.8127C136.651 80.4 136.584 82.0935 137.104 83.6377L140.835 85.5568C142.991 86.3123 145.178 87.0744 147.457 87.2412C149.735 87.4076 152.155 86.9104 153.874 85.4052C156.26 83.3133 156.857 79.1021 155.672 76.1581Z" fill="#263238"/>
<path d="M146.138 71.0291L147.562 71.2989L152.169 75.0341C152.917 75.3099 153.329 76.1123 153.118 76.8812L147.419 93.294L138.836 93.6263L139.982 89.548C139.982 89.548 136.57 88.1045 136.97 83.703C137.169 81.514 138.149 78.0904 139.041 75.3155C139.844 72.8169 143.043 70.0735 146.138 71.0291Z" fill="#FFBF9D"/>
<path d="M143.458 84.6713C143.497 84.4448 143.436 84.2152 143.323 84.0349C143.098 83.6747 142.656 83.5083 142.254 83.6325C141.854 83.7571 141.519 84.1646 141.445 84.618C141.551 84.9304 141.78 85.1907 142.085 85.3156C142.133 85.3351 142.181 85.3523 142.231 85.3662C142.47 85.4343 142.737 85.4299 142.974 85.3113C143.21 85.1927 143.409 84.9503 143.458 84.6713Z" fill="#FF9A6C"/>
<path d="M139.323 79.2366C139.241 79.5208 139.413 79.8249 139.708 79.9168C140.002 80.0083 140.309 79.8535 140.391 79.5693C140.474 79.2852 140.302 78.9807 140.007 78.8892C139.712 78.7972 139.406 78.9528 139.323 79.2366Z" fill="#263238"/>
<path d="M139.549 77.0006C139.598 77.0886 140.086 76.8884 140.67 77.038C141.255 77.1789 141.607 77.5881 141.689 77.5324C141.728 77.5085 141.692 77.3636 141.54 77.1805C141.39 76.9986 141.11 76.7881 140.746 76.697C140.382 76.607 140.042 76.6631 139.831 76.7559C139.617 76.8478 139.524 76.9604 139.549 77.0006Z" fill="#263238"/>
<path d="M141.831 82.6566C141.842 82.624 141.495 82.4696 140.926 82.2451C140.781 82.1922 140.647 82.1265 140.647 82.0182C140.64 81.9016 140.743 81.7568 140.859 81.6015C141.09 81.2764 141.333 80.9353 141.588 80.5779C142.609 79.1164 143.39 77.8993 143.33 77.8587C143.271 77.8181 142.395 78.9696 141.373 80.431C141.124 80.7924 140.887 81.1367 140.661 81.4662C140.562 81.6214 140.416 81.789 140.435 82.0318C140.447 82.1536 140.536 82.2618 140.625 82.312C140.714 82.3653 140.797 82.388 140.87 82.4115C141.453 82.5933 141.82 82.6893 141.831 82.6566Z" fill="#263238"/>
<path d="M139.976 89.5408C139.976 89.5408 142.776 90.4455 146.026 89.4652C146.026 89.4652 143.801 92.1398 139.666 90.6707L139.976 89.5408Z" fill="#FF9A6C"/>
<path d="M143.446 83.4956C143.352 83.4662 143.191 84.0994 142.534 84.4118C141.878 84.7262 141.221 84.4835 141.193 84.571C141.174 84.6084 141.312 84.7322 141.595 84.8122C141.873 84.8926 142.304 84.9065 142.706 84.7151C143.107 84.5233 143.342 84.1909 143.43 83.9366C143.521 83.6783 143.49 83.5032 143.446 83.4956Z" fill="#263238"/>
<path d="M140.373 75.0512C140.435 75.2188 140.906 75.2367 141.418 75.4126C141.935 75.5718 142.327 75.8357 142.474 75.7362C142.541 75.6864 142.519 75.5332 142.375 75.3438C142.233 75.1559 141.958 74.9454 141.604 74.8299C141.251 74.7149 140.906 74.7233 140.682 74.7917C140.454 74.8598 140.347 74.9712 140.373 75.0512Z" fill="#263238"/>
<path d="M145.483 80.8772C145.41 81.1637 145.107 81.3381 144.806 81.2668C144.506 81.196 144.322 80.9066 144.395 80.6201C144.468 80.3335 144.771 80.1588 145.072 80.2296C145.372 80.3009 145.557 80.5906 145.483 80.8772Z" fill="#263238"/>
<path d="M147.387 79.2072C147.3 79.2577 146.982 78.837 146.403 78.6687C145.827 78.4923 145.316 78.6655 145.274 78.5759C145.253 78.5357 145.358 78.4291 145.582 78.3487C145.803 78.2683 146.151 78.2289 146.511 78.3363C146.871 78.4442 147.134 78.6655 147.269 78.8521C147.406 79.0412 147.429 79.1853 147.387 79.2072Z" fill="#263238"/>
<path d="M147.616 77.2598C147.464 77.3573 147.058 77.0906 146.524 76.9266C145.995 76.7459 145.508 76.724 145.443 76.5561C145.417 76.4761 145.527 76.3655 145.762 76.2994C145.994 76.2329 146.351 76.2277 146.716 76.3459C147.081 76.4646 147.366 76.6771 147.513 76.8665C147.663 77.0572 147.686 77.2108 147.616 77.2598Z" fill="#263238"/>
<path d="M150.217 83.6488C150.298 83.334 150.85 82.6833 151.174 82.7135C152.038 82.7947 153.519 83.2409 152.998 85.3547C152.286 88.2446 149.531 86.9335 149.547 86.8496C149.558 86.7835 149.939 84.7362 150.217 83.6488Z" fill="#FFBF9D"/>
<path d="M150.605 85.9903C150.62 85.9843 150.647 86.038 150.722 86.0977C150.796 86.1562 150.933 86.2175 151.097 86.1984C151.43 86.1618 151.806 85.7403 151.948 85.2229C152.021 84.9618 152.027 84.6976 151.985 84.4675C151.949 84.2343 151.849 84.0532 151.701 83.9879C151.557 83.9147 151.426 83.98 151.37 84.0524C151.312 84.1236 151.316 84.1861 151.299 84.1873C151.29 84.1925 151.249 84.1236 151.302 84.0102C151.328 83.9557 151.379 83.8956 151.46 83.857C151.543 83.8176 151.652 83.814 151.757 83.8522C151.976 83.9227 152.126 84.177 152.172 84.4297C152.23 84.6864 152.229 84.9849 152.148 85.2782C151.986 85.8561 151.554 86.3274 151.106 86.3453C150.89 86.3481 150.735 86.245 150.665 86.1554C150.593 86.0615 150.594 85.9931 150.605 85.9903Z" fill="#FF9A6C"/>
<path d="M151.288 82.7577L150.334 83.2799C148.154 79.3298 144.405 69.974 144.605 70.5244C144.605 70.5244 147.01 70.3143 149.2 71.4314C151.39 72.5486 155.416 75.0779 154.496 77.7847C153.575 80.4915 151.288 82.7577 151.288 82.7577Z" fill="#263238"/>
<path d="M156.336 76.3738C156.3 76.3877 156.571 76.9489 156.752 77.9208C156.937 78.8836 156.98 80.2858 156.514 81.7178C156.046 83.1502 155.184 84.2566 154.466 84.9244C153.746 85.6018 153.196 85.8956 153.217 85.9278C153.223 85.9378 153.364 85.8741 153.605 85.7308C153.846 85.5887 154.181 85.3571 154.559 85.0255C155.313 84.3724 156.218 83.2497 156.699 81.7775C157.179 80.3057 157.111 78.8657 156.887 77.893C156.777 77.4026 156.643 77.0178 156.533 76.7607C156.423 76.504 156.347 76.369 156.336 76.3738Z" fill="#455A64"/>
<path d="M163.633 137.906L167.925 139.072C167.925 139.072 171.364 138.803 171.954 139.407C172.543 140.012 174.03 141.766 174.03 141.766C174.03 141.766 174.951 142.016 174.724 142.31C174.496 142.605 173.711 142.686 173.145 142.536C172.578 142.386 168.823 141.169 168.823 141.169C168.823 141.169 168.438 142.268 167.56 141.987C166.682 141.705 164.986 140.993 164.45 140.88C163.915 140.768 160.261 140.355 160.042 140.093C159.824 139.831 159.176 136.053 159.176 136.053L162.67 135.291L163.633 137.906Z" fill="#FFBF9D"/>
<path d="M169.588 139.906C169.613 139.854 170.636 140.238 171.873 140.763C173.111 141.289 174.098 141.758 174.077 141.812C174.057 141.865 173.034 141.481 171.792 140.954C170.551 140.428 169.564 139.958 169.588 139.906Z" fill="#FF9A6C"/>
<path d="M165.303 139.424C165.319 139.372 166.172 139.598 167.153 140.062C167.644 140.293 168.069 140.532 168.369 140.73C168.673 140.933 168.793 141.14 168.768 141.155C168.745 141.173 168.599 141.015 168.292 140.855C167.984 140.695 167.547 140.477 167.064 140.249C166.097 139.792 165.284 139.48 165.303 139.424Z" fill="#FF9A6C"/>
<path d="M136.283 92.7754C136.283 92.7754 131.74 92.6078 129.297 94.2472C126.854 95.8865 118.35 102.471 118.35 102.471L112.671 91.9551L107.238 95.3353C107.238 95.3353 112.723 110.362 116.796 111.471C122.192 112.94 129.767 105.964 129.767 105.964L136.283 92.7754Z" fill="#1D6C86"/>
<path d="M133.24 93.0014L139.555 91.936L147.599 91.6267L152.513 93.2307L146.187 102.498L137.356 103.772L133.24 93.0014Z" fill="#FFBF9D"/>
<path d="M153.273 106.752C153.273 107.218 153.017 116.546 154.03 119.577C155.042 122.609 159.286 136.682 159.286 136.682L164.005 136.003L160.907 116.194C160.907 116.194 159.573 99.3778 159.045 97.5808C158.125 94.4513 155.433 94.0354 155.433 94.0354L153.273 106.752Z" fill="#1D6C86"/>
<path d="M155.838 94.1763C155.512 94.0828 149.446 92.2297 149.446 92.2297C149.446 92.2297 145.895 98.5882 140.951 97.8725C136.718 97.2596 136.448 92.48 136.448 92.48L132.24 93.1642C131.834 92.9441 127.814 108.656 130.501 112.517C132.712 115.697 132.744 116.45 132.744 116.45C133.328 116.422 130.057 125.399 130.617 126.472C135.586 136.003 155.838 126.23 155.838 126.23L153.854 114.817L155.838 94.1763Z" fill="#1D6C86"/>
<path d="M155.369 99.4132C155.376 99.4144 155.369 99.5091 155.351 99.689C155.327 99.8892 155.296 100.15 155.257 100.474C155.166 101.179 155.039 102.157 154.884 103.356C154.726 104.573 154.538 106.022 154.359 107.633C154.175 109.243 154.005 111.019 153.934 112.885C153.862 114.752 153.935 116.533 154.141 118.138C154.346 119.742 154.638 121.173 154.918 122.367C155.191 123.562 155.435 124.524 155.6 125.19C155.677 125.507 155.739 125.762 155.786 125.958C155.826 126.135 155.844 126.228 155.837 126.23C155.83 126.232 155.799 126.142 155.745 125.969C155.688 125.776 155.614 125.524 155.522 125.21C155.333 124.551 155.068 123.593 154.776 122.4C154.476 121.209 154.168 119.775 153.952 118.161C153.734 116.548 153.654 114.753 153.728 112.877C153.8 111.002 153.975 109.222 154.17 107.611C154.359 105.998 154.562 104.551 154.739 103.336C154.913 102.121 155.068 101.14 155.178 100.462C155.232 100.14 155.276 99.8813 155.31 99.6823C155.341 99.5052 155.362 99.412 155.369 99.4132Z" fill="#263238"/>
<path d="M130.352 101.271C130.366 101.274 130.339 101.477 130.279 101.842C130.214 102.206 130.133 102.734 130.033 103.386C129.946 104.04 129.842 104.818 129.79 105.688C129.728 106.556 129.716 107.515 129.802 108.513C129.887 109.511 130.059 110.453 130.307 111.285C130.568 112.111 130.851 112.844 131.163 113.423C131.765 114.593 132.276 115.239 132.239 115.264C132.227 115.273 132.099 115.114 131.875 114.817C131.762 114.671 131.627 114.487 131.491 114.261C131.351 114.038 131.181 113.789 131.033 113.49C130.701 112.913 130.399 112.176 130.124 111.34C129.862 110.498 129.681 109.542 129.595 108.53C129.508 107.518 129.526 106.548 129.6 105.674C129.662 104.798 129.782 104.016 129.888 103.363C130.007 102.711 130.11 102.185 130.2 101.826C130.285 101.466 130.338 101.268 130.352 101.271Z" fill="#263238"/>
<path d="M148.955 117.587C148.957 117.594 148.875 117.624 148.717 117.676C148.559 117.727 148.326 117.801 148.024 117.889C147.421 118.068 146.543 118.312 145.45 118.586C144.358 118.859 143.051 119.162 141.59 119.451C140.86 119.596 140.091 119.738 139.292 119.873C138.892 119.938 138.485 120.004 138.072 120.071C137.666 120.123 137.231 120.246 136.769 120.123C136.546 120.071 136.3 119.888 136.258 119.626C136.202 119.363 136.353 119.119 136.512 118.971C136.848 118.658 137.25 118.528 137.605 118.339C138.336 117.987 139.049 117.666 139.735 117.374C141.107 116.79 142.368 116.327 143.437 115.972C144.506 115.616 145.382 115.365 145.991 115.205C146.295 115.123 146.533 115.066 146.695 115.029C146.857 114.992 146.942 114.976 146.944 114.983C146.946 114.99 146.864 115.02 146.706 115.069C146.527 115.124 146.297 115.195 146.013 115.282C145.412 115.467 144.543 115.738 143.483 116.11C142.423 116.483 141.172 116.958 139.81 117.55C139.129 117.845 138.42 118.169 137.693 118.522C137.336 118.711 136.934 118.852 136.655 119.119C136.517 119.252 136.424 119.42 136.46 119.586C136.49 119.757 136.636 119.874 136.825 119.924C137.207 120.031 137.627 119.923 138.04 119.867C138.453 119.802 138.859 119.737 139.258 119.673C140.056 119.542 140.824 119.404 141.553 119.264C143.013 118.986 144.32 118.698 145.416 118.445C146.511 118.189 147.393 117.967 148.003 117.812C148.291 117.74 148.524 117.681 148.706 117.636C148.867 117.597 148.953 117.581 148.955 117.587Z" fill="#263238"/>
</svg>
