<svg width="105" height="104" viewBox="0 0 105 104" fill="none" xmlns="http://www.w3.org/2000/svg">
<g filter="url(#filter0_d_971_32147)">
<circle cx="51.763" cy="48.1009" r="47.4661" fill="white"/>
<g clip-path="url(#clip0_971_32147)">
<path d="M79.8722 42.8532L56.5827 42.8521C55.5543 42.8521 54.7207 43.6855 54.7207 44.714V52.1539C54.7207 53.1821 55.5543 54.0158 56.5826 54.0158H69.6978C68.2617 57.7429 65.5812 60.8642 62.1614 62.8474L67.7537 72.5282C76.7245 67.34 82.0281 58.2369 82.0281 48.0466C82.0281 46.5956 81.9211 45.5584 81.7072 44.3904C81.5446 43.5031 80.7743 42.8532 79.8722 42.8532Z" fill="#167EE6"/>
<path d="M53.4808 65.1946C47.0624 65.1946 41.4593 61.6878 38.45 56.4985L28.7695 62.0782C33.6959 70.6163 42.9244 76.3659 53.4808 76.3659C58.6593 76.3659 63.5457 74.9715 67.7551 72.5417V72.5284L62.1628 62.8475C59.6048 64.3311 56.6446 65.1946 53.4808 65.1946Z" fill="#12B347"/>
<path d="M67.7548 72.5418V72.5286L62.1625 62.8477C59.6045 64.3312 56.6446 65.1948 53.4805 65.1948V76.366C58.659 76.366 63.5457 74.9717 67.7548 72.5418Z" fill="#0F993E"/>
<path d="M36.1029 47.8172C36.1029 44.6536 36.9663 41.6938 38.4496 39.1359L28.7691 33.5562C26.3258 37.7523 24.9316 42.6254 24.9316 47.8172C24.9316 53.0091 26.3258 57.8822 28.7691 62.0783L38.4496 56.4986C36.9663 53.9407 36.1029 50.9809 36.1029 47.8172Z" fill="#FFD500"/>
<path d="M53.4808 30.4398C57.6662 30.4398 61.5106 31.927 64.5135 34.4008C65.2543 35.011 66.331 34.967 67.0096 34.2884L72.2811 29.0169C73.051 28.247 72.9961 26.9867 72.1737 26.2732C67.1425 21.9085 60.5964 19.2686 53.4808 19.2686C42.9244 19.2686 33.6959 25.0181 28.7695 33.5562L38.45 39.1359C41.4593 33.9466 47.0624 30.4398 53.4808 30.4398Z" fill="#FF4B26"/>
<path d="M64.5132 34.4008C65.254 35.011 66.3308 34.967 67.0093 34.2884L72.2808 29.0169C73.0506 28.247 72.9957 26.9867 72.1734 26.2732C67.1422 21.9084 60.5961 19.2686 53.4805 19.2686V30.4398C57.6658 30.4398 61.5103 31.927 64.5132 34.4008Z" fill="#D93F21"/>
</g>
</g>
<defs>
<filter id="filter0_d_971_32147" x="0.296875" y="0.634766" width="108.365" height="108.365" filterUnits="userSpaceOnUse" color-interpolation-filters="sRGB">
<feFlood flood-opacity="0" result="BackgroundImageFix"/>
<feColorMatrix in="SourceAlpha" type="matrix" values="0 0 0 0 0 0 0 0 0 0 0 0 0 0 0 0 0 0 127 0" result="hardAlpha"/>
<feOffset dy="4"/>
<feGaussianBlur stdDeviation="2"/>
<feComposite in2="hardAlpha" operator="out"/>
<feColorMatrix type="matrix" values="0 0 0 0 0 0 0 0 0 0 0 0 0 0 0 0 0 0 0.1 0"/>
<feBlend mode="normal" in2="BackgroundImageFix" result="effect1_dropShadow_971_32147"/>
<feBlend mode="normal" in="SourceGraphic" in2="effect1_dropShadow_971_32147" result="shape"/>
</filter>
<clipPath id="clip0_971_32147">
<rect width="57.0974" height="57.0974" fill="white" transform="translate(24.9316 19.2686)"/>
</clipPath>
</defs>
</svg>
