<svg xmlns="http://www.w3.org/2000/svg" viewBox="0 0 288 41.14"><title>HCL Technologies logo</title><polygon points="0 39.85 31.25 39.85 37.94 24.5 68.58 24.5 61.7 39.83 93.32 39.83 110.67 1.39 78.83 1.39 73.11 14.36 42.51 14.36 48.3 1.39 17.36 1.39 0 39.85" style="fill:#006bb6"/><path d="M548,505.89h29.56c-.18-6.45-6.43-10.93-18.8-12.71-24.42-3.59-50.82-2.06-69.62,8.32-14.81,8.23-15.95,20.61-1.19,26.68,12.43,5.06,38.53,5.59,57.2,2.41,12.09-2.06,21.33-6,26.51-12H541.45c-3.91,3-9,4.51-15,4.56-16.95.11-19.19-5-16.23-10.93,3.52-7,10.89-10.76,22.14-11.06,8.86-.24,13.23,1.72,15.63,4.69" transform="translate(-368 -491.43)" style="fill:#006bb6;fill-rule:evenodd"/><polygon points="256.76 1.39 243.59 30.66 288 30.66 283.87 39.82 207.52 39.82 224.72 1.39 256.76 1.39" style="fill:#006bb6;fill-rule:evenodd"/></svg>