<svg width="172" height="23" viewBox="0 0 172 23" fill="none" xmlns="http://www.w3.org/2000/svg">
<path d="M0.333333 8.5C0.333333 9.97276 1.52724 11.1667 3 11.1667C4.47276 11.1667 5.66667 9.97276 5.66667 8.5C5.66667 7.02724 4.47276 5.83333 3 5.83333C1.52724 5.83333 0.333333 7.02724 0.333333 8.5ZM51.9836 8.5L52.4022 8.22659L52.2542 8H51.9836V8.5ZM60.1475 21L59.7289 21.2734L60.2991 22.1465L60.6228 21.1552L60.1475 21ZM66.6787 1L67.0424 0.656891L66.4647 0.0445513L66.2034 0.844788L66.6787 1ZM73.7541 8.5L73.3904 8.84311L73.5384 9H73.7541V8.5ZM166.333 8.5C166.333 9.97276 167.527 11.1667 169 11.1667C170.473 11.1667 171.667 9.97276 171.667 8.5C171.667 7.02724 170.473 5.83333 169 5.83333C167.527 5.83333 166.333 7.02724 166.333 8.5ZM3 8.5V9H51.9836V8.5V8H3V8.5ZM51.9836 8.5L51.565 8.77341L59.7289 21.2734L60.1475 21L60.5662 20.7266L52.4022 8.22659L51.9836 8.5ZM60.1475 21L60.6228 21.1552L67.154 1.15521L66.6787 1L66.2034 0.844788L59.6722 20.8448L60.1475 21ZM66.6787 1L66.315 1.34311L73.3904 8.84311L73.7541 8.5L74.1178 8.15689L67.0424 0.656891L66.6787 1ZM73.7541 8.5V9H169V8.5V8H73.7541V8.5Z" fill="#689DAE"/>
</svg>
