<svg width="614" height="694" viewBox="0 0 614 694" fill="none" xmlns="http://www.w3.org/2000/svg">
<path d="M220.442 493.867C254.645 539.537 298.672 558.454 298.672 558.454L341.153 514.398C315.942 506.932 275.045 480.616 258.141 461.788L220.442 493.867Z" fill="white" stroke="#1D6C86" stroke-width="0.851074" stroke-miterlimit="10" stroke-linecap="round" stroke-linejoin="round"/>
<path d="M168.385 348.979C189.228 382.054 199.167 398.102 245.662 440.705L304.563 374.435C304.563 374.435 247.449 330.922 230.325 304.903L168.385 348.979Z" fill="white" stroke="#1D6C86" stroke-width="0.851074" stroke-miterlimit="10" stroke-linecap="round" stroke-linejoin="round"/>
<path d="M190.502 362.608L227.943 333.403" stroke="#1D6C86" stroke-width="0.851074" stroke-miterlimit="10" stroke-linecap="round" stroke-linejoin="round"/>
<path d="M197.076 370.546L239.639 336.079" stroke="#1D6C86" stroke-width="0.851074" stroke-miterlimit="10" stroke-linecap="round" stroke-linejoin="round"/>
<path d="M202.964 378.955L239.334 349.893" stroke="#1D6C86" stroke-width="0.851074" stroke-miterlimit="10" stroke-linecap="round" stroke-linejoin="round"/>
<path d="M208.392 385.514C215.108 394.441 234.955 415.56 234.955 415.56L282.928 375.642" stroke="#1D6C86" stroke-width="0.851074" stroke-miterlimit="10" stroke-linecap="round" stroke-linejoin="round"/>
<path d="M232.63 402.255L240.348 410.826" stroke="#1D6C86" stroke-width="0.851074" stroke-miterlimit="10" stroke-linecap="round" stroke-linejoin="round"/>
<path d="M232.617 388.807L246.662 405.818" stroke="#1D6C86" stroke-width="0.851074" stroke-miterlimit="10" stroke-linecap="round" stroke-linejoin="round"/>
<path d="M232.09 376.239L252.701 400.746" stroke="#1D6C86" stroke-width="0.851074" stroke-miterlimit="10" stroke-linecap="round" stroke-linejoin="round"/>
<path d="M245.854 378.938L259.308 395.024" stroke="#1D6C86" stroke-width="0.851074" stroke-miterlimit="10" stroke-linecap="round" stroke-linejoin="round"/>
<path d="M244.959 364.192L266.361 389.428" stroke="#1D6C86" stroke-width="0.851074" stroke-miterlimit="10" stroke-linecap="round" stroke-linejoin="round"/>
<path d="M256.645 359.95L276.092 381.33" stroke="#1D6C86" stroke-width="0.851074" stroke-miterlimit="10" stroke-linecap="round" stroke-linejoin="round"/>
<path d="M250.357 45.6528C237.475 71.3401 237.092 97.7316 239.654 120.842L287.544 116.917C287.544 116.917 283.999 78.8094 292.75 51.0331L250.357 45.6528Z" fill="white" stroke="#1D6C86" stroke-width="0.851074" stroke-miterlimit="10" stroke-linecap="round" stroke-linejoin="round"/>
<path d="M362.114 369.82C397.583 400.986 475.886 418.811 475.886 418.811L554.067 337.752C554.067 337.752 468.839 345.961 413.507 322.392L362.114 369.82Z" fill="white" stroke="#1D6C86" stroke-width="0.851074" stroke-miterlimit="10" stroke-linecap="round" stroke-linejoin="round"/>
<path d="M270.539 500.346C350.054 566.791 425.642 567.521 425.642 567.521L531.443 445.891C531.443 445.891 386.342 446.388 351.215 422.392L270.539 500.346Z" fill="white" stroke="#1D6C86" stroke-width="0.851074" stroke-miterlimit="10" stroke-linecap="round" stroke-linejoin="round"/>
<path d="M328.91 493.481L370.27 450.01" stroke="#1D6C86" stroke-width="0.851074" stroke-miterlimit="10" stroke-linecap="round" stroke-linejoin="round"/>
<path d="M333.038 516.755L390.035 456.064" stroke="#1D6C86" stroke-width="0.851074" stroke-miterlimit="10" stroke-linecap="round" stroke-linejoin="round"/>
<path d="M355.192 527.584L411.908 463.393" stroke="#1D6C86" stroke-width="0.851074" stroke-miterlimit="10" stroke-linecap="round" stroke-linejoin="round"/>
<path d="M379.033 535.803L438.49 469.636" stroke="#1D6C86" stroke-width="0.851074" stroke-miterlimit="10" stroke-linecap="round" stroke-linejoin="round"/>
<path d="M239.835 23.1246L271.741 27.8221C271.741 27.8221 258.493 55.1343 258.636 83.2407L219.956 80.9008C219.956 80.9008 221.973 47.4227 239.835 23.1246Z" fill="white" stroke="#1D6C86" stroke-width="0.851074" stroke-miterlimit="10" stroke-linecap="round" stroke-linejoin="round"/>
<path d="M240.004 36.9924L259.591 39.8768" stroke="#1D6C86" stroke-width="0.851074" stroke-miterlimit="10" stroke-linecap="round" stroke-linejoin="round"/>
<path d="M234.648 51.2409L256.044 53.4326" stroke="#1D6C86" stroke-width="0.851074" stroke-miterlimit="10" stroke-linecap="round" stroke-linejoin="round"/>
<path d="M231.784 67.2404L242.874 67.5675" stroke="#1D6C86" stroke-width="0.851074" stroke-miterlimit="10" stroke-linecap="round" stroke-linejoin="round"/>
<path d="M232.496 59.1746L253.967 61.2014" stroke="#1D6C86" stroke-width="0.851074" stroke-miterlimit="10" stroke-linecap="round" stroke-linejoin="round"/>
<path d="M236.973 44.2773L257.282 46.7021" stroke="#1D6C86" stroke-width="0.851074" stroke-miterlimit="10" stroke-linecap="round" stroke-linejoin="round"/>
<path d="M261.97 90.7118C256.544 145.045 288.877 191.389 288.877 191.389L345.162 160.88C330.886 139.607 318.665 110.676 317.515 84.5541L261.97 90.7118Z" fill="white" stroke="#1D6C86" stroke-width="0.851074" stroke-miterlimit="10" stroke-linecap="round" stroke-linejoin="round"/>
<path d="M269.206 102.41L309.986 94.8525" stroke="#1D6C86" stroke-width="0.851074" stroke-miterlimit="10" stroke-linecap="round" stroke-linejoin="round"/>
<path d="M270.714 109.07L296.922 103.034" stroke="#1D6C86" stroke-width="0.851074" stroke-miterlimit="10" stroke-linecap="round" stroke-linejoin="round"/>
<path d="M278.371 145.467L315.604 131.129C311.907 122.009 309.297 103.952 309.297 103.952" stroke="#1D6C86" stroke-width="0.851074" stroke-miterlimit="10" stroke-linecap="round" stroke-linejoin="round"/>
<path d="M314.728 131.466L304.257 121.731L297.267 125.116L285.639 121.942L281.34 124.663L273.281 118.086" stroke="#1D6C86" stroke-width="0.851074" stroke-miterlimit="10" stroke-linecap="round" stroke-linejoin="round"/>
<path d="M280.523 152.35L318.99 136.426" stroke="#1D6C86" stroke-width="0.851074" stroke-miterlimit="10" stroke-linecap="round" stroke-linejoin="round"/>
<path d="M284.264 160.448L322.17 142.176" stroke="#1D6C86" stroke-width="0.851074" stroke-miterlimit="10" stroke-linecap="round" stroke-linejoin="round"/>
<path d="M298.505 162.482L325.66 148.976" stroke="#1D6C86" stroke-width="0.851074" stroke-miterlimit="10" stroke-linecap="round" stroke-linejoin="round"/>
<path d="M156.926 168.069L217.442 147.44C228.231 185.006 244.715 207.65 256.55 218.377L192.476 266.535C192.476 266.535 163.049 221.52 156.926 168.069Z" fill="white" stroke="#1D6C86" stroke-width="0.851074" stroke-miterlimit="10" stroke-linecap="round" stroke-linejoin="round"/>
<path d="M182.248 199.689C175.818 192.026 177.432 180.086 185.854 173.019C194.275 165.952 206.314 166.435 212.744 174.098C219.174 181.76 217.56 193.7 209.139 200.767C200.717 207.834 188.678 207.351 182.248 199.689Z" fill="white" stroke="#1D6C86" stroke-width="0.851074" stroke-miterlimit="10" stroke-linecap="round" stroke-linejoin="round"/>
<path d="M203.577 168.513L197.463 186.881L216.641 184.615" stroke="#1D6C86" stroke-width="0.851074" stroke-miterlimit="10" stroke-linecap="round" stroke-linejoin="round"/>
<path d="M209.201 199.981L197.462 186.881" stroke="#1D6C86" stroke-width="0.851074" stroke-miterlimit="10" stroke-linecap="round" stroke-linejoin="round"/>
<path d="M182.929 228.429L228.564 200.28" stroke="#1D6C86" stroke-width="0.851074" stroke-miterlimit="10" stroke-linecap="round" stroke-linejoin="round"/>
<path d="M186.232 234.697L233.061 204.604" stroke="#1D6C86" stroke-width="0.851074" stroke-miterlimit="10" stroke-linecap="round" stroke-linejoin="round"/>
<path d="M190.173 241.732L237.094 210.013" stroke="#1D6C86" stroke-width="0.851074" stroke-miterlimit="10" stroke-linecap="round" stroke-linejoin="round"/>
<path d="M210.057 238.323L241.42 215.4" stroke="#1D6C86" stroke-width="0.851074" stroke-miterlimit="10" stroke-linecap="round" stroke-linejoin="round"/>
<path d="M223.524 268.575C235.211 295.733 266.394 325.264 280.903 335.495L326.971 294.103C326.971 294.103 286.89 272.459 269.36 242.769L223.524 268.575Z" fill="white" stroke="#1D6C86" stroke-width="0.851074" stroke-miterlimit="10" stroke-linecap="round" stroke-linejoin="round"/>
<path d="M240.035 275.315L266.795 258.003" stroke="#1D6C86" stroke-width="0.851074" stroke-miterlimit="10" stroke-linecap="round" stroke-linejoin="round"/>
<path d="M245.74 283.675L271.943 264.695" stroke="#1D6C86" stroke-width="0.851074" stroke-miterlimit="10" stroke-linecap="round" stroke-linejoin="round"/>
<path d="M252.587 292.743L278.889 272.704" stroke="#1D6C86" stroke-width="0.851074" stroke-miterlimit="10" stroke-linecap="round" stroke-linejoin="round"/>
<path d="M143.252 300.002L130.288 291.857L119.358 295.389" stroke="#1D6C86" stroke-width="0.851074" stroke-miterlimit="10" stroke-linecap="round" stroke-linejoin="round"/>
<path d="M165.054 312.553L172.718 316.994L179.039 313.535" stroke="#1D6C86" stroke-width="0.851074" stroke-miterlimit="10" stroke-linecap="round" stroke-linejoin="round"/>
<path d="M169.893 280.175L164.663 282.682L160.016 292.716" stroke="#1D6C86" stroke-width="0.851074" stroke-miterlimit="10" stroke-linecap="round" stroke-linejoin="round"/>
<path d="M31.911 349.87L104.002 350.993L94.8781 377.66C218.285 616.674 422.426 631.44 612.834 638.934L613.101 645.259L604.594 654.364C362.8 666.854 182.565 619.143 63.244 490.543L63.6357 499.804L53.8987 523.042L25.294 398.265L31.911 349.87Z" fill="#1D6C86" stroke="black" stroke-width="0.851074" stroke-miterlimit="10" stroke-linecap="round" stroke-linejoin="round"/>
<path d="M72.7713 462.348C192.965 611.582 362.548 660.89 604.327 648.05L612.834 638.934C422.426 631.44 218.285 616.674 94.8781 377.66L104.002 350.994L31.911 349.87L63.6355 499.804L72.7713 462.348Z" fill="white" stroke="black" stroke-width="0.851074" stroke-miterlimit="10" stroke-linecap="round" stroke-linejoin="round"/>
<path d="M237.334 643.899C236.893 643.93 236.844 643.245 237.286 643.214C237.727 643.183 237.776 643.868 237.334 643.899Z" fill="black"/>
<path d="M604.326 648.05L604.593 654.364" stroke="black" stroke-width="0.851074" stroke-miterlimit="10" stroke-linecap="round" stroke-linejoin="round"/>
<path d="M63.6348 499.804L53.8979 523.042" stroke="black" stroke-width="0.851074" stroke-miterlimit="10" stroke-linecap="round" stroke-linejoin="round"/>
<path d="M479.303 404.54L578.377 404.35C580.247 404.347 581.774 402.814 581.77 400.944L581.65 337.822C581.646 335.952 580.113 334.425 578.243 334.428L479.169 334.618C477.299 334.621 475.772 336.154 475.776 338.024L475.897 401.146C475.9 403.016 477.433 404.543 479.303 404.54Z" fill="#1D6C86" stroke="black" stroke-width="0.851074" stroke-miterlimit="10" stroke-linecap="round" stroke-linejoin="round"/>
<path d="M419.244 224.903C449.794 246.312 370.845 305.103 347.981 307.826C325.117 310.549 281.744 266.036 284.617 257.196C287.491 248.356 346.588 277.789 346.588 277.789C346.588 277.789 397.812 209.883 419.244 224.903Z" fill="white" stroke="black" stroke-width="0.851074" stroke-miterlimit="10" stroke-linecap="round" stroke-linejoin="round"/>
<path d="M225.397 391.051L164.572 427.41L148.862 436.106L124.847 401.743L134.527 396.046L153.03 395.985L212.219 347.035L225.397 391.051Z" fill="white" stroke="black" stroke-width="0.851074" stroke-miterlimit="10" stroke-linecap="round" stroke-linejoin="round"/>
<path d="M134.813 445.415L149.672 445.675L164.572 427.41C164.572 427.41 147.885 425.135 141.093 414.316C134.3 403.497 134.527 396.046 134.527 396.046L114.31 388.149L91.6065 370.47L90.7576 377.82L134.813 445.415Z" fill="#1D6C86" stroke="black" stroke-width="0.851074" stroke-miterlimit="10" stroke-linecap="round" stroke-linejoin="round"/>
<path d="M102.753 395.222C108.891 404.814 133.368 443.888 149.672 445.675L141.755 454.339C120.184 444.863 89.0334 385.399 88.1269 372.016L91.6063 370.47C91.6063 370.47 94.2058 381.865 102.753 395.222Z" fill="#1D6C86" stroke="black" stroke-width="0.851074" stroke-miterlimit="10" stroke-linecap="round" stroke-linejoin="round"/>
<path d="M396.18 507.546L529.135 556.534L547.09 556.662L551.162 598.386L537.445 599.148L524.093 585.2L440.074 569.153L396.18 507.546Z" fill="white" stroke="black" stroke-width="0.851074" stroke-miterlimit="10" stroke-linecap="round" stroke-linejoin="round"/>
<path d="M560.642 572.566L551.077 547.926L529.134 556.534C529.134 556.534 539.113 569.241 539.725 582.001C540.338 594.76 537.091 598.862 537.091 598.862L564.789 641.944L569.134 635.955L560.642 572.566Z" fill="#1D6C86" stroke="black" stroke-width="0.851074" stroke-miterlimit="10" stroke-linecap="round" stroke-linejoin="round"/>
<path d="M566.077 624.19C564.881 612.865 551.079 547.926 551.079 547.926L562.228 544.259L571.008 627.752C571.616 633.502 570.571 640.632 568.581 642.303L564.79 641.944C564.79 641.944 567.647 639.053 566.077 624.19Z" fill="#1D6C86" stroke="black" stroke-width="0.851074" stroke-miterlimit="10" stroke-linecap="round" stroke-linejoin="round"/>
<path d="M375.56 377.375C331.243 445.669 336.217 553.528 499.42 607.61C537.001 583.404 520.766 544.359 520.766 544.359C520.766 544.359 465.163 535.477 430.756 492.835C396.349 450.193 434.744 394.524 434.744 394.524L375.56 377.375Z" fill="white" stroke="black" stroke-width="0.851074" stroke-miterlimit="10" stroke-linecap="round" stroke-linejoin="round"/>
<path d="M453.748 357.765C450.798 421.731 410.354 432.286 355.756 402.335L282.316 359.805L177.892 440.655L147.524 386.09C147.524 386.09 249.521 282.322 288.078 293.342C326.634 304.362 382.115 341.585 382.115 341.585L414.383 322.39L453.748 357.765Z" fill="white" stroke="black" stroke-width="0.851074" stroke-miterlimit="10" stroke-linecap="round" stroke-linejoin="round"/>
<path d="M382.934 262.4C382.055 289.14 369.264 325.73 369.264 325.73C369.264 325.73 385.433 389.492 455.676 378.53C455.676 378.53 487.908 266.45 457.166 240.467C441.722 227.413 418.164 219.821 403.478 222.942C385.033 228.079 382.31 245.823 382.934 262.4Z" fill="#1D6C86" stroke="black" stroke-width="0.851074" stroke-miterlimit="10" stroke-linecap="round" stroke-linejoin="round"/>
<path d="M433.591 251.836C443.791 221.106 525.144 271.649 535.126 292.399C543.314 309.421 547.932 368.248 542.587 387.049C541.417 391.167 535.504 388.421 533.834 388.447C532.23 388.472 530.384 385.955 528.428 381.772C519.057 361.728 507.16 303.445 507.16 303.445C507.16 303.445 425.346 276.674 433.591 251.836Z" fill="white" stroke="black" stroke-width="0.851074" stroke-miterlimit="10" stroke-linecap="round" stroke-linejoin="round"/>
<path d="M433.846 248.247C420.146 268.332 471.406 291.368 481.081 295.933C490.84 286.593 497.597 263.459 494.308 256.301C447.38 231.067 440.087 239.099 433.846 248.247Z" fill="#1D6C86"/>
<path d="M448.153 277.517C460.556 286.545 476.172 293.617 481.081 295.934C490.839 286.593 497.596 263.459 494.307 256.301C472.996 244.842 459.859 240.243 451.282 239.493" stroke="black" stroke-width="0.851074" stroke-miterlimit="10" stroke-linecap="round" stroke-linejoin="round"/>
<path d="M459.094 300.517C459.674 343.466 445.997 379.602 445.997 379.602" stroke="black" stroke-width="0.851074" stroke-miterlimit="10" stroke-linecap="round" stroke-linejoin="round"/>
<path d="M517.607 542.383C518.496 562.426 513.151 570.669 506.652 579.745" stroke="black" stroke-width="0.851074" stroke-miterlimit="10" stroke-linecap="round" stroke-linejoin="round"/>
<path d="M478.194 555.141C402.94 522.672 376.424 463.204 398.543 417.78" stroke="black" stroke-width="0.851074" stroke-miterlimit="10" stroke-linecap="round" stroke-linejoin="round"/>
<path d="M530.258 374.187C549.12 371.707 548.672 397.819 547.272 403.002C545.873 408.184 542.243 407.95 541.536 404.639C538.885 411.56 533.881 409.832 534.98 405.942C532.85 411.266 526.829 411.922 528.108 405.592C527.044 407.986 525.446 408.952 523.851 408.721C520.803 408.279 520.219 403.523 520.516 395.821C517.356 401.063 514.855 403.204 513.735 402.384C511.235 400.555 515.836 387.367 522.762 382.085C524.219 377.938 526.554 374.674 530.258 374.187Z" fill="white"/>
<path d="M543.029 378.958C548.737 386.265 548.225 399.476 547.273 403.001C545.873 408.184 542.244 407.95 541.536 404.639C539.222 410.7 534.525 410.695 534.98 405.941C532.621 411.822 526.625 411.127 528.109 405.592C527.044 407.986 525.446 408.951 523.852 408.72C520.803 408.279 520.219 403.522 520.516 395.821C517.356 401.063 514.855 403.203 513.735 402.384C511.235 400.555 515.837 387.366 522.762 382.085C523.758 379.252 525.163 376.832 527.134 375.427" stroke="black" stroke-width="0.851074" stroke-miterlimit="10" stroke-linecap="round" stroke-linejoin="round"/>
<path d="M520.516 395.821C520.554 394.863 520.638 393.942 520.75 393.08C520.834 392.43 520.837 391.827 520.787 391.277" stroke="black" stroke-width="0.851074" stroke-miterlimit="10" stroke-linecap="round" stroke-linejoin="round"/>
<path d="M528.109 405.592C529.437 403.792 530.068 401.944 530.068 401.944" stroke="black" stroke-width="0.851074" stroke-miterlimit="10" stroke-linecap="round" stroke-linejoin="round"/>
<path d="M534.981 405.941C535.344 405.135 535.648 404.294 535.883 403.573" stroke="black" stroke-width="0.851074" stroke-miterlimit="10" stroke-linecap="round" stroke-linejoin="round"/>
<path d="M541.536 404.639C542.096 402.443 542.02 401.272 542.02 401.272" stroke="black" stroke-width="0.851074" stroke-miterlimit="10" stroke-linecap="round" stroke-linejoin="round"/>
<path d="M346.592 277.708C345.203 279.754 344.021 281.862 343.045 283.816" stroke="black" stroke-width="0.851074" stroke-miterlimit="10" stroke-linecap="round" stroke-linejoin="round"/>
<path d="M522.507 305.857C514.299 306.194 507.159 303.445 507.159 303.445" stroke="black" stroke-width="0.851074" stroke-miterlimit="10" stroke-linecap="round" stroke-linejoin="round"/>
<path d="M402.206 164.648C403.297 164.046 404.6 163.851 405.863 164.167C407.213 162.323 409.697 161.577 411.893 162.506C413.677 163.261 414.8 164.923 414.953 166.729C416.274 165.972 417.919 165.819 419.429 166.457C420.275 166.816 420.972 167.378 421.488 168.063C422.338 167.957 423.227 168.065 424.073 168.423C424.592 168.642 425.053 168.939 425.452 169.292C426.863 167.928 429.005 167.459 430.926 168.272C433.238 169.251 434.44 171.751 433.86 174.113C434.406 174.15 434.956 174.275 435.489 174.501C436.049 174.738 436.544 175.064 436.965 175.457C438.312 174.612 440.037 174.415 441.613 175.082C444.178 176.167 445.377 179.127 444.292 181.692C444.228 181.843 444.156 181.99 444.079 182.132C445.33 183.541 445.736 185.597 444.953 187.447C444.004 189.691 441.621 190.889 439.323 190.429L432.059 203.121L397.028 187.059C397.028 187.059 397.322 181.639 398.823 174.137C398.657 174.086 398.492 174.027 398.329 173.958C395.763 172.872 394.564 169.913 395.649 167.348C396.727 164.8 399.653 163.601 402.206 164.648Z" fill="black" stroke="black" stroke-width="0.851074" stroke-miterlimit="10"/>
<path d="M411.291 230.266C411.291 230.266 400.166 210.638 399.524 208.838C397.438 202.994 406.877 194.247 412.721 192.162C418.564 190.077 424.992 193.123 427.077 198.967C427.942 201.389 434.282 219.156 437.291 227.589C452.38 236.703 435.86 256.943 415.523 254.684C398.931 252.842 399.39 237.721 411.291 230.266Z" fill="white" stroke="black" stroke-width="0.851074" stroke-miterlimit="10"/>
<path d="M400.054 179.911L391.269 200.673C387.182 210.331 391.739 221.48 401.443 225.502C411.072 229.492 422.115 224.784 426.177 215.185L434.869 194.642C435.244 193.758 435.502 192.853 435.649 191.943C436.508 186.703 433.718 181.362 428.61 179.201L415.497 173.652C412.515 172.391 409.303 172.451 406.516 173.569C403.705 174.698 401.328 176.901 400.054 179.911Z" fill="white"/>
<path d="M434.869 194.642C435.244 193.758 435.502 192.853 435.649 191.943C436.508 186.703 433.718 181.362 428.61 179.201L415.497 173.652C412.515 172.391 409.303 172.451 406.516 173.569C403.705 174.697 401.328 176.901 400.054 179.911L391.269 200.673C387.183 210.331 391.739 221.48 401.443 225.502C408.757 228.533 416.888 226.545 422.154 221.207" stroke="black" stroke-width="0.851074" stroke-miterlimit="10" stroke-linecap="round" stroke-linejoin="round"/>
<path d="M420.378 193.774C418.325 193.063 415.574 191.295 415.574 191.295" stroke="black" stroke-width="1.70215" stroke-miterlimit="10" stroke-linecap="round" stroke-linejoin="round"/>
<path d="M404.263 186.677C401.583 186.365 399.426 185.203 399.426 185.203" stroke="black" stroke-width="1.70215" stroke-miterlimit="10" stroke-linecap="round" stroke-linejoin="round"/>
<path d="M402.951 209.405C406.096 212.175 409.702 209.955 409.702 209.955" stroke="black" stroke-width="0.851074" stroke-miterlimit="10" stroke-linecap="round" stroke-linejoin="round"/>
<path d="M434.701 213.644C430.196 215.478 426.44 212.503 426.44 212.503L429.734 203.153C438.842 200.237 440.674 211.212 434.701 213.644Z" fill="white"/>
<path d="M429.736 203.154C438.843 200.237 441.192 211.382 434.702 213.644C430.109 215.245 426.442 212.503 426.442 212.503" stroke="black" stroke-width="0.851074" stroke-miterlimit="10" stroke-linecap="round" stroke-linejoin="round"/>
<path d="M430.708 205.993C434.167 205.028 434.793 207.722 434.793 207.722" stroke="black" stroke-width="0.851074" stroke-miterlimit="10" stroke-linecap="round" stroke-linejoin="round"/>
<path d="M397.029 187.059C397.029 187.059 395.579 185.522 402.414 179.18C407.272 174.671 418.976 178.524 426.338 183.346C424.697 196.394 431.485 202.544 431.485 202.544L431.546 202.496L438.75 188.177C439.124 187.292 434.847 179.117 429.739 176.956L415.148 171.84C412.165 170.578 405.943 169.881 403.156 170.999C400.345 172.127 397.029 187.059 397.029 187.059Z" fill="black"/>
<path d="M405.949 193.735C404.673 198.526 402.051 199.36 402.051 199.36" stroke="black" stroke-width="0.851074" stroke-miterlimit="10" stroke-linecap="round" stroke-linejoin="round"/>
<path d="M397.413 194.689C397.413 194.689 397.319 194.185 397.387 193.801" stroke="black" stroke-width="1.70215" stroke-miterlimit="10" stroke-linecap="round" stroke-linejoin="round"/>
<path d="M411.133 200.493C411.133 200.493 411.04 199.988 411.107 199.604" stroke="black" stroke-width="1.70215" stroke-miterlimit="10" stroke-linecap="round" stroke-linejoin="round"/>
<path d="M406.332 198.783C405.047 201.819 406.467 205.321 409.503 206.606C412.539 207.891 416.041 206.471 417.326 203.435C418.61 200.399 417.191 196.897 414.155 195.612C411.119 194.328 407.617 195.747 406.332 198.783Z" stroke="black" stroke-width="0.851074" stroke-miterlimit="10" stroke-linecap="round" stroke-linejoin="round"/>
<path d="M395.688 200.295C392.392 200.24 389.765 197.524 389.82 194.227C389.875 190.931 392.591 188.304 395.887 188.359C399.183 188.414 401.811 191.131 401.756 194.427C401.701 197.723 398.984 200.35 395.688 200.295Z" stroke="black" stroke-width="0.851074" stroke-miterlimit="10" stroke-linecap="round" stroke-linejoin="round"/>
<path d="M408.726 196.01C405.346 191.933 401.73 193.593 401.73 193.593" stroke="black" stroke-width="0.851074" stroke-miterlimit="10" stroke-linecap="round" stroke-linejoin="round"/>
<path d="M430.589 202.916L416.731 202.86" stroke="black" stroke-width="0.851074" stroke-miterlimit="10" stroke-linecap="round" stroke-linejoin="round"/>
<path d="M444.079 182.132C448.887 185.526 446.098 189.112 446.098 189.112" stroke="black" stroke-width="0.851074" stroke-miterlimit="10" stroke-linecap="round" stroke-linejoin="round"/>
<path d="M433.861 174.113C435.996 170.432 433.136 167.632 433.136 167.632" stroke="black" stroke-width="0.851074" stroke-miterlimit="10" stroke-linecap="round" stroke-linejoin="round"/>
<path d="M419.132 164.794C415.701 164.069 414.953 166.729 414.953 166.729C414.953 166.729 415.218 161.956 412.498 161.124" stroke="black" stroke-width="0.851074" stroke-miterlimit="10" stroke-linecap="round" stroke-linejoin="round"/>
<path d="M402.206 164.647C397.296 162.001 394.843 166.048 394.843 166.048" stroke="black" stroke-width="0.851074" stroke-miterlimit="10" stroke-linecap="round" stroke-linejoin="round"/>
<path d="M411.291 230.266L413.336 235.056" stroke="black" stroke-width="0.851074" stroke-miterlimit="10" stroke-linecap="round" stroke-linejoin="round"/>
<path d="M437.292 227.59L438.436 230.965" stroke="black" stroke-width="0.851074" stroke-miterlimit="10" stroke-linecap="round" stroke-linejoin="round"/>
<path d="M305.548 261.017C305.787 251.748 304.103 236.513 306.108 231.113C308.412 224.903 302.222 227.153 300.113 230.931C298.003 234.709 299.444 240.764 296.843 242.696C294.807 244.208 293.858 243.209 289.095 237.854C284.332 232.499 273.978 218.845 270.614 219.588C268.3 220.099 268.815 222.198 268.815 222.198C268.815 222.198 265.617 219.573 264.228 221.874C262.84 224.175 266.099 227.057 266.099 227.057C266.099 227.057 261.922 227.823 264.638 230.793C265.553 231.794 265.709 231.898 267.481 233.668C269.148 239.311 270.167 251.292 273.579 254.109C276.835 256.797 284.59 263.369 289.555 266.794C297.744 272.444 305.382 267.417 305.548 261.017Z" fill="white"/>
<path d="M289.555 266.794C284.59 263.369 276.835 256.797 273.579 254.109C270.167 251.292 269.147 239.311 267.481 233.668C265.709 231.898 265.553 231.794 264.638 230.793C261.922 227.823 266.099 227.057 266.099 227.057C266.099 227.057 262.84 224.175 264.228 221.874C265.617 219.573 268.815 222.198 268.815 222.198C268.815 222.198 268.3 220.099 270.614 219.588C273.978 218.845 284.332 232.499 289.095 237.854C293.858 243.209 294.807 244.208 296.843 242.696C299.444 240.764 298.003 234.709 300.113 230.931C302.222 227.153 308.413 224.903 306.108 231.113C304.103 236.513 304.873 251.769 305.547 261.017C305.735 263.585 303.907 265.377 303.907 265.377" stroke="black" stroke-width="0.851074" stroke-miterlimit="10" stroke-linecap="round" stroke-linejoin="round"/>
<path d="M268.814 222.198C275.377 226.789 284.648 239.27 284.648 239.27" stroke="black" stroke-width="0.851074" stroke-miterlimit="10" stroke-linecap="round" stroke-linejoin="round"/>
<path d="M266.098 227.057C273.345 231.733 281.274 243.6 281.274 243.6" stroke="black" stroke-width="0.851074" stroke-miterlimit="10" stroke-linecap="round" stroke-linejoin="round"/>
<path d="M267.481 233.668C267.499 231.605 270.803 231.144 271.999 234.644C273.253 238.317 277.163 247.972 277.163 247.972" stroke="black" stroke-width="0.851074" stroke-miterlimit="10" stroke-linecap="round" stroke-linejoin="round"/>
<path d="M286.119 341.255L282.315 359.805L278.183 350.355" stroke="black" stroke-width="0.851074" stroke-miterlimit="10" stroke-linecap="round" stroke-linejoin="round"/>
<path d="M354.091 370.181C308.063 344.452 287.051 324.506 273.716 334.881C260.381 345.257 174.74 409.639 174.74 409.639" stroke="black" stroke-width="0.851074" stroke-miterlimit="10" stroke-linecap="round" stroke-linejoin="round"/>
<path d="M167.882 399.563L177.891 440.655" stroke="black" stroke-width="0.851074" stroke-miterlimit="10" stroke-linecap="round" stroke-linejoin="round"/>
</svg>
