<svg width="376" height="819" viewBox="0 0 376 819" fill="none" xmlns="http://www.w3.org/2000/svg">
<rect width="375" height="818" transform="translate(0.453125)" fill="#E8F0F3"/>
<path d="M-61.5469 667.234V818H580.453V721.564C571.536 742.617 529.824 766.522 434.307 693.719C314.91 602.716 235.965 607.47 195.514 629.202C155.063 650.934 109.392 721.564 81.9897 721.564C54.5873 721.564 42.1909 708.66 4.34947 667.234C-25.9237 634.092 -52.1952 653.425 -61.5469 667.234Z" fill="#B9D1D9"/>
<path d="M146.057 590.498C146.057 590.498 102.474 573.646 74.9304 600.071C47.3866 626.497 45.1841 746.784 138.319 752.26C172.691 754.282 276.044 752.26 276.044 752.26L146.057 590.5V590.498Z" fill="white"/>
<path d="M189.21 753.508C168.794 753.508 149.691 753.284 138.299 752.615C119.487 751.509 103.448 745.655 90.624 735.218C79.4214 726.1 70.8759 713.714 65.2259 698.405C58.7822 680.948 56.5034 660.472 58.8115 640.75C60.9328 622.616 66.8668 607.311 74.6836 599.812C89.0058 586.072 107.694 584.182 120.846 585.017C135.076 585.92 146.077 590.12 146.187 590.162C146.246 590.185 146.298 590.222 146.336 590.273L276.323 752.033C276.408 752.138 276.425 752.284 276.369 752.407C276.31 752.531 276.188 752.61 276.052 752.613C275.366 752.626 229.715 753.505 189.21 753.505V753.508ZM115.611 585.565C103.18 585.565 87.5239 588.483 75.1771 600.327C67.4755 607.715 61.6226 622.859 59.5191 640.833C57.2241 660.445 59.4883 680.804 65.8946 698.157C74.4126 721.232 93.8945 749.288 138.338 751.902C170.792 753.81 265.999 752.09 275.309 751.915L145.838 590.796C144.769 590.397 134.228 586.58 120.778 585.728C119.137 585.625 117.405 585.563 115.61 585.563L115.611 585.565Z" fill="black"/>
<path d="M99.6427 661.507C99.5648 661.507 99.4869 661.481 99.4204 661.429C92.4476 655.892 88.1172 646.922 88.1172 638.02C88.1172 637.822 88.2762 637.664 88.4743 637.664C88.6723 637.664 88.8313 637.824 88.8313 638.02C88.8313 646.712 93.0595 655.468 99.8635 660.871C100.018 660.994 100.044 661.218 99.9203 661.372C99.8489 661.461 99.745 661.507 99.6395 661.507H99.6427Z" fill="black"/>
<path d="M141.195 558.104L155.707 558.883L161.294 561.71L157.804 568.122L150.307 562.464L145.316 568.31L132.551 559.953L141.195 558.104Z" fill="white"/>
<path d="M173.517 526.243C172.279 520.582 166.955 516.333 161.07 514.807C155.185 513.282 148.567 518.11 143.044 520.772C128.043 528.004 126.704 539.968 106.959 543.365C98.852 544.759 95.0524 549.358 93.6225 555.045C89.1476 572.845 103.022 585.388 106.36 587.025C114.96 591.24 125.979 589.055 133.992 583.665C142.005 578.276 147.514 570.191 152.141 561.994C155.884 555.363 158.957 546.171 164.835 540.947C169.578 536.734 175.09 533.44 173.516 526.245L173.517 526.243Z" fill="black"/>
<path d="M147.261 541.97L140.93 558.095L156.067 558.677L159.694 548.299L147.261 541.97Z" fill="white"/>
<path d="M156.068 559.036C156.029 559.036 155.988 559.029 155.949 559.016C155.762 558.951 155.665 558.747 155.73 558.562L159.255 548.478L147.452 542.469L141.263 558.227C141.192 558.41 140.984 558.501 140.801 558.429C140.617 558.358 140.526 558.15 140.599 557.967L146.931 541.843C146.968 541.749 147.043 541.676 147.137 541.64C147.231 541.604 147.337 541.611 147.426 541.656L159.857 547.985C160.016 548.067 160.091 548.253 160.033 548.422L156.405 558.799C156.353 558.946 156.215 559.039 156.068 559.039V559.036Z" fill="black"/>
<path d="M169.333 540.397C169.049 543.365 168.22 546.34 166.498 548.775C164.776 551.21 162.083 553.052 159.111 553.315C156.535 553.543 153.937 552.575 151.913 550.964C149.889 549.354 148.405 547.143 147.352 544.781C144.653 544.956 141.955 543.093 141.163 540.507C140.707 539.016 140.895 537.258 141.944 536.102C142.991 534.946 144.971 534.638 146.146 535.665C146.816 536.25 147.154 537.151 147.847 537.707C148.619 538.328 149.73 538.406 150.673 538.1C151.616 537.793 152.413 537.15 153.104 536.439C155.282 534.204 156.607 531.158 156.758 528.04C156.743 528.335 158.093 529.168 158.33 529.331C158.926 529.741 159.557 530.097 160.213 530.399C161.508 530.994 162.901 531.373 164.32 531.522C165.039 531.599 165.764 531.615 166.485 531.568C167.058 531.53 167.873 531.231 168.429 531.381C169.591 531.697 169.337 533.909 169.385 534.805C169.484 536.666 169.51 538.537 169.333 540.395V540.397Z" fill="white"/>
<path d="M158.369 553.704C156.077 553.704 153.683 552.828 151.692 551.243C149.845 549.772 148.311 547.723 147.127 545.147C144.368 545.192 141.633 543.253 140.823 540.611C140.288 538.858 140.616 537.038 141.68 535.861C142.912 534.501 145.11 534.283 146.382 535.394C146.738 535.705 147.001 536.083 147.254 536.449C147.511 536.821 147.752 537.171 148.072 537.427C148.697 537.928 149.65 538.054 150.564 537.758C151.32 537.511 152.047 537.012 152.85 536.188C154.962 534.021 156.257 531.044 156.403 528.022C156.413 527.825 156.597 527.675 156.778 527.682C156.949 527.69 157.085 527.816 157.113 527.977C157.187 528.087 157.475 528.34 158.371 528.927C158.444 528.976 158.502 529.013 158.536 529.037C159.108 529.431 159.723 529.78 160.365 530.075C161.627 530.655 162.97 531.022 164.36 531.167C165.063 531.242 165.772 531.257 166.465 531.211C166.642 531.2 166.859 531.158 167.088 531.112C167.554 531.022 168.083 530.918 168.525 531.038C169.75 531.37 169.742 533.095 169.737 534.236C169.737 534.447 169.735 534.637 169.744 534.786C169.862 537.012 169.846 538.805 169.69 540.429C169.364 543.844 168.388 546.72 166.79 548.98C164.895 551.659 162.037 553.412 159.143 553.67C158.887 553.692 158.629 553.704 158.367 553.704H158.369ZM147.353 544.424C147.493 544.424 147.623 544.507 147.679 544.636C148.827 547.211 150.327 549.245 152.136 550.685C154.212 552.337 156.746 553.166 159.08 552.958C161.766 552.72 164.431 551.077 166.205 548.568C167.731 546.412 168.663 543.651 168.977 540.361C169.13 538.772 169.146 537.012 169.028 534.823C169.02 534.661 169.02 534.458 169.021 534.232C169.025 533.364 169.031 531.913 168.336 531.725C168.056 531.649 167.614 531.735 167.225 531.813C166.971 531.863 166.733 531.91 166.509 531.923C165.775 531.97 165.025 531.954 164.282 531.876C162.816 531.722 161.396 531.333 160.063 530.722C159.383 530.409 158.733 530.039 158.127 529.622C158.095 529.601 158.043 529.566 157.976 529.522C157.583 529.266 157.28 529.055 157.048 528.878C156.718 531.785 155.399 534.591 153.36 536.686C152.472 537.597 151.654 538.153 150.783 538.437C149.645 538.808 148.432 538.635 147.623 537.985C147.222 537.664 146.938 537.253 146.663 536.856C146.423 536.511 146.197 536.183 145.909 535.932C144.935 535.083 143.172 535.276 142.208 536.341C141.325 537.317 141.049 538.912 141.505 540.402C142.245 542.821 144.797 544.589 147.329 544.424C147.337 544.424 147.343 544.424 147.351 544.424H147.353Z" fill="black"/>
<path d="M144.508 539.037C145.894 539.356 147.032 540.569 147.261 541.973L144.508 539.037Z" fill="white"/>
<path d="M147.261 542.327C147.089 542.327 146.938 542.203 146.909 542.028C146.702 540.758 145.682 539.672 144.429 539.382C144.238 539.338 144.118 539.145 144.161 538.954C144.207 538.762 144.398 538.642 144.59 538.686C146.119 539.038 147.362 540.366 147.615 541.912C147.648 542.107 147.515 542.29 147.32 542.323C147.3 542.326 147.281 542.327 147.261 542.327Z" fill="black"/>
<path d="M192.962 621.568C192.962 621.568 182.636 562.038 171.094 562.592L176.968 624.407L192.962 621.568Z" fill="white"/>
<path d="M176.964 624.765C176.886 624.765 176.81 624.739 176.748 624.692C176.669 624.632 176.618 624.541 176.608 624.442L170.736 562.627C170.726 562.53 170.757 562.435 170.822 562.36C170.885 562.287 170.978 562.242 171.075 562.237C182.799 561.694 192.888 619.066 193.312 621.51C193.346 621.702 193.216 621.887 193.023 621.921L177.029 624.76C177.008 624.763 176.987 624.765 176.967 624.765H176.964ZM171.484 562.953L177.284 623.988L192.546 621.279C192.128 618.945 189.644 605.343 186.008 591.961C180.936 573.293 175.924 563.291 171.484 562.953Z" fill="black"/>
<path d="M105.74 634.913L127.062 560.67C127.062 560.67 142.157 560.363 155.408 560.982C161.624 561.273 167.434 561.767 171.089 562.594C171.089 562.594 178.065 612.7 178.652 624.109L105.738 634.913H105.74Z" fill="white"/>
<path d="M237.479 621.568L151.156 624.407V618.907C151.156 616.568 153.052 614.673 155.393 614.673H237.479V621.568Z" fill="black"/>
<path d="M241.992 618.447H188.711C186.435 618.447 184.763 616.312 185.312 614.104L195.382 573.493C195.77 571.932 197.172 570.834 198.78 570.834H252.061C254.337 570.834 256.009 572.969 255.46 575.177L245.391 615.788C245.003 617.35 243.6 618.447 241.992 618.447Z" fill="black"/>
<path d="M104.916 634.113C104.812 634.113 104.711 634.068 104.643 633.987C104.565 633.894 104.539 633.768 104.573 633.653L126.722 560.564C126.767 560.416 126.902 560.314 127.056 560.311C127.108 560.311 132.372 560.193 139.712 560.246C139.91 560.246 140.069 560.408 140.067 560.606C140.067 560.802 139.906 560.961 139.71 560.961H139.707C133.295 560.916 128.473 560.998 127.331 561.021L105.417 633.332L178.279 623.797C177.612 612.361 171.294 566.66 170.771 562.886C170.25 562.766 169.805 562.66 169.404 562.563C167.163 562.025 166.324 561.824 161.204 561.584C161.156 561.582 161.107 561.569 161.063 561.546L155.903 558.996C155.727 558.909 155.654 558.695 155.741 558.518C155.829 558.341 156.043 558.268 156.22 558.356L161.312 560.874C166.432 561.115 167.356 561.336 169.57 561.867C170.029 561.978 170.545 562.101 171.169 562.242C171.313 562.274 171.423 562.394 171.443 562.54C171.513 563.041 178.427 612.793 179.01 624.086C179.02 624.272 178.885 624.434 178.7 624.459L104.96 634.108C104.945 634.11 104.929 634.111 104.913 634.111L104.916 634.113Z" fill="black"/>
<path d="M162.231 608.068L151.954 566.786L152.71 564.165L150.081 561.229L148.133 564.652L150.111 567.117L154.26 609.167L159.551 615.074L162.231 608.068Z" fill="#1D6C86"/>
<path d="M161.492 561.449L157.691 568.477L150.124 561.506L145.174 568.646L133.742 560.593L141.061 558.095L156.138 558.597L161.492 561.449Z" fill="white"/>
<path d="M145.19 568.834C145.121 568.834 145.052 568.814 144.992 568.774L133.326 560.965C133.214 560.89 133.154 560.757 133.171 560.623C133.188 560.488 133.279 560.376 133.408 560.331L140.814 557.756C140.888 557.73 140.971 557.73 141.047 557.756L150.069 560.846L155.928 558.35C156.024 558.309 156.132 558.312 156.227 558.358L161.654 561.029C161.742 561.072 161.807 561.149 161.836 561.242C161.865 561.334 161.855 561.435 161.81 561.521L158.023 568.481C157.971 568.575 157.882 568.641 157.777 568.66C157.673 568.682 157.562 568.652 157.481 568.584L152.774 564.672C152.622 564.546 152.602 564.321 152.729 564.17C152.854 564.019 153.081 563.998 153.232 564.124L157.603 567.759L161.003 561.508L156.056 559.073L150.221 561.56C150.14 561.594 150.049 561.597 149.965 561.569L140.931 558.476L134.318 560.775L145.112 568.001L147.632 564.768C147.754 564.612 147.978 564.585 148.134 564.706C148.29 564.828 148.317 565.052 148.196 565.207L145.47 568.703C145.401 568.792 145.295 568.84 145.188 568.84L145.19 568.834Z" fill="black"/>
<path d="M282.565 652.929C282.565 652.929 306.606 706.257 308.065 707.706C309.021 708.656 314.877 713.051 318.804 715.972C320.195 717.007 319.708 719.199 318.01 719.549L262.956 730.938L248.949 668.332L282.563 652.929H282.565Z" fill="white"/>
<path d="M262.959 731.294C262.795 731.294 262.647 731.181 262.61 731.015L248.603 668.409C248.565 668.246 248.65 668.077 248.802 668.007L282.416 652.604C282.502 652.564 282.601 652.561 282.691 652.595C282.78 652.629 282.851 652.695 282.89 652.783C292.523 674.15 307.245 706.342 308.318 707.453C309.029 708.158 312.828 711.083 319.019 715.685C319.777 716.249 320.121 717.172 319.916 718.093C319.712 719.015 319.011 719.706 318.085 719.897L263.032 731.286C263.007 731.291 262.983 731.294 262.959 731.294ZM249.364 668.536L263.231 730.518L317.941 719.2C318.587 719.067 319.077 718.584 319.22 717.94C319.363 717.297 319.123 716.653 318.593 716.259C314.196 712.988 308.756 708.892 307.816 707.96C306.378 706.532 285.461 660.219 282.389 653.405L249.364 668.538V668.536Z" fill="black"/>
<path d="M262.186 719.69C262.03 719.69 261.885 719.586 261.842 719.429C261.788 719.239 261.9 719.041 262.09 718.99L302.958 707.627C303.147 707.575 303.344 707.685 303.397 707.875C303.451 708.064 303.339 708.262 303.149 708.314L262.281 719.677C262.249 719.685 262.216 719.69 262.186 719.69Z" fill="black"/>
<path d="M212.48 709.561L219.695 752.618C220.33 756.405 223.608 759.181 227.45 759.181H280.477C282.268 759.181 283.168 757.018 281.905 755.747L269.576 743.36L259.157 690.878L212.48 709.561Z" fill="white"/>
<path d="M280.478 759.538H227.452C223.42 759.538 220.01 756.652 219.345 752.677L212.13 709.619C212.102 709.454 212.193 709.292 212.349 709.228L259.026 690.546C259.125 690.507 259.235 690.512 259.329 690.564C259.423 690.614 259.488 690.703 259.509 690.808L269.907 743.184L282.161 755.496C282.849 756.188 283.044 757.177 282.669 758.078C282.294 758.978 281.455 759.538 280.48 759.538H280.478ZM212.881 709.784L220.049 752.558C220.658 756.188 223.771 758.823 227.452 758.823H280.478C281.293 758.823 281.803 758.296 282.007 757.803C282.213 757.31 282.228 756.576 281.652 755.998L269.321 743.611C269.271 743.561 269.238 743.497 269.224 743.429L258.889 691.369L212.88 709.786L212.881 709.784Z" fill="black"/>
<path d="M220.943 748.204C220.748 748.204 220.588 748.046 220.586 747.852C220.583 747.654 220.742 747.494 220.938 747.49C235.746 747.309 250.637 745.853 265.198 743.162C265.391 743.126 265.578 743.254 265.615 743.447C265.651 743.642 265.523 743.826 265.328 743.864C250.728 746.561 235.796 748.022 220.948 748.205H220.943V748.204Z" fill="black"/>
<path d="M112.588 634.828C112.588 634.828 111.538 663.899 137.374 672.172C163.21 680.444 205.542 669.483 205.542 669.483L212.668 713.978L308.259 688.149C308.259 688.149 284.454 649.325 266.614 623.881C257.309 610.61 240.827 604.39 225.068 608.201C190.1 616.661 117.805 632.179 112.588 634.829V634.828Z" fill="#1D6C86"/>
<path d="M271.561 698.42C271.397 698.42 271.25 698.307 271.212 698.141C271.079 697.548 257.676 638.697 241.133 630.819C221.88 621.65 194.156 647.14 186.117 655.17C171.663 669.608 164.501 673.919 164.429 673.961C164.261 674.061 164.04 674.006 163.941 673.836C163.84 673.668 163.895 673.447 164.066 673.347C164.136 673.304 171.24 669.023 185.612 654.664C190.74 649.541 201.058 640.034 212.544 633.909C224.047 627.776 233.769 626.52 241.442 630.172C248.536 633.551 255.822 646.002 263.097 667.178C268.499 682.9 271.876 697.833 271.91 697.982C271.954 698.175 271.832 698.365 271.639 698.409C271.613 698.415 271.587 698.417 271.561 698.417V698.42Z" fill="black"/>
<path d="M146.125 602.951C132.843 607.877 113.911 619.711 113.911 619.711C113.911 619.711 131.39 572.247 127.065 560.668C127.065 560.668 104.169 567.54 93.5788 601.756C84.8531 629.948 94.0414 642.803 103.816 646.567C105.903 647.371 108.018 647.761 109.991 647.796C118.488 647.949 136.698 630.988 146.936 622.784C150.2 620.169 152.654 618.444 153.726 618.446L169.127 614.672C169.127 614.672 159.405 598.022 146.125 602.947V602.951Z" fill="white"/>
<path d="M109.71 647.858C104.463 647.858 101.337 645.826 101.173 645.718C95.6575 642.637 83.7943 632.148 93.2358 601.65C98.7316 583.893 107.592 573.61 114.058 568.109C121.083 562.135 126.722 560.397 126.959 560.326C127.139 560.271 127.33 560.366 127.397 560.543C131.429 571.332 117.123 611.877 114.597 618.867C118.485 616.489 134.457 606.896 145.999 602.615C159.408 597.642 169.336 614.325 169.435 614.493C169.492 614.591 169.5 614.709 169.454 614.813C169.411 614.916 169.32 614.993 169.211 615.02L153.809 618.794C153.782 618.801 153.754 618.806 153.723 618.804C153.017 618.845 148.309 622.265 142.008 627.314C141.854 627.437 141.63 627.413 141.505 627.259C141.381 627.105 141.406 626.881 141.56 626.756C146.415 622.867 152.412 618.243 153.667 618.092L168.563 614.443C166.955 611.937 157.931 598.949 146.248 603.283C133.154 608.14 114.289 619.893 114.099 620.012C113.969 620.093 113.804 620.083 113.685 619.986C113.567 619.89 113.523 619.728 113.575 619.585C113.747 619.117 130.64 572.987 126.842 561.117C125.537 561.579 120.466 563.587 114.492 568.678C108.108 574.117 99.3581 584.287 93.9208 601.859C84.6351 631.86 96.1623 642.099 101.549 645.108C101.621 645.153 106.49 648.302 114.159 646.658C114.354 646.616 114.542 646.739 114.583 646.932C114.625 647.125 114.502 647.314 114.308 647.355C112.64 647.712 111.101 647.854 109.713 647.854L109.71 647.858Z" fill="black"/>
<path d="M157.187 616.414C157.039 616.414 156.901 616.322 156.849 616.174C155.994 613.715 154.059 611.621 151.675 610.573C151.494 610.494 151.412 610.283 151.491 610.103C151.571 609.923 151.78 609.84 151.962 609.92C154.525 611.047 156.606 613.297 157.524 615.941C157.589 616.127 157.49 616.33 157.303 616.395C157.265 616.408 157.226 616.414 157.187 616.414Z" fill="black"/>
<path d="M162.029 615.443C161.874 615.443 161.732 615.343 161.686 615.189C160.787 612.181 158.555 609.589 155.713 608.253C155.535 608.169 155.458 607.957 155.541 607.778C155.626 607.6 155.838 607.524 156.017 607.608C159.039 609.028 161.414 611.786 162.37 614.985C162.426 615.174 162.319 615.372 162.129 615.429C162.095 615.438 162.061 615.443 162.027 615.443H162.029Z" fill="black"/>
<path d="M151.156 621.568V618.908C151.156 616.569 153.052 614.673 155.393 614.673H172.946L151.156 621.568Z" fill="black"/>
<path d="M120.105 668.674C120.105 668.674 179.447 661.343 205.54 669.482L206.902 679.225L120.105 685.935V668.676V668.674Z" fill="white"/>
<path d="M118.28 670.292C118.142 670.292 118.012 670.213 117.952 670.078C117.873 669.898 117.955 669.688 118.136 669.608C118.275 669.547 121.604 668.105 127.686 667.499C127.885 667.481 128.057 667.622 128.077 667.818C128.096 668.015 127.954 668.19 127.757 668.209C121.787 668.804 118.457 670.245 118.423 670.26C118.376 670.281 118.327 670.291 118.278 670.291L118.28 670.292Z" fill="black"/>
<path d="M189.655 472.821H120.649C110.761 472.821 102.747 480.108 102.747 489.099C102.747 491.525 103.334 493.825 104.381 495.894L95.9102 511.297L113.104 503.862C115.397 504.833 117.952 505.378 120.648 505.378H189.653C199.541 505.378 207.556 498.09 207.556 489.099C207.556 480.108 199.541 472.821 189.653 472.821H189.655Z" fill="#FFBB00"/>
<path d="M95.9118 511.652C95.8128 511.652 95.717 511.612 95.6472 511.535C95.545 511.422 95.5255 511.257 95.5986 511.124L103.979 495.884C102.924 493.74 102.39 491.457 102.39 489.098C102.39 479.925 110.581 472.463 120.649 472.463H189.655C199.723 472.463 207.915 479.925 207.915 489.098C207.915 498.271 199.723 505.733 189.655 505.733H120.649C118.023 505.733 115.488 505.234 113.107 504.248L96.053 511.623C96.0076 511.642 95.9589 511.652 95.9102 511.652H95.9118ZM120.649 473.178C110.976 473.178 103.104 480.319 103.104 489.098C103.104 491.407 103.641 493.637 104.699 495.73C104.753 495.836 104.75 495.961 104.694 496.063L96.7266 510.551L112.962 503.53C113.052 503.491 113.154 503.491 113.243 503.53C115.576 504.517 118.067 505.018 120.649 505.018H189.655C199.329 505.018 207.201 497.877 207.201 489.098C207.201 480.319 199.33 473.178 189.655 473.178H120.649Z" fill="black"/>
<path d="M152.129 485.008C152.697 482.646 154.846 480.901 157.393 480.956C160.166 481.018 162.448 483.263 162.552 486.037C162.645 488.516 161.033 490.635 158.797 491.311C157.883 491.587 157.268 492.444 157.266 493.401V495.216L152.129 485.008Z" fill="white"/>
<path d="M157.264 495.573C157.066 495.573 156.907 495.413 156.907 495.216V493.401C156.907 492.287 157.642 491.287 158.692 490.97C160.838 490.322 162.279 488.299 162.195 486.052C162.097 483.451 159.984 481.371 157.384 481.315C155.074 481.255 153.013 482.853 152.476 485.092C152.428 485.283 152.234 485.402 152.044 485.356C151.852 485.311 151.734 485.118 151.779 484.927C152.396 482.362 154.762 480.538 157.398 480.601C160.377 480.666 162.797 483.049 162.907 486.026C163.003 488.597 161.354 490.912 158.896 491.655C158.145 491.882 157.621 492.6 157.621 493.402V495.218C157.621 495.416 157.46 495.575 157.262 495.575L157.264 495.573Z" fill="black"/>
<path d="M157.259 495.837C157.456 495.837 157.616 495.998 157.616 496.194V497.545C157.616 497.742 157.456 497.901 157.259 497.901C157.063 497.901 156.902 497.741 156.902 497.545V496.194C156.902 495.996 157.063 495.837 157.259 495.837Z" fill="black"/>
<path d="M170.84 485.008C171.408 482.646 173.557 480.901 176.104 480.956C178.877 481.018 181.159 483.263 181.263 486.037C181.356 488.516 179.744 490.635 177.507 491.311C176.594 491.587 175.979 492.444 175.977 493.401V495.216L170.84 485.008Z" fill="white"/>
<path d="M175.975 495.573C175.777 495.573 175.618 495.413 175.618 495.216V493.401C175.618 492.287 176.353 491.287 177.403 490.97C179.549 490.322 180.99 488.299 180.906 486.052C180.808 483.451 178.695 481.371 176.095 481.315C173.793 481.255 171.725 482.853 171.186 485.092C171.141 485.283 170.946 485.402 170.755 485.356C170.563 485.311 170.445 485.118 170.49 484.927C171.107 482.362 173.469 480.538 176.109 480.601C179.088 480.666 181.508 483.049 181.618 486.026C181.714 488.597 180.065 490.912 177.607 491.655C176.856 491.882 176.332 492.6 176.332 493.402V495.218C176.332 495.416 176.171 495.575 175.973 495.575L175.975 495.573Z" fill="black"/>
<path d="M175.974 495.837C176.171 495.837 176.331 495.998 176.331 496.194V497.545C176.331 497.742 176.171 497.901 175.974 497.901C175.778 497.901 175.617 497.741 175.617 497.545V496.194C175.617 495.996 175.778 495.837 175.974 495.837Z" fill="black"/>
<path d="M133.414 485.008C133.982 482.646 136.131 480.901 138.678 480.956C141.452 481.018 143.734 483.263 143.838 486.037C143.93 488.516 142.318 490.635 140.082 491.311C139.168 491.587 138.553 492.444 138.551 493.401V495.216L133.414 485.008Z" fill="white"/>
<path d="M138.549 495.573C138.351 495.573 138.192 495.413 138.192 495.216V493.401C138.192 492.287 138.927 491.287 139.977 490.97C142.123 490.322 143.564 488.299 143.48 486.052C143.382 483.451 141.269 481.371 138.669 481.315C136.374 481.255 134.3 482.853 133.761 485.092C133.714 485.283 133.52 485.402 133.329 485.356C133.137 485.311 133.019 485.118 133.064 484.927C133.681 482.362 136.051 480.538 138.684 480.601C141.662 480.666 144.082 483.049 144.192 486.026C144.288 488.597 142.639 490.912 140.183 491.655C139.432 491.882 138.908 492.6 138.908 493.402V495.218C138.908 495.416 138.747 495.575 138.549 495.575V495.573Z" fill="black"/>
<path d="M138.552 495.837C138.749 495.837 138.909 495.998 138.909 496.194V497.545C138.909 497.742 138.749 497.901 138.552 497.901C138.356 497.901 138.195 497.741 138.195 497.545V496.194C138.195 495.996 138.356 495.837 138.552 495.837Z" fill="black"/>
</svg>
