<svg width="377" height="695" viewBox="0 0 377 695" fill="none" xmlns="http://www.w3.org/2000/svg">
<rect x="1.92188" width="375" height="694.55" fill="#E8F0F3"/>
<g clip-path="url(#clip0_1669_14409)">
<path opacity="0.3" d="M-61.9102 588.808V695.257H579.895V627.168C570.981 642.032 529.281 658.911 433.793 607.508C314.433 543.255 235.512 546.611 195.073 561.955C154.634 577.299 108.977 627.168 81.5828 627.168C54.1887 627.168 41.7961 618.057 3.96616 588.808C-26.2978 565.408 -52.5614 579.058 -61.9102 588.808Z" fill="url(#paint0_linear_1669_14409)"/>
<g clip-path="url(#clip1_1669_14409)">
<path d="M185.509 576.718C179.814 569.011 171.113 564.116 161.585 563.236C156.159 562.735 149.352 562.2 141.764 561.813C141.346 563.183 140.762 564.507 140.003 565.755C137.802 569.383 134.357 572.176 130.517 573.906C126.677 575.641 122.374 576.426 118.178 575.918C114.068 575.421 110.156 573.667 107.314 570.601C105 568.101 102.218 565.08 101.509 561.805C94.6221 562.196 89.1962 562.765 82.7343 563.782C70.3988 565.718 59.5658 573.068 53.0433 583.731C41.0872 603.274 20.3774 636.872 19.2694 664.831C17.4861 709.889 92.8502 690.453 92.8502 690.453L172.544 684.378L220.065 647.539C220.065 647.539 205.274 603.467 185.505 576.718H185.509Z" fill="#006C86"/>
<path d="M91.4535 682.814C90.892 686.609 94.7281 689.538 98.2303 687.986C105.386 684.81 113.142 683.209 120.97 683.285L154.831 683.626C154.831 683.626 157.476 639.915 109.602 645.197C109.602 645.197 95.1568 657.788 91.4573 682.814H91.4535Z" fill="white"/>
<path d="M129.888 684.177C129.888 684.177 129.85 684.177 129.831 684.173C129.622 684.142 129.478 683.949 129.508 683.744C129.861 681.312 129.292 678.606 127.903 676.128C126.738 674.049 125.016 672.09 122.633 670.136C122.181 669.764 121.692 669.385 121.149 669.146C120.956 669.062 120.868 668.838 120.956 668.645C121.039 668.451 121.263 668.364 121.457 668.451C122.09 668.728 122.625 669.146 123.119 669.552C125.574 671.567 127.357 673.597 128.571 675.76C130.043 678.382 130.643 681.258 130.263 683.858C130.237 684.048 130.074 684.184 129.888 684.184V684.177Z" fill="black"/>
<path d="M140.833 683.546C140.647 683.546 140.484 683.41 140.457 683.22C140.047 680.321 139.459 676.928 138.192 673.756C136.887 670.477 134.97 667.802 132.648 666.015C132.481 665.886 132.451 665.651 132.58 665.484C132.709 665.317 132.944 665.286 133.111 665.415C135.54 667.282 137.539 670.071 138.898 673.475C140.191 676.724 140.791 680.169 141.208 683.114C141.239 683.323 141.095 683.512 140.886 683.543C140.867 683.543 140.852 683.546 140.833 683.546Z" fill="black"/>
<path d="M149.602 683.546C149.602 683.546 149.571 683.546 149.556 683.546C149.347 683.52 149.199 683.334 149.222 683.125C150.698 670.747 142.609 663.044 142.529 662.968C142.377 662.824 142.366 662.585 142.51 662.433C142.654 662.281 142.893 662.27 143.045 662.414C143.128 662.493 151.495 670.459 149.977 683.216C149.955 683.41 149.791 683.55 149.602 683.55V683.546Z" fill="black"/>
<path d="M265.951 695.458H97.4387C96.4408 695.458 95.4429 695.2 94.6195 694.634C92.6919 693.306 92.0241 690.931 92.7868 688.889C94.7751 684.715 98.8806 683.243 104.952 683.243H277.008L274.777 689.322C273.4 693.01 269.882 695.454 265.951 695.454V695.458Z" fill="white"/>
<path d="M265.951 695.837H97.4382C96.2999 695.837 95.2489 695.53 94.4027 694.946C92.3955 693.564 91.5835 691.018 92.4296 688.756C94.3724 684.673 98.2312 682.863 104.951 682.863H277.007C277.133 682.863 277.246 682.924 277.319 683.026C277.391 683.129 277.406 683.258 277.364 683.376L275.133 689.455C273.706 693.272 270.018 695.837 265.951 695.837ZM104.951 683.626C98.5614 683.626 94.9149 685.299 93.1278 689.056C92.4182 690.961 93.1164 693.139 94.8353 694.323C95.5524 694.817 96.4555 695.078 97.4382 695.078H265.951C269.703 695.078 273.107 692.714 274.42 689.193L276.465 683.626H104.951Z" fill="black"/>
<path d="M266.907 695.458C270.277 695.458 273.309 693.401 274.553 690.263L304.385 615.253C305.178 613.265 304.931 611.011 303.732 609.235C302.533 607.459 300.533 606.4 298.393 606.4H194.826C188.584 606.4 183.021 610.339 180.938 616.232L152.936 695.454H266.904L266.907 695.458Z" fill="white"/>
<path d="M266.906 695.838H152.938C152.729 695.838 152.559 695.667 152.559 695.458C152.559 695.249 152.729 695.079 152.938 695.079H266.906C270.139 695.079 273.004 693.132 274.199 690.123L304.03 615.113C304.778 613.238 304.547 611.121 303.416 609.448C302.285 607.778 300.407 606.78 298.392 606.78H202.975C202.766 606.78 202.595 606.609 202.595 606.4C202.595 606.192 202.766 606.021 202.975 606.021H298.392C300.661 606.021 302.771 607.144 304.046 609.023C305.317 610.901 305.575 613.284 304.736 615.394L274.905 690.404C273.592 693.705 270.45 695.838 266.906 695.838Z" fill="black"/>
<path d="M269.331 684.359H166.651C166.442 684.359 166.271 684.188 166.271 683.979C166.271 683.77 166.442 683.6 166.651 683.6H269.331C269.539 683.6 269.71 683.77 269.71 683.979C269.71 684.188 269.539 684.359 269.331 684.359Z" fill="black"/>
<path d="M51.8971 646.37C51.6922 646.37 51.5214 646.203 51.5176 645.998C51.5138 645.789 51.6808 645.615 51.8895 645.611L107.113 644.56C107.329 644.556 107.496 644.723 107.5 644.932C107.504 645.14 107.337 645.315 107.128 645.319L51.9047 646.37C51.9047 646.37 51.9009 646.37 51.8971 646.37Z" fill="black"/>
<path d="M70.3376 643.232C70.2997 643.232 70.2655 643.228 70.2276 643.217C70.0265 643.156 69.9127 642.943 69.9734 642.746C71.9844 636.041 74.7581 629.552 78.2186 623.469C78.9319 622.217 80.074 620.562 81.8043 620.616C82.0129 620.623 82.1761 620.798 82.1723 621.006C82.1647 621.215 81.994 621.378 81.7815 621.374C80.4648 621.333 79.4973 622.763 78.8826 623.845C75.4525 629.882 72.7015 636.314 70.7057 642.966C70.6563 643.129 70.5046 643.236 70.3414 643.236L70.3376 643.232Z" fill="black"/>
<path d="M116.976 530.241L107.111 559.138C106.481 560.986 104.914 562.352 103.001 562.724L98.6074 563.582C98.6074 563.582 110.029 588.422 129.277 584.259C148.526 580.1 144.292 563.582 144.292 563.582L140.22 563.251C137.784 563.054 136.111 560.701 136.722 558.33L141.298 540.57C141.298 540.57 122.649 525.509 116.976 530.241Z" fill="white"/>
<path d="M125.012 585.101C118.504 585.101 112.156 581.921 106.442 575.74C101.202 570.07 98.2879 563.805 98.2613 563.741C98.212 563.634 98.2158 563.513 98.2689 563.411C98.322 563.308 98.4207 563.232 98.5345 563.209L102.928 562.352C104.704 562.007 106.169 560.728 106.753 559.013L116.619 530.116C116.641 530.051 116.679 529.991 116.736 529.949C122.58 525.077 140.766 539.652 141.54 540.274C141.654 540.369 141.707 540.521 141.669 540.665L137.093 558.424C136.827 559.449 137.029 560.53 137.643 561.388C138.254 562.246 139.207 562.788 140.254 562.872L144.325 563.202C144.488 563.213 144.621 563.331 144.663 563.486C144.735 563.763 146.363 570.347 142.659 576.335C140.094 580.483 135.621 583.276 129.36 584.627C127.911 584.942 126.461 585.097 125.019 585.097L125.012 585.101ZM99.1606 563.862C99.9119 565.369 102.64 570.518 107.011 575.239C113.89 582.672 121.354 585.583 129.193 583.891C135.245 582.581 139.559 579.906 142.007 575.941C145.137 570.875 144.234 565.209 143.976 563.938L140.185 563.631C138.914 563.528 137.757 562.872 137.017 561.832C136.273 560.788 136.031 559.479 136.349 558.238L140.865 540.718C138.903 539.17 122.462 526.439 117.298 530.469L107.466 559.263C106.795 561.232 105.11 562.705 103.069 563.099L99.1606 563.862Z" fill="black"/>
<path d="M158.542 494.313C160.227 502.65 153.75 510.209 148.145 511.602C147.948 511.651 147.747 511.696 147.553 511.738C147.432 512.152 147.288 512.565 147.102 512.971C144.897 517.802 138.591 520.155 133.29 519.673C131.754 521.32 129.754 523.612 127.633 526.511C120.86 535.766 118.029 561.327 100.237 563.858C81.2124 566.564 73.3884 550.816 74.7847 539.853C77.0879 521.802 106.847 507.169 107.348 506.763C111.662 503.265 112.6 502.665 119.096 498.294C128.972 491.645 129.147 486.568 137.635 483.695C139.881 482.936 142.712 482.018 146.241 482.667C151.378 483.612 157.21 487.729 158.542 494.313Z" fill="black"/>
<path d="M123.697 534.734C123.697 534.734 128.478 545.792 140.996 543.75C153.513 541.709 153.832 525.756 152.713 508.801C151.461 510.403 148.66 511.636 146.448 512.577C137.444 516.413 129.347 511.385 128.155 510.74C130.299 513.381 130.303 516.967 128.497 519.392C127.499 520.732 125.621 521.699 122.297 521.756C122.297 521.756 120.711 516.448 115.987 519.529C111.263 522.61 113.02 535.618 123.697 534.734Z" fill="white"/>
<path d="M138.01 544.376C128.535 544.376 124.21 536.624 123.466 535.129C118.822 535.417 115.194 533.068 113.73 528.803C112.432 525.02 113.331 520.804 115.778 519.206C117.292 518.22 118.674 517.943 119.884 518.387C121.508 518.982 122.305 520.69 122.563 521.365C125.28 521.274 127.173 520.534 128.194 519.161C129.973 516.77 129.837 513.404 127.86 510.972C127.746 510.831 127.746 510.63 127.86 510.49C127.974 510.349 128.175 510.311 128.334 510.399C128.399 510.433 128.478 510.478 128.577 510.535C136.306 514.876 142.48 513.848 146.301 512.22C148.243 511.393 151.176 510.144 152.417 508.558C152.516 508.433 152.679 508.384 152.827 508.429C152.979 508.475 153.085 508.611 153.092 508.767C154.147 524.746 154.17 541.974 141.057 544.115C139.987 544.289 138.97 544.369 138.01 544.369V544.376ZM123.697 534.355C123.849 534.355 123.986 534.442 124.046 534.582C124.236 535.022 128.865 545.344 140.935 543.375C153.191 541.375 153.366 525.096 152.394 509.704C151.013 510.983 148.79 511.996 146.6 512.93C142.81 514.546 136.796 515.597 129.305 511.795C130.641 514.315 130.489 517.358 128.805 519.627C127.602 521.244 125.416 522.09 122.305 522.143C122.138 522.151 121.982 522.037 121.933 521.874C121.925 521.851 121.265 519.711 119.622 519.111C118.647 518.755 117.497 519.005 116.196 519.855C114.025 521.271 113.259 525.099 114.45 528.568C115.82 532.56 119.269 534.726 123.667 534.362C123.678 534.362 123.69 534.362 123.697 534.362V534.355Z" fill="black"/>
<path d="M122.958 530.116C122.798 530.116 122.654 530.017 122.597 529.858C122.324 529.057 122.039 528.226 121.55 527.543C121.034 526.826 120.343 526.386 119.653 526.337C119.444 526.321 119.285 526.139 119.3 525.931C119.315 525.722 119.493 525.562 119.706 525.578C120.624 525.642 121.523 526.196 122.168 527.099C122.722 527.873 123.022 528.754 123.314 529.611C123.383 529.809 123.276 530.025 123.079 530.093C123.037 530.109 122.996 530.112 122.958 530.112V530.116Z" fill="black"/>
<path d="M122.761 495.717C122.761 495.717 112.668 501.048 119.634 517.441L115.149 519.878C115.149 519.878 105.003 498.901 122.761 495.717Z" fill="white"/>
<path d="M115.149 520.257C115.111 520.257 115.07 520.25 115.032 520.238C114.933 520.208 114.853 520.136 114.808 520.041C114.588 519.589 109.496 508.885 113.248 501.523C114.918 498.244 118.098 496.165 122.696 495.341C122.879 495.307 123.061 495.413 123.121 495.592C123.182 495.77 123.106 495.964 122.939 496.051C122.917 496.062 120.477 497.39 118.906 500.639C116.815 504.957 117.191 510.714 119.983 517.294C120.059 517.472 119.983 517.681 119.817 517.776L115.332 520.212C115.275 520.242 115.214 520.257 115.149 520.257ZM121.122 496.476C117.688 497.425 115.271 499.235 113.924 501.872C110.714 508.167 114.47 517.415 115.324 519.35L119.152 517.275C114.041 504.961 118.568 498.779 121.122 496.476Z" fill="black"/>
<path d="M132.539 539.975C131.128 539.975 129.735 539.451 128.673 538.468L121.57 531.918C121.414 531.778 121.407 531.535 121.547 531.383C121.688 531.228 121.93 531.22 122.082 531.361L129.185 537.91C130.472 539.094 132.304 539.512 133.974 538.999L144.799 535.679C145 535.618 145.213 535.728 145.273 535.929C145.334 536.131 145.224 536.343 145.023 536.404L134.198 539.724C133.655 539.891 133.093 539.971 132.539 539.971V539.975Z" fill="black"/>
<path d="M149.204 535.102C149.481 536.366 147.781 537.811 145.41 538.327C143.038 538.847 140.894 538.244 140.617 536.98C140.34 535.717 142.04 534.271 144.412 533.755C146.783 533.239 148.927 533.838 149.204 535.102Z" fill="white"/>
<path d="M143.744 538.897C143.163 538.897 142.617 538.828 142.127 538.692C141.08 538.396 140.412 537.819 140.249 537.064C139.923 535.573 141.718 533.956 144.332 533.387C145.539 533.121 146.734 533.125 147.698 533.398C148.745 533.694 149.413 534.271 149.576 535.026C149.902 536.517 148.107 538.134 145.493 538.703C144.897 538.832 144.305 538.897 143.744 538.897ZM146.085 533.948C145.577 533.948 145.042 534.009 144.495 534.127C142.15 534.639 140.788 535.975 140.993 536.901C141.092 537.36 141.581 537.747 142.336 537.959C143.182 538.199 144.245 538.199 145.334 537.959C147.679 537.447 149.041 536.111 148.836 535.186C148.737 534.726 148.248 534.339 147.493 534.127C147.068 534.009 146.593 533.948 146.085 533.948Z" fill="black"/>
<path d="M119.6 537.383C125.589 537.383 130.445 532.519 130.445 526.519C130.445 520.518 125.589 515.654 119.6 515.654C113.611 515.654 108.756 520.518 108.756 526.519C108.756 532.519 113.611 537.383 119.6 537.383Z" fill="white"/>
<path d="M119.601 537.762C113.412 537.762 108.377 532.719 108.377 526.519C108.377 520.318 113.412 515.275 119.601 515.275C125.789 515.275 130.825 520.318 130.825 526.519C130.825 532.719 125.789 537.762 119.601 537.762ZM119.601 516.038C113.829 516.038 109.136 520.739 109.136 526.522C109.136 532.305 113.829 537.007 119.601 537.007C125.372 537.007 130.066 532.305 130.066 526.522C130.066 520.739 125.372 516.038 119.601 516.038Z" fill="black"/>
<path d="M119.601 534.188C123.827 534.188 127.254 530.754 127.254 526.519C127.254 522.283 123.827 518.85 119.601 518.85C115.374 518.85 111.947 522.283 111.947 526.519C111.947 530.754 115.374 534.188 119.601 534.188Z" fill="white"/>
<path d="M119.601 534.567C115.173 534.567 111.568 530.959 111.568 526.519C111.568 522.079 115.173 518.47 119.601 518.47C124.029 518.47 127.634 522.079 127.634 526.519C127.634 530.959 124.029 534.567 119.601 534.567ZM119.601 519.229C115.59 519.229 112.327 522.5 112.327 526.519C112.327 530.537 115.59 533.808 119.601 533.808C123.612 533.808 126.875 530.537 126.875 526.519C126.875 522.5 123.612 519.229 119.601 519.229Z" fill="black"/>
<path d="M318.431 543.307C295.555 543.307 277.012 561.851 277.012 584.729V626.152H317.786V626.145C318.002 626.145 318.219 626.152 318.435 626.152C341.311 626.152 359.855 607.608 359.855 584.729C359.855 561.851 341.311 543.307 318.435 543.307H318.431Z" fill="#061F34"/>
<path d="M324.051 603.088V577.462H312.804V603.088C312.804 604.818 311.4 606.222 309.67 606.222V608.989H327.185V606.222C325.455 606.222 324.051 604.818 324.051 603.088Z" fill="white"/>
<path d="M318.43 572.484C321.93 572.484 324.767 569.647 324.767 566.147C324.767 562.647 321.93 559.81 318.43 559.81C314.931 559.81 312.094 562.647 312.094 566.147C312.094 569.647 314.931 572.484 318.43 572.484Z" fill="white"/>
</g>
</g>
<defs>
<linearGradient id="paint0_linear_1669_14409" x1="-61.9102" y1="552.634" x2="494.449" y2="959.685" gradientUnits="userSpaceOnUse">
<stop stop-color="#006C86"/>
<stop offset="1" stop-color="#061F34"/>
</linearGradient>
<clipPath id="clip0_1669_14409">
<rect width="376.07" height="625" fill="white" transform="translate(0.851562 70)"/>
</clipPath>
<clipPath id="clip1_1669_14409">
<rect width="340.611" height="213.395" fill="white" transform="translate(19.2402 482.443)"/>
</clipPath>
</defs>
</svg>
