<svg width="51" height="51" viewBox="0 0 51 51" fill="none" xmlns="http://www.w3.org/2000/svg">
<g clip-path="url(#clip0_1155_15721)">
<path d="M48.5977 24.0351H47.7088V23.931C47.7088 20.2731 45.6531 17.3342 42.9748 15.827C44.4324 14.551 45.3555 12.6792 45.3555 10.5944C45.3555 6.75874 42.2347 3.63794 38.3991 3.63794C34.5634 3.63794 31.4426 6.75874 31.4426 10.5944C31.4426 12.6792 32.3657 14.551 33.823 15.827C31.1385 17.3369 29.0893 20.283 29.0893 23.931V24.0351H16.1281C14.7827 23.0498 13.1255 22.4661 11.3338 22.4661C6.84923 22.4661 3.20047 26.1145 3.20047 30.5995C3.20047 33.2411 4.46733 35.5921 6.42503 37.0787C2.65115 39.012 0.0625 42.9427 0.0625 47.4661V49.0351C0.0625 49.8442 0.718246 50.5 1.52734 50.5H21.9245C22.7336 50.5 23.3894 49.8442 23.3894 49.0351V47.4661C23.3894 46.3416 23.2288 45.2536 22.9305 44.224H47.1328V45.8972C47.1328 46.7059 47.7886 47.362 48.5977 47.362C49.4068 47.362 50.0625 46.7059 50.0625 45.8972V25.5C50.0625 24.6909 49.4068 24.0351 48.5977 24.0351ZM34.3723 10.5944C34.3723 8.37427 36.1785 6.56763 38.3991 6.56763C40.6192 6.56763 42.4259 8.37427 42.4259 10.5944C42.4259 12.8146 40.6196 14.6212 38.3991 14.6212C36.1789 14.6212 34.3723 12.8146 34.3723 10.5944ZM32.019 23.931C32.019 20.3517 34.933 17.5509 38.3991 17.5509C41.8552 17.5509 44.7791 20.3414 44.7791 23.931V24.0351H32.019V23.931ZM11.3338 25.3958C14.2028 25.3958 16.537 27.73 16.537 30.5995C16.537 33.4685 14.2028 35.8027 11.3338 35.8027C8.46437 35.8027 6.13016 33.4685 6.13016 30.5995C6.13016 27.73 8.46437 25.3958 11.3338 25.3958ZM20.4597 47.5703H2.99219V47.4661C2.99219 42.6505 6.91026 38.7324 11.7259 38.7324C16.5416 38.7324 20.4597 42.6505 20.4597 47.4661V47.5703ZM16.5389 36.8426C18.3269 35.3495 19.4667 33.1053 19.4667 30.5995C19.4667 29.2933 19.1558 28.0596 18.6065 26.9648H47.1328V41.2943H21.6182C20.404 39.3557 18.637 37.797 16.5389 36.8426Z" fill="#1D6C86"/>
<path d="M5.45 19.9042H26.6315C27.7988 19.9042 28.4988 18.5996 27.8503 17.6268L24.9584 13.2892V5.8875C24.9584 2.93454 22.5761 0.5 19.5709 0.5H5.45C2.4608 0.5 0.0625 2.91966 0.0625 5.8875V14.5171C0.0625 17.4781 2.45203 19.9042 5.45 19.9042ZM2.99219 5.8875C2.99219 4.54663 4.07098 3.42969 5.45 3.42969H19.5709C20.9361 3.42969 22.0287 4.52832 22.0287 5.8875V13.7324C22.0287 14.0216 22.1141 14.3042 22.2747 14.545L23.8944 16.9745H5.45C4.08472 16.9745 2.99219 15.8759 2.99219 14.5167V5.8875Z" fill="#1D6C86"/>
<path d="M7.80273 8.92139H17.217C18.0257 8.92139 18.6819 8.26526 18.6819 7.45654C18.6819 6.64745 18.0257 5.9917 17.217 5.9917H7.80273C6.99402 5.9917 6.33789 6.64745 6.33789 7.45654C6.33789 8.26526 6.99364 8.92139 7.80273 8.92139Z" fill="#1D6C86"/>
<path d="M7.80273 14.4128H12.5101C13.3188 14.4128 13.9749 13.7567 13.9749 12.948C13.9749 12.1389 13.3188 11.4832 12.5101 11.4832H7.80273C6.99402 11.4832 6.33789 12.1389 6.33789 12.948C6.33789 13.7567 6.99364 14.4128 7.80273 14.4128Z" fill="#1D6C86"/>
</g>
<defs>
<clipPath id="clip0_1155_15721">
<rect width="50" height="50" fill="white" transform="translate(0.0625 0.5)"/>
</clipPath>
</defs>
</svg>
