<svg width="563" height="353" viewBox="0 0 563 353" fill="none" xmlns="http://www.w3.org/2000/svg">
<g clip-path="url(#clip0_971_43352)">
<path d="M274.839 156.204C265.43 143.471 251.056 135.384 235.315 133.929C226.351 133.102 215.105 132.218 202.568 131.578C201.878 133.842 200.913 136.03 199.659 138.092C196.023 144.085 190.331 148.7 183.987 151.558C177.644 154.423 170.535 155.721 163.602 154.881C156.813 154.06 150.35 151.163 145.654 146.098C141.831 141.967 137.236 136.976 136.063 131.566C124.686 132.212 115.722 133.152 105.046 134.832C84.6665 138.029 66.7694 150.173 55.9935 167.789C36.2409 200.076 2.02646 255.583 0.196007 301.774C-2.75027 376.215 121.758 344.104 121.758 344.104L253.419 334.067L331.928 273.206C331.928 273.206 307.493 200.395 274.833 156.204H274.839Z" fill="#006C86"/>
<path d="M119.452 331.484C118.525 337.753 124.862 342.593 130.648 340.029C142.471 334.782 155.284 332.136 168.216 332.262L224.158 332.826C224.158 332.826 228.527 260.611 149.435 269.338C149.435 269.338 125.571 290.139 119.459 331.484H119.452Z" fill="white"/>
<path d="M182.947 333.735C182.947 333.735 182.885 333.735 182.853 333.728C182.508 333.678 182.27 333.359 182.32 333.02C182.903 329.001 181.963 324.532 179.669 320.438C177.744 317.002 174.898 313.767 170.961 310.539C170.216 309.924 169.407 309.297 168.51 308.902C168.191 308.765 168.047 308.395 168.191 308.075C168.329 307.755 168.699 307.611 169.018 307.755C170.065 308.213 170.949 308.902 171.764 309.573C175.82 312.902 178.766 316.256 180.772 319.83C183.204 324.162 184.195 328.914 183.568 333.208C183.524 333.522 183.254 333.747 182.947 333.747V333.735Z" fill="black"/>
<path d="M201.032 332.694C200.725 332.694 200.455 332.468 200.411 332.155C199.734 327.365 198.763 321.761 196.669 316.52C194.513 311.103 191.347 306.683 187.51 303.73C187.235 303.517 187.184 303.129 187.398 302.853C187.611 302.577 187.999 302.527 188.275 302.74C192.287 305.824 195.591 310.432 197.835 316.056C199.973 321.422 200.963 327.115 201.653 331.979C201.703 332.324 201.465 332.638 201.12 332.688C201.088 332.688 201.063 332.694 201.032 332.694Z" fill="black"/>
<path d="M215.519 332.694C215.519 332.694 215.469 332.694 215.444 332.694C215.099 332.65 214.855 332.343 214.892 331.998C217.331 311.548 203.966 298.822 203.834 298.696C203.584 298.458 203.565 298.063 203.803 297.812C204.041 297.562 204.436 297.543 204.687 297.781C204.825 297.913 218.647 311.072 216.14 332.149C216.102 332.468 215.833 332.7 215.519 332.7V332.694Z" fill="black"/>
<path d="M407.736 352.373H129.337C127.689 352.373 126.04 351.947 124.68 351.013C121.495 348.819 120.392 344.894 121.652 341.521C124.937 334.625 131.719 332.193 141.749 332.193H426.003L422.317 342.236C420.041 348.33 414.23 352.367 407.736 352.367V352.373Z" fill="white"/>
<path d="M407.735 353H129.337C127.456 353 125.72 352.492 124.322 351.527C121.006 349.245 119.664 345.038 121.062 341.302C124.272 334.556 130.647 331.566 141.749 331.566H426.002C426.209 331.566 426.397 331.666 426.516 331.835C426.635 332.005 426.66 332.218 426.591 332.412L422.905 342.455C420.548 348.762 414.455 353 407.735 353ZM141.749 332.826C131.192 332.826 125.168 335.59 122.216 341.797C121.043 344.944 122.197 348.543 125.036 350.499C126.221 351.314 127.713 351.746 129.337 351.746H407.735C413.935 351.746 419.558 347.841 421.727 342.023L425.106 332.826H141.749Z" fill="black"/>
<path d="M409.316 352.373C414.882 352.373 419.891 348.975 421.947 343.791L471.232 219.867C472.542 216.582 472.134 212.859 470.153 209.925C468.172 206.991 464.869 205.241 461.333 205.241H290.23C279.918 205.241 270.728 211.749 267.286 221.485L221.023 352.367H409.31L409.316 352.373Z" fill="white"/>
<path d="M409.315 353H221.029C220.684 353 220.402 352.718 220.402 352.373C220.402 352.028 220.684 351.746 221.029 351.746H409.315C414.656 351.746 419.389 348.53 421.364 343.559L470.648 219.635C471.883 216.538 471.501 213.04 469.633 210.276C467.765 207.517 464.662 205.868 461.333 205.868H303.694C303.35 205.868 303.067 205.586 303.067 205.241C303.067 204.897 303.35 204.615 303.694 204.615H461.333C465.082 204.615 468.567 206.47 470.673 209.573C472.773 212.677 473.199 216.614 471.814 220.099L422.53 344.022C420.361 349.477 415.17 353 409.315 353Z" fill="black"/>
<path d="M413.32 334.036H243.684C243.339 334.036 243.057 333.753 243.057 333.409C243.057 333.064 243.339 332.782 243.684 332.782H413.32C413.665 332.782 413.947 333.064 413.947 333.409C413.947 333.753 413.665 334.036 413.32 334.036Z" fill="black"/>
<path d="M54.0996 271.275C53.7611 271.275 53.479 270.999 53.4728 270.661C53.4665 270.316 53.7423 270.027 54.0871 270.021L145.321 268.285C145.679 268.278 145.955 268.554 145.961 268.899C145.967 269.244 145.691 269.532 145.347 269.538L54.1122 271.275C54.1122 271.275 54.1059 271.275 54.0996 271.275Z" fill="black"/>
<path d="M84.5663 266.09C84.5036 266.09 84.4472 266.084 84.3845 266.065C84.0522 265.965 83.8642 265.614 83.9645 265.288C87.2869 254.21 91.8693 243.49 97.5863 233.44C98.7648 231.372 100.652 228.638 103.51 228.726C103.855 228.738 104.125 229.027 104.118 229.372C104.106 229.716 103.824 229.986 103.473 229.98C101.297 229.911 99.6989 232.274 98.6833 234.061C93.0165 244.035 88.4717 254.662 85.1743 265.651C85.0928 265.921 84.8421 266.097 84.5725 266.097L84.5663 266.09Z" fill="black"/>
<path d="M161.614 79.4192L145.316 127.159C144.275 130.212 141.686 132.469 138.527 133.083L131.268 134.5C131.268 134.5 150.136 175.538 181.937 168.661C213.738 161.79 206.743 134.5 206.743 134.5L200.016 133.955C195.992 133.629 193.227 129.742 194.236 125.824L201.797 96.4839C201.797 96.4839 170.986 71.6015 161.614 79.4192Z" fill="white"/>
<path d="M174.892 170.053C164.141 170.053 153.654 164.799 144.213 154.587C135.556 145.22 130.742 134.87 130.698 134.763C130.617 134.588 130.623 134.387 130.711 134.218C130.798 134.049 130.961 133.923 131.149 133.886L138.409 132.469C141.342 131.898 143.762 129.786 144.727 126.952L161.026 79.2122C161.064 79.1056 161.126 79.0053 161.22 78.9363C170.874 70.8867 200.92 94.9666 202.199 95.9948C202.387 96.1515 202.474 96.4023 202.412 96.6405L194.852 125.98C194.413 127.673 194.745 129.46 195.761 130.877C196.77 132.293 198.343 133.19 200.074 133.328L206.8 133.873C207.069 133.892 207.289 134.086 207.358 134.343C207.477 134.801 210.166 145.678 204.048 155.571C199.81 162.423 192.419 167.037 182.076 169.269C179.681 169.789 177.287 170.046 174.905 170.046L174.892 170.053ZM132.184 134.964C133.425 137.453 137.932 145.96 145.154 153.759C156.519 166.04 168.849 170.849 181.8 168.053C191.799 165.89 198.926 161.47 202.97 154.919C208.141 146.55 206.649 137.19 206.223 135.089L199.961 134.582C197.861 134.412 195.949 133.328 194.726 131.61C193.498 129.886 193.096 127.723 193.623 125.673L201.083 96.7283C197.842 94.1705 170.68 73.1373 162.148 79.7952L145.906 127.366C144.796 130.62 142.013 133.052 138.64 133.704L132.184 134.964Z" fill="black"/>
<path d="M230.288 20.0623C233.071 33.8357 222.37 46.3239 213.112 48.6247C212.786 48.7062 212.453 48.7815 212.134 48.8504C211.933 49.5338 211.695 50.2171 211.388 50.8879C207.746 58.8686 197.327 62.7555 188.57 61.9593C186.031 64.6801 182.727 68.4667 179.223 73.2564C168.034 88.5469 163.357 130.776 133.963 134.958C102.532 139.428 89.6061 113.411 91.913 95.2988C95.718 65.4763 144.883 41.3023 145.711 40.6315C152.838 34.8513 154.387 33.8608 165.119 26.6387C181.436 15.6551 181.724 7.26688 195.747 2.5211C199.458 1.26727 204.135 -0.249877 209.965 0.822154C218.453 2.38318 228.088 9.18525 230.288 20.0623Z" fill="black"/>
<path d="M172.722 86.8417C172.722 86.8417 180.62 105.11 201.301 101.737C221.981 98.3645 222.508 72.0088 220.658 43.998C218.59 46.6436 213.963 48.6811 210.309 50.2359C195.433 56.574 182.056 48.2674 180.087 47.2016C183.629 51.565 183.636 57.4893 180.652 61.4954C179.003 63.7084 175.9 65.307 170.409 65.4011C170.409 65.4011 167.788 56.6305 159.984 61.721C152.179 66.8116 155.082 88.3024 172.722 86.8417Z" fill="white"/>
<path d="M196.368 102.772C180.715 102.772 173.569 89.9638 172.34 87.4937C164.667 87.9702 158.674 84.0896 156.255 77.043C154.111 70.7926 155.597 63.8276 159.64 61.1882C162.141 59.5582 164.423 59.1006 166.423 59.8341C169.106 60.8183 170.422 63.6395 170.848 64.7554C175.337 64.6049 178.465 63.3824 180.151 61.113C183.091 57.1634 182.865 51.6026 179.599 47.5841C179.411 47.3521 179.411 47.0199 179.599 46.7879C179.787 46.5559 180.12 46.4932 180.383 46.6374C180.489 46.6939 180.621 46.7691 180.784 46.8631C193.553 54.0351 203.753 52.3361 210.065 49.6467C213.275 48.28 218.12 46.2174 220.17 43.5969C220.333 43.39 220.603 43.3085 220.847 43.3837C221.098 43.459 221.273 43.6847 221.286 43.9417C223.029 70.3412 223.066 98.8034 201.402 102.339C199.634 102.628 197.954 102.759 196.368 102.759V102.772ZM172.723 86.2148C172.973 86.2148 173.199 86.359 173.299 86.591C173.613 87.3182 181.261 104.37 201.201 101.117C221.449 97.8128 221.737 70.918 220.133 45.4902C217.851 47.6029 214.177 49.2768 210.56 50.819C204.298 53.4897 194.362 55.2262 181.988 48.9445C184.194 53.1072 183.944 58.1351 181.16 61.8841C179.173 64.5548 175.562 65.9528 170.422 66.0406C170.146 66.0531 169.889 65.865 169.808 65.5955C169.795 65.5579 168.704 62.022 165.99 61.0315C164.379 60.4422 162.48 60.856 160.329 62.2603C156.744 64.5987 155.477 70.9243 157.446 76.6543C159.709 83.2495 165.407 86.8292 172.672 86.2274C172.691 86.2274 172.71 86.2274 172.723 86.2274V86.2148Z" fill="black"/>
<path d="M171.5 79.212C171.236 79.212 170.998 79.049 170.904 78.7857C170.453 77.4629 169.983 76.0899 169.174 74.9615C168.322 73.7766 167.181 73.0494 166.04 72.9679C165.695 72.9428 165.432 72.6419 165.457 72.2971C165.482 71.9523 165.776 71.689 166.127 71.7141C167.645 71.8206 169.13 72.7359 170.196 74.228C171.111 75.5069 171.606 76.9614 172.089 78.3782C172.202 78.7042 172.026 79.0615 171.7 79.1744C171.631 79.1995 171.562 79.2057 171.5 79.2057V79.212Z" fill="black"/>
<path d="M171.175 22.3818C171.175 22.3818 154.5 31.19 166.009 58.2729L158.6 62.2978C158.6 62.2978 141.837 27.6417 171.175 22.3818Z" fill="white"/>
<path d="M158.6 62.9247C158.538 62.9247 158.469 62.9122 158.406 62.8934C158.243 62.8432 158.111 62.7241 158.036 62.5674C157.673 61.8214 149.26 44.136 155.46 31.9737C158.218 26.5572 163.471 23.1217 171.069 21.7612C171.37 21.7048 171.671 21.8804 171.771 22.175C171.871 22.4697 171.746 22.7894 171.47 22.9336C171.432 22.9524 167.402 25.1466 164.806 30.513C161.352 37.6474 161.973 47.1577 166.587 58.0285C166.712 58.3232 166.587 58.668 166.311 58.8247L158.901 62.8495C158.807 62.8997 158.707 62.9247 158.6 62.9247ZM168.467 23.6357C162.794 25.203 158.801 28.1934 156.576 32.5505C151.272 42.9511 157.478 58.2291 158.889 61.4264L165.214 57.9972C156.77 37.6536 164.248 27.4411 168.467 23.6357Z" fill="black"/>
<path d="M187.329 95.4994C184.997 95.4994 182.697 94.6342 180.942 93.0105L169.207 82.1899C168.95 81.9579 168.937 81.5567 169.169 81.3059C169.401 81.0489 169.802 81.0364 170.053 81.2683L181.788 92.0889C183.913 94.0449 186.941 94.7345 189.699 93.8882L207.583 88.4027C207.916 88.3023 208.267 88.4842 208.367 88.8164C208.467 89.1487 208.286 89.4998 207.953 89.6001L190.069 95.0856C189.172 95.3615 188.245 95.4931 187.329 95.4931V95.4994Z" fill="black"/>
<path d="M214.862 87.45C215.319 89.5377 212.511 91.9262 208.593 92.7788C204.675 93.6377 201.133 92.6409 200.676 90.5533C200.218 88.4656 203.027 86.0771 206.944 85.2245C210.862 84.3718 214.404 85.3624 214.862 87.45Z" fill="white"/>
<path d="M205.841 93.7191C204.881 93.7191 203.979 93.6063 203.17 93.3806C201.44 92.8916 200.337 91.9387 200.067 90.6911C199.528 88.2273 202.493 85.5566 206.812 84.6162C208.806 84.1774 210.78 84.1837 212.373 84.6351C214.103 85.124 215.206 86.077 215.476 87.3245C216.015 89.7883 213.05 92.459 208.73 93.3994C207.746 93.6125 206.768 93.7191 205.841 93.7191ZM209.708 85.5441C208.868 85.5441 207.984 85.6444 207.082 85.8387C203.208 86.6851 200.957 88.8918 201.296 90.4215C201.459 91.1801 202.267 91.8195 203.515 92.1706C204.913 92.5656 206.668 92.5656 208.467 92.1706C212.341 91.3243 214.592 89.1175 214.253 87.5878C214.09 86.8293 213.282 86.1898 212.034 85.8387C211.332 85.6444 210.548 85.5441 209.708 85.5441Z" fill="black"/>
<path d="M165.953 91.2177C175.848 91.2177 183.869 83.1818 183.869 73.269C183.869 63.3562 175.848 55.3203 165.953 55.3203C156.058 55.3203 148.037 63.3562 148.037 73.269C148.037 83.1818 156.058 91.2177 165.953 91.2177Z" fill="white"/>
<path d="M165.953 91.8446C155.729 91.8446 147.41 83.5128 147.41 73.269C147.41 63.0251 155.729 54.6934 165.953 54.6934C176.177 54.6934 184.496 63.0251 184.496 73.269C184.496 83.5128 176.177 91.8446 165.953 91.8446ZM165.953 55.9535C156.418 55.9535 148.664 63.721 148.664 73.2752C148.664 82.8295 156.418 90.597 165.953 90.597C175.488 90.597 183.242 82.8295 183.242 73.2752C183.242 63.721 175.488 55.9535 165.953 55.9535Z" fill="black"/>
<path d="M165.953 85.9389C172.936 85.9389 178.596 80.2664 178.596 73.2689C178.596 66.2714 172.936 60.5989 165.953 60.5989C158.969 60.5989 153.309 66.2714 153.309 73.2689C153.309 80.2664 158.969 85.9389 165.953 85.9389Z" fill="white"/>
<path d="M165.952 86.5658C158.637 86.5658 152.682 80.6038 152.682 73.2689C152.682 65.9339 158.637 59.9719 165.952 59.9719C173.268 59.9719 179.223 65.9339 179.223 73.2689C179.223 80.6038 173.268 86.5658 165.952 86.5658ZM165.952 61.2258C159.326 61.2258 153.935 66.6298 153.935 73.2689C153.935 79.9079 159.326 85.312 165.952 85.312C172.578 85.312 177.97 79.9079 177.97 73.2689C177.97 66.6298 172.578 61.2258 165.952 61.2258Z" fill="black"/>
<path d="M494.439 101.004C456.645 101.004 426.01 131.641 426.01 169.438V237.873H493.373V237.86C493.73 237.86 494.088 237.873 494.445 237.873C532.239 237.873 562.874 207.235 562.874 169.438C562.874 131.641 532.239 101.004 494.445 101.004H494.439Z" fill="#061F34"/>
<path d="M503.723 199.768V157.433H485.143V199.768C485.143 202.627 482.823 204.947 479.965 204.947V209.517H508.901V204.947C506.043 204.947 503.723 202.627 503.723 199.768Z" fill="white"/>
<path d="M494.439 149.207C500.221 149.207 504.908 144.52 504.908 138.738C504.908 132.956 500.221 128.268 494.439 128.268C488.658 128.268 483.971 132.956 483.971 138.738C483.971 144.52 488.658 149.207 494.439 149.207Z" fill="white"/>
</g>
<defs>
<clipPath id="clip0_971_43352">
<rect width="562.721" height="352.548" fill="white" transform="translate(0.146484 0.452148)"/>
</clipPath>
</defs>
</svg>
