<svg width="318" height="374" viewBox="0 0 318 374" fill="none" xmlns="http://www.w3.org/2000/svg">
<g filter="url(#filter0_d_971_43760)">
<mask id="path-1-inside-1_971_43760" fill="white">
<path d="M51.6035 62.1338C51.6035 53.8495 58.3192 47.1338 66.6035 47.1338H251.337C259.621 47.1338 266.337 53.8495 266.337 62.1338V303.485C266.337 311.769 259.621 318.485 251.337 318.485H66.6035C58.3193 318.485 51.6035 311.769 51.6035 303.485V62.1338Z"/>
</mask>
<path d="M51.6035 62.1338C51.6035 53.8495 58.3192 47.1338 66.6035 47.1338H251.337C259.621 47.1338 266.337 53.8495 266.337 62.1338V303.485C266.337 311.769 259.621 318.485 251.337 318.485H66.6035C58.3193 318.485 51.6035 311.769 51.6035 303.485V62.1338Z" fill="white" shape-rendering="crispEdges"/>
<path d="M51.6035 47.1338H266.337H51.6035ZM266.337 318.485H51.6035H266.337ZM66.6035 318.485C57.9379 318.485 50.9131 311.46 50.9131 302.795V62.8243C50.9131 54.1586 57.9379 47.1338 66.6035 47.1338C58.7006 47.1338 52.294 53.8495 52.294 62.1338V303.485C52.294 311.769 58.7006 318.485 66.6035 318.485ZM266.337 47.1338V318.485V47.1338Z" fill="#E0E0E0" mask="url(#path-1-inside-1_971_43760)"/>
<path d="M69.4719 77.7051V68.0386H73.4904C74.0427 68.0386 74.5399 68.1721 74.9818 68.4391C75.4329 68.7061 75.7919 69.0697 76.0589 69.53C76.3259 69.9903 76.4594 70.5059 76.4594 71.0767C76.4594 71.6566 76.3259 72.1814 76.0589 72.6509C75.7919 73.1112 75.4329 73.4795 74.9818 73.7556C74.5399 74.0318 74.0427 74.1699 73.4904 74.1699H71.2671V77.7051H69.4719ZM71.2671 72.5128H73.3661C73.5962 72.5128 73.8034 72.4484 73.9875 72.3195C74.1808 72.1906 74.3327 72.0203 74.4432 71.8085C74.5629 71.5968 74.6227 71.3574 74.6227 71.0905C74.6227 70.8235 74.5629 70.5887 74.4432 70.3862C74.3327 70.1745 74.1808 70.0087 73.9875 69.8891C73.8034 69.7602 73.5962 69.6957 73.3661 69.6957H71.2671V72.5128ZM78.3865 77.7051V70.4276H80.085V77.7051H78.3865ZM79.2151 68.881C78.8744 68.881 78.6074 68.7981 78.4141 68.6324C78.23 68.4575 78.1379 68.2135 78.1379 67.9005C78.1379 67.6059 78.2346 67.3666 78.4279 67.1825C78.6213 66.9983 78.8836 66.9063 79.2151 66.9063C79.5649 66.9063 79.8319 66.9937 80.016 67.1686C80.2093 67.3344 80.306 67.5783 80.306 67.9005C80.306 68.1859 80.2093 68.4207 80.016 68.6048C79.8227 68.7889 79.5557 68.881 79.2151 68.881ZM82.3769 80.7431V70.4276H84.0478L84.0755 72.0847L83.7855 71.9604C83.8407 71.6751 83.9972 71.4081 84.255 71.1595C84.5128 70.9017 84.8258 70.6946 85.194 70.5381C85.5715 70.3816 85.9627 70.3033 86.3678 70.3033C87.0122 70.3033 87.583 70.4644 88.0801 70.7867C88.5865 71.1089 88.9823 71.5508 89.2677 72.1123C89.5623 72.6739 89.7096 73.323 89.7096 74.0594C89.7096 74.7867 89.5623 75.4358 89.2677 76.0065C88.9823 76.5681 88.5865 77.0146 88.0801 77.346C87.583 77.6683 87.0214 77.8294 86.3954 77.8294C85.9719 77.8294 85.5623 77.7465 85.1664 77.5808C84.7797 77.4151 84.4483 77.1987 84.1721 76.9318C83.9051 76.6648 83.7394 76.384 83.675 76.0894L84.0893 75.8961V80.7431H82.3769ZM86.0502 76.3242C86.4368 76.3242 86.7821 76.2275 87.0859 76.0342C87.3897 75.8408 87.6244 75.5739 87.7901 75.2332C87.9651 74.8926 88.0525 74.5013 88.0525 74.0594C88.0525 73.6176 87.9697 73.2309 87.804 72.8995C87.6382 72.5588 87.4035 72.2919 87.0997 72.0985C86.7959 71.9052 86.446 71.8085 86.0502 71.8085C85.6451 71.8085 85.2907 71.9052 84.9869 72.0985C84.6923 72.2827 84.4575 72.545 84.2826 72.8857C84.1077 73.2263 84.0202 73.6176 84.0202 74.0594C84.0202 74.5013 84.1077 74.8926 84.2826 75.2332C84.4575 75.5739 84.6923 75.8408 84.9869 76.0342C85.2907 76.2275 85.6451 76.3242 86.0502 76.3242ZM94.7724 77.8432C94.0083 77.8432 93.3317 77.6821 92.7425 77.3598C92.1625 77.0376 91.7068 76.6003 91.3754 76.048C91.0531 75.4864 90.892 74.8466 90.892 74.1285C90.892 73.5577 90.9841 73.0376 91.1682 72.5681C91.3523 72.0985 91.6055 71.6935 91.9277 71.3528C92.2591 71.003 92.6504 70.736 93.1015 70.5519C93.5618 70.3586 94.0636 70.2619 94.6067 70.2619C95.0854 70.2619 95.5319 70.354 95.9462 70.5381C96.3605 70.7222 96.7195 70.9754 97.0233 71.2976C97.3271 71.6106 97.5573 71.9881 97.7138 72.43C97.8795 72.8626 97.9577 73.3368 97.9485 73.8523L97.9347 74.4461H92.0382L91.7206 73.2861H96.5124L96.2914 73.5209V73.2171C96.2638 72.9317 96.1718 72.6831 96.0153 72.4714C95.8587 72.2504 95.6562 72.0801 95.4076 71.9604C95.1683 71.8316 94.9013 71.7671 94.6067 71.7671C94.1556 71.7671 93.7736 71.8546 93.4605 72.0295C93.1567 72.2044 92.9266 72.4576 92.7701 72.789C92.6136 73.1112 92.5353 73.5163 92.5353 74.0042C92.5353 74.4737 92.632 74.8834 92.8253 75.2332C93.0279 75.5831 93.3086 75.8546 93.6677 76.048C94.0359 76.2321 94.464 76.3242 94.9519 76.3242C95.2926 76.3242 95.6056 76.2689 95.891 76.1584C96.1764 76.048 96.4848 75.85 96.8162 75.5646L97.6586 76.7384C97.41 76.9686 97.1246 77.1665 96.8024 77.3322C96.4894 77.4887 96.1579 77.613 95.8081 77.7051C95.4583 77.7971 95.1131 77.8432 94.7724 77.8432ZM99.6048 77.7051V67.4863H101.317V77.7051H99.6048ZM103.644 77.7051V70.4276H105.343V77.7051H103.644ZM104.473 68.881C104.132 68.881 103.865 68.7981 103.672 68.6324C103.488 68.4575 103.396 68.2135 103.396 67.9005C103.396 67.6059 103.493 67.3666 103.686 67.1825C103.879 66.9983 104.142 66.9063 104.473 66.9063C104.823 66.9063 105.09 66.9937 105.274 67.1686C105.467 67.3344 105.564 67.5783 105.564 67.9005C105.564 68.1859 105.467 68.4207 105.274 68.6048C105.081 68.7889 104.814 68.881 104.473 68.881ZM107.635 77.7051V70.4276H109.292L109.32 71.919L109.002 72.0847C109.094 71.7533 109.274 71.4541 109.541 71.1871C109.807 70.9109 110.125 70.69 110.493 70.5243C110.862 70.3586 111.239 70.2757 111.626 70.2757C112.178 70.2757 112.638 70.3862 113.007 70.6071C113.384 70.8281 113.665 71.1595 113.849 71.6014C114.042 72.0433 114.139 72.5957 114.139 73.2585V77.7051H112.44V73.3828C112.44 73.0145 112.39 72.7107 112.289 72.4714C112.187 72.2228 112.031 72.0433 111.819 71.9328C111.607 71.8131 111.35 71.7579 111.046 71.7671C110.797 71.7671 110.567 71.8085 110.355 71.8914C110.153 71.965 109.973 72.0755 109.817 72.2228C109.669 72.3609 109.55 72.522 109.458 72.7061C109.375 72.8903 109.333 73.0928 109.333 73.3137V77.7051H108.491C108.325 77.7051 108.169 77.7051 108.022 77.7051C107.883 77.7051 107.755 77.7051 107.635 77.7051ZM119.599 77.8432C118.835 77.8432 118.158 77.6821 117.569 77.3598C116.989 77.0376 116.533 76.6003 116.202 76.048C115.88 75.4864 115.718 74.8466 115.718 74.1285C115.718 73.5577 115.81 73.0376 115.995 72.5681C116.179 72.0985 116.432 71.6935 116.754 71.3528C117.086 71.003 117.477 70.736 117.928 70.5519C118.388 70.3586 118.89 70.2619 119.433 70.2619C119.912 70.2619 120.358 70.354 120.773 70.5381C121.187 70.7222 121.546 70.9754 121.85 71.2976C122.154 71.6106 122.384 71.9881 122.54 72.43C122.706 72.8626 122.784 73.3368 122.775 73.8523L122.761 74.4461H116.865L116.547 73.2861H121.339L121.118 73.5209V73.2171C121.09 72.9317 120.998 72.6831 120.842 72.4714C120.685 72.2504 120.483 72.0801 120.234 71.9604C119.995 71.8316 119.728 71.7671 119.433 71.7671C118.982 71.7671 118.6 71.8546 118.287 72.0295C117.983 72.2044 117.753 72.4576 117.596 72.789C117.44 73.1112 117.362 73.5163 117.362 74.0042C117.362 74.4737 117.458 74.8834 117.652 75.2332C117.854 75.5831 118.135 75.8546 118.494 76.048C118.862 76.2321 119.29 76.3242 119.778 76.3242C120.119 76.3242 120.432 76.2689 120.717 76.1584C121.003 76.048 121.311 75.85 121.643 75.5646L122.485 76.7384C122.236 76.9686 121.951 77.1665 121.629 77.3322C121.316 77.4887 120.984 77.613 120.634 77.7051C120.285 77.7971 119.939 77.8432 119.599 77.8432ZM131.984 77.8432C131.422 77.8432 130.907 77.7741 130.437 77.636C129.968 77.4887 129.544 77.2724 129.167 76.987C128.79 76.7016 128.453 76.3564 128.159 75.9513L129.333 74.6256C129.784 75.2516 130.226 75.6843 130.658 75.9237C131.091 76.163 131.579 76.2827 132.122 76.2827C132.435 76.2827 132.721 76.2367 132.978 76.1446C133.236 76.0434 133.439 75.9099 133.586 75.7442C133.733 75.5693 133.807 75.3713 133.807 75.1504C133.807 74.9939 133.775 74.8512 133.71 74.7223C133.655 74.5842 133.568 74.4645 133.448 74.3632C133.328 74.2528 133.181 74.1515 133.006 74.0594C132.831 73.9674 132.633 73.8891 132.412 73.8247C132.191 73.7602 131.947 73.7004 131.68 73.6452C131.174 73.5439 130.732 73.4104 130.355 73.2447C129.977 73.0698 129.659 72.858 129.402 72.6095C129.144 72.3517 128.955 72.0663 128.836 71.7533C128.716 71.4311 128.656 71.0674 128.656 70.6624C128.656 70.2573 128.743 69.8845 128.918 69.5438C129.103 69.2032 129.351 68.9086 129.664 68.66C129.977 68.4115 130.341 68.2181 130.755 68.0801C131.169 67.942 131.616 67.8729 132.095 67.8729C132.638 67.8729 133.121 67.9374 133.544 68.0662C133.977 68.1951 134.355 68.3885 134.677 68.6462C135.008 68.8948 135.28 69.1986 135.492 69.5576L134.304 70.7314C134.12 70.446 133.913 70.2113 133.683 70.0272C133.452 69.8338 133.204 69.6911 132.937 69.5991C132.67 69.4978 132.389 69.4472 132.095 69.4472C131.763 69.4472 131.473 69.4932 131.225 69.5853C130.985 69.6773 130.796 69.8108 130.658 69.9857C130.52 70.1514 130.451 70.354 130.451 70.5933C130.451 70.7775 130.493 70.9432 130.576 71.0905C130.658 71.2286 130.773 71.3528 130.921 71.4633C131.077 71.5738 131.275 71.6705 131.515 71.7533C131.754 71.8362 132.025 71.9098 132.329 71.9743C132.836 72.0755 133.291 72.2136 133.696 72.3885C134.101 72.5542 134.447 72.7568 134.732 72.9961C135.017 73.2263 135.234 73.4933 135.381 73.7971C135.528 74.0917 135.602 74.4231 135.602 74.7913C135.602 75.4266 135.45 75.9743 135.146 76.4346C134.852 76.8857 134.433 77.2356 133.89 77.4841C133.347 77.7235 132.711 77.8432 131.984 77.8432ZM138.198 77.7051V68.5772H139.896V77.7051H138.198ZM136.761 72.0019V70.4276H141.484V72.0019H136.761ZM145.596 77.8432C144.998 77.8432 144.455 77.6775 143.967 77.346C143.479 77.0146 143.088 76.5635 142.793 75.9927C142.499 75.422 142.351 74.7729 142.351 74.0456C142.351 73.3184 142.499 72.6693 142.793 72.0985C143.088 71.5278 143.488 71.0813 143.995 70.759C144.501 70.4368 145.072 70.2757 145.707 70.2757C146.075 70.2757 146.411 70.331 146.715 70.4414C147.019 70.5427 147.286 70.69 147.516 70.8833C147.746 71.0767 147.935 71.2976 148.082 71.5462C148.239 71.7947 148.344 72.0617 148.4 72.3471L148.027 72.2504V70.4276H149.739V77.7051H148.013V75.9651L148.413 75.8961C148.349 76.1446 148.229 76.3886 148.054 76.628C147.889 76.8581 147.677 77.0653 147.419 77.2494C147.171 77.4243 146.89 77.567 146.577 77.6775C146.273 77.7879 145.946 77.8432 145.596 77.8432ZM146.066 76.338C146.462 76.338 146.812 76.2413 147.115 76.048C147.419 75.8546 147.654 75.5877 147.82 75.247C147.995 74.8972 148.082 74.4967 148.082 74.0456C148.082 73.6037 147.995 73.2125 147.82 72.8719C147.654 72.5312 147.419 72.2642 147.115 72.0709C146.812 71.8776 146.462 71.7809 146.066 71.7809C145.67 71.7809 145.32 71.8776 145.016 72.0709C144.722 72.2642 144.492 72.5312 144.326 72.8719C144.16 73.2125 144.077 73.6037 144.077 74.0456C144.077 74.4967 144.16 74.8972 144.326 75.247C144.492 75.5877 144.722 75.8546 145.016 76.048C145.32 76.2413 145.67 76.338 146.066 76.338ZM152.634 77.7051V68.5772H154.332V77.7051H152.634ZM151.197 72.0019V70.4276H155.92V72.0019H151.197ZM159.879 77.8432C159.354 77.8432 158.898 77.7281 158.512 77.4979C158.125 77.2586 157.831 76.9226 157.628 76.4899C157.425 76.048 157.324 75.5232 157.324 74.9156V70.4276H159.023V74.5566C159.023 74.9432 159.083 75.2747 159.202 75.5508C159.322 75.8178 159.497 76.025 159.727 76.1723C159.957 76.3196 160.233 76.3932 160.556 76.3932C160.795 76.3932 161.011 76.3564 161.205 76.2827C161.407 76.1999 161.582 76.0894 161.729 75.9513C161.877 75.804 161.992 75.6337 162.075 75.4404C162.157 75.2378 162.199 75.0215 162.199 74.7913V70.4276H163.897V77.7051H162.24L162.213 76.1861L162.516 76.0204C162.406 76.3702 162.217 76.6832 161.95 76.9594C161.692 77.2264 161.384 77.4427 161.025 77.6084C160.666 77.7649 160.284 77.8432 159.879 77.8432ZM168.457 77.8432C167.812 77.8432 167.232 77.7373 166.717 77.5256C166.21 77.3046 165.796 76.9916 165.474 76.5865L166.579 75.6337C166.855 75.9467 167.163 76.1723 167.504 76.3103C167.844 76.4484 168.203 76.5175 168.581 76.5175C168.737 76.5175 168.876 76.4991 168.995 76.4622C169.124 76.4254 169.235 76.3702 169.327 76.2965C169.419 76.2229 169.488 76.14 169.534 76.048C169.589 75.9467 169.617 75.8362 169.617 75.7166C169.617 75.4956 169.534 75.3207 169.368 75.1918C169.276 75.1274 169.129 75.0583 168.926 74.9847C168.733 74.911 168.48 74.8374 168.167 74.7637C167.67 74.6348 167.255 74.4875 166.924 74.3218C166.592 74.1469 166.335 73.9536 166.151 73.7418C165.994 73.5669 165.874 73.369 165.791 73.148C165.718 72.9271 165.681 72.6877 165.681 72.43C165.681 72.1077 165.75 71.8177 165.888 71.56C166.035 71.293 166.233 71.0628 166.482 70.8695C166.731 70.6762 167.021 70.5289 167.352 70.4276C167.683 70.3264 168.029 70.2757 168.388 70.2757C168.756 70.2757 169.11 70.3218 169.451 70.4138C169.801 70.5059 170.123 70.6394 170.418 70.8143C170.721 70.98 170.979 71.1825 171.191 71.4219L170.252 72.4576C170.077 72.2919 169.884 72.1446 169.672 72.0157C169.469 71.8868 169.262 71.7855 169.05 71.7119C168.839 71.629 168.641 71.5876 168.457 71.5876C168.282 71.5876 168.125 71.606 167.987 71.6428C167.849 71.6705 167.734 71.7165 167.642 71.7809C167.55 71.8454 167.476 71.9282 167.421 72.0295C167.375 72.1216 167.352 72.232 167.352 72.3609C167.361 72.4714 167.389 72.5773 167.435 72.6785C167.49 72.7706 167.564 72.8488 167.656 72.9133C167.757 72.9777 167.909 73.0514 168.111 73.1342C168.314 73.2171 168.576 73.2953 168.899 73.369C169.35 73.4887 169.727 73.6222 170.031 73.7695C170.335 73.9167 170.574 74.0871 170.749 74.2804C170.924 74.4461 171.048 74.6394 171.122 74.8604C171.195 75.0813 171.232 75.3253 171.232 75.5923C171.232 76.025 171.108 76.4116 170.859 76.7522C170.62 77.0929 170.289 77.3598 169.865 77.5532C169.451 77.7465 168.981 77.8432 168.457 77.8432Z" fill="#333333"/>
<rect x="68.1738" y="97.2759" width="181.591" height="35.904" rx="4.14276" fill="#F1F3F5"/>
<path d="M87.4728 119.228L85.0093 111.495H86.2797L87.7711 116.334C87.8153 116.451 87.8558 116.591 87.8926 116.753C87.9295 116.908 87.9626 117.066 87.9921 117.228C88.0215 117.39 88.0473 117.541 88.0694 117.681C88.0989 117.821 88.1246 117.935 88.1467 118.024L87.8264 118.013C87.9368 117.622 88.0215 117.321 88.0804 117.107C88.1467 116.893 88.1983 116.731 88.2351 116.621C88.2719 116.503 88.3051 116.404 88.3345 116.323L89.7265 112.832H90.7981L92.1459 116.323C92.2195 116.499 92.2821 116.676 92.3337 116.853C92.3926 117.022 92.4442 117.195 92.4883 117.372C92.5325 117.541 92.5804 117.722 92.632 117.913L92.3447 117.991C92.3816 117.792 92.4073 117.637 92.4221 117.527C92.4442 117.409 92.4626 117.313 92.4773 117.24C92.492 117.166 92.5068 117.096 92.5215 117.03C92.5362 116.956 92.5583 116.864 92.5878 116.753C92.6246 116.643 92.6725 116.492 92.7314 116.3L94.2007 111.495H95.4822L93.0186 119.228H92.1901L90.1463 114.389L90.2457 114.433L88.2793 119.228H87.4728ZM98.6053 119.339C98.1266 119.339 97.6884 119.206 97.2907 118.941C96.9003 118.676 96.5873 118.315 96.3516 117.858C96.116 117.402 95.9981 116.886 95.9981 116.312C95.9981 115.73 96.116 115.214 96.3516 114.765C96.5947 114.308 96.9187 113.951 97.3238 113.693C97.7363 113.436 98.1966 113.307 98.7047 113.307C99.0067 113.307 99.2829 113.351 99.5333 113.439C99.7837 113.528 100.001 113.653 100.185 113.815C100.377 113.969 100.531 114.15 100.649 114.356C100.774 114.562 100.852 114.783 100.881 115.019L100.627 114.931V113.428H101.776V119.228H100.627V117.847L100.892 117.77C100.848 117.969 100.756 118.164 100.616 118.355C100.483 118.539 100.31 118.705 100.097 118.852C99.8905 119 99.6585 119.118 99.4007 119.206C99.1503 119.294 98.8852 119.339 98.6053 119.339ZM98.9036 118.289C99.2497 118.289 99.5554 118.204 99.8205 118.035C100.086 117.866 100.292 117.634 100.439 117.339C100.594 117.037 100.671 116.694 100.671 116.312C100.671 115.936 100.594 115.601 100.439 115.306C100.292 115.012 100.086 114.78 99.8205 114.61C99.5554 114.441 99.2497 114.356 98.9036 114.356C98.5648 114.356 98.2628 114.441 97.9977 114.61C97.7399 114.78 97.5337 115.012 97.3791 115.306C97.2318 115.601 97.1581 115.936 97.1581 116.312C97.1581 116.694 97.2318 117.037 97.3791 117.339C97.5337 117.634 97.7399 117.866 97.9977 118.035C98.2628 118.204 98.5648 118.289 98.9036 118.289ZM103.663 119.228V113.428H104.801V119.228H103.663ZM104.215 112.147C103.972 112.147 103.784 112.084 103.652 111.959C103.519 111.834 103.453 111.657 103.453 111.429C103.453 111.215 103.519 111.042 103.652 110.909C103.792 110.777 103.98 110.711 104.215 110.711C104.458 110.711 104.646 110.773 104.779 110.898C104.911 111.024 104.978 111.2 104.978 111.429C104.978 111.642 104.908 111.815 104.768 111.948C104.635 112.08 104.451 112.147 104.215 112.147ZM107.378 119.228V111.948H108.516V119.228H107.378ZM106.174 114.533V113.428H109.864V114.533H106.174ZM111.198 119.228V113.428H112.336V119.228H111.198ZM111.751 112.147C111.508 112.147 111.32 112.084 111.187 111.959C111.055 111.834 110.989 111.657 110.989 111.429C110.989 111.215 111.055 111.042 111.187 110.909C111.327 110.777 111.515 110.711 111.751 110.711C111.994 110.711 112.182 110.773 112.314 110.898C112.447 111.024 112.513 111.2 112.513 111.429C112.513 111.642 112.443 111.815 112.303 111.948C112.171 112.08 111.986 112.147 111.751 112.147ZM114.196 119.228V113.428H115.334V114.621L115.135 114.754C115.209 114.496 115.352 114.26 115.566 114.047C115.779 113.826 116.033 113.649 116.328 113.517C116.623 113.377 116.925 113.307 117.234 113.307C117.676 113.307 118.044 113.395 118.339 113.572C118.633 113.741 118.854 114.003 119.001 114.356C119.149 114.71 119.222 115.155 119.222 115.693V119.228H118.085V115.77C118.085 115.439 118.04 115.166 117.952 114.953C117.864 114.732 117.727 114.573 117.543 114.478C117.359 114.375 117.131 114.33 116.858 114.345C116.637 114.345 116.435 114.382 116.251 114.456C116.067 114.522 115.904 114.618 115.765 114.743C115.632 114.868 115.525 115.015 115.444 115.185C115.371 115.347 115.334 115.523 115.334 115.715V119.228H114.77C114.675 119.228 114.579 119.228 114.483 119.228C114.387 119.228 114.292 119.228 114.196 119.228ZM123.473 121.769C123.06 121.769 122.648 121.703 122.235 121.57C121.83 121.445 121.502 121.279 121.252 121.073L121.672 120.189C121.819 120.3 121.992 120.395 122.191 120.476C122.39 120.565 122.6 120.631 122.821 120.675C123.042 120.727 123.259 120.753 123.473 120.753C123.878 120.753 124.216 120.686 124.489 120.554C124.761 120.421 124.968 120.226 125.108 119.968C125.248 119.71 125.318 119.39 125.318 119.007V117.891L125.439 117.969C125.402 118.197 125.281 118.418 125.074 118.631C124.876 118.838 124.625 119.007 124.323 119.14C124.021 119.272 123.712 119.339 123.395 119.339C122.843 119.339 122.349 119.21 121.915 118.952C121.488 118.687 121.149 118.33 120.899 117.88C120.648 117.424 120.523 116.904 120.523 116.323C120.523 115.741 120.644 115.225 120.888 114.776C121.138 114.319 121.477 113.962 121.904 113.704C122.338 113.439 122.824 113.307 123.362 113.307C123.583 113.307 123.797 113.336 124.003 113.395C124.209 113.447 124.401 113.524 124.577 113.627C124.754 113.723 124.912 113.83 125.052 113.947C125.192 114.065 125.306 114.19 125.395 114.323C125.483 114.456 125.538 114.581 125.561 114.699L125.318 114.787V113.428H126.455V118.875C126.455 119.339 126.385 119.747 126.245 120.101C126.113 120.462 125.918 120.764 125.66 121.007C125.402 121.257 125.089 121.445 124.721 121.57C124.353 121.703 123.937 121.769 123.473 121.769ZM123.517 118.289C123.878 118.289 124.198 118.204 124.478 118.035C124.758 117.866 124.975 117.634 125.13 117.339C125.284 117.044 125.362 116.706 125.362 116.323C125.362 115.94 125.281 115.601 125.119 115.306C124.964 115.004 124.747 114.769 124.467 114.599C124.194 114.43 123.878 114.345 123.517 114.345C123.163 114.345 122.847 114.433 122.567 114.61C122.294 114.78 122.077 115.015 121.915 115.317C121.76 115.612 121.683 115.947 121.683 116.323C121.683 116.698 121.76 117.037 121.915 117.339C122.077 117.634 122.294 117.866 122.567 118.035C122.847 118.204 123.163 118.289 123.517 118.289Z" fill="#333333"/>
<path d="M227.596 121.894C226.601 121.894 225.751 121.656 225.044 121.181C224.348 120.706 223.812 120.027 223.436 119.143C223.072 118.248 222.889 117.177 222.889 115.928C222.889 114.68 223.072 113.614 223.436 112.73C223.812 111.835 224.348 111.15 225.044 110.675C225.751 110.2 226.601 109.963 227.596 109.963C228.59 109.963 229.44 110.2 230.147 110.675C230.854 111.15 231.39 111.835 231.755 112.73C232.13 113.614 232.318 114.68 232.318 115.928C232.318 117.177 232.13 118.248 231.755 119.143C231.39 120.027 230.854 120.706 230.147 121.181C229.44 121.656 228.59 121.894 227.596 121.894ZM227.596 119.756C228.347 119.756 228.921 119.425 229.319 118.762C229.728 118.099 229.932 117.154 229.932 115.928C229.932 114.68 229.728 113.719 229.319 113.045C228.921 112.371 228.347 112.034 227.596 112.034C226.844 112.034 226.264 112.371 225.856 113.045C225.458 113.719 225.259 114.68 225.259 115.928C225.259 117.154 225.458 118.099 225.856 118.762C226.264 119.425 226.844 119.756 227.596 119.756Z" fill="#CC25FA"/>
<rect x="68.1738" y="140.775" width="181.591" height="35.904" rx="4.14276" fill="#F1F3F5"/>
<path d="M88.213 162.838C87.7932 162.838 87.4029 162.782 87.042 162.672C86.6885 162.561 86.3644 162.396 86.0698 162.175C85.7826 161.946 85.5248 161.667 85.2965 161.335L86.114 160.396C86.4749 160.912 86.821 161.269 87.1525 161.468C87.4839 161.667 87.8779 161.766 88.3345 161.766C88.6144 161.766 88.8685 161.722 89.0968 161.633C89.3251 161.545 89.5056 161.423 89.6381 161.269C89.7707 161.114 89.837 160.937 89.837 160.739C89.837 160.606 89.8149 160.481 89.7707 160.363C89.7265 160.245 89.6565 160.138 89.5608 160.043C89.4724 159.947 89.3546 159.858 89.2073 159.777C89.0673 159.696 88.9016 159.626 88.7101 159.568C88.5187 159.501 88.2977 159.446 88.0473 159.402C87.6496 159.321 87.3034 159.214 87.0089 159.081C86.7143 158.949 86.4675 158.783 86.2687 158.584C86.0698 158.385 85.9225 158.161 85.8268 157.91C85.731 157.653 85.6832 157.365 85.6832 157.049C85.6832 156.739 85.7495 156.452 85.882 156.187C86.022 155.922 86.2098 155.694 86.4454 155.502C86.6885 155.303 86.972 155.152 87.2961 155.049C87.6201 154.939 87.97 154.883 88.3456 154.883C88.7433 154.883 89.1079 154.935 89.4393 155.038C89.7707 155.141 90.0653 155.296 90.3231 155.502C90.5808 155.701 90.7944 155.948 90.9638 156.242L90.1242 157.071C89.9769 156.828 89.8112 156.625 89.6271 156.463C89.443 156.294 89.2404 156.169 89.0195 156.088C88.7985 155.999 88.5628 155.955 88.3124 155.955C88.0252 155.955 87.7748 155.999 87.5612 156.088C87.3476 156.176 87.1782 156.301 87.053 156.463C86.9352 156.618 86.8763 156.802 86.8763 157.016C86.8763 157.17 86.9057 157.314 86.9647 157.446C87.0236 157.572 87.112 157.686 87.2298 157.789C87.355 157.885 87.5207 157.973 87.7269 158.054C87.9331 158.128 88.1799 158.194 88.4671 158.253C88.8722 158.341 89.2331 158.455 89.5497 158.595C89.8664 158.728 90.1353 158.886 90.3562 159.07C90.5772 159.254 90.7429 159.461 90.8533 159.689C90.9712 159.917 91.0301 160.164 91.0301 160.429C91.0301 160.923 90.9159 161.35 90.6876 161.711C90.4593 162.072 90.1353 162.351 89.7155 162.55C89.2957 162.742 88.7948 162.838 88.213 162.838ZM95.0074 162.838C94.4698 162.838 93.9874 162.705 93.5602 162.44C93.1404 162.175 92.8053 161.814 92.5549 161.357C92.3118 160.901 92.1903 160.389 92.1903 159.822C92.1903 159.254 92.3118 158.743 92.5549 158.286C92.8053 157.829 93.1404 157.469 93.5602 157.203C93.9874 156.938 94.4698 156.806 95.0074 156.806C95.523 156.806 95.9906 156.912 96.4104 157.126C96.8376 157.332 97.1616 157.616 97.3826 157.977L96.7529 158.75C96.6351 158.581 96.4841 158.426 96.3 158.286C96.1158 158.146 95.9207 158.036 95.7144 157.955C95.5082 157.874 95.3094 157.833 95.1179 157.833C94.7644 157.833 94.4477 157.921 94.1678 158.098C93.8953 158.268 93.678 158.503 93.516 158.805C93.354 159.107 93.273 159.446 93.273 159.822C93.273 160.197 93.3577 160.536 93.5271 160.838C93.6965 161.133 93.9211 161.368 94.2009 161.545C94.4808 161.722 94.7901 161.81 95.1289 161.81C95.3278 161.81 95.5193 161.777 95.7034 161.711C95.8949 161.644 96.079 161.545 96.2558 161.412C96.4325 161.28 96.5982 161.118 96.7529 160.926L97.3826 161.7C97.1469 162.031 96.8081 162.304 96.3662 162.517C95.9317 162.731 95.4788 162.838 95.0074 162.838ZM98.5664 162.727V154.552H99.7043V158.12L99.5054 158.253C99.5791 157.995 99.7227 157.759 99.9363 157.546C100.15 157.325 100.404 157.148 100.699 157.016C100.993 156.876 101.295 156.806 101.604 156.806C102.046 156.806 102.415 156.894 102.709 157.071C103.004 157.24 103.225 157.502 103.372 157.855C103.519 158.209 103.593 158.654 103.593 159.192V162.727H102.455V159.269C102.455 158.938 102.411 158.665 102.322 158.452C102.234 158.231 102.098 158.072 101.914 157.977C101.73 157.874 101.501 157.829 101.229 157.844C101.008 157.844 100.805 157.881 100.621 157.955C100.437 158.021 100.275 158.117 100.135 158.242C100.003 158.367 99.8958 158.514 99.8147 158.684C99.7411 158.846 99.7043 159.022 99.7043 159.214V162.727H99.1409C99.0451 162.727 98.9494 162.727 98.8536 162.727C98.7579 162.727 98.6621 162.727 98.5664 162.727ZM107.954 162.838C107.357 162.838 106.827 162.712 106.363 162.462C105.906 162.204 105.545 161.854 105.28 161.412C105.022 160.971 104.894 160.462 104.894 159.888C104.894 159.431 104.967 159.015 105.114 158.64C105.262 158.264 105.464 157.94 105.722 157.667C105.987 157.387 106.3 157.174 106.661 157.027C107.029 156.872 107.427 156.795 107.854 156.795C108.23 156.795 108.58 156.868 108.904 157.016C109.228 157.155 109.508 157.351 109.743 157.601C109.986 157.851 110.17 158.15 110.296 158.496C110.428 158.835 110.491 159.207 110.483 159.612L110.472 160.098H105.733L105.479 159.192H109.489L109.324 159.38V159.115C109.301 158.872 109.22 158.654 109.08 158.463C108.941 158.271 108.764 158.12 108.55 158.01C108.337 157.899 108.105 157.844 107.854 157.844C107.457 157.844 107.121 157.921 106.849 158.076C106.576 158.223 106.37 158.444 106.23 158.739C106.09 159.026 106.02 159.383 106.02 159.811C106.02 160.216 106.105 160.569 106.274 160.871C106.444 161.166 106.683 161.394 106.993 161.556C107.302 161.718 107.659 161.799 108.064 161.799C108.351 161.799 108.616 161.751 108.86 161.655C109.11 161.56 109.379 161.387 109.666 161.136L110.24 161.943C110.064 162.119 109.846 162.274 109.589 162.407C109.338 162.539 109.069 162.646 108.782 162.727C108.502 162.801 108.226 162.838 107.954 162.838ZM114.25 162.838C113.72 162.838 113.245 162.709 112.825 162.451C112.412 162.186 112.085 161.829 111.842 161.379C111.599 160.923 111.477 160.403 111.477 159.822C111.477 159.24 111.595 158.724 111.831 158.275C112.074 157.818 112.401 157.461 112.814 157.203C113.226 156.938 113.694 156.806 114.217 156.806C114.504 156.806 114.78 156.854 115.045 156.949C115.318 157.038 115.561 157.163 115.774 157.325C115.988 157.48 116.154 157.653 116.272 157.844C116.397 158.028 116.459 158.216 116.459 158.408L116.128 158.43V154.552H117.266V162.727H116.128V161.346H116.349C116.349 161.523 116.29 161.7 116.172 161.876C116.054 162.046 115.896 162.204 115.697 162.351C115.506 162.499 115.281 162.617 115.023 162.705C114.773 162.793 114.515 162.838 114.25 162.838ZM114.405 161.854C114.751 161.854 115.056 161.766 115.322 161.589C115.587 161.412 115.793 161.173 115.94 160.871C116.095 160.562 116.172 160.212 116.172 159.822C116.172 159.431 116.095 159.085 115.94 158.783C115.793 158.474 115.587 158.231 115.322 158.054C115.056 157.877 114.751 157.789 114.405 157.789C114.058 157.789 113.753 157.877 113.488 158.054C113.223 158.231 113.013 158.474 112.858 158.783C112.711 159.085 112.637 159.431 112.637 159.822C112.637 160.212 112.711 160.562 112.858 160.871C113.013 161.173 113.223 161.412 113.488 161.589C113.753 161.766 114.058 161.854 114.405 161.854ZM121.148 162.838C120.736 162.838 120.375 162.742 120.065 162.55C119.763 162.359 119.528 162.09 119.358 161.744C119.196 161.398 119.115 160.985 119.115 160.507V156.927H120.253V160.197C120.253 160.536 120.305 160.831 120.408 161.081C120.518 161.324 120.673 161.512 120.872 161.644C121.078 161.777 121.325 161.843 121.612 161.843C121.826 161.843 122.021 161.81 122.198 161.744C122.374 161.67 122.525 161.571 122.651 161.446C122.783 161.32 122.886 161.169 122.96 160.993C123.033 160.816 123.07 160.624 123.07 160.418V156.927H124.208V162.727H123.07V161.512L123.269 161.379C123.181 161.652 123.03 161.898 122.816 162.119C122.61 162.34 122.363 162.517 122.076 162.65C121.789 162.775 121.48 162.838 121.148 162.838ZM125.937 162.727V154.552H127.075V162.727H125.937ZM131.397 162.838C130.8 162.838 130.27 162.712 129.806 162.462C129.349 162.204 128.988 161.854 128.723 161.412C128.465 160.971 128.336 160.462 128.336 159.888C128.336 159.431 128.41 159.015 128.557 158.64C128.705 158.264 128.907 157.94 129.165 157.667C129.43 157.387 129.743 157.174 130.104 157.027C130.472 156.872 130.87 156.795 131.297 156.795C131.673 156.795 132.023 156.868 132.347 157.016C132.671 157.155 132.95 157.351 133.186 157.601C133.429 157.851 133.613 158.15 133.739 158.496C133.871 158.835 133.934 159.207 133.926 159.612L133.915 160.098H129.176L128.922 159.192H132.932L132.766 159.38V159.115C132.744 158.872 132.663 158.654 132.523 158.463C132.383 158.271 132.207 158.12 131.993 158.01C131.779 157.899 131.547 157.844 131.297 157.844C130.899 157.844 130.564 157.921 130.292 158.076C130.019 158.223 129.813 158.444 129.673 158.739C129.533 159.026 129.463 159.383 129.463 159.811C129.463 160.216 129.548 160.569 129.717 160.871C129.887 161.166 130.126 161.394 130.435 161.556C130.745 161.718 131.102 161.799 131.507 161.799C131.794 161.799 132.059 161.751 132.302 161.655C132.553 161.56 132.822 161.387 133.109 161.136L133.683 161.943C133.507 162.119 133.289 162.274 133.032 162.407C132.781 162.539 132.512 162.646 132.225 162.727C131.945 162.801 131.669 162.838 131.397 162.838ZM137.693 162.838C137.163 162.838 136.688 162.709 136.268 162.451C135.855 162.186 135.528 161.829 135.284 161.379C135.041 160.923 134.92 160.403 134.92 159.822C134.92 159.24 135.038 158.724 135.273 158.275C135.516 157.818 135.844 157.461 136.257 157.203C136.669 156.938 137.137 156.806 137.66 156.806C137.947 156.806 138.223 156.854 138.488 156.949C138.761 157.038 139.004 157.163 139.217 157.325C139.431 157.48 139.597 157.653 139.714 157.844C139.84 158.028 139.902 158.216 139.902 158.408L139.571 158.43V154.552H140.709V162.727H139.571V161.346H139.792C139.792 161.523 139.733 161.7 139.615 161.876C139.497 162.046 139.339 162.204 139.14 162.351C138.949 162.499 138.724 162.617 138.466 162.705C138.216 162.793 137.958 162.838 137.693 162.838ZM137.847 161.854C138.194 161.854 138.499 161.766 138.764 161.589C139.03 161.412 139.236 161.173 139.383 160.871C139.538 160.562 139.615 160.212 139.615 159.822C139.615 159.431 139.538 159.085 139.383 158.783C139.236 158.474 139.03 158.231 138.764 158.054C138.499 157.877 138.194 157.789 137.847 157.789C137.501 157.789 137.196 157.877 136.931 158.054C136.665 158.231 136.456 158.474 136.301 158.783C136.154 159.085 136.08 159.431 136.08 159.822C136.08 160.212 136.154 160.562 136.301 160.871C136.456 161.173 136.665 161.412 136.931 161.589C137.196 161.766 137.501 161.854 137.847 161.854Z" fill="#333333"/>
<path d="M227.723 164.415V155.003L228.336 156.113L225.917 157.29L225.436 155.086L228.668 153.462H230.176V164.415H227.723ZM225.685 165.227V162.99H232.263V165.227H225.685Z" fill="#0797F6"/>
<rect x="68.1738" y="184.274" width="181.591" height="35.904" rx="4.14276" fill="#F1F3F5"/>
<path d="M85.8268 206.226V198.493H89.1189C89.5608 198.493 89.9659 198.603 90.3341 198.824C90.7097 199.038 91.008 199.333 91.2289 199.708C91.4499 200.076 91.5604 200.492 91.5604 200.956C91.5604 201.376 91.4499 201.767 91.2289 202.127C91.008 202.488 90.7134 202.779 90.3452 203C89.9769 203.214 89.5682 203.321 89.1189 203.321H87.0199V206.226H85.8268ZM90.4225 206.226L88.4561 202.735L89.6823 202.459L91.8697 206.237L90.4225 206.226ZM87.0199 202.172H89.2294C89.443 202.172 89.6344 202.12 89.8038 202.017C89.9732 201.907 90.1058 201.759 90.2015 201.575C90.2973 201.384 90.3452 201.174 90.3452 200.945C90.3452 200.688 90.2826 200.463 90.1574 200.272C90.0395 200.073 89.8701 199.918 89.6492 199.808C89.4356 199.697 89.1925 199.642 88.92 199.642H87.0199V202.172ZM95.8222 206.337C95.2257 206.337 94.6954 206.211 94.2314 205.961C93.7748 205.703 93.4139 205.353 93.1488 204.911C92.891 204.47 92.7621 203.961 92.7621 203.387C92.7621 202.93 92.8358 202.514 92.9831 202.139C93.1304 201.763 93.3329 201.439 93.5907 201.166C93.8558 200.887 94.1688 200.673 94.5297 200.526C94.8979 200.371 95.2956 200.294 95.7228 200.294C96.0984 200.294 96.4483 200.367 96.7723 200.515C97.0964 200.655 97.3762 200.85 97.6119 201.1C97.855 201.351 98.0391 201.649 98.1643 201.995C98.2968 202.334 98.3595 202.706 98.3521 203.111L98.341 203.597H93.6017L93.3476 202.691H97.3578L97.1921 202.879V202.614C97.17 202.371 97.089 202.153 96.9491 201.962C96.8091 201.77 96.6324 201.619 96.4188 201.509C96.2052 201.398 95.9732 201.343 95.7228 201.343C95.3251 201.343 94.99 201.42 94.7175 201.575C94.445 201.722 94.2388 201.943 94.0988 202.238C93.9589 202.525 93.8889 202.882 93.8889 203.31C93.8889 203.715 93.9736 204.068 94.143 204.37C94.3124 204.665 94.5518 204.893 94.8611 205.055C95.1704 205.217 95.5276 205.298 95.9327 205.298C96.2199 205.298 96.4851 205.25 96.7281 205.154C96.9785 205.059 97.2473 204.886 97.5346 204.635L98.109 205.442C97.9323 205.618 97.715 205.773 97.4572 205.906C97.2068 206.038 96.938 206.145 96.6508 206.226C96.3709 206.3 96.0947 206.337 95.8222 206.337ZM99.0032 208.402L98.5723 207.53C98.8596 207.53 99.0953 207.478 99.2794 207.375C99.4709 207.279 99.6145 207.132 99.7102 206.933C99.806 206.742 99.8538 206.502 99.8538 206.215V200.426H100.992V206.491C100.992 206.867 100.907 207.198 100.738 207.485C100.576 207.773 100.344 207.997 100.042 208.159C99.747 208.321 99.4009 208.402 99.0032 208.402ZM100.45 199.145C100.207 199.145 100.02 199.082 99.887 198.957C99.7544 198.832 99.6881 198.655 99.6881 198.427C99.6881 198.213 99.7544 198.04 99.887 197.907C100.027 197.775 100.215 197.709 100.45 197.709C100.693 197.709 100.881 197.771 101.014 197.896C101.146 198.022 101.213 198.198 101.213 198.427C101.213 198.64 101.143 198.813 101.003 198.946C100.87 199.078 100.686 199.145 100.45 199.145ZM105.44 206.337C104.843 206.337 104.313 206.211 103.849 205.961C103.392 205.703 103.032 205.353 102.766 204.911C102.509 204.47 102.38 203.961 102.38 203.387C102.38 202.93 102.453 202.514 102.601 202.139C102.748 201.763 102.951 201.439 103.208 201.166C103.473 200.887 103.787 200.673 104.147 200.526C104.516 200.371 104.913 200.294 105.34 200.294C105.716 200.294 106.066 200.367 106.39 200.515C106.714 200.655 106.994 200.85 107.23 201.1C107.473 201.351 107.657 201.649 107.782 201.995C107.915 202.334 107.977 202.706 107.97 203.111L107.959 203.597H103.219L102.965 202.691H106.976L106.81 202.879V202.614C106.788 202.371 106.707 202.153 106.567 201.962C106.427 201.77 106.25 201.619 106.036 201.509C105.823 201.398 105.591 201.343 105.34 201.343C104.943 201.343 104.608 201.42 104.335 201.575C104.063 201.722 103.856 201.943 103.717 202.238C103.577 202.525 103.507 202.882 103.507 203.31C103.507 203.715 103.591 204.068 103.761 204.37C103.93 204.665 104.169 204.893 104.479 205.055C104.788 205.217 105.145 205.298 105.55 205.298C105.838 205.298 106.103 205.25 106.346 205.154C106.596 205.059 106.865 204.886 107.152 204.635L107.727 205.442C107.55 205.618 107.333 205.773 107.075 205.906C106.825 206.038 106.556 206.145 106.268 206.226C105.989 206.3 105.712 206.337 105.44 206.337ZM111.78 206.337C111.243 206.337 110.76 206.204 110.333 205.939C109.913 205.674 109.578 205.313 109.328 204.856C109.085 204.4 108.963 203.888 108.963 203.321C108.963 202.754 109.085 202.242 109.328 201.785C109.578 201.328 109.913 200.968 110.333 200.702C110.76 200.437 111.243 200.305 111.78 200.305C112.296 200.305 112.764 200.411 113.183 200.625C113.611 200.831 113.935 201.115 114.156 201.476L113.526 202.249C113.408 202.08 113.257 201.925 113.073 201.785C112.889 201.645 112.694 201.535 112.487 201.454C112.281 201.373 112.082 201.332 111.891 201.332C111.537 201.332 111.221 201.42 110.941 201.597C110.668 201.767 110.451 202.002 110.289 202.304C110.127 202.606 110.046 202.945 110.046 203.321C110.046 203.696 110.131 204.035 110.3 204.337C110.469 204.632 110.694 204.867 110.974 205.044C111.254 205.221 111.563 205.309 111.902 205.309C112.101 205.309 112.292 205.276 112.476 205.21C112.668 205.143 112.852 205.044 113.029 204.911C113.206 204.779 113.371 204.617 113.526 204.425L114.156 205.199C113.92 205.53 113.581 205.803 113.139 206.016C112.705 206.23 112.252 206.337 111.78 206.337ZM116.057 206.226V198.946H117.195V206.226H116.057ZM114.853 201.531V200.426H118.543V201.531H114.853ZM122.342 206.337C121.746 206.337 121.216 206.211 120.752 205.961C120.295 205.703 119.934 205.353 119.669 204.911C119.411 204.47 119.282 203.961 119.282 203.387C119.282 202.93 119.356 202.514 119.503 202.139C119.651 201.763 119.853 201.439 120.111 201.166C120.376 200.887 120.689 200.673 121.05 200.526C121.418 200.371 121.816 200.294 122.243 200.294C122.619 200.294 122.968 200.367 123.292 200.515C123.617 200.655 123.896 200.85 124.132 201.1C124.375 201.351 124.559 201.649 124.684 201.995C124.817 202.334 124.88 202.706 124.872 203.111L124.861 203.597H120.122L119.868 202.691H123.878L123.712 202.879V202.614C123.69 202.371 123.609 202.153 123.469 201.962C123.329 201.77 123.153 201.619 122.939 201.509C122.725 201.398 122.493 201.343 122.243 201.343C121.845 201.343 121.51 201.42 121.238 201.575C120.965 201.722 120.759 201.943 120.619 202.238C120.479 202.525 120.409 202.882 120.409 203.31C120.409 203.715 120.494 204.068 120.663 204.37C120.833 204.665 121.072 204.893 121.381 205.055C121.691 205.217 122.048 205.298 122.453 205.298C122.74 205.298 123.005 205.25 123.248 205.154C123.499 205.059 123.768 204.886 124.055 204.635L124.629 205.442C124.452 205.618 124.235 205.773 123.977 205.906C123.727 206.038 123.458 206.145 123.171 206.226C122.891 206.3 122.615 206.337 122.342 206.337ZM128.639 206.337C128.108 206.337 127.633 206.208 127.214 205.95C126.801 205.685 126.473 205.328 126.23 204.878C125.987 204.422 125.866 203.902 125.866 203.321C125.866 202.739 125.984 202.223 126.219 201.774C126.462 201.317 126.79 200.96 127.203 200.702C127.615 200.437 128.083 200.305 128.606 200.305C128.893 200.305 129.169 200.353 129.434 200.448C129.707 200.537 129.95 200.662 130.163 200.824C130.377 200.979 130.543 201.152 130.66 201.343C130.786 201.527 130.848 201.715 130.848 201.907L130.517 201.929V198.051H131.655V206.226H130.517V204.845H130.738C130.738 205.022 130.679 205.199 130.561 205.375C130.443 205.545 130.285 205.703 130.086 205.85C129.894 205.998 129.67 206.116 129.412 206.204C129.162 206.292 128.904 206.337 128.639 206.337ZM128.793 205.353C129.14 205.353 129.445 205.265 129.71 205.088C129.975 204.911 130.182 204.672 130.329 204.37C130.484 204.061 130.561 203.711 130.561 203.321C130.561 202.93 130.484 202.584 130.329 202.282C130.182 201.973 129.975 201.73 129.71 201.553C129.445 201.376 129.14 201.288 128.793 201.288C128.447 201.288 128.142 201.376 127.876 201.553C127.611 201.73 127.401 201.973 127.247 202.282C127.099 202.584 127.026 202.93 127.026 203.321C127.026 203.711 127.099 204.061 127.247 204.37C127.401 204.672 127.611 204.911 127.876 205.088C128.142 205.265 128.447 205.353 128.793 205.353Z" fill="#333333"/>
<path d="M227.596 208.892C226.601 208.892 225.751 208.654 225.044 208.179C224.348 207.704 223.812 207.025 223.436 206.141C223.072 205.246 222.889 204.175 222.889 202.926C222.889 201.678 223.072 200.612 223.436 199.728C223.812 198.833 224.348 198.148 225.044 197.673C225.751 197.198 226.601 196.961 227.596 196.961C228.59 196.961 229.44 197.198 230.147 197.673C230.854 198.148 231.39 198.833 231.755 199.728C232.13 200.612 232.318 201.678 232.318 202.926C232.318 204.175 232.13 205.246 231.755 206.141C231.39 207.025 230.854 207.704 230.147 208.179C229.44 208.654 228.59 208.892 227.596 208.892ZM227.596 206.754C228.347 206.754 228.921 206.423 229.319 205.76C229.728 205.097 229.932 204.152 229.932 202.926C229.932 201.678 229.728 200.717 229.319 200.043C228.921 199.369 228.347 199.032 227.596 199.032C226.844 199.032 226.264 199.369 225.856 200.043C225.458 200.717 225.259 201.678 225.259 202.926C225.259 204.152 225.458 205.097 225.856 205.76C226.264 206.423 226.844 206.754 227.596 206.754Z" fill="#E86F47"/>
<rect x="68.1738" y="227.773" width="181.591" height="35.904" rx="4.14276" fill="#F1F3F5"/>
<path d="M88.213 249.836C87.7932 249.836 87.4029 249.78 87.042 249.67C86.6885 249.559 86.3644 249.394 86.0698 249.173C85.7826 248.944 85.5248 248.665 85.2965 248.333L86.114 247.394C86.4749 247.91 86.821 248.267 87.1525 248.466C87.4839 248.665 87.8779 248.764 88.3345 248.764C88.6144 248.764 88.8685 248.72 89.0968 248.631C89.3251 248.543 89.5056 248.422 89.6381 248.267C89.7707 248.112 89.837 247.935 89.837 247.737C89.837 247.604 89.8149 247.479 89.7707 247.361C89.7265 247.243 89.6565 247.136 89.5608 247.041C89.4724 246.945 89.3546 246.856 89.2073 246.775C89.0673 246.694 88.9016 246.624 88.7101 246.566C88.5187 246.499 88.2977 246.444 88.0473 246.4C87.6496 246.319 87.3034 246.212 87.0089 246.079C86.7143 245.947 86.4675 245.781 86.2687 245.582C86.0698 245.383 85.9225 245.159 85.8268 244.908C85.731 244.651 85.6832 244.363 85.6832 244.047C85.6832 243.737 85.7495 243.45 85.882 243.185C86.022 242.92 86.2098 242.692 86.4454 242.5C86.6885 242.301 86.972 242.15 87.2961 242.047C87.6201 241.937 87.97 241.881 88.3456 241.881C88.7433 241.881 89.1079 241.933 89.4393 242.036C89.7707 242.139 90.0653 242.294 90.3231 242.5C90.5808 242.699 90.7944 242.946 90.9638 243.24L90.1242 244.069C89.9769 243.826 89.8112 243.623 89.6271 243.461C89.443 243.292 89.2404 243.167 89.0195 243.086C88.7985 242.997 88.5628 242.953 88.3124 242.953C88.0252 242.953 87.7748 242.997 87.5612 243.086C87.3476 243.174 87.1782 243.299 87.053 243.461C86.9352 243.616 86.8763 243.8 86.8763 244.014C86.8763 244.168 86.9057 244.312 86.9647 244.444C87.0236 244.57 87.112 244.684 87.2298 244.787C87.355 244.883 87.5207 244.971 87.7269 245.052C87.9331 245.126 88.1799 245.192 88.4671 245.251C88.8722 245.339 89.2331 245.453 89.5497 245.593C89.8664 245.726 90.1353 245.884 90.3562 246.068C90.5772 246.253 90.7429 246.459 90.8533 246.687C90.9712 246.915 91.0301 247.162 91.0301 247.427C91.0301 247.921 90.9159 248.348 90.6876 248.709C90.4593 249.07 90.1353 249.349 89.7155 249.548C89.2957 249.74 88.7948 249.836 88.213 249.836ZM95.2505 249.836C94.6539 249.836 94.1236 249.71 93.6596 249.46C93.203 249.202 92.8421 248.852 92.577 248.41C92.3192 247.969 92.1903 247.46 92.1903 246.886C92.1903 246.429 92.264 246.013 92.4113 245.638C92.5586 245.262 92.7611 244.938 93.0189 244.665C93.284 244.386 93.597 244.172 93.9579 244.025C94.3262 243.87 94.7239 243.793 95.151 243.793C95.5266 243.793 95.8765 243.866 96.2005 244.014C96.5246 244.154 96.8044 244.349 97.0401 244.599C97.2832 244.85 97.4673 245.148 97.5925 245.494C97.7251 245.833 97.7877 246.205 97.7803 246.61L97.7693 247.096H93.0299L92.7758 246.19H96.786L96.6203 246.378V246.113C96.5982 245.87 96.5172 245.652 96.3773 245.461C96.2373 245.269 96.0606 245.118 95.847 245.008C95.6334 244.897 95.4014 244.842 95.151 244.842C94.7533 244.842 94.4182 244.919 94.1457 245.074C93.8732 245.221 93.667 245.442 93.5271 245.737C93.3871 246.024 93.3172 246.381 93.3172 246.809C93.3172 247.214 93.4019 247.567 93.5712 247.869C93.7406 248.164 93.98 248.392 94.2893 248.554C94.5987 248.716 94.9559 248.797 95.3609 248.797C95.6482 248.797 95.9133 248.749 96.1563 248.654C96.4067 248.558 96.6756 248.385 96.9628 248.134L97.5373 248.941C97.3605 249.117 97.1432 249.272 96.8855 249.405C96.6351 249.537 96.3662 249.644 96.079 249.725C95.7991 249.799 95.523 249.836 95.2505 249.836ZM99.1495 249.725V241.55H100.287V249.725H99.1495ZM104.609 249.836C104.013 249.836 103.482 249.71 103.018 249.46C102.562 249.202 102.201 248.852 101.936 248.41C101.678 247.969 101.549 247.46 101.549 246.886C101.549 246.429 101.623 246.013 101.77 245.638C101.917 245.262 102.12 244.938 102.378 244.665C102.643 244.386 102.956 244.172 103.317 244.025C103.685 243.87 104.083 243.793 104.51 243.793C104.885 243.793 105.235 243.866 105.559 244.014C105.883 244.154 106.163 244.349 106.399 244.599C106.642 244.85 106.826 245.148 106.951 245.494C107.084 245.833 107.146 246.205 107.139 246.61L107.128 247.096H102.389L102.135 246.19H106.145L105.979 246.378V246.113C105.957 245.87 105.876 245.652 105.736 245.461C105.596 245.269 105.419 245.118 105.206 245.008C104.992 244.897 104.76 244.842 104.51 244.842C104.112 244.842 103.777 244.919 103.504 245.074C103.232 245.221 103.026 245.442 102.886 245.737C102.746 246.024 102.676 246.381 102.676 246.809C102.676 247.214 102.761 247.567 102.93 247.869C103.099 248.164 103.339 248.392 103.648 248.554C103.957 248.716 104.315 248.797 104.72 248.797C105.007 248.797 105.272 248.749 105.515 248.654C105.766 248.558 106.034 248.385 106.322 248.134L106.896 248.941C106.719 249.117 106.502 249.272 106.244 249.405C105.994 249.537 105.725 249.644 105.438 249.725C105.158 249.799 104.882 249.836 104.609 249.836ZM110.95 249.836C110.412 249.836 109.93 249.703 109.503 249.438C109.083 249.173 108.748 248.812 108.497 248.355C108.254 247.899 108.133 247.387 108.133 246.82C108.133 246.253 108.254 245.741 108.497 245.284C108.748 244.827 109.083 244.467 109.503 244.201C109.93 243.936 110.412 243.804 110.95 243.804C111.465 243.804 111.933 243.91 112.353 244.124C112.78 244.33 113.104 244.614 113.325 244.975L112.695 245.748C112.577 245.579 112.426 245.424 112.242 245.284C112.058 245.144 111.863 245.034 111.657 244.953C111.451 244.872 111.252 244.831 111.06 244.831C110.707 244.831 110.39 244.919 110.11 245.096C109.838 245.266 109.62 245.501 109.458 245.803C109.296 246.105 109.215 246.444 109.215 246.82C109.215 247.195 109.3 247.534 109.469 247.836C109.639 248.131 109.863 248.366 110.143 248.543C110.423 248.72 110.732 248.808 111.071 248.808C111.27 248.808 111.462 248.775 111.646 248.709C111.837 248.642 112.021 248.543 112.198 248.41C112.375 248.278 112.541 248.116 112.695 247.924L113.325 248.698C113.089 249.029 112.75 249.302 112.309 249.515C111.874 249.729 111.421 249.836 110.95 249.836ZM115.227 249.725V242.445H116.365V249.725H115.227ZM114.023 245.03V243.925H117.712V245.03H114.023ZM121.512 249.836C120.915 249.836 120.385 249.71 119.921 249.46C119.464 249.202 119.103 248.852 118.838 248.41C118.58 247.969 118.452 247.46 118.452 246.886C118.452 246.429 118.525 246.013 118.673 245.638C118.82 245.262 119.022 244.938 119.28 244.665C119.545 244.386 119.858 244.172 120.219 244.025C120.587 243.87 120.985 243.793 121.412 243.793C121.788 243.793 122.138 243.866 122.462 244.014C122.786 244.154 123.066 244.349 123.301 244.599C123.544 244.85 123.729 245.148 123.854 245.494C123.986 245.833 124.049 246.205 124.042 246.61L124.03 247.096H119.291L119.037 246.19H123.047L122.882 246.378V246.113C122.859 245.87 122.778 245.652 122.639 245.461C122.499 245.269 122.322 245.118 122.108 245.008C121.895 244.897 121.663 244.842 121.412 244.842C121.015 244.842 120.679 244.919 120.407 245.074C120.134 245.221 119.928 245.442 119.788 245.737C119.648 246.024 119.578 246.381 119.578 246.809C119.578 247.214 119.663 247.567 119.832 247.869C120.002 248.164 120.241 248.392 120.551 248.554C120.86 248.716 121.217 248.797 121.622 248.797C121.909 248.797 122.175 248.749 122.418 248.654C122.668 248.558 122.937 248.385 123.224 248.134L123.799 248.941C123.622 249.117 123.404 249.272 123.147 249.405C122.896 249.537 122.627 249.644 122.34 249.725C122.06 249.799 121.784 249.836 121.512 249.836ZM127.808 249.836C127.278 249.836 126.803 249.707 126.383 249.449C125.97 249.184 125.643 248.827 125.4 248.377C125.157 247.921 125.035 247.401 125.035 246.82C125.035 246.238 125.153 245.722 125.389 245.273C125.632 244.816 125.959 244.459 126.372 244.201C126.784 243.936 127.252 243.804 127.775 243.804C128.062 243.804 128.338 243.852 128.603 243.947C128.876 244.036 129.119 244.161 129.333 244.323C129.546 244.478 129.712 244.651 129.83 244.842C129.955 245.026 130.017 245.214 130.017 245.406L129.686 245.428V241.55H130.824V249.725H129.686V248.344H129.907C129.907 248.521 129.848 248.698 129.73 248.874C129.612 249.044 129.454 249.202 129.255 249.349C129.064 249.497 128.839 249.615 128.581 249.703C128.331 249.791 128.073 249.836 127.808 249.836ZM127.963 248.852C128.309 248.852 128.614 248.764 128.88 248.587C129.145 248.41 129.351 248.171 129.498 247.869C129.653 247.56 129.73 247.21 129.73 246.82C129.73 246.429 129.653 246.083 129.498 245.781C129.351 245.472 129.145 245.229 128.88 245.052C128.614 244.875 128.309 244.787 127.963 244.787C127.617 244.787 127.311 244.875 127.046 245.052C126.781 245.229 126.571 245.472 126.416 245.781C126.269 246.083 126.195 246.429 126.195 246.82C126.195 247.21 126.269 247.56 126.416 247.869C126.571 248.171 126.781 248.41 127.046 248.587C127.311 248.764 127.617 248.852 127.963 248.852Z" fill="#333333"/>
<path d="M227.596 252.391C226.601 252.391 225.751 252.153 225.044 251.678C224.348 251.203 223.812 250.524 223.436 249.64C223.072 248.745 222.889 247.674 222.889 246.425C222.889 245.177 223.072 244.111 223.436 243.227C223.812 242.332 224.348 241.647 225.044 241.172C225.751 240.697 226.601 240.46 227.596 240.46C228.59 240.46 229.44 240.697 230.147 241.172C230.854 241.647 231.39 242.332 231.755 243.227C232.13 244.111 232.318 245.177 232.318 246.425C232.318 247.674 232.13 248.745 231.755 249.64C231.39 250.524 230.854 251.203 230.147 251.678C229.44 252.153 228.59 252.391 227.596 252.391ZM227.596 250.253C228.347 250.253 228.921 249.922 229.319 249.259C229.728 248.596 229.932 247.651 229.932 246.425C229.932 245.177 229.728 244.216 229.319 243.542C228.921 242.868 228.347 242.531 227.596 242.531C226.844 242.531 226.264 242.868 225.856 243.542C225.458 244.216 225.259 245.177 225.259 246.425C225.259 247.651 225.458 248.596 225.856 249.259C226.264 249.922 226.844 250.253 227.596 250.253Z" fill="#839E65"/>
<rect x="68.1738" y="271.272" width="181.591" height="35.904" rx="4.14276" fill="#F1F3F5"/>
<path d="M85.5396 293.224V292.119H86.7879V286.596H85.5396V285.491H89.2294V286.596H87.981V292.119H89.2294V293.224H85.5396ZM90.9256 293.224V287.424H92.0635V288.617L91.8646 288.75C91.9383 288.492 92.0819 288.256 92.2955 288.043C92.509 287.822 92.7631 287.645 93.0577 287.513C93.3523 287.373 93.6543 287.303 93.9636 287.303C94.4055 287.303 94.7737 287.391 95.0683 287.568C95.3629 287.737 95.5839 287.999 95.7312 288.352C95.8785 288.706 95.9521 289.151 95.9521 289.689V293.224H94.8143V289.766C94.8143 289.435 94.7701 289.162 94.6817 288.949C94.5933 288.728 94.4571 288.569 94.2729 288.474C94.0888 288.371 93.8605 288.326 93.588 288.341C93.367 288.341 93.1645 288.378 92.9804 288.452C92.7963 288.518 92.6342 288.614 92.4943 288.739C92.3617 288.864 92.2549 289.011 92.1739 289.181C92.1003 289.343 92.0635 289.52 92.0635 289.711V293.224H91.5C91.4043 293.224 91.3086 293.224 91.2128 293.224C91.1171 293.224 91.0213 293.224 90.9256 293.224ZM97.3963 290.628V289.501H100.578V290.628H97.3963ZM102.352 293.224V285.491H105.5C105.92 285.491 106.299 285.598 106.638 285.811C106.984 286.018 107.26 286.301 107.467 286.662C107.673 287.023 107.776 287.424 107.776 287.866C107.776 288.308 107.673 288.709 107.467 289.07C107.26 289.431 106.984 289.722 106.638 289.943C106.299 290.157 105.92 290.263 105.5 290.263H103.545V293.224H102.352ZM103.545 289.114H105.478C105.677 289.114 105.857 289.059 106.019 288.949C106.181 288.831 106.31 288.68 106.406 288.496C106.509 288.304 106.561 288.094 106.561 287.866C106.561 287.638 106.509 287.432 106.406 287.247C106.31 287.063 106.181 286.916 106.019 286.806C105.857 286.695 105.677 286.64 105.478 286.64H103.545V289.114ZM109.177 293.224V287.424H110.326V289.247L110.215 288.805C110.296 288.525 110.432 288.271 110.624 288.043C110.823 287.815 111.047 287.634 111.298 287.502C111.555 287.369 111.821 287.303 112.093 287.303C112.218 287.303 112.336 287.314 112.447 287.336C112.564 287.358 112.657 287.384 112.723 287.413L112.425 288.651C112.336 288.614 112.237 288.584 112.126 288.562C112.023 288.533 111.92 288.518 111.817 288.518C111.618 288.518 111.427 288.558 111.242 288.639C111.066 288.713 110.907 288.82 110.767 288.96C110.635 289.092 110.528 289.251 110.447 289.435C110.366 289.612 110.326 289.807 110.326 290.02V293.224H109.177ZM116.102 293.335C115.535 293.335 115.026 293.206 114.577 292.948C114.135 292.683 113.785 292.326 113.528 291.876C113.27 291.42 113.141 290.9 113.141 290.319C113.141 289.737 113.27 289.221 113.528 288.772C113.785 288.315 114.135 287.958 114.577 287.7C115.026 287.435 115.535 287.303 116.102 287.303C116.661 287.303 117.162 287.435 117.604 287.7C118.053 287.958 118.407 288.315 118.665 288.772C118.923 289.221 119.051 289.737 119.051 290.319C119.051 290.9 118.923 291.42 118.665 291.876C118.407 292.326 118.053 292.683 117.604 292.948C117.162 293.206 116.661 293.335 116.102 293.335ZM116.102 292.296C116.448 292.296 116.757 292.211 117.03 292.042C117.302 291.865 117.516 291.63 117.67 291.335C117.825 291.033 117.899 290.694 117.891 290.319C117.899 289.936 117.825 289.597 117.67 289.302C117.516 289 117.302 288.765 117.03 288.595C116.757 288.426 116.448 288.341 116.102 288.341C115.756 288.341 115.443 288.43 115.163 288.606C114.89 288.776 114.677 289.011 114.522 289.313C114.367 289.608 114.294 289.943 114.301 290.319C114.294 290.694 114.367 291.033 114.522 291.335C114.677 291.63 114.89 291.865 115.163 292.042C115.443 292.211 115.756 292.296 116.102 292.296ZM122.998 295.765C122.585 295.765 122.173 295.699 121.761 295.566C121.356 295.441 121.028 295.275 120.777 295.069L121.197 294.185C121.344 294.296 121.518 294.391 121.716 294.472C121.915 294.561 122.125 294.627 122.346 294.671C122.567 294.723 122.784 294.749 122.998 294.749C123.403 294.749 123.742 294.682 124.014 294.55C124.287 294.417 124.493 294.222 124.633 293.964C124.773 293.707 124.843 293.386 124.843 293.003V291.887L124.964 291.965C124.928 292.193 124.806 292.414 124.6 292.628C124.401 292.834 124.151 293.003 123.849 293.136C123.547 293.268 123.237 293.335 122.921 293.335C122.368 293.335 121.875 293.206 121.44 292.948C121.013 292.683 120.674 292.326 120.424 291.876C120.173 291.42 120.048 290.9 120.048 290.319C120.048 289.737 120.17 289.221 120.413 288.772C120.663 288.315 121.002 287.958 121.429 287.7C121.864 287.435 122.35 287.303 122.887 287.303C123.108 287.303 123.322 287.332 123.528 287.391C123.734 287.443 123.926 287.52 124.103 287.623C124.279 287.719 124.438 287.826 124.578 287.943C124.718 288.061 124.832 288.187 124.92 288.319C125.009 288.452 125.064 288.577 125.086 288.695L124.843 288.783V287.424H125.981V292.871C125.981 293.335 125.911 293.743 125.771 294.097C125.638 294.458 125.443 294.76 125.185 295.003C124.928 295.253 124.615 295.441 124.246 295.566C123.878 295.699 123.462 295.765 122.998 295.765ZM123.042 292.285C123.403 292.285 123.723 292.2 124.003 292.031C124.283 291.862 124.5 291.63 124.655 291.335C124.81 291.04 124.887 290.702 124.887 290.319C124.887 289.936 124.806 289.597 124.644 289.302C124.489 289 124.272 288.765 123.992 288.595C123.72 288.426 123.403 288.341 123.042 288.341C122.689 288.341 122.372 288.43 122.092 288.606C121.82 288.776 121.602 289.011 121.44 289.313C121.286 289.608 121.208 289.943 121.208 290.319C121.208 290.694 121.286 291.033 121.44 291.335C121.602 291.63 121.82 291.862 122.092 292.031C122.372 292.2 122.689 292.285 123.042 292.285ZM127.687 293.224V287.424H128.835V289.247L128.725 288.805C128.806 288.525 128.942 288.271 129.134 288.043C129.333 287.815 129.557 287.634 129.808 287.502C130.065 287.369 130.331 287.303 130.603 287.303C130.728 287.303 130.846 287.314 130.957 287.336C131.074 287.358 131.166 287.384 131.233 287.413L130.934 288.651C130.846 288.614 130.747 288.584 130.636 288.562C130.533 288.533 130.43 288.518 130.327 288.518C130.128 288.518 129.937 288.558 129.752 288.639C129.576 288.713 129.417 288.82 129.277 288.96C129.145 289.092 129.038 289.251 128.957 289.435C128.876 289.612 128.835 289.807 128.835 290.02V293.224H127.687ZM134.711 293.335C134.115 293.335 133.584 293.209 133.12 292.959C132.664 292.701 132.303 292.351 132.038 291.909C131.78 291.468 131.651 290.959 131.651 290.385C131.651 289.928 131.725 289.512 131.872 289.137C132.019 288.761 132.222 288.437 132.48 288.164C132.745 287.885 133.058 287.671 133.419 287.524C133.787 287.369 134.185 287.292 134.612 287.292C134.987 287.292 135.337 287.365 135.661 287.513C135.985 287.653 136.265 287.848 136.501 288.098C136.744 288.349 136.928 288.647 137.053 288.993C137.186 289.332 137.248 289.704 137.241 290.109L137.23 290.595H132.491L132.237 289.689H136.247L136.081 289.877V289.612C136.059 289.369 135.978 289.151 135.838 288.96C135.698 288.768 135.521 288.617 135.308 288.507C135.094 288.396 134.862 288.341 134.612 288.341C134.214 288.341 133.879 288.419 133.606 288.573C133.334 288.72 133.128 288.941 132.988 289.236C132.848 289.523 132.778 289.88 132.778 290.308C132.778 290.713 132.863 291.066 133.032 291.368C133.201 291.663 133.441 291.891 133.75 292.053C134.059 292.215 134.417 292.296 134.822 292.296C135.109 292.296 135.374 292.248 135.617 292.153C135.867 292.057 136.136 291.884 136.423 291.633L136.998 292.44C136.821 292.617 136.604 292.771 136.346 292.904C136.096 293.036 135.827 293.143 135.54 293.224C135.26 293.298 134.984 293.335 134.711 293.335ZM140.521 293.335C140.035 293.335 139.597 293.25 139.207 293.081C138.816 292.911 138.492 292.661 138.235 292.329L139.008 291.666C139.229 291.924 139.468 292.112 139.726 292.23C139.991 292.34 140.289 292.396 140.621 292.396C140.753 292.396 140.875 292.381 140.985 292.351C141.103 292.315 141.203 292.263 141.284 292.197C141.372 292.13 141.438 292.053 141.482 291.965C141.527 291.869 141.549 291.766 141.549 291.655C141.549 291.464 141.479 291.309 141.339 291.191C141.265 291.14 141.147 291.085 140.985 291.026C140.831 290.959 140.628 290.893 140.378 290.827C139.951 290.716 139.601 290.591 139.328 290.451C139.056 290.311 138.846 290.153 138.699 289.976C138.588 289.836 138.507 289.685 138.456 289.523C138.404 289.354 138.378 289.17 138.378 288.971C138.378 288.728 138.43 288.507 138.533 288.308C138.643 288.102 138.791 287.925 138.975 287.778C139.166 287.623 139.387 287.505 139.638 287.424C139.895 287.343 140.168 287.303 140.455 287.303C140.728 287.303 140.996 287.34 141.262 287.413C141.534 287.487 141.784 287.594 142.013 287.734C142.241 287.874 142.433 288.039 142.587 288.231L141.935 288.949C141.796 288.809 141.641 288.687 141.471 288.584C141.309 288.474 141.144 288.389 140.974 288.33C140.805 288.271 140.65 288.242 140.51 288.242C140.356 288.242 140.216 288.256 140.091 288.286C139.965 288.315 139.859 288.36 139.77 288.419C139.689 288.477 139.627 288.551 139.582 288.639C139.538 288.728 139.516 288.827 139.516 288.938C139.523 289.033 139.546 289.126 139.582 289.214C139.627 289.295 139.685 289.365 139.759 289.424C139.84 289.483 139.962 289.545 140.124 289.612C140.286 289.678 140.492 289.741 140.742 289.799C141.111 289.895 141.413 290.002 141.648 290.12C141.891 290.23 142.083 290.359 142.223 290.506C142.37 290.646 142.473 290.808 142.532 290.993C142.591 291.177 142.62 291.383 142.62 291.611C142.62 291.943 142.525 292.241 142.333 292.506C142.149 292.764 141.899 292.966 141.582 293.114C141.265 293.261 140.912 293.335 140.521 293.335ZM145.918 293.335C145.432 293.335 144.994 293.25 144.604 293.081C144.213 292.911 143.889 292.661 143.631 292.329L144.405 291.666C144.626 291.924 144.865 292.112 145.123 292.23C145.388 292.34 145.686 292.396 146.018 292.396C146.15 292.396 146.272 292.381 146.382 292.351C146.5 292.315 146.599 292.263 146.68 292.197C146.769 292.13 146.835 292.053 146.879 291.965C146.923 291.869 146.946 291.766 146.946 291.655C146.946 291.464 146.876 291.309 146.736 291.191C146.662 291.14 146.544 291.085 146.382 291.026C146.228 290.959 146.025 290.893 145.775 290.827C145.347 290.716 144.998 290.591 144.725 290.451C144.453 290.311 144.243 290.153 144.095 289.976C143.985 289.836 143.904 289.685 143.852 289.523C143.801 289.354 143.775 289.17 143.775 288.971C143.775 288.728 143.827 288.507 143.93 288.308C144.04 288.102 144.187 287.925 144.372 287.778C144.563 287.623 144.784 287.505 145.034 287.424C145.292 287.343 145.565 287.303 145.852 287.303C146.124 287.303 146.393 287.34 146.658 287.413C146.931 287.487 147.181 287.594 147.41 287.734C147.638 287.874 147.829 288.039 147.984 288.231L147.332 288.949C147.192 288.809 147.038 288.687 146.868 288.584C146.706 288.474 146.541 288.389 146.371 288.33C146.202 288.271 146.047 288.242 145.907 288.242C145.752 288.242 145.613 288.256 145.487 288.286C145.362 288.315 145.255 288.36 145.167 288.419C145.086 288.477 145.023 288.551 144.979 288.639C144.935 288.728 144.913 288.827 144.913 288.938C144.92 289.033 144.942 289.126 144.979 289.214C145.023 289.295 145.082 289.365 145.156 289.424C145.237 289.483 145.358 289.545 145.52 289.612C145.683 289.678 145.889 289.741 146.139 289.799C146.507 289.895 146.809 290.002 147.045 290.12C147.288 290.23 147.48 290.359 147.619 290.506C147.767 290.646 147.87 290.808 147.929 290.993C147.988 291.177 148.017 291.383 148.017 291.611C148.017 291.943 147.921 292.241 147.73 292.506C147.546 292.764 147.295 292.966 146.979 293.114C146.662 293.261 146.309 293.335 145.918 293.335Z" fill="#333333"/>
<path d="M227.596 295.89C226.601 295.89 225.751 295.652 225.044 295.177C224.348 294.702 223.812 294.023 223.436 293.139C223.072 292.244 222.889 291.173 222.889 289.924C222.889 288.676 223.072 287.61 223.436 286.726C223.812 285.831 224.348 285.146 225.044 284.671C225.751 284.196 226.601 283.959 227.596 283.959C228.59 283.959 229.44 284.196 230.147 284.671C230.854 285.146 231.39 285.831 231.755 286.726C232.13 287.61 232.318 288.676 232.318 289.924C232.318 291.173 232.13 292.244 231.755 293.139C231.39 294.023 230.854 294.702 230.147 295.177C229.44 295.652 228.59 295.89 227.596 295.89ZM227.596 293.752C228.347 293.752 228.921 293.421 229.319 292.758C229.728 292.095 229.932 291.151 229.932 289.924C229.932 288.676 229.728 287.715 229.319 287.041C228.921 286.367 228.347 286.03 227.596 286.03C226.844 286.03 226.264 286.367 225.856 287.041C225.458 287.715 225.259 288.676 225.259 289.924C225.259 291.151 225.458 292.095 225.856 292.758C226.264 293.421 226.844 293.752 227.596 293.752Z" fill="#F8A10B"/>
</g>
<defs>
<filter id="filter0_d_971_43760" x="0.903515" y="0.433788" width="316.134" height="372.752" filterUnits="userSpaceOnUse" color-interpolation-filters="sRGB">
<feFlood flood-opacity="0" result="BackgroundImageFix"/>
<feColorMatrix in="SourceAlpha" type="matrix" values="0 0 0 0 0 0 0 0 0 0 0 0 0 0 0 0 0 0 127 0" result="hardAlpha"/>
<feOffset dy="4"/>
<feGaussianBlur stdDeviation="25.35"/>
<feComposite in2="hardAlpha" operator="out"/>
<feColorMatrix type="matrix" values="0 0 0 0 0.432692 0 0 0 0 0.432692 0 0 0 0 0.432692 0 0 0 0.2 0"/>
<feBlend mode="normal" in2="BackgroundImageFix" result="effect1_dropShadow_971_43760"/>
<feBlend mode="normal" in="SourceGraphic" in2="effect1_dropShadow_971_43760" result="shape"/>
</filter>
</defs>
</svg>
