<svg width="51" height="50" viewBox="0 0 51 50" fill="none" xmlns="http://www.w3.org/2000/svg">
<g clip-path="url(#clip0_1155_15708)">
<path d="M45.1354 10.5123C48.9669 6.69611 46.2195 -0.0127744 40.7525 1.85459e-05C35.2857 -0.0128721 32.5382 6.69719 36.3698 10.5123C36.0741 10.6708 35.7879 10.8446 35.5123 11.0331C29.407 6.79767 20.7181 6.79777 14.6129 11.0331C14.3373 10.8447 14.0511 10.6708 13.7554 10.5123C17.5866 6.69611 14.8394 -0.0127744 9.37236 1.85459e-05C3.90557 -0.0128721 1.15791 6.69719 4.98965 10.5123C2.05986 12.0823 0.0625 15.1741 0.0625 18.7239V21.8619C0.0625 22.6709 0.718359 23.3268 1.52734 23.3268H6.61934C5.16445 31.0442 9.15195 39.3095 16.0682 42.9922C15.8628 43.7597 15.7526 44.5657 15.7526 45.3971V48.5352C15.7526 49.3442 16.4085 50 17.2175 50H32.9076C33.7166 50 34.3725 49.3442 34.3725 48.5352V45.3972C34.3725 44.5658 34.2623 43.7598 34.0569 42.9923C40.9734 39.3093 44.9605 31.0443 43.5058 23.3269H48.5977C49.4066 23.3269 50.0625 22.671 50.0625 21.862V18.724C50.0625 15.1741 48.0651 12.0823 45.1354 10.5123ZM40.7526 2.92971C42.5404 2.92971 43.9948 4.3842 43.9948 6.17189C43.8168 10.4731 37.6879 10.4718 37.5104 6.17189C37.5104 4.3841 38.9648 2.92971 40.7526 2.92971ZM9.37236 2.92971C11.1601 2.92971 12.6146 4.3842 12.6146 6.17189C12.4364 10.4731 6.30762 10.4718 6.13018 6.17189C6.13018 4.3841 7.58467 2.92971 9.37236 2.92971ZM2.99219 20.3972V18.724C3.34365 10.2577 15.4043 10.2643 15.7526 18.724V20.3972H2.99219ZM31.4427 47.0703H18.6823V45.3972C19.0338 36.9309 31.0944 36.9374 31.4428 45.3972V47.0703H31.4427ZM21.8203 32.845C21.8203 31.0572 23.2748 29.6028 25.0625 29.6028C29.3637 29.781 29.3625 35.9098 25.0625 36.0872C23.2747 36.0872 21.8203 34.6328 21.8203 32.845ZM32.8531 40.3061C31.9982 39.0023 30.8254 37.9251 29.4454 37.1856C33.277 33.3694 30.5295 26.6604 25.0625 26.6733C19.5957 26.6604 16.848 33.3704 20.6798 37.1856C19.2998 37.9251 18.127 39.0024 17.2721 40.3061C11.3955 37.0281 8.15615 29.9491 9.60215 23.3269H17.2176C18.0266 23.3269 18.6824 22.671 18.6824 21.862V18.724C18.6824 16.6175 17.9788 14.6725 16.7947 13.1107C21.6965 10.0067 28.4289 10.0068 33.3306 13.1107C32.1465 14.6725 31.4429 16.6175 31.4429 18.724V21.862C31.4429 22.671 32.0987 23.3269 32.9077 23.3269H40.5231C41.9688 29.9497 38.7298 37.0277 32.8531 40.3061ZM47.1328 20.3972H34.3724V18.724C34.7238 10.2577 46.7845 10.2643 47.1328 18.724V20.3972Z" fill="#1D6C86"/>
</g>
<defs>
<clipPath id="clip0_1155_15708">
<rect width="50" height="50" fill="white" transform="translate(0.0625)"/>
</clipPath>
</defs>
</svg>
