<svg width="218" height="218" viewBox="0 0 218 218" fill="none" xmlns="http://www.w3.org/2000/svg">
<path d="M164.229 133.418C157.378 127.443 156.733 117.654 157.957 109.049C158.161 107.612 158.166 106.076 158.988 104.885C159.811 103.694 161.504 103.002 162.729 103.749C163.746 104.368 164.078 105.664 164.566 106.758C165.215 108.214 166.28 109.476 167.599 110.352C168.466 110.927 169.571 111.341 170.531 110.939C171.848 110.387 172.18 108.684 172.326 107.249C172.597 104.575 172.869 101.901 173.139 99.2267C173.285 97.7919 173.438 96.3276 174.031 95.0147C174.624 93.7019 175.746 92.544 177.151 92.3087C178.556 92.0739 180.158 93.0418 180.295 94.4766C180.352 95.0733 180.168 95.667 180.144 96.2664C180.119 96.8662 180.326 97.5545 180.873 97.7811C181.428 98.0111 182.045 97.666 182.519 97.2928C184.155 96.0047 185.36 94.2479 186.499 92.4941C187.637 90.7407 188.753 88.94 190.266 87.5057C191.779 86.0713 193.771 85.0202 195.837 85.1252C197.903 85.2302 199.955 86.7336 200.256 88.8055C200.559 90.8831 199.158 92.807 197.699 94.3047C195.533 96.5272 193.049 98.4316 190.35 99.9389C189.864 100.211 189.336 100.505 189.106 101.017C188.692 101.94 189.495 102.987 190.405 103.403C191.436 103.874 192.607 103.888 193.711 104.14C194.815 104.392 195.973 105.016 196.282 106.118C196.711 107.647 195.32 109.051 194.006 109.927C191.373 111.682 188.444 112.976 185.386 113.737C184.29 114.009 183.144 114.228 182.213 114.878C181.283 115.527 180.63 116.761 181.035 117.826C181.441 118.893 182.725 119.358 183.851 119.272C184.978 119.186 186.032 118.693 187.127 118.409C189.178 117.878 191.708 118.288 192.787 120.127C193.495 121.336 193.401 122.902 192.837 124.191C192.274 125.48 191.299 126.538 190.281 127.501C186.724 130.865 182.359 133.412 177.617 134.505C172.875 135.597 168.593 135.569 164.229 133.418Z" fill="#F5F5F5"/>
<path d="M167.043 128.244C168.784 124.023 171.076 119.554 173.634 114.961C174.277 113.816 174.914 112.684 175.54 111.568C176.169 110.456 176.791 109.353 177.468 108.312C178.811 106.223 180.262 104.318 181.695 102.552C183.128 100.784 184.553 99.1594 185.896 97.6504C187.243 96.1431 188.525 94.7622 189.746 93.553C192.184 91.1252 194.377 89.4031 195.931 88.2825C196.707 87.7196 197.324 87.3026 197.745 87.0257C197.948 86.8946 198.107 86.7913 198.227 86.7136C198.336 86.6451 198.393 86.6116 198.396 86.6151C198.399 86.619 198.346 86.6602 198.242 86.7362C198.126 86.8191 197.972 86.9293 197.775 87.0699C197.364 87.3612 196.758 87.7917 195.992 88.3663C194.459 89.5112 192.291 91.2498 189.878 93.6871C188.667 94.901 187.397 96.2864 186.06 97.798C184.725 99.3131 183.308 100.94 181.884 102.707C180.459 104.473 179.018 106.375 177.686 108.454C177.015 109.49 176.398 110.584 175.769 111.699C175.143 112.814 174.508 113.946 173.865 115.091C171.31 119.68 169.016 124.135 167.268 128.339" fill="#E0E0E0"/>
<path d="M177.544 108.309C177.526 108.31 177.501 108.087 177.47 107.683C177.438 107.278 177.41 106.692 177.386 105.967C177.337 104.518 177.338 102.513 177.347 100.304C177.357 98.0935 177.329 96.0954 177.258 94.6506C177.225 93.928 177.192 93.3434 177.164 92.9398C177.139 92.5357 177.133 92.3109 177.151 92.3087C177.17 92.3066 177.21 92.527 177.267 92.9289C177.326 93.3304 177.388 93.9145 177.445 94.6376C177.564 96.0845 177.622 98.0909 177.613 100.303C177.598 102.484 177.584 104.456 177.574 105.963C177.574 106.644 177.574 107.218 177.574 107.678C177.572 108.084 177.563 108.309 177.544 108.309Z" fill="#E0E0E0"/>
<path d="M196.349 106.851C196.347 106.869 196.082 106.872 195.604 106.86C195.127 106.851 194.436 106.834 193.582 106.841C191.874 106.842 189.514 106.925 186.915 107.13C184.316 107.34 181.971 107.63 180.282 107.889C179.435 108.013 178.753 108.131 178.282 108.21C177.81 108.291 177.547 108.327 177.543 108.309C177.539 108.291 177.795 108.22 178.262 108.107C178.728 107.997 179.407 107.85 180.252 107.701C181.939 107.394 184.288 107.073 186.895 106.862C189.502 106.656 191.872 106.603 193.585 106.651C194.441 106.669 195.133 106.714 195.61 106.755C196.087 106.8 196.35 106.832 196.349 106.851Z" fill="#E0E0E0"/>
<path d="M167.305 127.93C167.296 127.933 167.262 127.851 167.203 127.691C167.137 127.502 167.056 127.27 166.959 126.991C166.75 126.381 166.472 125.491 166.142 124.387C165.48 122.179 164.662 119.101 163.804 115.692C162.947 112.281 162.158 109.2 161.544 106.981C161.242 105.903 160.993 105.015 160.808 104.356C160.73 104.07 160.665 103.834 160.612 103.64C160.57 103.476 160.552 103.388 160.561 103.385C160.569 103.383 160.604 103.464 160.663 103.624C160.729 103.814 160.809 104.045 160.907 104.324C161.115 104.934 161.394 105.824 161.724 106.928C162.386 109.136 163.204 112.214 164.061 115.625C164.919 119.034 165.707 122.115 166.322 124.334C166.624 125.413 166.873 126.3 167.057 126.959C167.136 127.245 167.201 127.481 167.253 127.675C167.296 127.839 167.314 127.927 167.305 127.93Z" fill="#E0E0E0"/>
<path d="M192.654 122.674C192.655 122.684 192.568 122.709 192.4 122.749C192.202 122.792 191.958 122.845 191.663 122.911C190.983 123.053 190.065 123.245 188.948 123.478C186.656 123.957 183.498 124.656 180.009 125.433C176.519 126.211 173.351 126.881 171.048 127.313C169.897 127.53 168.964 127.695 168.316 127.796C168.017 127.842 167.771 127.879 167.57 127.909C167.399 127.931 167.308 127.939 167.307 127.93C167.305 127.921 167.393 127.895 167.561 127.855C167.758 127.812 168.002 127.759 168.297 127.694C168.978 127.551 169.895 127.36 171.012 127.126C173.304 126.647 176.463 125.948 179.953 125.171C183.442 124.393 186.61 123.723 188.912 123.291C190.064 123.075 190.997 122.909 191.645 122.808C191.944 122.763 192.19 122.725 192.391 122.695C192.562 122.673 192.652 122.665 192.654 122.674Z" fill="#E0E0E0"/>
<path d="M21.3792 59.2132C21.3792 59.2132 18.6741 60.3091 21.7941 66.0522C24.9145 71.7953 27.0464 74.6237 27.0464 74.6237C27.0464 74.6237 27.6079 75.9613 26.4761 76.2004C25.3442 76.44 22.8292 76.1054 22.3587 77.5102C21.8705 78.9672 22.9542 80.3017 25.1111 81.4414C27.2681 82.5807 31.9019 85.2506 32.3199 85.4937C32.7305 85.7324 33.1519 86.3504 32.4067 86.6373C31.6615 86.9241 26.0438 87.6576 26.5516 90.3028C27.0594 92.9476 33.5898 95.135 34.2989 95.3876C35.0081 95.6406 35.1839 95.9335 35.1365 96.3207C35.0892 96.7078 33.1775 96.7764 31.5886 97.0506C29.9993 97.3249 28.2043 97.9213 28.6252 99.4229C29.0462 100.925 32.9605 104 42.2889 104.671L46.6319 104.699L48.8983 100.972C53.2626 92.6998 52.7222 87.7509 51.6702 86.5999C50.6186 85.4485 49.163 86.6563 48.0897 87.8603C47.0164 89.0642 45.9471 90.65 45.5938 90.4855C45.2405 90.321 45.0843 90.0168 45.2448 89.2812C45.4054 88.5455 47.003 81.8468 45.0265 80.017C43.0505 78.1873 39.4561 82.5672 38.819 83.0476C38.1819 83.5281 37.8799 82.8437 37.8946 82.3689C37.9094 81.8854 38.0943 76.5407 38.2679 74.1077C38.4415 71.6747 37.882 70.0489 36.3873 69.6926C34.946 69.3489 33.9001 71.6603 33.098 72.4945C32.296 73.3286 31.4584 72.1443 31.4584 72.1443C31.4584 72.1443 30.1855 68.8393 26.9613 63.1535C23.7371 57.4677 21.3258 59.2393 21.3258 59.2393" fill="#EBEBEB"/>
<path d="M46.8827 105.714C44.5312 101.529 40.4768 94.0205 36.9627 87.5925C33.4495 81.1667 30.2635 75.3515 27.9334 71.1552C26.7681 69.0616 25.8245 67.3659 25.1688 66.1885C24.845 65.6056 24.5924 65.1512 24.418 64.8374C24.3355 64.686 24.2717 64.5688 24.2257 64.4846C24.1832 64.4047 24.1641 64.3622 24.1641 64.3622C24.1641 64.3622 24.191 64.4004 24.2374 64.4781C24.286 64.5606 24.3537 64.676 24.4414 64.8244C24.6211 65.1356 24.881 65.5857 25.2143 66.1633C25.884 67.3264 26.8414 69.0169 28.0162 71.1096C30.3677 75.2947 33.5675 81.1029 37.0803 87.5287C40.5949 93.9567 44.6354 101.472 46.9656 105.668" fill="#E0E0E0"/>
<path d="M25.8575 78.12C25.8605 78.1113 25.969 78.1391 26.1622 78.1964C26.3562 78.2532 26.6335 78.3435 26.9759 78.4581C27.6595 78.689 28.596 79.0318 29.622 79.4294C30.6328 79.8248 31.5464 80.1824 32.2455 80.4558C32.5615 80.5769 32.828 80.6793 33.0419 80.7618C33.2303 80.8334 33.3336 80.8768 33.3305 80.8859C33.3275 80.895 33.219 80.8681 33.025 80.8117C32.8314 80.7544 32.5532 80.6641 32.2126 80.5456C31.5312 80.3078 30.5994 79.9528 29.5734 79.5557C28.5604 79.1677 27.6447 78.817 26.9438 78.5484C26.6274 78.4286 26.3601 78.3275 26.1452 78.2463C25.9573 78.1734 25.8544 78.1291 25.8575 78.12Z" fill="#E0E0E0"/>
<path d="M33.6206 80.6007C33.5854 80.589 34.2073 78.6278 35.0098 76.2208C35.8127 73.813 36.4919 71.8713 36.5275 71.883C36.5626 71.8947 35.9407 73.8555 35.1378 76.2634C34.3354 78.6703 33.6557 80.6125 33.6206 80.6007Z" fill="#E0E0E0"/>
<path d="M38.5709 90.7138C38.5635 90.7082 38.6243 90.6114 38.7402 90.4413C38.873 90.249 39.0392 90.0094 39.2362 89.7247C39.6537 89.1193 40.2275 88.2804 40.826 87.3316C41.4271 86.3838 41.9409 85.5075 42.3081 84.87C42.4813 84.5701 42.6271 84.3175 42.7438 84.1153C42.8476 83.9373 42.9092 83.841 42.9174 83.8453C42.9257 83.8497 42.8801 83.9543 42.7903 84.14C42.7004 84.3253 42.5655 84.5914 42.3919 84.9164C42.0455 85.567 41.5429 86.4537 40.9401 87.4041C40.3399 88.3555 39.7523 89.1883 39.3139 89.7807C39.0935 90.0763 38.9125 90.3132 38.7827 90.4729C38.6534 90.6331 38.5787 90.719 38.5709 90.7138Z" fill="#E0E0E0"/>
<path d="M31.0566 90.0155C31.0575 90.0064 31.163 90.0059 31.3531 90.0129C31.5718 90.0246 31.8409 90.0389 32.1577 90.0559C32.8369 90.098 33.7739 90.1652 34.8086 90.2481C35.8432 90.331 36.7798 90.4135 37.4568 90.4799C37.7728 90.5137 38.0401 90.5424 38.258 90.5654C38.4468 90.5888 38.551 90.6057 38.5505 90.6153C38.5497 90.6244 38.4442 90.6248 38.2541 90.6179C38.0354 90.6062 37.7663 90.5918 37.4495 90.5749C36.7703 90.5328 35.8332 90.4656 34.7982 90.3827C33.7635 90.2998 32.8274 90.2173 32.1503 90.1509C31.8348 90.117 31.567 90.0884 31.3492 90.0654C31.1599 90.042 31.0558 90.0246 31.0566 90.0155Z" fill="#E0E0E0"/>
<path d="M34.293 99.4988C34.2938 99.4897 34.4288 99.4902 34.6723 99.4993C34.9409 99.5127 35.2877 99.5297 35.7039 99.5505C36.5745 99.5995 37.7763 99.6768 39.1034 99.7701C40.4306 99.8634 41.6319 99.9558 42.5008 100.029C42.9157 100.067 43.2611 100.099 43.5294 100.123C43.772 100.148 43.9056 100.166 43.9052 100.176C43.9043 100.185 43.7694 100.185 43.5259 100.175C43.2572 100.162 42.9105 100.145 42.4943 100.124C41.6237 100.075 40.4215 99.9979 39.0943 99.9046C37.7676 99.8113 36.5667 99.7189 35.6978 99.6455C35.2829 99.6078 34.9375 99.5761 34.6692 99.5518C34.4262 99.5262 34.2921 99.508 34.293 99.4988Z" fill="#E0E0E0"/>
<path d="M43.6803 100.095C43.6724 100.089 43.7462 99.9649 43.886 99.744C44.0396 99.5036 44.2401 99.1903 44.4818 98.8127C44.984 98.0258 45.6736 96.9365 46.401 95.7122C47.1301 94.4887 47.7612 93.3642 48.2121 92.547C48.4291 92.1547 48.6092 91.8287 48.7468 91.5792C48.8739 91.3513 48.9486 91.2268 48.9568 91.2311C48.9651 91.2355 48.9065 91.3678 48.7936 91.6035C48.6808 91.8392 48.512 92.1777 48.2963 92.5921C47.8662 93.422 47.2477 94.556 46.5169 95.7816C45.7886 97.0077 45.0851 98.0914 44.5617 98.8656C44.2991 99.2523 44.0834 99.5626 43.9298 99.774C43.7762 99.9853 43.6876 100.1 43.6803 100.095Z" fill="#E0E0E0"/>
<path d="M168.161 150.551L163.398 175.068L199.773 182.134L204.535 157.617L168.161 150.551Z" fill="#EBEBEB"/>
<path d="M204.579 157.937C204.585 157.947 204.447 158.037 204.178 158.198C203.879 158.372 203.485 158.601 202.993 158.888C201.924 159.493 200.432 160.339 198.6 161.376C194.845 163.465 189.706 166.325 184.013 169.493L183.893 169.56L183.803 169.455C183.735 169.375 183.661 169.289 183.587 169.201C179.329 164.169 175.476 159.615 172.658 156.286C171.29 154.643 170.174 153.305 169.376 152.347C169.011 151.897 168.718 151.537 168.497 151.265C168.298 151.015 168.198 150.88 168.208 150.873C168.216 150.865 168.333 150.985 168.548 151.221C168.782 151.483 169.09 151.829 169.476 152.262C170.294 153.203 171.437 154.518 172.84 156.131C175.676 159.445 179.556 163.976 183.844 168.984C183.918 169.07 183.992 169.157 184.06 169.237L183.851 169.199C189.563 166.066 194.719 163.236 198.486 161.169C200.34 160.171 201.85 159.357 202.93 158.775C203.435 158.51 203.839 158.299 204.145 158.139C204.424 157.997 204.574 157.927 204.579 157.937Z" fill="#E0E0E0"/>
<path d="M163.446 175.389C163.388 175.316 166.776 172.487 171.012 169.07C175.25 165.652 178.732 162.94 178.791 163.013C178.849 163.085 175.462 165.913 171.224 169.332C166.987 172.749 163.505 175.461 163.446 175.389Z" fill="#E0E0E0"/>
<path d="M190.94 165.055C191.023 165.012 193.078 168.873 195.529 173.677C197.981 178.483 199.901 182.412 199.818 182.454C199.736 182.496 197.681 178.636 195.229 173.83C192.778 169.026 190.857 165.097 190.94 165.055Z" fill="#E0E0E0"/>
<path d="M188.697 43.7867C188.697 43.801 188.483 43.8145 188.076 43.8279C187.63 43.8375 187.038 43.85 186.295 43.8661C184.705 43.8817 182.478 43.9039 179.744 43.9308C174.176 43.946 166.553 43.9672 158.132 43.9907C157.604 43.9907 157.079 43.9907 156.591 43.9902H156.387L156.387 43.7867C156.412 35.7138 156.434 28.4747 156.45 23.2034C156.477 20.6185 156.498 18.5183 156.514 17.0189C156.53 16.3206 156.542 15.7633 156.551 15.3428C156.564 14.96 156.577 14.7595 156.591 14.7595C156.605 14.7595 156.618 14.96 156.631 15.3428C156.64 15.7633 156.653 16.3206 156.668 17.0189C156.684 18.5183 156.705 20.618 156.732 23.2034C156.748 28.4747 156.77 35.7138 156.795 43.7867L156.592 43.5831C157.08 43.5831 157.605 43.5831 158.132 43.5827C166.553 43.6061 174.176 43.627 179.744 43.6426C182.478 43.6695 184.706 43.6916 186.295 43.7073C187.038 43.7233 187.631 43.7359 188.076 43.7455C188.483 43.7589 188.697 43.7728 188.697 43.7867Z" fill="#E0E0E0"/>
<path d="M185.129 21.802C185.148 21.8237 184.806 22.1483 184.171 22.7169C183.479 23.3245 182.565 24.1265 181.461 25.0965C179.161 27.092 175.965 29.8275 172.419 32.8295L171.882 33.2839L171.744 33.4006L171.612 33.2778C170.194 31.9606 168.841 30.7029 167.59 29.5406L167.841 29.5463C165.473 31.4993 163.439 33.1763 161.935 34.4175C161.24 34.973 160.668 35.43 160.221 35.7885C159.818 36.1019 159.595 36.2629 159.581 36.2464C159.567 36.2299 159.764 36.0372 160.141 35.6939C160.571 35.3141 161.119 34.8294 161.785 34.24C163.266 32.9701 165.267 31.2541 167.597 29.2559L167.723 29.1474L167.848 29.262C169.104 30.4178 170.464 31.6685 171.888 32.9784L171.618 32.9727L172.155 32.5179C175.701 29.5159 178.926 26.8156 181.274 24.876C182.413 23.9464 183.355 23.1778 184.068 22.5953C184.735 22.0646 185.111 21.7807 185.129 21.802Z" fill="#E0E0E0"/>
<path d="M185.13 28.5285C185.075 28.5285 185.026 27.7664 184.989 26.5252C184.952 25.2835 184.928 23.5627 184.926 21.6449L185.129 21.8484C185.019 21.8484 184.901 21.8488 184.783 21.8488C182.785 21.8488 180.977 21.8258 179.669 21.789C178.36 21.7521 177.551 21.7013 177.551 21.6449C177.551 21.5884 178.36 21.5377 179.669 21.5008C180.977 21.4639 182.785 21.4409 184.783 21.4409C184.901 21.4409 185.019 21.4409 185.129 21.4409H185.333V21.6444C185.331 23.5623 185.307 25.2835 185.27 26.5248C185.234 27.7669 185.184 28.5285 185.13 28.5285Z" fill="#E0E0E0"/>
<path d="M20.0422 150.785C20.6619 150.411 21.322 150.126 22.0026 149.933L22.4062 147.993L25.6846 147.935L26.1564 149.86C26.8434 150.029 27.5131 150.29 28.1454 150.642L29.8024 149.556L32.1612 151.834L31.1343 153.527C31.5089 154.147 31.7932 154.807 31.9863 155.488L33.9267 155.892L33.9844 159.17L32.0596 159.642C31.8904 160.329 31.6295 160.998 31.2771 161.631L32.363 163.288L30.0858 165.647L28.3919 164.619C27.7722 164.994 27.112 165.278 26.4311 165.471L26.027 167.412L22.7486 167.469L22.2768 165.545C21.5898 165.375 20.9206 165.114 20.2878 164.762L18.6308 165.848L16.272 163.571L17.2989 161.877C16.9243 161.257 16.6401 160.597 16.4469 159.916L14.5065 159.512L14.4492 156.234L16.374 155.762C16.5433 155.075 16.8041 154.405 17.1565 153.773L16.0706 152.116L18.3478 149.757L20.0422 150.785ZM21.7899 155.152C20.4406 156.55 20.4796 158.777 21.8771 160.126C23.2746 161.475 25.5015 161.436 26.8508 160.038C28.2001 158.641 28.161 156.414 26.7635 155.065C25.3656 153.716 23.1392 153.755 21.7899 155.152Z" fill="#E0E0E0"/>
<path d="M21.7897 155.152C21.7897 155.152 21.9738 154.893 22.4447 154.578C22.9069 154.27 23.715 153.927 24.7392 154.035C25.2435 154.092 25.7956 154.257 26.299 154.589C26.7968 154.922 27.2668 155.396 27.5602 156.01C27.7147 156.312 27.8219 156.648 27.8801 156.998C27.9434 157.347 27.9521 157.715 27.9 158.081C27.8111 158.815 27.4634 159.539 26.9235 160.109C26.3741 160.669 25.6623 161.041 24.931 161.156C24.5673 161.222 24.1997 161.226 23.8478 161.175C23.4958 161.129 23.1568 161.034 22.8496 160.889C22.225 160.618 21.7351 160.165 21.3848 159.679C21.0346 159.187 20.851 158.641 20.7764 158.139C20.6323 157.119 20.9465 156.3 21.2381 155.827C21.5367 155.346 21.7897 155.152 21.7897 155.152C21.8088 155.168 21.5775 155.383 21.3063 155.866C21.0415 156.34 20.7612 157.141 20.9174 158.117C20.9977 158.598 21.1813 159.117 21.5211 159.581C21.8609 160.04 22.3309 160.467 22.9251 160.719C23.2172 160.854 23.5388 160.942 23.8725 160.983C24.2054 161.03 24.5535 161.024 24.8972 160.961C25.5885 160.85 26.2582 160.497 26.7781 159.968C27.2881 159.43 27.6171 158.748 27.7039 158.054C27.7551 157.708 27.7481 157.36 27.69 157.029C27.637 156.697 27.5376 156.379 27.3931 156.092C27.1201 155.507 26.677 155.052 26.207 154.728C25.7313 154.405 25.2062 154.24 24.7227 154.176C23.741 154.054 22.9507 154.362 22.4859 154.644C22.0128 154.932 21.8062 155.171 21.7897 155.152Z" fill="#E0E0E0"/>
<path d="M20.0428 150.785C20.0428 150.788 20.0064 150.769 19.9335 150.727C19.8536 150.681 19.7468 150.62 19.6084 150.539C19.3124 150.365 18.8858 150.112 18.3316 149.786L18.3715 149.78C17.7921 150.388 17.03 151.187 16.1077 152.152L16.1138 152.089C16.445 152.59 16.813 153.146 17.2066 153.741L17.2262 153.771L17.2088 153.803C16.8868 154.386 16.6164 155.05 16.4389 155.779L16.4293 155.817L16.3903 155.827C15.7909 155.976 15.1417 156.137 14.4668 156.304L14.5215 156.233C14.5419 157.266 14.5636 158.361 14.5866 159.511L14.5236 159.435C15.1243 159.559 15.7862 159.695 16.4645 159.835L16.514 159.845L16.5279 159.894C16.708 160.527 16.9896 161.2 17.3742 161.832L17.4015 161.877L17.3742 161.922C17.0565 162.448 16.7062 163.027 16.3495 163.617L16.3352 163.506C17.0769 164.22 17.8767 164.991 18.6966 165.781L18.5798 165.77C19.0954 165.431 19.6618 165.059 20.2355 164.682L20.2841 164.65L20.3349 164.679C20.9134 165.001 21.5887 165.276 22.3005 165.45L22.3578 165.464L22.3717 165.522C22.5197 166.124 22.6815 166.782 22.8447 167.446L22.7471 167.371C23.7852 167.353 24.8975 167.333 26.0255 167.312L25.9292 167.392C26.0563 166.779 26.1939 166.118 26.3324 165.452L26.3449 165.392L26.4035 165.375C27.0493 165.193 27.7177 164.91 28.3379 164.535L28.3396 164.534L28.3925 164.503L28.4442 164.534C29.0132 164.879 29.5782 165.222 30.1381 165.561L30.0135 165.578C30.7835 164.781 31.543 163.994 32.2912 163.219L32.2795 163.343C31.914 162.785 31.5525 162.233 31.1945 161.686L31.1615 161.635L31.1905 161.583C31.5386 160.96 31.7977 160.296 31.9648 159.619L31.9791 159.562L32.0364 159.548C32.6874 159.389 33.3284 159.232 33.9616 159.077L33.8883 159.173C33.8696 158.053 33.8518 156.96 33.834 155.895L33.9078 155.984C33.2499 155.845 32.6032 155.71 31.9683 155.577L31.9145 155.566L31.8997 155.513C31.7031 154.818 31.4167 154.165 31.0599 153.574L31.0326 153.528L31.0599 153.483C31.4128 152.903 31.7556 152.34 32.0898 151.791L32.1032 151.895C31.2752 151.092 30.4935 150.334 29.7492 149.612L29.8451 149.622C29.2614 150.002 28.7137 150.359 28.1855 150.703L28.1486 150.727L28.1104 150.706C27.4503 150.337 26.7881 150.087 26.1405 149.924L26.1015 149.914L26.0923 149.876C25.9231 149.176 25.7708 148.545 25.6267 147.95L25.6857 147.995C24.4154 148.012 23.3334 148.026 22.4073 148.038L22.4507 148.002C22.2844 148.776 22.1482 149.411 22.0344 149.94L22.0301 149.959L22.0114 149.964C21.3175 150.158 20.8297 150.384 20.5124 150.541C20.3609 150.62 20.2446 150.681 20.16 150.726C20.0806 150.769 20.0428 150.788 20.0428 150.785C20.0428 150.782 20.0801 150.757 20.1522 150.711C20.2273 150.665 20.3405 150.595 20.4977 150.512C20.8114 150.345 21.298 150.107 21.9945 149.902L21.972 149.927C22.0787 149.397 22.2067 148.76 22.363 147.984L22.3699 147.949L22.4064 147.948C23.3325 147.928 24.4145 147.904 25.6844 147.876L25.7317 147.875L25.7434 147.922C25.8914 148.516 26.0476 149.146 26.2217 149.845L26.1731 149.796C26.8323 149.957 27.5072 150.207 28.1816 150.58L28.1065 150.582C28.633 150.236 29.179 149.876 29.761 149.492L29.8122 149.458L29.8569 149.501C30.6042 150.22 31.3889 150.974 32.2204 151.774L32.2686 151.821L32.2339 151.878C31.9014 152.429 31.5612 152.992 31.2096 153.574V153.483C31.5759 154.087 31.8711 154.754 32.0737 155.464L32.0052 155.401C32.6405 155.532 33.2872 155.666 33.946 155.802L34.0185 155.817L34.0198 155.891C34.0398 156.957 34.0597 158.051 34.0806 159.17L34.0819 159.246L34.0072 159.265C33.3744 159.42 32.7334 159.578 32.0829 159.738L32.1545 159.667C31.9839 160.361 31.72 161.041 31.3637 161.681L31.3598 161.578C31.7183 162.125 32.0807 162.677 32.4465 163.234L32.4904 163.301L32.4348 163.358C31.6866 164.134 30.9275 164.921 30.1581 165.718L30.1021 165.776L30.0331 165.734C29.4732 165.395 28.9077 165.052 28.3392 164.707H28.4433L28.4416 164.708C27.8058 165.093 27.1201 165.383 26.4582 165.57L26.529 165.493C26.3901 166.16 26.2525 166.821 26.1249 167.433L26.1084 167.512L26.0286 167.513C24.9006 167.532 23.7882 167.551 22.7501 167.569L22.6711 167.57L22.6525 167.494C22.4901 166.829 22.3291 166.172 22.182 165.568L22.2532 165.64C21.5241 165.461 20.8323 165.178 20.2412 164.847L20.3401 164.843C19.7655 165.219 19.1983 165.59 18.6822 165.928L18.6193 165.969L18.5655 165.917C17.7474 165.125 16.9493 164.353 16.2093 163.637L16.1577 163.587L16.195 163.526C16.5535 162.937 16.9054 162.358 17.2244 161.833V161.923C16.8334 161.276 16.5483 160.587 16.3668 159.94L16.4302 159.999C15.7523 159.857 15.0909 159.718 14.4907 159.591L14.4286 159.578L14.4277 159.515C14.4099 158.365 14.3934 157.269 14.3778 156.237L14.377 156.179L14.4325 156.165C15.1087 156.002 15.7584 155.844 16.3586 155.699L16.3104 155.747C16.4953 155.007 16.7744 154.335 17.1055 153.745L17.1077 153.807C16.7188 153.208 16.3556 152.649 16.0283 152.145L16.0058 152.11L16.0344 152.081C16.9671 151.126 17.7387 150.336 18.3255 149.736L18.3437 149.717L18.3654 149.73C18.9066 150.067 19.3237 150.327 19.6132 150.507C19.7499 150.594 19.8553 150.66 19.9339 150.71C20.0059 150.757 20.0428 150.782 20.0428 150.785Z" fill="#E0E0E0"/>
<path d="M43.6478 141.589C44.0189 141.365 44.4138 141.195 44.8213 141.079L45.0631 139.918L47.0256 139.884L47.3081 141.036C47.7196 141.137 48.1202 141.293 48.499 141.504L49.4907 140.854L50.903 142.218L50.288 143.232C50.5124 143.603 50.6825 143.998 50.7979 144.405L51.9593 144.647L51.9936 146.61L50.8413 146.892C50.7398 147.303 50.584 147.704 50.3731 148.083L51.0232 149.074L49.66 150.486L48.6462 149.871C48.2751 150.096 47.8802 150.266 47.4726 150.381L47.2309 151.543L45.2683 151.577L44.9858 150.425C44.5744 150.324 44.1738 150.167 43.7954 149.957L42.8037 150.607L41.3914 149.243L42.0064 148.23C41.782 147.859 41.6119 147.464 41.4965 147.056L40.3351 146.814L40.3008 144.852L41.4531 144.569C41.5542 144.158 41.7104 143.757 41.9213 143.379L41.2712 142.387L42.6344 140.975L43.6478 141.589ZM44.6942 144.203C43.8865 145.04 43.9099 146.373 44.7467 147.181C45.5834 147.988 46.9162 147.965 47.7239 147.128C48.5316 146.291 48.5082 144.959 47.6714 144.151C46.8347 143.344 45.5018 143.367 44.6942 144.203Z" fill="#F5F5F5"/>
<path d="M44.6928 144.203C44.6928 144.203 44.8031 144.049 45.0847 143.859C45.3616 143.675 45.8451 143.47 46.4584 143.535C46.7604 143.569 47.0907 143.667 47.3919 143.866C47.69 144.065 47.9713 144.349 48.147 144.717C48.2395 144.897 48.3037 145.098 48.3384 145.308C48.3762 145.517 48.3814 145.737 48.3502 145.956C48.2968 146.396 48.0889 146.829 47.7656 147.17C47.4366 147.505 47.0104 147.728 46.5729 147.797C46.3551 147.836 46.135 147.839 45.9245 147.808C45.7136 147.78 45.5109 147.723 45.3269 147.637C44.9528 147.475 44.6599 147.203 44.4502 146.912C44.2406 146.618 44.1304 146.291 44.0861 145.991C43.9997 145.38 44.1881 144.89 44.3626 144.607C44.5414 144.319 44.6928 144.203 44.6928 144.203C44.7041 144.213 44.5657 144.342 44.4034 144.631C44.245 144.915 44.077 145.394 44.1707 145.979C44.2189 146.266 44.3287 146.577 44.5323 146.855C44.7354 147.129 45.017 147.385 45.3729 147.536C45.5478 147.616 45.7405 147.669 45.9402 147.694C46.1394 147.721 46.3477 147.718 46.5534 147.68C46.9674 147.614 47.368 147.402 47.6792 147.086C47.9843 146.764 48.1813 146.356 48.2334 145.94C48.2642 145.733 48.2599 145.525 48.2252 145.327C48.1935 145.128 48.134 144.937 48.0472 144.765C47.8836 144.415 47.6184 144.143 47.3372 143.95C47.0525 143.756 46.7383 143.657 46.4488 143.619C45.8612 143.546 45.3881 143.731 45.1099 143.899C44.8265 144.072 44.7028 144.215 44.6928 144.203Z" fill="#F5F5F5"/>
<path d="M43.6474 141.589C43.6474 141.591 43.6252 141.579 43.5818 141.555C43.5341 141.527 43.4703 141.49 43.3874 141.442C43.2099 141.338 42.9547 141.187 42.6231 140.991L42.647 140.988C42.3002 141.352 41.8436 141.829 41.292 142.408L41.2955 142.37C41.4938 142.67 41.7139 143.003 41.9495 143.359L41.9613 143.377L41.9508 143.396C41.7582 143.745 41.5963 144.142 41.4899 144.578L41.4843 144.602L41.4609 144.607C41.1019 144.696 40.7135 144.793 40.3095 144.893L40.342 144.851C40.3542 145.469 40.3672 146.124 40.3811 146.813L40.3433 146.767C40.7031 146.841 41.0993 146.923 41.5051 147.007L41.5346 147.013L41.5429 147.042C41.651 147.421 41.8193 147.823 42.0494 148.202L42.0659 148.229L42.0494 148.256C41.8593 148.571 41.6497 148.918 41.4361 149.271L41.4274 149.204C41.8714 149.632 42.3501 150.093 42.841 150.565L42.7711 150.559C43.0797 150.356 43.4191 150.134 43.7624 149.908L43.7914 149.889L43.8218 149.906C44.1682 150.099 44.5722 150.263 44.9984 150.368L45.0327 150.376L45.0414 150.41C45.1299 150.771 45.2267 151.164 45.3248 151.562L45.2662 151.517C45.8877 151.506 46.5534 151.494 47.2287 151.482L47.171 151.53C47.2474 151.163 47.3294 150.767 47.4123 150.368L47.4197 150.332L47.4548 150.322C47.8411 150.213 48.2417 150.044 48.6127 149.819L48.6136 149.819L48.6453 149.8L48.6761 149.819C49.0168 150.026 49.3549 150.23 49.6899 150.434L49.6153 150.443C50.0762 149.967 50.5306 149.496 50.9789 149.032L50.972 149.106C50.7532 148.772 50.5367 148.441 50.3223 148.114L50.3027 148.084L50.3201 148.053C50.5284 147.679 50.6834 147.282 50.7836 146.877L50.7923 146.843L50.8266 146.834C51.2163 146.739 51.6 146.645 51.9789 146.553L51.935 146.61C51.9242 145.94 51.9133 145.285 51.9025 144.647L51.9467 144.7C51.5527 144.618 51.166 144.537 50.7858 144.457L50.7537 144.45L50.745 144.419C50.6274 144.002 50.4559 143.612 50.2424 143.257L50.2259 143.23L50.2424 143.203C50.4538 142.856 50.6586 142.519 50.8587 142.19L50.8669 142.252C50.3713 141.772 49.903 141.318 49.4577 140.886L49.515 140.892C49.1657 141.119 48.838 141.333 48.5216 141.539L48.4995 141.553L48.4769 141.541C48.0815 141.32 47.6853 141.17 47.2977 141.073L47.2743 141.067L47.2686 141.044C47.1675 140.625 47.0764 140.248 46.99 139.891L47.0252 139.918C46.2648 139.928 45.6173 139.937 45.0626 139.944L45.0887 139.922C44.9893 140.386 44.9077 140.765 44.8396 141.082L44.8369 141.094L44.8257 141.097C44.4103 141.213 44.1182 141.348 43.9282 141.442C43.8374 141.489 43.768 141.526 43.7172 141.552C43.6699 141.58 43.6474 141.591 43.6474 141.589C43.6474 141.588 43.6699 141.573 43.7129 141.545C43.7576 141.517 43.8257 141.476 43.9199 141.425C44.1078 141.326 44.399 141.183 44.8157 141.06L44.8022 141.075C44.866 140.758 44.9428 140.377 45.0366 139.912L45.0409 139.891L45.0626 139.891C45.6168 139.879 46.2648 139.864 47.0247 139.848L47.0529 139.847L47.0599 139.875C47.1484 140.231 47.2422 140.608 47.3463 141.026L47.3173 140.997C47.7118 141.093 48.1158 141.243 48.5194 141.466L48.4747 141.468C48.7898 141.26 49.1166 141.045 49.4651 140.815L49.4959 140.795L49.5228 140.82C49.9703 141.251 50.4399 141.702 50.9377 142.181L50.9663 142.209L50.9455 142.243C50.7463 142.572 50.5427 142.91 50.3327 143.258V143.204C50.5519 143.565 50.7285 143.965 50.85 144.39L50.8092 144.352C51.1894 144.43 51.577 144.511 51.971 144.592L52.0144 144.601L52.0153 144.646C52.027 145.284 52.0392 145.939 52.0518 146.608L52.0526 146.654L52.0079 146.665C51.629 146.758 51.2454 146.853 50.8561 146.948L50.8991 146.906C50.7971 147.321 50.6387 147.728 50.4256 148.112L50.4234 148.05C50.6382 148.378 50.8548 148.708 51.074 149.042L51.1 149.082L51.067 149.116C50.6191 149.58 50.1647 150.052 49.7043 150.529L49.6708 150.563L49.6296 150.538C49.2946 150.335 48.956 150.13 48.6158 149.924H48.6783L48.677 149.924C48.2964 150.154 47.8858 150.328 47.4896 150.44L47.5321 150.394C47.4492 150.793 47.3667 151.189 47.2903 151.555L47.2808 151.602L47.2331 151.603C46.5578 151.615 45.892 151.626 45.2705 151.637L45.2232 151.637L45.2119 151.591C45.1147 151.194 45.0184 150.8 44.9303 150.439L44.9728 150.482C44.5366 150.375 44.1222 150.205 43.7684 150.007L43.8279 150.005C43.4842 150.23 43.1443 150.452 42.8353 150.654L42.7976 150.679L42.7655 150.648C42.2759 150.174 41.7981 149.712 41.355 149.283L41.3242 149.253L41.3463 149.216C41.5607 148.863 41.7716 148.517 41.9626 148.203V148.257C41.7286 147.869 41.5576 147.457 41.4491 147.07L41.4869 147.105C41.0811 147.02 40.6853 146.937 40.3259 146.861L40.2886 146.853L40.2882 146.816C40.2778 146.127 40.2678 145.471 40.2582 144.853L40.2578 144.819L40.2912 144.811C40.6957 144.713 41.085 144.618 41.4444 144.532L41.4153 144.561C41.526 144.118 41.6931 143.715 41.8914 143.362L41.8927 143.399C41.6601 143.04 41.4426 142.706 41.2465 142.405L41.233 142.384L41.2499 142.366C41.8085 141.794 42.2703 141.322 42.6214 140.962L42.6322 140.951L42.6452 140.959C42.9694 141.161 43.219 141.316 43.3922 141.424C43.4738 141.476 43.5371 141.516 43.5844 141.546C43.6257 141.573 43.6474 141.588 43.6474 141.589Z" fill="#F5F5F5"/>
<path d="M49.9541 192.983L49.9519 192.974L49.0583 189.33C47.742 189.005 46.476 188.507 45.2951 187.849L42.1507 189.911L42.1442 189.904L37.6636 185.578L37.668 185.571L39.6127 182.363C38.9135 181.205 38.3715 179.958 38.0008 178.654L34.3188 177.887L34.3184 177.878L34.209 171.652L34.2177 171.65L37.8624 170.756C38.187 169.441 38.6853 168.175 39.3428 166.993L37.2821 163.848L37.2882 163.842L41.6139 159.361L41.6213 159.366L44.829 161.311C45.9856 160.613 47.2333 160.071 48.5379 159.699L49.3044 156.017L49.313 156.016L55.5401 155.907L55.5423 155.916L56.4354 159.56C57.7535 159.886 59.0195 160.383 60.1991 161.041L63.3434 158.979L63.3499 158.986L67.8305 163.312L67.8262 163.319L65.8814 166.527C66.5797 167.683 67.1222 168.931 67.4933 170.237L71.1754 171.003V171.012L71.2847 177.239L71.2761 177.241L67.6313 178.134C67.3063 179.451 66.8085 180.717 66.1509 181.898L68.212 185.042L68.2059 185.049L63.8803 189.529L63.8729 189.525L60.6656 187.58C59.5081 188.279 58.2604 188.821 56.9562 189.192L56.1898 192.874L56.1811 192.875L49.9541 192.983ZM45.2942 187.824L45.2999 187.827C46.4829 188.487 47.7511 188.986 49.0696 189.311L49.0761 189.313L49.0778 189.319L49.971 192.962L56.172 192.853L56.9376 189.175L56.9441 189.172C58.2504 188.802 59.5008 188.258 60.6604 187.558L60.6661 187.554L60.6717 187.558L63.8772 189.502L68.1847 185.04L66.1258 181.899L66.1288 181.893C66.7881 180.71 67.2872 179.442 67.6118 178.123L67.6135 178.116L67.62 178.115L71.2626 177.222L71.1537 171.021L67.4755 170.255L67.4738 170.249C67.1023 168.941 66.5589 167.69 65.8589 166.532L65.8554 166.527L65.8589 166.521L67.8028 163.316L63.3408 159.008L60.1999 161.067L60.1943 161.063C59.0129 160.404 57.7444 159.905 56.4241 159.58L56.4176 159.578L56.4159 159.571L55.5232 155.929L49.3222 156.037L48.5566 159.716L48.5501 159.718C47.2433 160.089 45.9929 160.633 44.8342 161.333L44.8285 161.337L44.8229 161.333L41.6169 159.389L37.3095 163.851L39.3684 166.992L39.3653 166.998C38.7057 168.182 38.207 169.45 37.8824 170.768L37.8806 170.774L37.8741 170.776L34.2315 171.669L34.34 177.87L38.0186 178.636L38.0204 178.642C38.391 179.949 38.9344 181.199 39.6353 182.359L39.6388 182.364L39.6353 182.37L37.6914 185.575L42.1534 189.883L45.2942 187.824ZM52.94 180.925C51.1996 180.925 49.557 180.262 48.3014 179.05C47.0172 177.81 46.2928 176.145 46.2612 174.36C46.2299 172.575 46.8957 170.885 48.1352 169.6C49.3751 168.317 51.0408 167.592 52.8254 167.561C52.8658 167.56 52.9061 167.56 52.9461 167.56C54.686 167.56 56.3291 168.222 57.5842 169.435C58.8684 170.674 59.5928 172.339 59.624 174.125C59.6553 175.909 58.9895 177.599 57.75 178.884C56.5101 180.168 54.8448 180.892 53.0598 180.923C53.0207 180.924 52.9804 180.925 52.94 180.925ZM48.1439 169.608L48.1517 169.616C46.9156 170.896 46.2525 172.581 46.2837 174.36C46.315 176.139 47.0372 177.799 48.3175 179.035C49.5682 180.242 51.2062 180.903 52.9404 180.903C52.9804 180.903 53.0207 180.903 53.0606 180.902C54.8396 180.871 56.4997 180.149 57.7353 178.869C58.9713 177.589 59.6344 175.905 59.6032 174.125C59.5719 172.346 58.8498 170.686 57.5699 169.451C56.3191 168.243 54.6812 167.582 52.9469 167.582C52.907 167.582 52.8666 167.582 52.8267 167.583C51.0477 167.614 49.3877 168.336 48.1521 169.616L48.1439 169.608Z" fill="#E0E0E0"/>
<path d="M48.1444 169.608C48.1444 169.608 48.4934 169.116 49.3865 168.518C50.2632 167.934 51.7957 167.284 53.7391 167.489C54.6961 167.596 55.7429 167.909 56.6973 168.54C57.6412 169.171 58.5327 170.069 59.0895 171.236C59.3829 171.808 59.586 172.444 59.6962 173.108C59.816 173.771 59.8334 174.468 59.7335 175.162C59.5647 176.556 58.9055 177.929 57.8817 179.009C56.8392 180.071 55.4895 180.778 54.102 180.996C53.4119 181.12 52.7145 181.127 52.0478 181.031C51.3803 180.944 50.7372 180.763 50.1547 180.49C48.9699 179.974 48.0407 179.115 47.3767 178.193C46.7122 177.262 46.3637 176.226 46.2227 175.274C45.9497 173.339 46.5456 171.785 47.0985 170.888C47.6649 169.974 48.1444 169.608 48.1444 169.608C48.1805 169.638 47.7417 170.046 47.2278 170.962C46.7253 171.862 46.1936 173.38 46.4905 175.233C46.6432 176.145 46.9909 177.129 47.6358 178.009C48.2798 178.88 49.1717 179.689 50.2988 180.168C50.853 180.423 51.4632 180.59 52.096 180.669C52.7275 180.757 53.388 180.747 54.0399 180.626C55.3514 180.416 56.6213 179.745 57.6074 178.743C58.5743 177.722 59.1988 176.43 59.3633 175.112C59.4605 174.457 59.4475 173.797 59.3369 173.169C59.2362 172.539 59.0483 171.935 58.7735 171.391C58.2553 170.281 57.4155 169.418 56.5232 168.805C55.6214 168.191 54.6254 167.878 53.7083 167.757C51.8465 167.526 50.3479 168.11 49.466 168.645C48.5676 169.191 48.1761 169.643 48.1444 169.608Z" fill="#E0E0E0"/>
<path d="M44.8287 161.324C44.8287 161.33 44.7593 161.293 44.6213 161.215C44.4703 161.127 44.2676 161.011 44.005 160.859C43.443 160.527 42.634 160.049 41.5833 159.428L41.6588 159.418C40.5595 160.57 39.1138 162.085 37.3652 163.917L37.377 163.797C38.005 164.747 38.7028 165.802 39.4493 166.932L39.4866 166.988L39.4536 167.048C38.843 168.154 38.33 169.414 37.9932 170.796L37.9754 170.869L37.9012 170.888C36.7641 171.17 35.5329 171.476 34.2526 171.794L34.3563 171.659C34.3954 173.617 34.4366 175.695 34.48 177.877L34.3602 177.732C35.4999 177.967 36.755 178.226 38.0414 178.491L38.1352 178.51L38.1616 178.602C38.5036 179.803 39.0374 181.079 39.7666 182.279L39.8182 182.364L39.7666 182.45C39.1642 183.446 38.4997 184.545 37.8231 185.665L37.7958 185.454C39.2028 186.81 40.7201 188.271 42.2751 189.769L42.0537 189.748C43.032 189.105 44.1061 188.4 45.1946 187.685L45.2866 187.624L45.3825 187.678C46.4792 188.289 47.7608 188.811 49.111 189.141L49.2195 189.168L49.2464 189.277C49.5272 190.42 49.8341 191.667 50.1439 192.927L49.9586 192.785C51.9277 192.749 54.0378 192.711 56.177 192.673L55.9943 192.824C56.236 191.661 56.4964 190.407 56.7594 189.144L56.7828 189.03L56.8939 188.999C58.1183 188.652 59.3868 188.117 60.5625 187.405L60.566 187.403L60.6663 187.344L60.7639 187.403C61.8428 188.057 62.9148 188.708 63.9768 189.352L63.7403 189.382C65.2003 187.87 66.6411 186.379 68.0608 184.909L68.0386 185.144C67.3455 184.085 66.6594 183.038 65.9802 182L65.9177 181.905L65.9732 181.806C66.6338 180.623 67.1246 179.364 67.4414 178.081L67.4688 177.972L67.5777 177.945C68.8125 177.643 70.0285 177.346 71.2294 177.053L71.0905 177.233C71.0554 175.11 71.0211 173.037 70.9877 171.015L71.1278 171.184C69.8797 170.923 68.6532 170.666 67.4488 170.414L67.3468 170.393L67.3186 170.293C66.9463 168.974 66.4024 167.736 65.7263 166.613L65.6742 166.527L65.7263 166.441C66.3959 165.341 67.0452 164.274 67.6797 163.232L67.7053 163.428C66.1347 161.905 64.6517 160.468 63.2399 159.1L63.4217 159.117C62.3146 159.838 61.276 160.515 60.2739 161.169L60.2041 161.214L60.132 161.174C58.8795 160.473 57.6239 159.999 56.3957 159.692L56.3215 159.673L56.3037 159.6C55.983 158.272 55.6939 157.075 55.4209 155.946L55.5329 156.032C53.1238 156.063 51.0714 156.09 49.3141 156.113L49.3966 156.045C49.0811 157.513 48.8228 158.717 48.6071 159.721L48.5993 159.758L48.5637 159.768C47.2479 160.135 46.3221 160.564 45.7202 160.861C45.4329 161.011 45.2124 161.126 45.0514 161.211C44.9003 161.294 44.8287 161.33 44.8287 161.324C44.8292 161.32 44.8999 161.271 45.0362 161.183C45.1785 161.096 45.3938 160.965 45.6915 160.806C46.2865 160.489 47.2092 160.038 48.5303 159.65L48.4869 159.696C48.6896 158.69 48.9326 157.483 49.2291 156.01L49.2425 155.944L49.312 155.942C51.0688 155.903 53.1207 155.858 55.5294 155.806L55.6193 155.803L55.6414 155.892C55.9218 157.019 56.2186 158.214 56.5485 159.539L56.4565 159.447C57.7068 159.752 58.9876 160.227 60.2661 160.934L60.1242 160.939C61.1228 160.281 62.1584 159.599 63.262 158.871L63.3592 158.807L63.4439 158.889C64.8609 160.251 66.3495 161.683 67.9267 163.199L68.0182 163.287L67.9523 163.396C67.3217 164.44 66.6759 165.509 66.0101 166.612L66.0105 166.441C66.7054 167.587 67.2652 168.852 67.6493 170.199L67.5196 170.078C68.7248 170.327 69.9517 170.581 71.2007 170.839L71.3383 170.868L71.3409 171.009C71.3783 173.03 71.4169 175.104 71.4564 177.227L71.459 177.372L71.3175 177.407C70.1171 177.702 68.9014 178.001 67.6671 178.305L67.8025 178.169C67.4796 179.485 66.9779 180.775 66.3026 181.989L66.2957 181.795C66.9762 182.832 67.6632 183.879 68.3568 184.937L68.4396 185.063L68.3346 185.172C66.9154 186.643 65.4754 188.135 64.0163 189.647L63.9104 189.757L63.7798 189.678C62.7174 189.034 61.6454 188.384 60.5669 187.73H60.7648L60.7613 187.732C59.5557 188.462 58.2545 189.011 56.9994 189.366L57.1339 189.221C56.8709 190.485 56.6092 191.739 56.3675 192.902L56.3362 193.051L56.1844 193.053C54.0452 193.09 51.9351 193.126 49.966 193.16L49.8163 193.162L49.7807 193.017C49.4725 191.757 49.1674 190.509 48.8879 189.365L49.0233 189.5C47.6406 189.161 46.3286 188.624 45.2068 187.995L45.3947 187.988C44.3049 188.701 43.2295 189.405 42.2499 190.045L42.1306 190.123L42.0286 190.024C40.477 188.523 38.9632 187.057 37.5597 185.699L37.4616 185.604L37.5323 185.488C38.2124 184.371 38.8795 183.273 39.4849 182.279V182.449C38.7432 181.221 38.2024 179.915 37.8583 178.688L37.978 178.799C36.6921 178.529 35.4383 178.266 34.299 178.026L34.181 178.002L34.1788 177.882C34.1454 175.7 34.1137 173.622 34.0838 171.664L34.082 171.554L34.1875 171.529C35.4695 171.218 36.7025 170.92 37.8409 170.644L37.7489 170.736C38.0996 169.332 38.629 168.057 39.257 166.939L39.261 167.054C38.5236 165.919 37.8344 164.858 37.2138 163.904L37.1712 163.838L37.2251 163.783C38.9945 161.971 40.4575 160.473 41.5703 159.334L41.605 159.298L41.6458 159.324C42.6726 159.962 43.4638 160.455 44.0128 160.796C44.2719 160.961 44.472 161.088 44.6213 161.183C44.7593 161.272 44.8292 161.319 44.8287 161.324Z" fill="#E0E0E0"/>
<path d="M169.096 25.3845L38.9688 35.0139L51.2597 201.108L181.387 191.479L169.096 25.3845Z" fill="white"/>
<path d="M51.0645 201.334L51.0485 201.118L38.7363 34.8111L38.9529 34.7951L169.294 25.1459L169.31 25.3625L181.621 191.669L181.405 191.685L51.0645 201.334ZM39.2011 35.2121L51.4651 200.869L181.156 191.267L168.892 25.6108L39.2011 35.2121Z" fill="#263238"/>
<path d="M157.613 32.6313L122.555 35.2256L122.721 37.4768L157.78 34.8824L157.613 32.6313Z" fill="#4A899E"/>
<path d="M157.192 49.9126C157.192 49.9204 157.118 49.9334 156.977 49.9512C156.81 49.9694 156.606 49.9916 156.359 50.0185C155.787 50.0706 155.018 50.14 154.083 50.2251C152.128 50.3874 149.487 50.607 146.569 50.8496C143.634 51.0909 140.974 51.2836 139.048 51.4081C138.111 51.4637 137.34 51.5093 136.767 51.5431C136.518 51.5531 136.314 51.5613 136.146 51.5679C136.003 51.5709 135.929 51.5692 135.928 51.5614C135.927 51.5535 136.001 51.5405 136.142 51.5227C136.309 51.5045 136.513 51.4824 136.76 51.4555C137.332 51.4034 138.101 51.3339 139.036 51.2489C140.992 51.0866 143.632 50.867 146.551 50.6243C149.486 50.383 152.145 50.1903 154.071 50.0658C155.008 50.0102 155.779 49.9647 156.353 49.9308C156.601 49.9208 156.806 49.9126 156.974 49.9056C157.116 49.903 157.191 49.9048 157.192 49.9126Z" fill="#4A899E"/>
<path d="M159.295 58.4003C159.299 58.4628 151.655 59.0791 142.223 59.7774C132.788 60.4757 125.138 60.9917 125.133 60.9292C125.128 60.8672 132.771 60.2505 142.206 59.5522C151.638 58.8539 159.29 58.3383 159.295 58.4003Z" fill="#263238"/>
<path d="M159.871 69.2208C159.876 69.2829 152.231 69.8996 142.799 70.5979C133.364 71.2962 125.714 71.8122 125.709 71.7497C125.704 71.6877 133.347 71.071 142.783 70.3727C152.215 69.6744 159.867 69.1588 159.871 69.2208Z" fill="#263238"/>
<path d="M159.871 63.8106C159.876 63.8726 152.231 64.4893 142.799 65.1877C133.364 65.886 125.714 66.402 125.709 66.3395C125.704 66.2774 133.347 65.6607 142.783 64.9624C152.215 64.2641 159.867 63.7485 159.871 63.8106Z" fill="#263238"/>
<path d="M88.169 139.57C88.1738 139.632 84.2109 139.976 79.3198 140.338C74.4264 140.701 70.4575 140.944 70.4531 140.881C70.4484 140.819 74.4103 140.475 79.3033 140.113C84.1944 139.751 88.1642 139.508 88.169 139.57Z" fill="#4A899E"/>
<path d="M80.765 149.97C80.7698 150.032 75.4611 150.476 68.909 150.961C62.3547 151.446 57.0399 151.789 57.0352 151.727C57.0304 151.665 62.3382 151.221 68.892 150.736C75.4441 150.25 80.7602 149.908 80.765 149.97Z" fill="#4A899E"/>
<path d="M123.987 150.85C123.992 150.912 109.074 152.067 90.6715 153.429C72.2625 154.792 57.3407 155.846 57.3359 155.784C57.3312 155.722 72.246 154.567 90.655 153.204C109.057 151.841 123.983 150.787 123.987 150.85Z" fill="#263238"/>
<path d="M81.5111 160.057C81.5158 160.119 76.2072 160.563 69.6551 161.048C63.1008 161.533 57.786 161.876 57.7813 161.814C57.7765 161.752 63.0843 161.308 69.6381 160.823C76.1902 160.338 81.5067 159.995 81.5111 160.057Z" fill="#4A899E"/>
<path d="M124.733 160.937C124.738 160.999 109.82 162.154 91.4176 163.516C73.0086 164.879 58.0868 165.933 58.082 165.871C58.0773 165.809 72.9921 164.654 91.4011 163.291C109.803 161.928 124.729 160.874 124.733 160.937Z" fill="#263238"/>
<path d="M82.2591 170.144C82.2639 170.206 76.9548 170.65 70.4031 171.135C63.8493 171.621 58.5341 171.963 58.5293 171.901C58.5245 171.839 63.8323 171.395 70.3862 170.91C76.9383 170.425 82.2543 170.082 82.2591 170.144Z" fill="#4A899E"/>
<path d="M125.481 171.024C125.486 171.086 110.568 172.241 92.1656 173.603C73.7566 174.966 58.8349 176.02 58.8301 175.958C58.8253 175.896 73.7401 174.741 92.1491 173.378C110.551 172.015 125.476 170.961 125.481 171.024Z" fill="#263238"/>
<path d="M83.9037 180.356C83.9084 180.418 78.5997 180.862 72.0476 181.346C65.4934 181.832 60.1786 182.175 60.1738 182.112C60.1691 182.05 65.4769 181.606 72.0307 181.121C78.5828 180.636 83.8993 180.293 83.9037 180.356Z" fill="#4A899E"/>
<path d="M127.126 181.235C127.13 181.297 112.213 182.452 93.8101 183.815C75.4012 185.177 60.4794 186.232 60.4746 186.169C60.4698 186.107 75.3847 184.952 93.7937 183.589C112.196 182.227 127.121 181.173 127.126 181.235Z" fill="#263238"/>
<path d="M66.0044 137.564L57.8672 138.167L58.2498 143.337L66.3869 142.735L66.0044 137.564Z" fill="#4A899E"/>
<path d="M63.951 142.915L60.6836 143.157L60.8034 144.775L64.0708 144.533L63.951 142.915Z" fill="#4A899E"/>
<path d="M65.3209 144.38C65.3265 144.442 64.1065 144.602 62.5966 144.738C61.0859 144.873 59.8572 144.933 59.8516 144.87C59.8459 144.808 61.0655 144.648 62.5762 144.512C64.0866 144.377 65.3152 144.318 65.3209 144.38Z" fill="#4A899E"/>
<path d="M131.75 131.688L136.837 128.9L141.844 130.8L137.155 133.751L131.75 131.688Z" fill="#4A899E"/>
<path d="M132.967 132.854L133.173 136.025L141.01 135.336L140.741 132.279L137.12 134.468L132.967 132.854Z" fill="#4A899E"/>
<path d="M163.921 132.306C163.926 132.368 159.963 132.712 155.072 133.075C150.179 133.437 146.21 133.68 146.205 133.618C146.2 133.556 150.162 133.212 155.055 132.849C159.947 132.487 163.917 132.244 163.921 132.306Z" fill="#4A899E"/>
<path d="M145.748 143.197C145.753 143.259 143.03 143.511 139.667 143.76C136.303 144.009 133.573 144.16 133.568 144.098C133.564 144.036 136.286 143.783 139.65 143.535C143.013 143.286 145.744 143.134 145.748 143.197Z" fill="#263238"/>
<path d="M168.103 145.952C168.108 146.014 160.453 146.631 151.007 147.331C141.558 148.03 133.897 148.547 133.893 148.484C133.888 148.422 141.541 147.805 150.99 147.105C160.436 146.406 168.098 145.889 168.103 145.952Z" fill="#263238"/>
<path d="M146.662 154.467C146.667 154.529 143.944 154.781 140.581 155.03C137.217 155.28 134.487 155.431 134.482 155.369C134.478 155.306 137.2 155.054 140.564 154.805C143.927 154.556 146.658 154.405 146.662 154.467Z" fill="#263238"/>
<path d="M169.017 157.222C169.022 157.284 161.367 157.902 151.921 158.601C142.472 159.301 134.811 159.817 134.807 159.754C134.802 159.692 142.455 159.075 151.904 158.375C161.35 157.677 169.012 157.16 169.017 157.222Z" fill="#263238"/>
<path d="M147.356 165.603C147.36 165.665 144.637 165.917 141.274 166.166C137.91 166.416 135.181 166.567 135.176 166.505C135.171 166.442 137.893 166.19 141.257 165.941C144.62 165.692 147.351 165.541 147.356 165.603Z" fill="#263238"/>
<path d="M169.71 168.358C169.715 168.42 162.06 169.038 152.614 169.737C143.166 170.437 135.505 170.953 135.5 170.89C135.495 170.828 143.149 170.211 152.597 169.511C162.043 168.812 169.706 168.296 169.71 168.358Z" fill="#263238"/>
<path d="M148.598 177.38C148.603 177.442 145.879 177.694 142.517 177.943C139.153 178.192 136.423 178.344 136.418 178.281C136.413 178.219 139.136 177.966 142.5 177.718C145.863 177.469 148.593 177.318 148.598 177.38Z" fill="#263238"/>
<path d="M170.953 180.135C170.957 180.197 163.302 180.815 153.857 181.514C144.408 182.214 136.747 182.73 136.742 182.668C136.737 182.605 144.391 181.988 153.84 181.288C163.285 180.59 170.948 180.073 170.953 180.135Z" fill="#263238"/>
<path d="M128.954 49.5871C129.618 49.249 130.053 48.506 129.995 47.6732C129.919 46.5821 129.028 45.7549 128.005 45.826C126.982 45.8968 126.214 46.839 126.29 47.9301C126.349 48.7707 126.893 49.4495 127.607 49.6865C124.789 50.3266 125.148 53.4145 125.148 53.4145L131.889 52.9467C131.889 52.9467 131.81 49.8045 128.954 49.5871Z" fill="#4A899E"/>
<path d="M139.938 93.3421C139.943 93.4042 137.198 93.6585 133.809 93.9093C130.418 94.1602 127.667 94.3134 127.662 94.2509C127.657 94.1888 130.402 93.9349 133.792 93.6836C137.181 93.4328 139.933 93.2796 139.938 93.3421Z" fill="#263238"/>
<path d="M140.403 98.7606C140.408 98.8226 137.663 99.077 134.274 99.3278C130.883 99.5787 128.132 99.7319 128.127 99.6694C128.122 99.6073 130.866 99.3534 134.257 99.1021C137.646 98.8513 140.398 98.6981 140.403 98.7606Z" fill="#263238"/>
<path d="M164.212 92.1811L144.234 93.6602C143.862 93.688 143.537 93.4081 143.51 93.0353C143.482 92.6624 143.762 92.3378 144.135 92.3105L164.112 90.8314C164.484 90.8036 164.809 91.0836 164.836 91.4564C164.864 91.8287 164.584 92.1534 164.212 92.1811Z" fill="#E0E0E0"/>
<path d="M161.292 92.3973L144.234 93.6602C143.862 93.688 143.537 93.4081 143.51 93.0352C143.482 92.6624 143.762 92.3378 144.135 92.3105L161.192 91.0475C161.565 91.0197 161.89 91.2997 161.917 91.6725C161.944 92.0449 161.664 92.3695 161.292 92.3973Z" fill="#4A899E"/>
<path d="M164.588 97.2793L144.611 98.7584C144.239 98.7862 143.914 98.5063 143.887 98.1335C143.859 97.7607 144.139 97.436 144.512 97.4087L164.489 95.9296C164.861 95.9018 165.186 96.1818 165.213 96.5546C165.241 96.9274 164.961 97.252 164.588 97.2793Z" fill="#E0E0E0"/>
<path d="M158.628 97.7207L144.611 98.7584C144.239 98.7862 143.914 98.5063 143.887 98.1335C143.859 97.7607 144.139 97.436 144.512 97.4087L158.529 96.371C158.901 96.3432 159.226 96.6231 159.253 96.9959C159.281 97.3687 159.001 97.6934 158.628 97.7207Z" fill="#4A899E"/>
<path d="M140.993 104.293C140.998 104.356 138.253 104.61 134.864 104.86C131.473 105.111 128.722 105.265 128.717 105.202C128.712 105.14 131.456 104.886 134.847 104.635C138.236 104.384 140.988 104.231 140.993 104.293Z" fill="#263238"/>
<path d="M141.458 109.712C141.463 109.774 138.718 110.028 135.328 110.279C131.938 110.53 129.186 110.683 129.182 110.621C129.177 110.558 131.921 110.305 135.312 110.053C138.701 109.802 141.453 109.649 141.458 109.712Z" fill="#263238"/>
<path d="M165.266 103.132L145.289 104.611C144.916 104.639 144.592 104.359 144.564 103.986C144.537 103.614 144.817 103.289 145.189 103.262L165.166 101.783C165.539 101.755 165.864 102.035 165.891 102.407C165.919 102.78 165.639 103.104 165.266 103.132Z" fill="#E0E0E0"/>
<path d="M162.347 103.348L145.289 104.611C144.916 104.639 144.592 104.359 144.564 103.986C144.537 103.614 144.817 103.289 145.189 103.262L162.247 101.999C162.62 101.971 162.944 102.251 162.972 102.624C162.999 102.996 162.719 103.321 162.347 103.348Z" fill="#4A899E"/>
<path d="M165.644 108.231L145.666 109.71C145.293 109.738 144.969 109.458 144.941 109.085C144.914 108.712 145.194 108.388 145.566 108.36L165.543 106.881C165.916 106.853 166.241 107.133 166.268 107.506C166.296 107.878 166.016 108.203 165.644 108.231Z" fill="#E0E0E0"/>
<path d="M159.683 108.672L145.666 109.71C145.293 109.737 144.969 109.457 144.941 109.085C144.914 108.712 145.194 108.387 145.566 108.36L159.583 107.322C159.956 107.294 160.281 107.574 160.308 107.947C160.335 108.32 160.056 108.644 159.683 108.672Z" fill="#4A899E"/>
<path d="M142.153 115.488C142.158 115.55 139.413 115.805 136.024 116.055C132.633 116.306 129.881 116.46 129.877 116.397C129.873 116.335 132.616 116.081 136.007 115.83C139.396 115.579 142.149 115.426 142.153 115.488Z" fill="#263238"/>
<path d="M166.426 114.327L146.449 115.806C146.076 115.834 145.752 115.554 145.725 115.181C145.697 114.809 145.977 114.484 146.349 114.457L166.327 112.978C166.7 112.95 167.024 113.23 167.052 113.603C167.079 113.975 166.799 114.3 166.426 114.327Z" fill="#E0E0E0"/>
<path d="M157.531 114.986L146.449 115.806C146.076 115.834 145.752 115.554 145.725 115.181C145.697 114.809 145.977 114.484 146.349 114.457L157.431 113.636C157.804 113.609 158.128 113.889 158.156 114.261C158.183 114.634 157.903 114.958 157.531 114.986Z" fill="#4A899E"/>
<path d="M133.293 87.819L132.591 86.5812C132.901 86.0769 133.081 85.4832 133.081 84.8474C133.081 83.019 131.598 81.5364 129.77 81.5364C127.941 81.5364 126.459 83.019 126.459 84.8474C126.459 86.6758 127.942 88.1584 129.77 88.1584C130.533 88.1584 131.236 87.8993 131.796 87.4648L131.795 87.4662L133.293 87.819Z" fill="#4A899E"/>
<path d="M158.947 83.1127C158.952 83.1752 154.323 83.5701 148.61 83.9946C142.894 84.4195 138.258 84.7137 138.254 84.6512C138.249 84.5892 142.877 84.1942 148.593 83.7689C154.306 83.3445 158.943 83.0502 158.947 83.1127Z" fill="#4A899E"/>
<path d="M41.5742 34.9917L49.8636 133.054L123.006 127.614L115.105 29.3753L41.5742 34.9917Z" fill="#EBEBEB"/>
<path d="M116.758 25.9972L44.4648 31.3469L51.7328 129.563L124.026 124.214L116.758 25.9972Z" fill="#FAFAFA"/>
<path d="M51.5353 129.79L51.5193 129.574L44.2324 31.1443L44.4486 31.1282L116.956 25.7601L116.973 25.9762L124.259 124.407L124.043 124.423L51.5353 129.79ZM44.6972 31.5449L51.9364 129.325L123.795 124.006L116.556 26.2249L44.6972 31.5449Z" fill="#263238"/>
<path d="M102.213 40.8607C102.209 40.8611 102.198 40.8051 102.182 40.6957C102.165 40.5751 102.143 40.4141 102.113 40.2088C102.057 39.7674 101.975 39.1381 101.872 38.3335C101.771 37.5145 101.647 36.5185 101.505 35.3645C101.426 34.7873 101.385 34.1601 101.224 33.5291C101.141 33.2153 101.023 32.8994 100.831 32.6229C100.638 32.3499 100.365 32.1173 100.032 32.0105C99.3645 31.7866 98.5459 32.0105 97.9817 32.5309C97.4076 33.0617 97.0886 33.8581 96.9297 34.6883C96.6103 36.3731 96.77 38.2306 97.1007 40.132C97.2713 41.0837 97.4531 42.065 97.6693 43.0519C97.8919 44.0349 98.1914 45.0318 98.7304 45.922C99.2634 46.8012 100.091 47.5503 101.099 47.8897C101.599 48.0551 102.144 48.115 102.664 48.0017C103.188 47.9032 103.669 47.6263 104.071 47.2648C104.872 46.5191 105.316 45.4632 105.445 44.4038C105.585 43.3362 105.476 42.2642 105.362 41.2178C105.128 39.1186 104.902 37.094 104.687 35.1644C104.58 34.2001 104.476 33.2591 104.375 32.3451C104.273 31.4311 104.182 30.5445 104.02 29.7021C103.862 28.8597 103.629 28.0603 103.278 27.3507C102.928 26.6424 102.449 26.0352 101.882 25.5882C100.733 24.695 99.3597 24.4181 98.2187 24.4832C97.0651 24.5514 96.1043 24.958 95.4975 25.4966C94.8795 26.0309 94.6026 26.6289 94.4559 27.0265C94.3158 27.4331 94.2858 27.6601 94.2715 27.6571C94.2715 27.6571 94.2849 27.4279 94.413 27.0117C94.5475 26.6051 94.8153 25.9883 95.4398 25.4302C96.0531 24.8678 97.0335 24.4381 98.2109 24.3569C99.3766 24.2784 100.786 24.5475 101.98 25.4619C102.571 25.9202 103.07 26.546 103.434 27.2721C103.798 27.9991 104.04 28.8141 104.203 29.6661C104.372 30.5184 104.467 31.4099 104.572 32.3226C104.676 33.2361 104.783 34.1766 104.894 35.1405C105.113 37.0697 105.343 39.0943 105.582 41.1927C105.697 42.2408 105.811 43.3292 105.667 44.4325C105.535 45.5279 105.074 46.6402 104.224 47.4305C103.797 47.8159 103.277 48.1154 102.709 48.2222C102.146 48.3441 101.558 48.2786 101.028 48.1024C99.9582 47.7404 99.0967 46.9544 98.5412 46.0365C97.9839 45.1126 97.6814 44.0922 97.4588 43.0992C97.2422 42.101 97.0643 41.1254 96.8955 40.1667C96.5686 38.2545 96.4115 36.3727 96.7457 34.6519C96.9128 33.8012 97.2461 32.9675 97.8633 32.402C98.4756 31.8465 99.3454 31.6095 100.083 31.8586C100.451 31.9793 100.75 32.2392 100.955 32.5357C101.16 32.8356 101.281 33.1684 101.363 33.4926C101.523 34.1467 101.557 34.7721 101.63 35.3493C101.758 36.505 101.869 37.5024 101.96 38.3226C102.045 39.129 102.112 39.7605 102.159 40.2027C102.179 40.4089 102.194 40.5712 102.205 40.6923C102.214 40.8034 102.217 40.8602 102.213 40.8607Z" fill="#263238"/>
<path d="M72.4452 37.3769L66.7055 34.9917C65.1544 35.9795 62.6259 38.6911 61.9211 41.7208C61.5045 43.512 61.4008 44.9563 61.4958 46.793C61.5904 48.6297 61.4255 50.5723 60.4099 52.1056C59.6869 53.1971 58.5199 54.1471 58.4986 55.4565C58.4734 56.9647 60.0345 58.261 59.7168 59.7353C59.4621 60.9162 58.1471 61.513 57.4587 62.506C56.4597 63.9468 56.9427 65.9163 57.5937 67.5447C59.1639 71.4728 55.8217 77.124 58.7672 80.1607C61.6677 77.778 70.2552 73.3612 73.1556 70.979C73.8001 70.4499 74.4655 69.8935 74.8114 69.1349C75.3139 68.0325 75.0414 66.7505 74.7801 65.5674C72.7429 56.3314 71.9552 46.8212 72.4452 37.3769Z" fill="#263238"/>
<path d="M106.757 105.113L103.928 102.246L73.6765 110.778C73.6765 110.778 72.0152 124.078 72.1862 124.927C72.3572 125.777 72.174 128.207 72.174 128.207L113.92 124.955C113.92 124.955 114.404 113.63 106.757 105.113Z" fill="#263238"/>
<path d="M81.8576 116.672C81.8706 116.68 81.8094 116.8 81.6866 117.009C81.5607 117.216 81.3754 117.514 81.1172 117.864C80.8576 118.212 80.526 118.618 80.0821 118.996C79.6403 119.375 79.0713 119.703 78.4307 119.908C77.1604 120.323 75.943 120.42 75.0767 120.408C74.6423 120.403 74.2921 120.377 74.0512 120.349C73.8103 120.321 73.6784 120.296 73.6797 120.28C73.6823 120.244 74.2166 120.277 75.075 120.248C75.9309 120.22 77.1196 120.099 78.3613 119.693C78.9771 119.496 79.5174 119.191 79.9497 118.836C80.3833 118.482 80.72 118.097 80.9917 117.766C81.5269 117.096 81.8276 116.651 81.8576 116.672Z" fill="#455A64"/>
<path d="M91.8115 126.708C91.7963 126.711 91.7546 126.563 91.6926 126.295C91.6301 126.027 91.5507 125.637 91.4604 125.153C91.2807 124.186 91.0694 122.842 90.904 121.349C90.7395 119.855 90.6527 118.497 90.6171 117.514C90.5993 117.022 90.5919 116.624 90.5941 116.348C90.5959 116.073 90.6045 115.921 90.6202 115.92C90.6527 115.919 90.7 116.525 90.7764 117.504C90.8528 118.483 90.9648 119.835 91.1284 121.323C91.2933 122.812 91.4786 124.155 91.6179 125.127C91.7572 126.1 91.8436 126.702 91.8115 126.708Z" fill="#455A64"/>
<path d="M94.6991 126.012C94.637 126.018 94.3801 123.765 94.1258 120.982C93.871 118.198 93.7152 115.937 93.7773 115.931C93.8394 115.925 94.0963 118.177 94.3506 120.961C94.6049 123.745 94.7612 126.007 94.6991 126.012Z" fill="#455A64"/>
<path d="M109.368 110.491C109.379 110.502 109.28 110.624 109.088 110.836C108.896 111.047 108.614 111.349 108.243 111.702C107.871 112.053 107.407 112.455 106.829 112.822C106.253 113.185 105.554 113.507 104.766 113.636C103.977 113.774 103.195 113.643 102.559 113.391C101.917 113.141 101.402 112.794 100.993 112.486C100.584 112.176 100.278 111.896 100.072 111.699C99.8657 111.501 99.7602 111.383 99.7702 111.372C99.7962 111.341 100.262 111.771 101.086 112.357C101.501 112.643 102.013 112.967 102.632 113.196C103.248 113.427 103.98 113.543 104.729 113.413C105.479 113.291 106.154 112.988 106.719 112.645C107.286 112.299 107.753 111.916 108.135 111.583C108.893 110.91 109.342 110.465 109.368 110.491Z" fill="#455A64"/>
<path d="M111.685 118.909C111.691 118.924 111.548 119.007 111.284 119.145C110.977 119.306 110.604 119.5 110.167 119.728C109.226 120.222 107.939 120.93 106.56 121.782C105.182 122.635 103.974 123.471 103.111 124.093C102.713 124.382 102.372 124.628 102.091 124.832C101.85 125.006 101.711 125.097 101.702 125.085C101.692 125.073 101.812 124.959 102.037 124.763C102.261 124.566 102.595 124.293 103.016 123.965C103.857 123.308 105.056 122.447 106.441 121.589C107.827 120.733 109.133 120.044 110.096 119.585C110.577 119.355 110.971 119.178 111.247 119.065C111.523 118.952 111.678 118.896 111.685 118.909Z" fill="#455A64"/>
<path d="M84.0888 115.367C84.0601 115.377 83.9538 115.157 83.8175 114.788C83.6838 114.418 83.515 113.895 83.4347 113.29C83.3531 112.685 83.4113 112.121 83.5228 111.737C83.6326 111.351 83.7633 111.139 83.7867 111.149C83.8535 111.17 83.4786 112.088 83.6587 113.261C83.7355 113.843 83.8761 114.362 83.9698 114.74C84.0666 115.119 84.1196 115.357 84.0888 115.367Z" fill="#455A64"/>
<path d="M85.913 115.473C85.8822 115.479 85.8063 115.241 85.7021 114.852C85.6031 114.462 85.4604 113.92 85.4183 113.293C85.3987 112.98 85.4148 112.677 85.4634 112.406C85.5198 112.137 85.6005 111.9 85.6982 111.717C85.8918 111.349 86.0871 111.178 86.1044 111.193C86.1357 111.216 85.989 111.42 85.844 111.783C85.6947 112.144 85.5984 112.679 85.6439 113.279C85.6839 113.878 85.7993 114.421 85.8588 114.819C85.9221 115.216 85.9434 115.467 85.913 115.473Z" fill="#455A64"/>
<path d="M97.0867 114.426C97.0107 114.433 97.1578 112.925 96.4287 111.277C95.7252 109.617 94.5248 108.693 94.5821 108.643C94.5964 108.623 94.9136 108.82 95.3372 109.246C95.7604 109.669 96.2686 110.343 96.6362 111.187C97.0007 112.033 97.1444 112.864 97.1635 113.462C97.1839 114.063 97.111 114.429 97.0867 114.426Z" fill="#455A64"/>
<path d="M99.0955 113.719C99.0235 113.729 98.9254 112.373 98.2991 110.846C97.6876 109.313 96.8157 108.27 96.8739 108.227C96.8947 108.209 97.1395 108.446 97.4671 108.887C97.7948 109.327 98.1919 109.982 98.5083 110.761C98.8225 111.541 98.9922 112.288 99.0625 112.832C99.1346 113.377 99.1228 113.718 99.0955 113.719Z" fill="#455A64"/>
<path d="M91.4131 112.224C91.4057 112.217 91.4912 112.107 91.7143 112.002C91.9326 111.899 92.308 111.826 92.7355 111.964C92.9464 112.034 93.1656 112.163 93.3431 112.366C93.5163 112.571 93.6308 112.852 93.6417 113.152C93.6556 113.452 93.5766 113.769 93.4013 114.046C93.2272 114.323 92.9347 114.553 92.5871 114.628C91.8901 114.77 91.1974 114.385 90.9492 113.826C90.8172 113.54 90.835 113.244 90.8745 112.991C90.9214 112.736 91.0051 112.499 91.164 112.322C91.483 111.997 91.8449 111.894 92.0884 111.88C92.3401 111.87 92.4599 111.966 92.4512 111.974C92.4443 111.993 92.3219 111.932 92.0967 111.968C91.8797 112.003 91.5459 112.131 91.2842 112.427C91.1649 112.572 91.0932 112.789 91.0594 113.021C91.0303 113.253 91.0264 113.516 91.1379 113.739C91.3484 114.201 91.9599 114.53 92.5385 114.408C93.1231 114.282 93.4564 113.668 93.4334 113.16C93.429 112.901 93.3388 112.664 93.1986 112.485C93.0532 112.309 92.867 112.187 92.6813 112.115C92.3045 111.973 91.9582 112.013 91.7455 112.085C91.529 112.156 91.4253 112.24 91.4131 112.224Z" fill="#455A64"/>
<path d="M64.3718 70.0932C64.1339 70.3831 57.1735 74.8177 56.1249 77.6752C55.0759 80.5326 56.7642 92.1781 57.0532 94.1923C57.3418 96.2065 61.2938 103.808 61.2938 103.808C61.2938 103.808 60.4645 107.088 61.5534 109.112C62.6423 111.136 64.5927 112.036 64.5927 112.036L71.5892 108.205L67.2423 88.5629L64.3718 70.0932Z" fill="#4A899E"/>
<path d="M65.131 90.7233C65.3315 90.4421 65.6014 90.2598 65.7637 90.0459C65.926 89.8319 66.2854 89.7369 66.456 89.9439C66.65 90.1791 66.4377 90.5224 66.232 90.7477C66.939 90.7772 67.4724 89.8124 68.1538 90.0038C68.599 90.1288 68.764 90.726 68.5856 91.153C68.4072 91.5801 68.0006 91.8626 67.6 92.0939C67.1994 92.3252 66.7702 92.5414 66.4876 92.9077C66.3396 93.0995 66.245 93.3894 66.4043 93.5721C66.6751 93.882 67.3109 93.5161 67.5522 93.849C67.7154 94.0743 67.5188 94.3785 67.3309 94.5838C66.6482 95.3303 65.966 96.0763 65.2833 96.8228C65.1027 97.0203 64.9096 97.226 64.6544 97.3063C64.3992 97.387 64.0664 97.2876 63.9861 97.0324C63.9071 96.7816 64.1024 96.5229 64.3259 96.3849C64.5494 96.2469 64.8137 96.1735 65.0138 96.003C65.2138 95.8324 65.3206 95.5004 65.1388 95.3107C64.9122 95.0746 64.5212 95.2721 64.2638 95.4743C63.4674 96.1002 62.671 96.7256 61.8746 97.3514C61.6993 97.489 61.5123 97.6318 61.2909 97.6595C61.0696 97.6873 60.8118 97.548 60.7957 97.3258C60.7875 97.2104 60.8439 97.101 60.9016 97.0003C61.3365 96.2425 61.9415 95.5833 62.6593 95.0859C62.9314 94.8976 63.2257 94.7257 63.4249 94.4614C63.6241 94.1971 63.7009 93.8043 63.5017 93.54C63.0326 93.981 62.5131 94.3681 61.9562 94.6914C61.7575 94.8069 61.4728 94.9015 61.3256 94.7253C61.1737 94.5434 61.3308 94.2748 61.4849 94.0947C62.3091 93.1286 63.1332 92.1625 63.9578 91.196C64.1679 90.9495 64.4149 90.6843 64.7382 90.6652L65.131 90.7233Z" fill="white"/>
<path d="M68.5718 63.739L68.0241 67.1685L62.8725 71.2941C62.8725 71.2941 61.656 79.0436 62.8152 86.9285C62.8152 86.9285 70.3421 107.327 70.5257 108.215C70.8672 109.869 73.9083 111.261 73.9083 111.261C73.9083 111.261 85.3767 111.367 89.317 110.798C93.2573 110.229 102.787 104.221 103.685 103.422C104.582 102.622 105.623 98.7884 105.623 98.7884L98.6115 79.1442L98.2179 65.3274L87.7368 62.6371L84.1771 59.8816L68.5718 63.739Z" fill="#4A899E"/>
<path d="M99.4816 78.0679C99.6822 77.7867 99.9521 77.6044 100.114 77.3905C100.277 77.1765 100.636 77.0814 100.807 77.2885C101.001 77.5237 100.788 77.867 100.583 78.0922C101.29 78.1217 101.824 77.157 102.505 77.3484C102.95 77.4738 103.115 78.0705 102.937 78.4976C102.758 78.9246 102.352 79.2072 101.951 79.4385C101.551 79.6698 101.121 79.8864 100.839 80.2522C100.691 80.4441 100.596 80.7344 100.756 80.9167C101.027 81.2266 101.663 80.8607 101.904 81.1936C102.067 81.4188 101.87 81.7231 101.682 81.9284C101 82.6748 100.318 83.4209 99.6348 84.1674C99.4543 84.3648 99.2612 84.5706 99.006 84.6508C98.7508 84.7316 98.4179 84.6322 98.3376 84.377C98.2586 84.1261 98.4539 83.8675 98.6774 83.7295C98.901 83.5914 99.1653 83.5181 99.3653 83.3475C99.5654 83.177 99.6722 82.845 99.4903 82.6553C99.2638 82.4192 98.8727 82.6167 98.6154 82.8189C97.819 83.4448 97.0226 84.0701 96.2262 84.696C96.0509 84.8335 95.8638 84.9763 95.6425 85.0041C95.4211 85.0319 95.1629 84.8926 95.1473 84.6704C95.139 84.5549 95.1955 84.4456 95.2532 84.3449C95.6881 83.5871 96.2931 82.9283 97.0109 82.4305C97.283 82.2417 97.5773 82.0703 97.7765 81.806C97.9757 81.5417 98.0525 81.1489 97.8533 80.8846C97.3841 81.3255 96.8646 81.7127 96.3078 82.036C96.109 82.1514 95.8243 82.246 95.6772 82.0698C95.5253 81.888 95.6824 81.6193 95.8365 81.4392C96.6606 80.4732 97.4848 79.5071 98.3094 78.5406C98.5195 78.294 98.7664 78.0289 99.0897 78.0098L99.4816 78.0679Z" fill="white"/>
<path d="M98.046 65.3443C98.046 65.3443 103.849 67.3585 105.365 70.8427C106.88 74.3268 112.701 90.8167 112.338 93.8256C111.977 96.8345 111.003 100.345 108.376 100.495C105.748 100.646 102.73 97.9724 102.73 97.9724L100.367 94.1328L100.492 90.1092L97.8125 79.3972L98.046 65.3443Z" fill="#4A899E"/>
<path d="M68.7969 65.4181C68.799 65.442 80.7818 80.1021 80.7818 80.1021L82.4106 66.5213L84.6782 59.8317L69.0733 63.6891L68.7969 65.4181Z" fill="#FFBE9D"/>
<g opacity="0.3">
<path d="M93.5344 64.3609C92.827 64.0054 91.9746 64.2862 91.2589 64.6243C87.2062 66.5374 82.8016 68.8567 81.612 73.1776L81.5625 75.7894C81.9353 77.3614 83.5615 78.3991 85.1712 78.5327C86.7814 78.6664 88.3624 78.0714 89.8055 77.3449C91.0988 76.6934 92.3348 75.9274 93.4936 75.0594C94.1372 74.5772 94.8017 73.9887 94.9197 73.1932C95.0807 72.1087 94.1719 71.1647 93.9649 70.0879C93.7718 69.0837 94.2027 68.0794 94.4024 67.0764C94.6025 66.073 94.4484 64.8201 93.5344 64.3609Z" fill="black"/>
</g>
<path d="M62.8157 86.9285C62.8231 86.9259 62.863 87.0127 62.9324 87.1811C63.0084 87.372 63.1056 87.6172 63.2258 87.9201C63.4762 88.5638 63.8295 89.499 64.2531 90.6591C65.1111 92.9754 66.2031 96.2096 67.4326 99.7688C68.051 101.548 68.6543 103.238 69.2094 104.773C69.4897 105.54 69.7432 106.274 70.0157 106.942C70.2909 107.609 70.5938 108.21 70.9306 108.72C71.6029 109.746 72.3988 110.375 72.9752 110.739C73.5602 111.099 73.9196 111.236 73.9083 111.261C73.9053 111.268 73.8158 111.235 73.647 111.166C73.4752 111.102 73.2352 110.981 72.9296 110.815C72.3324 110.469 71.5022 109.845 70.7978 108.809C70.4454 108.293 70.1286 107.685 69.8426 107.014C69.5592 106.34 69.2996 105.61 69.0136 104.845C68.4477 103.313 67.8375 101.624 67.219 99.8434C66.006 96.2898 64.9084 93.0739 64.1025 90.7134C63.7045 89.5672 63.379 88.6302 63.1429 87.9514C63.0388 87.6424 62.955 87.3924 62.8895 87.1975C62.8343 87.0235 62.8083 86.9315 62.8157 86.9285Z" fill="#263238"/>
<path d="M80.7246 80.5669C80.7198 80.5704 80.6812 80.5261 80.61 80.4375C80.5288 80.3334 80.4277 80.2032 80.3036 80.043C80.0362 79.6976 79.6448 79.1928 79.1331 78.5683C78.1101 77.3188 76.5933 75.5919 74.6052 73.7492L74.7779 73.6767C74.7314 75.6648 74.6798 77.896 74.6247 80.2488C74.6195 80.4562 74.6143 80.6624 74.6095 80.8538L74.5978 81.3173L74.3951 80.9011C72.5545 77.1205 70.901 73.7227 69.694 71.2437C69.1129 70.0263 68.6403 69.0355 68.3013 68.325C68.149 67.9948 68.0266 67.7305 67.9337 67.5286C67.8521 67.3455 67.8122 67.2483 67.8191 67.2448C67.8261 67.2413 67.879 67.3325 67.9736 67.5091C68.0761 67.7062 68.2106 67.9648 68.3786 68.2873C68.7331 68.9904 69.2275 69.9703 69.8351 71.1747C71.0576 73.6463 72.7333 77.0328 74.5982 80.8017L74.3838 80.8485C74.3886 80.6572 74.3938 80.451 74.399 80.2436C74.4611 77.8913 74.5201 75.6601 74.5726 73.6724L74.5787 73.4432L74.7453 73.5994C76.7305 75.4635 78.2317 77.2168 79.2294 78.4915C79.729 79.129 80.1057 79.6468 80.3565 80.0049C80.4707 80.1728 80.5635 80.3091 80.6378 80.4185C80.6994 80.5131 80.7293 80.5638 80.7246 80.5669Z" fill="#263238"/>
<path d="M97.7924 91.1708C97.8375 91.2138 94.3386 94.9588 89.9787 99.5336C85.617 104.111 82.0456 107.784 82.0004 107.741C81.9553 107.698 85.4533 103.954 89.815 99.3778C94.1754 94.8025 97.7473 91.1278 97.7924 91.1708Z" fill="#263238"/>
<path d="M91.2837 110.046C91.2498 110.052 91.1439 109.526 90.9482 108.686C90.7533 107.845 90.4565 106.69 90.0507 105.439C89.6432 104.187 89.2048 103.078 88.8685 102.283C88.5326 101.488 88.3099 101.001 88.3407 100.986C88.3659 100.973 88.6393 101.435 89.0143 102.218C89.3897 103 89.8554 104.108 90.266 105.369C90.6748 106.629 90.9491 107.8 91.1049 108.653C91.2611 109.507 91.3115 110.042 91.2837 110.046Z" fill="#263238"/>
<path d="M61.904 86.208C61.8689 86.2597 60.5634 85.4368 58.9888 84.3704C57.4134 83.3037 56.1648 82.3975 56.1999 82.3458C56.2351 82.2942 57.5401 83.1166 59.1156 84.1834C60.6905 85.2502 61.9392 86.1564 61.904 86.208Z" fill="#263238"/>
<path d="M108.376 100.495C108.376 100.5 108.324 100.505 108.223 100.509C108.102 100.51 107.955 100.513 107.777 100.516C107.581 100.529 107.343 100.494 107.063 100.457C106.779 100.437 106.468 100.339 106.117 100.248C105.429 100.024 104.628 99.6195 103.88 98.9498C103.138 98.278 102.44 97.3727 101.959 96.2421L101.957 96.2382L101.956 96.2308C101.549 94.5833 101.097 92.7514 100.62 90.8232C99.7341 87.1524 98.9321 83.8306 98.3436 81.3928C98.0675 80.204 97.8423 79.2328 97.6787 78.5288C97.6092 78.2085 97.5528 77.9494 97.509 77.7476C97.4725 77.5684 97.4573 77.4733 97.4647 77.4716C97.4721 77.4698 97.5025 77.561 97.5532 77.7368C97.6075 77.936 97.6774 78.1916 97.7642 78.508C97.9447 79.2076 98.1938 80.1732 98.4989 81.3546C99.1039 83.788 99.929 87.1042 100.84 90.7693C101.31 92.6993 101.755 94.5326 102.156 96.1818L102.153 96.1705C102.605 97.2563 103.283 98.1617 103.996 98.8226C104.716 99.4854 105.488 99.8933 106.156 100.13C107.519 100.559 108.382 100.436 108.376 100.495Z" fill="#263238"/>
<path d="M65.9838 100.761C65.9856 100.799 65.6475 100.821 65.1263 100.951C64.605 101.078 63.9045 101.342 63.2279 101.802C62.5531 102.264 62.0514 102.82 61.7428 103.259C61.432 103.697 61.288 104.004 61.2532 103.988C61.2307 103.98 61.3235 103.647 61.6096 103.171C61.8925 102.696 62.3977 102.096 63.1008 101.615C63.8052 101.136 64.5477 100.885 65.0933 100.795C65.6401 100.701 65.9843 100.737 65.9838 100.761Z" fill="#263238"/>
<path d="M66.0601 100.266C66.0844 100.319 65.1999 100.751 64.0268 101.04C62.8546 101.335 61.8711 101.368 61.8672 101.309C61.8607 101.243 62.8194 101.111 63.9721 100.821C65.1257 100.537 66.0349 100.205 66.0601 100.266Z" fill="#263238"/>
<path d="M64.7047 76.1574C64.9052 75.8762 65.1752 75.6939 65.3375 75.48C65.4998 75.266 65.8592 75.171 66.0302 75.378C66.2242 75.6132 66.0115 75.9565 65.8062 76.1817C66.5132 76.2112 67.0466 75.2465 67.7276 75.4379C68.1728 75.5629 68.3378 76.16 68.1594 76.5871C67.981 77.0141 67.5743 77.2967 67.1738 77.528C66.7732 77.7593 66.344 77.9755 66.0614 78.3418C65.9134 78.5336 65.8188 78.8239 65.9785 79.0062C66.2493 79.3161 66.8852 78.9502 67.1265 79.2831C67.2896 79.5083 67.093 79.8126 66.9051 80.0179C66.2224 80.7643 65.5402 81.5108 64.8575 82.2569C64.677 82.4543 64.4838 82.6601 64.2286 82.7403C63.9735 82.8206 63.6406 82.7217 63.5603 82.4665C63.4813 82.2156 63.6766 81.957 63.9001 81.819C64.1236 81.6809 64.3879 81.6076 64.588 81.437C64.7881 81.2665 64.8948 80.9345 64.713 80.7448C64.4864 80.5087 64.0954 80.7062 63.838 80.9084C63.0416 81.5343 62.2453 82.1597 61.4489 82.7855C61.2735 82.9231 61.0865 83.0658 60.8651 83.0936C60.6438 83.1214 60.3856 82.9821 60.3699 82.7599C60.3617 82.6444 60.4181 82.5351 60.4758 82.4344C60.9107 81.6766 61.5157 81.0174 62.2335 80.52C62.5057 80.3316 62.7999 80.1598 62.9991 79.8955C63.1983 79.6312 63.2751 79.2384 63.0759 78.9741C62.6068 79.415 62.0873 79.8022 61.5305 80.1255C61.3317 80.2409 61.047 80.3356 60.8999 80.1593C60.748 79.9775 60.9051 79.7089 61.0591 79.5287C61.8833 78.5627 62.7075 77.5966 63.5321 76.6301C63.7421 76.384 63.9891 76.1184 64.3124 76.0993L64.7047 76.1574Z" fill="white"/>
<path d="M82.9367 82.0503C83.1372 81.7691 83.4072 81.5868 83.5695 81.3728C83.7318 81.1589 84.0912 81.0638 84.2622 81.2708C84.4562 81.5061 84.2439 81.8493 84.0382 82.0742C84.7452 82.1037 85.2786 81.1389 85.96 81.3307C86.4053 81.4561 86.5702 82.0529 86.3918 82.48C86.2134 82.907 85.8068 83.1895 85.4062 83.4209C85.0056 83.6522 84.5764 83.8688 84.2938 84.2346C84.1458 84.4264 84.0512 84.7168 84.2109 84.8991C84.4818 85.2089 85.1176 84.8431 85.3589 85.176C85.5221 85.4012 85.3255 85.7054 85.1375 85.9107C84.4549 86.6572 83.7726 87.4032 83.0899 88.1497C82.9094 88.3472 82.7163 88.5529 82.4611 88.6332C82.2059 88.7139 81.873 88.6145 81.7927 88.3593C81.7137 88.1085 81.909 87.8498 82.1325 87.7118C82.356 87.5738 82.6203 87.5005 82.8204 87.3299C83.0205 87.1593 83.1273 86.8273 82.9454 86.6377C82.7189 86.4016 82.3278 86.599 82.0705 86.8013C81.2741 87.4271 80.4777 88.0525 79.6813 88.6783C79.506 88.8159 79.3189 88.9587 79.0976 88.9865C78.8762 89.0143 78.6184 88.8749 78.6024 88.6527C78.5941 88.5373 78.6505 88.4279 78.7083 88.3272C79.1431 87.5695 79.7481 86.9107 80.466 86.4129C80.7381 86.2245 81.0323 86.0526 81.2315 85.7883C81.4307 85.524 81.5076 85.1313 81.3084 84.867C80.8392 85.3079 80.3197 85.695 79.7629 86.0184C79.5641 86.1338 79.2794 86.2284 79.1323 86.0522C78.9804 85.8704 79.1375 85.6017 79.2916 85.4216C80.1157 84.4555 80.9403 83.4894 81.7645 82.5229C81.9745 82.2768 82.2215 82.0112 82.5448 81.9921L82.9367 82.0503Z" fill="white"/>
<path d="M75.9923 99.3287C76.1928 99.0475 76.4627 98.8652 76.6251 98.6512C76.7874 98.4373 77.1467 98.3422 77.3173 98.5492C77.5113 98.7845 77.2991 99.1278 77.0933 99.353C77.8003 99.3825 78.3337 98.4177 79.0147 98.6091C79.4599 98.7341 79.6249 99.3313 79.4465 99.7584C79.2681 100.185 78.8615 100.468 78.4609 100.699C78.0603 100.931 77.6311 101.147 77.3485 101.513C77.2005 101.705 77.1059 101.995 77.2656 102.177C77.5364 102.487 78.1723 102.121 78.4136 102.454C78.5767 102.68 78.3801 102.984 78.1922 103.189C77.5095 103.936 76.8273 104.682 76.1446 105.428C75.9641 105.626 75.7714 105.831 75.5157 105.912C75.2601 105.992 74.9277 105.893 74.8474 105.638C74.7688 105.387 74.9637 105.128 75.1872 104.99C75.4107 104.852 75.675 104.779 75.8751 104.608C76.0752 104.438 76.1819 104.106 76.0001 103.916C75.7735 103.68 75.3825 103.877 75.1251 104.08C74.3288 104.706 73.5324 105.331 72.736 105.957C72.5606 106.094 72.3736 106.237 72.1522 106.265C71.9309 106.293 71.6727 106.153 71.6571 105.931C71.6488 105.816 71.7052 105.706 71.7629 105.606C72.1978 104.848 72.8028 104.189 73.5206 103.691C73.7928 103.503 74.087 103.331 74.2862 103.067C74.4854 102.802 74.5623 102.41 74.363 102.145C73.8939 102.586 73.3744 102.973 72.8176 103.297C72.6188 103.412 72.3341 103.507 72.187 103.331C72.0351 103.149 72.1922 102.88 72.3458 102.7C73.17 101.734 73.9946 100.768 74.8187 99.8013C75.0288 99.5552 75.2757 99.2896 75.5991 99.2705L75.9923 99.3287Z" fill="white"/>
<path d="M96.7243 97.8093C96.9248 97.528 97.1947 97.3457 97.357 97.1318C97.5194 96.9178 97.8787 96.8228 98.0493 97.0298C98.2433 97.265 98.031 97.6079 97.8253 97.8331C98.5323 97.8626 99.0657 96.8979 99.7471 97.0897C100.192 97.2147 100.357 97.8119 100.179 98.2385C100.001 98.6655 99.5939 98.9481 99.1933 99.1794C98.7927 99.4107 98.3635 99.6273 98.081 99.9931C97.933 100.185 97.8383 100.475 97.9981 100.658C98.2689 100.967 98.9047 100.602 99.146 100.934C99.3092 101.16 99.1126 101.464 98.9246 101.669C98.242 102.416 97.5597 103.162 96.877 103.908C96.6965 104.106 96.5034 104.311 96.2482 104.392C95.993 104.472 95.6601 104.373 95.5798 104.118C95.5013 103.867 95.6961 103.608 95.9196 103.47C96.1431 103.332 96.4075 103.259 96.6075 103.088C96.8076 102.918 96.9144 102.586 96.7325 102.396C96.506 102.16 96.1149 102.358 95.8576 102.56C95.0612 103.186 94.2648 103.811 93.4684 104.437C93.2931 104.574 93.106 104.717 92.8847 104.745C92.6633 104.773 92.4055 104.633 92.3895 104.411C92.3812 104.296 92.4377 104.186 92.4954 104.086C92.9302 103.328 93.5352 102.669 94.2531 102.171C94.5248 101.983 94.8194 101.811 95.0186 101.547C95.2179 101.283 95.2947 100.89 95.0955 100.625C94.6263 101.066 94.1068 101.454 93.5504 101.777C93.3517 101.892 93.067 101.987 92.9198 101.811C92.7679 101.629 92.925 101.36 93.0791 101.18C93.9033 100.214 94.7279 99.248 95.552 98.2815C95.7621 98.0349 96.009 97.7698 96.3324 97.7507L96.7243 97.8093Z" fill="white"/>
<path d="M88.8079 100.133C88.801 100.137 88.7602 100.076 88.6886 99.955C88.6061 99.8105 88.5063 99.6347 88.3852 99.4225C88.1244 98.9585 87.7628 98.2789 87.3297 97.4317C86.4626 95.7382 85.3311 93.3634 84.2153 90.6821C83.1012 87.9991 82.2159 85.5214 81.6274 83.7121C81.3327 82.8076 81.1061 82.072 80.9612 81.5599C80.8961 81.3247 80.8423 81.1298 80.798 80.9692C80.7633 80.8334 80.7481 80.7613 80.7559 80.7587C80.7633 80.7565 80.7928 80.8242 80.8414 80.9558C80.8965 81.1124 80.9638 81.303 81.045 81.533C81.2298 82.0685 81.4777 82.7872 81.7788 83.6604C82.4051 85.4542 83.3122 87.9175 84.4241 90.5949C85.5373 93.2705 86.6431 95.651 87.4729 97.3601C87.8792 98.1895 88.2138 98.8721 88.4633 99.3808C88.5692 99.6008 88.6569 99.7827 88.7289 99.9324C88.7875 100.061 88.8149 100.13 88.8079 100.133Z" fill="#263238"/>
<path d="M112.354 93.4806C112.36 93.8043 110.855 94.4848 110.533 94.4536L110.154 94.3351C109.912 94.5821 109.617 94.7205 109.424 94.9067C109.23 95.0929 108.86 95.1315 108.724 94.9006C108.568 94.6385 108.831 94.3321 109.069 94.1411C108.375 94.0027 107.699 94.8733 107.056 94.579C106.635 94.3863 106.564 93.7713 106.807 93.3768C107.049 92.9823 107.494 92.7662 107.926 92.5995C108.358 92.4329 108.815 92.2853 109.151 91.9672C109.326 91.8005 109.465 91.5284 109.336 91.3236C109.116 90.9759 108.431 91.239 108.244 90.8727C108.118 90.6248 108.359 90.3549 108.576 90.1809C109.366 89.549 110.445 88.6662 111.235 88.0347C111.235 88.0347 112.326 91.9941 112.354 93.4806Z" fill="white"/>
<g opacity="0.3">
<path d="M82.1113 107.496C88.4074 104.062 94.0216 98.5371 97.0687 92.0457L82.1113 107.496Z" fill="black"/>
</g>
<g opacity="0.3">
<path d="M61.252 103.988C62.4849 101.34 64.9084 100.613 67.2668 100.646C67.3471 100.378 67.1266 100.095 66.8623 100.005C66.598 99.9146 66.3085 99.9654 66.0346 100.019C64.9019 100.242 63.7522 100.515 62.7783 101.135C61.8049 101.756 61.321 102.756 61.2893 103.91" fill="black"/>
</g>
<g opacity="0.3">
<path d="M67.8906 67.3182C69.4717 73.201 72.0049 78.7441 75.2773 83.8818C76.4869 82.023 77.0133 79.7306 76.7364 77.5302C77.6378 78.7116 78.9099 79.606 80.326 80.0543C78.6534 77.7611 76.9187 75.5746 74.7465 73.7475C74.7465 73.7475 74.5603 81.1168 74.5681 80.9241C72.2944 76.364 70.0893 71.87 67.8906 67.3182Z" fill="black"/>
</g>
<path d="M87.0138 46.8329C86.3658 48.9361 85.4453 50.5588 83.4064 51.3865C81.6227 52.1104 79.6054 51.9732 77.7201 51.5848C71.5981 50.3236 65.1701 47.0603 61.9199 41.7213L63.6733 37.9351C65.5095 35.0503 69.998 31.6282 75.2055 33.3212C75.2055 33.3212 79.3915 31.8109 83.3665 35.2074C87.3419 38.6034 87.0138 46.8329 87.0138 46.8329Z" fill="#263238"/>
<path d="M72.302 36.206C68.725 35.7573 64.1098 40.1168 63.8134 43.7094C63.484 47.7009 63.2392 52.5873 63.655 55.5785C64.4909 61.5933 69.0717 62.4457 69.0717 62.4457L68.8504 65.5049L82.5505 62.8736L83.1381 41.4197L83.2141 39.4849L72.302 36.206Z" fill="#FFBE9D"/>
<path d="M66.0382 48.0399C66.016 48.4457 66.3411 48.799 66.7647 48.8302C67.1874 48.861 67.5485 48.5581 67.5706 48.1523C67.5928 47.7465 67.2677 47.3928 66.845 47.3616C66.4218 47.3303 66.0607 47.6341 66.0382 48.0399Z" fill="#263238"/>
<path d="M65.0312 46.2813C65.1246 46.3833 65.7157 45.9636 66.5433 45.9819C67.3701 45.9884 67.969 46.4258 68.061 46.326C68.1061 46.2822 68.0124 46.099 67.7516 45.9016C67.4951 45.705 67.0546 45.5097 66.539 45.5019C66.0234 45.4945 65.5863 45.6759 65.3333 45.8656C65.0746 46.0556 64.9848 46.2358 65.0312 46.2813Z" fill="#263238"/>
<path d="M73.7647 48.3376C73.7426 48.7434 74.0677 49.0967 74.4913 49.1279C74.914 49.1588 75.2751 48.8558 75.2972 48.45C75.3193 48.0442 74.9943 47.6901 74.5715 47.6593C74.1484 47.628 73.7869 47.9318 73.7647 48.3376Z" fill="#263238"/>
<path d="M73.1638 46.5938C73.2576 46.6958 73.8491 46.2761 74.6759 46.2943C75.5027 46.3008 76.1016 46.7383 76.1936 46.6385C76.2383 46.5947 76.1459 46.412 75.8842 46.214C75.6277 46.017 75.1872 45.8221 74.672 45.8143C74.1564 45.807 73.7194 45.9884 73.4659 46.1776C73.2081 46.3681 73.1178 46.5478 73.1638 46.5938Z" fill="#263238"/>
<path d="M70.0415 52.672C70.0462 52.6251 69.5333 52.5262 68.7022 52.4033C68.4912 52.3773 68.292 52.3317 68.2595 52.1868C68.2126 52.0331 68.3055 51.807 68.4127 51.5631C68.621 51.0553 68.8397 50.5237 69.0689 49.9664C69.9811 47.6923 70.6456 45.8209 70.554 45.7848C70.462 45.7488 69.6478 47.5629 68.736 49.8371C68.5164 50.3978 68.3059 50.9325 68.1063 51.4442C68.0216 51.6829 67.8788 51.9524 67.9804 52.2714C68.0342 52.4302 68.1874 52.5478 68.322 52.5869C68.4565 52.6307 68.5754 52.6355 68.6796 52.6438C69.5172 52.7054 70.0371 52.7193 70.0415 52.672Z" fill="#263238"/>
<path d="M69.0731 62.4617C69.0731 62.4617 73.3068 62.792 77.3499 60.467C77.3499 60.467 75.1582 64.6083 68.9629 63.9386L69.0731 62.4617Z" fill="#77574A"/>
<path d="M70.3519 54.6731C70.6574 54.2856 71.1826 54.0794 71.6995 54.1454C72.0579 54.191 72.4173 54.3711 72.6295 54.6679C72.8422 54.9644 72.8795 55.3806 72.676 55.6557C72.4464 55.9652 71.9785 56.0285 71.5857 55.9092C71.1925 55.789 70.8579 55.5225 70.5402 55.2573C70.4526 55.184 70.3627 55.1071 70.3085 55.0078C70.2547 54.9084 70.2456 54.7799 70.3159 54.6996" fill="#77574A"/>
<path d="M72.4653 53.2921C72.3307 53.2817 72.3116 54.1797 71.5304 54.8025C70.7505 55.427 69.7948 55.3076 69.7857 55.4331C69.7723 55.4891 69.9958 55.6114 70.3994 55.6305C70.7956 55.6518 71.3772 55.5359 71.855 55.1549C72.3316 54.773 72.5434 54.2552 72.5811 53.8872C72.6228 53.5122 72.5269 53.2878 72.4653 53.2921Z" fill="#263238"/>
<path d="M73.0115 43.3466C73.0888 43.5732 73.9173 43.4825 74.8855 43.6183C75.8568 43.7346 76.6341 44.0341 76.7669 43.8349C76.8264 43.7394 76.694 43.5254 76.3815 43.3011C76.0721 43.0775 75.5752 42.861 74.9936 42.7846C74.412 42.7095 73.8765 42.792 73.5202 42.9287C73.1617 43.0658 72.979 43.2394 73.0115 43.3466Z" fill="#263238"/>
<path d="M65.3832 43.8926C65.5251 44.0831 66.0989 43.8991 66.7846 43.9034C67.4703 43.8835 68.048 44.0545 68.1855 43.8605C68.2459 43.7663 68.1582 43.5762 67.9078 43.3935C67.6613 43.2112 67.2459 43.0584 66.7746 43.0632C66.3033 43.0689 65.8919 43.2316 65.6497 43.4191C65.404 43.6075 65.3207 43.7997 65.3832 43.8926Z" fill="#263238"/>
<path d="M82.6567 38.8868C82.1759 37.8765 80.9893 37.4598 79.9377 37.077C78.4548 36.5372 77.0143 35.8749 75.4992 35.4326C73.9841 34.9904 72.361 34.7738 70.8272 35.1479C69.2435 35.5342 67.8712 36.5181 66.6591 37.6078C65.0615 39.0439 63.6115 40.8051 63.2148 42.9165L63.2214 43.6413C66.6651 42.6622 70.0868 39.0669 72.581 36.4985C74.718 39.4936 78.2937 44.8231 81.445 46.129C81.6598 44.5991 82.7709 42.3766 82.8711 40.8346C82.9141 40.1749 82.9406 39.4831 82.6567 38.8868Z" fill="#263238"/>
<path d="M94.2312 63.1036C93.9977 61.9062 92.8141 61.1823 91.7773 60.5395C90.7401 59.8968 89.6273 58.9745 89.6863 57.7558C89.7484 56.4808 91.1072 55.4882 90.9952 54.2166C90.8776 52.8816 89.3013 52.2653 88.462 51.2202C87.2498 49.7104 87.015 48.7694 87.0142 46.8329C87.0124 43.0424 85.4973 38.0948 82.1634 36.2911L77.8008 39.9497C79.0663 43.489 80.3518 47.1866 79.9078 50.919C79.6444 53.1337 78.7747 55.2886 78.9001 57.5158C79.0346 59.9041 80.2985 62.0833 80.7294 64.4364C81.1378 66.6672 80.7845 68.9622 80.9008 71.2272C81.0167 73.4918 81.7597 75.9435 83.6832 77.1448C86.0989 75.9882 88.5141 74.8316 90.9297 73.6754C91.7131 73.3 92.5984 72.7918 92.7113 71.9303C92.8272 71.0462 92.0572 70.3015 91.8541 69.433C91.3247 67.1658 94.6764 65.3886 94.2312 63.1036Z" fill="#263238"/>
<path d="M86.8944 44.5879C86.9018 44.6165 86.4938 44.7588 85.8194 44.945C85.1454 45.1247 84.1993 45.3591 83.123 45.4263C82.0453 45.494 81.0684 45.3296 80.3948 45.133C79.7191 44.9346 79.3289 44.7411 79.338 44.7185C79.3567 44.6278 80.9899 45.3426 83.1099 45.2007C84.1607 45.1351 85.1011 44.929 85.7821 44.7892C86.463 44.6438 86.8862 44.5562 86.8944 44.5879Z" fill="#455A64"/>
<path d="M87.0335 45.981C87.0452 46.0018 86.692 46.2427 86.0579 46.5152C85.426 46.7856 84.4903 47.0564 83.4291 47.079C82.3684 47.1007 81.4262 46.8989 80.7666 46.7157C80.1056 46.527 79.7145 46.3612 79.7228 46.3356C79.7332 46.3021 80.1416 46.4137 80.8052 46.5608C81.4679 46.7027 82.3949 46.8742 83.4244 46.8533C84.4538 46.8308 85.3643 46.5938 86.0006 46.3664C86.6368 46.1368 87.0157 45.9471 87.0335 45.981Z" fill="#455A64"/>
<path d="M61.5862 43.7363C61.5971 43.6712 62.1144 43.7207 62.7394 43.6426C63.3652 43.5705 63.856 43.3995 63.8821 43.4603C63.9094 43.5124 63.4316 43.7893 62.7663 43.867C62.1018 43.9494 61.5719 43.7936 61.5862 43.7363Z" fill="#455A64"/>
<path d="M61.3679 44.4255C61.4082 44.3726 61.8691 44.6881 62.508 44.9047C63.1447 45.1282 63.7019 45.1642 63.7011 45.2306C63.7067 45.2888 63.1143 45.3556 62.4342 45.1182C61.7524 44.8856 61.3275 44.4672 61.3679 44.4255Z" fill="#455A64"/>
<path d="M81.6622 74.2326C81.6622 74.2326 81.5467 74.2222 81.3458 74.1398C81.1453 74.0595 80.8562 73.8985 80.5724 73.5929C80.2877 73.2935 80.0147 72.8343 79.9218 72.2436C79.878 71.9494 79.8906 71.6217 79.9878 71.2949C80.0829 70.9681 80.256 70.6543 80.4457 70.341C80.6353 70.0268 80.848 69.7099 81.0047 69.3541C81.1557 68.9977 81.2473 68.5998 81.2516 68.1814C81.2568 67.3425 80.9526 66.4601 80.4761 65.6386C80.0034 64.8105 79.3316 64.0467 78.7062 63.196C78.0812 62.3545 77.4854 61.3741 77.3027 60.2396C77.1004 59.1156 77.2449 57.9945 77.4945 56.9681C77.7523 55.9369 78.1398 54.99 78.5122 54.099C78.8872 53.2079 79.2504 52.3673 79.5256 51.5583C79.8038 50.7506 79.99 49.9764 80.0776 49.2559C80.269 47.8159 80.1241 46.6242 79.8745 45.8564C79.6319 45.0783 79.3121 44.7345 79.3398 44.7185C79.3459 44.7137 79.4158 44.8022 79.5443 44.9771C79.6588 45.1599 79.8251 45.4367 79.9579 45.8282C80.2382 46.602 80.4101 47.8125 80.2361 49.2755C80.1571 50.0072 79.9765 50.7988 79.7031 51.6182C79.4323 52.4389 79.0734 53.2878 78.7045 54.1792C78.3377 55.0711 77.9593 56.0099 77.7093 57.0215C77.4671 58.0293 77.3304 59.1203 77.5253 60.2001C77.7002 61.2864 78.2683 62.2278 78.885 63.0645C79.5009 63.9078 80.174 64.6786 80.657 65.5344C81.1405 66.3803 81.4526 67.2965 81.4391 68.1835C81.4304 68.6254 81.3289 69.049 81.1644 69.4244C80.9943 69.7976 80.7738 70.1162 80.582 70.4243C80.3897 70.7316 80.2196 71.0306 80.1254 71.3366C80.0295 71.6399 80.0112 71.9463 80.0473 72.2263C80.1236 72.7874 80.3732 73.2362 80.6384 73.5339C81.1813 74.1424 81.6847 74.1988 81.6622 74.2326Z" fill="#263238"/>
<path d="M75.4172 33.2578C75.4441 33.3234 74.4728 33.5699 73.6821 34.4448C72.874 35.3046 72.7078 36.2928 72.6405 36.2711C72.6149 36.2676 72.6158 36.0181 72.7321 35.6344C72.8462 35.2525 73.0997 34.7447 73.5159 34.2916C73.9338 33.8398 74.4186 33.546 74.7901 33.4011C75.1633 33.2539 75.412 33.2327 75.4172 33.2578Z" fill="#455A64"/>
<path d="M98.4158 74.0521L95.4581 69.397L95.2559 64.8183L96.4142 61.6857C96.4142 61.6857 97.3391 61.4648 97.4914 62.5685C97.6442 63.6721 97.149 65.0067 97.149 65.0067L97.7817 67.2301C97.7817 67.2301 97.9905 67.4675 98.1871 66.5444C98.3837 65.6212 98.0417 58.7666 98.0378 58.294C98.0339 57.8209 98.0712 56.7021 98.77 56.805C99.4687 56.9078 99.6896 57.8327 99.6935 58.3053C99.6974 58.7784 100.204 63.3753 100.204 63.3753C100.204 63.3753 100.367 63.7893 100.533 63.7299C100.699 63.6704 100.387 58.7957 100.354 58.0245C100.321 57.2533 100.151 55.549 101.055 55.5451C101.958 55.5416 101.958 56.4022 102.008 57.344C102.058 58.2858 102.649 63.5628 102.649 63.5628C102.649 63.5628 102.787 63.8935 102.915 63.4504C103.043 63.0073 103.205 57.268 103.308 56.9998C103.41 56.7316 103.935 56.3783 104.343 57.0263C104.752 57.6743 104.656 59.1881 104.599 61.8658C104.548 64.2758 104.474 65.2753 104.75 65.4628C105.027 65.6503 106.042 64.1712 106.042 64.1712C106.042 64.1712 107.276 60.9952 108.32 61.1068C109.363 61.2183 108.663 62.0329 108.485 62.7686C108.333 63.3926 106.506 67.1198 106.467 67.1546C106.427 67.1893 104.633 73.8221 104.633 73.8221L108.597 81.4049C109.288 82.7269 109.584 84.2329 109.367 85.7089C109.128 87.3286 108.297 89.1327 105.924 89.8736C104.172 90.4204 102.885 89.6362 102.036 88.7157C101.293 87.9102 100.823 86.8907 100.635 85.8109C100.125 82.8871 98.4158 74.0521 98.4158 74.0521Z" fill="#FFBE9D"/>
<path d="M101.365 70.7094C101.327 70.706 101.372 70.357 101.273 69.8163C101.176 69.2816 100.899 68.5447 100.31 67.9557C99.8655 67.4926 99.2935 67.2492 98.8179 67.1975C98.3348 67.1437 97.9772 67.3121 97.8032 67.4258L97.7624 67.4527L97.7441 67.415C97.6851 67.2904 97.6608 67.2231 97.673 67.2162C97.6851 67.2092 97.7324 67.2626 97.8131 67.3746L97.7541 67.3637C97.9082 67.2092 98.2962 66.9805 98.8322 67.0139C99.3565 67.0421 99.9897 67.2973 100.47 67.7969C101.102 68.4292 101.371 69.2278 101.431 69.7933C101.493 70.367 101.388 70.7155 101.365 70.7094Z" fill="#77574A"/>
<path d="M103.863 67.1932C103.902 67.2461 103.502 67.5903 103.111 68.0981C102.715 68.6024 102.48 69.0754 102.419 69.0503C102.363 69.032 102.514 68.4939 102.932 67.9592C103.347 67.4223 103.832 67.1437 103.863 67.1932Z" fill="#77574A"/>
<path d="M63.76 108.65C63.7887 108.939 63.7613 111.663 65.8797 113.883C67.9985 116.103 68.9502 116.883 68.9502 116.883L76.4237 120.237C76.4237 120.237 78.3719 120.533 80.3375 118.625C81.5592 117.44 81.8561 116.672 81.8561 116.672C81.8561 116.672 84.0981 117.674 84.9731 117.636C86.4474 117.572 86.2156 116.531 86.2156 116.531C86.2156 116.531 81.2806 113.813 80.1071 112.763C78.934 111.713 75.5605 111.022 73.1618 111.335L71.7738 111.063L71.2721 109.197C71.2721 109.197 68.564 105.161 66.0797 106.573C63.5968 107.986 63.76 108.65 63.76 108.65Z" fill="#FFBE9D"/>
<path d="M209.091 215.121C209.091 215.187 164.274 215.241 109.003 215.241C53.7119 215.241 8.9043 215.187 8.9043 215.121C8.9043 215.054 53.7114 215 109.003 215C164.274 215 209.091 215.054 209.091 215.121Z" fill="#263238"/>
</svg>
