<svg width="51" height="51" viewBox="0 0 51 51" fill="none" xmlns="http://www.w3.org/2000/svg">
<g clip-path="url(#clip0_1155_15711)">
<path d="M24.9315 20.793V19.2225C24.9315 17.1686 23.9221 15.3471 22.3734 14.2248C22.9921 13.4409 23.3629 12.4529 23.3629 11.3791C23.3629 8.84077 21.298 6.77588 18.7601 6.77588C16.2218 6.77588 14.1569 8.84077 14.1569 11.3787C14.1569 12.4525 14.5277 13.4405 15.146 14.2245C13.5976 15.3467 12.5879 17.1683 12.5879 19.2225V20.793C12.5879 21.6021 13.2436 22.2578 14.0527 22.2578H23.4666C24.2757 22.2578 24.9315 21.6021 24.9315 20.793ZM18.7597 9.70557C19.6825 9.70557 20.4328 10.4563 20.4328 11.3791C20.4328 12.3015 19.6825 13.0522 18.7597 13.0522C17.8373 13.0522 17.0866 12.3015 17.0866 11.3787C17.0866 10.4563 17.8373 9.70557 18.7597 9.70557ZM22.0018 19.3281H15.5176V19.2225C15.5176 17.4353 16.9714 15.9815 18.7612 15.9815C20.548 15.9815 22.0018 17.4353 22.0018 19.2225V19.3281Z" fill="#1D6C86"/>
<path d="M36.02 25.6042H25.0371C24.228 25.6042 23.5723 26.26 23.5723 27.0691C23.5723 27.8782 24.228 28.5339 25.0371 28.5339H36.02C36.8291 28.5339 37.4848 27.8782 37.4848 27.0691C37.4848 26.26 36.8291 25.6042 36.02 25.6042Z" fill="#1D6C86"/>
<path d="M18.7597 25.6042H14.0527C13.2436 25.6042 12.5879 26.26 12.5879 27.0691C12.5879 27.8782 13.2436 28.5339 14.0527 28.5339H18.7597C19.5688 28.5339 20.2245 27.8782 20.2245 27.0691C20.2245 26.26 19.5688 25.6042 18.7597 25.6042Z" fill="#1D6C86"/>
<path d="M36.02 31.8801H25.0371C24.228 31.8801 23.5723 32.5363 23.5723 33.345C23.5723 34.1541 24.228 34.8098 25.0371 34.8098H36.02C36.8291 34.8098 37.4848 34.1541 37.4848 33.345C37.4848 32.5363 36.8291 31.8801 36.02 31.8801Z" fill="#1D6C86"/>
<path d="M18.7597 31.8801H14.0527C13.2436 31.8801 12.5879 32.5363 12.5879 33.345C12.5879 34.1541 13.2436 34.8098 14.0527 34.8098H18.7597C19.5688 34.8098 20.2245 34.1541 20.2245 33.345C20.2245 32.5363 19.5688 31.8801 18.7597 31.8801Z" fill="#1D6C86"/>
<path d="M36.02 38.1565H25.0371C24.228 38.1565 23.5723 38.8122 23.5723 39.6213C23.5723 40.4301 24.228 41.0862 25.0371 41.0862H36.02C36.8291 41.0862 37.4848 40.4301 37.4848 39.6213C37.4848 38.8122 36.8291 38.1565 36.02 38.1565Z" fill="#1D6C86"/>
<path d="M18.7597 38.1565H14.0527C13.2436 38.1565 12.5879 38.8122 12.5879 39.6213C12.5879 40.4301 13.2436 41.0862 14.0527 41.0862H18.7597C19.5688 41.0862 20.2245 40.4301 20.2245 39.6213C20.2245 38.8122 19.5688 38.1565 18.7597 38.1565Z" fill="#1D6C86"/>
<path d="M43.3315 8.77408L35.4862 0.929153C35.2115 0.654114 34.8392 0.5 34.4505 0.5H10.9153C8.39571 0.5 6.3125 2.5359 6.3125 5.10281V45.8972C6.3125 48.4172 8.34917 50.5 10.9153 50.5H39.1574C41.677 50.5 43.7606 48.4641 43.7606 45.8972V9.80977C43.7602 9.42143 43.6061 9.04874 43.3315 8.77408ZM40.3282 9.91391H34.3463V3.93208L40.3282 9.91391ZM39.1574 47.5703H10.9153C9.9933 47.5703 9.24219 46.8245 9.24219 45.8972V5.10281C9.24219 4.17928 9.98987 3.42969 10.9153 3.42969H31.4166V11.3788C31.4166 12.1879 32.0724 12.8436 32.8815 12.8436H40.8306V45.8972C40.8306 46.8207 40.0829 47.5703 39.1574 47.5703Z" fill="#1D6C86"/>
</g>
<defs>
<clipPath id="clip0_1155_15711">
<rect width="50" height="50" fill="white" transform="translate(0.0625 0.5)"/>
</clipPath>
</defs>
</svg>
