<svg width="201" height="193" viewBox="0 0 201 193" fill="none" xmlns="http://www.w3.org/2000/svg">
<path d="M27.2441 169.46V172.95H53.3678V169.46H27.2441Z" fill="#E0E0E0"/>
<path d="M30.8029 169.605C30.8934 169.605 30.9672 170.337 30.9672 171.24C30.9672 172.143 30.8934 172.875 30.8029 172.875C30.712 172.875 30.6387 172.143 30.6387 171.24C30.6387 170.337 30.7124 169.605 30.8029 169.605Z" fill="#FAFAFA"/>
<path d="M30.2346 169.534C30.3255 169.534 30.3988 170.266 30.3988 171.169C30.3988 172.072 30.3255 172.804 30.2346 172.804C30.1441 172.804 30.0703 172.072 30.0703 171.169C30.0703 170.266 30.1441 169.534 30.2346 169.534Z" fill="#FAFAFA"/>
<path d="M51.3479 169.605C51.4388 169.605 51.5121 170.337 51.5121 171.24C51.5121 172.143 51.4388 172.875 51.3479 172.875C51.2574 172.875 51.1836 172.143 51.1836 171.24C51.1841 170.337 51.2574 169.605 51.3479 169.605Z" fill="#FAFAFA"/>
<path d="M50.7795 169.534C50.87 169.534 50.9437 170.266 50.9437 171.169C50.9437 172.072 50.87 172.804 50.7795 172.804C50.689 172.804 50.6152 172.072 50.6152 171.169C50.6152 170.266 50.6885 169.534 50.7795 169.534Z" fill="#FAFAFA"/>
<path d="M47.3665 171.311C47.3665 171.402 44.3742 171.475 40.6845 171.475C36.9934 171.475 34.002 171.402 34.002 171.311C34.002 171.221 36.9934 171.147 40.6845 171.147C44.3742 171.147 47.3665 171.221 47.3665 171.311Z" fill="#FAFAFA"/>
<path d="M27.1309 185.174V192.154H53.2545V185.174H27.1309Z" fill="#E0E0E0"/>
<path d="M53.5886 190.19C53.5909 190.196 53.5431 190.223 53.4466 190.272C53.351 190.321 53.2053 190.389 53.0113 190.471C52.623 190.629 52.0369 190.854 51.2402 190.977C50.457 191.089 49.4061 191.12 48.3662 190.57C47.8558 190.297 47.3705 189.882 47.0011 189.333C46.6402 188.784 46.4081 188.067 46.526 187.322C46.5886 186.951 46.7436 186.585 47.0062 186.283C47.2614 185.98 47.6712 185.756 48.1078 185.782C48.5453 185.802 48.9407 186.053 49.2149 186.38C49.4914 186.707 49.6812 187.127 49.7202 187.57C49.8237 188.455 49.4511 189.373 48.8196 190.044C48.1983 190.739 47.2693 191.163 46.3093 191.271C45.3428 191.386 44.3434 191.233 43.3949 190.909C42.447 190.582 41.5102 190.05 40.849 189.198C40.5246 188.774 40.2903 188.249 40.2555 187.691C40.2073 187.135 40.3845 186.537 40.8118 186.123C41.0244 185.917 41.3213 185.778 41.629 185.765C41.937 185.75 42.2345 185.85 42.4832 186.005C42.9871 186.318 43.3091 186.853 43.4446 187.413C43.69 188.555 43.2386 189.744 42.4145 190.488C41.5881 191.24 40.5061 191.573 39.4732 191.685C38.4334 191.789 37.3875 191.712 36.4243 191.385C35.4647 191.066 34.6017 190.434 34.1047 189.582C33.5994 188.749 33.4338 187.694 33.8143 186.809C33.9929 186.37 34.3966 185.982 34.8801 185.907C35.351 185.819 35.8327 185.949 36.196 186.225C36.9333 186.81 37.0562 187.813 36.8182 188.576C36.5765 189.361 36.0484 189.963 35.5014 190.431C34.3845 191.374 33.0626 191.782 31.9188 191.822C30.763 191.863 29.7914 191.544 29.0805 191.177C28.3646 190.805 27.8932 190.382 27.6004 190.08C27.4565 189.926 27.3512 189.805 27.2876 189.718C27.2222 189.632 27.1911 189.586 27.1958 189.583C27.2292 189.537 27.7187 190.345 29.1381 191.063C29.8424 191.405 30.7941 191.696 31.9109 191.639C33.0171 191.582 34.2889 191.17 35.3506 190.254C35.8726 189.8 36.3635 189.219 36.5755 188.504C36.789 187.812 36.6502 186.916 36.0322 186.441C35.7301 186.214 35.3148 186.107 34.9339 186.182C34.5465 186.247 34.2393 186.542 34.0797 186.924C33.7502 187.699 33.8945 188.66 34.365 189.425C34.8267 190.208 35.6183 190.786 36.5268 191.087C37.4344 191.393 38.4441 191.467 39.4393 191.364C40.4281 191.256 41.4424 190.934 42.195 190.246C42.9379 189.579 43.3434 188.486 43.1249 187.487C43.0066 186.998 42.7263 186.54 42.3101 186.283C41.9022 186.013 41.3691 186.021 41.0364 186.361C40.6991 186.686 40.5358 187.192 40.5803 187.669C40.61 188.153 40.8118 188.617 41.1065 189.004C41.7055 189.782 42.5945 190.299 43.497 190.612C44.4097 190.926 45.3655 191.074 46.2745 190.97C47.1816 190.869 48.0303 190.486 48.6098 189.846C49.1987 189.228 49.5388 188.39 49.4511 187.599C49.3875 186.831 48.8019 186.083 48.0962 186.035C47.7482 186.012 47.415 186.183 47.1895 186.444C46.9598 186.703 46.8146 187.031 46.7566 187.361C46.6429 188.034 46.8448 188.698 47.1779 189.218C47.518 189.739 47.9746 190.142 48.4562 190.409C49.4311 190.947 50.4556 190.943 51.2245 190.851C52.0082 190.75 52.5961 190.547 52.9891 190.409C53.3807 190.266 53.583 190.178 53.5886 190.19Z" fill="#FAFAFA"/>
<path d="M29.4648 173.052V185.162H53.2555V173.052H29.4648Z" fill="#EBEBEB"/>
<path d="M33.4182 173.467C33.5091 173.467 33.5824 176.091 33.5824 179.328C33.5824 182.566 33.5091 185.189 33.4182 185.189C33.3272 185.189 33.2539 182.566 33.2539 179.328C33.2539 176.091 33.3272 173.467 33.4182 173.467Z" fill="#E0E0E0"/>
<path d="M35.2209 173.317C35.3118 173.317 35.3852 175.908 35.3852 179.102C35.3852 182.298 35.3114 184.888 35.2209 184.888C35.1304 184.888 35.0566 182.298 35.0566 179.102C35.0566 175.908 35.1304 173.317 35.2209 173.317Z" fill="#E0E0E0"/>
<path d="M50.5666 172.928C50.6575 172.928 50.7309 175.656 50.7309 179.021C50.7309 182.387 50.6575 185.114 50.5666 185.114C50.4761 185.114 50.4023 182.386 50.4023 179.021C50.4023 175.656 50.4761 172.928 50.5666 172.928Z" fill="#E0E0E0"/>
<path d="M48.4455 173.091C48.536 173.091 48.6098 175.749 48.6098 179.027C48.6098 182.306 48.536 184.963 48.4455 184.963C48.355 184.963 48.2812 182.306 48.2812 179.027C48.2812 175.749 48.3546 173.091 48.4455 173.091Z" fill="#E0E0E0"/>
<path d="M176.506 146.615C178.973 145.343 181.877 145.177 184.615 145.63C186.086 145.873 187.619 146.313 188.62 147.418C189.621 148.523 189.811 150.467 188.661 151.417C187.977 151.982 187.023 152.068 186.136 152.058C183.993 152.032 181.614 151.655 179.902 152.945C178.925 153.681 178.275 154.904 177.106 155.266C175.964 155.62 174.674 154.945 174.068 153.914C173.462 152.883 173.442 151.594 173.724 150.431C173.724 150.431 174.022 147.897 176.506 146.615Z" fill="#EBEBEB"/>
<path d="M170.855 135.708C172.363 137.861 175.294 137.148 176.653 135.834C178.013 134.519 178.587 132.614 179.11 130.797C180.305 126.645 181.509 122.29 180.621 118.062C180.355 116.798 179.882 115.537 178.994 114.599C178.106 113.662 176.74 113.104 175.492 113.434C174.014 113.824 173.095 115.272 172.432 116.649C170.48 120.696 169.447 125.183 169.432 129.676C169.424 131.775 169.672 133.975 170.855 135.708Z" fill="#EBEBEB"/>
<path d="M166.714 138.798C168.352 136.855 168.662 134.02 167.934 131.586C167.205 129.152 165.559 127.081 163.662 125.39C161.438 123.408 158.823 121.865 156.013 120.877C154.906 120.488 153.74 120.181 152.572 120.293C151.405 120.404 150.23 121.001 149.685 122.039C148.88 123.574 149.652 125.436 150.487 126.956C151.958 129.633 153.64 132.193 155.511 134.606C157.018 136.548 158.742 138.463 161.037 139.34C163.332 140.218 165.716 140.115 166.933 138.523" fill="#EBEBEB"/>
<path d="M170.754 168.198C170.782 168.2 170.828 167.851 170.891 167.22C170.96 166.507 171.047 165.613 171.15 164.549C171.275 163.425 171.439 162.087 171.751 160.631C172.063 159.178 172.55 157.604 173.175 156.007C173.823 154.419 174.613 152.977 175.537 151.823C176.453 150.664 177.519 149.825 178.522 149.341C179.521 148.848 180.416 148.648 181.035 148.559C181.66 148.494 182.01 148.445 182.01 148.417C182.01 148.39 181.66 148.385 181.018 148.402C180.383 148.444 179.45 148.605 178.397 149.084C177.341 149.553 176.209 150.404 175.248 151.587C174.279 152.766 173.46 154.24 172.8 155.856C172.164 157.481 171.684 159.071 171.387 160.556C171.09 162.038 170.955 163.39 170.866 164.523C170.781 165.657 170.749 166.576 170.734 167.21C170.719 167.845 170.727 168.197 170.754 168.198Z" fill="#E0E0E0"/>
<path d="M170.938 166.143C170.952 166.143 170.961 165.986 170.965 165.689C170.964 165.348 170.963 164.918 170.961 164.39C170.958 163.263 170.959 161.632 171.019 159.618C171.119 155.59 171.466 151.255 172.136 145.144C172.77 139.397 173.621 132.709 174.52 128.361C174.713 127.372 174.907 126.481 175.089 125.702C175.263 124.921 175.412 124.248 175.556 123.703C175.679 123.19 175.779 122.772 175.859 122.441C175.924 122.151 175.952 121.996 175.939 121.993C175.925 121.988 175.871 122.135 175.781 122.419C175.682 122.745 175.557 123.157 175.404 123.663C175.237 124.203 175.065 124.872 174.87 125.65C174.665 126.426 174.451 127.314 174.24 128.301C173.351 132.242 172.41 137.748 171.734 143.874C171.062 149.999 170.76 155.575 170.733 159.613C170.709 161.632 170.752 163.267 170.804 164.394C170.836 164.922 170.862 165.352 170.883 165.692C170.906 165.989 170.924 166.144 170.938 166.143Z" fill="#E0E0E0"/>
<path d="M170.965 155.388C170.993 155.387 170.988 154.905 170.956 154.031C170.905 153.159 170.786 151.899 170.54 150.356C170.28 148.816 169.916 146.987 169.345 145.001C169.098 144.093 168.515 141.916 167.106 138.664C165.248 134.258 162.725 130.656 160.53 128.425C160.015 127.833 159.441 127.405 158.983 126.987C158.745 126.786 158.535 126.586 158.322 126.428C158.107 126.28 157.907 126.142 157.722 126.014C156.999 125.52 156.595 125.259 156.58 125.282C156.515 125.371 158.198 126.361 160.323 128.622C162.44 130.879 164.893 134.456 166.736 138.825C167.763 141.195 168.479 143.309 168.988 145.103C169.575 147.07 169.965 148.881 170.26 150.405C170.54 151.933 170.702 153.18 170.8 154.044C170.879 154.909 170.937 155.389 170.965 155.388Z" fill="#E0E0E0"/>
<path d="M159.85 172.726L160.927 187.491H179.895L180.973 172.726H159.85Z" fill="#EBEBEB"/>
<path d="M183.234 166.907H158.016V172.726H183.234V166.907Z" fill="#EBEBEB"/>
<path d="M158.016 186.926V188.54H159.201H182.818V186.926H158.016Z" fill="#E0E0E0"/>
<path d="M160.363 191.2L159.201 188.361H181.915L180.56 191.2H160.363Z" fill="#E0E0E0"/>
<path d="M180.62 177.552C180.624 177.556 180.594 177.602 180.531 177.687C180.456 177.787 180.363 177.911 180.248 178.063C179.978 178.408 179.608 178.882 179.143 179.478L179.094 179.541L179.046 179.475C178.351 178.514 177.423 177.231 176.331 175.72H176.487C175.68 176.863 174.78 178.137 173.815 179.505L173.731 179.623L173.637 179.511C172.651 178.338 171.579 177.063 170.468 175.74L170.65 175.738C170.595 175.807 170.536 175.882 170.476 175.957C169.493 177.189 168.541 178.382 167.642 179.51L167.547 179.628L167.46 179.505C166.498 178.144 165.599 176.872 164.786 175.722L164.941 175.729C163.624 177.23 162.506 178.504 161.648 179.481L161.589 179.548L161.545 179.472C161.111 178.743 160.764 178.162 160.514 177.74C160.406 177.552 160.319 177.4 160.249 177.279C160.191 177.173 160.163 177.117 160.169 177.114C160.174 177.111 160.211 177.161 160.279 177.26C160.356 177.377 160.453 177.523 160.572 177.704C160.835 178.118 161.199 178.689 161.654 179.405L161.551 179.397C162.395 178.408 163.495 177.119 164.792 175.599L164.874 175.503L164.947 175.606C165.767 176.751 166.674 178.017 167.645 179.373L167.464 179.368C168.362 178.238 169.311 177.043 170.292 175.809C170.352 175.734 170.411 175.659 170.466 175.59L170.556 175.477L170.649 175.588C171.758 176.914 172.826 178.19 173.81 179.367L173.632 179.374C174.608 178.013 175.516 176.746 176.332 175.608L176.411 175.498L176.488 175.608C177.557 177.135 178.465 178.433 179.145 179.404L179.049 179.401C179.533 178.821 179.918 178.359 180.198 178.023C180.323 177.879 180.424 177.761 180.506 177.667C180.577 177.588 180.615 177.548 180.62 177.552Z" fill="#F5F5F5"/>
<path d="M181.237 172.629C181.237 172.694 176.484 172.747 170.623 172.747C164.76 172.747 160.008 172.694 160.008 172.629C160.008 172.564 164.76 172.511 170.623 172.511C176.484 172.511 181.237 172.564 181.237 172.629Z" fill="#F5F5F5"/>
<path d="M73.095 18.8237C73.0931 18.8278 73.0564 18.8162 72.9868 18.7902C72.9033 18.7573 72.8026 18.7179 72.6797 18.6696C72.3915 18.5499 72.0008 18.387 71.5085 18.1824C70.4743 17.7393 69.0145 17.1147 67.2203 16.3464C63.5904 14.765 58.6117 12.5958 53.1114 10.1998C52.9439 10.1264 52.7769 10.0531 52.6223 9.98538L52.724 9.98585C47.3165 12.2984 42.445 14.3813 38.8995 15.8972C37.148 16.6331 35.7249 17.2312 34.7166 17.6548C34.2373 17.8506 33.8568 18.0056 33.5761 18.1202C33.3144 18.2242 33.1752 18.2747 33.1719 18.2664C33.1687 18.2585 33.3009 18.1922 33.5561 18.0734C33.8327 17.9481 34.2062 17.7783 34.6781 17.5644C35.6789 17.1231 37.0909 16.4999 38.8295 15.733C42.367 14.199 47.2279 12.091 52.6237 9.75106L52.6748 9.72879L52.7258 9.75106C52.8803 9.81881 53.0474 9.89212 53.2149 9.96543C58.7035 12.388 63.672 14.5813 67.294 16.1802C69.0749 16.9797 70.523 17.6298 71.5498 18.091C72.0343 18.3146 72.4184 18.4914 72.702 18.6223C72.8207 18.6798 72.9182 18.7271 72.9989 18.7666C73.0639 18.8005 73.0968 18.8199 73.095 18.8237Z" fill="#E0E0E0"/>
<path d="M95.1052 16.7978H4.48828V84.6471H95.1052V16.7978Z" fill="#E0E0E0"/>
<path d="M92.2778 19.9526H7.65625V81.859H92.2778V19.9526Z" fill="#FAFAFA"/>
<path d="M26.3477 47.0001C26.3477 47.0001 26.4358 57.3923 26.9643 60.5628L39.9985 59.9461C39.9985 59.9461 38.8538 49.7302 39.2942 47.0001H26.3477Z" fill="#E0E0E0"/>
<path d="M32.7668 48.4696C32.7668 48.4682 32.783 48.4663 32.8146 48.4645C32.8512 48.4631 32.8976 48.4612 32.9551 48.4589C33.079 48.4501 33.2623 48.4589 33.4976 48.4858C33.731 48.5229 34.0182 48.586 34.3263 48.7322C34.6334 48.8779 34.9513 49.1155 35.2283 49.4458C35.4951 49.7818 35.7396 50.1989 35.8533 50.7009C35.9605 51.2035 35.9062 51.7677 35.7164 52.3115C35.6241 52.5848 35.4983 52.8534 35.3503 53.1165C35.2032 53.3791 35.0557 53.6432 34.9327 53.9295C34.6868 54.4983 34.4914 55.1243 34.4056 55.779L34.4 55.8221L34.3578 55.823C33.9463 55.8295 33.5115 55.8365 33.0707 55.8439C32.6081 55.8513 32.1524 55.8583 31.7209 55.8648L31.6731 55.8657L31.6713 55.817C31.649 55.1614 31.3543 54.5642 31.0453 54.0357C30.889 53.7684 30.7177 53.5184 30.5572 53.265C30.4004 53.0163 30.224 52.7783 30.0992 52.5184C29.8422 51.9997 29.7981 51.4257 29.8951 50.9311C29.9883 50.4355 30.1526 49.9859 30.398 49.6323C30.6421 49.2783 30.953 49.0319 31.2462 48.8686C31.5413 48.7043 31.8188 48.6153 32.0466 48.5591C32.2754 48.5039 32.4563 48.4821 32.5788 48.4723C32.6401 48.4691 32.687 48.4663 32.7185 48.4672C32.7505 48.4663 32.7668 48.4682 32.7668 48.4696C32.7668 48.4714 32.7505 48.4723 32.7194 48.4756C32.6832 48.4793 32.6378 48.484 32.5812 48.49C32.4601 48.5053 32.281 48.5327 32.0559 48.593C31.8318 48.6538 31.5594 48.7466 31.2722 48.9127C30.9864 49.0774 30.6862 49.3219 30.4523 49.669C30.218 50.0138 30.0598 50.4578 29.9721 50.9436C29.8811 51.4285 29.9275 51.9797 30.1781 52.4799C30.3001 52.7319 30.4727 52.9629 30.6347 53.2168C30.7938 53.4659 30.9678 53.7188 31.1265 53.9875C31.4397 54.5215 31.7446 55.127 31.7696 55.8151L31.72 55.7674C32.152 55.7604 32.6076 55.753 33.0698 55.7455C33.5106 55.7386 33.9453 55.7321 34.3569 55.7256L34.3091 55.7697C34.3982 55.0969 34.5963 54.4691 34.8473 53.8919C34.9717 53.6033 35.1248 53.3318 35.2714 53.072C35.4181 52.8135 35.5429 52.55 35.6343 52.2832C35.8227 51.7514 35.8779 51.2039 35.7777 50.7172C35.6723 50.2328 35.4348 49.817 35.1777 49.4876C34.9104 49.1619 34.6028 48.9261 34.304 48.779C34.0042 48.631 33.7226 48.5638 33.4925 48.5215C33.2605 48.4895 33.0786 48.4751 32.9551 48.4779C32.8976 48.4765 32.8517 48.4751 32.815 48.4742C32.783 48.4723 32.7668 48.471 32.7668 48.4696Z" fill="white"/>
<path d="M33.4349 55.7093C33.4349 55.7093 33.4317 55.6954 33.427 55.6685C33.4224 55.6397 33.4159 55.5994 33.4071 55.5479C33.3904 55.4398 33.3667 55.2834 33.3361 55.0825C33.2776 54.6779 33.1909 54.0923 33.1324 53.3634C33.1185 53.181 33.106 52.9898 33.0985 52.7903C33.092 52.5908 33.0832 52.3829 33.0948 52.1672C33.1069 51.9523 33.1421 51.7259 33.2414 51.5152C33.3412 51.3078 33.5073 51.1125 33.7384 51.0174C33.9676 50.9185 34.2595 50.97 34.4478 51.1524C34.5406 51.2438 34.6028 51.3742 34.6 51.5092C34.5996 51.6438 34.5476 51.7751 34.4669 51.8827C34.3866 51.9922 34.2748 52.0762 34.1532 52.1361C34.0312 52.1973 33.8994 52.2354 33.7658 52.2646C33.4985 52.3208 33.2229 52.3518 32.9431 52.3602C32.6633 52.3667 32.3863 52.3616 32.1153 52.3203C31.9803 52.298 31.8471 52.2632 31.7232 52.2071C31.5989 52.1514 31.4861 52.072 31.3947 51.9737C31.3038 51.8753 31.2342 51.7556 31.2054 51.6252C31.1753 51.4948 31.1952 51.3566 31.2518 51.2392C31.308 51.1222 31.4031 51.0216 31.5242 50.9738C31.6453 50.9246 31.7826 50.9385 31.8949 50.9909C32.0086 51.0434 32.1023 51.1278 32.1715 51.2262C32.2411 51.3259 32.2824 51.4387 32.3097 51.551C32.3631 51.7774 32.3617 52.002 32.3756 52.2159C32.3979 52.6451 32.4188 53.0446 32.4378 53.4098C32.4745 54.1382 32.5041 54.7284 32.525 55.1382C32.5343 55.3409 32.5417 55.4991 32.5468 55.6082C32.5487 55.6606 32.5501 55.7015 32.5515 55.7307C32.5524 55.7581 32.5519 55.7724 32.5519 55.7724C32.5519 55.7724 32.5496 55.7585 32.5478 55.7311C32.5454 55.7019 32.5427 55.6615 32.5389 55.6091C32.532 55.5001 32.5222 55.3419 32.5097 55.1396C32.486 54.7298 32.4517 54.1401 32.4095 53.4116C32.3891 53.0464 32.3663 52.6469 32.3422 52.2182C32.3278 52.0043 32.3278 51.7802 32.2754 51.5598C32.2485 51.4508 32.2077 51.3417 32.1418 51.248C32.0759 51.1543 31.9859 51.0744 31.8796 51.0257C31.7743 50.977 31.6481 50.9649 31.5381 51.01C31.4277 51.0536 31.339 51.1468 31.2866 51.2568C31.2337 51.3668 31.2152 51.4958 31.2435 51.6173C31.2704 51.7398 31.3363 51.8535 31.4235 51.9477C31.5989 52.1398 31.8573 52.2405 32.1218 52.2818C32.3881 52.3221 32.6647 52.3272 32.9417 52.3212C33.2192 52.3129 33.4929 52.2822 33.7569 52.2266C33.8883 52.1978 34.0172 52.1602 34.1351 52.1017C34.253 52.0437 34.3588 51.9639 34.4349 51.8605C34.5114 51.7584 34.5601 51.635 34.5606 51.5106C34.5634 51.3858 34.5068 51.267 34.4205 51.1816C34.2441 51.0109 33.9685 50.9603 33.7523 51.0536C33.5324 51.1431 33.3704 51.3306 33.2735 51.532C33.176 51.7361 33.1408 51.9579 33.1282 52.1704C33.1162 52.3839 33.124 52.5913 33.1296 52.7903C33.1361 52.9894 33.1477 53.1805 33.1607 53.3624C33.2155 54.0904 33.2981 54.6765 33.3514 55.0816C33.3788 55.2829 33.4001 55.4393 33.415 55.5479C33.4219 55.5998 33.427 55.6402 33.4308 55.6694C33.434 55.695 33.4349 55.7093 33.4349 55.7093Z" fill="white"/>
<path d="M31.7198 55.778C31.7262 55.7841 31.7369 55.94 31.7536 56.2114C31.7699 56.526 31.7894 56.9018 31.8116 57.3408L31.801 57.3134C32.0631 57.6155 32.3587 57.9565 32.6784 58.3245L32.6334 58.305C32.9526 58.2869 33.2936 58.2678 33.6477 58.2479L33.605 58.2692C33.7678 58.0702 33.9372 57.8637 34.1103 57.6526C34.1957 57.5486 34.2806 57.4456 34.3636 57.344L34.3502 57.3835C34.3367 56.7886 34.3237 56.2258 34.3117 55.7126L34.3669 55.765C33.6277 55.7734 32.9869 55.7803 32.4719 55.7859C32.2663 55.7859 32.0858 55.7854 31.9244 55.7854C31.7949 55.7841 31.7239 55.7822 31.7198 55.778C31.7156 55.7738 31.7787 55.7683 31.9002 55.7609C32.058 55.7525 32.2343 55.7432 32.4348 55.733C32.9591 55.7126 33.6115 55.6866 34.3636 55.6574L34.4174 55.6551L34.4193 55.7098C34.4346 56.223 34.4518 56.7858 34.4694 57.3802L34.4703 57.4025L34.456 57.4201C34.3729 57.5217 34.2885 57.6247 34.2031 57.7287C34.0295 57.9393 33.8597 58.1458 33.6964 58.3444L33.6797 58.3648L33.6537 58.3662C33.2997 58.3834 32.9586 58.4001 32.6389 58.4159L32.6111 58.4173L32.5935 58.3964C32.2798 58.0229 31.9898 57.6772 31.7327 57.3709L31.7221 57.3584V57.3431C31.7179 56.8935 31.7142 56.5074 31.7109 56.185C31.7114 55.9158 31.7133 55.772 31.7198 55.778Z" fill="white"/>
<path d="M34.3383 57.2461C34.3369 57.2489 34.303 57.2331 34.2422 57.2053C34.1814 57.1775 34.0919 57.1399 33.9791 57.1009C33.7541 57.023 33.4274 56.9501 33.0632 56.9612C32.699 56.9719 32.3769 57.0647 32.157 57.1566C32.0466 57.2021 31.9598 57.2452 31.9004 57.2768C31.841 57.3079 31.8085 57.3259 31.8067 57.3232C31.8053 57.3208 31.8355 57.2986 31.8925 57.2628C31.9496 57.2271 32.0354 57.1798 32.1454 57.1301C32.3649 57.0308 32.6911 56.932 33.0613 56.9209C33.4316 56.9093 33.7634 56.9882 33.9884 57.074C34.1012 57.1167 34.1898 57.1589 34.2492 57.1909C34.3086 57.2234 34.3397 57.2438 34.3383 57.2461Z" fill="white"/>
<path d="M34.3383 56.8401C34.3369 56.8429 34.303 56.8271 34.2422 56.7993C34.1814 56.7715 34.0919 56.7339 33.9791 56.6949C33.7541 56.617 33.4274 56.5441 33.0627 56.5552C32.6985 56.5664 32.3765 56.6587 32.1565 56.7506C32.0461 56.7961 31.9593 56.8392 31.9004 56.8708C31.841 56.9018 31.8085 56.9199 31.8067 56.9172C31.8053 56.9148 31.835 56.8926 31.8925 56.8568C31.9496 56.8211 32.0354 56.7738 32.1454 56.7241C32.3649 56.6248 32.6911 56.526 33.0613 56.5149C33.4316 56.5033 33.7634 56.5822 33.9884 56.668C34.1016 56.7107 34.1898 56.7529 34.2492 56.7849C34.3081 56.8174 34.3392 56.8378 34.3383 56.8401Z" fill="white"/>
<path d="M34.3129 56.4541C34.3115 56.4568 34.2776 56.4411 34.2168 56.4132C34.1556 56.3854 34.0665 56.3478 33.9537 56.3088C33.7287 56.2309 33.402 56.158 33.0378 56.1692C32.6736 56.1803 32.3516 56.2726 32.1316 56.364C32.0212 56.4095 31.9344 56.4527 31.875 56.4842C31.8156 56.5153 31.7832 56.5334 31.7813 56.5306C31.7799 56.5283 31.8101 56.506 31.8671 56.4703C31.9242 56.4346 32.01 56.3872 32.12 56.3376C32.3395 56.2383 32.6657 56.1395 33.036 56.1283C33.4067 56.1167 33.738 56.1956 33.963 56.2815C34.0762 56.3241 34.1644 56.3664 34.2238 56.3984C34.2827 56.4313 34.3138 56.4522 34.3129 56.4541Z" fill="white"/>
<path d="M11.8301 30.0107C11.8301 30.0107 11.9182 40.4029 12.4467 43.5734L25.481 42.9567C25.481 42.9567 24.3358 32.7409 24.7761 30.0107H11.8301Z" fill="#EBEBEB"/>
<path d="M22.8128 34.376C22.817 34.4465 20.8622 34.6214 18.4475 34.7667C16.0319 34.9119 14.0706 34.9727 14.0664 34.9022C14.0622 34.8316 16.0166 34.6567 18.4322 34.5115C20.8468 34.3662 22.8082 34.3055 22.8128 34.376Z" fill="white"/>
<path d="M22.8148 36.5772C22.8189 36.6477 20.8641 36.8227 18.4495 36.9679C16.0334 37.1131 14.0725 37.1739 14.0684 37.1034C14.0642 37.0329 16.0186 36.8579 18.4341 36.7127C20.8488 36.5675 22.8106 36.5067 22.8148 36.5772Z" fill="white"/>
<path d="M20.6006 38.7385C20.6047 38.809 19.4925 38.9334 18.1168 39.016C16.7405 39.0986 15.6214 39.1088 15.6172 39.0383C15.613 38.9677 16.7248 38.8438 18.1015 38.7608C19.4772 38.6777 20.5964 38.668 20.6006 38.7385Z" fill="white"/>
<path d="M11.2129 60.5855C11.2129 60.5855 11.301 70.9777 11.8295 74.1482L24.8638 73.5316C24.8638 73.5316 23.7186 63.3152 24.1594 60.5851H11.2129V60.5855Z" fill="#EBEBEB"/>
<path d="M22.1956 64.9504C22.1998 65.0209 20.245 65.1958 17.8303 65.341C15.4147 65.4863 13.4534 65.5471 13.4492 65.4765C13.445 65.406 15.3994 65.2311 17.815 65.0859C20.2297 64.9406 22.1915 64.8803 22.1956 64.9504Z" fill="white"/>
<path d="M22.1976 67.1516C22.2018 67.2221 20.2469 67.397 17.8323 67.5423C15.4167 67.6875 13.4554 67.7483 13.4512 67.6778C13.447 67.6072 15.4014 67.4323 17.817 67.2871C20.2321 67.1418 22.1934 67.0815 22.1976 67.1516Z" fill="white"/>
<path d="M19.9834 69.3129C19.9875 69.3834 18.8753 69.5078 17.4996 69.5904C16.1234 69.673 15.0042 69.6832 15 69.6126C14.9958 69.5421 16.1076 69.4182 17.4843 69.3352C18.8605 69.2526 19.9792 69.2424 19.9834 69.3129Z" fill="white"/>
<path d="M46.834 32.7654L48.1253 62.7394L85.5436 63.1909L83.864 33.1612L46.834 32.7654Z" fill="#EBEBEB"/>
<path d="M83.57 32.5506H46.4004V60.6175H83.57V32.5506Z" fill="#F5F5F5"/>
<path d="M83.5702 60.6175C83.5702 60.6175 83.5628 60.4365 83.5586 60.0969C83.5558 59.7498 83.5521 59.2496 83.5466 58.5991C83.5401 57.2832 83.5312 55.3659 83.5196 52.9197C83.5067 48.0259 83.4876 41.0228 83.4649 32.5506L83.5698 32.6555C73.062 32.662 60.2357 32.6699 46.4034 32.6782H46.4001L46.5277 32.5506C46.5231 42.6449 46.5189 52.2024 46.5152 60.617L46.4001 60.502C57.3978 60.5256 66.6751 60.5456 73.2114 60.5595C76.4803 60.5725 79.062 60.5832 80.8368 60.5901C81.717 60.5962 82.3954 60.6008 82.8635 60.604C83.0891 60.6068 83.2621 60.6091 83.3879 60.6105C83.5067 60.6129 83.5702 60.6175 83.5702 60.6175C83.5702 60.6175 83.5155 60.6221 83.4013 60.624C83.2788 60.6254 83.1095 60.6277 82.89 60.6305C82.4269 60.6337 81.7564 60.6384 80.886 60.6444C79.1172 60.6518 76.5443 60.662 73.2871 60.675C66.7326 60.689 57.4294 60.7089 46.401 60.7326L46.286 60.733V60.6175C46.2823 52.2024 46.2781 42.6449 46.2734 32.5511V32.423H46.4015H46.4048C60.2371 32.4314 73.0634 32.4392 83.5712 32.4457H83.6765L83.676 32.5506C83.6533 41.0502 83.6347 48.076 83.6213 52.9856C83.6097 55.4216 83.6004 57.331 83.5943 58.6413C83.5892 59.283 83.5851 59.7767 83.5823 60.1192C83.5781 60.4518 83.5702 60.6175 83.5702 60.6175Z" fill="#E0E0E0"/>
<path d="M65.9522 38.4963H50.8848V57.4595H65.9522V38.4963Z" fill="#F5F5F5"/>
<path d="M65.9528 57.4595C65.9505 57.4572 65.9482 57.4252 65.9463 57.3639C65.9445 57.292 65.9426 57.2043 65.9398 57.0944C65.9366 56.8447 65.9319 56.499 65.9264 56.0573C65.919 55.1409 65.9088 53.8264 65.8958 52.1667C65.8818 48.8287 65.8619 44.1051 65.8387 38.4968L65.9533 38.6114C61.4632 38.6151 56.3244 38.6197 50.8872 38.6248C50.8571 38.6518 51.1276 38.385 51.0134 38.5005V38.5056V38.5158V38.5362V38.5775V38.6596V38.8239V39.1519V39.8057C51.0134 40.2405 51.0134 40.6734 51.013 41.104C51.0125 41.9652 51.012 42.8175 51.012 43.6592C51.0106 45.3431 51.0092 46.9866 51.0079 48.58C51.0023 51.7649 50.9967 54.7498 50.9916 57.4595L50.8854 57.3533C55.4061 57.376 59.1571 57.395 61.7949 57.408C63.1034 57.4196 64.1349 57.4289 64.8559 57.4354C65.2002 57.4405 65.4693 57.4447 65.6675 57.4475C65.8517 57.4516 65.9528 57.4595 65.9528 57.4595C65.9565 57.4632 65.8675 57.4674 65.6897 57.4711C65.4967 57.4739 65.2341 57.4781 64.8986 57.4832C64.1831 57.4897 63.16 57.499 61.8617 57.5106C59.2077 57.524 55.434 57.543 50.8858 57.5653L50.78 57.5658V57.4591C50.7749 54.7493 50.7698 51.7644 50.7643 48.5795C50.7629 46.9861 50.7615 45.3431 50.7601 43.6588C50.7596 42.8166 50.7591 41.9647 50.7591 41.1035C50.7591 40.6729 50.7592 40.24 50.7587 39.8053V39.1515V38.8234V38.6592V38.577V38.5358V38.5153V38.5051V38.5C50.645 38.6128 50.9132 38.3404 50.8881 38.3687C56.3253 38.3734 61.4641 38.378 65.9542 38.3822H66.0693L66.0688 38.4968C66.0452 44.1362 66.0257 48.8848 66.0118 52.2409C65.9988 53.8895 65.9886 55.1952 65.9816 56.1056C65.976 56.538 65.9714 56.8758 65.9681 57.1199C65.9654 57.2247 65.9635 57.3087 65.9616 57.3769C65.9575 57.434 65.9552 57.4618 65.9528 57.4595Z" fill="#E0E0E0"/>
<path d="M80.3395 34.1574H51.4629V36.8899H80.3395V34.1574Z" fill="#F5F5F5"/>
<path d="M80.3382 36.8895C80.335 36.8862 80.3317 36.8226 80.328 36.7025C80.3248 36.5693 80.321 36.3944 80.3159 36.1726C80.309 35.6979 80.2992 35.0233 80.2867 34.1574L80.3382 34.2089C75.4685 34.2539 64.3683 34.285 51.4635 34.285H51.4621C51.7173 34.0298 51.5326 34.2145 51.5897 34.1579V34.1588V34.1616V34.1672V34.1783V34.2001V34.2437V34.3314V34.5068V34.8562C51.5897 35.0882 51.5897 35.3193 51.5897 35.548C51.5897 36.0055 51.5892 36.4547 51.5892 36.8899L51.4621 36.7628C59.5376 36.7841 66.7337 36.8032 71.9305 36.8171C74.521 36.8329 76.6123 36.8458 78.0739 36.8551C78.788 36.8625 79.3476 36.8686 79.7457 36.8728C79.9271 36.8765 80.0719 36.8793 80.1837 36.8816C80.283 36.8839 80.3354 36.8867 80.3382 36.8895C80.341 36.8922 80.2946 36.8955 80.2004 36.8983C80.0928 36.9006 79.9536 36.9034 79.7786 36.9071C79.3875 36.9113 78.8376 36.9173 78.1361 36.9247C76.6814 36.9335 74.6004 36.9465 72.0224 36.9623C66.8024 36.9762 59.5737 36.9953 51.4616 37.0166L51.3345 37.0171V36.8895C51.3345 36.4542 51.3345 36.0051 51.334 35.5476C51.334 35.3188 51.334 35.0877 51.334 34.8557V34.5064V34.331V34.2433V34.1997V34.1778V34.1667V34.1611V34.1584V34.1574C51.3911 34.1004 51.2064 34.2846 51.4621 34.0289H51.4635C64.3683 34.0289 75.4685 34.06 80.3382 34.105L80.3906 34.1055L80.3897 34.157C80.3772 35.0358 80.367 35.7202 80.3605 36.2023C80.3554 36.4194 80.3512 36.5906 80.3484 36.7206C80.3447 36.8361 80.3415 36.8927 80.3382 36.8895Z" fill="#E0E0E0"/>
<path d="M80.3379 38.4963H67.7969V49.9251H80.3379V38.4963Z" fill="#F5F5F5"/>
<path d="M80.3385 49.9256C80.3343 49.9214 80.3306 49.8462 80.3264 49.7047C80.3231 49.5465 80.319 49.3414 80.3139 49.0843C80.3069 48.5257 80.2976 47.7424 80.2856 46.7546C80.2721 44.7436 80.2526 41.9048 80.2299 38.4968L80.3385 38.6053C76.7165 38.6109 72.4096 38.6174 67.7984 38.6244C67.7692 38.6517 68.0392 38.3831 67.9251 38.4986V38.5019V38.5079V38.52V38.5441V38.5928V38.6903V38.8847V39.2726C67.9251 39.5306 67.9251 39.7881 67.9251 40.0437C67.9246 40.5555 67.9246 41.0632 67.9241 41.5657C67.9232 42.5702 67.9218 43.5548 67.9209 44.5139C67.9167 46.4312 67.913 48.2473 67.9093 49.9246L67.797 49.8123C71.5164 49.8355 74.6327 49.855 76.8431 49.8689C77.9312 49.8815 78.7947 49.8917 79.4095 49.8986C79.6944 49.9042 79.9209 49.9084 80.0944 49.9116C80.2512 49.9167 80.3343 49.9209 80.3385 49.9256C80.3426 49.9297 80.2679 49.9339 80.1195 49.9381C79.9515 49.9413 79.7325 49.9455 79.4564 49.9511C78.8481 49.958 77.9925 49.9682 76.9151 49.9808C74.6874 49.9947 71.5457 50.0142 67.797 50.0374L67.6852 50.0383L67.6847 49.9256C67.681 48.2482 67.6773 46.4321 67.6731 44.5149C67.6722 43.5558 67.6713 42.5712 67.6699 41.5666C67.6699 41.0641 67.6694 40.5565 67.6689 40.0447C67.6689 39.7885 67.6689 39.5315 67.6689 39.2735V38.8856V38.6912V38.5937V38.545V38.5209V38.5088V38.5028V38.4996C67.5548 38.6128 67.8244 38.3418 67.7979 38.3696C72.4087 38.3766 76.7155 38.3831 80.338 38.3887H80.4475L80.4466 38.4972C80.4234 41.9336 80.4043 44.7965 80.3909 46.8242C80.3788 47.8014 80.3696 48.5767 80.3626 49.1293C80.3575 49.3776 80.3533 49.5757 80.3501 49.7288C80.3468 49.8625 80.3426 49.9293 80.3385 49.9256Z" fill="#E0E0E0"/>
<path d="M80.3379 51.7171H67.7969V57.4595H80.3379V51.7171Z" fill="#F5F5F5"/>
<path d="M80.3371 57.4595C80.3306 57.453 80.3241 57.3097 80.3171 57.0433C80.3116 56.7547 80.3037 56.371 80.2939 55.8903C80.2819 54.8769 80.2647 53.4585 80.2438 51.7171L80.3366 51.8099C77.0659 51.8191 72.6533 51.8312 67.7966 51.8447C67.682 51.9588 67.9511 51.6892 67.9232 51.7175V51.7189V51.7217V51.7277V51.7393V51.763V51.8103V51.905V52.0934V52.4692C67.9232 52.7188 67.9228 52.9675 67.9228 53.2144C67.9223 53.7081 67.9218 54.1962 67.9214 54.6765C67.9195 55.6369 67.9181 56.5677 67.9163 57.4586L67.7952 57.3375C71.4121 57.3607 74.5241 57.3811 76.7634 57.3955C77.8598 57.4094 78.7409 57.421 79.3766 57.4289C79.6662 57.4349 79.8995 57.44 80.0824 57.4442C80.2457 57.4498 80.3325 57.4544 80.3371 57.4595C80.3422 57.4646 80.2652 57.4693 80.1121 57.4744C79.9357 57.4781 79.7107 57.4832 79.4314 57.4897C78.8022 57.498 77.9303 57.5092 76.8455 57.5231C74.5863 57.5375 71.4459 57.5574 67.7956 57.5811L67.6745 57.582V57.46C67.6731 56.5691 67.6713 55.6383 67.6699 54.6778C67.6694 54.1976 67.669 53.7095 67.6685 53.2158C67.6685 52.9689 67.668 52.7202 67.668 52.4706V52.0948V51.9064V51.8117V51.7644V51.7407V51.7291V51.7231V51.7203V51.7189C67.6402 51.7458 67.9102 51.4762 67.7966 51.5904C72.6533 51.6038 77.0664 51.6164 80.3366 51.6252L80.4304 51.6257L80.4294 51.7185C80.4086 53.483 80.3918 54.921 80.3798 55.9478C80.37 56.4197 80.3622 56.7965 80.3566 57.08C80.3501 57.3352 80.3436 57.466 80.3371 57.4595Z" fill="#E0E0E0"/>
<path d="M65.5796 38.5292C60.9155 44.9723 55.5489 51.0164 50.8848 57.4595L65.5796 38.5292Z" fill="white"/>
<path d="M50.8855 57.4595C50.8785 57.4544 50.9208 57.3816 51.0085 57.2479C51.1152 57.0916 51.2451 56.9009 51.4019 56.6702C51.7467 56.1705 52.2622 55.4601 52.9104 54.5901C54.205 52.8487 56.0577 50.4921 58.1327 47.9146C60.2082 45.3361 62.0814 42.9999 63.4112 41.2887C64.0566 40.4553 64.5879 39.7695 64.9832 39.2591C65.1558 39.0401 65.2983 38.8591 65.4152 38.7102C65.5164 38.5863 65.573 38.5237 65.5799 38.5292C65.5869 38.5343 65.5442 38.6072 65.457 38.7408C65.3502 38.8972 65.2203 39.0879 65.0635 39.318C64.7187 39.8173 64.2032 40.5282 63.555 41.3982C62.2605 43.1395 60.4073 45.4967 58.3318 48.0747C56.2572 50.6517 54.3841 52.9879 53.0542 54.6996C52.4088 55.533 51.8775 56.2188 51.4822 56.7292C51.3096 56.9482 51.1672 57.1291 51.0502 57.2781C50.9491 57.402 50.8925 57.4646 50.8855 57.4595Z" fill="#E0E0E0"/>
<path d="M65.9514 57.4595C65.8962 57.5036 62.4779 53.2937 58.3177 48.0579C54.1561 42.8203 50.8283 38.5404 50.8835 38.4963C50.9387 38.4522 54.3561 42.6612 58.5177 47.8988C62.6784 53.1346 66.0066 57.4154 65.9514 57.4595Z" fill="#E0E0E0"/>
<path d="M48.1244 38.5367C48.1244 39.8387 47.0688 40.8938 45.7673 40.8938C44.4653 40.8938 43.4102 39.8387 43.4102 38.5367C43.4102 37.2347 44.4653 36.1796 45.7673 36.1796C47.0693 36.1796 48.1244 37.2352 48.1244 38.5367Z" fill="#E0E0E0"/>
<path d="M86.6771 32.8151C86.6771 34.1171 85.6215 35.1722 84.32 35.1722C83.018 35.1722 81.9629 34.1171 81.9629 32.8151C81.9629 31.5131 83.0185 30.458 84.32 30.458C85.622 30.458 86.6771 31.5131 86.6771 32.8151Z" fill="#E0E0E0"/>
<path d="M178.885 49.2337H151.721V88.6069H178.885V49.2337Z" fill="#E0E0E0"/>
<path d="M177.525 49.2337H150.361V88.6069H177.525V49.2337Z" fill="#F5F5F5"/>
<path d="M174.15 53.4979H153.736V84.3423H174.15V53.4979Z" fill="white"/>
<path d="M174.15 84.3423C174.15 84.3423 174.147 84.2899 174.146 84.1915C174.145 84.0899 174.144 83.9442 174.142 83.7539C174.14 83.3665 174.137 82.799 174.134 82.0622C174.13 80.5839 174.124 78.4295 174.116 75.7086C174.107 70.2696 174.096 62.5677 174.082 53.4979L174.15 53.5656C167.913 53.5675 161.002 53.5693 153.738 53.5717H153.736L153.81 53.4979C153.804 65.1336 153.799 75.8622 153.795 84.3423L153.736 84.2834C159.953 84.2963 165.049 84.307 168.595 84.3144C170.368 84.3209 171.753 84.326 172.7 84.3293C173.17 84.3321 173.53 84.3344 173.777 84.3358C174.022 84.3381 174.15 84.3423 174.15 84.3423C174.15 84.3423 174.03 84.3465 173.79 84.3488C173.545 84.3502 173.189 84.3525 172.723 84.3553C171.78 84.3585 170.399 84.3636 168.631 84.3701C165.077 84.3775 159.968 84.3882 153.736 84.4012H153.677V84.3423C153.673 75.8618 153.668 65.1336 153.662 53.4979V53.4241H153.736H153.738C161.002 53.4264 167.913 53.4283 174.15 53.4301H174.218V53.4979C174.204 62.5858 174.193 70.303 174.184 75.7532C174.176 78.468 174.17 80.6168 174.166 82.0919C174.163 82.8227 174.16 83.3855 174.158 83.7702C174.156 83.9572 174.155 84.0996 174.154 84.1998C174.153 84.2954 174.15 84.3423 174.15 84.3423Z" fill="#E0E0E0"/>
<path d="M177.6 49.2337C177.616 49.2463 177.432 49.5154 177.116 49.9372C176.801 50.3589 176.353 50.9329 175.842 51.5537C175.33 52.1746 174.852 52.7239 174.499 53.1146C174.145 53.5053 173.917 53.7378 173.901 53.7243C173.885 53.7109 174.086 53.4538 174.42 53.0464C174.784 52.6047 175.232 52.0609 175.728 51.4595C176.223 50.8582 176.67 50.3144 177.034 49.8722C177.371 49.4671 177.584 49.2207 177.6 49.2337Z" fill="#E0E0E0"/>
<path d="M174.254 84.2429C175.268 85.8553 176.465 87.3522 177.815 88.6959L174.254 84.2429Z" fill="white"/>
<path d="M177.814 88.696C177.8 88.7095 177.558 88.4993 177.193 88.1313C176.828 87.7634 176.344 87.2344 175.85 86.6163C175.356 85.9978 174.946 85.4095 174.667 84.9724C174.389 84.5353 174.237 84.2527 174.253 84.2425C174.272 84.2309 174.455 84.4936 174.754 84.9139C175.053 85.3343 175.474 85.9092 175.965 86.524C176.456 87.1379 176.924 87.6747 177.269 88.0594C177.613 88.4445 177.829 88.6807 177.814 88.696Z" fill="#E0E0E0"/>
<path d="M150.355 88.5758C151.541 87.1123 152.727 85.6493 153.913 84.1859L150.355 88.5758Z" fill="white"/>
<path d="M153.914 84.1855C153.946 84.211 153.175 85.2146 152.193 86.427C151.21 87.6395 150.388 88.6014 150.356 88.5758C150.325 88.5503 151.096 87.5467 152.078 86.3342C153.061 85.1218 153.883 84.1599 153.914 84.1855Z" fill="#E0E0E0"/>
<path d="M150.36 49.2337C150.392 49.2082 151.166 50.133 152.087 51.2981C153.009 52.4641 153.73 53.4292 153.698 53.4543C153.666 53.4798 152.893 52.5555 151.971 51.3895C151.049 50.2244 150.328 49.2588 150.36 49.2337Z" fill="#E0E0E0"/>
<path d="M167.789 59.7605H160.953V79.1682H167.789V59.7605Z" fill="#E0E0E0"/>
<path d="M172.627 7.39777L168.738 7.41876L168.843 26.7676L172.731 26.7466L172.627 7.39777Z" fill="#E0E0E0"/>
<path d="M145.121 7.44837L135.051 7.50275L135.108 18.1845L145.178 18.1301L145.121 7.44837Z" fill="#EBEBEB"/>
<path d="M155.144 7.39484L145.074 7.44922L145.132 18.131L155.202 18.0766L155.144 7.39484Z" fill="#F5F5F5"/>
<path d="M135.064 10.4596C141.755 10.5148 148.464 10.4758 155.155 10.3672C155.293 10.3654 155.292 10.1543 155.153 10.1533C148.462 10.1162 141.753 10.1492 135.062 10.2763C134.945 10.2786 134.946 10.4586 135.064 10.4596Z" fill="#E0E0E0"/>
<path d="M147.069 17.9532L128.773 18.052L128.82 26.7566L147.116 26.6578L147.069 17.9532Z" fill="#EBEBEB"/>
<path d="M165.277 17.8541L146.982 17.9529L147.029 26.6576L165.324 26.5588L165.277 17.8541Z" fill="#F5F5F5"/>
<path d="M128.782 20.4783C140.936 20.6161 153.132 20.4927 165.285 20.2983C165.423 20.2959 165.422 20.0848 165.284 20.0844C153.13 20.0203 140.933 20.0273 128.782 20.295C128.664 20.2973 128.664 20.4769 128.782 20.4783Z" fill="#E0E0E0"/>
<path d="M192.821 26.7622H121.941V29.8808H192.821V26.7622Z" fill="#E0E0E0"/>
<path d="M136.424 28.2614H133.547V38.9028H136.424V28.2614Z" fill="#E0E0E0"/>
<path d="M179.375 28.2614H176.498V38.9028H179.375V28.2614Z" fill="#E0E0E0"/>
<path d="M176.422 0.182342L172.533 0.203339L172.677 26.8147L176.565 26.7937L176.422 0.182342Z" fill="#EBEBEB"/>
<path d="M182.497 5.13598L176.455 5.16861L176.572 26.7339L182.614 26.7013L182.497 5.13598Z" fill="#F5F5F5"/>
<path d="M182.452 9.29865C182.452 9.35665 181.099 9.40351 179.431 9.40351C177.762 9.40351 176.41 9.35665 176.41 9.29865C176.41 9.24065 177.763 9.19379 179.431 9.19379C181.099 9.19379 182.452 9.24065 182.452 9.29865Z" fill="#E0E0E0"/>
<path d="M182.452 8.39246C182.452 8.45046 181.099 8.49733 179.431 8.49733C177.762 8.49733 176.41 8.45046 176.41 8.39246C176.41 8.33446 177.763 8.2876 179.431 8.2876C181.099 8.28806 182.452 8.33492 182.452 8.39246Z" fill="#E0E0E0"/>
<path d="M182.452 23.4646C182.452 23.5226 181.099 23.5694 179.431 23.5694C177.762 23.5694 176.41 23.5226 176.41 23.4646C176.41 23.4066 177.763 23.3597 179.431 23.3597C181.099 23.3597 182.452 23.4066 182.452 23.4646Z" fill="#E0E0E0"/>
<path d="M182.452 22.5584C182.452 22.6164 181.099 22.6632 179.431 22.6632C177.762 22.6632 176.41 22.6164 176.41 22.5584C176.41 22.5004 177.763 22.4535 179.431 22.4535C181.099 22.454 182.452 22.5008 182.452 22.5584Z" fill="#E0E0E0"/>
<path d="M179.529 20.5817C179.471 20.5817 179.424 18.406 179.424 15.7227C179.424 13.0385 179.471 10.8633 179.529 10.8633C179.587 10.8633 179.634 13.0385 179.634 15.7227C179.634 18.406 179.587 20.5817 179.529 20.5817Z" fill="#E0E0E0"/>
<path d="M189.094 10.4396H182.518V26.7172H189.094V10.4396Z" fill="#EBEBEB"/>
<path d="M185.991 22.4957C185.126 22.4957 184.521 21.88 184.521 21.0318C184.521 20.5715 184.699 20.1725 185.054 19.9335L185.203 20.1391C184.909 20.3497 184.771 20.6713 184.771 21.0318C184.771 21.7144 185.259 22.2132 185.991 22.2132C186.723 22.2132 187.211 21.7139 187.211 21.0318C187.211 20.6713 187.073 20.3497 186.778 20.1391L186.928 19.9335C187.278 20.172 187.46 20.5715 187.46 21.0318C187.461 21.88 186.851 22.4957 185.991 22.4957Z" fill="#FAFAFA"/>
<path d="M187.089 19.5294L186.867 19.4018C187.056 19.18 187.217 18.786 187.217 18.3592C187.217 17.749 187.001 17.5054 186.673 17.5054C185.83 17.5054 186.451 19.424 185.314 19.424C184.876 19.424 184.521 19.058 184.521 18.3258C184.521 17.9597 184.632 17.5606 184.804 17.3333L185.026 17.4609C184.848 17.7045 184.765 18.0209 184.765 18.3313C184.765 18.8969 184.998 19.147 185.308 19.147C186.179 19.147 185.564 17.2279 186.667 17.2279C187.138 17.2279 187.46 17.6325 187.46 18.3703C187.461 18.8473 187.3 19.302 187.089 19.5294Z" fill="#FAFAFA"/>
<path d="M187.089 16.879L186.867 16.7514C187.056 16.5296 187.217 16.1357 187.217 15.7083C187.217 15.0986 187.001 14.8546 186.673 14.8546C185.83 14.8546 186.451 16.7732 185.314 16.7732C184.876 16.7732 184.521 16.4071 184.521 15.6754C184.521 15.3088 184.632 14.9098 184.804 14.6824L185.026 14.81C184.848 15.0541 184.765 15.3706 184.765 15.681C184.765 16.2461 184.998 16.4962 185.308 16.4962C186.179 16.4962 185.564 14.5776 186.667 14.5776C187.138 14.5776 187.46 14.9822 187.46 15.7199C187.461 16.1969 187.3 16.6517 187.089 16.879Z" fill="#FAFAFA"/>
<path d="M174.417 5.85161C175.034 5.85161 175.534 5.35117 175.534 4.73383C175.534 4.1165 175.034 3.61606 174.417 3.61606C173.799 3.61606 173.299 4.1165 173.299 4.73383C173.299 5.35117 173.799 5.85161 174.417 5.85161Z" fill="#E0E0E0"/>
<path d="M174.761 7.80737H174.07V23.6381H174.761V7.80737Z" fill="#E0E0E0"/>
<path d="M200.974 191.978C200.974 192.045 156.157 192.098 100.885 192.098C45.5947 192.098 0.787109 192.044 0.787109 191.978C0.787109 191.911 45.5942 191.857 100.885 191.857C156.157 191.857 200.974 191.911 200.974 191.978Z" fill="#263238"/>
<path d="M54.9893 32.4629C47.543 44.1752 48.0307 60.4138 56.166 71.6579C61.5892 79.1539 69.725 84.1785 76.1853 90.8016C82.6455 97.4252 87.5519 107.186 84.1424 115.787C80.6717 124.543 70.5064 128.105 62.8935 133.652C54.6014 139.693 48.7772 149.024 46.9932 159.127C45.2091 169.231 47.4845 179.992 53.2057 188.508H132.282C132.282 188.508 146.173 162.035 128.314 141.86C110.454 121.685 100.863 121.355 101.524 108.126C102.186 94.8964 111.446 90.5965 116.738 85.6359C122.029 80.6753 147.827 69.0994 132.613 32.4634L54.9893 32.4629Z" fill="#FAFAFA"/>
<path d="M54.9886 32.4629C54.9886 32.4629 55.4475 32.4555 56.3499 32.4518C57.2552 32.4495 58.598 32.4457 60.3584 32.4411C63.8876 32.436 69.0891 32.4286 75.7892 32.4188C89.203 32.4091 108.614 32.3947 132.613 32.3771H132.671L132.691 32.43C133.772 35.1741 134.864 37.9984 135.638 40.9926C136.434 43.9734 137.087 47.0789 137.318 50.2972C137.56 53.509 137.456 56.8257 136.816 60.1196C136.156 63.4043 134.979 66.6579 133.242 69.6674C132.378 71.1754 131.362 72.6073 130.264 73.9891C129.153 75.3625 127.923 76.6538 126.621 77.8862C125.318 79.1172 123.929 80.2767 122.487 81.3861C121.048 82.4993 119.546 83.5516 118.079 84.6624C117.345 85.2165 116.674 85.8378 115.974 86.4604C115.271 87.0711 114.546 87.6604 113.815 88.2441C112.354 89.4129 110.878 90.5812 109.485 91.8605C106.673 94.3768 104.297 97.5185 102.99 101.175C102.356 103 101.902 104.912 101.754 106.869C101.714 107.358 101.649 107.846 101.631 108.337C101.621 108.828 101.593 109.321 101.616 109.814C101.623 110.8 101.734 111.784 101.913 112.756C102.285 114.698 103.1 116.559 104.286 118.173C105.455 119.801 106.896 121.234 108.388 122.613C111.39 125.358 114.574 127.978 117.624 130.807C120.69 133.62 123.666 136.591 126.533 139.712C127.955 141.278 129.402 142.854 130.645 144.601C131.931 146.316 133.011 148.19 133.96 150.129C135.83 154.025 136.987 158.299 137.365 162.669C137.773 167.039 137.461 171.493 136.595 175.851C136.166 178.032 135.597 180.193 134.899 182.318C134.199 184.443 133.393 186.539 132.388 188.564L132.356 188.629H132.281C131.64 188.629 130.943 188.629 130.245 188.629C103.252 188.627 77.2058 188.625 53.205 188.623H53.1432L53.1094 188.572C49.3417 182.916 47.1047 176.418 46.4876 169.906C45.832 163.393 46.8342 156.862 49.2234 151.065C51.5814 145.248 55.247 140.145 59.6764 136.135C61.8845 134.114 64.3465 132.46 66.8127 130.93C69.2816 129.397 71.7715 127.98 74.1253 126.428C76.469 124.874 78.7277 123.219 80.5615 121.193C82.4017 119.184 83.8081 116.825 84.5444 114.288C85.2841 111.75 85.291 109.088 84.8586 106.581C84.4201 104.066 83.5348 101.688 82.4147 99.4965C81.2913 97.3027 79.929 95.2885 78.4345 93.4506C76.9437 91.6067 75.2862 89.9701 73.6182 88.4255C70.2704 85.3441 66.8452 82.6487 63.7614 79.8791C62.2172 78.4973 60.7538 77.1025 59.4068 75.6692C58.0695 74.228 56.8469 72.7502 55.7969 71.2194C53.6792 68.1654 52.2268 64.9476 51.2724 61.8415C50.3166 58.7318 49.8414 55.7256 49.7324 52.9597C49.6674 52.2692 49.6929 51.5918 49.6939 50.9306C49.7027 50.2694 49.6827 49.623 49.7514 48.9962C49.7997 48.3684 49.847 47.7564 49.8929 47.1601C49.9644 46.5671 50.0623 45.9927 50.1421 45.4331C50.8381 40.9536 52.1897 37.6806 53.2435 35.5856C53.4959 35.0534 53.7181 34.5853 53.959 34.2062C54.1849 33.8215 54.3742 33.4986 54.5264 33.2383C54.8317 32.7218 54.9886 32.4629 54.9886 32.4629C54.9561 32.52 54.8271 32.7478 54.5403 33.2545C54.3909 33.5153 54.2053 33.8387 53.984 34.2243C53.7488 34.6015 53.5288 35.0706 53.2797 35.6037C52.2389 37.7019 50.9017 40.9741 50.2191 45.4456C50.1412 46.0043 50.0446 46.5773 49.975 47.1694C49.931 47.7642 49.885 48.3749 49.8386 49.0013C49.7718 49.6267 49.7932 50.2717 49.7857 50.931C49.7862 51.5904 49.7621 52.2664 49.8284 52.9545C49.943 55.713 50.4223 58.71 51.3805 61.8081C52.3368 64.9025 53.7891 68.1065 55.9031 71.1452C56.9513 72.6685 58.1716 74.1399 59.507 75.575C60.8517 77.0027 62.3142 78.3929 63.8579 79.7705C66.9407 82.5327 70.3692 85.2239 73.7263 88.3076C75.3985 89.8528 77.0638 91.4939 78.5635 93.3453C80.0664 95.1901 81.437 97.2123 82.5687 99.4172C83.6972 101.62 84.5908 104.013 85.0354 106.55C85.4738 109.078 85.4697 111.769 84.7231 114.339C83.9802 116.906 82.5581 119.294 80.7025 121.322C78.8535 123.367 76.5831 125.032 74.2334 126.593C71.8731 128.15 69.3828 129.57 66.9189 131.101C64.457 132.631 62.0098 134.278 59.8146 136.289C55.4113 140.281 51.7661 145.359 49.4234 151.147C47.0495 156.914 46.0561 163.407 46.7103 169.885C47.3261 176.36 49.5537 182.822 53.3001 188.443L53.2045 188.392C77.2054 188.391 103.251 188.389 130.245 188.387C130.942 188.387 131.639 188.387 132.281 188.387L132.174 188.452C133.166 186.452 133.974 184.357 134.669 182.243C135.365 180.127 135.932 177.976 136.358 175.805C137.221 171.466 137.53 167.035 137.126 162.691C136.75 158.347 135.602 154.102 133.745 150.233C132.802 148.307 131.73 146.446 130.453 144.742C129.218 143.006 127.78 141.439 126.358 139.872C123.496 136.755 120.525 133.789 117.465 130.98C114.419 128.153 111.241 125.537 108.23 122.782C106.734 121.399 105.283 119.956 104.099 118.306C102.897 116.671 102.065 114.772 101.689 112.799C101.507 111.813 101.396 110.815 101.389 109.819C101.366 109.32 101.394 108.824 101.404 108.328C101.423 107.833 101.489 107.341 101.529 106.848C101.679 104.875 102.138 102.944 102.78 101.1C104.101 97.4043 106.507 94.2283 109.336 91.7004C110.738 90.4147 112.219 89.2435 113.679 88.0766C114.41 87.4938 115.133 86.9064 115.832 86.2994C116.52 85.6884 117.209 85.0508 117.948 84.494C119.422 83.3786 120.921 82.3299 122.357 81.22C123.796 80.1143 125.18 78.9604 126.478 77.7354C127.775 76.509 128.999 75.2256 130.105 73.8605C131.197 72.4871 132.208 71.0649 133.068 69.5667C134.796 66.5771 135.967 63.3463 136.626 60.0816C137.264 56.8081 137.37 53.5086 137.131 50.3107C136.904 47.1063 136.256 44.0109 135.464 41.0386C134.695 38.0532 133.608 35.2339 132.533 32.4945L132.612 32.5474C108.627 32.5297 89.2281 32.5153 75.8226 32.5056C69.1174 32.4959 63.9118 32.4884 60.3798 32.4833C58.6147 32.4787 57.2682 32.475 56.3611 32.4727C55.4558 32.4703 54.9886 32.4629 54.9886 32.4629Z" fill="#263238"/>
<path d="M129.456 53.9438C141.103 55.8583 122.74 76.4858 112.346 84.6253C106.327 89.3386 99.863 94.4496 97.0048 101.54C93.7619 109.583 96.1654 118.624 94.5938 126.716C94.3331 128.059 92.3472 127.848 92.3671 126.48C92.4446 121.169 92.3031 115.86 91.4229 110.631C90.1747 103.215 87.3234 95.8783 82.1257 90.443C77.8829 86.0067 72.3195 83.0584 67.7937 78.9107C61.1858 72.8555 54.3985 65.0455 53.7363 56.1074C53.7363 56.1074 66.423 45.8883 73.4651 47.1782C81.6951 48.6857 89.797 61.385 102.55 59.9308C111.454 58.9151 115.947 51.7236 129.456 53.9438Z" fill="#B9D1D9"/>
<path d="M130.49 164.351C130.196 161.438 129.419 158.142 126.834 156.768C125.268 155.936 123.362 156.028 121.647 156.479C119.932 156.93 118.32 157.71 116.62 158.215C113.275 159.209 109.611 159.093 106.336 157.89C103.176 156.729 100.463 154.63 97.5288 152.981C94.5945 151.331 91.1599 150.102 87.8934 150.915C82.2604 152.316 79.3289 159.098 73.7599 160.735C71.2845 161.463 68.6267 161.054 66.1104 160.484C63.5942 159.914 61.0681 159.182 58.4902 159.279C56.4699 159.354 54.368 160.053 52.9519 161.437L52.9667 161.418C52.9523 161.432 52.9403 161.447 52.9259 161.462C52.6929 161.693 52.479 161.942 52.2874 162.211C50.5599 164.514 50.2839 167.61 50.8151 170.422C51.41 173.57 52.8809 176.48 54.4594 179.268C56.3186 182.553 58.4303 185.823 61.5043 188.012C65.2966 190.714 70.0656 188.849 74.707 189.216C85.5335 190.07 97.1813 190.653 108.009 189.814C113.728 189.37 119.089 189.99 123.628 186.481C126.821 184.013 128.898 180.292 129.899 176.382C130.9 172.472 130.896 168.366 130.49 164.351Z" fill="#B9D1D9"/>
<g opacity="0.24">
<path d="M110.058 158.772C109.446 159.708 109.186 160.962 109.775 161.912C110.365 162.862 111.161 163.726 111.417 164.814C111.818 166.524 110.789 168.195 110.022 169.775C108.649 172.6 108.024 175.823 108.487 178.93C108.95 182.037 110.544 185.005 113.031 186.924C114.13 187.773 115.559 188.431 116.884 188.016C118.132 187.625 118.939 186.358 119.187 185.074C119.434 183.791 119.23 182.468 119.067 181.171C118.311 175.149 118.466 169.014 119.525 163.039C119.702 162.04 119.871 160.9 119.238 160.107C118.834 159.6 118.189 159.362 117.574 159.157C115.161 158.354 112.557 159.247 110.058 158.772Z" fill="black"/>
</g>
<path d="M47.4019 192.098C47.4019 192.098 47.1843 188.469 51.9176 186.449H135.091C135.091 186.449 139.428 188.644 139.962 192.023L47.4019 192.098Z" fill="#263238"/>
<path d="M133.328 32.9051C133.285 32.9255 133.241 32.9459 133.196 32.9664L54.9888 32.4629C54.9888 32.4629 54.7114 32.2852 54.2952 31.9599C52.067 30.2172 53.3175 26.6374 56.1461 26.6601L132.053 27.2731C135.186 27.2986 136.161 31.5665 133.328 32.9051Z" fill="#263238"/>
<g opacity="0.24">
<path d="M120.812 62.7384C120.969 63.04 120.383 63.692 119.261 64.6872C118.137 65.6835 116.495 67.0499 114.407 68.7324C112.309 70.4009 109.767 72.4128 106.528 74.2902C104.906 75.2275 103.1 76.078 101.125 76.7698C100.132 77.103 99.1029 77.4124 98.0204 77.6282C96.9444 77.8588 95.8211 78.0119 94.6662 78.0648C92.3629 78.1971 90.0201 77.8597 87.9238 77.1433C85.839 76.42 84.061 75.4005 82.5061 74.3779C80.9471 73.3441 79.6029 72.3238 78.3361 71.347C77.0745 70.368 75.9247 69.4242 74.897 68.5366C70.7887 64.9772 68.6283 62.3598 69.045 61.8545C69.4756 61.3293 72.3835 62.9941 76.9158 65.779C78.0485 66.4746 79.2878 67.2355 80.6176 68.0517C81.9461 68.8609 83.3752 69.7541 84.8321 70.58C86.2937 71.406 87.8189 72.1572 89.4007 72.6444C90.9718 73.114 92.6473 73.3371 94.4295 73.2374C97.9916 73.0555 101.448 71.8004 104.444 70.355C107.454 68.8818 110.146 67.2151 112.494 65.9006C114.839 64.5712 116.845 63.589 118.305 63.067C119.767 62.5431 120.661 62.4484 120.812 62.7384Z" fill="black"/>
</g>
<path d="M92.4257 136.41C93.2841 136.108 94.31 136.972 94.1587 137.869C94.0075 138.766 92.7547 139.246 92.0429 138.679C91.3311 138.112 91.5181 136.784 92.3589 136.436" fill="#B9D1D9"/>
<path d="M64.4526 75.6813C64.4466 75.6868 64.3514 75.5908 64.1765 75.4029C63.9886 75.1969 63.7362 74.9203 63.4188 74.5723C63.0986 74.2039 62.6773 73.778 62.2467 73.2337C61.8097 72.6899 61.315 72.0741 60.7698 71.3958C60.2655 70.6826 59.6929 69.9142 59.1175 69.0628C58.8438 68.6271 58.5612 68.177 58.2698 67.7135C58.1264 67.4801 57.971 67.2495 57.8322 67.004C57.6977 66.7562 57.5617 66.5052 57.4239 66.2509C56.282 64.2404 55.2654 61.8861 54.5425 59.3141C53.8191 56.7408 53.4799 54.1967 53.4493 51.8809C53.4474 51.3023 53.479 50.738 53.492 50.19C53.505 49.9163 53.4999 49.6453 53.5272 49.3808C53.5556 49.1164 53.5834 48.856 53.6108 48.6004C53.6692 48.0891 53.7101 47.5935 53.7787 47.1212C53.8637 46.652 53.9453 46.201 54.0233 45.77C54.156 44.9046 54.3847 44.1451 54.5485 43.4709C54.6376 43.1354 54.7072 42.8199 54.7958 42.5359C54.8877 42.2552 54.9721 41.9977 55.0487 41.7633C55.1986 41.317 55.3174 40.9616 55.406 40.6971C55.4904 40.4544 55.5382 40.3282 55.5461 40.331C55.554 40.3338 55.5215 40.4651 55.4524 40.7124C55.3744 40.9796 55.27 41.3388 55.1387 41.7903C55.0682 42.026 54.9912 42.2849 54.9067 42.567C54.8251 42.8519 54.762 43.1683 54.6794 43.5038C54.5286 44.1789 54.3123 44.9376 54.1912 45.8006C54.1184 46.2298 54.0423 46.6794 53.9629 47.1467C53.8998 47.6167 53.8641 48.1099 53.8098 48.6185C53.7848 48.8728 53.7592 49.1317 53.7333 49.3943C53.7082 49.6574 53.7152 49.926 53.704 50.1979C53.6948 50.7422 53.6665 51.3023 53.6716 51.8767C53.7147 54.1749 54.0576 56.6953 54.7749 59.2473C55.4918 61.7984 56.4941 64.1379 57.6193 66.1428C57.7548 66.3962 57.8889 66.6467 58.0206 66.8936C58.157 67.1381 58.3106 67.3687 58.4512 67.6021C58.7375 68.0656 59.0154 68.5157 59.2846 68.9514C59.8502 69.8038 60.4125 70.5745 60.9062 71.2918C61.4394 71.9767 61.9233 72.5975 62.3511 73.1465C62.7706 73.6972 63.1812 74.1315 63.4898 74.5088C63.7928 74.8688 64.0331 75.1556 64.2127 75.3685C64.376 75.569 64.4586 75.6757 64.4526 75.6813Z" fill="#263238"/>
<path d="M60.0491 144.614C60.0454 144.612 60.0751 144.56 60.1359 144.461C60.2046 144.353 60.296 144.209 60.412 144.025C60.5377 143.83 60.6899 143.595 60.8681 143.319C60.959 143.18 61.0569 143.029 61.1609 142.87C61.275 142.717 61.4087 142.562 61.5437 142.394C61.8179 142.059 62.1223 141.688 62.454 141.282C62.8113 140.897 63.2206 140.499 63.6498 140.06C64.5309 139.208 65.5963 138.299 66.8351 137.38C69.298 135.513 72.4755 133.658 75.9198 131.494C77.6292 130.393 79.4281 129.234 81.1291 127.823C82.8325 126.423 84.4746 124.809 85.8039 122.884C88.4255 118.986 89.4904 114.47 89.5832 110.434C89.689 106.367 88.8241 102.745 87.8047 99.858C86.7732 96.9603 85.59 94.7545 84.7312 93.2669C84.3015 92.5212 83.9484 91.9533 83.7057 91.571C83.5906 91.3867 83.5006 91.242 83.4324 91.1334C83.3721 91.0341 83.3429 90.9821 83.3461 90.9798C83.3494 90.9775 83.3856 91.0248 83.4528 91.1199C83.5257 91.2257 83.6227 91.3659 83.7461 91.5445C84.0027 91.919 84.3688 92.4795 84.8119 93.2195C85.6977 94.6955 86.9082 96.8963 87.9657 99.8009C89.0106 102.695 89.9001 106.338 89.8059 110.44C89.7887 111.463 89.7062 112.51 89.5498 113.569C89.4032 114.63 89.1791 115.704 88.8705 116.774C88.2738 118.92 87.3161 121.051 86.0039 123.019C84.6569 124.972 82.9958 126.6 81.2785 128.007C79.5627 129.426 77.7549 130.585 76.0386 131.682C72.5813 133.841 69.4024 135.676 66.9368 137.518C65.696 138.425 64.6284 139.321 63.743 140.159C63.312 140.591 62.8995 140.983 62.5394 141.361C62.203 141.76 61.8954 142.125 61.6175 142.454C61.4801 142.619 61.3442 142.771 61.2277 142.921C61.121 143.078 61.0208 143.225 60.927 143.363C60.7419 143.633 60.5837 143.863 60.4533 144.054C60.3289 144.231 60.231 144.371 60.1573 144.476C60.089 144.569 60.0524 144.616 60.0491 144.614Z" fill="#263238"/>
<path d="M55.7344 152.813C55.7413 152.818 55.7061 152.891 55.6328 153.028C55.5437 153.187 55.4346 153.382 55.3024 153.619C55.153 153.871 54.9757 154.184 54.7966 154.56C54.6138 154.935 54.3827 155.349 54.1869 155.836C54.0825 156.078 53.9735 156.329 53.8603 156.591C53.7485 156.854 53.6571 157.137 53.548 157.425C53.3211 157.998 53.1453 158.632 52.9448 159.295C52.5875 160.631 52.2892 162.126 52.1347 163.716C51.9973 165.309 52.0187 166.834 52.1268 168.213C52.2038 168.901 52.2609 169.557 52.3797 170.161C52.4344 170.464 52.4725 170.76 52.5346 171.039C52.5982 171.317 52.6599 171.584 52.7184 171.84C52.8218 172.355 52.974 172.804 53.0854 173.206C53.193 173.608 53.3104 173.948 53.4111 174.223C53.4984 174.48 53.5698 174.691 53.6287 174.864C53.6761 175.012 53.697 175.091 53.6895 175.094C53.6816 175.097 53.6454 175.025 53.5837 174.883C53.5137 174.714 53.4274 174.507 53.3234 174.256C53.2084 173.984 53.0775 173.648 52.9569 173.247C52.8321 172.847 52.6678 172.398 52.5527 171.882C52.4887 171.625 52.4219 171.357 52.3523 171.079C52.2845 170.798 52.2414 170.502 52.182 170.197C52.0539 169.589 51.988 168.928 51.9045 168.234C51.783 166.843 51.7546 165.303 51.8934 163.695C52.0493 162.09 52.3574 160.58 52.73 159.235C52.9383 158.568 53.123 157.93 53.3596 157.355C53.4733 157.067 53.5698 156.782 53.6872 156.519C53.8065 156.258 53.9206 156.007 54.0306 155.765C54.2375 155.28 54.4811 154.868 54.6765 154.497C54.8681 154.125 55.0579 153.818 55.2207 153.572C55.3687 153.344 55.4912 153.156 55.591 153.003C55.6782 152.874 55.727 152.808 55.7344 152.813Z" fill="#263238"/>
<path d="M113.101 163.964C113.104 163.968 113.072 163.991 113.007 164.033C112.93 164.081 112.835 164.141 112.717 164.214C112.443 164.379 112.067 164.605 111.592 164.89C111.345 165.037 111.072 165.198 110.775 165.374C110.471 165.542 110.128 165.701 109.767 165.884C109.037 166.236 108.227 166.684 107.271 167.046C106.798 167.24 106.303 167.442 105.788 167.654C105.271 167.861 104.713 168.021 104.146 168.218C103.016 168.63 101.766 168.924 100.459 169.265C97.824 169.851 94.8758 170.281 91.7577 170.381C88.6377 170.444 85.67 170.168 83.0076 169.721C81.6847 169.449 80.4208 169.22 79.271 168.867C78.6942 168.701 78.1281 168.57 77.601 168.39C77.0753 168.206 76.571 168.029 76.0884 167.86C75.1149 167.549 74.282 167.144 73.535 166.83C73.1643 166.667 72.8144 166.525 72.5021 166.374C72.1964 166.214 71.9156 166.066 71.6609 165.933C71.1709 165.672 70.7839 165.467 70.5014 165.316C70.3807 165.249 70.2828 165.195 70.203 165.151C70.1367 165.112 70.1033 165.091 70.1056 165.087C70.1074 165.083 70.1446 165.098 70.2151 165.129C70.2977 165.168 70.3993 165.215 70.5246 165.274C70.8113 165.414 71.2048 165.606 71.7027 165.849C71.9593 165.976 72.2423 166.117 72.5509 166.269C72.865 166.414 73.2167 166.549 73.5888 166.706C74.3387 167.007 75.1725 167.4 76.1459 167.698C76.6276 167.862 77.1319 168.033 77.6567 168.211C78.1834 168.386 78.748 168.511 79.3229 168.673C80.4695 169.016 81.7288 169.236 83.0456 169.501C85.6964 169.934 88.648 170.201 91.7507 170.139C94.8516 170.039 97.7841 169.619 100.408 169.047C101.71 168.714 102.956 168.429 104.082 168.026C104.648 167.835 105.206 167.68 105.722 167.478C106.237 167.273 106.731 167.075 107.204 166.887C108.161 166.538 108.973 166.102 109.706 165.762C110.069 165.585 110.414 165.433 110.72 165.272C111.02 165.103 111.295 164.948 111.545 164.807C112.029 164.539 112.413 164.326 112.692 164.171C112.814 164.106 112.913 164.054 112.993 164.011C113.063 163.977 113.099 163.96 113.101 163.964Z" fill="#263238"/>
<path d="M117.94 65.7633C117.943 65.7665 117.909 65.7976 117.841 65.8552C117.763 65.9201 117.662 66.0027 117.537 66.1057C117.253 66.3326 116.856 66.6491 116.352 67.0513C115.32 67.8675 113.828 69.0512 111.942 70.4613C110.052 71.8635 107.762 73.4968 105.04 75.0238C103.666 75.7578 102.202 76.5081 100.594 77.0696C98.9915 77.6347 97.2686 78.0681 95.4637 78.2106C91.8384 78.456 88.4021 77.5373 85.606 76.1601C84.208 75.4595 82.9468 74.6744 81.7989 73.8958C80.6658 73.0963 79.6315 72.3229 78.7165 71.5814C76.8795 70.1073 75.4402 68.8596 74.4403 68.0044C73.9526 67.5831 73.5694 67.2513 73.2938 67.0133C73.1726 66.9057 73.0761 66.8193 72.9996 66.7511C72.9342 66.6908 72.9017 66.6588 72.9045 66.6556C72.9072 66.6523 72.9448 66.6783 73.0154 66.7321C73.0961 66.7957 73.1977 66.876 73.3253 66.9762C73.6074 67.2059 74.0009 67.5256 74.5011 67.9325C75.5196 68.7658 76.9756 69.9936 78.8228 71.4478C79.7429 72.1795 80.7799 72.9418 81.9126 73.7306C83.0596 74.4981 84.3165 75.2716 85.7044 75.9601C88.4786 77.3127 91.8732 78.2105 95.4465 77.9693C97.2246 77.8287 98.927 77.4032 100.515 76.8464C102.108 76.2938 103.564 75.5532 104.933 74.8285C107.647 73.3205 109.941 71.7062 111.841 70.3235C113.737 68.9333 115.245 67.7701 116.295 66.9766C116.811 66.5897 117.216 66.2853 117.508 66.0672C117.639 65.9721 117.744 65.8955 117.827 65.8357C117.899 65.7846 117.938 65.76 117.94 65.7633Z" fill="#263238"/>
<g opacity="0.24">
<path d="M76.0938 167.862C78.2922 166.164 81.3815 166.576 84.1001 167.147C86.8182 167.718 89.5567 168.648 92.3078 168.263C94.3809 167.973 96.2829 166.953 98.3291 166.51C100.375 166.067 102.857 166.394 103.992 168.154C94.9902 171.08 85.0322 170.976 76.0938 167.862Z" fill="black"/>
</g>
<path d="M152.825 155.271L142.832 144.082L142.73 157.683L145.738 166.406L115.847 171.591L114.579 148.006L112.427 129.893C112.164 127.673 113.429 125.555 115.509 124.736L123.735 121.497L135.321 123.623L139.982 125.394C141.939 126.138 143.683 127.351 145.061 128.927L159.091 144.971" fill="#1D6C86"/>
<path d="M142.131 141.406C142.133 141.359 142.788 141.456 143.819 141.288C144.839 141.129 146.248 140.63 147.418 139.554C148.585 138.475 149.197 137.11 149.437 136.106C149.688 135.093 149.645 134.432 149.692 134.433C149.707 134.433 149.73 134.596 149.734 134.893C149.74 135.19 149.711 135.622 149.604 136.145C149.4 137.183 148.794 138.61 147.581 139.731C146.367 140.85 144.894 141.338 143.844 141.457C143.314 141.521 142.881 141.515 142.585 141.486C142.289 141.457 142.129 141.421 142.131 141.406Z" fill="white"/>
<path d="M143.005 157.104C143.075 157.103 143.092 152.391 143.045 146.581C142.997 140.769 142.902 136.059 142.832 136.06C142.762 136.06 142.745 140.771 142.792 146.583C142.839 152.393 142.935 157.104 143.005 157.104Z" fill="#263238"/>
<path d="M141.91 160.561L123.848 153.29C122.392 152.703 121.394 151.341 121.274 149.776L119.952 132.459C119.952 132.459 120.109 125.095 115.509 124.736L112.892 125.766C109.51 127.563 108.672 132.487 109.132 136.289C109.786 141.691 110.058 149.336 110.791 154.025C111.39 157.86 113.586 161.234 117.34 162.222L139.586 167.038L141.91 160.561Z" fill="#1D6C86"/>
<path d="M120.212 135.101C120.22 135.1 120.24 135.237 120.269 135.497C120.298 135.78 120.336 136.16 120.385 136.638C120.477 137.653 120.607 139.082 120.767 140.838C120.92 142.619 121.101 144.728 121.302 147.069C121.351 147.655 121.402 148.256 121.453 148.87C121.507 149.484 121.544 150.113 121.684 150.723C121.816 151.335 122.11 151.909 122.582 152.345C123.05 152.784 123.637 153.104 124.249 153.382C129.229 155.538 133.819 157.317 137.151 158.565C138.805 159.174 140.151 159.67 141.107 160.022C141.558 160.188 141.916 160.321 142.182 160.419C142.427 160.512 142.555 160.564 142.552 160.572C142.549 160.58 142.416 160.543 142.166 160.465C141.897 160.378 141.533 160.26 141.076 160.111C140.13 159.798 138.768 159.328 137.092 158.726C133.741 157.517 129.143 155.764 124.148 153.603C123.527 153.32 122.917 152.989 122.417 152.521C121.912 152.055 121.588 151.416 121.454 150.777C121.31 150.136 121.276 149.503 121.224 148.891C121.175 148.277 121.127 147.676 121.08 147.089C120.898 144.746 120.735 142.635 120.596 140.852C120.469 139.094 120.365 137.663 120.291 136.646C120.261 136.167 120.238 135.785 120.22 135.502C120.206 135.239 120.203 135.101 120.212 135.101Z" fill="#263238"/>
<path d="M109.864 144.514C109.872 144.514 109.884 144.594 109.899 144.747C109.916 144.927 109.935 145.148 109.959 145.415C110.013 146.032 110.086 146.863 110.174 147.873C110.273 148.909 110.398 150.143 110.578 151.506C110.764 152.867 110.983 154.368 111.394 155.892C111.588 156.662 111.862 157.373 112.276 157.984C112.69 158.599 113.149 159.152 113.625 159.642C114.58 160.618 115.599 161.334 116.515 161.81C118.363 162.77 119.707 162.784 119.688 162.848C119.687 162.857 119.606 162.854 119.453 162.843C119.299 162.832 119.072 162.814 118.785 162.756C118.209 162.655 117.381 162.429 116.438 161.962C115.497 161.498 114.449 160.784 113.467 159.798C112.978 159.303 112.506 158.743 112.08 158.116C111.648 157.487 111.355 156.727 111.162 155.957C110.745 154.409 110.533 152.902 110.358 151.534C110.189 150.164 110.081 148.927 110.004 147.887C109.928 146.846 109.887 146.003 109.866 145.42C109.86 145.152 109.855 144.93 109.852 144.749C109.851 144.595 109.855 144.514 109.864 144.514Z" fill="#263238"/>
<path d="M117.586 156.632C117.562 156.625 117.638 156.239 117.915 155.669C118.189 155.101 118.695 154.367 119.432 153.735C120.171 153.106 120.976 152.721 121.58 152.54C122.186 152.355 122.579 152.34 122.582 152.366C122.59 152.406 122.211 152.481 121.636 152.701C121.062 152.919 120.302 153.313 119.589 153.919C118.879 154.528 118.371 155.217 118.066 155.75C117.759 156.282 117.625 156.645 117.586 156.632Z" fill="#263238"/>
<path d="M121.139 143.462C121.141 143.459 121.179 143.476 121.253 143.513C121.339 143.558 121.445 143.613 121.577 143.682C121.867 143.819 122.289 144.033 122.865 144.229C124.001 144.623 125.78 145.024 127.927 144.661C130.047 144.315 132.513 143.065 134.22 140.752C135.065 139.609 135.719 138.202 135.868 136.66C135.943 135.894 135.88 135.096 135.627 134.344C135.379 133.595 134.926 132.899 134.325 132.355C133.727 131.809 132.985 131.424 132.205 131.325C131.436 131.203 130.613 131.406 130.079 131.921C129.822 132.18 129.661 132.526 129.665 132.883C129.664 133.239 129.801 133.59 130.014 133.875C130.442 134.459 131.162 134.732 131.851 134.833C133.259 135.027 134.642 134.772 135.799 134.269C136.962 133.762 137.913 133.008 138.597 132.177C139.283 131.341 139.706 130.438 139.958 129.619C140.212 128.797 140.289 128.052 140.302 127.447C140.311 126.84 140.248 126.37 140.2 126.053C140.173 125.907 140.152 125.789 140.134 125.694C140.12 125.613 140.115 125.571 140.119 125.57C140.119 125.57 140.375 126.214 140.396 127.447C140.398 128.059 140.334 128.818 140.088 129.658C139.843 130.495 139.424 131.422 138.73 132.285C138.038 133.144 137.07 133.924 135.88 134.452C134.694 134.977 133.279 135.248 131.819 135.054C131.102 134.951 130.315 134.668 129.829 134.014C129.591 133.696 129.432 133.301 129.432 132.883C129.426 132.463 129.617 132.05 129.912 131.755C130.518 131.169 131.413 130.96 132.238 131.087C133.073 131.193 133.859 131.602 134.488 132.176C135.12 132.75 135.595 133.478 135.856 134.268C136.12 135.057 136.183 135.888 136.105 136.682C135.947 138.279 135.269 139.719 134.4 140.884C132.644 143.242 130.119 144.498 127.957 144.83C125.768 145.176 123.97 144.742 122.835 144.317C121.685 143.879 121.139 143.462 121.139 143.462Z" fill="white"/>
<path d="M109.307 138.844C109.296 138.834 109.397 138.699 109.604 138.474C109.812 138.251 110.135 137.945 110.58 137.625C111.456 136.966 112.908 136.366 114.575 136.209C115.409 136.121 116.217 136.16 116.93 136.308C117.644 136.456 118.258 136.696 118.745 136.946C119.233 137.193 119.602 137.438 119.848 137.617C120.093 137.798 120.219 137.91 120.211 137.923C120.185 137.961 119.645 137.552 118.671 137.1C117.707 136.639 116.232 136.254 114.601 136.45C112.967 136.605 111.559 137.159 110.677 137.766C109.783 138.361 109.341 138.878 109.307 138.844Z" fill="white"/>
<path d="M112.198 126.461C112.235 126.421 112.662 127.012 113.66 127.524C114.153 127.78 114.791 127.995 115.521 128.07C116.248 128.147 117.07 128.064 117.85 127.748C118.626 127.42 119.267 126.898 119.727 126.329C120.19 125.76 120.49 125.158 120.658 124.628C121.002 123.56 120.886 122.84 120.942 122.843C120.954 122.841 120.99 123.015 121.002 123.335C121.015 123.655 120.977 124.123 120.822 124.678C120.669 125.232 120.375 125.867 119.901 126.468C119.43 127.069 118.763 127.625 117.943 127.971C117.119 128.305 116.254 128.383 115.497 128.291C114.737 128.2 114.08 127.959 113.58 127.675C113.078 127.392 112.72 127.087 112.503 126.852C112.285 126.618 112.188 126.469 112.198 126.461Z" fill="white"/>
<path d="M127.936 154.936C127.928 154.935 127.941 154.817 127.974 154.594C128.025 154.375 128.096 154.044 128.294 153.659C128.658 152.881 129.566 151.907 130.998 151.312C132.409 150.678 134.351 150.556 136.308 151.122C137.262 151.407 138.358 151.757 139.075 152.69C139.426 153.148 139.546 153.831 139.279 154.388C139.023 154.948 138.52 155.333 137.991 155.603C137.453 155.866 136.868 156.015 136.282 156.026C135.7 156.037 135.094 155.893 134.64 155.517C134.182 155.147 133.941 154.575 133.905 154.029C133.863 153.479 133.975 152.947 134.151 152.464C134.921 150.532 136.477 149.304 137.874 148.696C139.293 148.075 140.578 148.01 141.426 148.086C142.282 148.174 142.725 148.359 142.725 148.359C142.717 148.391 142.265 148.238 141.419 148.18C140.581 148.133 139.323 148.225 137.944 148.852C137.26 149.165 136.553 149.614 135.917 150.228C135.284 150.839 134.715 151.622 134.361 152.541C134.194 153.002 134.094 153.507 134.136 154.011C134.172 154.512 134.388 155.01 134.791 155.335C135.189 155.664 135.735 155.798 136.278 155.787C136.824 155.777 137.379 155.635 137.885 155.388C138.382 155.136 138.842 154.774 139.06 154.291C139.288 153.811 139.193 153.242 138.884 152.829C138.578 152.408 138.132 152.104 137.676 151.87C137.217 151.638 136.725 151.481 136.249 151.338C134.332 150.773 132.45 150.874 131.064 151.472C129.658 152.034 128.761 152.959 128.379 153.705C127.982 154.452 127.97 154.945 127.936 154.936Z" fill="white"/>
<path d="M115.91 161.456C115.903 161.411 116.599 161.352 117.642 160.98C118.679 160.617 120.062 159.872 121.193 158.621C122.324 157.369 122.926 155.919 123.183 154.851C123.448 153.775 123.436 153.077 123.483 153.08C123.497 153.08 123.514 153.253 123.508 153.567C123.504 153.881 123.463 154.336 123.35 154.889C123.131 155.988 122.538 157.493 121.372 158.783C120.206 160.073 118.768 160.813 117.697 161.142C117.158 161.31 116.709 161.396 116.397 161.433C116.086 161.47 115.912 161.471 115.91 161.456Z" fill="white"/>
<path d="M110.057 147.996C110.054 147.988 110.129 147.958 110.275 147.908C110.42 147.861 110.637 147.794 110.92 147.722C111.483 147.586 112.324 147.399 113.38 147.472C113.905 147.514 114.48 147.633 115.053 147.886C115.621 148.138 116.191 148.534 116.613 149.11C117.027 149.686 117.281 150.434 117.219 151.216C117.191 151.605 117.071 151.996 116.861 152.346C116.65 152.689 116.332 153.002 115.915 153.137C115.503 153.267 115.02 153.201 114.694 152.896C114.373 152.585 114.293 152.149 114.274 151.77C114.244 151 114.411 150.262 114.699 149.622C115.273 148.327 116.342 147.476 117.333 147.122C118.331 146.753 119.217 146.78 119.79 146.879C120.079 146.929 120.298 146.993 120.443 147.044C120.587 147.099 120.661 147.131 120.658 147.139C120.651 147.162 120.348 147.043 119.776 146.972C119.21 146.903 118.35 146.904 117.395 147.281C116.447 147.644 115.442 148.468 114.902 149.712C114.632 150.325 114.48 151.032 114.51 151.758C114.528 152.113 114.611 152.486 114.86 152.721C115.104 152.953 115.502 153.014 115.841 152.907C116.185 152.796 116.466 152.528 116.656 152.219C116.845 151.906 116.955 151.553 116.983 151.196C117.044 150.48 116.813 149.778 116.432 149.24C116.044 148.7 115.51 148.316 114.97 148.068C114.426 147.818 113.873 147.693 113.365 147.642C112.341 147.548 111.505 147.705 110.94 147.813C110.373 147.93 110.062 148.014 110.057 147.996Z" fill="white"/>
<g opacity="0.3">
<path d="M136.72 158.497C134.789 157.406 132.899 156.567 130.88 155.65C128.86 154.732 126.882 153.554 125.561 151.773C123.068 148.413 123.352 143.564 120.801 140.249C120.967 142.478 121.134 144.707 121.301 146.937C121.453 148.98 121.14 151.001 122.456 152.389C123.565 153.559 125.727 154.456 127.257 154.96C130.333 155.975 133.644 157.482 136.72 158.497Z" fill="black"/>
</g>
<path d="M168.103 183.947C168.103 183.947 183.215 188.13 183.821 188.343C184.732 188.664 184.579 191.999 183.162 191.947C182.492 191.923 171.554 192.355 170.172 192.268C168.79 192.182 164.621 190.539 164.621 190.539L168.103 183.947Z" fill="#1D6C86"/>
<path d="M174.397 189.714C174.473 189.724 174.576 188.925 175.063 188.091C175.539 187.251 176.179 186.761 176.132 186.7C176.105 186.642 175.355 187.068 174.844 187.965C174.325 188.857 174.334 189.72 174.397 189.714Z" fill="#263238"/>
<path d="M172.823 188.999C172.897 189.012 173.05 188.298 173.453 187.509C173.847 186.715 174.33 186.167 174.276 186.115C174.234 186.065 173.644 186.559 173.227 187.395C172.803 188.227 172.758 188.995 172.823 188.999Z" fill="#263238"/>
<path d="M171.344 188.604C171.42 188.599 171.362 187.844 171.698 187.007C172.019 186.164 172.574 185.649 172.521 185.594C172.491 185.536 171.813 186.003 171.462 186.915C171.102 187.822 171.283 188.625 171.344 188.604Z" fill="#263238"/>
<path d="M171.613 186.652C171.64 186.658 171.774 186.236 171.775 185.527C171.774 185.174 171.733 184.751 171.622 184.295C171.567 184.067 171.492 183.831 171.397 183.593C171.348 183.474 171.292 183.335 171.155 183.223C171.014 183.096 170.757 183.123 170.636 183.249C170.497 183.369 170.454 183.539 170.435 183.676C170.419 183.815 170.412 183.944 170.415 184.075C170.418 184.335 170.452 184.584 170.508 184.815C170.62 185.276 170.8 185.663 170.973 185.97C171.325 186.583 171.63 186.897 171.652 186.88C171.686 186.856 171.433 186.504 171.132 185.887C170.983 185.579 170.828 185.201 170.735 184.764C170.689 184.546 170.662 184.313 170.662 184.074C170.669 183.842 170.666 183.551 170.802 183.439C170.874 183.379 170.939 183.376 171.002 183.423C171.068 183.474 171.124 183.577 171.167 183.687C171.261 183.913 171.337 184.136 171.396 184.353C171.515 184.788 171.572 185.192 171.596 185.533C171.641 186.218 171.572 186.645 171.613 186.652Z" fill="#263238"/>
<path d="M171.594 186.498C171.601 186.471 171.237 186.345 170.62 186.341C170.312 186.34 169.944 186.372 169.547 186.472C169.351 186.525 169.141 186.575 168.93 186.699C168.723 186.804 168.506 187.092 168.588 187.39C168.653 187.671 168.893 187.868 169.132 187.929C169.373 187.997 169.606 187.973 169.81 187.928C170.225 187.832 170.548 187.628 170.792 187.445C171.277 187.065 171.513 186.774 171.495 186.753C171.468 186.721 171.182 186.97 170.69 187.298C170.442 187.457 170.132 187.628 169.763 187.7C169.579 187.735 169.381 187.746 169.202 187.692C169.024 187.643 168.876 187.507 168.834 187.333C168.791 187.164 168.893 187.009 169.059 186.911C169.221 186.811 169.421 186.753 169.607 186.697C169.981 186.59 170.33 186.541 170.626 186.519C171.217 186.478 171.588 186.538 171.594 186.498Z" fill="#263238"/>
<path d="M176.721 189.876C176.796 189.867 176.722 189.221 177.019 188.513C177.302 187.798 177.806 187.388 177.759 187.329C177.734 187.268 177.102 187.626 176.785 188.417C176.459 189.204 176.66 189.902 176.721 189.876Z" fill="#263238"/>
<path d="M166.176 190.573C166.169 190.589 166.377 190.686 166.761 190.848C167.149 190.995 167.717 191.201 168.442 191.369C169.887 191.734 171.948 191.94 174.212 191.916C176.477 191.891 178.517 191.788 179.998 191.729C180.698 191.691 181.285 191.66 181.749 191.636C182.162 191.608 182.39 191.585 182.39 191.567C182.389 191.549 182.16 191.54 181.746 191.537C181.282 191.541 180.694 191.545 179.992 191.55C178.462 191.58 176.443 191.62 174.211 191.663C171.957 191.687 169.922 191.511 168.482 191.195C167.037 190.898 166.194 190.526 166.176 190.573Z" fill="#263238"/>
<path d="M165.729 190.918C165.749 190.952 166.163 190.711 166.861 190.405C167.551 190.109 168.585 189.754 169.721 189.929C170.859 190.104 171.667 190.868 172.192 191.4C172.722 191.949 173.033 192.315 173.063 192.289C173.086 192.27 172.828 191.869 172.324 191.278C172.069 190.986 171.745 190.647 171.322 190.341C170.903 190.034 170.364 189.772 169.76 189.68C168.542 189.493 167.468 189.9 166.785 190.242C166.092 190.597 165.714 190.893 165.729 190.918Z" fill="#263238"/>
<path d="M152.063 179.775C152.063 179.775 137.762 189.138 137.249 189.526C136.479 190.107 137.363 192.878 138.697 192.399C139.328 192.172 151.328 188.834 152.618 188.332C153.908 187.83 157.382 184.998 157.382 184.998L152.063 179.775Z" fill="#1D6C86"/>
<path d="M147.817 187.181C147.879 187.168 147.625 186.343 146.86 185.65C146.101 184.951 145.256 184.773 145.249 184.836C145.222 184.908 145.98 185.181 146.689 185.837C147.407 186.484 147.747 187.214 147.817 187.181Z" fill="#263238"/>
<path d="M149.1 186.022C149.16 185.998 148.883 185.28 148.228 184.616C147.577 183.946 146.864 183.655 146.839 183.714C146.803 183.78 147.43 184.156 148.047 184.792C148.67 185.422 149.033 186.057 149.1 186.022Z" fill="#263238"/>
<path d="M150.388 185.196C150.453 185.198 150.381 184.378 149.763 183.623C149.152 182.861 148.364 182.622 148.353 182.686C148.319 182.754 149.004 183.077 149.566 183.782C150.14 184.478 150.314 185.215 150.388 185.196Z" fill="#263238"/>
<path d="M149.539 183.417C149.577 183.399 149.381 183.012 149.215 182.347C149.134 182.015 149.066 181.612 149.047 181.162C149.038 180.937 149.042 180.701 149.063 180.457C149.071 180.34 149.093 180.224 149.141 180.155C149.187 180.091 149.249 180.075 149.336 180.111C149.5 180.176 149.585 180.453 149.662 180.672C149.735 180.901 149.78 181.13 149.802 181.352C149.846 181.796 149.813 182.204 149.766 182.543C149.665 183.222 149.531 183.634 149.571 183.647C149.597 183.656 149.792 183.265 149.942 182.573C150.014 182.229 150.068 181.805 150.034 181.331C150.018 181.095 149.974 180.847 149.898 180.598C149.862 180.472 149.815 180.351 149.758 180.224C149.699 180.099 149.606 179.95 149.437 179.878C149.283 179.795 149.03 179.847 148.935 180.011C148.838 180.16 148.827 180.308 148.816 180.437C148.798 180.692 148.799 180.94 148.815 181.174C148.847 181.643 148.937 182.058 149.043 182.395C149.26 183.071 149.516 183.432 149.539 183.417Z" fill="#263238"/>
<path d="M149.51 183.265C149.529 183.302 149.864 183.132 150.44 182.992C150.727 182.923 151.075 182.863 151.464 182.852C151.658 182.849 151.867 182.843 152.052 182.889C152.239 182.933 152.384 183.049 152.394 183.223C152.406 183.402 152.306 183.576 152.152 183.676C151.998 183.782 151.806 183.832 151.62 183.854C151.247 183.898 150.899 183.829 150.615 183.753C150.046 183.59 149.698 183.44 149.682 183.479C149.672 183.504 149.985 183.709 150.562 183.925C150.851 184.025 151.22 184.121 151.644 184.087C151.853 184.068 152.082 184.019 152.291 183.882C152.499 183.751 152.669 183.49 152.646 183.203C152.633 182.894 152.34 182.686 152.111 182.649C151.871 182.595 151.656 182.61 151.453 182.619C151.045 182.645 150.684 182.726 150.391 182.82C149.804 183.011 149.495 183.241 149.51 183.265Z" fill="#263238"/>
<path d="M140.518 191.876C140.534 191.898 140.759 191.731 140.868 191.322C140.988 190.923 140.913 190.308 140.6 189.77C140.451 189.499 140.28 189.263 140.121 189.056C139.965 188.848 139.803 188.66 139.636 188.535C139.471 188.406 139.297 188.348 139.179 188.344C139.059 188.339 138.998 188.368 139 188.383C139.001 188.422 139.256 188.403 139.52 188.672C139.654 188.799 139.788 188.979 139.933 189.193C140.079 189.406 140.239 189.637 140.379 189.892C140.668 190.396 140.754 190.918 140.693 191.286C140.641 191.656 140.485 191.852 140.518 191.876Z" fill="#263238"/>
<path d="M145.653 188.04C145.72 188.047 145.699 187.321 145.15 186.67C144.607 186.013 143.897 185.864 143.892 185.93C143.864 186 144.469 186.237 144.956 186.832C145.454 187.417 145.58 188.055 145.653 188.04Z" fill="#263238"/>
<path d="M155.911 185.503C155.898 185.488 155.679 185.649 155.282 185.934C154.88 186.213 154.289 186.602 153.519 187.014C152.75 187.427 151.8 187.856 150.718 188.261C149.635 188.665 148.421 189.046 147.137 189.418C144.564 190.158 142.235 190.836 140.554 191.341C139.748 191.589 139.08 191.794 138.567 191.951C138.099 192.101 137.843 192.191 137.848 192.208C137.852 192.225 138.118 192.167 138.594 192.046C139.112 191.909 139.788 191.73 140.603 191.513C142.297 191.052 144.631 190.402 147.207 189.661C148.494 189.288 149.714 188.898 150.801 188.479C151.887 188.058 152.839 187.608 153.605 187.171C154.372 186.734 154.954 186.317 155.341 186.013C155.723 185.701 155.921 185.514 155.911 185.503Z" fill="#263238"/>
<path d="M156.441 185.695C156.448 185.667 155.997 185.5 155.229 185.373C154.474 185.254 153.328 185.192 152.224 185.74C151.677 186.011 151.242 186.424 150.937 186.845C150.627 187.265 150.421 187.686 150.267 188.042C149.965 188.758 149.842 189.218 149.869 189.23C149.906 189.245 150.091 188.803 150.429 188.117C150.768 187.452 151.305 186.478 152.337 185.966C153.366 185.454 154.459 185.478 155.206 185.55C155.965 185.63 156.432 185.735 156.441 185.695Z" fill="#263238"/>
<path d="M181.781 156.94C181.781 156.94 186.072 158.471 186.089 163.282C186.124 172.496 167.471 182.653 167.471 182.653L142.65 166.207L141.094 165.577C141.094 165.577 174.601 152.991 181.781 156.94Z" fill="#263238"/>
<path d="M155.223 174.514C155.234 174.528 155.463 174.371 155.869 174.075C156.276 173.781 156.857 173.343 157.567 172.793C158.988 171.695 160.922 170.138 163.002 168.353C165.082 166.566 166.914 164.89 168.214 163.651C168.865 163.032 169.385 162.524 169.738 162.167C170.091 161.81 170.281 161.607 170.269 161.594C170.257 161.582 170.045 161.761 169.67 162.095C169.265 162.461 168.733 162.941 168.093 163.52C166.762 164.724 164.914 166.376 162.837 168.161C160.76 169.943 158.847 171.52 157.456 172.653C156.787 173.199 156.232 173.652 155.809 173.997C155.422 174.317 155.212 174.5 155.223 174.514Z" fill="#455A64"/>
<path d="M174.774 160.384C174.783 160.322 173.676 160.214 172.382 160.601C171.085 160.979 170.214 161.671 170.255 161.718C170.297 161.783 171.201 161.207 172.454 160.844C173.701 160.469 174.775 160.461 174.774 160.384Z" fill="#455A64"/>
<path d="M172.637 158.932C172.614 158.872 171.818 159.222 171.165 160.038C170.504 160.849 170.329 161.701 170.393 161.71C170.465 161.735 170.737 160.962 171.362 160.198C171.977 159.425 172.676 158.997 172.637 158.932Z" fill="#455A64"/>
<path d="M183.147 188.108C183.16 188.079 182.851 188.019 182.507 188.301C182.169 188.572 181.882 189.112 181.789 189.742C181.696 190.377 181.837 190.96 182.016 191.331C182.192 191.708 182.385 191.885 182.407 191.867C182.44 191.844 182.305 191.634 182.182 191.265C182.056 190.899 181.955 190.36 182.04 189.778C182.125 189.199 182.362 188.699 182.627 188.434C182.89 188.159 183.152 188.148 183.147 188.108Z" fill="#263238"/>
<path d="M176.072 141.887L167.231 164.296L129.166 164.917L128.461 162.858L141.801 162.374L148.213 142.494L176.072 141.887Z" fill="#455A64"/>
<path d="M158.295 151.588C158.784 151.258 159.686 151.39 160.126 151.784C160.565 152.178 160.708 152.859 160.484 153.405C160.261 153.952 159.698 154.334 159.109 154.366C158.483 154.399 157.83 154.008 157.655 153.406C157.48 152.804 157.675 151.906 158.295 151.588Z" fill="#EBEBEB"/>
<path d="M169.822 183.773C169.822 183.773 134.752 160.77 133.316 160.291C131.88 159.812 128.41 157.538 124.939 158.496C121.469 159.453 118.357 162.564 116.802 167.112C115.913 169.709 115.493 174.142 115.296 177.466C115.061 181.441 116.291 185.404 118.891 188.419C120.074 189.791 121.533 190.985 123.264 191.524C123.629 191.638 124.008 191.736 124.397 191.82C131.028 193.257 137.842 190.281 141.568 184.611L142.386 183.365C142.386 183.365 165.327 191.794 165.686 191.674L169.822 183.773Z" fill="#263238"/>
<path d="M126.436 177.441C126.436 177.441 126.499 177.474 126.628 177.526C126.767 177.581 126.957 177.657 127.202 177.754C127.719 177.953 128.466 178.241 129.426 178.61C131.376 179.345 134.19 180.405 137.688 181.722C141.198 183.032 145.402 184.589 150.119 186.305C154.837 188.02 160.064 189.902 165.647 191.793L165.749 191.827L165.799 191.732C166.675 190.058 167.6 188.292 168.538 186.499C169.017 185.585 169.492 184.678 169.935 183.831L169.989 183.728L169.892 183.666C159.361 176.981 149.94 171 143.14 166.684C139.745 164.543 137.006 162.815 135.105 161.615C134.163 161.028 133.43 160.571 132.923 160.254C132.679 160.105 132.49 159.989 132.353 159.905C132.224 159.828 132.155 159.794 132.155 159.794C132.155 159.794 132.215 159.842 132.34 159.927C132.474 160.015 132.659 160.138 132.897 160.295C133.399 160.621 134.124 161.092 135.055 161.696C136.946 162.911 139.671 164.662 143.048 166.831C149.836 171.164 159.242 177.167 169.755 183.878L169.712 183.714C169.268 184.561 168.794 185.468 168.315 186.382C167.377 188.174 166.453 189.941 165.577 191.615L165.728 191.555C160.147 189.669 154.917 187.796 150.196 186.095C145.481 184.379 141.27 182.847 137.747 181.565C134.238 180.277 131.415 179.242 129.458 178.524C128.492 178.173 127.74 177.899 127.219 177.71C126.971 177.622 126.778 177.553 126.637 177.504C126.505 177.458 126.436 177.441 126.436 177.441Z" fill="#455A64"/>
<path d="M130.073 95.7521C130.671 94.1355 131.993 93.4335 133.668 93.0279C135.343 92.6224 137.207 93.1026 138.478 94.2668C139.328 95.0454 139.951 96.1214 141.001 96.5975C142.73 97.3812 144.945 96.236 146.583 97.1937C147.553 97.7607 148.029 99.0511 147.66 100.112C147.291 101.173 146.117 101.89 145.004 101.732C146.131 102.264 146.341 103.96 145.565 104.935C144.789 105.91 143.355 106.174 142.157 105.834C140.958 105.495 139.962 104.659 139.115 103.745C138.269 102.831 137.527 101.817 136.611 100.974C135.694 100.13 134.55 99.4511 133.305 99.4047C131.62 99.3421 130.065 100.475 129.18 101.91C128.295 103.346 127.966 105.048 127.719 106.716C127.473 108.385 127.287 110.087 126.643 111.646C126.567 111.829 126.459 112.032 126.266 112.072C125.986 112.131 125.781 111.821 125.669 111.558C124.401 108.587 123.725 105.366 123.691 102.136C123.671 100.261 123.881 98.505 125.046 97.0346C126.21 95.5642 128.897 94.6492 130.073 95.7521Z" fill="#263238"/>
<path d="M126.12 103.238L123.542 121.973C123.103 125.159 125.42 128.063 128.624 128.344C131.613 128.606 134.283 126.472 134.689 123.498C134.881 122.087 135.045 120.912 135.074 120.768C135.074 120.768 139.905 120.976 140.899 116.302C141.38 114.044 141.99 109.312 142.493 105.025C143.033 100.42 139.941 96.1748 135.395 95.2663L134.943 95.1758C130.012 94.4872 126.672 98.2897 126.12 103.238Z" fill="#FFBE9D"/>
<path d="M135.097 120.702C135.097 120.702 132.088 120.351 129.336 117.746C129.336 117.746 130.106 121.406 134.865 121.918L135.097 120.702Z" fill="#EB996E"/>
<path d="M140.5 107.89C140.442 108.246 140.092 108.49 139.72 108.436C139.348 108.382 139.092 108.051 139.151 107.695C139.209 107.339 139.558 107.095 139.93 107.148C140.303 107.202 140.558 107.534 140.5 107.89Z" fill="#263238"/>
<path d="M141.026 107.123C140.926 107.193 140.494 106.717 139.773 106.575C139.056 106.423 138.454 106.688 138.393 106.584C138.363 106.537 138.479 106.397 138.742 106.275C139.002 106.154 139.421 106.069 139.869 106.16C140.317 106.252 140.661 106.492 140.844 106.705C141.032 106.919 141.075 107.092 141.026 107.123Z" fill="#263238"/>
<path d="M133.391 106.724C133.333 107.08 132.983 107.324 132.611 107.27C132.239 107.216 131.983 106.885 132.041 106.529C132.099 106.173 132.449 105.929 132.821 105.982C133.194 106.036 133.449 106.368 133.391 106.724Z" fill="#263238"/>
<path d="M133.923 105.843C133.822 105.914 133.39 105.438 132.67 105.296C131.953 105.143 131.351 105.408 131.29 105.304C131.259 105.258 131.374 105.117 131.639 104.996C131.899 104.874 132.317 104.789 132.765 104.881C133.213 104.973 133.557 105.214 133.74 105.426C133.928 105.639 133.971 105.813 133.923 105.843Z" fill="#263238"/>
<path d="M135.469 111.704C135.473 111.663 135.937 111.675 136.68 111.727C136.868 111.745 137.049 111.743 137.105 111.624C137.175 111.499 137.138 111.286 137.091 111.054C137.007 110.575 136.92 110.072 136.827 109.546C136.471 107.402 136.252 105.654 136.338 105.64C136.424 105.627 136.784 107.353 137.141 109.497C137.224 110.025 137.304 110.528 137.38 111.009C137.408 111.232 137.48 111.493 137.331 111.75C137.254 111.877 137.099 111.95 136.975 111.958C136.85 111.971 136.747 111.952 136.654 111.939C135.917 111.833 135.464 111.746 135.469 111.704Z" fill="#263238"/>
<path d="M133.251 111.779C133.369 111.795 133.215 112.577 133.773 113.265C134.329 113.955 135.18 114.034 135.164 114.144C135.165 114.195 134.949 114.259 134.595 114.198C134.248 114.141 133.766 113.929 133.425 113.508C133.085 113.087 133 112.598 133.037 112.272C133.072 111.94 133.198 111.764 133.251 111.779Z" fill="#263238"/>
<path d="M134.673 103.059C134.563 103.241 133.862 103.004 132.998 102.938C132.135 102.853 131.404 102.964 131.327 102.766C131.293 102.672 131.449 102.512 131.762 102.378C132.073 102.243 132.545 102.15 133.063 102.195C133.581 102.241 134.03 102.414 134.312 102.601C134.597 102.787 134.722 102.972 134.673 103.059Z" fill="#263238"/>
<path d="M141.178 104.987C141.019 105.125 140.556 104.856 139.962 104.729C139.371 104.581 138.838 104.619 138.756 104.424C138.722 104.331 138.834 104.183 139.085 104.073C139.334 103.962 139.723 103.908 140.13 104.002C140.537 104.097 140.863 104.317 141.037 104.525C141.214 104.736 141.25 104.918 141.178 104.987Z" fill="#263238"/>
<path d="M125.808 106.783C125.736 106.732 122.78 105.188 122.242 108.411C121.704 111.634 125.051 111.509 125.072 111.418C125.094 111.326 125.808 106.783 125.808 106.783Z" fill="#FFBE9D"/>
<path d="M124.291 110.032C124.278 110.02 124.228 110.062 124.126 110.09C124.027 110.117 123.863 110.119 123.705 110.028C123.385 109.847 123.189 109.258 123.27 108.674C123.311 108.38 123.419 108.111 123.562 107.897C123.699 107.677 123.879 107.538 124.056 107.536C124.233 107.525 124.337 107.648 124.362 107.746C124.39 107.843 124.358 107.904 124.375 107.912C124.382 107.922 124.452 107.87 124.449 107.732C124.446 107.666 124.421 107.584 124.355 107.509C124.289 107.433 124.18 107.382 124.059 107.375C123.807 107.351 123.545 107.542 123.389 107.777C123.218 108.011 123.09 108.312 123.044 108.643C122.956 109.296 123.187 109.959 123.631 110.171C123.847 110.268 124.048 110.232 124.158 110.172C124.272 110.109 124.301 110.04 124.291 110.032Z" fill="#EB996E"/>
<path d="M143.679 104.25C141.505 104.387 139.292 103.402 137.939 101.695C136.992 100.502 136.39 98.937 135.05 98.2117C134.148 97.7236 133.039 97.718 132.061 98.0285C131.083 98.3389 130.221 98.9393 129.45 99.6153C129.879 102.177 128.74 104.713 127.63 107.061C127.507 107.321 127.367 107.598 127.109 107.726C126.672 107.941 126.151 107.6 125.89 107.189C125.471 106.53 125.422 105.707 125.438 104.927C125.473 103.149 125.785 101.363 126.507 99.7378C127.229 98.1134 128.376 96.656 129.877 95.7029C131.752 94.5123 134.115 94.1726 136.287 94.6413C138.458 95.1099 140.43 96.3544 141.907 98.0145C142.592 98.7848 143.188 99.6692 143.421 100.673" fill="#263238"/>
<path d="M13.8214 179.834C13.8173 179.832 13.8446 179.766 13.9026 179.639C13.9676 179.5 14.0544 179.314 14.1657 179.078C14.3889 178.583 14.6794 177.833 14.9383 176.834C15.4496 174.839 15.6278 171.79 14.8724 168.169C14.5216 166.355 13.956 164.41 13.2651 162.348C12.5849 160.282 11.7947 158.09 11.1493 155.721C10.5113 153.358 10.0073 150.792 10.1043 148.102C10.2022 145.407 10.9998 142.717 11.8777 140.039C12.7533 137.357 13.659 134.735 13.9305 132.099C14.2372 129.466 13.6739 126.882 12.4749 124.765C11.3135 122.625 9.85237 120.795 8.75872 118.9C7.64791 117.01 6.9533 115.067 6.52503 113.261C5.69493 109.617 5.98586 106.548 6.38351 104.525C6.81456 102.491 7.29527 101.44 7.29527 101.44C7.29991 101.442 7.28135 101.511 7.24144 101.645C7.19597 101.791 7.13472 101.987 7.05677 102.236C6.89576 102.756 6.68789 103.532 6.49023 104.546C6.12692 106.565 5.87032 109.613 6.71712 113.216C7.15375 115.003 7.8516 116.92 8.95824 118.784C10.0491 120.657 11.5167 122.479 12.7013 124.644C13.9258 126.785 14.5146 129.453 14.2024 132.126C13.9295 134.808 13.0169 137.447 12.1431 140.126C11.2657 142.801 10.4774 145.463 10.3776 148.113C10.2783 150.762 10.7692 153.303 11.3975 155.655C12.0322 158.013 12.8132 160.205 13.485 162.277C14.1671 164.345 14.7258 166.306 15.0659 168.132C15.8013 171.78 15.5916 174.86 15.0436 176.862C14.7666 177.864 14.4576 178.613 14.2168 179.102C14.0952 179.334 13.9996 179.517 13.9281 179.653C13.8613 179.775 13.8256 179.837 13.8214 179.834Z" fill="#263238"/>
<path d="M10.2441 120.77C10.2441 120.77 8.02342 113.669 12.0069 109.512C12.1465 109.365 12.3929 109.435 12.4291 109.634C12.6416 110.806 12.9075 114.378 10.2441 120.77Z" fill="#E8505B"/>
<path d="M11.5746 111.877C11.6122 111.885 11.5486 112.385 11.4252 113.187C11.2795 114.09 11.1078 115.149 10.9185 116.319C10.7329 117.49 10.5645 118.549 10.4215 119.451C10.3 120.253 10.2271 120.751 10.1863 120.747C10.1506 120.745 10.1538 120.239 10.2262 119.427C10.2995 118.616 10.4429 117.5 10.6438 116.274C10.8443 115.049 11.0577 113.946 11.2317 113.151C11.4048 112.356 11.5365 111.87 11.5746 111.877Z" fill="#263238"/>
<path d="M12.8516 137.518C12.8516 137.518 14.2097 130.203 19.6747 128.39C19.8668 128.327 20.0519 128.503 19.9907 128.696C19.6306 129.831 18.195 133.113 12.8516 137.518Z" fill="#E8505B"/>
<path d="M18.1862 130.28C18.2159 130.304 17.9263 130.716 17.4415 131.368C16.8902 132.097 16.2434 132.953 15.5293 133.899C14.8175 134.847 14.1735 135.705 13.6251 136.435C13.1425 137.087 12.8455 137.493 12.8112 137.471C12.7806 137.452 13.02 137.007 13.4636 136.323C13.9081 135.64 14.5563 134.72 15.3071 133.731C16.0569 132.742 16.7622 131.867 17.2874 131.246C17.8122 130.624 18.1565 130.255 18.1862 130.28Z" fill="#263238"/>
<path d="M11.376 155.869C11.376 155.869 10.551 148.475 15.2545 145.153C15.4197 145.037 15.648 145.151 15.6457 145.354C15.6304 146.545 15.21 150.102 11.376 155.869Z" fill="#E8505B"/>
<path d="M14.3786 147.393C14.4143 147.408 14.2566 147.886 13.9819 148.651C13.6664 149.509 13.2961 150.516 12.8868 151.629C12.4813 152.742 12.1143 153.75 11.8015 154.608C11.5292 155.372 11.3626 155.847 11.3232 155.835C11.2884 155.826 11.3886 155.331 11.6141 154.547C11.841 153.765 12.1941 152.696 12.6256 151.532C13.0562 150.368 13.4761 149.325 13.7986 148.578C14.1206 147.831 14.3429 147.379 14.3786 147.393Z" fill="#263238"/>
<path d="M15.4925 174.327C15.4925 174.327 14.9329 166.908 19.7521 163.757C19.9214 163.647 20.1455 163.769 20.1358 163.971C20.0782 165.162 19.5303 168.701 15.4925 174.327Z" fill="#E8505B"/>
<path d="M18.7966 165.965C18.8318 165.981 18.6569 166.453 18.3553 167.208C18.0092 168.054 17.6032 169.047 17.1545 170.144C16.7095 171.243 16.3063 172.236 15.9629 173.083C15.6632 173.837 15.4804 174.304 15.4414 174.292C15.4071 174.282 15.5245 173.79 15.7783 173.016C16.033 172.242 16.4246 171.187 16.8974 170.038C17.3693 168.89 17.8268 167.864 18.1753 167.129C18.5228 166.393 18.7613 165.949 18.7966 165.965Z" fill="#263238"/>
<path d="M7.05248 114.531C7.05248 114.531 0.457652 111.087 0.328196 105.33C0.323556 105.128 0.546276 105.003 0.712852 105.118C1.69282 105.795 4.40908 108.131 7.05248 114.531Z" fill="#E8505B"/>
<path d="M1.69804 107.308C1.73006 107.287 2.03862 107.684 2.51979 108.339C3.05524 109.08 3.68443 109.95 4.37903 110.911C5.07643 111.869 5.70747 112.736 6.24478 113.475C6.72641 114.127 7.02708 114.53 6.99599 114.557C6.96862 114.58 6.61366 114.221 6.0898 113.596C5.56734 112.971 4.8783 112.081 4.15307 111.073C3.42737 110.066 2.79726 109.136 2.35738 108.451C1.91751 107.766 1.66603 107.329 1.69804 107.308Z" fill="#263238"/>
<path d="M14.1346 129.781C14.1346 129.781 7.34258 126.744 6.8642 121.006C6.84749 120.804 7.06233 120.666 7.23493 120.77C8.25434 121.387 11.107 123.553 14.1346 129.781Z" fill="#E8505B"/>
<path d="M8.34995 122.897C8.38058 122.873 8.7128 123.251 9.23294 123.876C9.81248 124.583 10.4932 125.413 11.2448 126.329C11.9988 127.243 12.6814 128.071 13.2628 128.775C13.7834 129.398 14.1077 129.781 14.0785 129.81C14.0525 129.835 13.6767 129.497 13.1157 128.906C12.5561 128.314 11.8146 127.467 11.0296 126.505C10.244 125.544 9.55867 124.653 9.07797 123.997C8.5968 123.341 8.31933 122.92 8.34995 122.897Z" fill="#263238"/>
<path d="M10.2257 146.791C10.2257 146.791 5.56254 140.994 7.74984 135.668C7.8264 135.481 8.08113 135.455 8.18739 135.627C8.81425 136.641 10.3673 139.868 10.2257 146.791Z" fill="#E8505B"/>
<path d="M8.21275 138.028C8.2508 138.021 8.37422 138.509 8.55286 139.302C8.74681 140.195 8.97463 141.244 9.22659 142.403C9.48179 143.56 9.71239 144.607 9.90913 145.499C10.0892 146.29 10.2033 146.78 10.1639 146.792C10.1295 146.802 9.94811 146.33 9.71843 145.549C9.49014 144.767 9.21499 143.675 8.95468 142.462C8.69299 141.248 8.48883 140.143 8.35983 139.34C8.23038 138.536 8.17516 138.035 8.21275 138.028Z" fill="#263238"/>
<path d="M14.8452 166.809C14.8452 166.809 8.10559 163.658 7.72325 157.913C7.7098 157.711 7.92695 157.576 8.09816 157.684C9.10736 158.317 11.9234 160.531 14.8452 166.809Z" fill="#E8505B"/>
<path d="M9.1782 159.828C9.20929 159.805 9.53502 160.189 10.0445 160.822C10.612 161.538 11.2787 162.38 12.0146 163.309C12.7533 164.235 13.4219 165.074 13.9913 165.788C14.5012 166.419 14.819 166.808 14.7894 166.836C14.7629 166.861 14.3926 166.517 13.8419 165.916C13.2925 165.315 12.5649 164.456 11.7961 163.481C11.0268 162.507 10.3568 161.605 9.88719 160.941C9.41762 160.276 9.14711 159.851 9.1782 159.828Z" fill="#263238"/>
<path d="M28.2692 137.557C28.2757 137.558 28.2785 137.613 28.2776 137.721C28.2743 137.85 28.2706 138.007 28.266 138.197C28.246 138.643 28.2196 139.247 28.1862 140.001C28.0994 141.587 27.9783 143.798 27.8331 146.443L27.8326 146.449L27.8308 146.459C27.3496 149.151 25.9785 152.135 24.1369 155.032C22.7857 157.166 21.3696 159.106 20.1483 160.911C18.9187 162.71 17.8812 164.377 17.1578 165.854C16.4298 167.328 16.0066 168.595 15.7589 169.481C15.6405 169.926 15.5515 170.272 15.5 170.509C15.4447 170.746 15.4109 170.869 15.4011 170.868C15.3918 170.866 15.4067 170.739 15.4447 170.499C15.4781 170.258 15.5505 169.906 15.6535 169.454C15.8702 168.556 16.2688 167.267 16.9801 165.768C17.6868 164.268 18.7145 162.579 19.9349 160.768C21.1478 158.95 22.5565 157.007 23.9002 154.884C25.7321 152.001 27.0962 149.062 27.595 146.413L27.5932 146.429C27.7788 143.786 27.9342 141.577 28.0456 139.993C28.1064 139.241 28.1551 138.639 28.1913 138.193C28.2103 138.004 28.2261 137.849 28.2391 137.72C28.2535 137.612 28.2632 137.557 28.2692 137.557Z" fill="#263238"/>
<path d="M24.2561 154.478C24.2561 154.478 27.1106 147.608 23.5202 143.107C23.394 142.949 23.1425 142.995 23.0887 143.19C22.7708 144.338 22.1825 147.871 24.2561 154.478Z" fill="#E8505B"/>
<path d="M23.7356 145.502C23.7736 145.498 23.8613 145.995 23.962 146.802C24.0631 147.609 24.1759 148.727 24.2645 149.965C24.3541 151.204 24.3954 152.329 24.3949 153.143C24.3931 153.959 24.3513 154.462 24.3151 154.462C24.2743 154.461 24.2469 153.959 24.1982 153.149C24.1374 152.238 24.0659 151.168 23.9866 149.985C23.904 148.803 23.8293 147.732 23.7657 146.82C23.7151 146.009 23.6971 145.506 23.7356 145.502Z" fill="#263238"/>
<g opacity="0.3">
<path d="M24.2561 154.478C24.2561 154.478 27.1106 147.608 23.5202 143.107C23.394 142.949 23.1425 142.995 23.0887 143.19C22.7708 144.338 22.1825 147.871 24.2561 154.478Z" fill="black"/>
</g>
<path d="M15.4159 171.035C15.4159 171.035 17.7039 163.955 13.7599 159.76C13.6212 159.613 13.3748 159.68 13.3367 159.878C13.1131 161.049 12.8133 164.618 15.4159 171.035Z" fill="#E8505B"/>
<path d="M14.1695 162.131C14.2071 162.124 14.3347 162.611 14.5004 163.408C14.6665 164.204 14.8697 165.309 15.0586 166.536C15.2483 167.764 15.3806 168.881 15.4465 169.693C15.511 170.505 15.5096 171.011 15.4738 171.013C15.433 171.016 15.3653 170.518 15.2511 169.715C15.1166 168.811 14.9583 167.751 14.7839 166.578C14.6057 165.406 14.4442 164.345 14.3069 163.441C14.1904 162.638 14.132 162.138 14.1695 162.131Z" fill="#263238"/>
<g opacity="0.3">
<path d="M15.4159 171.035C15.4159 171.035 17.7039 163.955 13.7599 159.76C13.6212 159.613 13.3748 159.68 13.3367 159.878C13.1131 161.049 12.8133 164.618 15.4159 171.035Z" fill="black"/>
</g>
<path d="M27.8926 146.081C27.8926 146.081 33.9877 141.814 33.3724 136.089C33.3506 135.889 33.1135 135.793 32.9636 135.928C32.0792 136.727 29.6873 139.393 27.8926 146.081Z" fill="#E8505B"/>
<g opacity="0.3">
<path d="M27.8926 146.081C27.8926 146.081 33.9877 141.814 33.3724 136.089C33.3506 135.889 33.1135 135.793 32.9636 135.928C32.0792 136.727 29.6873 139.393 27.8926 146.081Z" fill="black"/>
</g>
<path d="M32.2699 138.227C32.3043 138.244 32.1117 138.71 31.7637 139.446C31.4157 140.181 30.9113 141.185 30.3216 142.278C29.7328 143.371 29.1644 144.342 28.7268 145.029C28.2883 145.716 27.9826 146.118 27.9524 146.099C27.9181 146.077 28.164 145.639 28.5575 144.929C28.995 144.127 29.5087 143.186 30.0766 142.146C30.6413 141.103 31.1526 140.16 31.5883 139.356C31.9809 138.645 32.2356 138.21 32.2699 138.227Z" fill="#263238"/>
<path d="M17.873 164.017C17.873 164.017 25.2242 162.871 27.1934 157.46C27.2626 157.27 27.0918 157.08 26.8974 157.135C25.7518 157.462 22.43 158.802 17.873 164.017Z" fill="#E8505B"/>
<g opacity="0.3">
<path d="M17.873 164.017C17.873 164.017 25.2242 162.871 27.1934 157.46C27.2626 157.27 27.0918 157.08 26.8974 157.135C25.7518 157.462 22.43 158.802 17.873 164.017Z" fill="black"/>
</g>
<path d="M25.262 158.893C25.2852 158.924 24.907 159.257 24.2709 159.764C23.6347 160.271 22.7397 160.951 21.7291 161.672C20.719 162.394 19.7808 163.015 19.0852 163.44C18.3888 163.864 17.9373 164.09 17.9187 164.059C17.8978 164.024 18.3117 163.739 18.9776 163.275C19.7237 162.748 20.5993 162.129 21.5672 161.445C22.5332 160.758 23.4078 160.136 24.1526 159.607C24.8184 159.141 25.2383 158.863 25.262 158.893Z" fill="#263238"/>
<path d="M10.8609 177.545L8.7168 191.978H22.08L20.3474 177.545H10.8609Z" fill="#455A64"/>
<path d="M20.8808 182.017C20.8808 182.094 18.468 182.156 15.4924 182.156C12.5159 182.156 10.1035 182.094 10.1035 182.017C10.1035 181.94 12.5159 181.878 15.4924 181.878C18.468 181.878 20.8808 181.941 20.8808 182.017Z" fill="#263238"/>
<path d="M21.1465 183.166C21.1465 183.243 18.6544 183.305 15.5813 183.305C12.5068 183.305 10.0156 183.243 10.0156 183.166C10.0156 183.088 12.5068 183.026 15.5813 183.026C18.6544 183.027 21.1465 183.089 21.1465 183.166Z" fill="#263238"/>
</svg>
