<svg width="405" height="327" viewBox="0 0 405 327" fill="none" xmlns="http://www.w3.org/2000/svg">
<g filter="url(#filter0_d_971_43779)">
<rect x="41.1895" y="58.2812" width="288.61" height="209.802" rx="15" fill="white"/>
<path d="M64.8344 88.8787C64.2429 88.8787 63.7134 88.7509 63.246 88.4953C62.7786 88.2324 62.4098 87.8745 62.1396 87.4218C61.8767 86.9617 61.7453 86.4431 61.7453 85.8662V81.1338H62.9283V85.7676C62.9283 86.1401 63.016 86.476 63.1913 86.7754C63.3665 87.0676 63.5966 87.3013 63.8814 87.4765C64.1735 87.6518 64.4912 87.7394 64.8344 87.7394C65.1996 87.7394 65.5282 87.6518 65.8204 87.4765C66.1198 87.3013 66.3571 87.0676 66.5324 86.7754C66.7077 86.476 66.7953 86.1401 66.7953 85.7676V81.1338H67.9236V85.8662C67.9236 86.4431 67.7885 86.9617 67.5183 87.4218C67.2554 87.8745 66.8903 88.2324 66.4229 88.4953C65.9555 88.7509 65.426 88.8787 64.8344 88.8787ZM69.7885 91.223V83.0618H70.9278V84.3764L70.7525 84.2778C70.7963 84.0587 70.9205 83.8506 71.1249 83.6534C71.3294 83.4489 71.5777 83.2846 71.8699 83.1604C72.1693 83.029 72.476 82.9632 72.79 82.9632C73.3086 82.9632 73.7687 83.091 74.1703 83.3466C74.572 83.6023 74.8897 83.9528 75.1234 84.3983C75.3571 84.8438 75.4739 85.355 75.4739 85.9319C75.4739 86.5016 75.3571 87.0128 75.1234 87.4656C74.897 87.9111 74.5829 88.2653 74.1813 88.5282C73.7796 88.7838 73.3268 88.9116 72.8229 88.9116C72.487 88.9116 72.162 88.8459 71.848 88.7144C71.5339 88.5756 71.2674 88.4004 71.0483 88.1886C70.8292 87.9768 70.6941 87.7577 70.6429 87.5313L70.9278 87.3779V91.223H69.7885ZM72.6367 87.8709C72.9726 87.8709 73.272 87.7869 73.535 87.6189C73.7979 87.451 74.006 87.2209 74.1594 86.9288C74.3127 86.6367 74.3894 86.3044 74.3894 85.9319C74.3894 85.5595 74.3127 85.2308 74.1594 84.946C74.0133 84.6539 73.8088 84.4238 73.5459 84.2559C73.283 84.0879 72.9799 84.0039 72.6367 84.0039C72.2934 84.0039 71.9904 84.0879 71.7275 84.2559C71.4645 84.4165 71.2564 84.6429 71.103 84.9351C70.9497 85.2272 70.873 85.5595 70.873 85.9319C70.873 86.3044 70.9497 86.6367 71.103 86.9288C71.2564 87.2209 71.4645 87.451 71.7275 87.6189C71.9904 87.7869 72.2934 87.8709 72.6367 87.8709ZM76.8307 88.813V80.7066H77.9591V88.813H76.8307ZM82.146 88.9225C81.5837 88.9225 81.0798 88.7947 80.6343 88.5391C80.1961 88.2762 79.8492 87.922 79.5936 87.4765C79.338 87.0237 79.2102 86.5089 79.2102 85.9319C79.2102 85.355 79.338 84.8438 79.5936 84.3983C79.8492 83.9455 80.1961 83.5913 80.6343 83.3357C81.0798 83.0728 81.5837 82.9413 82.146 82.9413C82.7011 82.9413 83.1977 83.0728 83.6359 83.3357C84.0813 83.5913 84.4319 83.9455 84.6875 84.3983C84.9431 84.8438 85.0709 85.355 85.0709 85.9319C85.0709 86.5089 84.9431 87.0237 84.6875 87.4765C84.4319 87.922 84.0813 88.2762 83.6359 88.5391C83.1977 88.7947 82.7011 88.9225 82.146 88.9225ZM82.146 87.8928C82.4893 87.8928 82.796 87.8088 83.0662 87.6408C83.3364 87.4656 83.5482 87.2319 83.7016 86.9398C83.855 86.6403 83.928 86.3044 83.9207 85.9319C83.928 85.5522 83.855 85.2162 83.7016 84.9241C83.5482 84.6247 83.3364 84.391 83.0662 84.223C82.796 84.055 82.4893 83.9711 82.146 83.9711C81.8028 83.9711 81.4924 84.0587 81.2149 84.234C80.9447 84.4019 80.7329 84.6356 80.5795 84.9351C80.4262 85.2272 80.3531 85.5595 80.3604 85.9319C80.3531 86.3044 80.4262 86.6403 80.5795 86.9398C80.7329 87.2319 80.9447 87.4656 81.2149 87.6408C81.4924 87.8088 81.8028 87.8928 82.146 87.8928ZM88.6228 88.9225C88.1481 88.9225 87.7135 88.7911 87.3192 88.5282C86.9321 88.2653 86.6217 87.9074 86.388 87.4546C86.1543 87.0018 86.0375 86.4906 86.0375 85.921C86.0375 85.344 86.1543 84.8328 86.388 84.3873C86.629 83.9345 86.9504 83.5803 87.352 83.3247C87.761 83.0691 88.2174 82.9413 88.7214 82.9413C89.0208 82.9413 89.2946 82.9851 89.5429 83.0728C89.7913 83.1604 90.0067 83.2846 90.1893 83.4452C90.3791 83.5986 90.5325 83.7775 90.6494 83.982C90.7735 84.1865 90.8502 84.4056 90.8794 84.6393L90.6275 84.5517V83.0618H91.7667V88.813H90.6275V87.4437L90.8904 87.367C90.8465 87.5642 90.7553 87.7577 90.6165 87.9476C90.485 88.1302 90.3134 88.2945 90.1016 88.4405C89.8971 88.5866 89.6671 88.7034 89.4115 88.7911C89.1632 88.8787 88.9003 88.9225 88.6228 88.9225ZM88.9185 87.8818C89.2618 87.8818 89.5649 87.7979 89.8278 87.6299C90.0907 87.4619 90.2952 87.2319 90.4412 86.9398C90.5946 86.6403 90.6713 86.3007 90.6713 85.921C90.6713 85.5485 90.5946 85.2162 90.4412 84.9241C90.2952 84.632 90.0907 84.4019 89.8278 84.234C89.5649 84.066 89.2618 83.982 88.9185 83.982C88.5826 83.982 88.2832 84.066 88.0203 84.234C87.7647 84.4019 87.5602 84.632 87.4068 84.9241C87.2607 85.2162 87.1877 85.5485 87.1877 85.921C87.1877 86.3007 87.2607 86.6403 87.4068 86.9398C87.5602 87.2319 87.7647 87.4619 88.0203 87.6299C88.2832 87.7979 88.5826 87.8818 88.9185 87.8818ZM95.8507 88.9225C95.3249 88.9225 94.8539 88.7947 94.4376 88.5391C94.0286 88.2762 93.7036 87.922 93.4626 87.4765C93.2216 87.0237 93.1011 86.5089 93.1011 85.9319C93.1011 85.355 93.218 84.8438 93.4517 84.3983C93.6927 83.9455 94.0177 83.5913 94.4266 83.3357C94.8356 83.0728 95.2994 82.9413 95.8179 82.9413C96.1027 82.9413 96.3766 82.9888 96.6395 83.0837C96.9097 83.1714 97.1507 83.2955 97.3625 83.4562C97.5743 83.6096 97.7386 83.7812 97.8554 83.9711C97.9796 84.1536 98.0417 84.3399 98.0417 84.5297L97.713 84.5517V80.7066H98.8413V88.813H97.713V87.4437H97.9321C97.9321 87.6189 97.8737 87.7942 97.7568 87.9695C97.64 88.1375 97.483 88.2945 97.2858 88.4405C97.0959 88.5866 96.8732 88.7034 96.6176 88.7911C96.3693 88.8787 96.1136 88.9225 95.8507 88.9225ZM96.0041 87.9476C96.3473 87.9476 96.6504 87.8599 96.9133 87.6847C97.1762 87.5094 97.3807 87.272 97.5268 86.9726C97.6802 86.6659 97.7568 86.319 97.7568 85.9319C97.7568 85.5449 97.6802 85.2016 97.5268 84.9022C97.3807 84.5955 97.1762 84.3545 96.9133 84.1792C96.6504 84.0039 96.3473 83.9163 96.0041 83.9163C95.6609 83.9163 95.3578 84.0039 95.0949 84.1792C94.832 84.3545 94.6238 84.5955 94.4705 84.9022C94.3244 85.2016 94.2514 85.5449 94.2514 85.9319C94.2514 86.319 94.3244 86.6659 94.4705 86.9726C94.6238 87.272 94.832 87.5094 95.0949 87.6847C95.3578 87.8599 95.6609 87.9476 96.0041 87.9476ZM103.969 88.813V81.1448H107.233C107.671 81.1448 108.073 81.2543 108.438 81.4734C108.811 81.6852 109.106 81.9773 109.326 82.3498C109.545 82.7149 109.654 83.1276 109.654 83.5876C109.654 84.0039 109.545 84.391 109.326 84.7488C109.106 85.1067 108.814 85.3952 108.449 85.6142C108.084 85.826 107.679 85.9319 107.233 85.9319H105.152V88.813H103.969ZM108.526 88.813L106.576 85.3513L107.792 85.0775L109.961 88.8239L108.526 88.813ZM105.152 84.7927H107.343C107.555 84.7927 107.744 84.7415 107.912 84.6393C108.08 84.5297 108.212 84.3837 108.307 84.2011C108.402 84.0112 108.449 83.8031 108.449 83.5767C108.449 83.3211 108.387 83.0983 108.263 82.9085C108.146 82.7113 107.978 82.5579 107.759 82.4484C107.547 82.3388 107.306 82.2841 107.036 82.2841H105.152V84.7927ZM113.88 88.9225C113.289 88.9225 112.763 88.7984 112.303 88.5501C111.85 88.2945 111.492 87.9476 111.229 87.5094C110.974 87.0712 110.846 86.5673 110.846 85.9977C110.846 85.5449 110.919 85.1322 111.065 84.7598C111.211 84.3873 111.412 84.066 111.667 83.7958C111.93 83.5183 112.241 83.3065 112.599 83.1604C112.964 83.0071 113.358 82.9304 113.782 82.9304C114.154 82.9304 114.501 83.0034 114.822 83.1495C115.144 83.2882 115.421 83.4818 115.655 83.7301C115.896 83.9784 116.078 84.2741 116.203 84.6174C116.334 84.9533 116.396 85.3221 116.389 85.7238L116.378 86.2058H111.678L111.426 85.3075H115.403L115.239 85.4937V85.2308C115.217 84.9898 115.136 84.7744 114.998 84.5845C114.859 84.3946 114.684 84.2449 114.472 84.1354C114.26 84.0258 114.03 83.9711 113.782 83.9711C113.387 83.9711 113.055 84.0477 112.785 84.2011C112.515 84.3472 112.31 84.5663 112.171 84.8584C112.033 85.1432 111.963 85.4974 111.963 85.921C111.963 86.3226 112.047 86.6732 112.215 86.9726C112.383 87.2647 112.62 87.4911 112.927 87.6518C113.234 87.8125 113.588 87.8928 113.99 87.8928C114.275 87.8928 114.538 87.8453 114.779 87.7504C115.027 87.6555 115.293 87.4838 115.578 87.2355L116.148 88.0352C115.973 88.2105 115.757 88.3639 115.502 88.4953C115.253 88.6268 114.987 88.7327 114.702 88.813C114.424 88.886 114.15 88.9225 113.88 88.9225ZM119.642 88.9225C119.16 88.9225 118.725 88.8385 118.338 88.6706C117.951 88.5026 117.63 88.2543 117.374 87.9257L118.141 87.2684C118.36 87.524 118.597 87.7102 118.853 87.8271C119.116 87.9366 119.412 87.9914 119.74 87.9914C119.872 87.9914 119.992 87.9768 120.102 87.9476C120.219 87.9111 120.317 87.8599 120.398 87.7942C120.485 87.7285 120.551 87.6518 120.595 87.5642C120.639 87.4692 120.66 87.367 120.66 87.2574C120.66 87.0676 120.591 86.9142 120.452 86.7973C120.379 86.7462 120.262 86.6914 120.102 86.633C119.948 86.5673 119.748 86.5016 119.499 86.4358C119.076 86.3263 118.729 86.2021 118.459 86.0634C118.188 85.9246 117.98 85.7676 117.834 85.5923C117.725 85.4536 117.644 85.3039 117.593 85.1432C117.542 84.9752 117.517 84.7927 117.517 84.5955C117.517 84.3545 117.568 84.1354 117.67 83.9382C117.779 83.7337 117.925 83.5584 118.108 83.4124C118.298 83.259 118.517 83.1422 118.765 83.0618C119.021 82.9815 119.291 82.9413 119.576 82.9413C119.846 82.9413 120.113 82.9778 120.376 83.0509C120.646 83.1239 120.894 83.2298 121.121 83.3686C121.347 83.5073 121.537 83.6716 121.69 83.8615L121.044 84.5736C120.905 84.4348 120.752 84.3143 120.584 84.2121C120.423 84.1025 120.259 84.0185 120.091 83.9601C119.923 83.9017 119.77 83.8725 119.631 83.8725C119.477 83.8725 119.339 83.8871 119.214 83.9163C119.09 83.9455 118.984 83.9893 118.897 84.0477C118.816 84.1062 118.754 84.1792 118.711 84.2668C118.667 84.3545 118.645 84.4531 118.645 84.5626C118.652 84.6575 118.674 84.7488 118.711 84.8365C118.754 84.9168 118.813 84.9862 118.886 85.0446C118.966 85.103 119.087 85.1651 119.247 85.2308C119.408 85.2966 119.612 85.3586 119.861 85.4171C120.226 85.512 120.525 85.6179 120.759 85.7347C121 85.8443 121.19 85.9721 121.329 86.1182C121.475 86.2569 121.577 86.4176 121.635 86.6002C121.694 86.7827 121.723 86.9872 121.723 87.2136C121.723 87.5423 121.628 87.838 121.438 88.1009C121.256 88.3565 121.007 88.5574 120.693 88.7034C120.379 88.8495 120.029 88.9225 119.642 88.9225ZM125.092 88.9225C124.683 88.9225 124.325 88.8276 124.018 88.6377C123.719 88.4478 123.485 88.1813 123.317 87.838C123.156 87.4948 123.076 87.0858 123.076 86.6111V83.0618H124.204V86.3044C124.204 86.6403 124.256 86.9325 124.358 87.1808C124.467 87.4218 124.621 87.608 124.818 87.7394C125.022 87.8709 125.267 87.9366 125.552 87.9366C125.764 87.9366 125.957 87.9038 126.132 87.838C126.308 87.765 126.457 87.6664 126.582 87.5423C126.713 87.4181 126.815 87.2684 126.888 87.0931C126.961 86.9178 126.998 86.728 126.998 86.5235V83.0618H128.126V88.813H126.998V87.608L127.195 87.4765C127.107 87.7467 126.958 87.9914 126.746 88.2105C126.541 88.4296 126.297 88.6049 126.012 88.7363C125.727 88.8605 125.42 88.9225 125.092 88.9225ZM129.796 88.813V83.0618H130.936V84.2887L130.728 84.4202C130.786 84.2303 130.877 84.0477 131.001 83.8725C131.133 83.6972 131.29 83.5438 131.472 83.4124C131.662 83.2736 131.863 83.1641 132.075 83.0837C132.294 83.0034 132.517 82.9632 132.743 82.9632C133.072 82.9632 133.36 83.018 133.609 83.1276C133.857 83.2371 134.061 83.4014 134.222 83.6205C134.383 83.8396 134.5 84.1135 134.573 84.4421L134.397 84.3983L134.474 84.2121C134.554 84.0441 134.664 83.8871 134.803 83.741C134.949 83.5876 135.113 83.4525 135.296 83.3357C135.478 83.2188 135.672 83.1276 135.876 83.0618C136.081 82.9961 136.282 82.9632 136.479 82.9632C136.91 82.9632 137.264 83.0509 137.541 83.2261C137.826 83.4014 138.038 83.668 138.177 84.0258C138.323 84.3837 138.396 84.8292 138.396 85.3623V88.813H137.257V85.428C137.257 85.0994 137.213 84.8328 137.125 84.6283C137.045 84.4165 136.921 84.2595 136.753 84.1573C136.585 84.055 136.369 84.0039 136.106 84.0039C135.902 84.0039 135.708 84.0404 135.526 84.1135C135.35 84.1792 135.197 84.2741 135.066 84.3983C134.934 84.5224 134.832 84.6685 134.759 84.8365C134.686 84.9971 134.649 85.1761 134.649 85.3732V88.813H133.51V85.4061C133.51 85.1067 133.466 84.8547 133.379 84.6502C133.291 84.4385 133.163 84.2778 132.995 84.1682C132.827 84.0587 132.623 84.0039 132.382 84.0039C132.177 84.0039 131.987 84.0404 131.812 84.1135C131.637 84.1792 131.483 84.2741 131.352 84.3983C131.221 84.5151 131.118 84.6575 131.045 84.8255C130.972 84.9862 130.936 85.1615 130.936 85.3513V88.813H129.796ZM142.7 88.9225C142.108 88.9225 141.582 88.7984 141.122 88.5501C140.67 88.2945 140.312 87.9476 140.049 87.5094C139.793 87.0712 139.665 86.5673 139.665 85.9977C139.665 85.5449 139.738 85.1322 139.885 84.7598C140.031 84.3873 140.231 84.066 140.487 83.7958C140.75 83.5183 141.06 83.3065 141.418 83.1604C141.783 83.0071 142.178 82.9304 142.601 82.9304C142.974 82.9304 143.321 83.0034 143.642 83.1495C143.963 83.2882 144.241 83.4818 144.474 83.7301C144.715 83.9784 144.898 84.2741 145.022 84.6174C145.154 84.9533 145.216 85.3221 145.208 85.7238L145.197 86.2058H140.498L140.246 85.3075H144.223L144.058 85.4937V85.2308C144.036 84.9898 143.956 84.7744 143.817 84.5845C143.678 84.3946 143.503 84.2449 143.291 84.1354C143.08 84.0258 142.85 83.9711 142.601 83.9711C142.207 83.9711 141.875 84.0477 141.604 84.2011C141.334 84.3472 141.13 84.5663 140.991 84.8584C140.852 85.1432 140.783 85.4974 140.783 85.921C140.783 86.3226 140.867 86.6732 141.035 86.9726C141.203 87.2647 141.44 87.4911 141.747 87.6518C142.054 87.8125 142.408 87.8928 142.809 87.8928C143.094 87.8928 143.357 87.8453 143.598 87.7504C143.846 87.6555 144.113 87.4838 144.398 87.2355L144.967 88.0352C144.792 88.2105 144.577 88.3639 144.321 88.4953C144.073 88.6268 143.806 88.7327 143.521 88.813C143.244 88.886 142.97 88.9225 142.7 88.9225ZM148.461 88.9225C147.979 88.9225 147.545 88.8385 147.158 88.6706C146.771 88.5026 146.449 88.2543 146.194 87.9257L146.96 87.2684C147.18 87.524 147.417 87.7102 147.673 87.8271C147.935 87.9366 148.231 87.9914 148.56 87.9914C148.691 87.9914 148.812 87.9768 148.921 87.9476C149.038 87.9111 149.137 87.8599 149.217 87.7942C149.305 87.7285 149.37 87.6518 149.414 87.5642C149.458 87.4692 149.48 87.367 149.48 87.2574C149.48 87.0676 149.411 86.9142 149.272 86.7973C149.199 86.7462 149.082 86.6914 148.921 86.633C148.768 86.5673 148.567 86.5016 148.319 86.4358C147.895 86.3263 147.548 86.2021 147.278 86.0634C147.008 85.9246 146.8 85.7676 146.654 85.5923C146.544 85.4536 146.464 85.3039 146.413 85.1432C146.362 84.9752 146.336 84.7927 146.336 84.5955C146.336 84.3545 146.387 84.1354 146.489 83.9382C146.599 83.7337 146.745 83.5584 146.928 83.4124C147.117 83.259 147.337 83.1422 147.585 83.0618C147.841 82.9815 148.111 82.9413 148.396 82.9413C148.666 82.9413 148.932 82.9778 149.195 83.0509C149.465 83.1239 149.714 83.2298 149.94 83.3686C150.167 83.5073 150.356 83.6716 150.51 83.8615L149.863 84.5736C149.725 84.4348 149.571 84.3143 149.403 84.2121C149.243 84.1025 149.078 84.0185 148.91 83.9601C148.742 83.9017 148.589 83.8725 148.45 83.8725C148.297 83.8725 148.158 83.8871 148.034 83.9163C147.91 83.9455 147.804 83.9893 147.716 84.0477C147.636 84.1062 147.574 84.1792 147.53 84.2668C147.486 84.3545 147.464 84.4531 147.464 84.5626C147.472 84.6575 147.494 84.7488 147.53 84.8365C147.574 84.9168 147.632 84.9862 147.705 85.0446C147.786 85.103 147.906 85.1651 148.067 85.2308C148.228 85.2966 148.432 85.3586 148.68 85.4171C149.046 85.512 149.345 85.6179 149.579 85.7347C149.82 85.8443 150.01 85.9721 150.148 86.1182C150.294 86.2569 150.397 86.4176 150.455 86.6002C150.513 86.7827 150.543 86.9872 150.543 87.2136C150.543 87.5423 150.448 87.838 150.258 88.1009C150.075 88.3565 149.827 88.5574 149.513 88.7034C149.199 88.8495 148.848 88.9225 148.461 88.9225Z" fill="#333333"/>
<path d="M61.6535 104.498V98.2671H62.6148V104.498H61.6535ZM62.0807 101.845V100.92H65.2939V101.845H62.0807ZM62.0807 99.1928V98.2671H65.6944V99.1928H62.0807ZM67.0167 104.498V99.8247H67.9334V104.498H67.0167ZM67.4617 98.7923C67.2659 98.7923 67.1146 98.7418 67.0078 98.641C66.901 98.5401 66.8476 98.3977 66.8476 98.2137C66.8476 98.0417 66.901 97.9022 67.0078 97.7954C67.1205 97.6886 67.2718 97.6352 67.4617 97.6352C67.6575 97.6352 67.8088 97.6856 67.9156 97.7865C68.0224 97.8874 68.0758 98.0298 68.0758 98.2137C68.0758 98.3858 68.0195 98.5253 67.9067 98.6321C67.7999 98.7389 67.6516 98.7923 67.4617 98.7923ZM69.4494 104.498V97.9111H70.3662V104.498H69.4494ZM73.8482 104.587C73.3675 104.587 72.9403 104.486 72.5665 104.284C72.1986 104.076 71.9078 103.794 71.6942 103.438C71.4865 103.082 71.3827 102.673 71.3827 102.21C71.3827 101.842 71.442 101.507 71.5607 101.204C71.6794 100.902 71.8426 100.641 72.0502 100.421C72.2639 100.196 72.516 100.024 72.8068 99.9048C73.1035 99.7802 73.4239 99.7179 73.7681 99.7179C74.0707 99.7179 74.3525 99.7773 74.6136 99.8959C74.8747 100.009 75.1002 100.166 75.2901 100.368C75.4859 100.569 75.6342 100.81 75.7351 101.089C75.8419 101.362 75.8923 101.661 75.8864 101.988L75.8775 102.379H72.0591L71.8544 101.649H75.0854L74.9518 101.801V101.587C74.934 101.391 74.8688 101.216 74.756 101.062C74.6433 100.908 74.5009 100.786 74.3288 100.697C74.1567 100.608 73.9698 100.563 73.7681 100.563C73.4476 100.563 73.1777 100.626 72.9581 100.75C72.7386 100.869 72.5724 101.047 72.4597 101.284C72.3469 101.516 72.2906 101.804 72.2906 102.148C72.2906 102.474 72.3588 102.759 72.4953 103.002C72.6318 103.24 72.8246 103.424 73.0738 103.554C73.323 103.685 73.6108 103.75 73.9372 103.75C74.1686 103.75 74.3822 103.711 74.578 103.634C74.7798 103.557 74.9963 103.418 75.2278 103.216L75.6906 103.866C75.5482 104.008 75.3731 104.133 75.1655 104.239C74.9637 104.346 74.7471 104.432 74.5157 104.498C74.2902 104.557 74.0677 104.587 73.8482 104.587ZM78.5293 104.587C78.1377 104.587 77.7846 104.518 77.4702 104.382C77.1557 104.245 76.8946 104.044 76.6869 103.777L77.3099 103.243C77.488 103.45 77.6808 103.602 77.8885 103.697C78.1021 103.786 78.3424 103.83 78.6094 103.83C78.7162 103.83 78.8141 103.818 78.9032 103.794C78.9981 103.765 79.0782 103.723 79.1435 103.67C79.2147 103.616 79.2681 103.554 79.3037 103.483C79.3393 103.406 79.3571 103.323 79.3571 103.234C79.3571 103.079 79.3007 102.955 79.188 102.86C79.1286 102.818 79.0337 102.774 78.9032 102.726C78.7785 102.673 78.6154 102.62 78.4136 102.566C78.0695 102.477 77.7876 102.376 77.5681 102.264C77.3485 102.151 77.1794 102.023 77.0607 101.881C76.9717 101.768 76.9065 101.646 76.8649 101.516C76.8234 101.379 76.8026 101.231 76.8026 101.071C76.8026 100.875 76.8441 100.697 76.9272 100.537C77.0162 100.371 77.1349 100.228 77.2832 100.11C77.4375 99.985 77.6155 99.89 77.8173 99.8247C78.025 99.7595 78.2445 99.7268 78.4759 99.7268C78.6955 99.7268 78.9121 99.7565 79.1257 99.8158C79.3452 99.8752 79.547 99.9612 79.7309 100.074C79.9149 100.187 80.0691 100.32 80.1937 100.474L79.6686 101.053C79.5559 100.94 79.4313 100.842 79.2948 100.759C79.1642 100.67 79.0307 100.602 78.8943 100.555C78.7578 100.507 78.6332 100.483 78.5204 100.483C78.3958 100.483 78.2831 100.495 78.1822 100.519C78.0813 100.543 77.9953 100.578 77.9241 100.626C77.8588 100.673 77.8084 100.733 77.7728 100.804C77.7372 100.875 77.7194 100.955 77.7194 101.044C77.7253 101.121 77.7431 101.195 77.7728 101.267C77.8084 101.332 77.8559 101.388 77.9152 101.436C77.9805 101.483 78.0784 101.534 78.2089 101.587C78.3394 101.64 78.5056 101.691 78.7073 101.738C79.004 101.816 79.2473 101.902 79.4372 101.996C79.633 102.085 79.7873 102.189 79.9 102.308C80.0187 102.421 80.1018 102.551 80.1492 102.7C80.1967 102.848 80.2204 103.014 80.2204 103.198C80.2204 103.465 80.1433 103.705 79.989 103.919C79.8407 104.127 79.6389 104.29 79.3838 104.409C79.1286 104.527 78.8438 104.587 78.5293 104.587ZM85.7013 104.587C85.3156 104.587 84.9626 104.48 84.6422 104.266C84.3277 104.053 84.0755 103.762 83.8856 103.394C83.6957 103.026 83.6008 102.611 83.6008 102.148C83.6008 101.679 83.6957 101.264 83.8856 100.902C84.0814 100.534 84.3425 100.246 84.6689 100.038C85.0012 99.8307 85.372 99.7268 85.7814 99.7268C86.0247 99.7268 86.2472 99.7624 86.449 99.8336C86.6507 99.9048 86.8258 100.006 86.9741 100.136C87.1284 100.261 87.253 100.406 87.3479 100.572C87.4488 100.739 87.5111 100.917 87.5349 101.106L87.3301 101.035V99.8247H88.2558V104.498H87.3301V103.385L87.5438 103.323C87.5082 103.483 87.434 103.64 87.3212 103.794C87.2144 103.943 87.075 104.076 86.9029 104.195C86.7368 104.314 86.5499 104.409 86.3422 104.48C86.1404 104.551 85.9268 104.587 85.7013 104.587ZM85.9417 103.741C86.2205 103.741 86.4668 103.673 86.6804 103.536C86.894 103.4 87.0602 103.213 87.1788 102.976C87.3034 102.732 87.3657 102.456 87.3657 102.148C87.3657 101.845 87.3034 101.575 87.1788 101.338C87.0602 101.1 86.894 100.914 86.6804 100.777C86.4668 100.641 86.2205 100.572 85.9417 100.572C85.6687 100.572 85.4254 100.641 85.2118 100.777C85.0041 100.914 84.838 101.1 84.7134 101.338C84.5947 101.575 84.5354 101.845 84.5354 102.148C84.5354 102.456 84.5947 102.732 84.7134 102.976C84.838 103.213 85.0041 103.4 85.2118 103.536C85.4254 103.673 85.6687 103.741 85.9417 103.741ZM91.6097 104.587C91.1765 104.587 90.7878 104.48 90.4437 104.266C90.1055 104.053 89.8355 103.762 89.6337 103.394C89.4379 103.026 89.34 102.614 89.34 102.157C89.34 101.7 89.4379 101.287 89.6337 100.92C89.8355 100.552 90.1055 100.261 90.4437 100.047C90.7878 99.8336 91.1765 99.7268 91.6097 99.7268C92.025 99.7268 92.4018 99.8129 92.74 99.985C93.0842 100.151 93.3453 100.38 93.5233 100.67L93.016 101.293C92.921 101.157 92.7994 101.032 92.651 100.92C92.5027 100.807 92.3455 100.718 92.1793 100.652C92.0132 100.587 91.853 100.555 91.6987 100.555C91.4139 100.555 91.1587 100.626 90.9332 100.768C90.7137 100.905 90.5386 101.095 90.4081 101.338C90.2775 101.581 90.2123 101.854 90.2123 102.157C90.2123 102.459 90.2805 102.732 90.417 102.976C90.5535 103.213 90.7344 103.403 90.9599 103.545C91.1854 103.688 91.4346 103.759 91.7076 103.759C91.8678 103.759 92.0221 103.732 92.1704 103.679C92.3247 103.625 92.473 103.545 92.6154 103.438C92.7578 103.332 92.8914 103.201 93.016 103.047L93.5233 103.67C93.3334 103.937 93.0605 104.156 92.7044 104.328C92.3544 104.501 91.9894 104.587 91.6097 104.587ZM96.4619 104.587C96.0287 104.587 95.6401 104.48 95.2959 104.266C94.9577 104.053 94.6877 103.762 94.486 103.394C94.2901 103.026 94.1922 102.614 94.1922 102.157C94.1922 101.7 94.2901 101.287 94.486 100.92C94.6877 100.552 94.9577 100.261 95.2959 100.047C95.6401 99.8336 96.0287 99.7268 96.4619 99.7268C96.8772 99.7268 97.254 99.8129 97.5923 99.985C97.9364 100.151 98.1975 100.38 98.3755 100.67L97.8682 101.293C97.7732 101.157 97.6516 101.032 97.5033 100.92C97.3549 100.807 97.1977 100.718 97.0315 100.652C96.8654 100.587 96.7052 100.555 96.5509 100.555C96.2661 100.555 96.0109 100.626 95.7854 100.768C95.5659 100.905 95.3908 101.095 95.2603 101.338C95.1298 101.581 95.0645 101.854 95.0645 102.157C95.0645 102.459 95.1327 102.732 95.2692 102.976C95.4057 103.213 95.5867 103.403 95.8121 103.545C96.0376 103.688 96.2868 103.759 96.5598 103.759C96.72 103.759 96.8743 103.732 97.0226 103.679C97.1769 103.625 97.3252 103.545 97.4677 103.438C97.6101 103.332 97.7436 103.201 97.8682 103.047L98.3755 103.67C98.1856 103.937 97.9127 104.156 97.5567 104.328C97.2066 104.501 96.8416 104.587 96.4619 104.587ZM101.51 104.587C101.029 104.587 100.602 104.486 100.228 104.284C99.8603 104.076 99.5696 103.794 99.356 103.438C99.1483 103.082 99.0445 102.673 99.0445 102.21C99.0445 101.842 99.1038 101.507 99.2225 101.204C99.3411 100.902 99.5043 100.641 99.712 100.421C99.9256 100.196 100.178 100.024 100.469 99.9048C100.765 99.7802 101.086 99.7179 101.43 99.7179C101.732 99.7179 102.014 99.7773 102.275 99.8959C102.536 100.009 102.762 100.166 102.952 100.368C103.148 100.569 103.296 100.81 103.397 101.089C103.504 101.362 103.554 101.661 103.548 101.988L103.539 102.379H99.7209L99.5162 101.649H102.747L102.614 101.801V101.587C102.596 101.391 102.531 101.216 102.418 101.062C102.305 100.908 102.163 100.786 101.991 100.697C101.818 100.608 101.632 100.563 101.43 100.563C101.109 100.563 100.839 100.626 100.62 100.75C100.4 100.869 100.234 101.047 100.121 101.284C100.009 101.516 99.9523 101.804 99.9523 102.148C99.9523 102.474 100.021 102.759 100.157 103.002C100.294 103.24 100.486 103.424 100.736 103.554C100.985 103.685 101.273 103.75 101.599 103.75C101.83 103.75 102.044 103.711 102.24 103.634C102.442 103.557 102.658 103.418 102.89 103.216L103.352 103.866C103.21 104.008 103.035 104.133 102.827 104.239C102.625 104.346 102.409 104.432 102.177 104.498C101.952 104.557 101.729 104.587 101.51 104.587ZM104.633 106.456V99.8247H105.559V100.893L105.417 100.813C105.452 100.635 105.553 100.466 105.719 100.305C105.885 100.139 106.087 100.006 106.325 99.9048C106.568 99.798 106.817 99.7446 107.072 99.7446C107.494 99.7446 107.867 99.8485 108.194 100.056C108.52 100.264 108.778 100.549 108.968 100.911C109.158 101.273 109.253 101.688 109.253 102.157C109.253 102.62 109.158 103.035 108.968 103.403C108.784 103.765 108.529 104.053 108.203 104.266C107.876 104.474 107.508 104.578 107.099 104.578C106.826 104.578 106.562 104.524 106.307 104.417C106.052 104.305 105.835 104.162 105.657 103.99C105.479 103.818 105.369 103.64 105.328 103.456L105.559 103.332V106.456H104.633ZM106.948 103.732C107.221 103.732 107.464 103.664 107.677 103.527C107.891 103.391 108.06 103.204 108.185 102.967C108.309 102.729 108.372 102.459 108.372 102.157C108.372 101.854 108.309 101.587 108.185 101.356C108.066 101.118 107.9 100.931 107.686 100.795C107.473 100.658 107.227 100.59 106.948 100.59C106.669 100.59 106.422 100.658 106.209 100.795C105.995 100.925 105.826 101.109 105.702 101.347C105.577 101.584 105.515 101.854 105.515 102.157C105.515 102.459 105.577 102.729 105.702 102.967C105.826 103.204 105.995 103.391 106.209 103.527C106.422 103.664 106.669 103.732 106.948 103.732ZM110.916 104.498V98.6321H111.833V104.498H110.916ZM109.946 100.715V99.8247H112.919V100.715H109.946ZM115.98 104.587C115.499 104.587 115.072 104.486 114.698 104.284C114.33 104.076 114.039 103.794 113.826 103.438C113.618 103.082 113.514 102.673 113.514 102.21C113.514 101.842 113.574 101.507 113.692 101.204C113.811 100.902 113.974 100.641 114.182 100.421C114.395 100.196 114.648 100.024 114.938 99.9048C115.235 99.7802 115.555 99.7179 115.9 99.7179C116.202 99.7179 116.484 99.7773 116.745 99.8959C117.006 100.009 117.232 100.166 117.422 100.368C117.617 100.569 117.766 100.81 117.867 101.089C117.973 101.362 118.024 101.661 118.018 101.988L118.009 102.379H114.191L113.986 101.649H117.217L117.083 101.801V101.587C117.066 101.391 117 101.216 116.888 101.062C116.775 100.908 116.632 100.786 116.46 100.697C116.288 100.608 116.101 100.563 115.9 100.563C115.579 100.563 115.309 100.626 115.09 100.75C114.87 100.869 114.704 101.047 114.591 101.284C114.478 101.516 114.422 101.804 114.422 102.148C114.422 102.474 114.49 102.759 114.627 103.002C114.763 103.24 114.956 103.424 115.205 103.554C115.455 103.685 115.742 103.75 116.069 103.75C116.3 103.75 116.514 103.711 116.71 103.634C116.911 103.557 117.128 103.418 117.359 103.216L117.822 103.866C117.68 104.008 117.505 104.133 117.297 104.239C117.095 104.346 116.879 104.432 116.647 104.498C116.422 104.557 116.199 104.587 115.98 104.587ZM121.052 104.587C120.625 104.587 120.242 104.483 119.904 104.275C119.572 104.061 119.308 103.774 119.112 103.412C118.916 103.044 118.818 102.625 118.818 102.157C118.818 101.688 118.913 101.273 119.103 100.911C119.299 100.543 119.563 100.255 119.895 100.047C120.228 99.8336 120.604 99.7268 121.026 99.7268C121.257 99.7268 121.48 99.7654 121.693 99.8425C121.913 99.9137 122.109 100.015 122.281 100.145C122.453 100.27 122.586 100.409 122.681 100.563C122.782 100.712 122.833 100.863 122.833 101.017L122.566 101.035V97.9111H123.482V104.498H122.566V103.385H122.744C122.744 103.527 122.696 103.67 122.601 103.812C122.506 103.949 122.379 104.076 122.218 104.195C122.064 104.314 121.883 104.409 121.675 104.48C121.474 104.551 121.266 104.587 121.052 104.587ZM121.177 103.794C121.456 103.794 121.702 103.723 121.916 103.581C122.129 103.438 122.296 103.246 122.414 103.002C122.539 102.753 122.601 102.471 122.601 102.157C122.601 101.842 122.539 101.563 122.414 101.32C122.296 101.071 122.129 100.875 121.916 100.733C121.702 100.59 121.456 100.519 121.177 100.519C120.898 100.519 120.652 100.59 120.438 100.733C120.225 100.875 120.056 101.071 119.931 101.32C119.812 101.563 119.753 101.842 119.753 102.157C119.753 102.471 119.812 102.753 119.931 103.002C120.056 103.246 120.225 103.438 120.438 103.581C120.652 103.723 120.898 103.794 121.177 103.794ZM125.207 104.587C125.011 104.587 124.86 104.53 124.753 104.417C124.646 104.299 124.593 104.133 124.593 103.919C124.593 103.723 124.649 103.563 124.762 103.438C124.875 103.314 125.023 103.251 125.207 103.251C125.403 103.251 125.554 103.311 125.661 103.429C125.768 103.542 125.821 103.705 125.821 103.919C125.821 104.115 125.765 104.275 125.652 104.4C125.539 104.524 125.391 104.587 125.207 104.587ZM125.207 101.071C125.011 101.071 124.86 101.014 124.753 100.902C124.646 100.783 124.593 100.617 124.593 100.403C124.593 100.207 124.649 100.047 124.762 99.9226C124.875 99.798 125.023 99.7357 125.207 99.7357C125.403 99.7357 125.554 99.7951 125.661 99.9137C125.768 100.026 125.821 100.19 125.821 100.403C125.821 100.599 125.765 100.759 125.652 100.884C125.539 101.009 125.391 101.071 125.207 101.071ZM129.763 104.498V98.2671H132.299C132.637 98.2671 132.943 98.3532 133.216 98.5253C133.495 98.6914 133.717 98.9198 133.884 99.2106C134.05 99.5014 134.133 99.8247 134.133 100.181C134.133 100.537 134.05 100.86 133.884 101.151C133.717 101.442 133.495 101.676 133.216 101.854C132.943 102.026 132.637 102.112 132.299 102.112H130.724V104.498H129.763ZM130.724 101.187H132.281C132.442 101.187 132.587 101.142 132.718 101.053C132.848 100.958 132.952 100.836 133.029 100.688C133.112 100.534 133.154 100.365 133.154 100.181C133.154 99.9968 133.112 99.8307 133.029 99.6823C132.952 99.534 132.848 99.4153 132.718 99.3263C132.587 99.2373 132.442 99.1928 132.281 99.1928H130.724V101.187ZM135.493 104.498V98.2671H137.931C138.376 98.2671 138.777 98.3413 139.133 98.4897C139.495 98.638 139.804 98.8516 140.059 99.1305C140.314 99.4094 140.51 99.7387 140.646 100.118C140.783 100.498 140.851 100.92 140.851 101.382C140.851 101.845 140.783 102.269 140.646 102.655C140.51 103.035 140.314 103.364 140.059 103.643C139.809 103.916 139.504 104.127 139.142 104.275C138.78 104.423 138.376 104.498 137.931 104.498H135.493ZM136.454 103.67L136.427 103.572H137.887C138.201 103.572 138.48 103.521 138.724 103.421C138.973 103.32 139.181 103.177 139.347 102.993C139.519 102.803 139.649 102.572 139.738 102.299C139.827 102.026 139.872 101.721 139.872 101.382C139.872 101.044 139.827 100.742 139.738 100.474C139.649 100.202 139.519 99.9701 139.347 99.7802C139.175 99.5904 138.967 99.445 138.724 99.3441C138.48 99.2432 138.201 99.1928 137.887 99.1928H136.401L136.454 99.1127V103.67ZM142.24 104.498V98.2671H143.201V104.498H142.24ZM142.667 101.845V100.92H145.88V101.845H142.667ZM142.667 99.1928V98.2671H146.281V99.1928H142.667ZM154.512 104.498L153.702 103.634L153.56 103.474L152.02 101.756C151.872 101.59 151.729 101.421 151.593 101.249C151.456 101.071 151.335 100.896 151.228 100.724C151.127 100.552 151.044 100.385 150.979 100.225C150.919 100.059 150.89 99.9048 150.89 99.7624C150.89 99.4598 150.967 99.1898 151.121 98.9525C151.281 98.7092 151.498 98.5193 151.771 98.3828C152.05 98.2464 152.37 98.1781 152.732 98.1781C152.999 98.1781 153.248 98.2286 153.48 98.3294C153.711 98.4244 153.91 98.5609 154.076 98.7389C154.248 98.9109 154.373 99.1127 154.45 99.3441L153.756 99.7891C153.643 99.5162 153.504 99.3174 153.337 99.1928C153.177 99.0682 152.975 99.0059 152.732 99.0059C152.548 99.0059 152.394 99.0356 152.269 99.0949C152.145 99.1483 152.05 99.2284 151.984 99.3352C151.919 99.442 151.887 99.5755 151.887 99.7357C151.887 99.8663 151.922 100.012 151.993 100.172C152.071 100.326 152.165 100.483 152.278 100.644C152.391 100.804 152.507 100.952 152.625 101.089C152.744 101.225 152.848 101.344 152.937 101.445L154.174 102.824L154.432 103.109L155.705 104.498H154.512ZM152.118 104.587C151.697 104.587 151.314 104.498 150.97 104.32C150.626 104.136 150.35 103.895 150.142 103.599C149.94 103.296 149.839 102.967 149.839 102.611C149.839 102.142 149.967 101.735 150.222 101.391C150.483 101.047 150.863 100.783 151.361 100.599L151.931 101.284C151.551 101.368 151.269 101.507 151.086 101.703C150.902 101.893 150.81 102.151 150.81 102.477C150.81 102.726 150.869 102.946 150.988 103.136C151.106 103.326 151.275 103.474 151.495 103.581C151.72 103.688 151.987 103.741 152.296 103.741C152.563 103.741 152.806 103.691 153.026 103.59C153.251 103.483 153.453 103.335 153.631 103.145C153.809 102.955 153.954 102.726 154.067 102.459C154.186 102.192 154.272 101.896 154.325 101.569H155.144C155.097 101.931 155.011 102.266 154.886 102.575C154.767 102.884 154.616 103.162 154.432 103.412C154.254 103.661 154.046 103.875 153.809 104.053C153.578 104.225 153.32 104.358 153.035 104.453C152.75 104.542 152.444 104.587 152.118 104.587ZM160.845 104.498L158.86 98.2671H159.884L161.086 102.166C161.121 102.261 161.154 102.373 161.184 102.504C161.213 102.628 161.24 102.756 161.264 102.887C161.287 103.017 161.308 103.139 161.326 103.251C161.35 103.364 161.37 103.456 161.388 103.527L161.13 103.518C161.219 103.204 161.287 102.961 161.335 102.789C161.388 102.617 161.43 102.486 161.459 102.397C161.489 102.302 161.516 102.222 161.54 102.157L162.661 99.3441H163.524L164.61 102.157C164.67 102.299 164.72 102.442 164.762 102.584C164.809 102.72 164.851 102.86 164.886 103.002C164.922 103.139 164.96 103.284 165.002 103.438L164.77 103.501C164.8 103.34 164.821 103.216 164.833 103.127C164.851 103.032 164.865 102.955 164.877 102.895C164.889 102.836 164.901 102.78 164.913 102.726C164.925 102.667 164.943 102.593 164.966 102.504C164.996 102.415 165.035 102.293 165.082 102.139L166.266 98.2671H167.298L165.313 104.498H164.646L162.999 100.599L163.079 100.635L161.495 104.498H160.845ZM170.117 104.587C169.66 104.587 169.251 104.483 168.889 104.275C168.533 104.061 168.251 103.774 168.043 103.412C167.836 103.044 167.732 102.625 167.732 102.157C167.732 101.688 167.836 101.273 168.043 100.911C168.251 100.543 168.533 100.255 168.889 100.047C169.251 99.8336 169.66 99.7268 170.117 99.7268C170.568 99.7268 170.972 99.8336 171.328 100.047C171.69 100.255 171.974 100.543 172.182 100.911C172.39 101.273 172.494 101.688 172.494 102.157C172.494 102.625 172.39 103.044 172.182 103.412C171.974 103.774 171.69 104.061 171.328 104.275C170.972 104.483 170.568 104.587 170.117 104.587ZM170.117 103.75C170.396 103.75 170.645 103.682 170.865 103.545C171.084 103.403 171.256 103.213 171.381 102.976C171.506 102.732 171.565 102.459 171.559 102.157C171.565 101.848 171.506 101.575 171.381 101.338C171.256 101.095 171.084 100.905 170.865 100.768C170.645 100.632 170.396 100.563 170.117 100.563C169.838 100.563 169.586 100.635 169.361 100.777C169.141 100.914 168.969 101.103 168.844 101.347C168.72 101.584 168.66 101.854 168.666 102.157C168.66 102.459 168.72 102.732 168.844 102.976C168.969 103.213 169.141 103.403 169.361 103.545C169.586 103.682 169.838 103.75 170.117 103.75ZM173.582 104.498V99.8247H174.507V101.293L174.418 100.937C174.483 100.712 174.593 100.507 174.747 100.323C174.908 100.139 175.089 99.9939 175.29 99.887C175.498 99.7802 175.712 99.7268 175.931 99.7268C176.032 99.7268 176.127 99.7357 176.216 99.7535C176.311 99.7713 176.385 99.7921 176.439 99.8158L176.198 100.813C176.127 100.783 176.047 100.759 175.958 100.742C175.875 100.718 175.792 100.706 175.709 100.706C175.549 100.706 175.394 100.739 175.246 100.804C175.104 100.863 174.976 100.949 174.863 101.062C174.756 101.169 174.67 101.296 174.605 101.445C174.54 101.587 174.507 101.744 174.507 101.916V104.498H173.582ZM179.01 104.587C178.582 104.587 178.2 104.483 177.861 104.275C177.529 104.061 177.265 103.774 177.069 103.412C176.873 103.044 176.776 102.625 176.776 102.157C176.776 101.688 176.871 101.273 177.06 100.911C177.256 100.543 177.52 100.255 177.853 100.047C178.185 99.8336 178.562 99.7268 178.983 99.7268C179.214 99.7268 179.437 99.7654 179.65 99.8425C179.87 99.9137 180.066 100.015 180.238 100.145C180.41 100.27 180.543 100.409 180.638 100.563C180.739 100.712 180.79 100.863 180.79 101.017L180.523 101.035V97.9111H181.439V104.498H180.523V103.385H180.701C180.701 103.527 180.653 103.67 180.558 103.812C180.463 103.949 180.336 104.076 180.176 104.195C180.021 104.314 179.84 104.409 179.633 104.48C179.431 104.551 179.223 104.587 179.01 104.587ZM179.134 103.794C179.413 103.794 179.659 103.723 179.873 103.581C180.087 103.438 180.253 103.246 180.371 103.002C180.496 102.753 180.558 102.471 180.558 102.157C180.558 101.842 180.496 101.563 180.371 101.32C180.253 101.071 180.087 100.875 179.873 100.733C179.659 100.59 179.413 100.519 179.134 100.519C178.855 100.519 178.609 100.59 178.395 100.733C178.182 100.875 178.013 101.071 177.888 101.32C177.769 101.563 177.71 101.842 177.71 102.157C177.71 102.471 177.769 102.753 177.888 103.002C178.013 103.246 178.182 103.438 178.395 103.581C178.609 103.723 178.855 103.794 179.134 103.794ZM189.898 106.153C189.174 105.702 188.622 105.138 188.243 104.462C187.863 103.786 187.673 103.032 187.673 102.201C187.673 101.376 187.863 100.626 188.243 99.9494C188.628 99.267 189.183 98.7003 189.907 98.2493L190.396 98.8012C189.791 99.2225 189.328 99.7268 189.008 100.314C188.693 100.896 188.536 101.525 188.536 102.201C188.536 102.878 188.693 103.51 189.008 104.097C189.328 104.679 189.791 105.18 190.396 105.601L189.898 106.153ZM191.538 104.498V98.2671H192.481L194.751 101.961L194.297 101.952L196.593 98.2671H197.483V104.498H196.522V101.943C196.522 101.409 196.534 100.928 196.558 100.501C196.587 100.074 196.635 99.6497 196.7 99.2284L196.825 99.5577L194.786 102.709H194.199L192.223 99.5933L192.321 99.2284C192.386 99.626 192.431 100.035 192.454 100.457C192.484 100.872 192.499 101.368 192.499 101.943V104.498H191.538ZM200.886 104.587C200.5 104.587 200.147 104.48 199.826 104.266C199.512 104.053 199.26 103.762 199.07 103.394C198.88 103.026 198.785 102.611 198.785 102.148C198.785 101.679 198.88 101.264 199.07 100.902C199.266 100.534 199.527 100.246 199.853 100.038C200.185 99.8307 200.556 99.7268 200.966 99.7268C201.209 99.7268 201.431 99.7624 201.633 99.8336C201.835 99.9048 202.01 100.006 202.158 100.136C202.313 100.261 202.437 100.406 202.532 100.572C202.633 100.739 202.695 100.917 202.719 101.106L202.514 101.035V99.8247H203.44V104.498H202.514V103.385L202.728 103.323C202.692 103.483 202.618 103.64 202.505 103.794C202.399 103.943 202.259 104.076 202.087 104.195C201.921 104.314 201.734 104.409 201.526 104.48C201.325 104.551 201.111 104.587 200.886 104.587ZM201.126 103.741C201.405 103.741 201.651 103.673 201.865 103.536C202.078 103.4 202.244 103.213 202.363 102.976C202.488 102.732 202.55 102.456 202.55 102.148C202.55 101.845 202.488 101.575 202.363 101.338C202.244 101.1 202.078 100.914 201.865 100.777C201.651 100.641 201.405 100.572 201.126 100.572C200.853 100.572 200.61 100.641 200.396 100.777C200.188 100.914 200.022 101.1 199.898 101.338C199.779 101.575 199.72 101.845 199.72 102.148C199.72 102.456 199.779 102.732 199.898 102.976C200.022 103.213 200.188 103.4 200.396 103.536C200.61 103.673 200.853 103.741 201.126 103.741ZM207.915 104.498L206.402 102.531L206.269 102.361L204.302 99.8247H205.459L206.945 101.765L207.097 101.961L209.037 104.498H207.915ZM204.311 104.498L206.153 102.094L206.696 102.744L205.396 104.498H204.311ZM207.15 102.237L206.643 101.596L207.791 99.8247H208.877L207.15 102.237ZM214.972 104.498V99.4776L215.194 99.531L213.147 102.032L213.112 101.925H216.983V102.806H212.515L212.106 102.005L215.159 98.2671H215.897V104.498H214.972ZM218.319 104.498V98.2671H219.263L221.533 101.961L221.079 101.952L223.375 98.2671H224.265V104.498H223.304V101.943C223.304 101.409 223.316 100.928 223.339 100.501C223.369 100.074 223.416 99.6497 223.482 99.2284L223.606 99.5577L221.568 102.709H220.981L219.005 99.5933L219.103 99.2284C219.168 99.626 219.212 100.035 219.236 100.457C219.266 100.872 219.281 101.368 219.281 101.943V104.498H218.319ZM226.101 104.498V98.2671H228.7C229.097 98.2671 229.433 98.3265 229.706 98.4451C229.979 98.5638 230.183 98.7418 230.32 98.9792C230.462 99.2106 230.533 99.4954 230.533 99.8336C230.533 100.172 230.438 100.46 230.249 100.697C230.065 100.934 229.806 101.098 229.474 101.187V101.009C229.753 101.068 229.996 101.175 230.204 101.329C230.412 101.477 230.572 101.664 230.685 101.89C230.803 102.115 230.863 102.373 230.863 102.664C230.863 102.961 230.815 103.225 230.72 103.456C230.631 103.682 230.495 103.872 230.311 104.026C230.133 104.18 229.916 104.299 229.661 104.382C229.406 104.459 229.115 104.498 228.789 104.498H226.101ZM227.062 103.572H228.735C228.979 103.572 229.183 103.536 229.35 103.465C229.522 103.394 229.652 103.29 229.741 103.154C229.836 103.011 229.884 102.842 229.884 102.646C229.884 102.462 229.833 102.305 229.732 102.175C229.637 102.044 229.501 101.946 229.323 101.881C229.145 101.81 228.934 101.774 228.691 101.774H227.062V103.572ZM227.062 100.848H228.646C228.824 100.848 228.982 100.813 229.118 100.742C229.261 100.67 229.37 100.572 229.447 100.448C229.531 100.323 229.572 100.181 229.572 100.021C229.572 99.7535 229.483 99.5488 229.305 99.4064C229.127 99.264 228.872 99.1928 228.54 99.1928H227.062V100.848ZM236.781 104.587C236.3 104.587 235.873 104.486 235.499 104.284C235.131 104.076 234.841 103.794 234.627 103.438C234.419 103.082 234.316 102.673 234.316 102.21C234.316 101.842 234.375 101.507 234.494 101.204C234.612 100.902 234.775 100.641 234.983 100.421C235.197 100.196 235.449 100.024 235.74 99.9048C236.036 99.7802 236.357 99.7179 236.701 99.7179C237.004 99.7179 237.285 99.7773 237.546 99.8959C237.808 100.009 238.033 100.166 238.223 100.368C238.419 100.569 238.567 100.81 238.668 101.089C238.775 101.362 238.825 101.661 238.819 101.988L238.81 102.379H234.992L234.787 101.649H238.018L237.885 101.801V101.587C237.867 101.391 237.802 101.216 237.689 101.062C237.576 100.908 237.434 100.786 237.262 100.697C237.09 100.608 236.903 100.563 236.701 100.563C236.38 100.563 236.11 100.626 235.891 100.75C235.671 100.869 235.505 101.047 235.393 101.284C235.28 101.516 235.223 101.804 235.223 102.148C235.223 102.474 235.292 102.759 235.428 103.002C235.565 103.24 235.757 103.424 236.007 103.554C236.256 103.685 236.544 103.75 236.87 103.75C237.101 103.75 237.315 103.711 237.511 103.634C237.713 103.557 237.929 103.418 238.161 103.216L238.623 103.866C238.481 104.008 238.306 104.133 238.098 104.239C237.897 104.346 237.68 104.432 237.449 104.498C237.223 104.557 237.001 104.587 236.781 104.587ZM241.702 104.587C241.317 104.587 240.964 104.48 240.643 104.266C240.329 104.053 240.077 103.762 239.887 103.394C239.697 103.026 239.602 102.611 239.602 102.148C239.602 101.679 239.697 101.264 239.887 100.902C240.083 100.534 240.344 100.246 240.67 100.038C241.002 99.8307 241.373 99.7268 241.783 99.7268C242.026 99.7268 242.248 99.7624 242.45 99.8336C242.652 99.9048 242.827 100.006 242.975 100.136C243.13 100.261 243.254 100.406 243.349 100.572C243.45 100.739 243.512 100.917 243.536 101.106L243.331 101.035V99.8247H244.257V104.498H243.331V103.385L243.545 103.323C243.509 103.483 243.435 103.64 243.322 103.794C243.216 103.943 243.076 104.076 242.904 104.195C242.738 104.314 242.551 104.409 242.343 104.48C242.142 104.551 241.928 104.587 241.702 104.587ZM241.943 103.741C242.222 103.741 242.468 103.673 242.682 103.536C242.895 103.4 243.061 103.213 243.18 102.976C243.305 102.732 243.367 102.456 243.367 102.148C243.367 101.845 243.305 101.575 243.18 101.338C243.061 101.1 242.895 100.914 242.682 100.777C242.468 100.641 242.222 100.572 241.943 100.572C241.67 100.572 241.427 100.641 241.213 100.777C241.005 100.914 240.839 101.1 240.715 101.338C240.596 101.575 240.536 101.845 240.536 102.148C240.536 102.456 240.596 102.732 240.715 102.976C240.839 103.213 241.005 103.4 241.213 103.536C241.427 103.673 241.67 103.741 241.943 103.741ZM247.611 104.587C247.178 104.587 246.789 104.48 246.445 104.266C246.107 104.053 245.837 103.762 245.635 103.394C245.439 103.026 245.341 102.614 245.341 102.157C245.341 101.7 245.439 101.287 245.635 100.92C245.837 100.552 246.107 100.261 246.445 100.047C246.789 99.8336 247.178 99.7268 247.611 99.7268C248.026 99.7268 248.403 99.8129 248.741 99.985C249.085 100.151 249.346 100.38 249.524 100.67L249.017 101.293C248.922 101.157 248.801 101.032 248.652 100.92C248.504 100.807 248.347 100.718 248.18 100.652C248.014 100.587 247.854 100.555 247.7 100.555C247.415 100.555 247.16 100.626 246.934 100.768C246.715 100.905 246.54 101.095 246.409 101.338C246.279 101.581 246.213 101.854 246.213 102.157C246.213 102.459 246.282 102.732 246.418 102.976C246.555 103.213 246.736 103.403 246.961 103.545C247.187 103.688 247.436 103.759 247.709 103.759C247.869 103.759 248.023 103.732 248.172 103.679C248.326 103.625 248.474 103.545 248.617 103.438C248.759 103.332 248.892 103.201 249.017 103.047L249.524 103.67C249.335 103.937 249.062 104.156 248.706 104.328C248.355 104.501 247.991 104.587 247.611 104.587ZM250.478 104.498V97.9111H251.395V100.786L251.235 100.893C251.294 100.685 251.41 100.495 251.582 100.323C251.754 100.145 251.959 100.003 252.196 99.8959C252.433 99.7832 252.677 99.7268 252.926 99.7268C253.282 99.7268 253.579 99.798 253.816 99.9404C254.053 100.077 254.231 100.288 254.35 100.572C254.469 100.857 254.528 101.216 254.528 101.649V104.498H253.611V101.712C253.611 101.445 253.576 101.225 253.504 101.053C253.433 100.875 253.323 100.747 253.175 100.67C253.027 100.587 252.843 100.552 252.623 100.563C252.445 100.563 252.282 100.593 252.134 100.652C251.985 100.706 251.855 100.783 251.742 100.884C251.635 100.985 251.549 101.103 251.484 101.24C251.425 101.37 251.395 101.513 251.395 101.667V104.498H250.941C250.864 104.498 250.787 104.498 250.71 104.498C250.632 104.498 250.555 104.498 250.478 104.498ZM260.082 104.587C259.75 104.587 259.459 104.509 259.21 104.355C258.966 104.201 258.777 103.984 258.64 103.705C258.509 103.427 258.444 103.094 258.444 102.709V99.8247H259.361V102.459C259.361 102.732 259.403 102.97 259.486 103.171C259.575 103.367 259.699 103.518 259.859 103.625C260.026 103.732 260.224 103.786 260.456 103.786C260.628 103.786 260.785 103.759 260.927 103.705C261.07 103.646 261.192 103.566 261.292 103.465C261.399 103.364 261.482 103.243 261.542 103.1C261.601 102.958 261.631 102.803 261.631 102.637V99.8247H262.547V104.498H261.631V103.518L261.791 103.412C261.72 103.631 261.598 103.83 261.426 104.008C261.26 104.186 261.061 104.328 260.83 104.435C260.598 104.536 260.349 104.587 260.082 104.587ZM263.922 106.456V99.8247H264.848V100.893L264.706 100.813C264.741 100.635 264.842 100.466 265.008 100.305C265.174 100.139 265.376 100.006 265.613 99.9048C265.857 99.798 266.106 99.7446 266.361 99.7446C266.782 99.7446 267.156 99.8485 267.483 100.056C267.809 100.264 268.067 100.549 268.257 100.911C268.447 101.273 268.542 101.688 268.542 102.157C268.542 102.62 268.447 103.035 268.257 103.403C268.073 103.765 267.818 104.053 267.491 104.266C267.165 104.474 266.797 104.578 266.388 104.578C266.115 104.578 265.851 104.524 265.596 104.417C265.34 104.305 265.124 104.162 264.946 103.99C264.768 103.818 264.658 103.64 264.617 103.456L264.848 103.332V106.456H263.922ZM266.236 103.732C266.509 103.732 266.753 103.664 266.966 103.527C267.18 103.391 267.349 103.204 267.474 102.967C267.598 102.729 267.661 102.459 267.661 102.157C267.661 101.854 267.598 101.587 267.474 101.356C267.355 101.118 267.189 100.931 266.975 100.795C266.762 100.658 266.515 100.59 266.236 100.59C265.958 100.59 265.711 100.658 265.498 100.795C265.284 100.925 265.115 101.109 264.99 101.347C264.866 101.584 264.803 101.854 264.803 102.157C264.803 102.459 264.866 102.729 264.99 102.967C265.115 103.204 265.284 103.391 265.498 103.527C265.711 103.664 265.958 103.732 266.236 103.732ZM272.788 104.498V98.6321H273.705V104.498H272.788ZM271.818 100.715V99.8247H274.791V100.715H271.818ZM277.772 104.587C277.315 104.587 276.906 104.483 276.544 104.275C276.188 104.061 275.906 103.774 275.698 103.412C275.49 103.044 275.387 102.625 275.387 102.157C275.387 101.688 275.49 101.273 275.698 100.911C275.906 100.543 276.188 100.255 276.544 100.047C276.906 99.8336 277.315 99.7268 277.772 99.7268C278.223 99.7268 278.626 99.8336 278.982 100.047C279.344 100.255 279.629 100.543 279.837 100.911C280.045 101.273 280.148 101.688 280.148 102.157C280.148 102.625 280.045 103.044 279.837 103.412C279.629 103.774 279.344 104.061 278.982 104.275C278.626 104.483 278.223 104.587 277.772 104.587ZM277.772 103.75C278.051 103.75 278.3 103.682 278.52 103.545C278.739 103.403 278.911 103.213 279.036 102.976C279.16 102.732 279.22 102.459 279.214 102.157C279.22 101.848 279.16 101.575 279.036 101.338C278.911 101.095 278.739 100.905 278.52 100.768C278.3 100.632 278.051 100.563 277.772 100.563C277.493 100.563 277.241 100.635 277.015 100.777C276.796 100.914 276.624 101.103 276.499 101.347C276.375 101.584 276.315 101.854 276.321 102.157C276.315 102.459 276.375 102.732 276.499 102.976C276.624 103.213 276.796 103.403 277.015 103.545C277.241 103.682 277.493 103.75 277.772 103.75ZM285.111 104.061V99.0059L285.44 99.2551L284.212 99.9048L283.953 99.0682L285.618 98.1781H286.081V104.061H285.111ZM284.123 104.498V103.572H287.095V104.498H284.123ZM290.415 104.587C289.941 104.587 289.531 104.456 289.187 104.195C288.849 103.934 288.588 103.566 288.404 103.091C288.22 102.611 288.128 102.041 288.128 101.382C288.128 100.724 288.22 100.157 288.404 99.6823C288.588 99.2017 288.849 98.8308 289.187 98.5698C289.531 98.3087 289.941 98.1781 290.415 98.1781C290.89 98.1781 291.299 98.3087 291.644 98.5698C291.988 98.8308 292.252 99.2017 292.436 99.6823C292.62 100.157 292.712 100.724 292.712 101.382C292.712 102.041 292.62 102.611 292.436 103.091C292.252 103.566 291.988 103.934 291.644 104.195C291.299 104.456 290.89 104.587 290.415 104.587ZM290.415 103.714C290.848 103.714 291.184 103.513 291.421 103.109C291.658 102.7 291.777 102.124 291.777 101.382C291.777 100.641 291.658 100.068 291.421 99.6645C291.184 99.2551 290.848 99.0504 290.415 99.0504C289.982 99.0504 289.647 99.2551 289.41 99.6645C289.172 100.068 289.054 100.641 289.054 101.382C289.054 102.124 289.172 102.7 289.41 103.109C289.647 103.513 289.982 103.714 290.415 103.714ZM61.9294 119.498V114.3C61.9294 114.033 61.9888 113.795 62.1074 113.588C62.2261 113.38 62.3893 113.217 62.597 113.098C62.8047 112.979 63.045 112.92 63.3179 112.92C63.5078 112.92 63.6858 112.956 63.852 113.027C64.0181 113.098 64.1516 113.193 64.2525 113.312L63.941 114.015C63.8638 113.944 63.7778 113.887 63.6828 113.846C63.5938 113.798 63.5078 113.774 63.4247 113.774C63.3001 113.774 63.1933 113.795 63.1043 113.837C63.0212 113.872 62.9589 113.932 62.9174 114.015C62.8759 114.092 62.8551 114.187 62.8551 114.3V119.498H62.3923C62.3151 119.498 62.238 119.498 62.1608 119.498C62.0837 119.498 62.0066 119.498 61.9294 119.498ZM61.1818 115.75V114.905H63.9588V115.75H61.1818ZM65.0713 119.498V114.825H65.9881V119.498H65.0713ZM65.5164 113.792C65.3206 113.792 65.1692 113.742 65.0624 113.641C64.9556 113.54 64.9022 113.398 64.9022 113.214C64.9022 113.042 64.9556 112.902 65.0624 112.795C65.1752 112.689 65.3265 112.635 65.5164 112.635C65.7122 112.635 65.8635 112.686 65.9703 112.787C66.0771 112.887 66.1305 113.03 66.1305 113.214C66.1305 113.386 66.0741 113.525 65.9614 113.632C65.8546 113.739 65.7063 113.792 65.5164 113.792ZM67.5003 119.498V112.911H68.4171V119.498H67.5003ZM71.8991 119.587C71.4184 119.587 70.9912 119.486 70.6174 119.284C70.2495 119.076 69.9587 118.794 69.7451 118.438C69.5374 118.082 69.4336 117.673 69.4336 117.21C69.4336 116.842 69.4929 116.507 69.6116 116.204C69.7303 115.902 69.8935 115.641 70.1012 115.421C70.3148 115.196 70.567 115.024 70.8577 114.905C71.1544 114.78 71.4748 114.718 71.819 114.718C72.1216 114.718 72.4034 114.777 72.6645 114.896C72.9256 115.009 73.1511 115.166 73.341 115.368C73.5368 115.569 73.6851 115.81 73.786 116.089C73.8928 116.362 73.9432 116.661 73.9373 116.988L73.9284 117.379H70.1101L69.9053 116.649H73.1363L73.0028 116.801V116.587C72.9849 116.391 72.9197 116.216 72.8069 116.062C72.6942 115.908 72.5518 115.786 72.3797 115.697C72.2076 115.608 72.0207 115.563 71.819 115.563C71.4985 115.563 71.2286 115.626 71.009 115.75C70.7895 115.869 70.6233 116.047 70.5106 116.284C70.3978 116.516 70.3415 116.804 70.3415 117.148C70.3415 117.474 70.4097 117.759 70.5462 118.002C70.6827 118.24 70.8755 118.424 71.1247 118.554C71.3739 118.685 71.6617 118.75 71.9881 118.75C72.2195 118.75 72.4331 118.711 72.6289 118.634C72.8307 118.557 73.0473 118.418 73.2787 118.216L73.7415 118.866C73.5991 119.008 73.424 119.133 73.2164 119.239C73.0146 119.346 72.798 119.432 72.5666 119.498C72.3411 119.557 72.1186 119.587 71.8991 119.587ZM76.5802 119.587C76.1886 119.587 75.8356 119.518 75.5211 119.382C75.2066 119.245 74.9455 119.044 74.7378 118.777L75.3609 118.243C75.5389 118.45 75.7317 118.602 75.9394 118.697C76.153 118.786 76.3933 118.83 76.6603 118.83C76.7671 118.83 76.8651 118.818 76.9541 118.794C77.049 118.765 77.1291 118.723 77.1944 118.67C77.2656 118.616 77.319 118.554 77.3546 118.483C77.3902 118.406 77.408 118.323 77.408 118.234C77.408 118.079 77.3516 117.955 77.2389 117.86C77.1795 117.818 77.0846 117.774 76.9541 117.726C76.8295 117.673 76.6663 117.62 76.4645 117.566C76.1204 117.477 75.8385 117.376 75.619 117.264C75.3994 117.151 75.2303 117.023 75.1116 116.881C75.0226 116.768 74.9574 116.646 74.9158 116.516C74.8743 116.379 74.8535 116.231 74.8535 116.071C74.8535 115.875 74.8951 115.697 74.9781 115.537C75.0671 115.371 75.1858 115.228 75.3342 115.11C75.4884 114.985 75.6664 114.89 75.8682 114.825C76.0759 114.759 76.2954 114.727 76.5268 114.727C76.7464 114.727 76.963 114.757 77.1766 114.816C77.3961 114.875 77.5979 114.961 77.7818 115.074C77.9658 115.187 78.12 115.32 78.2446 115.474L77.7195 116.053C77.6068 115.94 77.4822 115.842 77.3457 115.759C77.2151 115.67 77.0816 115.602 76.9452 115.555C76.8087 115.507 76.6841 115.483 76.5713 115.483C76.4467 115.483 76.334 115.495 76.2331 115.519C76.1322 115.543 76.0462 115.578 75.975 115.626C75.9097 115.673 75.8593 115.733 75.8237 115.804C75.7881 115.875 75.7703 115.955 75.7703 116.044C75.7762 116.121 75.794 116.195 75.8237 116.267C75.8593 116.332 75.9068 116.388 75.9661 116.436C76.0314 116.483 76.1293 116.534 76.2598 116.587C76.3904 116.64 76.5565 116.691 76.7582 116.738C77.0549 116.816 77.2982 116.902 77.4881 116.996C77.6839 117.085 77.8382 117.189 77.9509 117.308C78.0696 117.421 78.1527 117.551 78.2001 117.7C78.2476 117.848 78.2714 118.014 78.2714 118.198C78.2714 118.465 78.1942 118.705 78.0399 118.919C77.8916 119.127 77.6898 119.29 77.4347 119.409C77.1795 119.527 76.8947 119.587 76.5802 119.587ZM79.3974 121.153L78.9079 120.601C79.5131 120.18 79.973 119.679 80.2875 119.097C80.6079 118.51 80.7681 117.878 80.7681 117.201C80.7681 116.525 80.6079 115.896 80.2875 115.314C79.973 114.727 79.5131 114.222 78.9079 113.801L79.4063 113.249C80.1302 113.7 80.6821 114.264 81.0618 114.94C81.4416 115.617 81.6315 116.37 81.6315 117.201C81.6315 118.026 81.4386 118.78 81.0529 119.462C80.6732 120.138 80.1213 120.702 79.3974 121.153Z" fill="#586977"/>
<rect x="61.1236" y="134.425" width="245.573" height="104.069" rx="3.76564" fill="#E6E9EB" fill-opacity="0.5"/>
<rect x="61.1236" y="134.425" width="245.573" height="104.069" rx="3.76564" stroke="#97BBC7" stroke-width="0.684662" stroke-dasharray="3.42 3.42"/>
<path d="M157.904 179.189C157.904 182.72 160.636 185.612 164.105 185.869V185.887H202.043C206.392 185.887 209.916 182.363 209.916 178.014C209.916 173.914 206.782 170.542 202.779 170.174C202.552 163.049 196.705 157.339 189.523 157.339C183.806 157.339 178.933 160.955 177.07 166.026C176.011 165.49 174.817 165.193 173.55 165.193C169.365 165.193 165.941 168.457 165.692 172.579C165.338 172.52 164.975 172.49 164.603 172.49C160.904 172.49 157.904 175.49 157.904 179.189Z" fill="#1D6C86"/>
<path d="M187.982 176.138H179.84V185.887H187.982V176.138Z" fill="white"/>
<path d="M177.289 177.568H190.53L183.91 169.793L177.289 177.568Z" fill="white"/>
<path d="M116.816 210.581V204.829H119.067C119.478 204.829 119.847 204.898 120.176 205.035C120.51 205.172 120.795 205.369 121.03 205.626C121.266 205.884 121.447 206.188 121.573 206.538C121.699 206.889 121.762 207.278 121.762 207.705C121.762 208.132 121.699 208.524 121.573 208.88C121.447 209.23 121.266 209.534 121.03 209.792C120.8 210.044 120.518 210.238 120.184 210.375C119.85 210.512 119.478 210.581 119.067 210.581H116.816ZM117.703 209.816L117.678 209.726H119.026C119.316 209.726 119.574 209.68 119.798 209.586C120.028 209.493 120.22 209.362 120.373 209.192C120.532 209.017 120.653 208.803 120.735 208.551C120.817 208.299 120.858 208.017 120.858 207.705C120.858 207.393 120.817 207.113 120.735 206.867C120.653 206.615 120.532 206.401 120.373 206.226C120.214 206.051 120.023 205.917 119.798 205.824C119.574 205.73 119.316 205.684 119.026 205.684H117.654L117.703 205.61V209.816ZM122.83 210.581V206.267H123.685V207.623L123.602 207.294C123.663 207.086 123.764 206.897 123.906 206.727C124.054 206.557 124.221 206.423 124.408 206.325C124.599 206.226 124.797 206.177 124.999 206.177C125.092 206.177 125.18 206.185 125.262 206.201C125.35 206.218 125.418 206.237 125.467 206.259L125.246 207.179C125.18 207.152 125.106 207.13 125.024 207.113C124.947 207.092 124.87 207.081 124.794 207.081C124.646 207.081 124.503 207.111 124.367 207.171C124.235 207.226 124.117 207.305 124.013 207.409C123.915 207.508 123.835 207.626 123.775 207.762C123.715 207.894 123.685 208.039 123.685 208.198V210.581H122.83ZM127.701 210.663C127.345 210.663 127.019 210.564 126.723 210.367C126.433 210.17 126.2 209.901 126.025 209.562C125.85 209.222 125.762 208.839 125.762 208.412C125.762 207.979 125.85 207.595 126.025 207.261C126.206 206.922 126.447 206.656 126.748 206.464C127.055 206.273 127.397 206.177 127.775 206.177C128 206.177 128.205 206.21 128.391 206.275C128.577 206.341 128.739 206.434 128.876 206.555C129.018 206.67 129.133 206.804 129.221 206.957C129.314 207.111 129.372 207.275 129.394 207.45L129.205 207.385V206.267H130.059V210.581H129.205V209.554L129.402 209.496C129.369 209.644 129.3 209.789 129.196 209.932C129.098 210.068 128.969 210.192 128.81 210.301C128.657 210.411 128.484 210.498 128.293 210.564C128.106 210.63 127.909 210.663 127.701 210.663ZM127.923 209.882C128.18 209.882 128.408 209.819 128.605 209.693C128.802 209.567 128.955 209.395 129.065 209.176C129.18 208.951 129.237 208.696 129.237 208.412C129.237 208.132 129.18 207.883 129.065 207.664C128.955 207.445 128.802 207.272 128.605 207.146C128.408 207.02 128.18 206.957 127.923 206.957C127.671 206.957 127.446 207.02 127.249 207.146C127.057 207.272 126.904 207.445 126.789 207.664C126.68 207.883 126.625 208.132 126.625 208.412C126.625 208.696 126.68 208.951 126.789 209.176C126.904 209.395 127.057 209.567 127.249 209.693C127.446 209.819 127.671 209.882 127.923 209.882ZM133.253 212.47C132.947 212.47 132.64 212.421 132.333 212.322C132.032 212.229 131.788 212.106 131.602 211.953L131.914 211.295C132.024 211.378 132.153 211.449 132.3 211.509C132.448 211.575 132.604 211.624 132.769 211.657C132.933 211.695 133.095 211.714 133.253 211.714C133.555 211.714 133.807 211.665 134.009 211.566C134.212 211.468 134.365 211.323 134.469 211.131C134.574 210.939 134.626 210.701 134.626 210.416V209.586L134.716 209.644C134.689 209.814 134.598 209.978 134.445 210.137C134.297 210.29 134.111 210.416 133.886 210.515C133.662 210.613 133.432 210.663 133.196 210.663C132.785 210.663 132.418 210.567 132.095 210.375C131.777 210.178 131.525 209.912 131.339 209.578C131.153 209.239 131.06 208.852 131.06 208.42C131.06 207.987 131.15 207.604 131.331 207.27C131.517 206.93 131.769 206.664 132.087 206.473C132.41 206.275 132.771 206.177 133.171 206.177C133.336 206.177 133.494 206.199 133.648 206.243C133.801 206.281 133.944 206.338 134.075 206.415C134.207 206.486 134.324 206.566 134.428 206.653C134.532 206.741 134.617 206.834 134.683 206.933C134.749 207.031 134.79 207.124 134.806 207.212L134.626 207.278V206.267H135.472V210.318C135.472 210.663 135.42 210.967 135.316 211.23C135.217 211.498 135.072 211.723 134.88 211.903C134.689 212.09 134.456 212.229 134.182 212.322C133.908 212.421 133.599 212.47 133.253 212.47ZM133.286 209.882C133.555 209.882 133.793 209.819 134.001 209.693C134.209 209.567 134.371 209.395 134.486 209.176C134.601 208.957 134.658 208.705 134.658 208.42C134.658 208.135 134.598 207.883 134.478 207.664C134.363 207.439 134.201 207.264 133.993 207.138C133.79 207.012 133.555 206.949 133.286 206.949C133.023 206.949 132.788 207.015 132.58 207.146C132.377 207.272 132.216 207.448 132.095 207.672C131.98 207.891 131.923 208.14 131.923 208.42C131.923 208.699 131.98 208.951 132.095 209.176C132.216 209.395 132.377 209.567 132.58 209.693C132.788 209.819 133.023 209.882 133.286 209.882ZM143.258 210.581L142.51 209.784L142.379 209.636L140.957 208.05C140.821 207.897 140.689 207.741 140.563 207.582C140.437 207.417 140.325 207.256 140.226 207.097C140.133 206.938 140.056 206.785 139.996 206.637C139.941 206.484 139.914 206.341 139.914 206.21C139.914 205.93 139.985 205.681 140.128 205.462C140.276 205.237 140.475 205.062 140.727 204.936C140.985 204.81 141.281 204.747 141.615 204.747C141.861 204.747 142.091 204.794 142.305 204.887C142.519 204.975 142.702 205.101 142.855 205.265C143.014 205.424 143.129 205.61 143.2 205.824L142.56 206.234C142.456 205.982 142.327 205.799 142.173 205.684C142.026 205.569 141.839 205.511 141.615 205.511C141.445 205.511 141.303 205.539 141.188 205.593C141.073 205.643 140.985 205.717 140.925 205.815C140.864 205.914 140.834 206.037 140.834 206.185C140.834 206.306 140.867 206.44 140.933 206.588C141.004 206.73 141.092 206.875 141.196 207.023C141.3 207.171 141.407 207.308 141.516 207.434C141.626 207.56 141.722 207.669 141.804 207.762L142.946 209.036L143.184 209.299L144.359 210.581H143.258ZM141.048 210.663C140.659 210.663 140.306 210.581 139.988 210.416C139.67 210.246 139.416 210.025 139.224 209.751C139.038 209.471 138.945 209.167 138.945 208.839C138.945 208.406 139.062 208.031 139.298 207.713C139.539 207.396 139.889 207.152 140.349 206.982L140.875 207.615C140.525 207.691 140.265 207.82 140.095 208.001C139.925 208.176 139.84 208.414 139.84 208.716C139.84 208.946 139.895 209.148 140.004 209.324C140.114 209.499 140.27 209.636 140.473 209.734C140.681 209.833 140.927 209.882 141.212 209.882C141.459 209.882 141.683 209.836 141.886 209.743C142.094 209.644 142.28 209.507 142.445 209.332C142.609 209.156 142.743 208.946 142.847 208.699C142.957 208.453 143.036 208.179 143.085 207.878H143.841C143.797 208.212 143.718 208.521 143.603 208.806C143.493 209.091 143.354 209.348 143.184 209.578C143.02 209.808 142.828 210.005 142.609 210.17C142.395 210.329 142.157 210.452 141.894 210.539C141.631 210.622 141.349 210.663 141.048 210.663ZM147.88 210.581V204.829H150.131C150.542 204.829 150.911 204.898 151.24 205.035C151.574 205.172 151.859 205.369 152.094 205.626C152.33 205.884 152.511 206.188 152.637 206.538C152.763 206.889 152.826 207.278 152.826 207.705C152.826 208.132 152.763 208.524 152.637 208.88C152.511 209.23 152.33 209.534 152.094 209.792C151.864 210.044 151.582 210.238 151.248 210.375C150.914 210.512 150.542 210.581 150.131 210.581H147.88ZM148.767 209.816L148.742 209.726H150.09C150.38 209.726 150.637 209.68 150.862 209.586C151.092 209.493 151.284 209.362 151.437 209.192C151.596 209.017 151.717 208.803 151.799 208.551C151.881 208.299 151.922 208.017 151.922 207.705C151.922 207.393 151.881 207.113 151.799 206.867C151.717 206.615 151.596 206.401 151.437 206.226C151.278 206.051 151.087 205.917 150.862 205.824C150.637 205.73 150.38 205.684 150.09 205.684H148.718L148.767 205.61V209.816ZM153.894 210.581V206.267H154.749V207.623L154.666 207.294C154.727 207.086 154.828 206.897 154.97 206.727C155.118 206.557 155.285 206.423 155.472 206.325C155.663 206.226 155.86 206.177 156.063 206.177C156.156 206.177 156.244 206.185 156.326 206.201C156.414 206.218 156.482 206.237 156.531 206.259L156.31 207.179C156.244 207.152 156.17 207.13 156.088 207.113C156.011 207.092 155.934 207.081 155.858 207.081C155.71 207.081 155.567 207.111 155.43 207.171C155.299 207.226 155.181 207.305 155.077 207.409C154.979 207.508 154.899 207.626 154.839 207.762C154.779 207.894 154.749 208.039 154.749 208.198V210.581H153.894ZM159.044 210.663C158.623 210.663 158.245 210.567 157.911 210.375C157.582 210.178 157.322 209.912 157.13 209.578C156.938 209.239 156.842 208.852 156.842 208.42C156.842 207.987 156.938 207.604 157.13 207.27C157.322 206.93 157.582 206.664 157.911 206.473C158.245 206.275 158.623 206.177 159.044 206.177C159.461 206.177 159.833 206.275 160.162 206.473C160.496 206.664 160.759 206.93 160.95 207.27C161.142 207.604 161.238 207.987 161.238 208.42C161.238 208.852 161.142 209.239 160.95 209.578C160.759 209.912 160.496 210.178 160.162 210.375C159.833 210.567 159.461 210.663 159.044 210.663ZM159.044 209.89C159.302 209.89 159.532 209.827 159.734 209.701C159.937 209.57 160.096 209.395 160.211 209.176C160.326 208.951 160.381 208.699 160.375 208.42C160.381 208.135 160.326 207.883 160.211 207.664C160.096 207.439 159.937 207.264 159.734 207.138C159.532 207.012 159.302 206.949 159.044 206.949C158.787 206.949 158.554 207.015 158.346 207.146C158.143 207.272 157.985 207.448 157.869 207.672C157.754 207.891 157.7 208.14 157.705 208.42C157.7 208.699 157.754 208.951 157.869 209.176C157.985 209.395 158.143 209.57 158.346 209.701C158.554 209.827 158.787 209.89 159.044 209.89ZM162.242 212.388V206.267H163.097V207.253L162.965 207.179C162.998 207.015 163.091 206.859 163.245 206.711C163.398 206.557 163.584 206.434 163.803 206.341C164.028 206.243 164.258 206.193 164.493 206.193C164.882 206.193 165.227 206.289 165.529 206.481C165.83 206.673 166.068 206.935 166.243 207.27C166.419 207.604 166.506 207.987 166.506 208.42C166.506 208.847 166.419 209.23 166.243 209.57C166.074 209.904 165.838 210.17 165.537 210.367C165.236 210.559 164.896 210.655 164.518 210.655C164.266 210.655 164.022 210.605 163.787 210.507C163.551 210.403 163.351 210.271 163.187 210.112C163.023 209.953 162.921 209.789 162.883 209.619L163.097 209.504V212.388H162.242ZM164.378 209.874C164.63 209.874 164.855 209.811 165.052 209.685C165.249 209.559 165.405 209.387 165.52 209.167C165.635 208.948 165.693 208.699 165.693 208.42C165.693 208.14 165.635 207.894 165.52 207.68C165.411 207.461 165.258 207.289 165.06 207.163C164.863 207.037 164.636 206.974 164.378 206.974C164.121 206.974 163.894 207.037 163.697 207.163C163.499 207.283 163.343 207.453 163.228 207.672C163.113 207.891 163.056 208.14 163.056 208.42C163.056 208.699 163.113 208.948 163.228 209.167C163.343 209.387 163.499 209.559 163.697 209.685C163.894 209.811 164.121 209.874 164.378 209.874ZM170.106 210.581V204.829H170.993V210.581H170.106ZM170.5 208.132V207.278H173.466V208.132H170.5ZM170.5 205.684V204.829H173.836V205.684H170.5ZM175.057 210.581V206.267H175.903V210.581H175.057ZM175.467 205.314C175.287 205.314 175.147 205.268 175.048 205.174C174.95 205.081 174.901 204.95 174.901 204.78C174.901 204.621 174.95 204.493 175.048 204.394C175.152 204.295 175.292 204.246 175.467 204.246C175.648 204.246 175.788 204.293 175.886 204.386C175.985 204.479 176.034 204.61 176.034 204.78C176.034 204.939 175.982 205.068 175.878 205.166C175.78 205.265 175.643 205.314 175.467 205.314ZM177.302 210.581V204.501H178.148V210.581H177.302ZM181.363 210.663C180.919 210.663 180.525 210.57 180.18 210.383C179.84 210.192 179.572 209.932 179.374 209.603C179.183 209.274 179.087 208.896 179.087 208.469C179.087 208.129 179.142 207.82 179.251 207.541C179.361 207.261 179.511 207.02 179.703 206.818C179.9 206.61 180.133 206.451 180.401 206.341C180.675 206.226 180.971 206.169 181.289 206.169C181.568 206.169 181.828 206.223 182.069 206.333C182.31 206.437 182.518 206.582 182.694 206.768C182.874 206.955 183.011 207.176 183.104 207.434C183.203 207.686 183.25 207.962 183.244 208.264L183.236 208.625H179.711L179.522 207.951H182.505L182.381 208.091V207.894C182.365 207.713 182.305 207.552 182.201 207.409C182.097 207.267 181.965 207.155 181.806 207.072C181.647 206.99 181.475 206.949 181.289 206.949C180.993 206.949 180.744 207.007 180.541 207.122C180.338 207.231 180.185 207.396 180.081 207.615C179.977 207.828 179.925 208.094 179.925 208.412C179.925 208.713 179.988 208.976 180.114 209.2C180.24 209.419 180.418 209.589 180.648 209.71C180.878 209.83 181.144 209.89 181.445 209.89C181.658 209.89 181.856 209.855 182.036 209.784C182.223 209.712 182.422 209.584 182.636 209.397L183.063 209.997C182.932 210.129 182.77 210.244 182.579 210.342C182.392 210.441 182.192 210.52 181.979 210.581C181.771 210.635 181.565 210.663 181.363 210.663ZM185.684 210.663C185.322 210.663 184.996 210.6 184.706 210.474C184.416 210.348 184.175 210.162 183.983 209.915L184.558 209.422C184.722 209.614 184.9 209.753 185.092 209.841C185.289 209.923 185.511 209.964 185.758 209.964C185.856 209.964 185.947 209.953 186.029 209.932C186.116 209.904 186.19 209.866 186.251 209.816C186.316 209.767 186.366 209.71 186.398 209.644C186.431 209.573 186.448 209.496 186.448 209.414C186.448 209.271 186.396 209.156 186.292 209.069C186.237 209.03 186.149 208.989 186.029 208.946C185.914 208.896 185.763 208.847 185.577 208.798C185.259 208.716 184.999 208.622 184.796 208.518C184.594 208.414 184.438 208.297 184.328 208.165C184.246 208.061 184.186 207.949 184.147 207.828C184.109 207.702 184.09 207.565 184.09 207.417C184.09 207.237 184.128 207.072 184.205 206.924C184.287 206.771 184.397 206.64 184.533 206.53C184.676 206.415 184.84 206.327 185.026 206.267C185.218 206.207 185.421 206.177 185.634 206.177C185.837 206.177 186.037 206.204 186.234 206.259C186.437 206.314 186.623 206.393 186.793 206.497C186.963 206.601 187.105 206.725 187.22 206.867L186.735 207.401C186.631 207.297 186.516 207.207 186.39 207.13C186.27 207.048 186.147 206.985 186.021 206.941C185.895 206.897 185.78 206.875 185.675 206.875C185.56 206.875 185.456 206.886 185.363 206.908C185.27 206.93 185.191 206.963 185.125 207.007C185.065 207.05 185.018 207.105 184.985 207.171C184.952 207.237 184.936 207.311 184.936 207.393C184.942 207.464 184.958 207.532 184.985 207.598C185.018 207.658 185.062 207.71 185.117 207.754C185.177 207.798 185.267 207.845 185.388 207.894C185.508 207.943 185.662 207.99 185.848 208.034C186.122 208.105 186.346 208.184 186.522 208.272C186.702 208.354 186.845 208.45 186.949 208.559C187.059 208.664 187.135 208.784 187.179 208.921C187.223 209.058 187.245 209.211 187.245 209.381C187.245 209.628 187.174 209.849 187.031 210.047C186.894 210.238 186.708 210.389 186.472 210.498C186.237 210.608 185.974 210.663 185.684 210.663ZM194.613 210.581V204.829H195.5V210.581H194.613ZM190.858 210.581V204.829H191.745V210.581H190.858ZM191.244 208.14V207.286H195.007V208.14H191.244ZM198.99 210.663C198.546 210.663 198.152 210.57 197.807 210.383C197.467 210.192 197.199 209.932 197.001 209.603C196.81 209.274 196.714 208.896 196.714 208.469C196.714 208.129 196.769 207.82 196.878 207.541C196.988 207.261 197.138 207.02 197.33 206.818C197.527 206.61 197.76 206.451 198.028 206.341C198.302 206.226 198.598 206.169 198.916 206.169C199.195 206.169 199.455 206.223 199.696 206.333C199.937 206.437 200.145 206.582 200.321 206.768C200.501 206.955 200.638 207.176 200.731 207.434C200.83 207.686 200.877 207.962 200.871 208.264L200.863 208.625H197.338L197.149 207.951H200.132L200.008 208.091V207.894C199.992 207.713 199.932 207.552 199.828 207.409C199.724 207.267 199.592 207.155 199.433 207.072C199.275 206.99 199.102 206.949 198.916 206.949C198.62 206.949 198.371 207.007 198.168 207.122C197.965 207.231 197.812 207.396 197.708 207.615C197.604 207.828 197.552 208.094 197.552 208.412C197.552 208.713 197.615 208.976 197.741 209.2C197.867 209.419 198.045 209.589 198.275 209.71C198.505 209.83 198.771 209.89 199.072 209.89C199.285 209.89 199.483 209.855 199.663 209.784C199.85 209.712 200.05 209.584 200.263 209.397L200.69 209.997C200.559 210.129 200.397 210.244 200.206 210.342C200.019 210.441 199.819 210.52 199.606 210.581C199.398 210.635 199.192 210.663 198.99 210.663ZM201.873 210.581V206.267H202.727V207.623L202.645 207.294C202.706 207.086 202.807 206.897 202.949 206.727C203.097 206.557 203.264 206.423 203.45 206.325C203.642 206.226 203.839 206.177 204.042 206.177C204.135 206.177 204.223 206.185 204.305 206.201C204.393 206.218 204.461 206.237 204.51 206.259L204.288 207.179C204.223 207.152 204.149 207.13 204.067 207.113C203.99 207.092 203.913 207.081 203.837 207.081C203.689 207.081 203.546 207.111 203.409 207.171C203.278 207.226 203.16 207.305 203.056 207.409C202.957 207.508 202.878 207.626 202.818 207.762C202.758 207.894 202.727 208.039 202.727 208.198V210.581H201.873ZM207.097 210.663C206.653 210.663 206.259 210.57 205.914 210.383C205.574 210.192 205.306 209.932 205.109 209.603C204.917 209.274 204.821 208.896 204.821 208.469C204.821 208.129 204.876 207.82 204.986 207.541C205.095 207.261 205.246 207.02 205.438 206.818C205.635 206.61 205.867 206.451 206.136 206.341C206.41 206.226 206.706 206.169 207.023 206.169C207.303 206.169 207.563 206.223 207.804 206.333C208.045 206.437 208.253 206.582 208.428 206.768C208.609 206.955 208.746 207.176 208.839 207.434C208.938 207.686 208.984 207.962 208.979 208.264L208.97 208.625H205.446L205.257 207.951H208.239L208.116 208.091V207.894C208.099 207.713 208.039 207.552 207.935 207.409C207.831 207.267 207.7 207.155 207.541 207.072C207.382 206.99 207.209 206.949 207.023 206.949C206.727 206.949 206.478 207.007 206.276 207.122C206.073 207.231 205.92 207.396 205.815 207.615C205.711 207.828 205.659 208.094 205.659 208.412C205.659 208.713 205.722 208.976 205.848 209.2C205.974 209.419 206.152 209.589 206.382 209.71C206.612 209.83 206.878 209.89 207.179 209.89C207.393 209.89 207.59 209.855 207.771 209.784C207.957 209.712 208.157 209.584 208.371 209.397L208.798 209.997C208.666 210.129 208.505 210.244 208.313 210.342C208.127 210.441 207.927 210.52 207.713 210.581C207.505 210.635 207.3 210.663 207.097 210.663ZM214.304 210.663C213.883 210.663 213.505 210.567 213.17 210.375C212.842 210.178 212.582 209.912 212.39 209.578C212.198 209.239 212.102 208.852 212.102 208.42C212.102 207.987 212.198 207.604 212.39 207.27C212.582 206.93 212.842 206.664 213.17 206.473C213.505 206.275 213.883 206.177 214.304 206.177C214.721 206.177 215.093 206.275 215.422 206.473C215.756 206.664 216.019 206.93 216.21 207.27C216.402 207.604 216.498 207.987 216.498 208.42C216.498 208.852 216.402 209.239 216.21 209.578C216.019 209.912 215.756 210.178 215.422 210.375C215.093 210.567 214.721 210.663 214.304 210.663ZM214.304 209.89C214.562 209.89 214.792 209.827 214.994 209.701C215.197 209.57 215.356 209.395 215.471 209.176C215.586 208.951 215.641 208.699 215.635 208.42C215.641 208.135 215.586 207.883 215.471 207.664C215.356 207.439 215.197 207.264 214.994 207.138C214.792 207.012 214.562 206.949 214.304 206.949C214.047 206.949 213.814 207.015 213.606 207.146C213.403 207.272 213.244 207.448 213.129 207.672C213.014 207.891 212.96 208.14 212.965 208.42C212.96 208.699 213.014 208.951 213.129 209.176C213.244 209.395 213.403 209.57 213.606 209.701C213.814 209.827 214.047 209.89 214.304 209.89ZM217.502 210.581V206.267H218.357V207.623L218.274 207.294C218.335 207.086 218.436 206.897 218.578 206.727C218.726 206.557 218.893 206.423 219.08 206.325C219.271 206.226 219.469 206.177 219.671 206.177C219.764 206.177 219.852 206.185 219.934 206.201C220.022 206.218 220.09 206.237 220.14 206.259L219.918 207.179C219.852 207.152 219.778 207.13 219.696 207.113C219.619 207.092 219.542 207.081 219.466 207.081C219.318 207.081 219.175 207.111 219.039 207.171C218.907 207.226 218.789 207.305 218.685 207.409C218.587 207.508 218.507 207.626 218.447 207.762C218.387 207.894 218.357 208.039 218.357 208.198V210.581H217.502ZM225.731 210.63C225.288 210.63 224.89 210.534 224.54 210.342C224.189 210.145 223.913 209.877 223.71 209.537C223.513 209.192 223.414 208.803 223.414 208.37V204.821H224.302V208.297C224.302 208.576 224.367 208.828 224.499 209.052C224.63 209.271 224.803 209.447 225.016 209.578C225.236 209.71 225.474 209.775 225.731 209.775C226.005 209.775 226.252 209.71 226.471 209.578C226.695 209.447 226.873 209.271 227.005 209.052C227.136 208.828 227.202 208.576 227.202 208.297V204.821H228.048V208.37C228.048 208.803 227.947 209.192 227.744 209.537C227.547 209.877 227.273 210.145 226.923 210.342C226.572 210.534 226.175 210.63 225.731 210.63ZM229.447 212.388V206.267H230.301V207.253L230.17 207.179C230.203 207.015 230.296 206.859 230.449 206.711C230.602 206.557 230.789 206.434 231.008 206.341C231.232 206.243 231.462 206.193 231.698 206.193C232.087 206.193 232.432 206.289 232.733 206.481C233.034 206.673 233.273 206.935 233.448 207.27C233.623 207.604 233.711 207.987 233.711 208.42C233.711 208.847 233.623 209.23 233.448 209.57C233.278 209.904 233.043 210.17 232.741 210.367C232.44 210.559 232.1 210.655 231.723 210.655C231.471 210.655 231.227 210.605 230.991 210.507C230.756 210.403 230.556 210.271 230.392 210.112C230.227 209.953 230.126 209.789 230.088 209.619L230.301 209.504V212.388H229.447ZM231.583 209.874C231.835 209.874 232.059 209.811 232.257 209.685C232.454 209.559 232.61 209.387 232.725 209.167C232.84 208.948 232.897 208.699 232.897 208.42C232.897 208.14 232.84 207.894 232.725 207.68C232.615 207.461 232.462 207.289 232.265 207.163C232.068 207.037 231.84 206.974 231.583 206.974C231.325 206.974 231.098 207.037 230.901 207.163C230.704 207.283 230.548 207.453 230.433 207.672C230.318 207.891 230.26 208.14 230.26 208.42C230.26 208.699 230.318 208.948 230.433 209.167C230.548 209.387 230.704 209.559 230.901 209.685C231.098 209.811 231.325 209.874 231.583 209.874ZM234.728 210.581V204.501H235.575V210.581H234.728ZM238.715 210.663C238.293 210.663 237.915 210.567 237.581 210.375C237.252 210.178 236.992 209.912 236.801 209.578C236.609 209.239 236.513 208.852 236.513 208.42C236.513 207.987 236.609 207.604 236.801 207.27C236.992 206.93 237.252 206.664 237.581 206.473C237.915 206.275 238.293 206.177 238.715 206.177C239.131 206.177 239.504 206.275 239.832 206.473C240.166 206.664 240.429 206.93 240.621 207.27C240.813 207.604 240.909 207.987 240.909 208.42C240.909 208.852 240.813 209.239 240.621 209.578C240.429 209.912 240.166 210.178 239.832 210.375C239.504 210.567 239.131 210.663 238.715 210.663ZM238.715 209.89C238.972 209.89 239.202 209.827 239.405 209.701C239.608 209.57 239.767 209.395 239.882 209.176C239.997 208.951 240.051 208.699 240.046 208.42C240.051 208.135 239.997 207.883 239.882 207.664C239.767 207.439 239.608 207.264 239.405 207.138C239.202 207.012 238.972 206.949 238.715 206.949C238.457 206.949 238.225 207.015 238.017 207.146C237.814 207.272 237.655 207.448 237.54 207.672C237.425 207.891 237.37 208.14 237.376 208.42C237.37 208.699 237.425 208.951 237.54 209.176C237.655 209.395 237.814 209.57 238.017 209.701C238.225 209.827 238.457 209.89 238.715 209.89ZM243.572 210.663C243.216 210.663 242.891 210.564 242.595 210.367C242.304 210.17 242.072 209.901 241.896 209.562C241.721 209.222 241.633 208.839 241.633 208.412C241.633 207.979 241.721 207.595 241.896 207.261C242.077 206.922 242.318 206.656 242.619 206.464C242.926 206.273 243.268 206.177 243.646 206.177C243.871 206.177 244.076 206.21 244.263 206.275C244.449 206.341 244.61 206.434 244.747 206.555C244.89 206.67 245.005 206.804 245.092 206.957C245.186 207.111 245.243 207.275 245.265 207.45L245.076 207.385V206.267H245.93V210.581H245.076V209.554L245.273 209.496C245.24 209.644 245.172 209.789 245.068 209.932C244.969 210.068 244.84 210.192 244.682 210.301C244.528 210.411 244.356 210.498 244.164 210.564C243.978 210.63 243.781 210.663 243.572 210.663ZM243.794 209.882C244.052 209.882 244.279 209.819 244.476 209.693C244.673 209.567 244.827 209.395 244.936 209.176C245.051 208.951 245.109 208.696 245.109 208.412C245.109 208.132 245.051 207.883 244.936 207.664C244.827 207.445 244.673 207.272 244.476 207.146C244.279 207.02 244.052 206.957 243.794 206.957C243.542 206.957 243.318 207.02 243.121 207.146C242.929 207.272 242.776 207.445 242.66 207.664C242.551 207.883 242.496 208.132 242.496 208.412C242.496 208.696 242.551 208.951 242.66 209.176C242.776 209.395 242.929 209.567 243.121 209.693C243.318 209.819 243.542 209.882 243.794 209.882ZM248.993 210.663C248.599 210.663 248.246 210.567 247.934 210.375C247.627 210.178 247.383 209.912 247.202 209.578C247.022 209.239 246.931 208.852 246.931 208.42C246.931 207.987 247.019 207.604 247.194 207.27C247.375 206.93 247.619 206.664 247.925 206.473C248.232 206.275 248.58 206.177 248.969 206.177C249.182 206.177 249.388 206.212 249.585 206.284C249.788 206.349 249.968 206.442 250.127 206.563C250.286 206.678 250.409 206.807 250.497 206.949C250.59 207.086 250.637 207.226 250.637 207.368L250.39 207.385V204.501H251.236V210.581H250.39V209.554H250.554C250.554 209.685 250.511 209.816 250.423 209.948C250.335 210.074 250.218 210.192 250.07 210.301C249.927 210.411 249.76 210.498 249.569 210.564C249.382 210.63 249.191 210.663 248.993 210.663ZM249.108 209.932C249.366 209.932 249.593 209.866 249.79 209.734C249.988 209.603 250.141 209.425 250.25 209.2C250.366 208.97 250.423 208.71 250.423 208.42C250.423 208.129 250.366 207.872 250.25 207.647C250.141 207.417 249.988 207.237 249.79 207.105C249.593 206.974 249.366 206.908 249.108 206.908C248.851 206.908 248.624 206.974 248.427 207.105C248.229 207.237 248.073 207.417 247.958 207.647C247.849 207.872 247.794 208.129 247.794 208.42C247.794 208.71 247.849 208.97 247.958 209.2C248.073 209.425 248.229 209.603 248.427 209.734C248.624 209.866 248.851 209.932 249.108 209.932Z" fill="#333333"/>
</g>
<defs>
<filter id="filter0_d_971_43779" x="0.189453" y="0.28125" width="404.609" height="325.802" filterUnits="userSpaceOnUse" color-interpolation-filters="sRGB">
<feFlood flood-opacity="0" result="BackgroundImageFix"/>
<feColorMatrix in="SourceAlpha" type="matrix" values="0 0 0 0 0 0 0 0 0 0 0 0 0 0 0 0 0 0 127 0" result="hardAlpha"/>
<feOffset dx="17"/>
<feGaussianBlur stdDeviation="29"/>
<feComposite in2="hardAlpha" operator="out"/>
<feColorMatrix type="matrix" values="0 0 0 0 0 0 0 0 0 0 0 0 0 0 0 0 0 0 0.1 0"/>
<feBlend mode="normal" in2="BackgroundImageFix" result="effect1_dropShadow_971_43779"/>
<feBlend mode="normal" in="SourceGraphic" in2="effect1_dropShadow_971_43779" result="shape"/>
</filter>
</defs>
</svg>
